<?xml version="1.0" standalone="no"?>
<!DOCTYPE svg PUBLIC "-//W3C//DTD SVG 20010904//EN"
 "http://www.w3.org/TR/2001/REC-SVG-20010904/DTD/svg10.dtd">
<svg version="1.0" xmlns="http://www.w3.org/2000/svg"
 width="300.000000pt" height="300.000000pt" viewBox="0 0 300.000000 300.000000"
 preserveAspectRatio="xMidYMid meet">
<metadata>
Created by potrace 1.11, written by Peter Selinger 2001-2013
</metadata>
<g transform="translate(0.000000,300.000000) scale(0.100000,-0.100000)"
fill="#000000" stroke="none">
<path d="M761 2245 l-743 -745 744 -745 c410 -410 749 -745 754 -745 16 0
1484 1474 1484 1490 0 8 -137 152 -304 319 -217 217 -303 309 -301 323 4 17
-5 22 -30 19 -6 0 -197 186 -425 414 -228 228 -419 415 -425 415 -5 -1 -345
-336 -754 -745z m1100 265 c186 -186 339 -341 339 -343 0 -3 -93 -5 -207 -5
l-208 0 -136 135 -136 134 -570 -570 -570 -570 -104 105 -104 104 675 675
c371 371 676 675 678 675 2 0 156 -153 343 -340z m-288 -286 c32 -30 57 -57
57 -59 0 -1 -54 -2 -120 -2 l-121 0 58 59 c31 32 60 58 64 58 3 0 31 -25 62
-56z m-308 -196 c-2 -7 -11 -60 -20 -117 -9 -58 -19 -114 -21 -125 -2 -12 -13
-73 -25 -136 -23 -129 -13 -112 -164 -262 l-99 -98 -106 105 -105 105 270 270
c148 148 271 270 272 270 1 0 1 -6 -2 -12z m784 -279 c132 -133 241 -245 241
-251 0 -11 -94 -108 -105 -108 -3 0 -3 19 1 43 14 88 29 80 -152 79 l-161 0
-178 178 -178 178 -60 -59 c-33 -32 -62 -58 -63 -56 -2 2 6 52 16 112 11 59
20 112 20 117 0 4 85 8 189 8 l188 0 242 -241z m432 142 c55 -55 99 -103 99
-106 0 -4 -46 -53 -103 -110 l-103 -104 -209 209 -210 210 214 0 214 0 98 -99z
m-862 -272 c55 -56 101 -103 101 -105 0 -1 -83 -2 -185 -2 l-185 1 3 24 c2 14
37 57 82 103 44 44 80 80 81 80 1 0 47 -46 103 -101z m1147 -14 l105 -104
-246 -247 -246 -247 -107 106 -107 107 245 245 c135 135 246 245 248 245 2 0
51 -47 108 -105z m-2008 -288 l103 -103 -98 -98 c-54 -54 -97 -103 -95 -110 2
-6 -48 40 -110 101 l-113 113 100 100 c55 55 102 100 105 100 3 0 52 -46 108
-103z m387 14 c-7 -24 -10 -36 -25 -134 l-13 -78 -49 48 -48 47 67 68 c37 37
69 68 71 68 2 0 1 -9 -3 -19z m817 -55 l58 -58 -253 -253 -253 -254 -132 132
c-73 73 -131 135 -128 137 2 3 7 21 10 40 13 78 30 173 47 265 l9 50 293 0
292 -1 57 -58z m165 55 c2 -1 -5 -10 -14 -21 -16 -18 -18 -18 -35 -3 -10 8
-15 19 -13 24 4 6 41 6 62 0z m-1062 -443 c-9 -57 -19 -110 -20 -118 -1 -8 -5
-32 -9 -52 -5 -28 -3 -38 6 -39 78 -5 151 -2 158 6 4 6 11 33 14 60 15 107 4
110 158 -41 l141 -136 286 286 c157 157 289 286 293 286 7 0 208 -199 208
-206 0 -3 -176 -181 -391 -396 l-391 -391 -394 394 -394 394 102 102 103 103
74 -74 74 -74 -18 -104z"/>
</g>
</svg>
