<?xml version="1.0" encoding="utf-8"?>
<!-- Generator: Adobe Illustrator 25.0.1, SVG Export Plug-In . SVG Version: 6.00 Build 0)  -->
<svg version="1.1" id="レイヤー_1" xmlns="http://www.w3.org/2000/svg" xmlns:xlink="http://www.w3.org/1999/xlink" x="0px"
	 y="0px" viewBox="0 0 346.4 85.2" style="enable-background:new 0 0 346.4 85.2;" xml:space="preserve">
<style type="text/css">
	.st0{fill:#FFFFFF;}
	.st1{fill:#FFFFFF;stroke:#FFFFFF;stroke-width:0.3;stroke-miterlimit:10;}
</style>
<g>
	<path class="st0" d="M128.7,25.2"/>
	
		<rect x="136.8" y="21.8" transform="matrix(0.7047 -0.7095 0.7095 0.7047 16.0066 107.6827)" class="st0" width="1.2" height="25.6"/>
	
		<rect x="119.6" y="39.2" transform="matrix(0.7047 -0.7095 0.7095 0.7047 -1.3619 100.5926)" class="st0" width="1.2" height="25.6"/>
	
		<rect x="107.3" y="34.2" transform="matrix(0.7047 -0.7095 0.7095 0.7047 10.7734 95.4788)" class="st0" width="25.6" height="1.2"/>
	
		<rect x="124.6" y="51.4" transform="matrix(0.7047 -0.7095 0.7095 0.7047 3.6834 112.8455)" class="st0" width="25.6" height="1.2"/>
	
		<rect x="112.5" y="38.8" transform="matrix(0.7047 -0.7095 0.7095 0.7047 8.1715 98.3708)" class="st0" width="19.6" height="1.2"/>
	
		<rect x="125.4" y="46.6" transform="matrix(0.7047 -0.7095 0.7095 0.7047 6.4659 109.8499)" class="st0" width="19.6" height="1.2"/>
	<rect x="116.6" y="44" transform="matrix(0.7047 -0.7095 0.7095 0.7047 4.9557 101.082)" class="st0" width="14.6" height="1.2"/>
	
		<rect x="133.8" y="37.9" transform="matrix(0.7047 -0.7095 0.7095 0.7047 7.5747 108.695)" class="st0" width="1.2" height="14.6"/>
	
		<rect x="133.5" y="31.2" transform="matrix(0.7047 -0.7095 0.7095 0.7047 12.2629 106.5291)" class="st0" width="1.2" height="14.6"/>
	
		<rect x="122.9" y="41.4" transform="matrix(0.7047 -0.7095 0.7095 0.7047 1.922 101.9626)" class="st0" width="1.2" height="14.6"/>
	<g>
		<path class="st1" d="M160.8,36.6c0-0.7-0.2-1.2-1-1.2l-1.5,0l0-0.8l13.9,0l1.7,4.5l-0.7,0c-1.2-2.3-2.3-3.6-4.7-3.6l-5.5,0
			c-0.8,0-1.2,0.5-1.2,1.2l0,6.1l4.3,0c2,0,2.3-0.7,2.3-2.8l0.7,0l0,6.5l-0.7,0c0-2.5-0.3-2.8-2.3-2.8l-4.3,0l0,6.6
			c0,0.8,0.7,1,1.2,1l1.5,0l0,0.7l-6.5,0l0-0.7l1.7,0c0.5,0,1-0.3,1-1L160.8,36.6z"/>
		<path class="st1" d="M183.7,51.1c-1.2,0.8-2.3,1.2-3.8,1.2c-1.2,0-3-0.5-3-2.8c0-1,0.3-1.7,1.3-2.3c1.2-0.8,3.1-1.5,6.3-1.8l0-1.5
			c0-1.7-1.5-2.7-3-2.6c-1.8,0-2.7,1.2-2.6,1.7l0,0.3c0,0.3,0.2,1-0.7,1c-0.7,0-0.8-0.5-0.8-0.7c0-1.5,1.6-2.8,4.1-2.8
			c2.7,0,4.3,1.6,4.3,3.3l0,5.5c0,0.8,0,2.3,0.5,2.3c0.2,0,0.5-0.5,0.8-1.3l0.7,0.3c-0.5,1.5-1.2,1.7-1.8,1.7c-1.3,0-1.3-1.2-1.5-2
			L183.7,51.1z M184.5,46.1c-2.5,0.3-4.1,1-5.3,1.7c-0.7,0.5-1.2,1-1.2,1.8c0,1.3,1.2,2.2,2.3,2.1c1.5,0,3.8-1,4.1-2.8L184.5,46.1z"
			/>
		<path class="st1" d="M192,42.9c0-0.7-0.7-0.7-1.8-0.7l0-0.7c0.8,0,2-0.3,3.2-0.8l0,1.8c0.8-1,1.5-1.8,3.1-1.8c1,0,1.8,0.3,2.5,1
			c0.2,0.2,0.3,0.5,0.5,1c0.5-0.8,1.7-2,3.5-2c1.7,0,3,1.2,3,3.3l0,6.3c0,0.5,0.3,0.8,1,0.8l0.8,0l0,0.5l-4.8,0l0-0.7l0.8,0
			c0.5,0,0.8-0.3,0.8-0.8l0-6.3c0-1.7-0.8-2.5-2-2.5c-1,0-2.7,0.8-3,2.3l0,6.6c0,0.7,0.3,0.8,1,0.8l0.8,0l0,0.5l-4.8,0l0-0.7l1,0
			c0.3,0,0.8-0.3,0.8-0.8l0-6.1c0-1.3-0.5-2.7-2.2-2.6c-1,0-2.5,0.7-2.8,2.5l0,6.5c0,0.5,0.3,0.8,0.8,0.8l1,0l0,0.5l-4.8,0l0-0.7
			l0.7,0c0.5,0,1.2-0.2,1.2-0.8l0-7.3C192.3,42.9,192,42.9,192,42.9z"/>
		<path class="st1" d="M211.9,45.8l0,0.5c0,2.7,1.8,5.1,4.3,5.1c1.8,0,3-1.2,4.1-2.7l0.7,0.5c-2,2.3-3,3-5,3c-3.8,0-5.5-3.1-5.5-5.8
			c0-3.7,2.5-6.1,5.1-6.2s5,2.1,5,5.5C220.7,45.8,211.9,45.8,211.9,45.8z M219.4,45c-0.2-1.3-0.5-2.5-1.2-3.1c-0.7-0.7-1.5-1-2.5-1
			c-1.8,0-3.5,1.7-3.8,4.2L219.4,45z"/>
	</g>
</g>
</svg>
