<svg xmlns="http://www.w3.org/2000/svg" viewBox="0 0 540.75 510.75"><defs><style>.cls-2{fill:none;stroke:#fff;stroke-miterlimit:10;stroke-width:.75px}</style></defs><g id="レイヤー_2" data-name="レイヤー 2"><g id="レイヤー_1-2" data-name="レイヤー 1"><path d="M189.79 151v1.22c0 .22 0 .25-.25.27s-.59 0-.85 0-.25-.05-.25-.23c.05-1.14.07-2.32.07-3.85v-6.43c0-.16.05-.2.19-.2h10.08c.18 0 .22.05.22.25v6.47c0 1.38.06 2.62.09 3.54 0 .2-.05.25-.23.25h-.94c-.16 0-.18-.05-.18-.23V151zm7.85-8h-7.87v6.88h7.87zm11.53 4.46a14.85 14.85 0 00-2.43.18c-.16 0-.25-.07-.3-.25a10 10 0 01-.18-1.37 31.73 31.73 0 004 .16h5.52c1.25 0 2.58 0 4-.05.21 0 .27 0 .27.21v.94c0 .29-.06.24-.27.22h-3.89zm24.42-5.8c.61 0 .81 0 1-.14a.31.31 0 01.36 0 4.65 4.65 0 01.73.74c.11.15.08.27-.09.42a2.37 2.37 0 00-.52.66 32.26 32.26 0 01-2.66 3.87 36.49 36.49 0 015.16 4.52c.17.15.17.2 0 .38a8 8 0 01-.65.65c-.12.11-.19.11-.32 0a32.81 32.81 0 00-5-4.57 27.36 27.36 0 01-6.43 5c-.19.11-.3.13-.45 0a3.14 3.14 0 00-.93-.65 23.38 23.38 0 006.62-4.88 22.56 22.56 0 003.42-4.83h-5.42c-1 0-1.78.06-2.59.11-.16 0-.18-.05-.22-.2a7.46 7.46 0 01-.1-1.15c.88.07 1.67.07 2.79.07zm2.21-2.17a.13.13 0 01.2 0 8.83 8.83 0 012 2.17.14.14 0 010 .2l-.52.43a.15.15 0 01-.24 0 7.82 7.82 0 00-2.08-2.31zm1.52-1.19c.07-.06.12-.08.19 0a10.51 10.51 0 012.06 2.1c.05.1 0 .15-.06.22l-.51.38c-.08.08-.15.08-.22 0a8.5 8.5 0 00-2.07-2.25zm10.15 4.5a10.67 10.67 0 00-.21-2.7 8 8 0 011.49.25c.25.09.27.29.16.5a5.38 5.38 0 00-.21 1.93v1.93l5.26-1.25c.82-.18 1-.27 1.2-.45a.39.39 0 01.47 0 3.4 3.4 0 01.83.66.32.32 0 01-.06.52 1.5 1.5 0 00-.44.56 14.88 14.88 0 01-2.94 4c-.18.16-.31.2-.5.07a3.66 3.66 0 00-.94-.36 12.47 12.47 0 003.28-4.1l-6.16 1.53v4.36c0 1.29.56 1.65 2.74 1.65a22.65 22.65 0 004.06-.34c.22 0 .24 0 .27.23a6 6 0 01.09.82c0 .16-.07.21-.27.23a32.34 32.34 0 01-4.08.22c-3.15 0-4-.74-4-2.74v-4.14l-1.53.38a20.68 20.68 0 00-2.71.81c-.24.09-.31 0-.4-.13a11.8 11.8 0 01-.47-1.19 24.12 24.12 0 003.35-.63l1.76-.41zm7.8-3.06a.13.13 0 01.2 0 8.49 8.49 0 012 2.18.12.12 0 010 .19l-.52.44a.15.15 0 01-.24 0 7.69 7.69 0 00-2.09-2.3zm1.51-1.19c.08-.05.13-.07.2 0a10.25 10.25 0 012 2.11c.06.09 0 .14 0 .21l-.49.44c-.07.07-.14.07-.21 0a8.67 8.67 0 00-2.07-2.25zm10.48 6.73c-1 0-1.8 0-2.53.09-.17 0-.24-.05-.27-.23a7.68 7.68 0 01-.13-1.14c.92.09 1.85.13 3 .13h6.44a2 2 0 00.89-.13c.21-.1.3-.12.48 0a3.45 3.45 0 01.67.65c.18.23.16.34 0 .49a1.3 1.3 0 00-.41.61 15.73 15.73 0 01-7.6 8.12c-.22.11-.34.11-.49 0a3.13 3.13 0 00-1-.55 14.85 14.85 0 007.83-8zm1.46-3.74c-1 0-1.76 0-2.55.07-.17 0-.2-.05-.22-.25a8.89 8.89 0 01-.09-1.08 26.9 26.9 0 002.93.12h2.79c1.14 0 1.93 0 2.8-.09.16 0 .19.06.19.22a5.47 5.47 0 010 .81c0 .2 0 .25-.23.23h-2.68zm16.44 9.67c-1.26 0-2.38 0-3.35.09-.2 0-.25-.06-.29-.25s-.07-.73-.09-1.21c1.21.09 2.36.11 3.73.11H291c1.49 0 2.91 0 4.06-.08.22 0 .27.06.27.24a6.17 6.17 0 010 .86c0 .22-.05.27-.27.27h-4zm1.54-7.53c-1 0-1.9 0-2.79.07-.18 0-.23-.05-.25-.27s-.07-.77-.07-1.17c1.12.09 2.07.11 3.1.11h2.89c1.23 0 2.27 0 3.26-.07.15 0 .2.05.2.21a7.06 7.06 0 010 .92c0 .2-.05.24-.21.24h-3.21zm24.53 7.83h2.28c.22 0 .27 0 .29.24v.65c0 .23-.05.23-.25.23h-8.72a22.65 22.65 0 00-2.3.09c-.2 0-.24-.06-.25-.28a4.42 4.42 0 01-.08-.93c1 .07 1.75.07 2.58.07h4.3l.69-5h-3c-.68 0-1.51 0-2.1.06-.18 0-.25 0-.27-.22a8.63 8.63 0 01-.09-1c1 .09 1.76.11 2.52.11h2.63a1.21 1.21 0 00.72-.15.31.31 0 01.37 0 3.4 3.4 0 01.67.65c.13.18.11.31 0 .43s-.22.29-.26.69l-.65 4.37zm17.84-9.18a3.75 3.75 0 001.64-.16.33.33 0 01.41.05 2.91 2.91 0 01.76.72.32.32 0 01-.06.47 1.59 1.59 0 00-.26.63 18.26 18.26 0 01-2.16 5.35 14.22 14.22 0 01-4.78 4.59c-.18.13-.27.07-.39 0a4 4 0 00-1.07-.52 12.85 12.85 0 005.06-4.57 16 16 0 002.09-5.39h-8.86v1.75c0 .81 0 1.44.06 2.16 0 .22 0 .27-.22.27a7.22 7.22 0 01-.93 0c-.17 0-.2 0-.2-.23v-4.95c0-.14 0-.21.21-.19.76.05 1.55.07 2.45.07H325v-.9a9.68 9.68 0 00-.16-2.15 8.28 8.28 0 011.45.19c.26 0 .29.25.18.45a3 3 0 00-.19 1.42v1zm15.33-1.93c.16.11.17.31 0 .54a3.53 3.53 0 00-.65 1.32c-.88 2.63-2.11 5.9-3.37 8.75 2.43-.2 5.29-.45 7.67-.81a19.33 19.33 0 00-2.18-3.15c.29-.17.58-.36.85-.51s.25 0 .36.09a26.32 26.32 0 013.49 5.57.24.24 0 01-.09.36c-.27.16-.54.3-.79.43s-.23 0-.32-.16c-.24-.51-.49-1.05-.76-1.53-2.83.43-5.67.74-8.86 1.08a5.33 5.33 0 00-1.83.34c-.26.16-.47.18-.58-.07a12 12 0 01-.43-1.5 12.66 12.66 0 002.12 0c1.3-3.07 2.61-6.6 3.22-8.58a10.23 10.23 0 00.56-2.78 6.48 6.48 0 011.59.61zm-9.49 218.46l2.56-2.59c.43-.43.68-.58 1.06-.58a1.58 1.58 0 011.1.49 68.25 68.25 0 008.26 5.9.23.23 0 01.11.34 5.56 5.56 0 01-.56.91c-.09.12-.18.16-.32.05-2.87-2-5.62-4-8.16-6.12a.62.62 0 00-.36-.2.44.44 0 00-.34.16c-.81.81-1.8 1.86-3 3.17a6.91 6.91 0 00-.77 1 .24.24 0 01-.41.07 8.4 8.4 0 01-1.05-.95 12.92 12.92 0 001.88-1.65zm8.25-4.63a.14.14 0 01.21 0 9.06 9.06 0 012 2.18.14.14 0 010 .2l-.52.43a.15.15 0 01-.24 0 7.78 7.78 0 00-2.08-2.3zm1.53-1.19c.07-.05.12-.07.19 0a10.25 10.25 0 012.06 2.1c.05.09 0 .15-.06.22l-.48.43c-.08.07-.15.07-.22 0a8.53 8.53 0 00-2.07-2.26zm13.5 1.75c.2.07.22.23.13.45a4.25 4.25 0 00-.18 1.41 11.5 11.5 0 01-1.12 4.93 9.33 9.33 0 01-2.57 3.2c-.2.18-.36.2-.5.08a2.44 2.44 0 00-1-.45 8.62 8.62 0 002.9-3.35 10.62 10.62 0 001-4.67 7.12 7.12 0 00-.16-1.87 6.35 6.35 0 011.5.27zm3.75 8.17a22.24 22.24 0 003.06-1.9 16.62 16.62 0 003.19-3 2.87 2.87 0 00.3 1.13c.08.17.09.27-.1.47a24.62 24.62 0 01-2.85 2.52 33.36 33.36 0 01-3.11 2 2.41 2.41 0 00-.6.4.34.34 0 01-.48 0 3.37 3.37 0 01-.71-.7.51.51 0 010-.45 9.7 9.7 0 00.07-1.78v-5.12a15.84 15.84 0 00-.18-3.15 13.32 13.32 0 011.49.24c.27.09.22.27.11.52a8.57 8.57 0 00-.16 2.38zm17.22-6.96c.06-.66.11-1.2.13-1.92a8.4 8.4 0 00-.09-1.95 6.73 6.73 0 011.44.27c.25.09.31.27.14.56a3.94 3.94 0 00-.23 1.19c0 .63-.09 1.15-.16 1.85h5.33c.23 0 .27 0 .27.22 0 .39 0 1-.06 1.65a32.09 32.09 0 01-.66 5.69c-.36 1.35-.78 1.87-1.66 2.16a6.42 6.42 0 01-1.87.22.27.27 0 01-.29-.22 2 2 0 00-.63-1 6.24 6.24 0 002.31-.18c.52-.18.64-.36.93-1.47a28.68 28.68 0 00.61-5.91h-4.43a13.28 13.28 0 01-1.62 5.06 11.3 11.3 0 01-3.81 3.71c-.16.11-.31.13-.44 0a2.33 2.33 0 00-1-.59 10.22 10.22 0 004.14-3.62 11.89 11.89 0 001.48-4.52h-2.11c-.81 0-1.6 0-2.48.09-.16 0-.18 0-.22-.24s-.09-.71-.11-1.08c1 .08 1.84.09 2.8.09zm6-3.33a.15.15 0 01.2 0 9.06 9.06 0 012 2.18.14.14 0 010 .2l-.52.43a.15.15 0 01-.24 0 7.69 7.69 0 00-2.08-2.31zm1.52-1.18c.07-.06.12-.08.19 0a10.79 10.79 0 012.06 2.1c0 .09 0 .15-.06.22l-.48.43c-.08.07-.15.07-.22 0a8.5 8.5 0 00-2.07-2.25zm13.63 6.88h3.76c1.28 0 2.61 0 3.71-.07.16 0 .2.06.2.22a5.75 5.75 0 010 .83c0 .19-.06.21-.25.21-1.17 0-2.45-.05-3.66-.05h-3.76v3.31c0 .68.25 1 .61 1.12a4.8 4.8 0 001.91.25c1.08 0 2.28-.13 3.33-.22.14 0 .16 0 .18.18s0 .53 0 .83-.05.24-.23.25c-1 .09-2.18.15-3.46.15a6.5 6.5 0 01-2.48-.36 1.84 1.84 0 01-1.15-2v-3.54h-1.44c-1.37 0-2.54 0-3.6.09-.22 0-.26-.06-.29-.27s-.07-.7-.09-1c1.24.07 2.52.09 4 .09h1.43v-3.53c-1.46 0-2.4 0-3.33.07-.2 0-.26-.05-.27-.25s-.06-.72-.06-1c1.08.07 2.27.11 3.57.11h3.4c1.24 0 2.27 0 3.33-.06.2 0 .23.06.23.24v.72c0 .22-.05.25-.27.25h-5.36zm15.39-1.22c.14-.07.21 0 .32.09a10.26 10.26 0 011.48 2.52c.07.18.07.22-.09.32a3.61 3.61 0 01-.69.33c-.16.07-.23 0-.28-.15a11.61 11.61 0 00-1.55-2.68c.32-.18.59-.32.81-.43zm9.61 0a.25.25 0 010 .43 2.52 2.52 0 00-.52.86 21.62 21.62 0 01-2.65 4.65 14.58 14.58 0 01-3.64 3.42.29.29 0 01-.39 0 2.23 2.23 0 00-.94-.45 15.1 15.1 0 004-3.59 17.25 17.25 0 002.44-4.42 6 6 0 00.31-1.48 4.8 4.8 0 011.39.6zm-6.08-.85c.12-.05.21 0 .3.11a10.63 10.63 0 011.35 2.5c.06.15 0 .22-.12.29a7.05 7.05 0 01-.72.34c-.13.06-.18 0-.26-.16a10.33 10.33 0 00-1.38-2.66c.38-.18.6-.31.83-.4zm17.04.87a25.31 25.31 0 015.87 2.5c.14.07.18.16.13.29a5.54 5.54 0 01-.44.88c-.1.14-.18.18-.34.07a19.88 19.88 0 00-5.24-2.41v4.18c0 1.1 0 2.5.06 3.67 0 .18 0 .23-.24.23a7.06 7.06 0 01-.92 0c-.2 0-.25-.05-.25-.25.05-1.15.07-2.55.07-3.65v-8a14.91 14.91 0 00-.2-2.88 7.81 7.81 0 011.5.24c.29.07.21.27.13.54a7.31 7.31 0 00-.13 2zM79.3 355.22c-1.06 0-2 0-3 .11-.22 0-.29-.05-.33-.29s-.07-.81-.09-1.11c1.12.1 2.13.14 3.46.14h6.37a1.58 1.58 0 00.9-.16.44.44 0 01.47 0 4.11 4.11 0 01.81.73.38.38 0 01-.05.56 1.8 1.8 0 00-.4.62 19.09 19.09 0 01-3.53 5.9 19.43 19.43 0 01-5.34 4.34.46.46 0 01-.62 0 3.06 3.06 0 00-.93-.61 17.26 17.26 0 005.79-4.45 17 17 0 003.39-5.76zm18.55 2.61c-1 0-1.8 0-2.54.09-.16 0-.23-.05-.27-.23a9.3 9.3 0 01-.13-1.14 27.33 27.33 0 003 .13h6.45a1.85 1.85 0 00.88-.13c.22-.1.31-.12.49 0a3.7 3.7 0 01.66.65c.18.24.17.34 0 .49a1.38 1.38 0 00-.42.61 15.64 15.64 0 01-7.59 8.12c-.22.11-.35.11-.49 0a3.18 3.18 0 00-1-.55 14.79 14.79 0 007.83-8zm1.46-3.74c-1 0-1.77 0-2.56.07-.16 0-.2-.05-.21-.25a8.82 8.82 0 01-.1-1.08 24.77 24.77 0 002.94.12h2.79c1.14 0 1.93 0 2.79-.09.16 0 .2.06.2.22a5.47 5.47 0 010 .81c0 .2 0 .25-.23.23h-2.69zm14.5-.22a.22.22 0 01.33 0 16.09 16.09 0 013.24 2.39c.13.13.14.2.05.34a6.41 6.41 0 01-.61.78c-.11.12-.16.14-.29 0a18.32 18.32 0 00-3.42-2.67zm1.63 9.55a31.2 31.2 0 005.2-3.35 28.22 28.22 0 004.86-4.85 5 5 0 00.31 1.19.5.5 0 01-.13.63 34 34 0 01-4.37 4.14 37.22 37.22 0 01-5.41 3.51 6.52 6.52 0 00-1 .71.29.29 0 01-.48 0 6.78 6.78 0 01-.89-1.23 9.69 9.69 0 001.91-.75zm21.82-9.42a6.24 6.24 0 00-.65-1.93 6.92 6.92 0 011.51 0c.26 0 .33.16.29.32a3.69 3.69 0 00.07 1.48l.29 1.53 2.09-.38c.9-.16 1.91-.34 2.77-.56.13 0 .17 0 .2.13a7 7 0 01.2.84c0 .13 0 .18-.18.2l-2.74.47-2.1.38.61 2.93 3-.54c1-.18 1.86-.36 2.6-.56.16 0 .2 0 .23.13s.13.52.18.79 0 .25-.18.27c-.72.11-1.65.27-2.63.45l-3 .54.52 2.47c.22 1 .47 2.05.69 2.9 0 .16 0 .23-.15.29a4.59 4.59 0 01-.86.19c-.18 0-.25 0-.27-.18-.14-.79-.36-1.87-.58-2.89l-.54-2.54-2.93.5c-1.06.18-1.87.38-2.67.58-.18.05-.27 0-.32-.17s-.23-.72-.32-1.06c1-.09 1.92-.23 3.06-.43l3-.5-.63-3-2.11.34c-1 .16-1.87.34-2.52.52-.16 0-.22 0-.27-.14s-.25-.8-.32-1.08c.93-.06 1.81-.18 2.93-.36l2.05-.35zm15.19-.13a.22.22 0 01.33 0 16.37 16.37 0 013.24 2.39c.13.13.14.2 0 .34a7.57 7.57 0 01-.61.78c-.11.12-.16.14-.29 0a18.32 18.32 0 00-3.42-2.67c.3-.3.55-.62.75-.84zm1.62 9.55a30.88 30.88 0 005.21-3.35 28.22 28.22 0 004.86-4.85 5.54 5.54 0 00.3 1.19c.11.24.09.38-.12.63a33.43 33.43 0 01-4.38 4.14 36.56 36.56 0 01-5.4 3.51 6.52 6.52 0 00-1 .71.3.3 0 01-.49 0 7.31 7.31 0 01-.88-1.23 9.37 9.37 0 001.9-.75zm20.93-8.07a10.58 10.58 0 00-.22-2.7 7.9 7.9 0 011.49.25c.26.09.28.29.17.5a5.06 5.06 0 00-.22 1.93v1.93l5.26-1.25c.83-.17 1-.26 1.2-.45a.39.39 0 01.47 0 3.4 3.4 0 01.83.66.33.33 0 01-.05.53 1.41 1.41 0 00-.45.55 14.88 14.88 0 01-2.94 4c-.18.16-.3.2-.5.07a3.66 3.66 0 00-.94-.36 12.22 12.22 0 003.28-4.1l-6.16 1.53v4.36c0 1.29.56 1.65 2.74 1.65a22.86 22.86 0 004.07-.34c.21 0 .23 0 .27.24a7.72 7.72 0 01.09.81c0 .16-.08.21-.27.23a30.81 30.81 0 01-4.09.22c-3.15 0-4-.74-4-2.74v-4.17l-1.53.38a20.43 20.43 0 00-2.72.81c-.24.09-.31.05-.4-.13a10.93 10.93 0 01-.47-1.19 22.72 22.72 0 003.35-.63l1.77-.41zm16.25-1.48a.21.21 0 01.32 0 16.09 16.09 0 013.24 2.39c.13.13.15.2.06.34a7.59 7.59 0 01-.62.78c-.1.12-.16.14-.28 0a18.65 18.65 0 00-3.42-2.67c.23-.3.5-.62.7-.84zm1.62 9.55a30.79 30.79 0 005.2-3.35 28.22 28.22 0 004.86-4.85 5 5 0 00.31 1.19c.11.24.09.38-.13.63a33.33 33.33 0 01-4.37 4.14 36.56 36.56 0 01-5.4 3.51 6 6 0 00-1 .71.3.3 0 01-.49 0 6.78 6.78 0 01-.88-1.23 9.85 9.85 0 001.9-.75zm25.38-9.42a2 2 0 001-.14.31.31 0 01.36.05 4.65 4.65 0 01.73.74c.11.14.08.27-.09.41a2.43 2.43 0 00-.52.67 33.08 33.08 0 01-2.66 3.87 36.49 36.49 0 015.16 4.52c.17.15.17.2 0 .38a8 8 0 01-.65.65c-.12.11-.19.11-.32 0a32.3 32.3 0 00-5-4.57 27.36 27.36 0 01-6.43 5c-.2.11-.3.13-.45 0a3.14 3.14 0 00-.93-.65 23.38 23.38 0 006.62-4.88 22.56 22.56 0 003.42-4.83h-5.42c-1 0-1.78.06-2.59.11-.16 0-.18-.05-.22-.2a7.46 7.46 0 01-.1-1.15c.88.07 1.67.07 2.79.07z" fill="#fff"/><circle class="cls-2" cx="270.38" cy="150.38" r="150"/><circle class="cls-2" cx="390.38" cy="360.38" r="150"/><circle class="cls-2" cx="150.38" cy="360.38" r="150"/></g></g></svg>