<svg xmlns="http://www.w3.org/2000/svg" viewBox="0 0 208.51 21.16"><g data-name="レイヤー 2"><path d="M9.78 14.94a2 2 0 01-1.74 1 1.84 1.84 0 01-1.84-1.78C5 15.4 4.18 16 2.88 16A2.61 2.61 0 010 13.34C0 12 .78 11 3.5 10c.78-.24 1.74-.52 2.66-.72v-.6c0-2.2-.66-2.74-2.18-2.74a4.14 4.14 0 00-1.4.22l-.44 1.48c-.16.58-.46.88-1 .88a.8.8 0 01-.88-.76c.42-1.64 2-2.62 4.1-2.62s3.3 1 3.3 3.6v4.74c0 1.16.32 1.52.86 1.52a1.17 1.17 0 00.9-.48zM6.16 10a21.4 21.4 0 00-2.24.72c-1.94.74-2.3 1.58-2.3 2.38a1.63 1.63 0 001.84 1.7c.84 0 1.42-.36 2.7-1.38zm10.58-2c.72-1.76 2-2.84 3.26-2.84a1.73 1.73 0 011.52.72c0 .86-.34 1.36-1.12 1.36a1.94 1.94 0 01-1.28-.58l-.28-.24a5.48 5.48 0 00-2.08 2.92v5.48l1.84.26v.64h-5.1v-.64l1.64-.24c0-1.12.06-2.66.06-3.68V10c0-1.28 0-2.1-.08-3l-1.78-.14v-.64l2.88-1.06.28.2zm7.95 2.6c0-3.64 2.44-5.46 4.92-5.46s4.9 1.82 4.9 5.46-2.44 5.4-4.9 5.4-4.92-1.78-4.92-5.4zm8.14 0c0-3-1.22-4.66-3.22-4.66s-3.22 1.68-3.22 4.66 1.2 4.58 3.22 4.58 3.22-1.58 3.22-4.58zm23.34 4.46v.64H51.3v-.64l1.7-.24V9.14c0-2.08-.66-2.7-1.92-2.7A4.48 4.48 0 0047.94 8 8.67 8.67 0 0148 9.06v5.74l1.58.26v.64h-4.82v-.64l1.7-.24V9.14c0-2-.62-2.74-1.86-2.74A4.63 4.63 0 0041.48 8v6.84l1.58.26v.64h-4.84v-.64l1.68-.24c0-1.12.06-2.66.06-3.68V10c0-1.28 0-2.12-.08-3l-1.78-.14v-.64L41 5.16l.28.2.16 1.84a5.53 5.53 0 013.86-2.06 2.37 2.37 0 012.54 2.1 5.17 5.17 0 014-2.1c1.72 0 2.74 1.06 2.74 3.76v5.9zm13.67-.12a2 2 0 01-1.74 1 1.84 1.84 0 01-1.84-1.78C65 15.4 64.24 16 62.94 16a2.61 2.61 0 01-2.88-2.64c0-1.34.78-2.32 3.5-3.3.78-.24 1.74-.52 2.66-.72v-.66c0-2.2-.66-2.74-2.18-2.74a4.14 4.14 0 00-1.4.22l-.44 1.48c-.16.58-.46.88-1 .88a.8.8 0 01-.88-.76c.42-1.64 2-2.62 4.1-2.62s3.3 1 3.3 3.6v4.74c0 1.16.32 1.52.86 1.52a1.17 1.17 0 00.9-.48zm-3.62-5a21.4 21.4 0 00-2.24.72c-1.94.74-2.3 1.58-2.3 2.38a1.63 1.63 0 001.84 1.74c.84 0 1.42-.36 2.7-1.38zm32.24 5.12v.64H93.6v-.64l1.7-.24V9.14c0-2.08-.66-2.7-1.92-2.7A4.48 4.48 0 0090.24 8a8.67 8.67 0 01.06 1.06v5.74l1.58.26v.64h-4.82v-.64l1.7-.24V9.14c0-2-.62-2.74-1.86-2.74A4.63 4.63 0 0083.78 8v6.84l1.58.26v.64h-4.85v-.64l1.69-.24V10c0-1.28 0-2.12-.08-3l-1.72-.14v-.64l2.88-1.06.28.2.16 1.84a5.53 5.53 0 013.86-2.06 2.37 2.37 0 012.54 2.1 5.17 5.17 0 014-2.1c1.72 0 2.74 1.06 2.74 3.76v5.9zm8.83 0v.64h-4.88v-.64l1.72-.26V7l-1.84-.12V6.2l3.14-1 .3.2-.06 2.84v6.6zm-3.68-13.84a1.27 1.27 0 012.54 0 1.27 1.27 0 01-2.54 0zm12.22 8.66c2.12.78 2.92 1.74 2.92 3.08 0 1.58-1.38 3-4.1 3a7.07 7.07 0 01-3.2-.78l-.08-2.34h1l.44 1.94a4.5 4.5 0 001.88.38c1.78 0 2.62-.74 2.62-1.82s-.62-1.48-2.08-2l-1-.38c-1.6-.58-2.64-1.42-2.64-2.9s1.3-2.92 3.66-2.92a5.58 5.58 0 013 .86l-.08 2.16h-.88l-.36-1.78a3.4 3.4 0 00-1.68-.44c-1.46 0-2.2.68-2.2 1.66s.56 1.44 2 2zm13.1 5.12a3.07 3.07 0 01-2.4 1c-1.52 0-2.36-.82-2.36-2.52V6.34h-2V5.6l2-.24.48-3h1.1l-.12 3h3v.92h-3v7c0 1.18.48 1.68 1.3 1.68a2.51 2.51 0 001.52-.58zm28.56.06v.64h-4.86v-.64l1.7-.24V9.14c0-2.08-.66-2.7-1.92-2.7A4.48 4.48 0 00149.27 8a8.67 8.67 0 01.06 1.06v5.74l1.58.26v.64h-4.86v-.64l1.7-.24V9.14c0-2-.62-2.74-1.86-2.74a4.63 4.63 0 00-3.08 1.6v6.84l1.58.26v.64h-4.88v-.64l1.68-.24c0-1.12.06-2.66.06-3.68V10c0-1.28 0-2.12-.08-3l-1.78-.14v-.64l2.88-1.06.28.2.16 1.84a5.53 5.53 0 013.86-2.06 2.37 2.37 0 012.54 2.1 5.17 5.17 0 014-2.1c1.72 0 2.74 1.06 2.74 3.76v5.9zm14.18 0v.64l-2.84.18-.16-2a5.08 5.08 0 01-3.9 2.1c-1.8 0-2.86-1-2.84-4l.07-5.52-1.66-.28v-.64l3-.26.2.22-.1 3v3.4c0 2.08.64 2.8 1.94 2.8a4.54 4.54 0 003.26-1.6V6.46L167 6.18v-.64l3-.26.22.22-.08 3v6.28zm6.33-9.9l.28.2-.06 2.84v5.14c0 3.84-.16 5.38-1.22 6.58a3.24 3.24 0 01-2.62 1.24c-1.24 0-1.76-.56-1.82-1a1.12 1.12 0 011.16-.78 2.37 2.37 0 011.48.56l.5.34a1.57 1.57 0 00.52-.68c.44-.9.54-2.76.54-6V10c0-1.28 0-2.12-.06-3.06l-1.78-.12V6.2zm.74-3.94a1.27 1.27 0 01-2.54 0 1.27 1.27 0 012.54 0zM194 15.06v.64l-2.84.18-.16-2a5.08 5.08 0 01-3.9 2.1c-1.8 0-2.86-1-2.84-4l.06-5.56-1.66-.28v-.6l3-.26.2.22-.1 3v3.4c0 2.08.64 2.8 1.94 2.8a4.54 4.54 0 003.3-1.6V6.46l-1.64-.28v-.64l3-.26.22.22-.08 3v6.28zm14.51 0v.64l-2.84.18-.16-2a5.08 5.08 0 01-3.9 2.1c-1.8 0-2.86-1-2.84-4l.06-5.56-1.66-.28v-.6l3-.26.2.22-.1 3v3.4c0 2.08.64 2.8 1.94 2.8a4.54 4.54 0 003.26-1.6V6.46l-1.64-.28v-.64l3-.26.22.22-.08 3v6.28z" fill="#fff" data-name="レイヤー 1"/></g></svg>