<?xml version="1.0" encoding="utf-8"?>
<!-- Generator: Adobe Illustrator 25.0.1, SVG Export Plug-In . SVG Version: 6.00 Build 0)  -->
<svg version="1.1" id="レイヤー_1" xmlns="http://www.w3.org/2000/svg" xmlns:xlink="http://www.w3.org/1999/xlink" x="0px"
	 y="0px" viewBox="0 0 242.8 50" style="enable-background:new 0 0 242.8 50;" xml:space="preserve">
<style type="text/css">
	.st0{fill:#FFFFFF;}
</style>
<rect x="146.4" y="-2.7" transform="matrix(-0.7071 -0.7071 0.7071 -0.7071 232.4909 146.2547)" class="st0" width="0.3" height="55.4"/>
<g>
	<path class="st0" d="M13,14.3c0.2,0.1,0.2,0.3,0.2,0.5c0,0.2-0.2,0.3-0.5,0.2c-1.3-0.4-4-0.4-8.3,0.2c-0.9,0.2-1.4,0.3-1.6,0.4
		c-0.2,0.2-0.3,0.2-0.5,0.2c-0.1,0-0.3-0.1-0.5-0.4c-0.7-0.7-1-1.2-0.9-1.6c0-0.3,0.1-0.3,0.3-0.1c0.3,0.5,0.7,0.8,1.4,0.8
		c1.1,0,1.9,0,2.3-0.1c1.6-0.2,3.6-0.3,6-0.5c0.3-1.8,0.6-3.7,0.8-5.7C8.5,8.4,6.2,8.6,4.9,8.7c-0.6,0-1,0.1-1.4,0.2
		C3.2,9.1,3.1,9.2,3,9.2c-0.2,0-0.4-0.1-0.6-0.3C1.6,8.3,1.3,7.7,1.3,7.3c0-0.3,0.1-0.3,0.3-0.1c0.5,0.5,0.9,0.7,1.2,0.7
		c0.7,0,1.4,0,2.3-0.1c1.5-0.1,3.6-0.2,6.4-0.3C11.6,7.4,11.8,7.2,12,7c0.5,0.3,0.9,0.5,1.3,0.8c0.2,0.1,0.2,0.2,0.2,0.4
		c0,0.1-0.1,0.2-0.4,0.2c-0.3,0.1-0.4,0.2-0.5,0.3c-0.3,1.7-0.6,3.3-0.9,4.9C12.3,13.8,12.7,14,13,14.3z"/>
	<path class="st0" d="M21.7,16.1c0.6,0,2.2-0.9,4.9-2.6c2.7-1.7,5.3-3.9,8-6.4C35,7,35.1,7.1,34.9,7.4c-3.5,3.9-7.6,7.1-12.3,9.8
		c-0.1,0.2-0.1,0.4-0.2,0.5c-0.1,0.1-0.2,0.2-0.3,0.2c-0.2,0-0.6-0.3-1.2-0.8c-0.7-0.7-1-1.3-0.9-2c0-0.3,0.1-0.3,0.3-0.2
		C20.7,15.7,21.1,16.1,21.7,16.1z M23.1,9.1c-0.3,0-0.5-0.3-0.7-1c-0.1-0.4-0.4-0.9-1-1.5c-0.3-0.3-0.7-0.7-1.3-1.1
		c-0.3-0.2-0.2-0.3,0.2-0.2c1.3,0.4,2.2,0.9,2.8,1.5c0.5,0.6,0.8,1.1,0.8,1.5C23.9,8.8,23.6,9.1,23.1,9.1z"/>
	<path class="st0" d="M42.8,9.4c-1.7,0.3-2.7,0.5-3,0.7c-0.1,0.2-0.2,0.2-0.4,0.2c-0.2,0-0.4-0.1-0.7-0.4c-0.6-0.5-0.9-1-1-1.6
		C37.8,8,38,8,38.1,8.2C38.3,8.7,38.7,9,39.5,9c1.2,0,2.3-0.1,3.3-0.2c0-0.7,0-1.4,0-2.2c0-0.7-0.1-1.2-0.3-1.4
		C42.3,5.1,42,5,41.7,5c-0.2-0.1-0.1-0.2,0.1-0.3c0.6-0.2,1.3,0,2,0.4c0.3,0.2,0.5,0.3,0.5,0.5c0,0.2-0.1,0.3-0.3,0.3
		c-0.2,0.1-0.2,0.3-0.2,0.7c0,0.8,0,1.5,0,2.2c1.6-0.1,3-0.2,4.2-0.3c0-0.8,0-1.5,0-2.3c0-1.1-0.1-1.7-0.2-2
		c-0.1-0.3-0.4-0.5-0.9-0.6c-0.3-0.2-0.3-0.3,0.1-0.4c0.7,0,1.3,0.2,2,0.5c0.3,0.2,0.5,0.3,0.5,0.5c0,0.2-0.1,0.3-0.2,0.3
		c-0.2,0.2-0.2,0.6-0.2,1.4c0,0.9,0,1.7,0,2.5c1.4-0.1,2.3-0.1,2.6-0.1c0.4,0,0.7-0.1,0.9-0.4c0.3,0.1,0.6,0.2,1,0.4
		c0.6,0.3,0.8,0.6,0.8,0.9c0,0.3-0.5,0.3-1.4,0c-0.7-0.2-2-0.2-3.9-0.2c0.1,4.6-1.9,8.1-6.1,10.3c-0.3,0-0.4-0.1-0.2-0.3
		c3.8-2.6,5.6-5.9,5.4-9.9c-1.6,0.1-3,0.2-4.2,0.3c0,1.8,0,3.3,0.1,4.3c0,0.4-0.1,0.5-0.4,0.5c-0.2,0-0.3-0.1-0.5-0.3
		c-0.3-0.3-0.3-0.6-0.2-1.1C42.7,12.4,42.8,11.2,42.8,9.4z"/>
	<path class="st0" d="M56.6,17.9c-0.3,0.1-0.3,0-0.2-0.2c2.5-2.4,4.1-5.3,4.8-8.8c0-0.6,0-0.9-0.1-1c-0.2-0.2-0.4-0.3-0.7-0.3
		c-0.3-0.1-0.3-0.2,0-0.3c0.8-0.1,1.5,0.2,2.2,0.6C62.9,8.1,63,8.3,63,8.5c0,0.2-0.2,0.2-0.6,0.2C61.5,12.6,59.5,15.6,56.6,17.9z
		 M64.7,15.5c0-0.1,0.2-0.2,0.6-0.3c0-0.7,0-3.4,0-8.1C65.2,6.7,65.1,6.3,65,6c-0.1-0.2-0.4-0.3-0.9-0.4c-0.3-0.2-0.3-0.3-0.1-0.4
		c1,0,1.7,0.2,2.3,0.5c0.3,0.2,0.5,0.4,0.5,0.5c0,0.2-0.2,0.4-0.6,0.6c0,2.5,0,5.2,0,7.9c3-1.3,5.7-3.2,7.9-5.5
		c0.3-0.1,0.4,0,0.3,0.2C73,11.5,71,13.3,68.4,15c-1.4,0.8-2,1.2-2,1.4c0,0.3-0.1,0.4-0.2,0.4c-0.2,0-0.4-0.2-0.7-0.5
		C64.9,15.8,64.7,15.6,64.7,15.5z"/>
	<path class="st0" d="M79.9,9.7c-0.7,0.1-1.1,0.2-1.3,0.3c-0.1,0.2-0.2,0.2-0.4,0.2c-0.2,0-0.3-0.1-0.5-0.2
		c-0.8-0.6-1.2-1.2-1.3-1.7c0-0.3,0.1-0.3,0.2-0.2c0.2,0.5,0.7,0.7,1.6,0.8C79,9,82.5,8.7,88.8,8.2C89.5,8.2,90,8,90.3,7.8
		c0.4,0.2,0.8,0.3,1.1,0.5C92,8.5,92.2,8.7,92.2,9c0,0.3-0.4,0.3-1.1,0.2C89.7,9,87.6,9,85,9c1.1,0.7,1.7,1.1,1.7,1.4
		c0,0.2-0.1,0.2-0.2,0.2c-0.3,0-0.5,0.1-0.5,0.3c-1.4,3.5-3.6,6.2-6.6,7.9c-0.4,0.1-0.5,0-0.3-0.2c3.1-2.4,5.1-5.1,5.8-8.2
		c0-0.3,0-0.6,0-0.8c-0.1-0.3-0.2-0.4-0.5-0.5C82.5,9.3,81,9.5,79.9,9.7z M80.7,6c-0.1,0.2-0.2,0.2-0.4,0.2c-0.2,0-0.4-0.2-0.8-0.5
		c-0.5-0.4-0.7-0.9-0.8-1.4c0-0.3,0.1-0.3,0.3-0.1c0.4,0.6,0.9,0.8,1.5,0.8c2.2-0.2,4.4-0.4,6.6-0.6c0.4-0.1,0.7-0.2,1-0.5
		c0.4,0.1,0.8,0.3,1.2,0.5C89.7,4.7,90,4.9,90,5.1c0,0.2-0.3,0.3-0.9,0.2c-0.5-0.2-3-0.1-7.3,0.4C81.2,5.7,80.8,5.9,80.7,6z"/>
	<path class="st0" d="M107,7c0.5,0,1,0.3,1.6,0.9c0.2,0.2,0.3,0.4,0.3,0.6c0,0.2-0.1,0.2-0.4,0.2c-0.3-0.1-0.5,0.1-0.7,0.4
		c-0.6,0.7-1.4,1.5-2.6,2.6c0.9,0.3,1,0.6,0.2,0.8c0,2.4,0,4.8,0,7c0,0.5-0.1,0.7-0.3,0.7c-0.2,0-0.3-0.1-0.5-0.4
		c-0.3-0.3-0.3-0.6-0.2-0.8c0.1-0.4,0.2-0.8,0.2-1.4c0-1.8,0-3.5,0-5.3c-2.5,1.9-4.7,3.1-6.8,3.6c-0.3,0-0.3-0.1-0.1-0.3
		c4.3-2.1,7.4-4.4,9.2-7.1c0.2-0.3,0.3-0.6,0.3-0.8c0-0.2-0.1-0.3-0.4-0.4C106.5,7.1,106.6,7,107,7z"/>
	<path class="st0" d="M118.6,16.1c0.6,0,2.2-0.9,4.9-2.6c2.7-1.7,5.3-3.9,8-6.4c0.4-0.2,0.5-0.1,0.3,0.3c-3.5,3.9-7.6,7.1-12.3,9.8
		c-0.1,0.2-0.1,0.4-0.2,0.5c-0.1,0.1-0.2,0.2-0.3,0.2c-0.2,0-0.6-0.3-1.2-0.8c-0.7-0.7-1-1.3-0.9-2c0-0.3,0.1-0.3,0.3-0.2
		C117.6,15.7,118,16.1,118.6,16.1z M120,9.1c-0.3,0-0.5-0.3-0.7-1c-0.1-0.4-0.4-0.9-1-1.5c-0.3-0.3-0.7-0.7-1.3-1.1
		c-0.3-0.2-0.2-0.3,0.2-0.2c1.3,0.4,2.2,0.9,2.8,1.5c0.5,0.6,0.8,1.1,0.8,1.5C120.8,8.8,120.5,9.1,120,9.1z"/>
	<path class="st0" d="M136.5,18.8c-0.3,0-0.4-0.1-0.2-0.3c5-2.8,8.4-6.6,9.9-11.4c-1.6,0.1-3.1,0.1-4.4,0.2c-1.1,2.1-3,3.9-5.7,5.5
		c-0.3,0-0.3-0.1-0.2-0.3c2.7-2,4.5-4.2,5.4-6.6c0.2-0.6,0.3-0.9,0.2-1.1c-0.1-0.2-0.3-0.4-0.7-0.5c-0.2-0.1-0.2-0.2,0-0.3
		c0.3-0.1,0.8,0.1,1.5,0.5c0.6,0.3,0.8,0.6,0.8,0.8c0,0.2-0.1,0.2-0.4,0.2c-0.1,0-0.2,0.1-0.2,0.3c-0.2,0.4-0.3,0.7-0.5,1.1
		c0.9,0,2.2-0.1,4-0.2c0.2-0.2,0.4-0.4,0.7-0.6c0.5,0.3,0.8,0.6,1.1,0.8c0.3,0.2,0.4,0.4,0.4,0.5c0,0.2-0.2,0.2-0.5,0.2
		c-0.3-0.1-0.5,0.1-0.6,0.4C145.2,13,141.6,16.7,136.5,18.8z M149.9,6c0,0.4-0.2,0.5-0.5,0.5c-0.2,0-0.5-0.4-1-1.1
		c-0.2-0.3-0.7-0.8-1.5-1.4c-0.1-0.1-0.1-0.2,0.1-0.2c0.7,0.2,1.4,0.6,2.2,1.1C149.6,5.2,149.9,5.6,149.9,6z M151.1,4.8
		c-0.2,0-0.4-0.1-0.5-0.2c-0.2-0.2-0.4-0.5-0.6-0.8c-0.4-0.4-0.8-0.8-1.4-1.1c-0.2-0.2-0.1-0.2,0.1-0.2c1.2,0.2,1.9,0.5,2.3,0.9
		c0.3,0.3,0.5,0.6,0.5,1C151.5,4.7,151.4,4.8,151.1,4.8z"/>
</g>
<g>
	<path class="st0" d="M157.9,45c-0.6,0.6-1.4,0.9-2.3,0.9c-1,0-1.9-0.3-2.5-1c-1.1-1-1.6-2.7-1.6-5c0-2.1,0.6-3.8,1.8-4.9
		c0.8-0.8,1.7-1.1,2.8-1.1c0.3,0,0.7,0.1,1,0.2c0.2,0.1,0.5,0.1,0.8,0.1c0.3,0,0.6-0.1,0.8-0.4l0.6,3.1l-0.5,0.1
		c-0.3-0.9-0.8-1.7-1.3-2.2c-0.4-0.4-0.9-0.6-1.6-0.6c-0.6,0-1.2,0.2-1.6,0.6c-1,1-1.6,2.6-1.6,4.9c0,2.4,0.5,4.1,1.4,5
		c0.3,0.3,0.8,0.5,1.6,0.5c0.8,0,1.4-0.3,2-0.8c0.4-0.4,0.8-1.1,1.2-2.3l0.4,0.2C159.1,43.5,158.6,44.3,157.9,45z"/>
	<path class="st0" d="M166.7,34.6c1.2,1.1,1.8,2.8,1.8,5.2c0,2.4-0.6,4.1-1.8,5.2c-0.7,0.6-1.4,0.8-2.1,0.8c-0.8,0-1.5-0.3-2.1-0.8
		c-1.2-1.1-1.8-2.8-1.8-5.2c0-2.4,0.6-4.1,1.8-5.2c0.6-0.6,1.3-0.8,2.2-0.8S166.1,34.1,166.7,34.6z M163.3,34.7
		c-0.9,0.8-1.3,2.4-1.3,5.1c0,2.7,0.4,4.4,1.3,5.2c0.4,0.3,0.8,0.5,1.3,0.5c0.5,0,0.9-0.2,1.3-0.5c0.9-0.8,1.3-2.5,1.3-5.2
		c0-2.6-0.4-4.3-1.3-5.1c-0.3-0.3-0.8-0.4-1.3-0.4C164.1,34.3,163.6,34.5,163.3,34.7z"/>
	<path class="st0" d="M176.2,43.2h0.1v-8.4c0-0.4-0.2-0.6-0.6-0.6h-0.6v-0.4h2.8v0.4h-0.6c-0.4,0-0.6,0.2-0.6,0.6v11.1h-0.4
		l-5.4-10.7h-0.1v9.7c0,0.4,0.2,0.6,0.6,0.6h0.6v0.4h-2.8v-0.4h0.6c0.4,0,0.6-0.2,0.6-0.6V34.8c0-0.4-0.2-0.6-0.6-0.6h-0.4v-0.4h2
		L176.2,43.2z"/>
	<path class="st0" d="M184.4,41.5c-0.7-0.7-1.5-1.2-2.5-1.6c-1-0.4-1.7-0.8-2.2-1.2c-0.5-0.4-0.8-1.1-0.8-1.9c0-0.8,0.3-1.5,0.9-2.1
		c0.6-0.6,1.4-0.8,2.5-0.8c0.5,0,1,0.1,1.4,0.3c0.3,0.1,0.6,0.2,0.8,0.2c0.2,0,0.5-0.2,0.7-0.5l0.3,2.9l-0.4,0.2
		c-0.4-1-0.8-1.6-1.1-2c-0.5-0.4-1.1-0.6-1.8-0.6c-0.8,0-1.3,0.2-1.6,0.5c-0.5,0.4-0.7,1-0.7,1.7c0,0.7,0.2,1.2,0.7,1.5
		c0.2,0.1,0.9,0.4,1.9,0.9c1.2,0.5,2.1,1.1,2.8,1.8c0.5,0.6,0.8,1.2,0.8,2c0,0.8-0.3,1.6-0.9,2.2c-0.6,0.6-1.5,0.9-2.5,0.9
		c-0.6,0-1.1-0.1-1.5-0.3c-0.3-0.1-0.6-0.2-0.8-0.2c-0.3,0-0.6,0.2-0.9,0.5l-0.6-3.5l0.4-0.2c0.4,1.3,0.8,2.1,1.1,2.4
		c0.6,0.5,1.3,0.8,2.3,0.8c0.8,0,1.3-0.2,1.7-0.6c0.5-0.4,0.7-1.1,0.7-2C185.1,42.4,184.8,41.9,184.4,41.5z"/>
	<path class="st0" d="M190.1,44.8c0.4,0.3,0.9,0.5,1.6,0.5c0.8,0,1.4-0.2,1.8-0.6c0.5-0.5,0.8-1.1,0.8-1.9v-8c0-0.4-0.2-0.6-0.6-0.6
		h-0.4v-0.4h2.5v0.4h-0.4c-0.4,0-0.6,0.2-0.6,0.6v8c0,0.8-0.3,1.6-0.8,2.1c-0.7,0.6-1.4,0.9-2.3,0.9c-1,0-1.8-0.3-2.4-0.8
		c-0.5-0.5-0.8-1.2-0.8-2.1v-8.1c0-0.4-0.2-0.6-0.6-0.6h-0.4v-0.4h3.1v0.4h-0.4c-0.4,0-0.6,0.2-0.6,0.6v8.1
		C189.5,43.9,189.7,44.5,190.1,44.8z"/>
	<path class="st0" d="M199,44.9c0,0.4,0.2,0.6,0.6,0.6h1.9c1.3,0,2.2-0.8,2.8-2.5l0.4,0.1l-0.6,2.8h-7.3v-0.4h0.5
		c0.4,0,0.6-0.2,0.6-0.6V34.8c0-0.4-0.2-0.6-0.6-0.6h-0.4v-0.4h3.3v0.4h-0.5c-0.4,0-0.6,0.2-0.6,0.6V44.9z"/>
	<path class="st0" d="M211.5,45.9h-3.7v-0.4h0.6c0.4,0,0.6-0.2,0.6-0.6V35c0-0.5-0.2-0.7-0.6-0.7c-0.9,0-1.7,0.8-2.3,2.3l-0.4-0.1
		l0.6-2.7h6.7l0.6,2.7l-0.4,0.1c-0.6-1.5-1.3-2.3-2.2-2.3c-0.6,0-0.8,0.3-0.8,0.8v9.8c0,0.4,0.2,0.6,0.6,0.6h0.6V45.9z"/>
	<path class="st0" d="M215.9,34.2v-0.4h5.6v0.4h-1.6c-0.4,0-0.6,0.2-0.6,0.6v10.1c0,0.4,0.2,0.6,0.6,0.6h1.6v0.4h-5.6v-0.4h1.6
		c0.4,0,0.6-0.2,0.6-0.6V34.8c0-0.4-0.2-0.6-0.6-0.6H215.9z"/>
	<path class="st0" d="M230.4,43.2h0.1v-8.4c0-0.4-0.2-0.6-0.6-0.6h-0.6v-0.4h2.8v0.4h-0.6c-0.4,0-0.6,0.2-0.6,0.6v11.1h-0.4
		l-5.4-10.7H225v9.7c0,0.4,0.2,0.6,0.6,0.6h0.6v0.4h-2.8v-0.4h0.6c0.4,0,0.6-0.2,0.6-0.6V34.8c0-0.4-0.2-0.6-0.6-0.6h-0.4v-0.4h2
		L230.4,43.2z"/>
	<path class="st0" d="M238.4,34.9c-0.4-0.4-0.9-0.6-1.5-0.6c-0.4,0-0.8,0.2-1.3,0.6c-1,1-1.6,2.7-1.6,5.2c0,2.3,0.5,4,1.5,4.9
		c0.3,0.3,0.8,0.4,1.4,0.4c1,0,1.6-0.4,1.8-1.3v-2.4c0-0.6-0.3-0.8-0.8-0.8h-0.4v-0.4h3.5v0.4h-0.4c-0.5,0-0.8,0.3-0.8,0.8v3.5
		c-0.2-0.1-0.4-0.1-0.5-0.1c-0.2,0-0.4,0.1-0.6,0.2c-0.6,0.4-1.2,0.6-1.9,0.6c-0.9,0-1.7-0.3-2.3-0.9c-1.2-1.1-1.8-2.8-1.8-4.9
		c0-2.3,0.7-4,2-5.3c0.7-0.6,1.4-0.9,2.1-0.9c0.3,0,0.6,0.1,1,0.2c0.4,0.1,0.6,0.2,0.7,0.2c0.3,0,0.5-0.1,0.8-0.4l0.6,3.2l-0.4,0.1
		C239.2,36.1,238.8,35.3,238.4,34.9z"/>
</g>
</svg>
