<?xml version="1.0" encoding="utf-8"?>
<!-- Generator: Adobe Illustrator 25.0.1, SVG Export Plug-In . SVG Version: 6.00 Build 0)  -->
<svg version="1.1" id="レイヤー_1" xmlns="http://www.w3.org/2000/svg" xmlns:xlink="http://www.w3.org/1999/xlink" x="0px"
	 y="0px" viewBox="0 0 208.5 36.6" style="enable-background:new 0 0 208.5 36.6;" xml:space="preserve">
<style type="text/css">
	.st0{fill:#FFFFFF;}
</style>
<g>
	<path class="st0" d="M112.4,21.5l0.8-0.9h0.3l0.1,4.8h-0.3c-0.3-1.4-0.7-2.5-1.2-3.1c-0.6-0.8-1.3-1.1-2.1-1.1
		c-0.7,0-1.4,0.4-2,1.1c-0.8,0.9-1.1,2.4-1.1,4.4s0.4,3.4,1.1,4.3c0.6,0.8,1.4,1.1,2.2,1.1s1.6-0.4,2.3-1.3c0.4-0.5,0.8-1.3,1.1-2.4
		l0.3,0.3c-0.2,1.2-0.6,2.1-1.2,2.8c-0.8,1-1.7,1.5-2.9,1.5c-1.3,0-2.4-0.6-3.3-1.7c-1-1.2-1.5-2.7-1.5-4.6c0-1.7,0.5-3.2,1.5-4.5
		c0.9-1.1,2-1.7,3.5-1.7C110.7,20.4,111.6,20.8,112.4,21.5z"/>
	<path class="st0" d="M124.6,22.1c1,1.2,1.5,2.8,1.5,4.6c0,1.8-0.5,3.3-1.5,4.6c-0.9,1.1-2,1.7-3.4,1.7c-1.4,0-2.6-0.6-3.5-1.7
		c-1-1.2-1.5-2.8-1.5-4.6c0-1.8,0.5-3.3,1.5-4.6c0.9-1.1,2-1.7,3.5-1.7C122.6,20.4,123.7,21,124.6,22.1z M119.4,21.9
		c-0.8,1-1.2,2.5-1.2,4.7c0,2.2,0.4,3.7,1.2,4.7c0.5,0.7,1.2,1,1.9,1c0.7,0,1.3-0.3,1.9-1c0.8-1,1.2-2.5,1.2-4.7
		c0-2.2-0.4-3.7-1.2-4.7c-0.5-0.7-1.2-1-1.9-1C120.5,20.9,119.9,21.3,119.4,21.9z"/>
	<path class="st0" d="M128.4,20.9v-0.5h2.5l5.8,9.5v-7.8c0-0.8-0.3-1.2-0.9-1.2h-0.5v-0.5h3.5v0.5h-0.5c-0.7,0-1,0.4-1,1.2v10.8
		h-0.6l-6.3-10.3v8.6c0,0.8,0.3,1.2,0.9,1.2h0.5v0.5h-3.5v-0.5h0.5c0.6,0,0.9-0.4,0.9-1.2v-9.2c0-0.8-0.3-1.2-0.9-1.2H128.4z"/>
	<path class="st0" d="M141,25l0.2-4.6h9.8l0.2,4.6h-0.4c-0.2-1.6-0.6-2.7-1.2-3.4c-0.4-0.5-0.9-0.8-1.3-0.8h-0.4c-0.7,0-1,0.3-1,1
		v9.4c0,0.8,0.4,1.2,1.2,1.2h0.7v0.5h-5.4v-0.5h0.7c0.8,0,1.2-0.4,1.2-1.2v-9.4c0-0.7-0.3-1-1-1h-0.5c-0.4,0-0.8,0.3-1.3,0.8
		c-0.6,0.7-1,1.8-1.2,3.4H141z"/>
	<path class="st0" d="M158.3,20.4h0.8l3.4,10.8c0.3,0.8,0.7,1.3,1.3,1.3h0.5v0.5h-4.6v-0.5h0.7c0.5,0,0.7-0.2,0.7-0.7
		c0-0.2,0-0.4-0.1-0.6l-0.6-1.9h-4.1l-0.7,2.3c-0.1,0.6,0.1,0.9,0.7,0.9h0.8v0.5h-3.5v-0.5h0.3c0.5,0,1-0.4,1.3-1.3L158.3,20.4z
		 M160.1,28.6l-1.8-6l-1.9,6H160.1z"/>
	<path class="st0" d="M174,21.5l0.8-0.9h0.3l0.1,4.8h-0.3c-0.3-1.4-0.7-2.5-1.2-3.1c-0.6-0.8-1.3-1.1-2.1-1.1c-0.7,0-1.4,0.4-2,1.1
		c-0.8,0.9-1.1,2.4-1.1,4.4s0.4,3.4,1.1,4.3c0.6,0.8,1.3,1.1,2.2,1.1c0.8,0,1.6-0.4,2.3-1.3c0.4-0.5,0.8-1.3,1.1-2.4l0.3,0.3
		c-0.2,1.2-0.6,2.1-1.2,2.8c-0.8,1-1.7,1.5-2.9,1.5c-1.3,0-2.4-0.6-3.3-1.7c-1-1.2-1.5-2.7-1.5-4.6c0-1.7,0.5-3.2,1.5-4.5
		c0.9-1.1,2-1.7,3.5-1.7C172.4,20.4,173.2,20.8,174,21.5z"/>
	<path class="st0" d="M177.6,25l0.2-4.6h9.8l0.2,4.6h-0.4c-0.2-1.6-0.6-2.7-1.2-3.4c-0.4-0.5-0.9-0.8-1.3-0.8h-0.4c-0.7,0-1,0.3-1,1
		v9.4c0,0.8,0.4,1.2,1.2,1.2h0.7v0.5H180v-0.5h0.7c0.8,0,1.2-0.4,1.2-1.2v-9.4c0-0.7-0.3-1-1-1h-0.5c-0.4,0-0.8,0.3-1.3,0.8
		c-0.6,0.7-1,1.8-1.2,3.4H177.6z"/>
</g>
<g>
	<path class="st0" d="M15.5,6c0.1-0.1,0.3-0.1,0.5,0c0.4,0.3,0.9,0.7,1.6,1.3c0.3,0.4,0,0.7-0.7,0.7c-0.4,2.3-0.8,4.2-1.3,6
		c0.1,0,0.2,0,0.4,0.1c0.6,0.1,0.9,0.4,0.9,0.8c0,0.4-0.4,0.6-1,0.6c-0.6,0-1.1-0.1-1.5-0.1c-3.3,0-5.7,0.2-7.2,0.7
		c-0.3,0.3-0.7,0.3-1.1,0c-0.7-0.6-1.1-1-1.3-1.3c-0.1-0.3-0.1-0.7,0-1.1c0.1-0.2,0.2-0.2,0.2-0.1c0.3,0.5,0.6,0.8,0.8,0.8
		c0.1,0.1,0.3,0.1,0.6,0.1c2.5-0.2,5.1-0.4,7.7-0.6c0.3-1.9,0.5-4,0.6-6.3c-4.1,0.3-6.6,0.6-7.5,0.8c-0.3,0.3-0.6,0.3-0.8,0
		C6.3,8.3,6,8,5.6,7.6C5.4,7.4,5.3,7.2,5.3,7.1c0-0.2,0-0.4,0.1-0.6c0.1-0.2,0.2-0.2,0.3,0c0.4,0.4,0.7,0.6,1,0.6
		c2.7-0.2,5.5-0.5,8.4-0.7L15.5,6z"/>
	<path class="st0" d="M28,9c-0.4,0-0.8-0.2-1-0.7c-0.8-1.5-1.8-2.5-3.2-3.1C23.6,5.1,23.7,5,23.8,5c1.9,0,3.3,0.6,4.3,1.5
		c0.5,0.5,0.7,1,0.7,1.5C28.8,8.7,28.6,9,28,9z M38.2,7.5c-2.7,3.8-6.2,7.1-10.5,9.7c-0.1,0.5-0.4,0.7-0.8,0.4
		c-1.1-0.7-1.8-1.2-2.1-1.6c-0.4-0.4-0.4-1,0-1.6c0.1-0.1,0.2-0.1,0.2,0c0.1,0.4,0.4,0.8,0.8,1c0.3,0.2,0.6,0.2,0.9,0
		c3.2-1.3,7-4,11.3-8.1C38.2,7.2,38.3,7.3,38.2,7.5z"/>
	<path class="st0" d="M50.2,4c0.1,0.3,0,0.4-0.4,0.5c-0.3,0.6-0.5,1.1-0.7,1.4c1.8-0.1,3.4-0.3,4.8-0.4C54,5.3,54.1,5.1,54.2,5
		c0.6,0.3,1.1,0.8,1.5,1.3c0.2,0.4-0.1,0.6-0.9,0.6c-0.9,2-1.8,3.7-2.8,5.1c1,0.8,1.5,1.6,1.5,2.2c0,0.6-0.3,0.8-0.8,0.8
		c-0.2,0-0.4-0.1-0.6-0.4c-0.4-0.6-0.8-1.1-1.1-1.4c-1.9,2.4-4.5,4.2-8,5.3c-0.2,0-0.2-0.1-0.1-0.3c3-1.5,5.3-3.5,7.2-6
		c-0.8-0.9-2-1.8-3.6-2.6c-1.4,1.5-2.7,2.6-4.1,3.4c-0.2,0-0.3-0.1-0.1-0.3c2.3-1.9,4.2-4.7,5.7-8.4c0.3-0.5,0.2-0.9-0.3-1.1
		c-0.2-0.1-0.2-0.2,0.1-0.4c0.2-0.1,0.4-0.2,0.8-0.1C49.1,3.1,49.6,3.5,50.2,4z M46.8,9.4c1.5,0.5,2.9,1.1,4.1,1.8
		c0.7-1,1.5-2.5,2.3-4.4c-1.7,0.1-3,0.3-3.9,0.4c-0.2,0-0.4-0.3-0.5-0.6C47.9,7.9,47.3,8.9,46.8,9.4z"/>
	<path class="st0" d="M69.2,4.3c0.3,0.3,0.2,0.5-0.3,0.6c-0.3,0.5-0.6,1-0.8,1.5c1.3-0.1,2.7-0.3,4.4-0.4c0.2-0.3,0.4-0.4,0.5-0.4
		c0.5,0.3,1,0.8,1.5,1.3c0.3,0.4,0,0.7-0.8,0.7c-1.5,3-3.1,5.5-4.9,7.2c-1.6,1.6-3.7,2.9-6.3,3.8c-0.2,0-0.3-0.1-0.1-0.3
		c4.6-2.8,7.8-6.5,9.6-11.2c-1.7,0.1-3.1,0.3-4.1,0.4c-0.1,0-0.2-0.1-0.4-0.2c-1.4,2.2-3.2,3.9-5.3,5.2c-0.2,0-0.3,0-0.1-0.3
		c2-1.9,3.6-4.3,4.8-7.2c0.1-0.3,0.2-0.6,0.3-0.8c0-0.4-0.2-0.6-0.7-0.8c-0.1,0-0.1-0.1,0-0.2C66.7,3,67,3,67.3,3.1
		C68.1,3.4,68.7,3.8,69.2,4.3z"/>
	<path class="st0" d="M87.5,4.2c0.2,0.3,0.1,0.5-0.4,0.7C87.1,6,87,7.4,87,9c2.7,0.2,4.6,0.9,5.6,1.9c0.5,0.5,0.7,0.9,0.7,1.3
		c0,0.6-0.3,0.9-0.8,0.9c-0.3,0-0.7-0.3-1.2-0.8c-1.5-1.5-3-2.4-4.4-2.7c0.1,2.4,0.2,5.3,0.3,8.5c0,0.5-0.1,0.7-0.4,0.7
		c-0.3,0-0.6-0.2-0.9-0.4c-0.5-0.3-0.7-0.6-0.6-0.8c0-0.3,0.1-0.8,0.2-1.4c0-3.7,0-7.6-0.1-11.7c0-0.4-0.3-0.7-0.9-0.8
		c-0.2,0-0.3-0.1-0.1-0.3c0.3-0.3,0.6-0.4,0.9-0.4C86.2,3.2,86.9,3.6,87.5,4.2z"/>
</g>
<rect x="78.7" y="18.7" transform="matrix(0.7071 -0.7071 0.7071 0.7071 16.1517 76.6907)" class="st0" width="43.9" height="0.3"/>
</svg>
