<svg xmlns="http://www.w3.org/2000/svg" viewBox="0 0 200.3 18.38"><g data-name="レイヤー 2"><path d="M9.86 6.52c.72 3.78 2.84 7.82 8.78 10.54v.22a1.39 1.39 0 00-1.38 1.1c-5.56-3.06-7.16-7.84-7.74-11.84-.56 4.66-2.4 8.8-9.26 11.82L0 18c5.84-3.12 7.56-7 8.08-11.48H.38L.2 5.94h7.94c.16-1.86.16-3.82.16-5.86l2.14.22c-.06.3-.22.5-.68.58 0 1.72-.06 3.42-.22 5.06h5.76l1.1-1.38 2 1.64c0 .22-.22.32-.52.32zm16.23 7.14c-1.28 0-1.56-.38-1.56-1.34v-5.4l-2.42.46-.26-.54 2.68-.52V.4l1.9.22c0 .26-.19.44-.66.52v5l2.79-.54.64-1.44s1.24.7 2 1.22c0 .24-.18.36-.44.42l-4.95.94v5.24c0 .34.08.48.61.48h2.3a.31.31 0 00.3-.22 25.33 25.33 0 00.56-2.68h.24l.08 2.78c.42.16.52.3.52.56 0 .56-.58.84-2.88.84zM40.74 2.6a1.6 1.6 0 01-.86.32c-.22 7.74-.72 12.64-1.78 13.88a3 3 0 01-2.42 1 1.23 1.23 0 00-.34-1 6.7 6.7 0 00-2-.62v-.34c.9.08 2.38.22 2.86.22a1 1 0 00.84-.28c.86-.84 1.34-5.84 1.54-13h-4.12c-.5 8-1.62 13.18-8.45 15.62l-.24-.4c5.93-2.52 6.89-8 7.27-15.3h-4l-.18-.58h9.46l.8-.92zm7.42-1.32A3.75 3.75 0 0149.34 1a3 3 0 011.46.34c.34.2.26.56-.48 3.12 1.92-.6 2.32-1.08 2.7-1.08a.68.68 0 01.74.6c0 .36-.46.64-.68.76a13.9 13.9 0 01-3.16 1A35.86 35.86 0 0146.14 14c-.28.4-.52.72-.9.72s-.58-.42-.58-.78A1.52 1.52 0 0145 13a23.43 23.43 0 003.8-7 10.92 10.92 0 01-1.58.12c-1.5 0-2.18-.56-2.82-2l.36-.28A3.43 3.43 0 0047.46 5a7.59 7.59 0 001.7-.22 16.63 16.63 0 00.36-2.16c0-.42-.08-.58-.42-.72a5.8 5.8 0 00-.94-.32zm7.16 3.44a5.67 5.67 0 012.76.28c1.22.46 1.84 1.24 1.84 2 0 .46-.2.72-.58.72s-.8-.32-1.66-.26a3.09 3.09 0 00-1.86.78 2.34 2.34 0 00-.5 1.8c0 .6.22 1.86.38 3.06a9.25 9.25 0 013.12 1.4c1 .62 1.38 1.18 1.38 1.68s-.18.64-.5.64-.62-.34-1.06-.74a8 8 0 00-2.82-1.82v.8c0 1.66-1.22 2.62-3.26 2.62s-3.2-1-3.2-2.18c0-1.52 1.62-2.64 4.28-2.64h.9c-.06-.88-.16-1.78-.16-2.56a3.24 3.24 0 011-2.5 6.28 6.28 0 012.22-1.24c.42-.22.34-.48 0-.74a3.86 3.86 0 00-2.3-.6zm-.66 9.22a9.31 9.31 0 00-1.72-.16c-1.82 0-2.78.76-2.78 1.48s.68 1.26 2.14 1.26c1.92 0 2.36-1 2.36-2.14zM80.36 2.6s1.16.88 1.85 1.52c-.07.22-.23.3-.53.3H72c-.1 1.3-.22 2.52-.42 3.68h5.8l.8-.82 1.52 1.28a1.26 1.26 0 01-.82.32c-.22 4.2-.76 7.74-1.74 8.64a3.27 3.27 0 01-2.38.8 1 1 0 00-.44-1 9.06 9.06 0 00-2.42-.64v-.34c1.08.1 3 .28 3.5.28a1 1 0 00.84-.26c.68-.56 1.12-3.86 1.32-7.7h-6.1a12.52 12.52 0 01-7.28 9.68l-.18-.22c4.9-3.32 6.18-7.78 6.42-13.7h-6.36l-.16-.56h8.42V0l2.06.22c0 .28-.24.48-.72.54v3.1h5.7zm4.18 6.68l.32-.28a2.31 2.31 0 001.3.74 1.7 1.7 0 001-.52c.92-.86 2.56-2.72 3.32-3.56a1.78 1.78 0 011.34-.72 2.29 2.29 0 011.68.8c2.16 2.06 4.2 5.18 8.2 7.34a1.36 1.36 0 01.8 1.2.59.59 0 01-.64.66c-.74 0-2.46-1.24-4.16-2.92s-3.3-3.84-4.88-5.52a1.39 1.39 0 00-1-.5c-.24 0-.48.16-.78.52-.72.84-2.14 2.74-2.9 3.72-.5.66-.8 1.08-1.36 1.08a2.9 2.9 0 01-1.74-1 2.62 2.62 0 01-.5-1.04zm29.16 7.14c4.9-.86 7.26-3.38 7.26-7A5.68 5.68 0 00115 3.58h-.72a3.73 3.73 0 01.86 2.12 10 10 0 01-.6 3.3c-.84 2.4-3.16 6.28-5.2 6.28-1.34 0-2.74-2.12-2.74-4.58a7.68 7.68 0 012.66-5.7 8.65 8.65 0 015.84-2.1c4.12 0 7.3 2.7 7.3 6.84 0 3.32-2.08 6.72-8.62 7.14zm-.14-12.68a7.61 7.61 0 00-3.78 2 6.44 6.44 0 00-2.06 4.62c0 1.92.88 3.38 1.7 3.38 1.32 0 3.16-3.16 4-5.06a9.41 9.41 0 00.72-3.08 3.49 3.49 0 00-.58-1.86zm17.68-1.62a5.86 5.86 0 011.56-.4c.86 0 2 .48 2 .9s-.28.52-.22 1.14.18 1.14.34 2c.86-.22 1.66-.44 2.38-.66s1.16-.5 1.34-.52c.58 0 1.5.14 1.5.62s-.3.52-.8.62c-1.1.22-3 .62-4.22.9.24 1.14.48 2.28.7 3.34 1.58-.36 3.7-.92 4.38-1.14s.66-.26.84-.28c.9-.06 1.72.26 1.72.7 0 .26-.12.52-.64.56A41.73 41.73 0 00136 11c.42 1.88.78 3.46 1 4.24a8.53 8.53 0 01.38 1.88c0 .3-.14.62-.54.62s-.88-.62-1-1.14c-.1-.34-.24-1.58-.44-2.7-.12-.7-.28-1.64-.48-2.64-1.42.36-3.28.88-4.34 1.26-.75.26-1 .56-1.39.56a2.7 2.7 0 01-1.58-.88 2.79 2.79 0 01-.38-1l.34-.22c.52.46.82.66 1.12.66a61.74 61.74 0 006.05-1.34c-.26-1.3-.52-2.58-.7-3.36-1.08.24-2.14.52-2.92.76-.57.18-.69.4-1 .4a2.76 2.76 0 01-1.57-.92 1.89 1.89 0 01-.32-.88l.34-.16c.32.32.6.68 1.06.68a42 42 0 004.19-.82 19.33 19.33 0 00-.8-3c-.22-.42-1-.38-1.73-.5zm8.36.26a7 7 0 012.22 1.42c.48.48.68.82.66 1.22a.47.47 0 01-.5.5c-.32 0-.52-.46-.88-1a9.28 9.28 0 00-1.78-1.82zm1.74-1.26a8 8 0 012.24 1.24 1.7 1.7 0 01.66 1.28c0 .34-.18.5-.46.5s-.5-.5-.92-1a9.21 9.21 0 00-1.78-1.7zm9.94 3.34c1.14 0 7.5-.68 8.46-.88.52-.12.78-.44 1.12-.44.58 0 2 1 2 1.6s-.64.78-.92 1.44a19.33 19.33 0 01-11.58 11l-.3-.48c5.72-2.88 9.4-7.16 10.64-11.84.08-.3 0-.34-.24-.34-.88 0-6.56.8-7.7 1.06-.54.12-1 .52-1.36.52-.6 0-1.54-1-1.74-1.46a4.05 4.05 0 01-.2-1.14l.38-.14c.3.46.74 1.1 1.44 1.1zm18.22-2.58a6.1 6.1 0 011.28-.24c.84 0 2.2.76 2.2 1.22s-.36.48-.44 1.14c-.1 1-.14 2.42-.16 3.52a17.19 17.19 0 014.94 1.84 2 2 0 011.12 1.5.64.64 0 01-.64.68c-.66 0-.88-.68-2.08-1.6a15.68 15.68 0 00-3.34-1.72V15c0 .88.06 1.48.06 1.82 0 .52-.2.76-.64.76-.66 0-1-1.1-1-1.78 0-.44.18-.8.26-1.56.16-1.48.16-4.76.16-6.28s0-3.78-.12-4.78c-.06-.64-.5-.76-1.56-.88zm19.56 7.64c-.42 1-1.34 3.3-1.56 4.06a5 5 0 00-.34 1.44c0 .58.4 1.22.4 1.7a.53.53 0 01-.58.6 1.26 1.26 0 01-.94-.74 9.08 9.08 0 01-1.16-4.48 18 18 0 011-5.28 10.86 10.86 0 00.5-2.32 3.14 3.14 0 00-1.12-2.1l.33-.26a5 5 0 011 .6 3.38 3.38 0 011.3 2.1c0 .46-.28.82-.76 2a11.88 11.88 0 00-1.28 4.9 3.21 3.21 0 00.31 1.72c.12.24.27.28.45 0 .44-.7 1.56-3.2 2-4.22zm2 1.72a7.73 7.73 0 00.58 1.74c.68 1.18 1.74 1.88 4.2 1.88a19.11 19.11 0 003.4-.36c.54 0 1.06.18 1.06.64 0 .8-1.86 1-4 1-3.12 0-4.82-1-5.42-3.08a6.39 6.39 0 01-.26-1.78zm.22-6.24a10.25 10.25 0 014.78-1.24 6.65 6.65 0 012.78.42c.42.18.6.46.6.7s-.12.44-.54.5a5.42 5.42 0 00-1.64.38 32.58 32.58 0 00-3.26 1.8l-.34-.36c.9-.64 2.32-1.68 2.74-2 .24-.22.22-.36-1.1-.36a12.53 12.53 0 00-3.8.66z" fill="#fff" data-name="レイヤー 1"/></g></svg>