<svg xmlns="http://www.w3.org/2000/svg" viewBox="0 0 203.46 16.94"><g data-name="レイヤー 2"><path d="M0 2.48v-.4a4.38 4.38 0 011.14-.22c.74 0 2 .72 2 1.22s-.24.58-.3 1.32 0 5.26 0 6.08-.28 1-.64 1-.78-.62-.78-1.36c0-.54.16-1.32.2-3 0-.92 0-2.88-.12-3.62 0-.48-.06-.64-.4-.78A4.33 4.33 0 000 2.48zm2.3 14.46L2 16.5c3.9-2.06 5.78-4.74 6-8.84a45.67 45.67 0 00.06-4.9.89.89 0 00-.44-.82 4 4 0 00-1.2-.26v-.4A3.9 3.9 0 017.82.9c.76 0 2.08.78 2.08 1.2s-.34.54-.38 1.18c0 1.18-.12 3.2-.18 4.44-.22 4.64-2.52 7.52-7.04 9.22zM16.86 5.46l.38-.18c.42.62.76 1.08 1.34 1.08 1.18 0 7-.76 8.4-1 .56-.08.74-.38 1.08-.38.6 0 1.82 1 1.82 1.52s-.78.6-1 1.1a18 18 0 01-10.16 9.1l-.28-.46a19.13 19.13 0 009.22-9.66c.08-.24 0-.36-.24-.32-1.62.16-6 .8-7.36 1.08-.62.14-.9.5-1.34.5s-1.36-.82-1.56-1.3a4.83 4.83 0 01-.3-1.08zm10-3.16a35.53 35.53 0 01-5.76.76c-1 0-1.58-.56-2.24-1.62l.3-.26A3.11 3.11 0 0021.1 2a14.56 14.56 0 003.26-.46c1.18-.26 1.44-.58 1.86-.58.86 0 1.54.28 1.54.76 0 .28-.24.44-.88.58zM36.54 7l.24-.22a6.67 6.67 0 011.4 1 2.94 2.94 0 011.26 2c0 .42-.2.72-.62.72-.64 0-.66-.78-1.22-1.86A9.16 9.16 0 0036.54 7zm1.58 9.78l-.24-.36C43.18 13.7 46.2 8.54 46.2 7c0-.32-.28-.56-1.06-.88l.1-.3a3.69 3.69 0 01.94 0c.74.12 1.7 1 1.7 1.5 0 .32-.34.48-.56.94a16.43 16.43 0 01-9.2 8.56zM40.06 6l.24-.22a6.81 6.81 0 011.48 1.06 2.59 2.59 0 011.06 1.92.62.62 0 01-.66.68c-.6 0-.6-.82-1.08-1.8A8.75 8.75 0 0040.06 6zM58.85.4a6.47 6.47 0 011.2.08c.78.18 1.84.78 1.84 1.14s-.28.54-.58 1-.44.74-.68 1.08a2.55 2.55 0 00.38 0 38.55 38.55 0 004-.38c.54-.12.68-.46 1-.46s1.74.82 1.74 1.34-.66.52-.94 1a25.1 25.1 0 01-12.44 11.54l-.3-.44c5.14-2.68 9.84-7.84 11.4-11.8.1-.24 0-.3-.16-.3-.44 0-2.48.32-3.2.46a6.64 6.64 0 01-1.11.26 1.64 1.64 0 01-.86-.48 18.48 18.48 0 01-5.92 5.2l-.3-.42C57 7 60 2.9 60 1.74c0-.34-.52-.66-1.22-1zm15.81 1.98c.34.48.72 1.2 1.38 1.2a46.66 46.66 0 006.14-1c.42-.12.66-.5.94-.5.6 0 1.9 1 1.9 1.48s-.6.56-.86 1a33.5 33.5 0 01-3.32 4.54c3.22 1.46 6.5 3.68 6.5 5.34a.67.67 0 01-.68.74c-.54 0-.82-.64-1.88-1.84a17.77 17.77 0 00-4.42-3.74 24.34 24.34 0 01-8.48 5.9l-.3-.5c4.7-2.46 9.42-7.16 11.28-11.26.1-.26 0-.3-.24-.28-1.42.22-4.2.9-5.3 1.18-.62.16-.7.52-1.18.52s-1.38-.86-1.62-1.38a3.41 3.41 0 01-.28-1.22zm18.17-1.02V.94a5.54 5.54 0 011.3-.14c.94 0 2.32 1.06 2.32 1.62s-.38.56-.56 1.5a52.75 52.75 0 00-.66 7.84c0 2.54.74 3.5 2.94 3.5a9.28 9.28 0 007.58-4.26l.44.3a8.93 8.93 0 01-8 5.32c-2.68 0-4.06-1.3-4.06-4.72 0-3.1.48-7.8.48-9 0-.72-.12-.94-.46-1.14a4 4 0 00-1.32-.4zM113.86.34a4.28 4.28 0 011.26-.14c.72 0 2 .52 2 1a9.18 9.18 0 01-.52 1.6c-.1.36-.22.86-.38 1.42a18.41 18.41 0 002.52-1.06 1.85 1.85 0 01.68-.28c.34 0 .86.2.86.56s-.22.58-1 .9a28.3 28.3 0 01-3.46 1.12c-.28 1-.62 2.06-1 3a48.26 48.26 0 01-3.08 7.32c-.28.46-.48.64-.88.64s-.58-.36-.58-.82.18-.62.48-1.16a27.2 27.2 0 003.12-6.32c.26-.74.52-1.58.76-2.42a12.64 12.64 0 01-2.3.24 2.79 2.79 0 01-2.78-2l.34-.26a3.4 3.4 0 002.44 1.14 11.42 11.42 0 002.6-.32 19.66 19.66 0 00.5-2.6.66.66 0 00-.42-.8 9 9 0 00-1.2-.3zm3.52 11.18a5.74 5.74 0 00.68 1.9c.7 1.08 1.94 1.58 3.64 1.58a18.85 18.85 0 003.22-.38c.46 0 1 .22 1 .68s-.52.62-1.1.74a12.39 12.39 0 01-2.68.26c-2.32 0-4.16-.7-4.78-2.46a5.7 5.7 0 01-.44-2.22zm1.14-4.68a10.21 10.21 0 013.62-.72 6.65 6.65 0 012.7.48c.46.24.72.54.72.88s-.34.46-.82.5a3.75 3.75 0 00-1.18.32 24.32 24.32 0 00-2.24 1l-.26-.3a23.32 23.32 0 002.1-1.46c.16-.12.1-.22-.08-.28a5.43 5.43 0 00-1.76-.26 12.26 12.26 0 00-2.68.32zm12.75-1.76c0-1.08-.14-1.58-1.56-2.58l.18-.32a5.52 5.52 0 011.26.32c.72.34 1.76 1.24 1.76 2.06s-.68 2.14-.68 4.2c0 2.54 1.16 3.84 2 4.28a.47.47 0 00.7-.14 32.65 32.65 0 001.88-3.66l.52.24c-.46 1.32-1.1 3-1.22 3.62-.18.9.14 1 .14 1.42s-.54.86-1.36.52c-1.56-.68-3.64-2.42-3.7-6.24-.04-1.44.08-2.8.08-3.72zm9.32-.5l.18-.48a6.22 6.22 0 013.76 2 7.12 7.12 0 011.74 4.5c0 .78-.26 1.12-.8 1.12-.32 0-.56-.24-.64-.7a10.9 10.9 0 00-1.14-4 5.79 5.79 0 00-3.1-2.44zm19.68-1.22a4.44 4.44 0 011.42.38 2.37 2.37 0 011.22 1.6c0 .4-.48.56-1.28.84a33 33 0 00-4.88 2.28c-1.6.92-3.8 2.6-3.8 4.46 0 1.18 1.12 2.12 4.24 2.12a28.34 28.34 0 004.92-.56c.7 0 1.32.18 1.32.78 0 .26-.32.5-.72.62a21 21 0 01-5.1.48c-3.5 0-5.6-1.14-5.6-3.22 0-2.26 2.32-4.2 3.64-5.14a3.47 3.47 0 01-1.18-1.7 23.11 23.11 0 01-.88-4.18.71.71 0 00-.56-.66 7.92 7.92 0 00-1.1-.26V.78a4.66 4.66 0 011.28-.2c.9 0 2 .64 2 1.1a10.18 10.18 0 00-.14 1 12.68 12.68 0 00.44 3 2.84 2.84 0 001.1 1.64c1.48-.88 3.54-1.92 4.28-2.32.32-.16.4-.3.26-.56a2.17 2.17 0 00-1-.84zM173.09.52a3 3 0 011.64-.52c.72 0 1.48.16 1.58.72s.24 1.44.44 2.22c2.08-.62 2.86-1.28 3.18-1.28s1 .1 1 .48c0 .2-.14.38-.44.58A18 18 0 01177.07 4a18.43 18.43 0 001.08 2.58c.64-.2 1.24-.42 1.76-.64 1.28-.52 1.5-.8 1.82-.8.5 0 .94.1.94.5 0 .2-.08.42-.46.62a14.79 14.79 0 01-3.46 1.38c1.56 2.58 2.72 3.14 2.72 3.66s-.34 1.48-.82 1.48-.8-.36-1.6-.76a9.88 9.88 0 00-4-.9c-2.14 0-3.74.9-3.74 2.22 0 1.86 2.54 2.1 4.44 2.1 1.5 0 2-.22 2.76-.22.6 0 1 .26 1 .64 0 .6-1.24.92-3.82.92s-5.38-.84-5.38-3.18c0-1.6 1.64-3.18 5-3.18a17.39 17.39 0 014.2.58c.26.08.28 0 .14-.18a25.94 25.94 0 01-1.92-2.94 21 21 0 01-4.84.56c-2.8 0-3.6-1.74-1.42-3.26l.34.3c-1.24 1.1-1 1.9 1.24 1.9a16.29 16.29 0 004.14-.56c-.38-.78-.76-1.66-1.14-2.6a13.25 13.25 0 01-3.1.42 3.44 3.44 0 01-3.52-1.9l.28-.22A4.32 4.32 0 00173 3.64a13.59 13.59 0 002.8-.42c-.22-.54-.4-1.08-.6-1.62a.9.9 0 00-1-.72 8.68 8.68 0 00-1 0zm19.13 8.02c-.42 1-1.34 3.3-1.56 4.06a5.31 5.31 0 00-.34 1.44c0 .58.4 1.22.4 1.7a.53.53 0 01-.58.6c-.36 0-.68-.32-.94-.74a9.08 9.08 0 01-1.2-4.48 17.92 17.92 0 011-5.28 12.25 12.25 0 00.5-2.32 3.23 3.23 0 00-1.12-2.1l.32-.26a4.72 4.72 0 011 .6 3.38 3.38 0 011.3 2.1c0 .46-.28.82-.76 2a11.88 11.88 0 00-1.28 4.9 3.08 3.08 0 00.32 1.72c.12.24.26.28.44 0 .44-.7 1.56-3.2 2-4.22zm2 1.72a7.73 7.73 0 00.58 1.74c.68 1.18 1.74 1.88 4.2 1.88a19.3 19.3 0 003.41-.36c.54 0 1.05.18 1.05.64 0 .8-1.86 1-4 1-3.12 0-4.82-1-5.42-3.08a6.39 6.39 0 01-.26-1.78zm.22-6.26a10.25 10.25 0 014.78-1.24 6.65 6.65 0 012.78.42c.42.18.61.46.61.7s-.12.44-.55.5a5.42 5.42 0 00-1.64.38 32.58 32.58 0 00-3.28 1.82l-.34-.36c.9-.64 2.32-1.68 2.74-2 .24-.22.22-.36-1.1-.36a12.53 12.53 0 00-3.8.66z" fill="#fff" data-name="レイヤー 1"/></g></svg>