<svg xmlns="http://www.w3.org/2000/svg" viewBox="0 0 133.41 18.32"><g data-name="レイヤー 2"><path d="M9.3 6.86s1.06.8 1.72 1.44c-.06.22-.26.32-.54.32H.14L0 8h6.06A39.65 39.65 0 007.4 3.62l2 .62a.73.73 0 01-.76.36A26.66 26.66 0 016.56 8h1.8zm-9-4.2h4.18V0l2 .22c0 .28-.24.48-.74.54v1.9h2.42l.92-1.14s1 .82 1.68 1.42c-.06.22-.26.32-.54.32H.42zm8 7.34l1.62 1.2a1.56 1.56 0 01-.86.42v5.92A1.7 1.7 0 018 18h-.18v-1.66H3v1.48c0 .12-.54.42-1.08.42h-.2v-8.08l1.38.62h4.5zM2.24 3.74c3.22 2.2 1.9 4.7.8 3.62A8 8 0 002 3.86zm5.58 12v-4.4H3v4.4zm10.72-13.5c-.16.18-.42.22-.9.24-.69 1.34-2 3.84-2.92 5.14C17.14 9.3 18 11.1 18 12.76c0 2-.75 2.94-2.94 3a1.77 1.77 0 00-.24-1 2.88 2.88 0 00-1.26-.32v-.32h1.94a1.18 1.18 0 00.54-.1c.42-.24.63-.68.63-1.52a6.45 6.45 0 00-2.49-4.82c.56-1.32 1.42-3.86 2-5.56h-3.26v15.72c0 .12-.42.46-1.08.46h-.2V.76l1.54.78h3L17 .7zm4.75 16.02l-.28-.2c2.16-3.68 2.42-8.14 2.42-12.22V.46L27 1.1h11l.74-.76 1.64 1.22a1.73 1.73 0 01-.84.4v3.3a1.8 1.8 0 01-1.14.42h-.2V5H26.73v1.88h11.53l1-1.06s1 .74 1.72 1.32c-.06.22-.24.32-.52.32h-7.55c-.62.88-1.36 1.84-2 2.6 1.81 0 4-.08 6.24-.16A11.69 11.69 0 0035 8.56l.18-.24c5.68 1 5.42 4.16 3.86 3.52a6.9 6.9 0 00-1.34-1.5c-2.2.3-5.21.6-9.35 1a.66.66 0 01-.48.42L27 10.1h3.1a23.9 23.9 0 001.2-2.62h-4.59c-.1 3.46-.64 7.66-3.42 10.78zm16.47-2.5s1.08.84 1.74 1.46c0 .22-.24.3-.52.3H25.67l-.18-.52h7.16v-2.8h-5.36l-.16-.58h5.52v-2.24l2 .2c-.05.26-.22.44-.66.52v1.52h3.62l.88-1.12a21.73 21.73 0 011.68 1.4c-.06.22-.26.3-.52.3h-5.71V17h4.88zM26.73 1.7v2.72H38.2V1.7zm26.99-.54a4.68 4.68 0 013.1 1.32 2.26 2.26 0 01.66 1.42c0 .46-.22.66-.56.66s-.68-.18-1.22-.22a21.5 21.5 0 00-3.74 0c-.6.08-.84.16-.84.56a8.56 8.56 0 001.38 2.32c2.8-1.4 5.4-2.5 7.66-2.5 2.42 0 4 1.4 4 3.36 0 2.16-1.92 3.28-4.16 3.28a5.82 5.82 0 01-4.34-2.2l.34-.32a6.07 6.07 0 003.92 1.38c1.72 0 2.92-.9 2.92-2.4a2.53 2.53 0 00-2.76-2.42C58 5.4 55.52 6.6 53 8a46.22 46.22 0 013.06 6.18 9.18 9.18 0 01.68 2.64c0 .56-.26 1-.7 1s-.54-.2-.7-.74-.34-1.54-.74-2.84a27.1 27.1 0 00-2.48-5.64c-.58.34-1.16.7-1.72 1-1 .6-1.24 1-1.8 1a2.71 2.71 0 01-1.76-1.14 2.16 2.16 0 01-.28-1.12l.44-.12c.3.44.72 1 1.18 1a4.62 4.62 0 001.72-.62l1.68-.86a11.73 11.73 0 00-1.08-1.5c-.36-.44-.78-.76-.58-1.54.22-1 1-.9 1.66-.94 1.66-.14 3.32-.22 3.9-.28.28 0 .36-.16.22-.48a3.35 3.35 0 00-2.16-1.42zM86.84 7.1c-.16.18-.32.26-.76.12a36.16 36.16 0 01-5 3.26A13.52 13.52 0 0088 16.76l-.06.2a1.6 1.6 0 00-1.42 1c-4.46-2.42-6.88-6.66-7.7-13.14a18.17 18.17 0 01-3.4 3.64v7c1.62-.48 3.48-1 5.36-1.62l.1.32c-2 .92-4.82 2.14-8.58 3.66a.69.69 0 01-.4.5l-.9-1.64c.68-.16 1.78-.46 3.12-.84V9.38a23.75 23.75 0 01-4.74 2.52l-.18-.3a22.48 22.48 0 008-7.06h-7.66L69.38 4h8.4V0l2 .2c0 .26-.2.44-.62.52V4h5.64l1-1.2s1.1.84 1.78 1.48c0 .2-.24.3-.52.3H79.2a19.5 19.5 0 001.72 5.56 29.12 29.12 0 004.16-4.18zm6.32 2.14a11.29 11.29 0 003.42-4.32h-3.1l-.14-.6h3.88V.16l1.84.22c0 .24-.2.42-.66.48v3.46h1.84l.8-1s.88.7 1.44 1.24c0 .22-.22.32-.5.32H98.4v.66c4.56 1.06 3.84 3.76 2.48 3A8.31 8.31 0 0098.4 5.9V9c0 .16-.5.44-.94.44h-.24v-3a12 12 0 01-3.82 3.12zm5.08 3.2a8.1 8.1 0 01-.18 1c4.56 1 3.92 3.9 2.46 3.12a8.46 8.46 0 00-2.58-2.72c-.5 1.66-1.68 3.18-4.52 4.34l-.24-.32A6.47 6.47 0 0097 12.44h-3.52l-.14-.6H97c0-.68.06-1.38.06-2.08L99 10c0 .24-.2.44-.62.5 0 .46 0 .92-.08 1.38h1.7l.84-1.1s1 .78 1.6 1.38c-.06.22-.24.32-.52.32zM94.22.8c3.1 1.4 1.9 3.62.86 2.68A4.78 4.78 0 0094 .94zm7.82.64a.66.66 0 01-.72.36 19 19 0 01-1.76 2l-.32-.18c.3-.72.7-1.8 1-2.84zM100.46 18a11.86 11.86 0 004.44-3.48l1.66.94c-.1.2-.34.22-.68.12a13 13 0 01-5.24 2.74zm2-16l-.16-.6h6.7l.9-1.14a22.5 22.5 0 011.74 1.46c0 .22-.21.32-.5.32h-3.86a18.68 18.68 0 01-1.12 2.2H109l.7-.74 1.47 1.14a1.31 1.31 0 01-.75.34v9.1a1.57 1.57 0 01-1.06.44h-.18v-.86h-5v.62c0 .16-.5.46-1 .46h-.2V3.6l1.34.64h1.32c.08-.58.14-1.44.18-2.2zm1.72 2.78v2.36h5V4.82zm0 5.26h5V7.7h-5zm5 3v-2.4h-5v2.4zm-1.86 1.52c5.23 1.24 4.67 4.3 3.17 3.52a11.24 11.24 0 00-3.37-3.32zm14.85-5.1c-.42 1-1.34 3.3-1.56 4.06a5.31 5.31 0 00-.34 1.44c0 .58.4 1.22.4 1.7a.53.53 0 01-.58.6c-.36 0-.68-.32-.94-.74A9.08 9.08 0 01118 12a17.92 17.92 0 011-5.28 12.25 12.25 0 00.5-2.32 3.23 3.23 0 00-1.12-2.1l.32-.26a4.72 4.72 0 011 .6 3.38 3.38 0 011.3 2.1c0 .46-.28.82-.76 2a11.88 11.88 0 00-1.28 4.9 3.08 3.08 0 00.32 1.72c.12.24.26.28.44 0 .44-.7 1.56-3.2 2-4.22zm2 1.72a7.73 7.73 0 00.58 1.74c.68 1.18 1.74 1.88 4.2 1.88a19.15 19.15 0 003.41-.36c.53 0 1 .18 1 .64 0 .8-1.86 1-4 1-3.12 0-4.82-1-5.42-3.08a6.39 6.39 0 01-.26-1.78zm.22-6.26a10.25 10.25 0 014.78-1.24 6.73 6.73 0 012.83.42c.42.18.59.46.59.7s-.11.44-.54.5a5.43 5.43 0 00-1.63.38 31.62 31.62 0 00-3.29 1.82l-.34-.36c.9-.64 2.32-1.68 2.74-2 .24-.22.22-.36-1.1-.36a12.53 12.53 0 00-3.8.66z" fill="#fff" data-name="レイヤー 1"/></g></svg>