<svg xmlns="http://www.w3.org/2000/svg" viewBox="0 0 175.54 21.63"><g data-name="レイヤー 2"><path d="M0 11.29l.42-.37a3 3 0 001.66.94c.36 0 .7-.24 1.22-.71 1.2-1.09 3.41-3.61 4.29-4.49a2.44 2.44 0 011.69-1 2.73 2.73 0 012.06 1 80.62 80.62 0 0010.48 9.23 2.22 2.22 0 011 1.77.73.73 0 01-.78.8c-.73 0-2-1.06-3.75-2.73s-5.85-6-7.83-8c-.49-.46-.8-.65-1.14-.65s-.57.13-1 .6c-.8.94-2.83 3.57-3.79 4.76-.65.81-1 1.35-1.75 1.35A3.58 3.58 0 01.6 12.58a3.35 3.35 0 01-.6-1.29zm17.47-4.11a11.41 11.41 0 00-2.6-2.53l.34-.41A10.67 10.67 0 0118.38 6a2.44 2.44 0 011.07 1.82.6.6 0 01-.65.59c-.42.01-.8-.51-1.33-1.23zm2.58-2.24a11.56 11.56 0 00-2.81-2.42l.34-.44a10 10 0 013.2 1.59A2.68 2.68 0 0122 5.56a.57.57 0 01-.6.63c-.47 0-.75-.5-1.35-1.25zm18.01 1.3v-.55a4.57 4.57 0 011.51-.18c.91.08 2.76 1.07 2.76 1.85 0 .54-.5.73-.62 1.38a17.35 17.35 0 01-8 11.1l-.45-.55C37.39 16.07 40 10.66 40 7.51c0-.8-1.31-1.11-1.94-1.27zm5.1-3.33a4.83 4.83 0 011.72-.31c1 0 2.73.94 2.73 1.56s-.52.57-.6 1.38c-.13 1.19-.34 8.27-.34 10.22 0 .36.16.41.42.33a30.26 30.26 0 009.8-7l.55.45a30.59 30.59 0 01-9.6 8.24c-.6.36-.93 1.09-1.46 1.09s-1.61-1.25-1.61-1.74.29-.63.37-1.66c.13-1.49.28-8.48.13-11 0-.65-.73-.88-2.06-1zM75.28.86a8.11 8.11 0 011.87-.31c1 0 2.73 1 2.73 1.61s-.59.57-.78 1.56c-.13.67-.33 1.84-.6 2.91l4.22-.52c.7-.08.91-.65 1.32-.65s2.08 1.22 2.08 1.77-.65.49-.75 1.22a30.57 30.57 0 01-2.81 10 3.37 3.37 0 01-2.73 2c-.44 0-.65-.24-.8-.78-.26-1-1.1-1.41-2.58-2.5l.31-.49c1.1.49 2.42 1.09 2.94 1.27.7.21 1 .18 1.33-.26 1.66-2 2.7-8.4 2.7-10.06a.27.27 0 00-.31-.29 44.17 44.17 0 00-5.2.55 20.62 20.62 0 01-10.69 13.74l-.41-.52a22.58 22.58 0 009.33-13c-1.66.28-4 .7-4.68.88s-1 .55-1.48.55c-.68 0-1.72-1.28-1.92-1.87a3.8 3.8 0 01-.16-1.64l.52-.13c.36.7.75 1.58 1.45 1.58.86 0 3.72-.31 6.58-.67a30.13 30.13 0 00.65-4.24c0-.49-.08-.68-.46-.83a10 10 0 00-1.67-.37zm8.61.86a9.42 9.42 0 013 1.71 2.13 2.13 0 01.9 1.57.61.61 0 01-.63.68c-.44 0-.72-.6-1.24-1.22a10.42 10.42 0 00-2.37-2.29zM86.18 0a10.54 10.54 0 013 1.51 2.16 2.16 0 011 1.61c0 .44-.23.68-.62.68s-.68-.63-1.25-1.25A11.24 11.24 0 0085.84.47zm16.71 3.25a3 3 0 002 1.22 60 60 0 007.77-.93c1.45-.29 2-.78 2.39-.78 1.33 0 2.29.52 2.32 1.09 0 .34-.19.65-.91.73-1.56.15-4.79.54-7 .83.67.31 1.11.67 1.11.93 0 .45-.2.63-.28 1.17s-.13 1.43-.18 2.4c2.34-.29 4.6-.58 6-.73 1.51-.21 1.92-.39 2.44-.39.86 0 2.42.62 2.42 1.32 0 .42-.23.73-.8.73-.86 0-2.29-.23-3.83-.23s-3.77.23-6.26.49c-.08 1.85-.13 3.82-.11 4.94 0 1.49.39 1.95 2.76 1.95a19.53 19.53 0 004.73-.46c1.22 0 1.8.59 1.8 1s-.34.7-1.12.86a31.17 31.17 0 01-5 .34c-3.64 0-4.6-.83-4.63-3.17 0-1 .06-3.23.08-5.25a46.31 46.31 0 00-4.78.9c-1.07.29-1.35.65-2 .65a3 3 0 01-2-1.74 3.76 3.76 0 01-.19-1.19l.4-.16c.54.6 1 1.12 1.71 1.12 1.07 0 4.6-.52 6.92-.78v-2.6a2.87 2.87 0 00-.65-1.95l-.73.11c-1 .13-1.89.41-2.52.41s-1.51-.8-1.9-1.48a5.67 5.67 0 01-.41-1.17zM134 8.92l.31-.29a8.49 8.49 0 011.83 1.37 3.81 3.81 0 011.64 2.65c0 .55-.26.94-.8.94-.84 0-.86-1-1.59-2.42A11.62 11.62 0 00134 8.92zm2.06 12.71l-.32-.46c6.89-3.59 10.82-10.3 10.82-12.28 0-.41-.36-.73-1.38-1.14l.13-.39a4.52 4.52 0 011.22 0c1 .15 2.21 1.3 2.21 2 0 .41-.44.62-.72 1.22a21.39 21.39 0 01-11.95 11.05zm2.52-14.06l.31-.29a8.88 8.88 0 011.92 1.38 3.34 3.34 0 011.38 2.49.81.81 0 01-.86.89c-.78 0-.78-1.07-1.4-2.34a11 11 0 00-1.34-2.13zM163.92.94a7.81 7.81 0 011.66-.32c1.1 0 2.86 1 2.86 1.59s-.46.62-.57 1.48c-.13 1.25-.18 3.15-.21 4.58a22.26 22.26 0 016.43 2.39 2.55 2.55 0 011.45 1.95.83.83 0 01-.83.89c-.86 0-1.14-.89-2.7-2.08a20 20 0 00-4.35-2.24v8.81c0 1.15.08 1.93.08 2.37 0 .68-.26 1-.84 1-.85 0-1.3-1.43-1.3-2.32 0-.57.24-1 .34-2 .21-1.92.21-6.18.21-8.16s0-4.91-.16-6.21c-.07-.84-.65-1-2-1.15z" fill="#fff" data-name="レイヤー 1"/></g></svg>