<svg xmlns="http://www.w3.org/2000/svg" viewBox="0 0 232.15 20.91"><g data-name="レイヤー 2"><path d="M2.39 3.67c1.48 0 9.75-.89 11-1.15.68-.15 1-.57 1.46-.57C15.6 2 17.42 3.3 17.42 4c0 .57-.83 1-1.2 1.87-2.73 6.48-7.38 11.34-15 14.28l-.39-.63C8.22 15.81 13 10.25 14.61 4.16c.11-.39 0-.44-.31-.44-1.14 0-8.53 1-10 1.38-.7.15-1.27.67-1.77.67-.78 0-2-1.25-2.26-1.9A5.14 5.14 0 010 2.39l.49-.18c.42.62.99 1.46 1.9 1.46zm27.96 2.57l.5-.23c.54.8 1 1.4 1.74 1.4 1.53 0 9.1-1 10.92-1.25.73-.1 1-.49 1.4-.49.78 0 2.37 1.32 2.37 2s-1 .78-1.33 1.43a23.4 23.4 0 01-13.21 11.81l-.36-.6a25 25 0 0012-12.56c.1-.31 0-.47-.32-.42-2.1.21-7.8 1-9.56 1.41-.81.18-1.17.65-1.75.65S31 8.32 30.72 7.7a6.13 6.13 0 01-.37-1.46zm13-4.11a45.7 45.7 0 01-7.49 1c-1.33 0-2-.73-2.91-2.11l.39-.33a4.09 4.09 0 002.49 1 19.17 19.17 0 004.24-.6C41.64.78 42 .36 42.52.36c1.12 0 2 .37 2 1 0 .36-.31.64-1.14.77zm34.12 2.26l.6.39c-3.12 5.54-7.95 9.7-13.65 13.34-.52.31-.8 1-1.38 1a5.08 5.08 0 01-3.09-2 5.75 5.75 0 01-.55-1.69l.42-.26c.78.86 1.61 1.69 2.44 1.69 2.01-.04 11.52-6.93 15.21-12.47zM60 2c3 .83 6.55 2.6 6.55 4.6a.89.89 0 01-.91 1c-.41 0-.75-.28-1.43-1.09a17.12 17.12 0 00-4.52-4.01zM94.61.52a7.69 7.69 0 012-.52c1.12 0 2.55.62 2.58 1.17s-.37.68-.29 1.48.24 1.48.44 2.58c1.12-.29 2.16-.58 3.1-.86 1.09-.37 1.51-.65 1.74-.68.76 0 2 .18 2 .81 0 .44-.39.67-1 .8-1.43.29-3.9.81-5.49 1.17.32 1.49.63 3 .91 4.35 2.06-.47 4.81-1.2 5.7-1.49.73-.2.86-.33 1.09-.36 1.17-.08 2.24.34 2.24.91 0 .34-.16.68-.84.73a53.9 53.9 0 00-7.9 1.43c.55 2.44 1 4.5 1.27 5.51a10.94 10.94 0 01.5 2.45.71.71 0 01-.7.8c-.55 0-1.15-.8-1.3-1.48-.13-.44-.32-2.06-.58-3.51-.15-.91-.36-2.13-.62-3.43-1.85.46-4.26 1.14-5.64 1.63-1 .34-1.22.73-1.8.73a3.5 3.5 0 01-2-1.14 3.51 3.51 0 01-.49-1.25l.44-.29c.67.6 1.06.86 1.45.86a78.54 78.54 0 007.86-1.74c-.34-1.69-.68-3.35-.91-4.37-1.41.31-2.79.68-3.8 1-.73.23-.88.52-1.35.52a3.6 3.6 0 01-2-1.2A2.52 2.52 0 0190.65 6l.45-.21c.41.42.78.89 1.37.89A53.66 53.66 0 0098 5.56a24.25 24.25 0 00-1-3.84c-.29-.55-1.33-.5-2.24-.65zm43.89 3.87l.6.39c-3.12 5.54-7.95 9.7-13.65 13.34-.52.31-.8 1-1.38 1a5.08 5.08 0 01-3.09-2 5.75 5.75 0 01-.55-1.69l.42-.26c.78.86 1.61 1.69 2.44 1.69 2.01-.04 11.52-6.93 15.21-12.47zM121 2c3 .83 6.55 2.6 6.55 4.6a.89.89 0 01-.91 1c-.41 0-.75-.28-1.43-1.09a17.12 17.12 0 00-4.52-3.92zm42.52 9.78a26.49 26.49 0 003.9-5c.19-.31.08-.49-.28-.44a80.06 80.06 0 00-7.75 2.29c-.1 2.29-.18 4.73-.16 6.26.06 2.14.32 2.34 3.49 2.34a26 26 0 005.41-.57c.7 0 1.74.31 1.74 1 0 .47-.49.7-1.2.81a32.51 32.51 0 01-5.17.44c-4.08 0-5.64-.23-5.7-3.67-.05-1.79 0-4.37.08-6.08-1.25.41-2.94 1-4 1.48-.93.42-1 .78-1.69.78a4.05 4.05 0 01-2.36-1.79 2.81 2.81 0 01-.16-1.38l.42-.16c.52.78.93 1.3 1.58 1.3a43.32 43.32 0 006.27-1.61C158 5.67 158 3.07 158 2c-.05-.65-.83-.81-2.11-1V.51a6.08 6.08 0 011.92-.34c.94 0 2.63 1 2.63 1.56s-.52.91-.63 1.69-.2 2.21-.31 3.9c2.24-.65 5.54-1.56 7.07-2 .76-.21.94-.68 1.33-.68.75 0 2.52 1.4 2.52 2s-.75.62-1.35 1.22a34.54 34.54 0 01-5 4.29zm37.83-7.39l.6.39c-3.12 5.54-7.95 9.7-13.65 13.34-.52.31-.8 1-1.38 1a5.08 5.08 0 01-3.09-2 5.75 5.75 0 01-.55-1.69l.42-.26c.78.86 1.61 1.69 2.44 1.69 2.01-.04 11.52-6.93 15.21-12.47zM183.88 2c3 .83 6.55 2.6 6.55 4.6a.89.89 0 01-.91 1c-.41 0-.75-.28-1.43-1.09a17.12 17.12 0 00-4.52-3.92zm31.78.24c.44.62.94 1.56 1.8 1.56a59.66 59.66 0 008-1.28c.54-.15.86-.65 1.22-.65.78 0 2.47 1.35 2.47 1.93s-.8.72-1.15 1.2a43.64 43.64 0 01-4.3 6c4.18 1.89 8.45 4.78 8.45 6.94a.87.87 0 01-.89 1c-.7 0-1.06-.83-2.44-2.39a22.91 22.91 0 00-5.75-4.86 31.68 31.68 0 01-11 7.67l-.39-.65c6.09-3.27 12.22-9.38 14.64-14.71.13-.33 0-.39-.31-.36-1.85.29-5.46 1.17-6.89 1.53-.81.21-.91.68-1.53.68s-1.8-1.12-2.11-1.79a4.38 4.38 0 01-.36-1.59z" fill="#fff" data-name="レイヤー 1"/></g></svg>