<svg xmlns="http://www.w3.org/2000/svg" viewBox="0 0 228.91 22.62"><g data-name="レイヤー 2"><path d="M13.18 5.59c.91-.08 1-.65 1.51-.65.65 0 2.44 1.46 2.44 2.08s-.8.78-1 1.48c-.23 1.15-.8 4.66-1.32 7.49.93.08 1.58.44 1.58.94a.67.67 0 01-.75.75c-.57 0-1.95-.16-3.15-.16-2 0-5.53.19-8.66.37v1c0 .65-.23 1-.78 1s-1.07-.7-1.07-1.77c0-.52.08-2.13.08-3.25a42.54 42.54 0 00-.73-7.2A4 4 0 000 5.49L.36 5a6.36 6.36 0 012.81 1.4c2.58-.11 9-.68 10.01-.81zm0 10.4a85.85 85.85 0 001.12-8.81c0-.21-.08-.29-.31-.29-1.66 0-6 .34-7.46.49-.86.08-1.59.34-2.06.34a2.62 2.62 0 01-1-.34c.08 1.59.31 6.32.42 9.21 2.74-.18 6.9-.5 9.32-.59zm16.87-5.72c.57.88 1 1.69 2.08 1.69 2.31 0 11.41-.6 12.61-.65 1.74-.13 2.47-.29 3.15-.29 1 0 2.15.45 2.15 1.15 0 .47-.26.75-1.14.75s-1.82-.05-3.41-.05-8.94.39-10.89.62c-1.48.16-1.77.55-2.52.55s-1.95-1.27-2.32-2.16a4.45 4.45 0 01-.23-1.45zm31.46-5.88C62 5 62.45 6 63.31 6a61.28 61.28 0 008-1.27c.55-.16.86-.65 1.22-.65C73.29 4 75 5.38 75 6s-.78.73-1.12 1.25a42.19 42.19 0 01-4.31 5.9c4.18 1.9 8.45 4.79 8.45 7a.87.87 0 01-.89 1c-.7 0-1.06-.83-2.44-2.39a23.16 23.16 0 00-5.75-4.87 31.42 31.42 0 01-11 7.67l-.39-.65c6.11-3.17 12.25-9.28 14.66-14.61.13-.34 0-.39-.31-.36C70 6.08 66.4 7 65 7.33c-.8.21-.91.68-1.53.68s-1.8-1.12-2.11-1.8A4.48 4.48 0 0161 4.63zM74 1.64a10.11 10.11 0 013 1.71 2.2 2.2 0 01.88 1.59.61.61 0 01-.65.65c-.41 0-.7-.57-1.19-1.25a9.56 9.56 0 00-2.37-2.23zM76.26 0a10.44 10.44 0 013 1.51 2.08 2.08 0 01.94 1.61.6.6 0 01-.63.68c-.41 0-.7-.6-1.25-1.25A11.87 11.87 0 0075.94.44zm18.03 2.47a6.44 6.44 0 011.93-.34c.94 0 2.62 1 2.62 1.56s-.51.91-.62 1.69-.21 2.21-.31 3.9c2.24-.65 5.54-1.56 7.07-2 .76-.21.94-.68 1.33-.68.75 0 2.52 1.41 2.52 2s-.75.63-1.35 1.22a33.57 33.57 0 01-5 4.29l-.48-.41a26.88 26.88 0 003.9-5c.18-.32.08-.5-.29-.45-1.43.24-5.4 1.51-7.74 2.29-.11 2.29-.19 4.73-.16 6.27 0 2.13.31 2.34 3.48 2.34a25.79 25.79 0 005.41-.57c.7 0 1.74.31 1.74 1 0 .47-.49.71-1.19.81a32.53 32.53 0 01-5.18.44c-4.08 0-5.64-.23-5.69-3.66 0-1.8 0-4.37.08-6.09-1.25.42-2.94 1-4 1.48-.94.42-1 .78-1.69.78a4.1 4.1 0 01-2.37-1.79 2.9 2.9 0 01-.15-1.38l.41-.15c.52.78.94 1.3 1.59 1.3a43.55 43.55 0 006.27-1.62c.05-2.13.12-4.73.05-5.77-.05-.65-.84-.8-2.11-1zm11-.13a11.4 11.4 0 013 1.72 2.14 2.14 0 01.88 1.56c0 .44-.2.7-.62.7s-.68-.6-1.2-1.25A12.34 12.34 0 00105 2.81zM107.58.7a11.07 11.07 0 013 1.51 2.16 2.16 0 011 1.61c0 .44-.23.68-.62.68s-.68-.63-1.25-1.25a12.84 12.84 0 00-2.39-2.11zm14.77 7.1l.49-.23c.55.8 1 1.4 1.74 1.4 1.54 0 9.1-1 10.92-1.25.73-.1 1-.49 1.41-.49.78 0 2.36 1.32 2.36 2s-1 .78-1.32 1.43a23.39 23.39 0 01-13.21 11.83l-.37-.59a24.88 24.88 0 0012-12.56c.1-.31 0-.47-.31-.42-2.11.21-7.8 1-9.57 1.41-.81.18-1.17.65-1.74.65s-1.77-1.07-2-1.69a6.12 6.12 0 01-.4-1.49zm13-4.11a45.41 45.41 0 01-7.49 1c-1.32 0-2-.73-2.91-2.11l.39-.33a4.11 4.11 0 002.5 1 19.34 19.34 0 004.24-.6c1.53-.34 1.87-.76 2.41-.76 1.12 0 2 .37 2 1 .03.39-.29.62-1.12.8zM150 15.18l.52-.18a2.64 2.64 0 002 1.35c1.15 0 9.1-1 14.3-1.19a15.65 15.65 0 001.77-.31c1.07 0 3.12 1 3.12 1.89 0 .45-.28.68-.78.68a34.64 34.64 0 00-5.77-.7 52.07 52.07 0 00-10.53 1.12 11.38 11.38 0 01-2 .59c-.78 0-2-1.24-2.29-1.82a3.8 3.8 0 01-.34-1.43zm16.5-7.77c-4.26.49-9.1 1.09-10 1.09a2.89 2.89 0 01-1.95-1.25 6.24 6.24 0 01-.65-1.48l.46-.26c1 1 1.64 1.43 2.42 1.43a42.73 42.73 0 005.93-.73c1.51-.31 1.66-.67 2.29-.67 1 0 2.39.39 2.39 1.06-.03.4-.32.73-.89.81zm21.98-5.9a4.89 4.89 0 011.64-.37c1.09 0 2.57.91 2.57 1.43s-.55.65-.6 1.43c-.05.55-.1 1.46-.13 2.19 1.69-.11 3.62-.21 4.68-.34.47 0 .91-.55 1.33-.55a3.2 3.2 0 012.18 2c0 .46-.83.78-1 1.27a24.13 24.13 0 01-12.54 14l-.44-.55a24.16 24.16 0 0011.15-14.58c.08-.37 0-.42-.34-.42-6.89.21-9.73.88-10.66.88a1.75 1.75 0 01-1-.33c.1 1.14.7 6 .7 6.44s-.28.84-.7.86c-.7.05-1.25-1.25-1.27-2 0-.31.1-.78.1-1.22a21.87 21.87 0 00-.55-3.75 5.44 5.44 0 00-1.6-2.41l.31-.45a13 13 0 012.08 1 2.5 2.5 0 01.76.65c1.45-.06 3.58-.24 5.35-.37V3.23c0-.62-.05-.73-.47-.89A5.32 5.32 0 00188.5 2zm34.11 9.77c3 1.8 6.32 5.44 6.32 8.22 0 .73-.39 1.22-1 1.22-.83 0-.78-1.17-1.77-3.46-3.82.84-10.3 1.85-12.64 2.37-.54.1-1.06.75-1.5.75-.71 0-1.75-1.14-2-1.89a3.4 3.4 0 01-.08-1l.34-.18a2.39 2.39 0 001.4.62c.24 0 .71 0 1.33-.08 1.92-3.38 5.64-11.41 5.64-12.66 0-.57-.49-1-1.35-1.51l.18-.47a5.5 5.5 0 011.48.26c1.07.34 2.22 1.41 2.22 2.06 0 .44-.6.62-.89 1.17-1.2 2.47-4 7.93-5.82 11 3.25-.34 8.34-1 11.2-1.48a17.39 17.39 0 00-3.53-4.5z" fill="#fff" data-name="レイヤー 1"/></g></svg>