<?xml version="1.0" encoding="utf-8"?>
<!-- Generator: Adobe Illustrator 25.0.1, SVG Export Plug-In . SVG Version: 6.00 Build 0)  -->
<svg version="1.1" id="レイヤー_1" xmlns="http://www.w3.org/2000/svg" xmlns:xlink="http://www.w3.org/1999/xlink" x="0px"
	 y="0px" viewBox="0 0 191.6 50" style="enable-background:new 0 0 191.6 50;" xml:space="preserve">
<style type="text/css">
	.st0{fill:#FFFFFF;}
</style>
<rect x="71.5" y="24.8" transform="matrix(0.7071 -0.7071 0.7071 0.7071 11.4088 77.4471)" class="st0" width="55.4" height="0.3"/>
<g>
	<path class="st0" d="M112.4,29.5v-0.3h4.4v0.3h-1.3c-0.3,0-0.5,0.1-0.5,0.4v7.8c0,0.3,0.2,0.4,0.5,0.4h1.3v0.3h-4.4v-0.3h1.3
		c0.3,0,0.5-0.1,0.5-0.4V30c0-0.3-0.2-0.4-0.5-0.4H112.4z"/>
	<path class="st0" d="M123.6,36.5h0.1V30c0-0.3-0.2-0.4-0.5-0.4h-0.4v-0.3h2.2v0.3h-0.4c-0.3,0-0.5,0.1-0.5,0.4v8.6h-0.3l-4.2-8.3
		h-0.1v7.5c0,0.3,0.2,0.4,0.5,0.4h0.4v0.3h-2.2v-0.3h0.4c0.3,0,0.5-0.1,0.5-0.4V30c0-0.3-0.2-0.4-0.5-0.4h-0.3v-0.3h1.6L123.6,36.5z
		"/>
	<path class="st0" d="M130,35.2c-0.5-0.5-1.1-0.9-1.9-1.3s-1.3-0.6-1.7-0.9c-0.4-0.3-0.6-0.8-0.6-1.5c0-0.6,0.2-1.2,0.7-1.6
		c0.4-0.4,1.1-0.7,1.9-0.7c0.4,0,0.8,0.1,1.1,0.2c0.3,0.1,0.5,0.2,0.7,0.2c0.2,0,0.4-0.1,0.5-0.4l0.2,2.2l-0.3,0.2
		c-0.3-0.8-0.6-1.3-0.9-1.5c-0.4-0.3-0.8-0.5-1.4-0.5c-0.6,0-1,0.1-1.3,0.4c-0.4,0.3-0.5,0.8-0.5,1.3c0,0.5,0.2,0.9,0.5,1.1
		c0.2,0.1,0.7,0.3,1.5,0.7c0.9,0.4,1.6,0.9,2.1,1.4c0.4,0.4,0.6,1,0.6,1.6c0,0.7-0.2,1.2-0.7,1.7c-0.5,0.5-1.1,0.7-2,0.7
		c-0.4,0-0.8-0.1-1.1-0.2c-0.3-0.1-0.5-0.2-0.6-0.2c-0.2,0-0.5,0.1-0.7,0.4l-0.4-2.7l0.3-0.2c0.3,1,0.6,1.6,0.9,1.9
		c0.4,0.4,1,0.6,1.8,0.6c0.6,0,1-0.1,1.3-0.4c0.4-0.3,0.5-0.9,0.5-1.6C130.5,35.8,130.3,35.5,130,35.2z"/>
	<path class="st0" d="M134.3,37.7c0.3,0.3,0.7,0.4,1.3,0.4c0.6,0,1.1-0.1,1.4-0.4c0.4-0.4,0.6-0.9,0.6-1.5V30c0-0.3-0.2-0.4-0.5-0.4
		h-0.3v-0.3h2v0.3h-0.3c-0.3,0-0.5,0.1-0.5,0.4v6.2c0,0.7-0.2,1.2-0.7,1.6c-0.5,0.5-1.1,0.7-1.8,0.7c-0.8,0-1.4-0.2-1.9-0.7
		c-0.4-0.4-0.6-0.9-0.6-1.6V30c0-0.3-0.2-0.4-0.5-0.4h-0.3v-0.3h2.4v0.3h-0.3c-0.3,0-0.5,0.1-0.5,0.4v6.3
		C133.9,37,134,37.5,134.3,37.7z"/>
	<path class="st0" d="M144.7,29.8c0.4,0.4,0.5,0.9,0.5,1.5c0,0.7-0.2,1.2-0.6,1.6c-0.4,0.4-0.9,0.7-1.4,0.8l1.6,4
		c0.1,0.3,0.3,0.4,0.5,0.4h0.3v0.3h-1.5l-1.8-4.7h-1.3v3.9c0,0.3,0.2,0.4,0.5,0.4h0.3v0.3h-2.5v-0.3h0.3c0.3,0,0.5-0.1,0.5-0.4V30
		c0-0.3-0.2-0.4-0.5-0.4h-0.3v-0.3h3.1C143.5,29.2,144.2,29.4,144.7,29.8z M141.2,33.5h1.2c0.6,0,1.1-0.2,1.4-0.5
		c0.3-0.3,0.5-0.8,0.5-1.5s-0.2-1.1-0.5-1.5c-0.4-0.3-0.9-0.5-1.5-0.5h-0.6c-0.3,0-0.5,0.1-0.5,0.4V33.5z"/>
	<path class="st0" d="M150.5,35.2H148l-0.5,2c-0.2,0.7,0,1.1,0.5,1.1h0.2v0.3h-2v-0.3h0.2c0.3,0,0.5-0.2,0.6-0.6l2.1-8.1l0.8-0.3
		l2.1,8.4c0.1,0.4,0.4,0.6,0.7,0.6h0.2v0.3h-2.4v-0.3h0.2c0.4,0,0.5-0.3,0.4-0.8L150.5,35.2z M149.3,30.3L149.3,30.3l-1.2,4.5h2.3
		L149.3,30.3z"/>
	<path class="st0" d="M158.6,36.5h0.1V30c0-0.3-0.2-0.4-0.5-0.4h-0.4v-0.3h2.2v0.3h-0.4c-0.3,0-0.5,0.1-0.5,0.4v8.6h-0.3l-4.2-8.3
		h-0.1v7.5c0,0.3,0.2,0.4,0.5,0.4h0.4v0.3h-2.2v-0.3h0.4c0.3,0,0.5-0.1,0.5-0.4V30c0-0.3-0.2-0.4-0.5-0.4h-0.3v-0.3h1.6L158.6,36.5z
		"/>
	<path class="st0" d="M165.5,37.8c-0.5,0.5-1.1,0.7-1.8,0.7c-0.8,0-1.5-0.3-2-0.8c-0.8-0.8-1.3-2.1-1.3-3.9c0-1.6,0.5-2.9,1.4-3.8
		c0.6-0.6,1.3-0.9,2.1-0.9c0.3,0,0.5,0.1,0.8,0.2c0.2,0.1,0.4,0.1,0.7,0.1c0.3,0,0.5-0.1,0.6-0.3l0.5,2.4l-0.4,0.1
		c-0.3-0.7-0.6-1.3-1-1.7c-0.3-0.3-0.7-0.4-1.2-0.4c-0.5,0-0.9,0.2-1.3,0.5c-0.8,0.8-1.2,2-1.2,3.8c0,1.9,0.4,3.2,1.1,3.9
		c0.3,0.3,0.7,0.4,1.2,0.4c0.6,0,1.1-0.2,1.5-0.6c0.3-0.3,0.6-0.9,0.9-1.8l0.3,0.2C166.3,36.7,166,37.3,165.5,37.8z"/>
	<path class="st0" d="M167.5,29.5v-0.3h5.4l0.6,1.9l-0.3,0.1c-0.6-1.1-1.3-1.6-2-1.6h-1.5c-0.3,0-0.5,0.1-0.5,0.4v3.4h1.6
		c0.7,0,1-0.4,1-1.1v-0.3h0.3v3.2h-0.3v-0.2c0-0.8-0.3-1.3-1-1.3h-1.6v4.1c0,0.3,0.2,0.4,0.5,0.4h1.4c1.1,0,1.8-0.6,2.3-1.9l0.3,0.1
		l-0.6,2.1h-5.6v-0.3h0.3c0.3,0,0.5-0.1,0.5-0.4V30c0-0.3-0.2-0.4-0.5-0.4H167.5z"/>
</g>
<g>
	<path class="st0" d="M7.4,5.2C7.8,5.4,7.7,5.7,7,5.9C6.7,7,6.4,7.9,6.1,8.6C6.7,8.8,6.7,9,6,9.2v8.6L5.7,18C5.3,18.3,5,18.2,4.9,18
		v-7c-0.6,0.8-1.3,1.5-1.9,2c-0.3,0.2-0.4,0.2-0.2-0.1c1.5-1.9,2.5-4.6,3-8.2L7.4,5.2z M15.1,6.2c0.3,0.4,0.2,0.6-0.4,0.8v3.2
		l-0.3,0.2c-0.5,0.2-0.8,0.2-0.9-0.1V9.5h-1.8v2.1h2.5l1.2-1.2l1.3,1.1c0.2,0.2,0.1,0.3-0.1,0.4h-4.9c1.3,1.6,3,2.9,5.1,3.7
		c-0.7,0.3-1.2,0.7-1.5,1.2c-1.5-1-2.7-2.4-3.7-4.4v5.3l-0.3,0.2c-0.5,0.2-0.8,0.2-0.9-0.1v-3.9c-1.2,1.3-2.5,2.3-3.9,3
		c-0.4,0.1-0.4,0-0.1-0.2c1.5-1.2,2.8-2.8,3.8-4.7H6.4v-0.4h4.2V9.5H9.2v1l-0.3,0.2c-0.5,0.2-0.8,0.2-0.9-0.1V5.3l1.3,0.6h4L14,5.1
		L15.1,6.2z M9.2,9.1h4.3V6.3H9.2V9.1z"/>
	<path class="st0" d="M23.5,6c0.4,0.4,0.3,0.7-0.2,0.8c-0.1,0-0.2,0-0.3,0l-2.1,2.6c1.3,1.1,2,2.2,2,3.5c0,0.9-0.2,1.6-0.7,2.1
		c-0.3,0.3-0.6,0.4-0.9,0.4c-0.3,0-0.4-0.1-0.4-0.3l-0.1-0.4c0-0.1-0.1-0.2-0.2-0.2L19.7,14v3.8L19.4,18c-0.5,0.2-0.8,0.2-0.9-0.1
		V4.8l1.2,0.8h1.9l0.6-0.8L23.5,6z M19.7,13.8h0.9c0.4,0,0.7-0.1,0.8-0.3c0.2-0.2,0.2-0.6,0.2-1.2c0-0.8-0.4-1.7-1.2-2.7
		c-0.1-0.2-0.1-0.3,0-0.4l1.3-3.2h-2.1V13.8z M29.1,9c0.2,0.2,0.1,0.3-0.1,0.4h-1.6v1.5h1.6l0.7-0.8l1.1,1.1
		c0.3,0.4,0.2,0.6-0.4,0.8v2.3L30,14.5c-0.5,0.2-0.8,0.2-0.9-0.1v-0.6h-1.9c0.9,1.5,2.4,2.5,4.6,2.9c-0.5,0.3-0.9,0.8-1.2,1.4
		c-1.6-0.7-2.8-2-3.6-3.9c-0.4,2.2-2.3,3.6-5.5,4.1c-0.2,0-0.2-0.1-0.1-0.2c2.8-0.9,4.3-2.4,4.5-4.3h-1.5v0.9l-0.3,0.2
		c-0.5,0.2-0.8,0.2-0.9-0.1v-4.5l1.3,0.6h1.5V9.4h-1.8V9.1H27l0.9-0.9L29.1,9z M27.5,4.8c0.4,0.2,0.3,0.4-0.3,0.6
		c1.3,1.8,2.9,3,4.8,3.5c-0.5,0.3-0.9,0.7-1.2,1.2c-1.6-0.9-3-2.5-3.9-4.6c-1.2,2.3-2.7,3.9-4.5,4.8c-0.2,0-0.2,0-0.1-0.2
		c1.7-1.7,2.9-3.7,3.6-6L27.5,4.8z M24.5,13.4h1.5c0.1-0.7,0.1-1.2,0.1-1.6v-0.5h-1.6V13.4z M27.4,11.8c0,0.4,0,0.9-0.1,1.6h1.9
		v-2.1h-1.8V11.8z"/>
	<path class="st0" d="M41.6,4.8c0.5,0.2,0.9,0.4,1.1,0.6c0.2,0.2,0.1,0.4-0.2,0.5c0,0.9,0,1.9,0,2.8c0.5,0,1.2-0.1,2-0.2
		c0.2-0.2,0.3-0.3,0.4-0.3c0.9,0.4,1.4,0.6,1.5,0.8c0.2,0.3,0.1,0.6-0.3,0.8c-0.2,0-0.4,0-0.5,0c-0.8,0-1.8,0-3,0c0,3.8-1.7,6.4-5,8
		c-0.2,0-0.2-0.1-0.1-0.2c2.6-1.8,3.9-4.4,3.9-7.7c-0.8,0-1.9,0.1-3.3,0.2c0,1.3,0.1,2.4,0.1,3.3c0,0.2-0.1,0.3-0.3,0.3
		c-0.3,0-0.6-0.2-0.9-0.5c-0.1-0.1-0.1-0.3,0-0.5c0-0.6,0.1-1.4,0.1-2.5c-0.4,0-0.9,0.1-1.4,0.2c-0.2,0-0.5,0.1-0.7,0.3
		c-0.2,0.1-0.4,0.1-0.6-0.1c-0.3-0.2-0.6-0.5-0.9-0.8c-0.1-0.2-0.1-0.4-0.1-0.7c0.1-0.2,0.2-0.2,0.3-0.1c0.2,0.2,0.4,0.3,0.6,0.4
		c0.6,0,1.5-0.1,2.7-0.2c0-0.7,0-1.5-0.1-2.2c0-0.3-0.2-0.5-0.6-0.6c-0.2,0-0.2-0.1-0.1-0.2c0.2-0.2,0.4-0.3,0.5-0.4
		c0.1,0,0.3,0,0.6,0.1c0.3,0.2,0.7,0.3,1.1,0.5c0.2,0.2,0.1,0.4-0.2,0.6V9c1.1-0.1,2.2-0.2,3.3-0.2c0-0.7,0-1.7-0.1-3
		c0-0.3-0.3-0.5-0.8-0.6c-0.2,0-0.2-0.1-0.1-0.2c0.3-0.3,0.5-0.4,0.6-0.4C41.1,4.6,41.3,4.7,41.6,4.8z"/>
	<path class="st0" d="M58.9,10.1c0.3-0.3,0.5-0.5,0.7-0.5c0.2,0,0.4,0.1,0.8,0.4c0.3,0.2,0.4,0.3,0.5,0.4c0.3,0.2,0.4,0.4,0.4,0.6
		c0,0.2-0.1,0.3-0.2,0.4s-0.3,0.2-0.5,0.2c-0.1,0-0.3,0-0.6-0.1c-0.6-0.1-1.3-0.1-2.1-0.1c-1.8,0-3,0-3.6,0.1
		c-2.5,0.2-3.8,0.4-4,0.6c-0.2,0.2-0.3,0.2-0.5,0c-0.6-0.5-1-0.9-1.1-1.2c-0.1-0.2-0.1-0.4-0.1-0.8c0-0.4,0.1-0.4,0.2-0.2
		c0.2,0.2,0.3,0.3,0.4,0.4c0.2,0.1,0.4,0.2,0.8,0.2c0.4,0,1,0,2.1-0.1c1-0.1,2.2-0.1,3.6-0.2C56.8,10.1,57.9,10.1,58.9,10.1z"/>
	<path class="st0" d="M66.1,5.8c0.7,0.3,1.3,0.5,1.6,0.8c0.3,0.3,0.2,0.5-0.2,0.6c-0.1,1.1-0.2,2.2-0.2,3.2c1.8-0.4,3.5-1,5-1.8
		c0.3-0.2,0.2-0.4-0.1-0.6c-0.2,0-0.3-0.1-0.2-0.2c0.4-0.2,0.7-0.3,1-0.1c0.8,0.6,1.4,1.1,1.7,1.5c0.1,0.4-0.1,0.5-0.6,0.4
		c-2.5,0.7-4.8,1.2-6.8,1.4v3.5c0,0.4,0.2,0.6,0.7,0.7c0.7,0.1,1.7,0.1,3-0.1c0.9-0.1,1.6-0.2,2.1-0.3c0.1-0.1,0.2-0.2,0.4-0.2
		c0.2-0.1,0.3-0.1,0.5,0.1c0.4,0.2,0.7,0.4,0.9,0.6c0.2,0.4,0.1,0.6-0.5,0.8c-0.5,0.1-0.9,0.1-1.3,0.2c-1.3,0.1-2.3,0.2-3,0.2h-1.5
		c-0.9,0-1.5-0.2-1.9-0.5c-0.3-0.3-0.5-0.8-0.5-1.4c0-1.6,0-4.2-0.1-7.7c-0.1-0.3-0.4-0.4-0.9-0.5c-0.2,0-0.2-0.1-0.1-0.3
		c0.2-0.2,0.3-0.3,0.5-0.4C65.8,5.7,65.9,5.7,66.1,5.8z M74.6,8c-0.2,0-0.5-0.2-0.7-0.6c-0.4-0.6-0.9-1-1.5-1.3
		c-0.1-0.1,0-0.1,0.1-0.1c1.1,0.1,1.9,0.4,2.3,0.8C75,6.9,75,7.2,75,7.4C75,7.8,74.9,8,74.6,8z M76,6.6c-0.3,0-0.5-0.2-0.7-0.5
		c-0.5-0.5-1-0.9-1.6-1.1c-0.1-0.1-0.1-0.1,0-0.2c1.3,0.1,2.1,0.3,2.5,0.7c0.2,0.2,0.2,0.4,0.2,0.6C76.5,6.4,76.3,6.6,76,6.6z"/>
	<path class="st0" d="M87.8,6.2c0.6,0.4,1.1,0.8,1.5,1.1c0.2,0.3,0,0.5-0.5,0.5c-1,1.4-1.9,2.6-2.8,3.6c1.8,0.8,3.2,1.6,4,2.4
		c0.5,0.5,0.7,0.9,0.7,1.3c0,0.5-0.3,0.8-0.8,0.9c-0.3,0-0.5-0.2-0.7-0.6c-1.1-1.6-2.3-2.8-3.5-3.6c-1.8,2-4,3.5-6.8,4.6
		c-0.2,0-0.2-0.1-0.1-0.2c3.6-2.2,6.4-5.1,8.3-8.5c-1.7,0.1-3.4,0.4-5.1,0.9c-0.1,0.3-0.2,0.3-0.5,0.2C80.6,8.4,80.2,8,80,7.7
		c-0.2-0.2-0.2-0.5,0-0.9c0.1-0.1,0.2-0.1,0.2,0c0.1,0.2,0.3,0.4,0.5,0.5c0.2,0.1,0.4,0.1,0.5,0.1c1.8-0.3,3.9-0.6,6.3-0.9L87.8,6.2
		z"/>
</g>
</svg>
