<?xml version="1.0" encoding="utf-8"?>
<!-- Generator: Adobe Illustrator 25.0.1, SVG Export Plug-In . SVG Version: 6.00 Build 0)  -->
<svg version="1.1" id="レイヤー_1" xmlns="http://www.w3.org/2000/svg" xmlns:xlink="http://www.w3.org/1999/xlink" x="0px"
	 y="0px" viewBox="0 0 296 50" style="enable-background:new 0 0 296 50;" xml:space="preserve">
<style type="text/css">
	.st0{fill:#FFFFFF;}
</style>
<rect x="174.4" y="-2.7" transform="matrix(-0.7071 -0.7071 0.7071 -0.7071 280.2899 166.0537)" class="st0" width="0.3" height="55.4"/>
<g>
	<path class="st0" d="M4.9,6.8c0.6,0,1.7-0.1,3-0.2c0.2-0.1,0.3-0.3,0.5-0.5c0.3,0.2,0.6,0.4,0.9,0.6C9.5,6.9,9.6,7,9.6,7.2
		c0,0.1-0.1,0.2-0.3,0.2C9,7.3,8.9,7.4,8.8,7.6c-1.6,3.9-4.3,6.7-8.1,8.3c-0.2,0-0.3-0.1-0.1-0.2c3.8-2.1,6.3-5,7.5-8.6
		c-1.2,0-2.3,0.1-3.3,0.1c-0.8,1.6-2.2,2.9-4.3,4.1c-0.2,0-0.2-0.1-0.1-0.2c2-1.5,3.4-3.1,4-5c0.2-0.4,0.2-0.7,0.1-0.9
		C4.4,5.1,4.2,5,4,4.9C3.8,4.9,3.8,4.8,4,4.7c0.2-0.1,0.6,0,1.1,0.3c0.4,0.2,0.6,0.4,0.6,0.6c0,0.1-0.1,0.2-0.3,0.2
		C5.4,5.8,5.3,5.9,5.3,6C5.2,6.3,5.1,6.5,4.9,6.8z"/>
	<path class="st0" d="M14.7,16.3c-0.2-0.1-0.2-0.2-0.1-0.3c3.5-1.4,5.2-3.5,5.1-6.3c0-1.5,0-2.8,0-4c0-0.3-0.1-0.5-0.2-0.7
		c-0.1-0.2-0.4-0.2-0.7-0.3c-0.1-0.1-0.1-0.1,0.1-0.2c0.6-0.1,1.2,0,1.7,0.2c0.3,0.2,0.5,0.3,0.5,0.4c0,0.2-0.2,0.4-0.5,0.6
		c0,1.3,0,2.6,0,3.9C20.6,12.8,18.7,15,14.7,16.3z M15.4,5.4c-0.2-0.2-0.4-0.2-0.7-0.3c-0.2-0.1-0.2-0.2,0-0.2
		c0.6,0,1.1,0.1,1.5,0.3c0.3,0.1,0.5,0.2,0.5,0.4c0,0.1-0.1,0.2-0.2,0.2c-0.1,0-0.2,0.2-0.2,0.5c0,1.5,0,3,0,4.4
		c0,0.6-0.1,0.9-0.3,0.9c-0.1,0-0.2-0.1-0.3-0.3c-0.2-0.2-0.2-0.4-0.2-0.5c0-0.3,0.1-0.6,0.1-1c0-1.2,0-2.4,0-3.8
		C15.7,5.8,15.6,5.6,15.4,5.4z"/>
	<path class="st0" d="M30.4,7.9c0.3,0.2,0.6,0.3,0.9,0.5c0.3,0.2,0.4,0.3,0.4,0.4c0,0.2-0.1,0.2-0.3,0.3c0,1.1-0.1,2.3-0.1,3.4
		c1.9,0,3.1-0.1,3.5-0.1c0.3,0,0.6-0.2,0.9-0.3c0.3,0.1,0.5,0.2,0.9,0.5c0.3,0.2,0.5,0.4,0.5,0.6c0,0.2-0.1,0.2-0.4,0.1
		c-0.6-0.2-1.3-0.2-1.9-0.2c-2.5-0.2-5,0-7.7,0.5c-0.3,0-0.6,0.1-0.7,0.2c-0.1,0.1-0.2,0.2-0.4,0.2c-0.1,0-0.3-0.1-0.6-0.4
		c-0.3-0.3-0.5-0.5-0.6-0.9c0-0.3,0.1-0.3,0.2-0.1c0.3,0.3,0.6,0.4,1,0.4c0.9,0,2.5-0.1,4.8-0.3c0-1,0-2,0-3.1c0-0.3,0-0.6-0.1-0.8
		c-0.1-0.2-0.3-0.4-0.7-0.6c-1.5,0.2-2.4,0.3-2.5,0.4c-0.2,0.1-0.3,0.2-0.5,0.2c-0.1,0-0.3-0.1-0.6-0.4c-0.3-0.3-0.5-0.6-0.5-0.9
		c0-0.2,0.1-0.2,0.2-0.1c0.2,0.3,0.6,0.5,1.1,0.5h1.1c1.7-0.2,3.5-0.3,5.4-0.4C33.8,7.2,34,7.1,34.2,7c0.3,0.1,0.6,0.3,0.8,0.5
		c0.2,0.2,0.3,0.3,0.3,0.4S35.2,8,35,7.9C33.9,7.8,32.4,7.7,30.4,7.9z"/>
	<path class="st0" d="M44.3,15.7c0,0.3-0.1,0.5-0.2,0.5c-0.1,0-0.3-0.1-0.5-0.3c-0.2-0.3-0.3-0.5-0.2-0.8c0.1-0.4,0.2-0.8,0.2-1
		c0-1.7,0-3.3,0-5c-2.2,1.7-4.3,2.9-6.1,3.6c-0.3,0-0.3-0.1-0.1-0.3c3.9-2.1,6.8-4.4,8.7-6.8c0.2-0.2,0.2-0.4,0.2-0.6
		c0-0.1-0.2-0.2-0.5-0.4c-0.2-0.1-0.2-0.1,0.1-0.2c0.6,0,1.1,0.3,1.4,0.7c0.3,0.3,0.5,0.5,0.5,0.6c0,0.2-0.1,0.2-0.3,0.2
		c-0.2,0-0.4,0.1-0.6,0.2c-0.7,0.8-1.6,1.6-2.6,2.4c0.8,0.3,0.9,0.5,0.2,0.6C44.3,11.4,44.3,13.6,44.3,15.7z"/>
	<path class="st0" d="M52.6,9c-0.5,0-0.8,0.1-1,0.2c-0.1,0.1-0.2,0.2-0.3,0.2S51.1,9.4,51,9.3c-0.6-0.5-0.9-0.9-1-1.3
		c0-0.2,0.1-0.2,0.2-0.1c0.2,0.3,0.5,0.5,1.2,0.6c0.6,0,3.2-0.1,8-0.5c0.5,0,0.9-0.2,1.1-0.3c0.3,0.1,0.6,0.2,0.9,0.4
		c0.4,0.2,0.6,0.3,0.6,0.5c0,0.2-0.3,0.2-0.9,0.1c-1.1-0.1-2.6-0.2-4.6-0.1c0.8,0.5,1.3,0.8,1.3,1c0,0.1-0.1,0.2-0.2,0.2
		c-0.2,0-0.4,0.1-0.4,0.2c-1,2.7-2.7,4.6-5,5.9c-0.3,0-0.3,0-0.2-0.2c2.4-1.8,3.8-3.8,4.4-6.1c0-0.2,0-0.4,0-0.6
		c0-0.2-0.2-0.3-0.4-0.4C54.6,8.7,53.5,8.9,52.6,9z M53.2,6.3c-0.1,0.1-0.2,0.2-0.3,0.2s-0.3-0.1-0.6-0.4c-0.3-0.3-0.6-0.6-0.6-1
		c0-0.2,0.1-0.2,0.2-0.1c0.3,0.4,0.7,0.6,1.1,0.6c1.6-0.1,3.3-0.3,5-0.5c0.3,0,0.5-0.2,0.7-0.3C59,4.8,59.3,5,59.7,5.1
		c0.4,0.2,0.6,0.3,0.6,0.5c0,0.2-0.2,0.2-0.7,0.1C59.2,5.5,57.3,5.6,54,6C53.6,6.1,53.3,6.2,53.2,6.3z"/>
	<path class="st0" d="M71.2,7c0.4,0,0.8,0.2,1.2,0.7c0.2,0.2,0.2,0.3,0.2,0.5c0,0.1-0.1,0.2-0.3,0.1c-0.2,0-0.4,0.1-0.5,0.3
		c-0.4,0.5-1.1,1.1-2,1.9c0.7,0.2,0.7,0.4,0.2,0.6c0,1.8,0,3.6,0,5.3c0,0.3-0.1,0.5-0.2,0.5c-0.1,0-0.2-0.1-0.4-0.3
		c-0.2-0.2-0.2-0.4-0.2-0.6c0.1-0.3,0.1-0.6,0.1-1.1c0-1.3,0-2.7,0-4c-1.9,1.4-3.6,2.3-5.1,2.7c-0.2,0-0.2-0.1-0.1-0.2
		c3.3-1.6,5.6-3.3,6.9-5.4c0.2-0.2,0.2-0.4,0.2-0.6c0-0.1-0.1-0.2-0.3-0.3C70.8,7.1,70.8,7,71.2,7z"/>
	<path class="st0" d="M77,15.6c-0.2,0-0.3-0.1-0.1-0.3c3.6-1.3,6.1-4,7.6-8.1c0.1-0.2,0-0.3-0.2-0.3c-0.8,0.1-3,0.3-6.4,0.7
		c-0.2,0-0.3,0.1-0.5,0.3c0,0.1-0.1,0.2-0.2,0.2s-0.4-0.2-0.7-0.5c-0.3-0.3-0.5-0.5-0.5-0.9c0-0.2,0.1-0.2,0.2-0.1
		C76.2,6.8,76.5,7,77,7c0.3,0,2.6-0.2,6.8-0.5c0.5-0.1,0.7-0.2,0.9-0.5c0.5,0.2,0.8,0.5,1.1,0.8c0.2,0.2,0.3,0.3,0.3,0.5
		c0,0.1-0.1,0.2-0.4,0.2c-0.3,0-0.4,0.1-0.5,0.2C83.6,11.8,80.8,14.5,77,15.6z M87.1,6.2c0,0.3-0.1,0.4-0.3,0.4
		c-0.2,0-0.4-0.3-0.7-0.8c-0.2-0.2-0.5-0.6-1.1-1.1c-0.1-0.1-0.1-0.1,0.1-0.2C85.5,4.7,86,5,86.6,5.4C87,5.6,87.1,5.9,87.1,6.2z
		 M88,5.2c-0.2,0-0.3,0-0.3-0.1c-0.2-0.2-0.3-0.3-0.5-0.6c-0.3-0.3-0.6-0.6-1.1-0.9c-0.1-0.1-0.1-0.2,0.1-0.2
		c0.9,0.2,1.5,0.4,1.8,0.7c0.2,0.2,0.3,0.5,0.3,0.7C88.3,5.1,88.2,5.2,88,5.2z"/>
</g>
<g>
	<path class="st0" d="M95.8,15.4c-0.2,0-0.3-0.1-0.1-0.3c3.7-1.3,6.3-4.1,7.9-8.5c0.1-0.2,0-0.4-0.2-0.4c-0.9,0.1-3.1,0.3-6.7,0.8
		c-0.2,0-0.3,0.1-0.5,0.3c0,0.1-0.1,0.2-0.2,0.2c-0.1,0-0.4-0.2-0.8-0.5c-0.3-0.3-0.5-0.6-0.5-0.9c0-0.2,0.1-0.2,0.2-0.1
		c0.2,0.3,0.5,0.4,1,0.4c0.3,0,2.7-0.2,7-0.5c0.5-0.1,0.8-0.3,0.9-0.5c0.5,0.2,0.9,0.5,1.2,0.8c0.2,0.2,0.3,0.4,0.3,0.5
		c0,0.1-0.1,0.2-0.4,0.2c-0.3,0-0.4,0.1-0.5,0.2C102.7,11.4,99.8,14.2,95.8,15.4z M105.3,5.6c-0.3-0.3-0.4-0.6-0.4-1.1
		c0-0.4,0.1-0.8,0.4-1.1c0.3-0.3,0.6-0.4,1.1-0.4c0.4,0,0.8,0.1,1.1,0.4c0.3,0.3,0.4,0.6,0.4,1.1c0,0.4-0.1,0.8-0.4,1.1
		c-0.3,0.3-0.6,0.4-1.1,0.4C105.9,6.1,105.6,5.9,105.3,5.6z M107.1,5.4c0.2-0.2,0.4-0.5,0.4-0.8c0-0.3-0.1-0.6-0.4-0.8
		c-0.2-0.2-0.5-0.3-0.8-0.3c-0.3,0-0.6,0.1-0.8,0.3c-0.2,0.2-0.4,0.5-0.4,0.8c0,0.3,0.1,0.6,0.4,0.8c0.2,0.2,0.5,0.3,0.8,0.3
		C106.7,5.7,106.9,5.6,107.1,5.4z"/>
	<path class="st0" d="M110,13.3c0-0.5,0-1.2,0-2.1c0-1.2,0-2.5-0.2-3.8c-0.1-0.3-0.2-0.5-0.4-0.6c-0.2-0.1-0.3-0.2-0.4-0.2
		c-0.2-0.1-0.2-0.1,0-0.2c0.7,0,1.2,0.3,1.5,0.8c2.1-0.2,4.2-0.3,6.5-0.5c0.1-0.1,0.2-0.3,0.4-0.4c0.3,0.2,0.6,0.5,0.9,0.7
		c0.2,0.1,0.2,0.2,0.2,0.4c0,0.1-0.1,0.2-0.3,0.2c-0.1,0-0.2,0.1-0.3,0.3c-0.4,1.4-0.7,2.8-1.1,4.3c0.1,0,0.3,0,0.5-0.1
		c0.2,0,0.4,0.1,0.6,0.3c0.2,0.2,0.3,0.3,0.3,0.4c0,0.1-0.1,0.1-0.4,0.1c-0.9-0.1-2.4-0.1-4.5,0.1c-1.4,0.1-2.2,0.1-2.5,0.2
		c0,0.2,0,0.5,0,0.7c0,0.3-0.1,0.5-0.2,0.5c-0.1,0-0.2-0.1-0.4-0.3C110.1,13.7,110,13.5,110,13.3z M116.2,12.1
		c0.3-1.7,0.6-3.3,0.9-5c-2.3,0.2-4.5,0.4-6.6,0.5c0.1,1.6,0.1,3.2,0.2,4.9C112.6,12.4,114.4,12.3,116.2,12.1z"/>
	<path class="st0" d="M127.8,9.9c-1,2.8-2.8,4.8-5.2,6.2c-0.2,0-0.3-0.1-0.2-0.2c2.2-1.7,3.7-3.7,4.5-6c0.1-0.3,0.1-0.6,0.1-0.9
		c0-0.2-0.1-0.3-0.4-0.4c-1.5,0.1-2.8,0.3-3.8,0.4c-0.3,0-0.5,0.1-0.6,0.2s-0.2,0.2-0.4,0.2c-0.2,0-0.4-0.1-0.6-0.3
		c-0.4-0.3-0.7-0.7-0.8-1.2c0-0.2,0.1-0.2,0.2-0.1c0.2,0.4,0.7,0.6,1.4,0.6c0.6,0,3.4-0.2,8.3-0.5c0.5,0,0.8-0.2,1.1-0.4
		c0.3,0.1,0.6,0.3,0.9,0.4c0.4,0.2,0.6,0.3,0.6,0.5c0,0.2-0.3,0.2-0.9,0.1c-1-0.2-2.6-0.2-4.7-0.1c0.8,0.5,1.2,0.8,1.2,1
		c0,0.1-0.1,0.2-0.2,0.2C128,9.6,127.9,9.7,127.8,9.9z M130.8,5.4c0,0.2-0.2,0.2-0.7,0.1c-0.2-0.2-2.2-0.1-5.7,0.4
		c-0.3,0-0.5,0.1-0.6,0.2c-0.1,0.1-0.2,0.2-0.3,0.2c-0.1,0-0.3-0.1-0.7-0.4c-0.3-0.3-0.5-0.6-0.7-1.1c0-0.2,0.1-0.2,0.2-0.1
		c0.2,0.4,0.6,0.6,1.4,0.6c0.4,0,2-0.2,4.7-0.5c0.3,0,0.5-0.2,0.8-0.4c0.3,0.1,0.6,0.2,0.9,0.4C130.6,5.1,130.8,5.2,130.8,5.4z
		 M132.9,5.5c0,0.3-0.1,0.4-0.4,0.4c-0.2,0-0.4-0.3-0.8-0.8c-0.2-0.2-0.6-0.6-1.2-1.1c-0.1-0.1-0.1-0.1,0.1-0.2
		c0.6,0.2,1.1,0.4,1.7,0.8C132.7,4.8,132.9,5.1,132.9,5.5z M133.9,4.5c-0.2,0-0.3,0-0.4-0.1c-0.2-0.2-0.3-0.4-0.5-0.6
		c-0.3-0.3-0.7-0.6-1.1-0.9c-0.1-0.1-0.1-0.2,0.1-0.2c0.9,0.2,1.5,0.4,1.8,0.7c0.2,0.2,0.4,0.5,0.4,0.8
		C134.2,4.4,134.1,4.5,133.9,4.5z"/>
	<path class="st0" d="M136.4,14.2c-0.1,0.2-0.2,0.3-0.4,0.3c-0.1,0-0.3-0.1-0.5-0.4c-0.3-0.3-0.5-0.6-0.5-0.8c0-0.3,0-0.3,0.2-0.2
		c0.2,0.2,0.5,0.4,1,0.4c0.4,0,2.1-0.1,5-0.4c0.3-1.1,0.5-2.2,0.8-3.4c-2.1,0.2-3.4,0.3-4,0.4c-0.3,0.2-0.5,0.2-0.5,0.2
		c-0.1,0-0.3-0.1-0.6-0.4c-0.3-0.3-0.4-0.5-0.5-0.7c0-0.2,0.1-0.2,0.2-0.1c0.1,0.2,0.4,0.3,0.9,0.3c0.5,0,1.9-0.1,4.3-0.2
		c0.2-0.2,0.3-0.3,0.4-0.5c0.4,0.2,0.6,0.3,0.8,0.5c0.2,0.2,0.2,0.3,0.2,0.4s-0.2,0.2-0.5,0.2c-0.3,1.1-0.6,2.2-0.9,3.1
		c0.6,0,1.1,0,1.7-0.1c0.2,0,0.5-0.1,0.7-0.3c0.3,0.1,0.6,0.3,0.8,0.5c0.2,0.2,0.4,0.4,0.4,0.5c0,0.1-0.2,0.1-0.7,0
		C141.9,13.5,139.2,13.7,136.4,14.2z"/>
	<path class="st0" d="M153.5,9.8c-1.1,0-2.3,0.1-3.6,0.2c-0.7,0-1.1,0.1-1.2,0.2c-0.2,0.2-0.3,0.2-0.4,0.2c0,0-0.2-0.1-0.4-0.4
		c-0.3-0.3-0.5-0.5-0.6-0.8c-0.2-0.4-0.3-0.8-0.2-1.1c0.1-0.2,0.2-0.2,0.2-0.1c0.2,0.6,0.4,0.9,0.7,1c0.2,0.1,0.6,0.2,0.9,0.2
		c1.2,0,2.8,0,4.8-0.1c2,0,3.3-0.1,3.8-0.1c0.4,0,0.7-0.1,0.8-0.2c0.1-0.1,0.2-0.2,0.4-0.2c0.4,0,0.7,0.1,0.9,0.4
		c0.3,0.3,0.4,0.4,0.4,0.5c0.1,0.2,0,0.3-0.4,0.3c-0.5-0.1-1-0.1-1.5-0.1C156.4,9.8,154.9,9.8,153.5,9.8z"/>
	<path class="st0" d="M169.6,5.3c0.3,0.2,0.6,0.4,0.9,0.7c0.2,0.1,0.2,0.3,0.2,0.4c0,0.1-0.2,0.2-0.5,0.2c-0.8,1.2-1.5,2.3-2.4,3.3
		c1.3,0.4,2.4,1.1,3.3,1.9c0.7,0.7,1,1.2,1,1.6c0,0.4-0.2,0.5-0.5,0.5c-0.2,0-0.4-0.2-0.6-0.6c-0.4-0.6-0.8-1.1-1.2-1.6
		c-0.6-0.6-1.3-1.1-2.1-1.7c-2,2-4.2,3.5-6.6,4.4c-0.4,0-0.4,0-0.2-0.2c3.8-2,6.6-4.6,8.2-7.8c0-0.2,0-0.2-0.2-0.2
		c-3,0.4-4.5,0.7-4.7,0.9c-0.1,0.1-0.2,0.2-0.3,0.2c-0.1,0-0.3-0.1-0.5-0.4c-0.6-0.5-0.8-0.9-0.8-1.2c0-0.2,0.1-0.2,0.2-0.1
		c0.2,0.4,0.5,0.5,0.9,0.5c0.9,0,2.7-0.2,5.3-0.5C169.2,5.5,169.4,5.4,169.6,5.3z"/>
</g>
<g>
	<path class="st0" d="M190.9,40.7c-0.5,0.5-1.1,0.7-1.8,0.7c-0.8,0-1.5-0.3-2-0.8c-0.8-0.8-1.3-2.1-1.3-3.9c0-1.6,0.5-2.9,1.4-3.8
		c0.6-0.6,1.3-0.9,2.1-0.9c0.3,0,0.5,0.1,0.8,0.2c0.2,0.1,0.4,0.1,0.7,0.1c0.3,0,0.5-0.1,0.6-0.3l0.5,2.4l-0.4,0.1
		c-0.3-0.7-0.6-1.3-1-1.7c-0.3-0.3-0.7-0.4-1.2-0.4c-0.5,0-0.9,0.2-1.3,0.5c-0.8,0.8-1.2,2-1.2,3.8c0,1.9,0.4,3.2,1.1,3.9
		c0.3,0.3,0.7,0.4,1.2,0.4c0.6,0,1.1-0.2,1.5-0.6c0.3-0.3,0.6-0.9,0.9-1.8l0.3,0.2C191.7,39.6,191.4,40.2,190.9,40.7z"/>
	<path class="st0" d="M197.7,32.7c0.4,0.4,0.5,0.9,0.5,1.5c0,0.7-0.2,1.2-0.6,1.6c-0.4,0.4-0.9,0.7-1.4,0.8l1.6,4
		c0.1,0.3,0.3,0.4,0.5,0.4h0.3v0.3h-1.5l-1.8-4.7h-1.3v3.9c0,0.3,0.2,0.4,0.5,0.4h0.3v0.3h-2.5v-0.3h0.3c0.3,0,0.5-0.1,0.5-0.4v-7.8
		c0-0.3-0.2-0.4-0.5-0.4h-0.3v-0.3h3.1C196.5,32.1,197.2,32.3,197.7,32.7z M194.2,36.4h1.2c0.6,0,1.1-0.2,1.4-0.5
		c0.3-0.3,0.5-0.8,0.5-1.5s-0.2-1.1-0.5-1.5c-0.4-0.3-0.9-0.5-1.5-0.5h-0.6c-0.3,0-0.5,0.1-0.5,0.4V36.4z"/>
	<path class="st0" d="M199,32.4v-0.3h5.4l0.6,1.9l-0.3,0.1c-0.6-1.1-1.3-1.6-2-1.6h-1.5c-0.3,0-0.5,0.1-0.5,0.4v3.4h1.6
		c0.7,0,1-0.4,1-1.1v-0.3h0.3V38h-0.3v-0.2c0-0.8-0.3-1.3-1-1.3h-1.6v4.1c0,0.3,0.2,0.4,0.5,0.4h1.4c1.1,0,1.8-0.6,2.3-1.9l0.3,0.1
		l-0.6,2.1H199v-0.3h0.3c0.3,0,0.5-0.1,0.5-0.4v-7.8c0-0.3-0.2-0.4-0.5-0.4H199z"/>
	<path class="st0" d="M209.6,38h-2.5l-0.5,2c-0.2,0.7,0,1.1,0.5,1.1h0.2v0.3h-2v-0.3h0.2c0.3,0,0.5-0.2,0.6-0.6l2.1-8.1l0.8-0.3
		l2.1,8.4c0.1,0.4,0.4,0.6,0.7,0.6h0.2v0.3h-2.4v-0.3h0.2c0.4,0,0.5-0.3,0.4-0.8L209.6,38z M208.5,33.2L208.5,33.2l-1.2,4.5h2.3
		L208.5,33.2z"/>
	<path class="st0" d="M216.6,41.4h-2.8v-0.3h0.5c0.3,0,0.5-0.1,0.5-0.4V33c0-0.4-0.2-0.5-0.5-0.5c-0.7,0-1.3,0.6-1.8,1.8l-0.3-0.1
		l0.5-2.1h5.2l0.4,2.1l-0.3,0.1c-0.5-1.2-1-1.8-1.7-1.8c-0.4,0-0.7,0.2-0.7,0.6v7.6c0,0.3,0.2,0.4,0.5,0.4h0.5V41.4z"/>
	<path class="st0" d="M219.7,32.4v-0.3h4.4v0.3h-1.3c-0.3,0-0.5,0.1-0.5,0.4v7.8c0,0.3,0.2,0.4,0.5,0.4h1.3v0.3h-4.4v-0.3h1.3
		c0.3,0,0.5-0.1,0.5-0.4v-7.8c0-0.3-0.2-0.4-0.5-0.4H219.7z"/>
	<path class="st0" d="M227.5,32.1v0.3h-0.2c-0.4,0-0.5,0.2-0.4,0.6l1.5,6.4h0.1l1.6-6.2c0.1-0.5,0-0.8-0.4-0.8h-0.2v-0.3h2v0.3h-0.2
		c-0.3,0-0.5,0.3-0.7,0.8l-2.2,8.3H228l-2-8.3c-0.1-0.5-0.3-0.8-0.6-0.8h-0.2v-0.3H227.5z"/>
	<path class="st0" d="M231.9,32.4v-0.3h5.4l0.6,1.9l-0.3,0.1c-0.6-1.1-1.3-1.6-2-1.6h-1.5c-0.3,0-0.5,0.1-0.5,0.4v3.4h1.6
		c0.7,0,1-0.4,1-1.1v-0.3h0.3V38h-0.3v-0.2c0-0.8-0.3-1.3-1-1.3h-1.6v4.1c0,0.3,0.2,0.4,0.5,0.4h1.4c1.1,0,1.8-0.6,2.3-1.9l0.3,0.1
		l-0.6,2.1h-5.6v-0.3h0.3c0.3,0,0.5-0.1,0.5-0.4v-7.8c0-0.3-0.2-0.4-0.5-0.4H231.9z"/>
</g>
<g>
	<path class="st0" d="M246.6,36.8v3.6c0,0.3,0.2,0.4,0.5,0.4h0.4v0.3h-2.6v-0.3h0.4c0.3,0,0.5-0.1,0.5-0.4v-7.8
		c0-0.3-0.2-0.4-0.5-0.4h-0.3v-0.3h3.2c0.9,0,1.7,0.2,2.2,0.7c0.4,0.4,0.7,1,0.7,1.7c0,0.7-0.2,1.3-0.7,1.8c-0.5,0.5-1.2,0.8-2,0.8
		H246.6z M247.9,36.4c0.6,0,1.1-0.2,1.5-0.5c0.4-0.4,0.6-0.9,0.6-1.6c0-0.7-0.2-1.3-0.6-1.6c-0.3-0.3-0.9-0.5-1.6-0.5H247
		c-0.3,0-0.5,0.1-0.5,0.4v3.9H247.9z"/>
	<path class="st0" d="M256.7,32.5c0.4,0.4,0.5,0.9,0.5,1.5c0,0.7-0.2,1.2-0.6,1.6c-0.4,0.4-0.9,0.7-1.4,0.8l1.6,4
		c0.1,0.3,0.3,0.4,0.5,0.4h0.3v0.3h-1.5l-1.8-4.7h-1.3v3.9c0,0.3,0.2,0.4,0.5,0.4h0.3v0.3h-2.5v-0.3h0.3c0.3,0,0.5-0.1,0.5-0.4v-7.8
		c0-0.3-0.2-0.4-0.5-0.4h-0.3v-0.3h3.1C255.5,31.8,256.2,32,256.7,32.5z M253.2,36.1h1.2c0.6,0,1.1-0.2,1.4-0.5
		c0.3-0.3,0.5-0.8,0.5-1.5s-0.2-1.1-0.5-1.5c-0.4-0.3-0.9-0.5-1.5-0.5h-0.6c-0.3,0-0.5,0.1-0.5,0.4V36.1z"/>
	<path class="st0" d="M262.8,32.4c0.9,0.8,1.4,2.2,1.4,4s-0.5,3.2-1.4,4c-0.5,0.4-1.1,0.7-1.6,0.7c-0.6,0-1.1-0.2-1.6-0.7
		c-0.9-0.8-1.4-2.2-1.4-4s0.5-3.2,1.4-4c0.5-0.4,1-0.7,1.7-0.7S262.4,32,262.8,32.4z M260.2,32.5c-0.7,0.6-1,1.9-1,3.9
		c0,2.1,0.3,3.4,1,4c0.3,0.3,0.6,0.4,1,0.4c0.4,0,0.7-0.1,1-0.4c0.7-0.6,1-1.9,1-4c0-2-0.3-3.4-1-3.9c-0.3-0.2-0.6-0.3-1-0.3
		C260.8,32.2,260.5,32.3,260.2,32.5z"/>
	<path class="st0" d="M265.4,32.6c0-0.3-0.2-0.4-0.5-0.4h-0.3v-0.3h2.4c1.1,0,2,0.3,2.7,1c0.8,0.7,1.1,1.9,1.1,3.4
		c0,1.8-0.4,3.1-1.3,3.9c-0.7,0.6-1.5,0.9-2.6,0.9h-2.4v-0.3h0.4c0.3,0,0.5-0.1,0.5-0.4V32.6z M268.7,40.1c0.7-0.6,1-1.8,1-3.7
		c0-1.8-0.3-3-1-3.6c-0.5-0.4-1-0.7-1.7-0.7c-0.5,0-0.8,0.1-0.8,0.4v7.8c0,0.3,0.2,0.4,0.6,0.4C267.5,40.8,268.2,40.6,268.7,40.1z"
		/>
	<path class="st0" d="M273.1,40.3c0.3,0.3,0.7,0.4,1.3,0.4c0.6,0,1.1-0.1,1.4-0.4c0.4-0.4,0.6-0.9,0.6-1.5v-6.2
		c0-0.3-0.2-0.4-0.5-0.4h-0.3v-0.3h2v0.3h-0.3c-0.3,0-0.5,0.1-0.5,0.4v6.2c0,0.7-0.2,1.2-0.7,1.6c-0.5,0.5-1.1,0.7-1.8,0.7
		c-0.8,0-1.4-0.2-1.9-0.7c-0.4-0.4-0.6-0.9-0.6-1.6v-6.3c0-0.3-0.2-0.4-0.5-0.4H271v-0.3h2.4v0.3h-0.3c-0.3,0-0.5,0.1-0.5,0.4v6.3
		C272.7,39.6,272.8,40.1,273.1,40.3z"/>
	<path class="st0" d="M282.8,40.4c-0.5,0.5-1.1,0.7-1.8,0.7c-0.8,0-1.5-0.3-2-0.8c-0.8-0.8-1.3-2.1-1.3-3.9c0-1.6,0.5-2.9,1.4-3.8
		c0.6-0.6,1.3-0.9,2.1-0.9c0.3,0,0.5,0.1,0.8,0.2c0.2,0.1,0.4,0.1,0.7,0.1c0.3,0,0.5-0.1,0.6-0.3l0.5,2.4l-0.4,0.1
		c-0.3-0.7-0.6-1.3-1-1.7c-0.3-0.3-0.7-0.4-1.2-0.4c-0.5,0-0.9,0.2-1.3,0.5c-0.8,0.8-1.2,2-1.2,3.8c0,1.9,0.4,3.2,1.1,3.9
		c0.3,0.3,0.7,0.4,1.2,0.4c0.6,0,1.1-0.2,1.5-0.6c0.3-0.3,0.6-0.9,0.9-1.8l0.3,0.2C283.7,39.3,283.3,39.9,282.8,40.4z"/>
	<path class="st0" d="M284.4,32.1v-0.3h5.4l0.6,1.9l-0.3,0.1c-0.6-1.1-1.3-1.6-2-1.6h-1.5c-0.3,0-0.5,0.1-0.5,0.4V36h1.6
		c0.7,0,1-0.4,1-1.1v-0.3h0.3v3.2h-0.3v-0.2c0-0.8-0.3-1.3-1-1.3H286v4.1c0,0.3,0.2,0.4,0.5,0.4h1.4c1.1,0,1.8-0.6,2.3-1.9l0.3,0.1
		l-0.6,2.1h-5.6v-0.3h0.3c0.3,0,0.5-0.1,0.5-0.4v-7.8c0-0.3-0.2-0.4-0.5-0.4H284.4z"/>
</g>
</svg>
