<?xml version="1.0" encoding="utf-8"?>
<!-- Generator: Adobe Illustrator 25.0.1, SVG Export Plug-In . SVG Version: 6.00 Build 0)  -->
<svg version="1.1" id="レイヤー_1" xmlns="http://www.w3.org/2000/svg" xmlns:xlink="http://www.w3.org/1999/xlink" x="0px"
	 y="0px" viewBox="0 0 191.6 50" style="enable-background:new 0 0 191.6 50;" xml:space="preserve">
<style type="text/css">
	.st0{fill:#FFFFFF;}
</style>
<rect x="73.5" y="24.8" transform="matrix(0.7071 -0.7071 0.7071 0.7071 11.9946 78.8613)" class="st0" width="55.4" height="0.3"/>
<g>
	<path class="st0" d="M7.4,5C8.1,5.4,8,5.7,7.1,5.8C8.8,6.3,9.6,7,9.6,8c0,0.5-0.2,0.8-0.6,0.8c-0.3,0-0.6-0.2-0.8-0.7
		C8,7.3,7.6,6.6,6.9,6C6.2,7.5,5.4,8.7,4.5,9.6l1,0.4h0.6V7.8L7.3,8c0.6,0.2,0.6,0.4-0.1,0.8v1.3h0.5l0.8-0.9l1,1
		c0.4,0.4,0.4,0.7-0.2,0.8v3.5l-0.3,0.2c-0.5,0.3-0.8,0.2-1-0.1v-0.4H5.4v3.4L7.7,17c-0.3-0.6-0.6-1.1-1.2-1.6
		c-0.3-0.2-0.2-0.3,0.1-0.3c0.8,0.3,1.5,0.6,2,1.1c0.5,0.4,0.7,0.9,0.7,1.3c0,0.6-0.2,1-0.7,1c-0.2,0-0.4-0.1-0.6-0.3
		c-0.1-0.3-0.2-0.6-0.3-0.8L4.7,19c0,0.7-0.3,0.8-0.6,0.4l-1-1.3l1-0.2V10c-0.3,0.3-0.5,0.5-0.8,0.8C2.9,11.1,2.8,11,3,10.5
		c1.2-1.6,2.2-3.6,2.8-6.1L7.4,5z M5.4,11.9H8v-1.4H5.4V11.9z M5.4,13.8H8v-1.5H5.4V13.8z M13.4,5.3c0.7,0.4,0.5,0.7-0.6,1
		C12.6,7.1,12.4,8,12,8.8h3.6l0.7-1l1.4,1.4c0.5,0.6,0.3,0.9-0.6,0.9c-0.3,0.2-0.6,0.4-0.8,0.6l-1.7,1.7c-0.2,0.2-0.3,0.1-0.3-0.1
		l1.5-3h-2.2V11c0.3,3.2,1.9,5.7,5,7.2c-0.7,0.3-1.2,0.7-1.7,1.3c-1.9-1.6-3.1-3.8-3.5-6.7c-0.4,3.5-2.1,5.8-5.2,6.9
		c-0.5,0-0.5-0.1-0.2-0.3c2.6-1.4,4.1-4,4.2-7.9V9.3h-0.4c-0.9,1.5-1.5,2.5-2,2.9c-0.3,0.2-0.4,0.2-0.3-0.2c1.2-2,1.9-4.4,2.1-7.2
		L13.4,5.3z"/>
	<path class="st0" d="M27.7,5c0.3,0.3,0.1,0.5-0.3,0.5c1.7,1.8,4.1,3,7.2,3.5c-0.7,0.4-1.3,1-1.7,1.7c-2.5-1.2-4.5-2.8-6-4.9
		c-1.1,1.3-2.3,2.5-3.6,3.6l0.8,0.5h1.5V7.8L27,7.9c0.8,0.3,0.8,0.6,0.1,1v1h1.6l0.8-1l1.3,1.3c0.4,0.5,0.3,0.8-0.4,0.8v3.5
		l-0.3,0.2c-0.6,0.3-1,0.3-1.2,0v-0.4h-2.2c0.6,0.9,1.2,1.7,2,2.2c1.1-0.9,2.2-2,3.1-3.2l1,1.2c0.4,0.5,0.2,0.7-0.6,0.6
		c-1.2,0.6-2.3,1.2-3.3,1.7c1.4,0.8,3.2,1.3,5.6,1.6c-0.9,0.5-1.4,1-1.7,1.5c-3.4-1-5.7-2.8-6.7-5.5H24v3.4l3.5-0.3
		c0.4,0,0.4,0.1,0.1,0.3l-5.5,1.7c-0.2,0.6-0.4,0.7-0.6,0.6c-0.2-0.4-0.6-1-1.3-1.9c0.8,0,1.6-0.1,2.4-0.2V10
		c-0.9,0.6-1.9,1.1-3.1,1.6c-0.3,0-0.3,0-0.1-0.2c3.1-1.9,5.3-4.3,6.7-7.2L27.7,5z M24,11.9h4.9v-1.6H24V11.9z M24,13.9h4.9v-1.7H24
		V13.9z"/>
	<path class="st0" d="M44,4.8c0.8,0.3,0.8,0.6,0.1,1v1.5h4.1l1.3-1.3l1.5,1.2C51,7.3,51,7.4,50.8,7.6H38.6v3.9
		c0,3.7-0.9,6.3-2.8,7.7c-0.2,0.1-0.3,0.1-0.2-0.1c0.9-1.6,1.4-4,1.5-7.2V6.4l1.6,0.8h3.8V4.6L44,4.8z M44.5,8
		c0.8,0.3,0.8,0.6,0.1,1v1.9h3.1l1-1l1.2,1c0.2,0.2,0.1,0.3-0.1,0.4h-5.2V14H47l0.8-1l1.3,1.3c0.4,0.5,0.3,0.8-0.4,0.8V19l-0.3,0.2
		c-0.6,0.3-1,0.3-1.2,0v-0.8h-6v1l-0.3,0.2c-0.6,0.3-1,0.3-1.2,0v-6.5l1.6,0.8h1.7V7.9L44.5,8z M41.3,18.1h6v-3.7h-6V18.1z"/>
	<path class="st0" d="M60.4,4.8c0.8,0.3,0.8,0.6,0.1,1v1.1h3.9l1.3-1.3l1.5,1.2c0.2,0.2,0.1,0.3-0.1,0.4h-6.6v1.2h2.4l0.8-0.9
		l1.2,1.2c0.3,0.4,0.2,0.7-0.4,0.8V11l-0.3,0.2c-0.5,0.3-0.8,0.2-1-0.1v-0.4h-2.6v1.4h2.8l0.8-0.8l1.2,1.2c0.3,0.4,0.2,0.7-0.4,0.8
		v0.6h0.4l1-1l1.2,1c0.2,0.2,0.1,0.3-0.1,0.4h-2.5v2.6l-0.3,0.2c-0.5,0.3-0.8,0.2-1-0.1v-0.9h-3v2.6c0,0.3-0.5,0.6-1.5,0.9
		c-0.3,0.1-0.4,0-0.4-0.3c0-0.1,0-0.3-0.1-0.5l-1.8-0.6c-0.5-0.2-0.5-0.3-0.1-0.3h2c0.2,0,0.3-0.1,0.3-0.3v-1.4h-5.1v-0.4H59v-1.5
		h-6.8v-0.4H59v-1.4h-5.1v-0.4H59v-1.4h-2.8v0.4l-0.3,0.2c-0.5,0.3-0.8,0.2-1-0.1V7.8l1.4,0.6H59V7.2h-6.5V6.8H59V4.6L60.4,4.8z
		 M56.2,10.3H59V8.7h-2.8V10.3z M60.5,10.3h2.6V8.7h-2.6V10.3z M60.5,13.9h3v-1.4h-3V13.9z M60.5,15.8h3v-1.5h-3V15.8z"/>
	<path class="st0" d="M75.3,4.8c0.6,0.2,0.5,0.4-0.2,0.7v2.8h1.7V4.6l1.5,0.2c0.6,0.2,0.5,0.4-0.2,0.7v2.8h2.6l1.3-1.3l1.5,1.2
		c0.2,0.2,0.1,0.3-0.1,0.4h-4.2c0.3,0.1,0.4,0.2,0.5,0.3c0.2,0.3,0,0.4-0.6,0.5l-1.4,1.4h2.8l1-1l1.2,1c0.2,0.2,0.1,0.3-0.1,0.4h-6
		v1.5h3l1-1l1.2,1c0.2,0.2,0.1,0.3-0.1,0.4h-5.1v1.5h3.9l1.3-1.3l1.5,1.2c0.2,0.2,0.1,0.3-0.1,0.4h-6.1c1.3,1.5,3.6,2.5,6.9,3.1
		c-0.6,0.2-1.1,0.6-1.6,1.3c-2.3-0.8-4.2-2.3-5.7-4.4v4.2l-0.3,0.2c-0.5,0.3-0.8,0.2-1-0.1v-3.2c-2,1.5-4.1,2.5-6.3,3.2
		c-0.3,0.1-0.4,0-0.2-0.2c2.3-1.1,4.2-2.5,5.8-4.3h-6v-0.4h6.7v-1.5h-5.2v-0.4h5.2v-1.5h-6.1v-0.4h4.5c-0.1-0.1-0.2-0.4-0.3-0.8
		c-0.1-0.6-0.3-1.1-0.6-1.4h-4V8.3h5.1V4.6L75.3,4.8z M73,7.1c0,0.6-0.3,1-0.8,1c-0.4,0-0.6-0.2-0.7-0.6c-0.2-1.1-0.6-1.8-1.2-2.1
		c-0.2-0.1-0.2-0.2,0.1-0.2C72.1,5.5,73,6.1,73,7.1z M74.8,9.8c0.1,0.4,0.1,0.8-0.2,1.1h2.7c0.3-0.8,0.6-1.5,0.8-2.2h-4.5
		C74.2,9.1,74.6,9.5,74.8,9.8z M81.6,5.6c0.5,0.3,0.3,0.5-0.6,0.7l-1.7,1.3C79,8,78.8,8,78.9,7.7l1.4-2.8L81.6,5.6z"/>
</g>
<g>
	<path class="st0" d="M122.2,31.5c0.4,0.4,0.6,0.9,0.6,1.6c0,0.7-0.2,1.3-0.6,1.7c-0.4,0.4-0.9,0.7-1.4,0.8l1.7,4.1
		c0.1,0.3,0.3,0.4,0.6,0.4h0.3v0.3h-1.6l-1.8-4.8h-1.3v4c0,0.3,0.2,0.4,0.5,0.4h0.3v0.3h-2.6V40h0.3c0.3,0,0.5-0.1,0.5-0.4v-8
		c0-0.3-0.2-0.4-0.5-0.4h-0.3v-0.3h3.2C121,30.8,121.7,31,122.2,31.5z M118.7,35.2h1.2c0.6,0,1.1-0.2,1.4-0.6
		c0.3-0.3,0.5-0.8,0.5-1.5s-0.2-1.2-0.5-1.5c-0.4-0.3-0.9-0.5-1.6-0.5h-0.6c-0.3,0-0.5,0.1-0.5,0.4V35.2z"/>
	<path class="st0" d="M124.1,31.1v-0.3h5.5l0.6,1.9l-0.3,0.1c-0.6-1.1-1.3-1.7-2.1-1.7h-1.6c-0.3,0-0.5,0.1-0.5,0.4V35h1.6
		c0.7,0,1.1-0.4,1.1-1.1v-0.3h0.3v3.3h-0.3v-0.2c0-0.9-0.4-1.3-1.1-1.3h-1.6v4.2c0,0.3,0.2,0.4,0.5,0.4h1.4c1.1,0,1.9-0.6,2.3-1.9
		l0.3,0.1l-0.6,2.2H124V40h0.3c0.3,0,0.5-0.1,0.5-0.4v-8c0-0.3-0.2-0.4-0.5-0.4H124.1z"/>
	<path class="st0" d="M135.7,36.9c-0.5-0.5-1.2-0.9-1.9-1.3c-0.8-0.3-1.4-0.6-1.7-0.9c-0.4-0.3-0.6-0.8-0.6-1.5
		c0-0.6,0.2-1.2,0.7-1.7c0.4-0.4,1.1-0.7,1.9-0.7c0.4,0,0.8,0.1,1.1,0.2c0.3,0.1,0.5,0.2,0.7,0.2c0.2,0,0.4-0.1,0.6-0.4l0.2,2.3
		l-0.3,0.2c-0.3-0.8-0.6-1.3-0.9-1.6c-0.4-0.3-0.9-0.5-1.4-0.5s-1,0.1-1.3,0.4c-0.4,0.3-0.6,0.8-0.6,1.3c0,0.5,0.2,0.9,0.6,1.2
		c0.2,0.1,0.7,0.4,1.5,0.7c0.9,0.4,1.7,0.9,2.2,1.4c0.4,0.4,0.6,1,0.6,1.6c0,0.7-0.2,1.2-0.7,1.7s-1.2,0.7-2,0.7
		c-0.4,0-0.8-0.1-1.2-0.2c-0.3-0.1-0.5-0.2-0.6-0.2c-0.2,0-0.5,0.1-0.7,0.4l-0.4-2.7l0.3-0.2c0.3,1,0.6,1.6,0.9,1.9
		c0.4,0.4,1,0.6,1.8,0.6c0.6,0,1-0.1,1.3-0.4c0.4-0.3,0.6-0.9,0.6-1.6C136.2,37.5,136.1,37.2,135.7,36.9z"/>
	<path class="st0" d="M142.8,40.3h-2.9V40h0.5c0.3,0,0.5-0.1,0.5-0.4v-7.8c0-0.4-0.2-0.6-0.5-0.6c-0.7,0-1.4,0.6-1.8,1.8l-0.3-0.1
		l0.5-2.1h5.3l0.4,2.1l-0.3,0.1c-0.5-1.2-1.1-1.8-1.7-1.8c-0.4,0-0.7,0.2-0.7,0.6v7.7c0,0.3,0.2,0.4,0.5,0.4h0.5V40.3z"/>
	<path class="st0" d="M149.5,36.9H147l-0.5,2c-0.2,0.7,0,1.1,0.5,1.1h0.2v0.3h-2.1V40h0.2c0.3,0,0.5-0.2,0.6-0.6l2.2-8.3l0.8-0.3
		l2.1,8.6c0.1,0.4,0.4,0.6,0.7,0.6h0.2v0.3h-2.4V40h0.2c0.4,0,0.5-0.3,0.4-0.8L149.5,36.9z M148.3,31.9L148.3,31.9l-1.2,4.6h2.3
		L148.3,31.9z"/>
	<path class="st0" d="M154.5,39.5c0.3,0.3,0.7,0.4,1.3,0.4c0.6,0,1.1-0.1,1.4-0.4c0.4-0.4,0.6-0.9,0.6-1.5v-6.3
		c0-0.3-0.2-0.4-0.5-0.4h-0.3v-0.3h2v0.3h-0.3c-0.3,0-0.5,0.1-0.5,0.4v6.3c0,0.7-0.2,1.2-0.7,1.7c-0.5,0.5-1.1,0.7-1.8,0.7
		c-0.8,0-1.4-0.2-1.9-0.7c-0.4-0.4-0.6-1-0.6-1.7v-6.4c0-0.3-0.2-0.4-0.5-0.4h-0.3v-0.3h2.5v0.3h-0.3c-0.3,0-0.5,0.1-0.5,0.4V38
		C154,38.7,154.2,39.2,154.5,39.5z"/>
	<path class="st0" d="M165,31.5c0.4,0.4,0.6,0.9,0.6,1.6c0,0.7-0.2,1.3-0.6,1.7c-0.4,0.4-0.9,0.7-1.4,0.8l1.7,4.1
		c0.1,0.3,0.3,0.4,0.6,0.4h0.3v0.3h-1.6l-1.8-4.8h-1.3v4c0,0.3,0.2,0.4,0.5,0.4h0.3v0.3h-2.6V40h0.3c0.3,0,0.5-0.1,0.5-0.4v-8
		c0-0.3-0.2-0.4-0.5-0.4h-0.3v-0.3h3.2C163.8,30.8,164.5,31,165,31.5z M161.4,35.2h1.2c0.6,0,1.1-0.2,1.4-0.6
		c0.3-0.3,0.5-0.8,0.5-1.5s-0.2-1.2-0.5-1.5c-0.4-0.3-0.9-0.5-1.6-0.5h-0.6c-0.3,0-0.5,0.1-0.5,0.4V35.2z"/>
	<path class="st0" d="M170.9,36.9h-2.5l-0.5,2c-0.2,0.7,0,1.1,0.5,1.1h0.2v0.3h-2.1V40h0.2c0.3,0,0.5-0.2,0.6-0.6l2.2-8.3l0.8-0.3
		l2.1,8.6c0.1,0.4,0.4,0.6,0.7,0.6h0.2v0.3h-2.4V40h0.2c0.4,0,0.5-0.3,0.4-0.8L170.9,36.9z M169.7,31.9L169.7,31.9l-1.2,4.6h2.3
		L169.7,31.9z"/>
	<path class="st0" d="M179.1,38.2h0.1v-6.6c0-0.3-0.2-0.4-0.5-0.4h-0.4v-0.3h2.2v0.3h-0.4c-0.3,0-0.5,0.1-0.5,0.4v8.7h-0.3l-4.2-8.4
		h-0.1v7.6c0,0.3,0.2,0.4,0.5,0.4h0.4v0.3h-2.2V40h0.4c0.3,0,0.5-0.1,0.5-0.4v-8c0-0.3-0.2-0.4-0.5-0.4h-0.3v-0.3h1.6L179.1,38.2z"
		/>
	<path class="st0" d="M185.6,40.3h-2.9V40h0.5c0.3,0,0.5-0.1,0.5-0.4v-7.8c0-0.4-0.2-0.6-0.5-0.6c-0.7,0-1.4,0.6-1.8,1.8l-0.3-0.1
		l0.5-2.1h5.3l0.4,2.1L187,33c-0.5-1.2-1.1-1.8-1.7-1.8c-0.4,0-0.7,0.2-0.7,0.6v7.7c0,0.3,0.2,0.4,0.5,0.4h0.5V40.3z"/>
</g>
</svg>
