<svg xmlns="http://www.w3.org/2000/svg" viewBox="0 0 649 613"><defs><style>.cls-2{fill:none;stroke:#fff;stroke-miterlimit:10}</style></defs><g id="レイヤー_2" data-name="レイヤー 2"><g id="レイヤー_1-2" data-name="レイヤー 1"><path d="M199.82 180.38v1.9c0 .34 0 .39-.39.42s-.92 0-1.32 0-.39-.08-.39-.36c.09-1.77.11-3.61.11-6v-5.52c0-1.48 0-3-.05-4.48 0-.25.08-.31.31-.31 1.42.06 2.94.06 4.5.06h6.16c1.68 0 3.5 0 5-.06.28 0 .34.09.34.39 0 1.43-.06 2.92-.06 4.43v5.63c0 2.15.08 4.08.14 5.51 0 .31-.08.39-.36.39h-1.46c-.25 0-.28-.08-.28-.36v-1.65zM212 167.89h-12.21v10.7H212zm17.82 6.97a22.88 22.88 0 00-3.78.28c-.25 0-.39-.11-.48-.39a17.73 17.73 0 01-.28-2.13 50.06 50.06 0 006.19.25h8.6c1.93 0 4 0 6.13-.08.34 0 .42 0 .42.34a11.69 11.69 0 010 1.45c0 .31-.08.37-.42.34-2.1-.06-4.17-.06-6-.06zm37.79-9.01a2.9 2.9 0 001.6-.23c.17-.11.36-.05.56.09a7.28 7.28 0 011.15 1.14c.16.23.11.42-.14.65a3.69 3.69 0 00-.82 1 50.42 50.42 0 01-4.14 6 57.61 57.61 0 018 7c.25.23.25.31 0 .59a11.93 11.93 0 01-1 1c-.2.17-.31.17-.51-.06a50.57 50.57 0 00-7.73-7.11 42.81 42.81 0 01-10 7.81c-.31.17-.48.2-.7 0a4.9 4.9 0 00-1.46-1 36.36 36.36 0 0010.31-7.59 35.4 35.4 0 005.32-7.5h-8.43c-1.57 0-2.77.08-4 .16-.26 0-.28-.08-.34-.3a11.48 11.48 0 01-.17-1.8c1.37.12 2.61.12 4.34.12zm3.45-3.39a.2.2 0 01.3 0 13.38 13.38 0 013.17 3.39.2.2 0 01-.06.3l-.81.68a.22.22 0 01-.36-.06 12.14 12.14 0 00-3.25-3.58zm2.35-1.85c.11-.08.19-.11.31 0a16 16 0 013.19 3.28c.08.14 0 .22-.09.33l-.75.68c-.11.11-.23.11-.34-.06a13.27 13.27 0 00-3.22-3.5zm15.64 7a16.63 16.63 0 00-.33-4.2 12.76 12.76 0 012.32.39c.39.14.42.45.25.79a8.22 8.22 0 00-.33 3v3l8.17-1.93c1.29-.28 1.54-.42 1.88-.7a.58.58 0 01.73 0 5.32 5.32 0 011.28 1 .51.51 0 01-.08.82 2.34 2.34 0 00-.7.86 23.1 23.1 0 01-4.56 6.19c-.28.25-.48.31-.79.11a5.39 5.39 0 00-1.45-.56 19.18 19.18 0 005.09-6.38l-9.53 2.37v6.78c0 2 .86 2.57 4.25 2.57a35.41 35.41 0 006.33-.53c.34-.06.36.06.42.36a9.52 9.52 0 01.14 1.26c0 .26-.11.34-.42.37a50.58 50.58 0 01-6.36.33c-4.9 0-6.27-1.14-6.27-4.25v-6.44l-2.38.59a34.68 34.68 0 00-4.23 1.26c-.36.14-.47.08-.61-.2a16.58 16.58 0 01-.73-1.85 35.66 35.66 0 005.21-1l2.74-.64zm12.13-4.76a.22.22 0 01.3 0 13.55 13.55 0 013.17 3.39.21.21 0 01-.06.31l-.81.67a.22.22 0 01-.36-.06 12.14 12.14 0 00-3.25-3.58zm2.35-1.85c.11-.08.19-.11.31 0a16 16 0 013.19 3.28c.08.14.05.22-.09.34l-.75.67c-.11.11-.23.11-.34-.06a13.27 13.27 0 00-3.22-3.5zm16.16 10.47c-1.57 0-2.8 0-3.95.14-.25 0-.36-.08-.42-.36a12.46 12.46 0 01-.19-1.76c1.42.14 2.88.19 4.64.19h10a3.14 3.14 0 001.37-.19c.34-.17.48-.2.76 0a6.17 6.17 0 011 1c.28.37.25.53 0 .76a2.15 2.15 0 00-.65.95 24.39 24.39 0 01-11.81 12.63c-.34.17-.54.17-.76-.06a5.21 5.21 0 00-1.57-.87c5.83-2.8 10.08-6.94 12.18-12.46zm2.27-5.82c-1.49 0-2.75 0-4 .11-.25 0-.31-.08-.33-.39a14.26 14.26 0 01-.14-1.68 38.29 38.29 0 004.56.2h4.34c1.76 0 3-.06 4.34-.14.25 0 .31.08.31.33a8.83 8.83 0 010 1.26c0 .31-.06.39-.37.37-1.28 0-2.46-.06-4.17-.06zm25.38 15.04c-2 0-3.7.05-5.21.14-.31 0-.39-.09-.45-.4-.05-.47-.11-1.12-.14-1.87 1.88.14 3.67.17 5.8.17h9.13c2.32 0 4.53-.06 6.33-.12.33 0 .42.09.42.37v1.34c0 .42-.09.42-.42.42-1.8-.05-4.18-.05-6.25-.05zm2.41-11.69c-1.57 0-3 .06-4.34.11-.28 0-.37-.08-.39-.42a17.38 17.38 0 01-.12-1.82c1.74.14 3.22.17 4.82.17h4.51c1.9 0 3.53 0 5.07-.11.22 0 .3.08.3.34a11.21 11.21 0 010 1.42c0 .31-.08.37-.33.37-1.57-.06-3.28-.06-5-.06zm37.99 12.16h3.56c.34 0 .42 0 .45.37v1c0 .36-.09.36-.39.36-1.32 0-2.47-.06-3.78-.06h-9.78c-1.12 0-2.38 0-3.58.14-.31 0-.36-.08-.39-.42a7.19 7.19 0 01-.11-1.45c1.56.11 2.71.11 4 .11h6.69l1.07-7.76h-4.74c-1.06 0-2.35 0-3.27.09-.28 0-.39 0-.42-.34s-.11-1-.14-1.54c1.57.14 2.74.17 3.92.17h4.09a1.93 1.93 0 001.12-.22.48.48 0 01.58 0 5.18 5.18 0 011 1 .43.43 0 01-.06.67c-.25.23-.33.45-.39 1.07l-1 6.8zm27.57-14.28c1.74 0 2.18 0 2.55-.25a.52.52 0 01.64.08 4.52 4.52 0 011.18 1.12.5.5 0 01-.09.73 2.75 2.75 0 00-.42 1 27.69 27.69 0 01-3.36 8.32 22 22 0 01-7.42 7.14.41.41 0 01-.61-.06 6 6 0 00-1.65-.81c3.66-2.07 6.16-4.26 7.86-7.11a24.9 24.9 0 003.25-8.37h-13.77v2.71c0 1.26 0 2.24.08 3.36 0 .34-.06.42-.34.42a11.69 11.69 0 01-1.45 0c-.25 0-.31-.08-.31-.36.06-1.26.06-2.16.06-3.39v-2c0-.9 0-1.62-.06-2.32 0-.23.08-.34.34-.31 1.17.08 2.4.11 3.8.11H409v-1.4a14.77 14.77 0 00-.25-3.33 13.46 13.46 0 012.26.28c.4.08.45.39.28.7a4.62 4.62 0 00-.3 2.21v1.51zm23.69-2.99c.25.16.28.47 0 .84a5.58 5.58 0 00-1 2c-1.38 4.09-3.28 9.18-5.24 13.61 3.78-.31 8.23-.7 11.93-1.26a30.94 30.94 0 00-3.39-4.9c.45-.25.9-.56 1.32-.79s.39-.08.56.14a40.86 40.86 0 015.43 8.66.39.39 0 01-.14.56c-.42.25-.84.47-1.23.67-.23.11-.37 0-.51-.25-.36-.79-.76-1.63-1.18-2.38-4.39.67-8.81 1.14-13.77 1.68a8.61 8.61 0 00-2.86.53c-.39.25-.72.28-.89-.11a18.85 18.85 0 01-.67-2.33 20.44 20.44 0 003.3 0c2-4.78 4.06-10.27 5-13.35a16.5 16.5 0 00.87-4.31 9.43 9.43 0 012.47.99zm-56.4 264.24c1-1 2.47-2.49 4-4 .67-.67 1.06-.9 1.65-.9a2.46 2.46 0 011.71.76 105 105 0 0012.85 9.18.36.36 0 01.17.54 9 9 0 01-.87 1.4c-.14.19-.28.25-.5.08-4.46-3.05-8.74-6.25-12.69-9.52a.93.93 0 00-.56-.31.69.69 0 00-.53.25c-1.26 1.26-2.8 2.89-4.7 4.93a10.19 10.19 0 00-1.23 1.46.39.39 0 01-.64.12 14.65 14.65 0 01-1.63-1.49 19.56 19.56 0 002.97-2.5zm12.83-7.2a.23.23 0 01.33 0 13.91 13.91 0 013.17 3.39.21.21 0 01-.06.31l-.81.67a.23.23 0 01-.37-.05 12.13 12.13 0 00-3.24-3.59zm2.38-1.84c.11-.09.19-.12.3 0a16.31 16.31 0 013.2 3.28c.08.13.05.22-.09.33l-.75.67c-.12.11-.23.11-.34 0a13.27 13.27 0 00-3.22-3.5zm20.88 2.71c.31.12.34.37.2.7a6.71 6.71 0 00-.28 2.19 18 18 0 01-1.74 7.67 14.68 14.68 0 01-4 5c-.31.28-.56.31-.79.11a4 4 0 00-1.48-.69 13.45 13.45 0 004.51-5.21 16.46 16.46 0 001.51-7.25 11.77 11.77 0 00-.25-2.92 11.35 11.35 0 012.32.4zm5.83 12.71a37.65 37.65 0 004.76-3 26.23 26.23 0 005-4.68 4.85 4.85 0 00.48 1.77c.11.25.14.42-.17.72a38.2 38.2 0 01-4.42 3.92 52.65 52.65 0 01-4.85 3.14 4.05 4.05 0 00-.92.61.53.53 0 01-.76 0 5.63 5.63 0 01-1.14-.99.79.79 0 01-.06-.7 13.44 13.44 0 00.12-2.77v-7.95a25.48 25.48 0 00-.28-4.9 18.73 18.73 0 012.32.36c.42.14.34.42.17.81a13.4 13.4 0 00-.25 3.7zm26.65-10.8c.09-1 .17-1.88.2-3a13.76 13.76 0 00-.14-3 9 9 0 012.24.42c.39.14.47.42.22.86a6 6 0 00-.36 1.85c-.06 1-.14 1.8-.25 2.89h4.76c1.2 0 2.35-.06 3.52-.06.37 0 .42.06.42.34 0 .61 0 1.54-.08 2.57a48.79 48.79 0 01-1 8.85c-.56 2.1-1.2 2.91-2.57 3.36a10.55 10.55 0 01-2.91.34.41.41 0 01-.45-.34 3.2 3.2 0 00-1-1.57 9.79 9.79 0 003.58-.28c.81-.28 1-.56 1.46-2.29a44.71 44.71 0 00.95-9.19h-6.89a20.72 20.72 0 01-2.52 7.87 17.75 17.75 0 01-5.93 5.77c-.26.17-.48.2-.68 0a3.67 3.67 0 00-1.51-.92 15.83 15.83 0 006.44-5.63 18.51 18.51 0 002.3-7h-3.28c-1.26 0-2.49 0-3.86.14-.25 0-.28-.05-.34-.36s-.14-1.12-.17-1.68c1.57.11 2.86.14 4.34.14zm9.41-5.18a.21.21 0 01.31 0 13.34 13.34 0 013.16 3.39.19.19 0 01-.05.3l-.82.68a.22.22 0 01-.36-.06 12 12 0 00-3.25-3.58zm2.35-1.85c.11-.08.2-.11.31 0a16 16 0 013.19 3.28c.09.14.06.22-.08.33l-.76.67c-.11.12-.22.12-.33-.05a13.45 13.45 0 00-3.22-3.5zm21 10.7h5.85c2 0 4.06 0 5.77-.12.25 0 .31.09.31.34a9.26 9.26 0 010 1.29c0 .31-.08.33-.39.33-1.82-.05-3.81-.08-5.69-.08h-5.85v5.15c0 1.07.39 1.49.95 1.74a7.53 7.53 0 003 .39c1.68 0 3.56-.2 5.18-.34.23 0 .25.06.28.28s.06.82.06 1.29c0 .31-.09.36-.37.39-1.54.14-3.38.23-5.37.23a10.11 10.11 0 01-3.87-.56c-1.09-.42-1.79-1.29-1.79-3v-5.52h-2.24c-2.13 0-4 .06-5.6.14-.33 0-.39-.08-.45-.42s-.11-1.09-.14-1.6c1.94.12 3.92.14 6.22.14H482v-5.48c-2.27 0-3.72 0-5.18.11-.31 0-.39-.09-.42-.39 0-.54-.08-1.13-.08-1.63 1.68.11 3.53.17 5.54.17h5.29c1.94 0 3.53 0 5.18-.08.31 0 .37.08.37.36v1.12c0 .34-.09.39-.42.39-1.74 0-3.42-.05-5.16-.05h-3.19zm23.79-1.91c.22-.11.34-.05.5.14a15.93 15.93 0 012.3 3.92c.11.28.11.34-.14.5a5.7 5.7 0 01-1.06.51c-.26.11-.37 0-.45-.22a17.81 17.81 0 00-2.41-4.18c.54-.28.92-.5 1.26-.67zm14.95 0a.39.39 0 010 .67 4 4 0 00-.81 1.34 33.56 33.56 0 01-4.12 7.23 22.63 22.63 0 01-5.65 5.32.47.47 0 01-.62 0 3.49 3.49 0 00-1.46-.7 23.42 23.42 0 006.28-5.57 27 27 0 003.8-6.89 9.6 9.6 0 00.48-2.3 7.46 7.46 0 012.1.93zm-9.46-1.32c.19-.08.33-.05.47.17a17 17 0 012.1 3.89c.09.23 0 .34-.19.45a9.1 9.1 0 01-1.12.53c-.2.09-.28 0-.39-.25a16.8 16.8 0 00-2.16-4.14c.59-.28.95-.48 1.29-.62zm26.29 1.35a39.41 39.41 0 019.13 3.89c.23.11.28.25.2.45a8.74 8.74 0 01-.68 1.37c-.16.22-.27.28-.53.11a31.4 31.4 0 00-8.14-3.75v6.5c0 1.71 0 3.89.08 5.71 0 .28-.06.36-.37.36a11.21 11.21 0 01-1.42 0c-.31 0-.39-.08-.39-.39.08-1.79.11-4 .11-5.68v-12.46a23.29 23.29 0 00-.31-4.48 11.09 11.09 0 012.32.36c.45.11.34.42.2.84a11.58 11.58 0 00-.2 3.11zm-455.57-3.03c-1.65 0-3.19.06-4.7.17-.34 0-.45-.08-.5-.44s-.12-1.27-.14-1.74a52.31 52.31 0 005.37.22h9.91a2.49 2.49 0 001.4-.25.69.69 0 01.73 0 7 7 0 011.26 1.15.58.58 0 01-.08.86 2.7 2.7 0 00-.62 1 29.79 29.79 0 01-5.49 9.18 30.52 30.52 0 01-8.31 6.75.69.69 0 01-1-.06 5 5 0 00-1.46-.95 26.85 26.85 0 009-6.92 26.4 26.4 0 005.27-9zm25.33 4.06a38.13 38.13 0 00-4 .15c-.25 0-.36-.09-.42-.37a14.14 14.14 0 01-.19-1.76c1.43.14 2.88.19 4.65.19h10a3.14 3.14 0 001.37-.19c.34-.17.48-.2.76 0a6.12 6.12 0 011 1c.28.37.26.54 0 .76a2.22 2.22 0 00-.65 1A24.39 24.39 0 01110 439.92c-.34.17-.53.17-.76-.06a5.21 5.21 0 00-1.57-.87c5.83-2.79 10.08-6.94 12.18-12.46zm2.27-5.82c-1.48 0-2.74 0-4 .11-.25 0-.3-.08-.33-.39a14.08 14.08 0 01-.14-1.68 38.39 38.39 0 004.56.2H116c1.77 0 3-.06 4.34-.14.25 0 .31.08.31.33a8.83 8.83 0 010 1.26c0 .31-.06.4-.36.37-1.29 0-2.47-.06-4.18-.06zm19.03-.33a.34.34 0 01.51-.06 26.31 26.31 0 015 3.72c.19.2.22.31.08.54a11.43 11.43 0 01-.95 1.2c-.17.19-.25.22-.45 0a29.13 29.13 0 00-5.32-4.15c.4-.41.82-.92 1.13-1.25zm2.52 14.84a47.37 47.37 0 008.09-5.21 43.47 43.47 0 007.56-7.54 8.49 8.49 0 00.48 1.85c.17.37.14.59-.2 1a51.14 51.14 0 01-6.8 6.44 57.32 57.32 0 01-8.4 5.46 9.72 9.72 0 00-1.54 1.1.46.46 0 01-.76 0 10.54 10.54 0 01-1.37-1.91 15.43 15.43 0 002.94-1.19zm30.45-14.68a9.7 9.7 0 00-1-3 11 11 0 012.35 0c.4.06.51.25.45.5a5.68 5.68 0 00.11 2.3l.45 2.38 3.25-.59c1.4-.25 3-.53 4.31-.87.2 0 .25 0 .31.2a13 13 0 01.31 1.32c0 .19 0 .27-.28.3l-4.26.73-3.27.59.95 4.56 4.67-.84c1.57-.28 2.89-.56 4-.86.26-.06.31 0 .37.19.11.42.19.81.28 1.23 0 .25-.09.4-.28.42-1.12.17-2.58.42-4.09.7l-4.62.84.81 3.84c.34 1.62.73 3.19 1.07 4.51.05.25 0 .36-.23.44a6.78 6.78 0 01-1.34.31c-.28.06-.39 0-.42-.28-.22-1.23-.56-2.91-.9-4.51l-.84-3.94-4.56.78c-1.65.28-2.91.59-4.15.9-.27.08-.41 0-.5-.26-.17-.47-.36-1.11-.5-1.65 1.57-.14 3-.36 4.76-.67l4.62-.78-1-4.65-3.28.53c-1.51.25-2.91.53-3.92.81-.25.06-.34 0-.42-.22s-.39-1.23-.5-1.68a45.47 45.47 0 004.56-.56l3.2-.56zm20.11-.16a.33.33 0 01.5-.06 25.7 25.7 0 015 3.72c.2.2.23.31.09.54a12.9 12.9 0 01-1 1.2c-.17.19-.26.22-.45 0a29.47 29.47 0 00-5.32-4.15c.45-.41.87-.92 1.18-1.25zm2.52 14.84a47.77 47.77 0 008.09-5.21 43.82 43.82 0 007.56-7.54 8 8 0 00.48 1.85.77.77 0 01-.2 1 51.76 51.76 0 01-6.8 6.44 57.32 57.32 0 01-8.4 5.46 9.72 9.72 0 00-1.54 1.1.46.46 0 01-.76 0 10.54 10.54 0 01-1.37-1.91 15.43 15.43 0 002.94-1.19zm29.06-12.55a16.54 16.54 0 00-.34-4.2 14.73 14.73 0 012.33.39c.39.14.42.45.25.79a7.9 7.9 0 00-.34 3v3l8.18-1.93c1.29-.28 1.54-.42 1.87-.7a.58.58 0 01.73 0 5.56 5.56 0 011.29 1 .51.51 0 01-.08.82 2.31 2.31 0 00-.71.87 23 23 0 01-4.56 6.18c-.28.26-.48.31-.78.11a5.46 5.46 0 00-1.46-.56 19.09 19.09 0 005.1-6.38l-9.58 2.38v6.78c0 2 .87 2.57 4.26 2.57a35.58 35.58 0 006.33-.53c.33-.05.36.06.42.37a11.12 11.12 0 01.14 1.25c0 .26-.12.34-.43.37a49.87 49.87 0 01-6.35.34c-4.9 0-6.27-1.15-6.27-4.26v-6.44l-2.38.59a36.57 36.57 0 00-4.23 1.26c-.36.14-.48.08-.62-.2a14.84 14.84 0 01-.72-1.85 35.79 35.79 0 005.2-1l2.75-.64zm21.78-2.29a.33.33 0 01.5-.06 25.7 25.7 0 015 3.72c.2.2.23.31.09.54a12.9 12.9 0 01-1 1.2c-.17.19-.26.22-.45 0a29.13 29.13 0 00-5.32-4.15c.41-.41.83-.92 1.18-1.25zm2.52 14.84a47.77 47.77 0 008.09-5.21 43.82 43.82 0 007.56-7.54 8 8 0 00.48 1.85.77.77 0 01-.2 1 51.14 51.14 0 01-6.8 6.44 57.32 57.32 0 01-8.4 5.46 9.72 9.72 0 00-1.54 1.1.46.46 0 01-.76 0 10.54 10.54 0 01-1.37-1.91 15.43 15.43 0 002.9-1.19zm35.92-14.71c.95 0 1.26 0 1.6-.22.17-.11.36-.05.56.09a7.28 7.28 0 011.15 1.14c.16.23.11.42-.14.65a3.69 3.69 0 00-.82 1 50.42 50.42 0 01-4.14 6 57.61 57.61 0 018 7c.25.22.25.31 0 .59a11.93 11.93 0 01-1 1c-.2.16-.31.16-.51-.06a50.57 50.57 0 00-7.73-7.11 42.81 42.81 0 01-10 7.81c-.31.17-.48.2-.7-.06a4.88 4.88 0 00-1.46-1 36.36 36.36 0 0010.31-7.59 35.4 35.4 0 005.32-7.5h-8.43c-1.57 0-2.77.08-4 .16-.26 0-.28-.08-.34-.3a11.48 11.48 0 01-.17-1.8c1.37.11 2.61.11 4.34.11z" fill="#fff"/><circle class="cls-2" cx="324.5" cy="180.5" r="180"/><circle class="cls-2" cx="468.5" cy="432.5" r="180"/><circle class="cls-2" cx="180.5" cy="432.5" r="180"/></g></g></svg>