<svg xmlns="http://www.w3.org/2000/svg" viewBox="0 0 413.91 42.31"><g data-name="レイヤー 2"><path d="M19.56 29.88a3.93 3.93 0 01-3.48 2c-2 0-3.32-1.36-3.68-3.56C10 30.79 8.36 32 5.76 32 2.56 32 0 30.11 0 26.68 0 24 1.56 22 7 20.08c1.56-.48 3.48-1 5.32-1.44v-1.28C12.32 13 11 11.88 8 11.88a8.27 8.27 0 00-2.8.44l-.88 3C4 16.44 3.36 17 2.32 17a1.61 1.61 0 01-1.76-1.48c.84-3.28 4-5.24 8.2-5.24 4.44 0 6.6 2 6.6 7.2V27c0 2.31.64 3 1.72 3a2.36 2.36 0 001.8-.95zm-7.24-10a42.8 42.8 0 00-4.48 1.44c-3.88 1.48-4.6 3.16-4.6 4.76 0 2.39 1.52 3.47 3.68 3.47 1.68 0 2.84-.71 5.4-2.76zM33.23 16c1.44-3.52 4-5.68 6.52-5.68a3.46 3.46 0 013 1.44c0 1.72-.68 2.72-2.24 2.72a3.88 3.88 0 01-2.51-1.2l-.56-.48a11 11 0 00-4.16 5.84v3.64c0 2 0 5.08.08 7.31l3.68.52v1.28H26.83v-1.28l3.28-.48c.08-2.24.12-5.32.12-7.35v-2.2c0-2.56-.08-4.2-.16-6.08l-3.56-.28v-1.28l5.76-2.12.56.4zm15.63 5.2c0-7.28 4.87-10.92 9.83-10.92s9.8 3.64 9.8 10.92S63.61 32 58.69 32s-9.83-3.57-9.83-10.8zm16.27 0c0-6-2.44-9.32-6.44-9.32s-6.44 3.36-6.44 9.32 2.4 9.15 6.44 9.15 6.44-3.15 6.44-9.15zm46.36 8.91v1.28h-9.72v-1.28l3.4-.48c0-2.24.08-5.27.08-7.35V18.2c0-4.16-1.32-5.4-3.84-5.4-1.88 0-3.88.76-6.36 3.2a17.33 17.33 0 01.12 2.12v4.16c0 2.08 0 5.11.08 7.31l3.16.52v1.28h-9.72v-1.28l3.4-.48c0-2.19.08-5.27.08-7.35v-4c0-4.08-1.24-5.48-3.72-5.48-2 0-3.84.84-6.32 3.12v6.36c0 2 0 5.11.08 7.31l3.16.52v1.28h-9.75v-1.28l3.38-.48c.08-2.24.12-5.32.12-7.35v-2.2c0-2.56-.08-4.24-.16-6.08l-3.55-.28v-1.28l5.75-2.12.56.4.28 3.68c2.28-2.52 5.08-4.12 7.72-4.12s4.4 1.24 5.08 4.2a10.33 10.33 0 018-4.2c3.44 0 5.48 2.12 5.48 7.52v4.48c0 2.08 0 5.11.08 7.31zm27.08-.23a3.93 3.93 0 01-3.48 2c-2 0-3.32-1.36-3.68-3.56-2.44 2.48-4 3.64-6.64 3.64-3.2 0-5.76-1.84-5.76-5.27 0-2.68 1.56-4.64 7-6.6 1.56-.48 3.48-1 5.32-1.44v-1.29c0-4.4-1.32-5.48-4.36-5.48a8.27 8.27 0 00-2.8.44l-.88 3c-.32 1.16-.92 1.76-2 1.76a1.61 1.61 0 01-1.76-1.52c.84-3.28 4-5.24 8.2-5.24 4.44 0 6.6 2 6.6 7.2V27c0 2.31.64 3 1.72 3a2.36 2.36 0 001.8-.95zm-7.24-10a42.8 42.8 0 00-4.48 1.44c-3.88 1.48-4.6 3.16-4.6 4.76 0 2.39 1.52 3.47 3.68 3.47 1.68 0 2.84-.71 5.4-2.76zm64.47 10.23v1.28h-9.72v-1.28l3.4-.48c0-2.24.08-5.27.08-7.35V18.2c0-4.16-1.32-5.4-3.83-5.4-1.88 0-3.88.76-6.36 3.2a17.33 17.33 0 01.12 2.12v4.16c0 2.08 0 5.11.08 7.31l3.16.52v1.28H173v-1.28l3.4-.48c0-2.19.08-5.27.08-7.35v-4c0-4.08-1.24-5.48-3.72-5.48-2 0-3.84.84-6.32 3.12v6.36c0 2 0 5.11.08 7.31l3.16.52v1.28h-9.76v-1.28l3.36-.48c.08-2.24.12-5.32.12-7.35v-2.2c0-2.56-.08-4.24-.16-6.08l-3.56-.28v-1.28l5.76-2.12.56.4.32 3.68c2.28-2.52 5.08-4.12 7.72-4.12s4.4 1.24 5.08 4.2a10.31 10.31 0 018-4.2c3.44 0 5.48 2.12 5.48 7.52v4.48c0 2.08 0 5.11.08 7.31zm17.43 0v1.28h-9.76v-1.28l3.44-.52c0-2.2.08-5.28.08-7.31V20c0-2.48 0-4.08-.08-6.08l-3.68-.24V12.4l6.28-2.08.6.4-.11 5.68v5.88c0 2 0 5.11.08 7.31zm-7.36-27.67a2.54 2.54 0 015.08 0 2.54 2.54 0 01-5.08 0zM230 19.76c4.24 1.56 5.84 3.48 5.84 6.15 0 3.16-2.76 6-8.2 6a14.13 14.13 0 01-6.4-1.56l-.16-4.68H223l.88 3.88a9 9 0 003.76.76c3.56 0 5.24-1.47 5.24-3.64 0-1.95-1.24-2.95-4.16-4l-2-.76c-3.2-1.16-5.28-2.84-5.28-5.8 0-3.12 2.6-5.84 7.32-5.84a11.16 11.16 0 016 1.72l-.16 4.32h-1.76l-.72-3.56a6.81 6.81 0 00-3.36-.88c-2.92 0-4.4 1.36-4.4 3.32s1.12 2.88 4.08 4zM256 30a6.17 6.17 0 01-4.8 2c-3 0-4.72-1.64-4.72-5V12.68h-3.92V11.2l4.08-.48 1-5.92h2.2l-.24 6h6v1.84h-6v14.11c0 2.37 1 3.36 2.6 3.36a5.06 5.06 0 003-1.15zm57.08.11v1.28h-9.72v-1.28l3.4-.48c0-2.24.08-5.27.08-7.35V18.2c0-4.16-1.32-5.4-3.84-5.4-1.88 0-3.88.76-6.36 3.2a17.33 17.33 0 01.12 2.12v4.16c0 2.08 0 5.11.08 7.31l3.16.52v1.28h-9.72v-1.28l3.4-.48c0-2.19.08-5.27.08-7.35v-4c0-4.08-1.24-5.48-3.72-5.48-2 0-3.84.84-6.32 3.12v6.36c0 2 0 5.11.08 7.31l3.16.52v1.28h-9.76v-1.28l3.36-.48c.08-2.24.12-5.32.12-7.35v-2.2c0-2.56-.08-4.24-.16-6.08l-3.52-.28v-1.28l5.76-2.12.56.4.32 3.68c2.28-2.52 5.08-4.12 7.72-4.12s4.4 1.24 5.08 4.2a10.33 10.33 0 018-4.2c3.44 0 5.48 2.12 5.48 7.52v4.48c0 2.08 0 5.11.08 7.31zm28.05 0v1.28l-5.68.36-.32-4c-2.24 2.76-5 4.2-7.8 4.2-3.6 0-5.72-2-5.68-7.91l.12-11.12-3.31-.56v-1.28l6-.52.4.44-.2 6.08v6.71c0 4.17 1.28 5.6 3.88 5.6a9.11 9.11 0 006.52-3.19l.08-13.28-3.28-.56v-1.28l5.92-.52.44.44-.16 6.08v12.55zm12.28-19.79l.56.4-.12 5.68v10.28c0 7.67-.32 10.75-2.44 13.15a6.49 6.49 0 01-5.24 2.48c-2.48 0-3.52-1.12-3.64-2.08a2.23 2.23 0 012.32-1.56 4.74 4.74 0 013 1.12l1 .68a3.14 3.14 0 001-1.36c.88-1.8 1.08-5.52 1.08-11.91v-7.12c0-2.56 0-4.24-.12-6.12l-3.56-.24V12.4zm1.48-7.88a2.54 2.54 0 01-5.08 0 2.54 2.54 0 015.08 0zm30.33 27.67v1.28l-5.68.36-.32-4c-2.24 2.76-5 4.2-7.8 4.2-3.6 0-5.72-2-5.68-7.91l.12-11.12-3.32-.56v-1.28l6-.52.4.44-.2 6.08v6.71c0 4.17 1.28 5.6 3.88 5.6a9.11 9.11 0 006.52-3.19l.08-13.28-3.28-.56v-1.28l5.92-.52.44.44-.16 6.08v12.55zm28.69 0v1.28l-5.68.36-.32-4c-2.24 2.76-5 4.2-7.8 4.2-3.6 0-5.72-2-5.68-7.91l.12-11.12-3.32-.56v-1.28l6-.52.4.44-.2 6.08v6.71c0 4.17 1.28 5.6 3.88 5.6a9.11 9.11 0 006.52-3.19l.08-13.28-3.28-.56v-1.28l5.92-.52.45.44-.16 6.08v12.55z" fill="#fff" data-name="レイヤー 1"/></g></svg>