<svg xmlns="http://www.w3.org/2000/svg" viewBox="0 0 498.08 46.1"><g data-name="レイヤー 2"><path d="M25.9 13.4c4.55 8.8 12.9 16.6 20.7 20.15l-.1.5a4.08 4.08 0 00-3.3 2.75c-7.6-4.65-14.45-13-18.45-23.4v20.5h4.55l2.35-3.15S34.3 33 36 34.55c-.15.55-.65.8-1.35.8h-9.9v9.35c0 .5-1.4 1.25-2.7 1.25h-.65v-10.6H10.85l-.4-1.45h11V16.3a51.1 51.1 0 01-20.9 21L0 36.5a55.72 55.72 0 0018.75-23.1H1l-.45-1.5H21.4V.1l5.2.6c-.15.75-.55 1.25-1.85 1.45v9.75h13.8l2.6-3.25s2.9 2.25 4.65 3.95c-.1.55-.6.8-1.3.8zm43.4-8.55c11.45 4.45 9 11.7 5.55 9.3a15.22 15.22 0 00-1.6-3.3c-4 .8-9.2 1.85-16 3.05A1.63 1.63 0 0156 15l-1.6-4c1.45 0 3.55-.1 6.15-.3A105.61 105.61 0 0063.4 0l5.4 1.25a1.72 1.72 0 01-1.8 1 71.19 71.19 0 01-4.85 8.2c3.1-.15 6.7-.45 10.45-.7a33 33 0 00-3.9-4.55zm3.25 10.75l4.2 3.2a3.91 3.91 0 01-2.1.95V41.2c0 2.65-.45 4.25-4.55 4.65a3.72 3.72 0 00-.8-2.4 5.7 5.7 0 00-3.15-1.2v-.8s3.5.3 4.35.3 1-.25 1-1v-7.1H61.15v11c0 .35-1.25 1.15-2.6 1.15h-.5V16.05l3.35 1.6H71zm-11.4 3.55v5.7h10.3v-5.7zm10.3 13.05v-5.9h-10.3v5.9zM85.1 21.5c-3.9 0-4.65-.75-4.65-3.25V.6l4.7.55c-.05.6-.55 1.1-1.45 1.25v8a45.73 45.73 0 0011.35-7l4 2.8c-.4.5-1.2.55-2.4.25a63.24 63.24 0 01-12.9 5v6.1c0 .8.15 1.05 2 1.05h4.75c2.1 0 3.85 0 4.45-.1s.8-.15 1-.5a31.83 31.83 0 001.4-5.25H98l.15 5.4c1.1.35 1.4.7 1.4 1.3 0 1.55-1.6 2.05-9.2 2.05zm13.45 20c1.1.45 1.4.8 1.4 1.45 0 1.5-1.65 2-9.4 2H85.2c-4 0-4.75-.8-4.75-3.4v-18.3l4.8.55a1.64 1.64 0 01-1.55 1.25v8.4a42.94 42.94 0 0011.5-7.75l4.25 2.75c-.35.45-1.15.55-2.35.3a57.29 57.29 0 01-13.4 5.75V41c0 .8.2 1 2.1 1h9.5c.55-.05.8-.2 1-.6a32.33 32.33 0 001.5-5.7h.6zm43.55-27a8.44 8.44 0 013.7 1.35c1.25.85 2.7 2.5 2.7 3.9 0 .9-.5 1.05-2.45 1.65a96.46 96.46 0 00-14.25 5.65c.15 2.85.15 6.5.15 8.1 0 1.2-.55 2-1.55 2-.85 0-1.65-.55-1.65-1.9s.2-3.9.25-6.6c-4.85 2.75-8.35 5.95-8.35 8.9 0 2.8 3.2 4 7.95 4 7.4 0 10.3-1.55 12.7-1.55 1.75 0 2.65.6 2.65 1.55 0 .75-.25 1.4-1.85 1.85a54.54 54.54 0 01-11.2 1.35c-9.3 0-12.36-2.9-12.36-6.85s4.56-8 10.41-11.65c-.2-4.25-1.15-5.8-3.75-5.8-2.8 0-6.1 2.8-8.2 5-1.75 1.9-3.16 4.25-4.36 4.3-1 0-1.7-.75-1.7-2s1.85-2.6 4.1-5a47.87 47.87 0 007-9.15 30.57 30.57 0 01-3.6.25c-4.11 0-5-1.1-7-5.05l1-.65c2 2.1 2.86 3.15 6.56 3.15a24.25 24.25 0 004.45-.5 19.56 19.56 0 001.65-4.4c.25-.9.1-1.25-.9-1.65a9.84 9.84 0 00-2.8-.7v-1a10.7 10.7 0 012.85-.5c1.55 0 4.8.85 4.8 2.05 0 .7-.4 1.05-1 2.15-.35.8-1 2.05-1.6 3.3a49.27 49.27 0 006.5-2.15c2.1-1 2.45-1.4 3.2-1.4 1.1 0 2.15.4 2.15 1.35 0 .65-.45 1.1-1.4 1.55a58.57 58.57 0 01-11.9 3.7 59.37 59.37 0 01-4.8 7c-.2.25 0 .5.3.3a12.68 12.68 0 015.5-1.7c3.15 0 5.05 2.15 5.55 5.9 4-2.2 9.15-4.25 12.15-5.85.85-.45 1-.9.25-1.7a7.09 7.09 0 00-2.45-1.7zm40.04-9.95s2.7 2.15 4.35 3.65c-.15.55-.6.8-1.3.8h-11.9v5.6h6.3l1.55-1.9 4.1 3a3.91 3.91 0 01-2.2 1V24c0 2.45-.4 3.85-4.1 4.3a3.79 3.79 0 00-.7-2.15 4.87 4.87 0 00-2.91-1.05v-.8s3.11.25 3.91.25c.65 0 .85-.25.85-.9v-7.6h-6.8V28.7c13.4 4.05 11.9 12 8.15 9.8-1.2-3-4.95-6.5-8.15-8.75V44.6c0 .5-1.35 1.3-2.55 1.3h-.61V30.15a47.07 47.07 0 01-12.85 12.7l-.5-.75a44.19 44.19 0 0013.35-19.7v-6.35h-6.65V28.2a3.15 3.15 0 01-2.6 1.05h-.5V13l3.7 1.65h6V9h-12.2l-.35-1.45h12.55V.35L175 .9c-.1.7-.5 1.2-1.75 1.4v5.25h6.5zm9.4 30.1c0 .45-1.3 1.1-2.5 1.1h-.6V4.45l4.9.55c-.1.7-.55 1.2-1.8 1.35zm11.1-33c-.1.7-.6 1.15-1.8 1.3V41.1c0 2.65-.55 4.35-5.1 4.8a3.47 3.47 0 00-1.05-2.4 8.78 8.78 0 00-4.1-1.3v-.75s4.9.4 5.9.4 1.15-.3 1.15-1.1V1.05zM211 12.5c9.95 1.25 7.75 8.2 4.3 6.15a12.48 12.48 0 00-4.75-5.7zm12.75-1.95c-1.75 5.8-5.25 16.65-5.85 18.85a14.91 14.91 0 00-.65 4.25c0 2.15 1.4 4.7 1.2 8.8-.1 2.15-1 3.45-2.65 3.45-.85 0-1.4-.95-1.45-2.55.65-5.15.4-9.25-.65-10a5.07 5.07 0 00-2.45-.75v-1.1h2.15c.55 0 .75 0 1.25-1 .75-1.7.75-1.7 8.25-20.25zm-9.3-9.8c10.55 1.75 8.45 8.7 5 6.65-.85-2.15-3.4-4.75-5.45-6.2zm25.7 31.65a3.08 3.08 0 01-1.85.7c-.35 6.85-1.15 10.3-2.8 11.6a6.66 6.66 0 01-4.1 1.3 2.57 2.57 0 00-.7-2.1 7.75 7.75 0 00-3.1-1V42c1.35.1 3.75.3 4.55.3a1.87 1.87 0 001.45-.4c.85-.7 1.4-3.65 1.75-9.15h-5.55A18 18 0 01220 46.1l-.35-.8c5.85-4.6 7.3-10 7.55-17.65h-6.15l-.4-1.4h8.6v-5.1l4.7.5c-.1.65-.5 1.1-1.65 1.3v3.3h3.7l2.25-2.8s2.5 2 4.05 3.45c-.1.5-.6.75-1.3.75h-10.5c-.1 1.3-.25 2.55-.45 3.7h4.85l1.7-1.85zM227.25 22c0 .3-1.25 1-2.55 1h-.45V4.8l3.25 1.5h1.6c.25-1.7.55-4.35.7-6.1l4.8.75c-.15.7-.7 1.15-1.8 1.25-.6 1.2-1.5 2.85-2.25 4.1h4.55l1.65-1.85 3.8 2.85a3.92 3.92 0 01-2.05 1v12.8a3.91 3.91 0 01-2.5 1h-.4v-1.8h-8.35zm0-14.25v4.85h8.35V7.7zm8.35 11.15V14h-8.35v4.85zm17.8-6.8c-.4 8.5-1.4 15.55-4.4 21.4a24.39 24.39 0 008.75 9.55l-.15.5a3.42 3.42 0 00-3.1 2.45 25.1 25.1 0 01-7.2-9.6 30.67 30.67 0 01-10.65 9.5l-.5-.65a31.34 31.34 0 009.95-11.8A65.58 65.58 0 01243 17.2a31.47 31.47 0 01-3.5 5.7l-.8-.45A69 69 0 00244.3.2l5 1a1.77 1.77 0 01-1.75 1.2 71.09 71.09 0 01-2.1 8.25h5.25l2.25-3s2.65 2.1 4.2 3.6c-.1.55-.6.8-1.25.8zm-8.35 0c-.4 1.1-.8 2.2-1.25 3.25a60.09 60.09 0 003.6 15c1.9-5.35 2.6-11.35 2.7-18.3zm39.79-7.9a7.78 7.78 0 013.4-1.05c2.05 0 5.15 1.1 5.15 2.35s-.75 2-.85 3.2c-.05.65-.05 1.65-.1 2.85 8.25-.9 11.45-1.35 12.5-1.35 1.75 0 4.35 1 4.35 2.55 0 .9-.45 1.3-1.4 1.3-1.6 0-5.4-1.2-15.45-.35 0 2.4.05 5.2.05 7.7 1.45 1.5 2.1 3.85 2.1 6.75 0 9.15-6.9 14.75-16.55 17.15l-.65-1.25c6.1-2.25 11.1-5.8 12.9-10.7-4.9 2.25-8.9-1.6-8.9-6.7 0-3.65 2.45-7 6.55-7a8.85 8.85 0 012.05.25c-.05-1.5-.15-3.65-.25-5.9a112.52 112.52 0 00-13.25 2.45c-2.25.55-3.25 1.35-4.55 1.35-1.65 0-4-2.25-4.55-3.65a9.67 9.67 0 01-.5-3l.95-.35c1.1 1.65 2.05 3.25 3.75 3.25 1.85.05 12.15-1.5 18.05-2.15-.05-1.8-.15-3.5-.25-4.75-.1-1-.35-1.3-1.15-1.55a20 20 0 00-3.3-.35zm6.45 22.35c0-3.25-1.6-4.9-3.75-4.9-2.5 0-4.1 2.2-4.1 4.75 0 2.85 1.75 4.8 4.05 4.8 2.51 0 3.8-1.2 3.8-4.65zM324 5.15c.65 1.45 1.3 2.95 2.6 2.95 2 0 8.3-1.6 10.55-2.25 1.1-.35 1.25-.85 2-.85 1.5 0 4.25 2.1 4.25 3.45 0 1-1.15 1-2.9 2.55-2.55 2.1-9.2 8.55-11.45 11.05-.35.3-.15.7.25.5a24.7 24.7 0 018.6-1.75c6.5 0 12 4.25 11.9 11.2-.1 6.25-5.7 11.4-15.15 11.4-5.6 0-9.4-2.25-9.4-5.85 0-2.65 2.35-4.7 5.6-4.7a8.14 8.14 0 018.15 7.2c5-1.4 7.5-4.9 7.6-8.8.15-4.4-3.2-8.8-9.35-8.8-7.2 0-12.25 4.5-16.45 9.9-.75.95-1.15 1.25-1.9 1.2s-1.35-.75-1.3-2c.05-.9.5-1.6 1.65-2.75 7.85-8.2 16.9-16.8 19-20.15.45-.75.15-1-.45-.85a82 82 0 00-8.1 2.75c-.95.4-1.65 1.15-2.45 1.15-1.9 0-3.75-2.15-4.15-3.6a6.64 6.64 0 01.05-2.8zm12 35.4c-.65-3.85-3.1-5.85-5.95-5.85-1.75 0-3.1 1-3.1 2.65s2.15 3.3 7 3.3c.7 0 1.4-.05 2.05-.1zm51.58-28.05c4.4 4.9 12.6 8.5 20 10.25l-.05.55a3.39 3.39 0 00-2.8 2.75c-7.55-2.6-14.75-7.3-18.55-13.55h-.3v10.8a3.49 3.49 0 01-2.7 1h-.5V13.4c-4.95 6-12.45 10.75-20.9 13.9l-.5-.8a51 51 0 0017.65-14h-16.5L362 11h20.7V5.5c-5.5.5-11.3.85-16.85.85l-.15-1c11-.8 24.6-3 31.75-5.25l3.5 3.55c-.4.35-1.35.35-2.55-.1-3.55.55-7.85 1.15-12.5 1.6V11h14.25l2.3-2.85s2.65 2 4.3 3.55c-.1.55-.6.8-1.3.8zm8.65 11.3l3.9 2.95a3.54 3.54 0 01-1.95.95v16.8c-.05.35-1.65 1.1-2.75 1.1h-.5v-3.05h-21.25v2.2c0 .35-1.35 1.1-2.7 1.1h-.55v-21.7l3.5 1.55h20.55zm-22.55 3.4v6.05h21.25V27.2zm21.25 13.85V34.7h-21.25v6.35zM421.47 2.2l.65-.65a7.61 7.61 0 012.4 1.1c1.85 1.25 3.3 3.5 3.3 4.6a11.68 11.68 0 01-.65 2.95 39.89 39.89 0 00-1.17 5.05c-.2 1.05.2 1.1.75.1 2.35-4.15 5.85-7.15 9.1-7.15 6 0 8.75 6.45 8.75 15.35 0 10.35-4.6 18.7-18 22.2l-.55-1.15c12.1-4.85 15.05-12.45 15.05-21.4 0-8.15-2.25-13-5.75-13-2.35 0-5.5 2.25-7.25 5.6a20.11 20.11 0 00-2.6 9.55c0 2 .3 3.45.3 5.1a1.43 1.43 0 01-1.4 1.6 1.77 1.77 0 01-1.75-1.25 14 14 0 01-.75-4.65c0-5.4 2.4-15 2.4-17.75s-.73-3.8-2.83-6.2zm70.21 12.3a8.44 8.44 0 013.7 1.35c1.25.85 2.7 2.5 2.7 3.9 0 .9-.5 1.05-2.45 1.65a96.46 96.46 0 00-14.25 5.65c.15 2.85.15 6.5.15 8.1 0 1.2-.55 2-1.55 2s-1.65-.55-1.65-1.9.2-3.9.25-6.6c-4.85 2.75-8.35 5.95-8.35 8.9 0 2.8 3.2 4 7.95 4 7.4 0 10.3-1.55 12.7-1.55 1.75 0 2.65.6 2.65 1.55 0 .75-.25 1.4-1.85 1.85a54.54 54.54 0 01-11.2 1.35c-9.3 0-12.36-2.9-12.36-6.85s4.56-8 10.41-11.65c-.2-4.25-1.15-5.8-3.75-5.8-2.8 0-6.1 2.8-8.2 5-1.75 1.9-3.16 4.25-4.36 4.3-1 0-1.7-.75-1.7-2s1.86-2.6 4.1-5a47.87 47.87 0 007-9.15 30.43 30.43 0 01-3.6.25c-4.11 0-4.95-1.1-6.95-5.05l1-.65c2 2.1 2.86 3.15 6.56 3.15a24.25 24.25 0 004.45-.5 19.56 19.56 0 001.65-4.4c.25-.9.1-1.25-.9-1.65a9.84 9.84 0 00-2.8-.7v-1a10.7 10.7 0 012.85-.5c1.55 0 4.8.85 4.8 2.05 0 .7-.4 1.05-1 2.15-.35.8-1 2.05-1.6 3.3a49.27 49.27 0 006.5-2.15c2.1-1 2.45-1.4 3.2-1.4 1.1 0 2.15.4 2.15 1.35 0 .65-.45 1.1-1.4 1.55a58.57 58.57 0 01-12.05 3.7 59.37 59.37 0 01-4.8 7c-.2.25 0 .5.3.3a12.68 12.68 0 015.5-1.7c3.15 0 5.05 2.15 5.55 5.9 4.05-2.2 9.15-4.25 12.15-5.85.85-.45 1-.9.25-1.7a7.09 7.09 0 00-2.45-1.7z" fill="#fff" data-name="レイヤー 1"/></g></svg>