<svg xmlns="http://www.w3.org/2000/svg" viewBox="0 0 494.92 125.9"><g data-name="レイヤー 2"><path d="M178.27 14.15s2.45 1.9 4 3.4c-.15.55-.6.8-1.35.8h-21.15l-.35-1.5h9.15v-4.5h-7l-.4-1.5h7.45V7h-7.9l-.4-1.45h8.3V.3l4.8.5c-.05.7-.5 1.1-1.55 1.3v3.4h3.6l2.05-2.7s2.45 2 3.95 3.4c-.15.55-.6.75-1.25.75h-8.35v3.9H175l2-2.45s2.3 1.8 3.7 3.15c-.15.55-.55.8-1.25.8h-7.6v4.5h4.3zm25 5.7a42.23 42.23 0 012.9 3.15 1.15 1.15 0 01-1.25.75h-3.65v10.1a3.65 3.65 0 01-2.45.95h-.6v-2.7h-5.9v8.8c0 2.55-.6 4.4-4.85 4.85a3.49 3.49 0 00-.95-2.3c-.7-.6-1.85-1-3.9-1.25v-.75s4.55.3 5.5.3c.8 0 1-.25 1-1V32.1h-7.35l-.45-1.45h7.8v-6.9h-8.9l-.1-.45a4.45 4.45 0 01-1.95.85V41.3c0 2.5-.5 4.05-4.65 4.5a4 4 0 00-.85-2.3 7.38 7.38 0 00-3.5-1.15v-.8s3.95.3 4.85.3 1.05-.25 1.05-1V35.1h-9.35v9.6c0 .3-1.25 1.1-2.55 1.1h-.55V20.55L166 22.1h8.6l1.55-2 4 3-.2-.8h9.25v-6.7h-6.65l-.45-1.45h8.85a56.17 56.17 0 004.05-7.1h-6.9a34.72 34.72 0 01-7.45 7.6l-.6-.5A41.73 41.73 0 00188 .1l4.95 1.35c-.15.5-.5.75-1.75.65a38.1 38.1 0 01-2.1 3.5h6l2.05-2.1 3.7 3.4c-.35.35-.95.45-1.95.5a69.1 69.1 0 01-6.6 6.75h5.95v-.05h.1l1.65-1.8 3.2 2.95a4.2 4.2 0 01-1.9.85v6.2h.45zm-37.55 3.7v4.15h9.35v-4.15zm9.35 10.1V29.2h-9.35v4.45zm17.2-11.35h5.9v-6.7h-5.9zm5.9 1.45h-5.9v6.9h5.9zm54.11-12.9a11.1 11.1 0 013.55 1c1.8 1 3 2.95 3 4s-1.2 1.4-3.2 2.1a82.4 82.4 0 00-12.2 5.7c-4 2.3-9.5 6.5-9.5 11.15 0 3 2.8 5.3 10.6 5.3 7.1 0 10.85-1.4 12.3-1.4 1.75 0 3.3.45 3.3 2 0 .65-.8 1.25-1.8 1.55a52.41 52.41 0 01-12.75 1.2c-8.75 0-14-2.85-14-8.05 0-5.65 5.8-10.5 9.1-12.85a8.67 8.67 0 01-2.95-4.25 57.77 57.77 0 01-2.2-10.45 1.77 1.77 0 00-1.4-1.65 19.81 19.81 0 00-2.75-.65l-.05-1a11.66 11.66 0 013.2-.5c2.25 0 4.9 1.6 4.95 2.75a25.45 25.45 0 00-.35 2.6 31.71 31.71 0 001.1 7.6 7.11 7.11 0 002.77 4c3.7-2.2 8.85-4.8 10.7-5.8.8-.4 1-.75.65-1.4a5.43 5.43 0 00-2.55-2.1zM329.2 39.2s2.8 2.2 4.45 3.85c-.1.55-.55.75-1.25.75h-43.85l-.45-1.45h21V29.9h-16l-.45-1.5h30.65l2.35-2.9s2.75 2.05 4.4 3.6a1.2 1.2 0 01-1.3.8h-16.3v12.45h14.25zM295.05 8.6c.05 3.45-1.25 5.8-2.6 6.9-1.2 1.05-3 1.3-3.65.2s.05-2.1 1.1-2.8c2-1.4 3.75-5.05 3.55-8.85h.9A19.25 19.25 0 01295 7.1h14.1V0l5.1.55c-.1.65-.6 1.15-1.75 1.3V7.1h15.05l2.2-2.2 3.95 3.8c-.3.4-.95.45-1.9.5a42.86 42.86 0 01-7.2 6.15l-.65-.35a68.1 68.1 0 003.55-6.4h-9.7v10.65c0 .7.2.85 1.95.85h4.6c2 0 3.65 0 4.35-.05s.7-.15.9-.6a27.7 27.7 0 001.45-5.4h.65l.15 5.55c1.1.4 1.35.8 1.35 1.45 0 1.45-1.45 2.05-9 2.05H319c-3.8 0-4.5-.8-4.5-3.25V8.6h-6.25c-1.7 9.85-7.05 14.85-18.8 17.65l-.25-.75c9.95-3.5 13.95-8.5 15.2-16.9zm63.2 24.75c6 1.9 9.15 4.45 10.8 6.85a5.5 5.5 0 011.2 3.35 2 2 0 01-2.05 2.25c-1.05 0-1.7-.6-2.4-2.1a23.11 23.11 0 00-8.1-9.5zM37.5 100.45v10.35h2.15l2.15-3s2.55 2.1 4.05 3.65c-.15.5-.55.75-1.25.75H.75l-.4-1.4H8.1v-10.35H.4l-.4-1.4h8.1V89.8a33.72 33.72 0 01-7.35 5.8l-.6-.6a44.94 44.94 0 0010.4-15l4.95 2.3a2 2 0 01-2.05.65 37 37 0 01-2.75 3.95l.9.4h26.65l2.4-3s2.65 2.1 4.25 3.6c-.1.55-.6.8-1.3.8h-6.1v10.35h2.3l2.25-3s2.65 2.1 4.2 3.6c-.1.55-.55.8-1.25.8zm-28.75 13.7c1.1 6.15-1.8 9.7-4.2 11-1.4.9-3.25.95-3.8-.2-.4-1 .25-2 1.3-2.6a10 10 0 005.85-8.25zm2.35-15.1h5.5V88.7h-5.5zm0 11.75h5.5v-10.35h-5.5zm4.3 3.85c7.45 6.45 3.75 13.15 1 10a22.8 22.8 0 00-1.75-9.8zm4.2-25.95v10.35h5.9V88.7zm0 11.75v10.35h5.9v-10.35zm5 14.1c10.15 5.45 7.35 12.75 4.2 10-.35-3.1-2.8-7.15-4.8-9.6zm4-25.85v10.35h5.8V88.7zm5.8 11.75h-5.8v10.35h5.8zm0 13.5c14.15 5 12 14 8 11.4-1-3.7-5.15-8.35-8.6-10.95zm76.91 5.75s2.85 2.2 4.5 3.8c-.1.5-.55.75-1.3.75h-44.2L70 122.8h21.1v-5.65H74.26l-.45-1.5h17.25v-5.05h-11.2v1c0 .35-1.4 1.1-2.75 1.1h-.5V94.35L80.16 96h10.9v-4.7h-19.9l-.45-1.45h20.35V85.2c-5.5.5-11.3.8-16.75.85l-.15-1c11.1-.8 25-3 32.4-5l3.35 3.4c-.45.35-1.4.35-2.6-.2-3.7.6-8.15 1.2-13 1.7v4.9h14l2.35-3s2.75 2.1 4.45 3.65c-.15.5-.65.75-1.35.75h-19.4V96h10.8l1.8-2 4.1 3.1a3.91 3.91 0 01-2.15 1v13.3a5.38 5.38 0 01-2.75.9h-.5v-1.7h-11.3v5.05h11.7l2.25-2.7s2.65 2 4.2 3.4a1.14 1.14 0 01-1.25.8h-16.9v5.65h14.5zM79.86 97.45v5h11.2v-5zm11.2 11.65v-5.2h-11.2v5.2zm3.3-11.65v5h11.3v-5zm11.3 11.65v-5.2h-11.3v5.2zM182.48 94a4 4 0 01-2.1.8c-.45 14.6-1.65 25.7-4 28.45a8.19 8.19 0 01-6.2 2.3 2.9 2.9 0 00-1-2.55 21 21 0 00-5.9-1.65v-.9c2.7.3 7.1.7 8.4.7a2.34 2.34 0 002.05-.7c1.95-1.7 2.9-12.55 3.3-26.15h-14.9c-1 12.65-4.7 23.7-21.75 31.6l-.6-.9c14.45-8.1 17.95-18.55 18.8-30.7h-15.85l-.45-1.45h16.4c.2-4 .2-8.3.2-12.7l5.45.6c-.15.7-.6 1.25-1.8 1.4-.05 3.65-.1 7.25-.3 10.7h14.3l2-2.2zm57.52.45a8.44 8.44 0 013.7 1.35c1.25.85 2.7 2.5 2.7 3.9 0 .9-.5 1-2.45 1.65a96.46 96.46 0 00-14.27 5.65c.15 2.85.15 6.5.15 8.1 0 1.2-.55 2-1.55 2-.85 0-1.65-.55-1.65-1.9s.2-3.9.25-6.6c-4.85 2.75-8.35 6-8.35 8.9 0 2.8 3.2 4 7.95 4 7.4 0 10.3-1.55 12.7-1.55 1.75 0 2.65.6 2.65 1.55 0 .75-.25 1.4-1.85 1.85a54.54 54.54 0 01-11.2 1.35c-9.3 0-12.35-2.9-12.35-6.85s4.55-8 10.4-11.65c-.2-4.25-1.15-5.8-3.75-5.8-2.8 0-6.1 2.8-8.2 5-1.75 1.9-3.15 4.25-4.35 4.3-1 0-1.7-.75-1.7-2s1.85-2.6 4.1-5a48.23 48.23 0 007-9.15 30.43 30.43 0 01-3.6.25c-4.1 0-5-1.1-7-5l1.05-.65c2 2.1 2.85 3.15 6.55 3.15a24.25 24.25 0 004.45-.5 19.56 19.56 0 001.65-4.4c.25-.9.1-1.25-.9-1.65a9.84 9.84 0 00-2.8-.7V83a10.7 10.7 0 012.85-.5c1.55 0 4.8.85 4.8 2 0 .7-.4 1-.95 2.15-.35.8-1 2-1.6 3.3a49.27 49.27 0 006.5-2.15c2.1-.95 2.45-1.4 3.2-1.4 1.1 0 2.15.4 2.15 1.35 0 .65-.45 1.1-1.4 1.55a58.57 58.57 0 01-12.05 3.7 59.37 59.37 0 01-4.8 7c-.2.25-.05.5.3.3a12.68 12.68 0 015.5-1.7c3.15 0 5.05 2.15 5.55 5.9 4-2.2 9.15-4.25 12.15-5.85.85-.45.95-.9.25-1.7a7.09 7.09 0 00-2.45-1.7zm37.71-.7c0 5.8-.5 13.85-6.9 19.3l-.6-.6c4-5.55 4.35-12.4 4.35-18.65v-9.4l3.75 1.65h18.4c-.25-2-.4-4.1-.45-6.2l4.95.5c-.1.6-.5 1.15-1.6 1.3.05 1.45.15 2.9.3 4.4h10l2.1-2.9s2.45 2.1 3.9 3.6c-.1.5-.55.75-1.25.75h-14.55a35.16 35.16 0 003.65 11.5 40.14 40.14 0 004-8.9l4.8 1.85a1.78 1.78 0 01-1.95.85 36.23 36.23 0 01-5.2 8.85 20.8 20.8 0 005.75 5.5c.7.55 1 .55 1.45-.2a34.4 34.4 0 001.8-4.75l.65.15-.65 6.1c1.35 1.6 1.5 2.25 1.15 2.8-1 1.45-3.8.35-5.9-1a26 26 0 01-6.4-6.2 30.41 30.41 0 01-8.6 6.1l-.6-.65a31.52 31.52 0 007.75-7.55 38.71 38.71 0 01-4.9-14.4h-19.2zm.9 18.85c1.05 5.8-1.45 9.4-3.6 10.8-1.3.8-3.1 1-3.7-.1-.45-1 .25-2 1.3-2.7a10.25 10.25 0 005.1-8zm14.5-23.3s2.35 1.9 3.85 3.3c-.15.55-.6.8-1.3.8h-15.85l-.4-1.5H291zm-9.3 18.4a3.47 3.47 0 01-2.55 1h-.45V95.8l3.25 1.45H291l1.65-1.85 3.9 2.95a3.93 3.93 0 01-2 .9v7.4c-.05.35-1.65 1-2.65 1h-.45v-1.8h-7.6zm20.7 13.8c1.15.35 1.45.7 1.45 1.3 0 1.55-1.65 2.1-10.8 2.1h-6.6c-4.35 0-5.15-.7-5.15-3.2v-10.1l4.65.5a1.56 1.56 0 01-1.45 1.25v7.8c0 .7.2.85 2.4.85h6.3c2.85 0 5.05 0 5.9-.1a1 1 0 001.1-.6 28.19 28.19 0 001.45-5.2h.65zm-20.7-22.75v5.65h7.6v-5.65zm5.65 11.65c11.65 2 10.25 9.35 6.65 7.55-1.05-2.5-4.45-5.55-7.1-7zm13.2-30.35c8.95.55 6.95 6.4 3.9 4.7a11.36 11.36 0 00-4.35-4.2zm2.7 32.2c13.65 4.7 11.35 13.45 7.4 10.9-1-3.55-4.8-7.9-7.95-10.4zm38.36-26.2V85a13.86 13.86 0 013.25-.35c2.35.1 5.8 2.65 5.8 4 0 1-.95 1.4-1.4 3.75a131.89 131.89 0 00-1.65 19.6c0 6.35 1.85 8.75 7.35 8.75 8.6 0 15.6-5.4 18.95-10.7l1.1.75c-3.7 7.85-11.2 13.3-20.05 13.3-6.7 0-10.15-3.25-10.15-11.8 0-7.75 1.2-19.5 1.2-22.4 0-1.8-.3-2.35-1.15-2.85a9.93 9.93 0 00-3.25-1zm21 11.15a21.42 21.42 0 00-5-4.8l.65-.85a19.68 19.68 0 016.1 3.4c1.45 1.2 2.15 2.4 2 3.5a1.09 1.09 0 01-1.2 1.15c-.75 0-1.4-1-2.5-2.4zm5-4.3a22.64 22.64 0 00-5.4-4.65l.65-.85a18.79 18.79 0 016.15 3c1.5 1.2 2.3 2.45 2.3 3.65a1.09 1.09 0 01-1.15 1.2c-.85.05-1.4-.9-2.55-2.35zm52.8 4.8c0 2.3.2 8.9.5 12.85.05.45.1.9.15 1.3a29.67 29.67 0 017.2 2.3c3.1 1.4 7.35 4 7.35 6.6a1.32 1.32 0 01-1.45 1.45c-1.5 0-3.1-2.85-7.9-5.55a21 21 0 00-4.85-2c.05.65.1 1.35.1 2.2 0 4.2-3.15 7-9.25 7-5.2 0-8.85-2.25-8.85-5.8 0-4.65 5.8-6.75 11.8-6.75 1.15 0 2.25 0 3.25.15-.15-3.8-.6-10.7-.6-14.1-.05-3.25-.1-8.8-.2-9.8a1.75 1.75 0 00-1.35-1.8 15.55 15.55 0 00-3.5-.5l-.1-1a11.34 11.34 0 013.7-.75c2.6 0 5.7 1.65 5.7 2.85s-.6 1.55-1 3a39.09 39.09 0 00-.65 6c.55.05 1.1.05 1.45.05a27.56 27.56 0 006.45-1c1.55-.5 2.45-1.1 3.15-1.1 1.95 0 2.9.65 2.9 1.75 0 .6-.55 1.2-1.85 1.6a35.42 35.42 0 01-8.8 1.35 9.13 9.13 0 01-3.35-1zm-1.85 16.3a30.23 30.23 0 00-4.85-.4c-4.8 0-8.3 1.8-8.3 4.2 0 1.75 1.85 3.15 5.6 3.15 6.15.05 7.5-2.2 7.55-6.95zm48.55-18c.8 2 1.7 3.15 2.85 3.15 2.2 0 8.75-4.05 14.1-4.05s8.75 4.1 8.75 10.75c0 11.05-8.6 17.2-22.1 19.3l-.4-1.15c12.15-3 18.9-8.85 18.9-18.75 0-5.35-2.35-8.3-5.45-8.3-3.35 0-8.15 3.1-10.05 4.35-1.1.75-2 1.75-3.25 1.75-1.65 0-3.5-2-4.05-3.3a6.11 6.11 0 01-.2-3.45zm3.9-13.6l.6-.8a15.82 15.82 0 009.45 2.9c1.45 0 3.2-.4 4-.4 1.8 0 3.9.8 3.9 2.15 0 .65-.6 1-1.7 1a16.43 16.43 0 00-3.6.5c-2.5.7-6.65 2.4-9.1 3.4l-.45-1c2.1-1.15 4.4-2.4 5.8-3.35a13.17 13.17 0 01-8.9-4.4z" fill="#fff" data-name="レイヤー 1"/></g></svg>