<svg xmlns="http://www.w3.org/2000/svg" viewBox="0 0 613.77 285.85"><g data-name="レイヤー 2"><path d="M119.47 14.2s2.45 1.9 4 3.4c-.15.55-.6.8-1.35.8H101l-.35-1.5h9.15v-4.5h-7l-.4-1.5h7.45V7h-7.9l-.4-1.45h8.3V.35l4.8.5c0 .7-.5 1.1-1.55 1.3v3.4h3.6l2-2.7s2.45 1.95 4 3.4c-.15.55-.6.75-1.25.75H113v3.9h3.15l2-2.45s2.3 1.8 3.7 3.15c-.15.55-.55.8-1.25.8H113v4.5h4.3zm25.05 5.7a41.48 41.48 0 012.86 3.15 1.18 1.18 0 01-1.26.75h-3.65v10.1a3.65 3.65 0 01-2.45 1h-.6v-2.7h-5.9V41c0 2.55-.6 4.4-4.85 4.85a3.49 3.49 0 00-.95-2.3c-.7-.6-1.85-1-3.9-1.25v-.8s4.55.3 5.5.3 1.05-.25 1.05-.95v-8.7H123l-.45-1.45h7.8v-6.9h-8.9l-.1-.45a4.45 4.45 0 01-2 .85v17.15c0 2.5-.5 4-4.65 4.5a4 4 0 00-.85-2.3 7.38 7.38 0 00-3.5-1.15v-.8s4 .3 4.85.3 1-.25 1-.95v-5.8H107v9.6c0 .3-1.25 1.1-2.55 1.1h-.55V20.6l3.35 1.55h8.6l1.55-1.95 3.95 2.95-.2-.8h9.25v-6.7h-6.65l-.45-1.45h8.85a56.17 56.17 0 004-7.1h-6.9a34.72 34.72 0 01-7.45 7.6l-.6-.5a41.73 41.73 0 007.95-14l5 1.35c-.15.5-.5.75-1.75.65a38.1 38.1 0 01-2.1 3.5h6l2-2.1L142 7c-.35.35-1 .45-2 .5a69.1 69.1 0 01-6.6 6.75h6.05l1.65-1.8 3.2 3a4.2 4.2 0 01-1.9.85v6.2h.45zM107 23.6v4.15h9.35V23.6zm9.35 10.1v-4.45H107v4.45zm17.2-11.35h5.9v-6.7h-5.9zm5.9 1.45h-5.9v6.9h5.9zm38.03-12.9a11.1 11.1 0 013.55.95c1.8 1 3.05 3 3.05 4s-1.2 1.4-3.2 2.1a82.4 82.4 0 00-12.2 5.7c-4 2.3-9.5 6.5-9.5 11.15 0 3 2.8 5.3 10.6 5.3 7.1 0 10.85-1.4 12.3-1.4 1.75 0 3.3.45 3.3 1.95 0 .65-.8 1.25-1.8 1.55a52.41 52.41 0 01-12.75 1.2c-8.75 0-14-2.85-14-8 0-5.65 5.8-10.5 9.1-12.85a8.67 8.67 0 01-3-4.25 57.77 57.77 0 01-2.2-10.45 1.77 1.77 0 00-1.4-1.65 19.81 19.81 0 00-2.75-.65v-1a11.66 11.66 0 013.2-.5c2.25 0 4.9 1.6 4.95 2.75a25.45 25.45 0 00-.35 2.6 31.71 31.71 0 001.1 7.6 7.11 7.11 0 002.75 4.1c3.7-2.2 8.85-4.8 10.7-5.8.8-.4 1-.75.65-1.4a5.43 5.43 0 00-2.58-2.2zm60.93 28.35s2.8 2.2 4.45 3.85c-.11.55-.56.75-1.25.75h-43.86l-.45-1.45h21V30h-16l-.45-1.5h30.65l2.35-2.9s2.75 2.05 4.4 3.6a1.19 1.19 0 01-1.25.8h-16.35v12.4h14.25zm-34.16-30.6c.05 3.45-1.25 5.8-2.6 6.9s-3 1.3-3.65.2.05-2.1 1.1-2.8c2-1.4 3.75-5 3.55-8.85h.9a19.25 19.25 0 01.6 3.05h14.15V.05l5.1.55c-.1.65-.6 1.15-1.75 1.3v5.25h15.06l2.2-2.2 4 3.8c-.31.4-1 .45-1.9.5a42.93 42.93 0 01-7.21 6.15l-.65-.35a68.1 68.1 0 003.55-6.4H227V19.3c0 .7.2.85 2 .85h8.95c.7 0 .7-.15.9-.6a26.79 26.79 0 001.46-5.4h.64l.15 5.55c1.11.4 1.36.8 1.36 1.45 0 1.45-1.45 2-9 2h-5.26c-3.8 0-4.5-.8-4.5-3.25V8.65h-6.25c-1.7 9.85-7 14.85-18.8 17.65l-.25-.75c9.95-3.55 13.95-8.5 15.2-16.9zm65.59 32.45C282.09 39 288 32.65 288 23.6S281.39 9 273.14 9c-.6 0-1.2.05-1.8.1a9.33 9.33 0 012.15 5.3 25.06 25.06 0 01-1.55 8c-2.1 6-7.9 15.7-13 15.7-3.35 0-6.85-5.3-6.85-11.45a19.21 19.21 0 016.65-14 21.62 21.62 0 0114.6-5.35c10.3 0 18.25 6.75 18.25 17.1 0 8.3-5.2 16.8-21.55 17.85zm-.35-31.7a19 19 0 00-9.49 4.95 16.09 16.09 0 00-5.15 11.55c0 4.8 2.2 8.45 4.25 8.45 3.3 0 7.9-7.9 9.95-12.65a23.54 23.54 0 001.8-7.7 8.73 8.73 0 00-1.36-4.6zm68.99 11.1v10.35h2.15l2.15-3s2.55 2.1 4.05 3.65c-.15.5-.55.75-1.25.75h-43.85l-.4-1.4h7.75V20.5h-7.7l-.4-1.4h8.1V9.85a33.72 33.72 0 01-7.35 5.8l-.6-.6a44.94 44.94 0 0010.4-15l5 2.3a2 2 0 01-2.05.65 37 37 0 01-2.75 4l.9.4h26.65l2.4-3s2.65 2.15 4.25 3.65c-.1.55-.6.8-1.3.8h-6.1V19.1h2.3l2.25-3s2.65 2.1 4.2 3.6c-.1.55-.55.8-1.25.8zm-28.75 13.7c1.1 6.15-1.8 9.7-4.2 11-1.4.9-3.25.95-3.8-.2s.25-2 1.3-2.6a10 10 0 005.85-8.25zm2.35-15.1h5.5V8.75h-5.5zm0 11.75h5.5V20.5h-5.5zm4.3 3.85c7.45 6.45 3.75 13.15 1.05 10a22.8 22.8 0 00-1.75-9.8zm4.2-25.95V19.1h5.9V8.75zm0 11.75v10.35h5.9V20.5zm5 14.1c10.15 5.45 7.35 12.75 4.2 10-.35-3.1-2.8-7.15-4.8-9.6zm4-25.85V19.1h5.8V8.75zm5.8 11.75h-5.8v10.35h5.8zm0 13.5c14.15 5 12 14 8 11.4-1-3.7-5.15-8.35-8.6-10.95zm60.91 5.75s2.85 2.2 4.5 3.8c-.1.5-.54.75-1.29.75h-44.21l-.35-1.45H376V37.2h-16.8l-.45-1.5H376v-5.05h-11.2v1c0 .35-1.4 1.1-2.75 1.1h-.5V14.4l3.55 1.6H376v-4.7h-19.9l-.45-1.45H376v-4.6c-5.5.5-11.3.8-16.75.85l-.15-1c11.1-.8 24.95-3 32.4-5l3.35 3.4c-.45.35-1.4.35-2.6-.2-3.7.6-8.15 1.2-13 1.7v4.9h14.05l2.35-2.95s2.75 2.1 4.45 3.65c-.15.5-.65.75-1.35.75h-19.5V16h10.8l1.8-2 4.1 3.1a3.91 3.91 0 01-2.15 1v13.3a5.38 5.38 0 01-2.75.9h-.5v-1.65h-11.3v5.05H391l2.25-2.7s2.65 2 4.2 3.4a1.14 1.14 0 01-1.25.8h-16.9v5.65h14.5zM364.84 17.5v5H376v-5zM376 29.15V24h-11.2v5.2zm3.3-11.65v5h11.3v-5zm11.3 11.65V24h-11.3v5.2zm60.86-15.1a3.94 3.94 0 01-2.1.8c-.44 14.6-1.65 25.7-4.05 28.45a8.19 8.19 0 01-6.2 2.3 2.9 2.9 0 00-1.05-2.55 21 21 0 00-5.9-1.65v-.9c2.7.3 7.1.7 8.4.7a2.34 2.34 0 002.05-.7c1.95-1.7 2.9-12.55 3.3-26.15h-14.8c-1 12.65-4.7 23.7-21.75 31.6l-.6-.9c14.45-8.1 17.95-18.55 18.8-30.7h-15.85l-.45-1.45h16.4c.2-4.05.2-8.3.2-12.7l5.45.6c-.15.7-.6 1.25-1.8 1.4-.05 3.65-.1 7.25-.3 10.7h14.3l2-2.2zm41.54.45a8.44 8.44 0 013.7 1.35c1.25.85 2.7 2.5 2.7 3.9 0 .9-.5 1.05-2.45 1.65a96.46 96.46 0 00-14.25 5.65c.15 2.85.15 6.5.15 8.1 0 1.2-.55 2-1.55 2-.85 0-1.65-.55-1.65-1.9s.2-3.9.25-6.6c-4.85 2.75-8.35 5.95-8.35 8.9 0 2.8 3.2 4 7.95 4 7.4 0 10.3-1.55 12.7-1.55 1.75 0 2.65.6 2.65 1.55 0 .75-.25 1.4-1.85 1.85a54.54 54.54 0 01-11.2 1.35c-9.3 0-12.35-2.9-12.35-6.85s4.55-8 10.4-11.65c-.2-4.25-1.15-5.8-3.75-5.8-2.8 0-6.1 2.8-8.2 5-1.75 1.9-3.15 4.25-4.35 4.3-1 0-1.7-.75-1.7-2s1.85-2.6 4.1-5a48.23 48.23 0 007-9.15 30.43 30.43 0 01-3.6.25c-4.1 0-4.95-1.1-6.95-5.05l1.05-.65c2 2.1 2.85 3.15 6.55 3.15a24.25 24.25 0 004.45-.5 19.56 19.56 0 001.65-4.4c.25-.9.1-1.25-.9-1.65a9.84 9.84 0 00-2.8-.7v-1a10.7 10.7 0 012.85-.5c1.55 0 4.8.85 4.8 2.05 0 .7-.4 1.05-.95 2.15-.35.8-1 2.05-1.6 3.3A49.27 49.27 0 00484 7.9c2.1-1 2.45-1.4 3.2-1.4 1.1 0 2.15.4 2.15 1.35 0 .65-.45 1.1-1.4 1.55a58.57 58.57 0 01-12.05 3.7 59.37 59.37 0 01-4.8 7c-.2.25-.05.5.3.3a12.68 12.68 0 015.5-1.7c3.15 0 5.05 2.15 5.55 5.9 4-2.2 9.15-4.25 12.15-5.85.85-.45.95-.9.25-1.7a7.09 7.09 0 00-2.45-1.7zM41.45 119.15s2.95 2.2 4.75 3.9c-.15.55-.6.8-1.3.8H.7l-.4-1.5h21V107.8h-15l-.4-1.4h15.4V93.7H10.05a44.34 44.34 0 01-9.4 11.6l-.65-.5c4.35-5.4 8.7-13.9 11.1-22.9l5.25 1.65c-.2.6-.85 1-2 1a60.09 60.09 0 01-3.5 7.7H21.3v-12l5.2.6c-.15.7-.55 1.2-1.75 1.4v10h11.3l2.55-3.1a55.66 55.66 0 014.65 3.75c-.15.55-.65.8-1.35.8H24.75v12.7h9.45l2.6-3.15s2.85 2.2 4.65 3.8c-.1.5-.6.75-1.3.75h-15.4v14.55h14.1zM84 98.85a6.77 6.77 0 012.65-.3c1.55.2 3.55 1.4 3.55 2.35a26 26 0 01-.4 2.75c-.15.95-.45 2.75-.85 4.5a27.15 27.15 0 015.5 3.95 3.58 3.58 0 011.2 2.9 1.29 1.29 0 01-1.4 1.4c-1.25 0-2.6-2.1-6.35-4.8-2.8 6.9-9 11.45-18.05 13.5l-.78-1.1c8-2.45 13.65-7.5 16.15-14.15a29 29 0 00-16.5-4.75h-.1c-2.2 4.2-4.75 9.65-6.2 11.65-1.55 2.25-3 3.5-5.3 3.5-2.8 0-4.35-4.25-3.65-7.8 1.05-4.85 7-8.3 13.35-9.2l.25-.45c2.35-4.3 6.85-11.5 8.05-13.8.4-.8.15-1-.5-.85-1.8.6-4.9 1.8-6.8 2.6-.85.35-1.55 1.15-2.45 1.15-1.45 0-3.5-1.75-4.05-3.2A8.78 8.78 0 0161 86l.95-.3c.75 1.35 1.25 2.6 2.7 2.6 2 0 7-1.45 8.85-2s2-1.35 2.8-1.35c1.35 0 4.2 2 4.2 3.15s-1.8 1.55-2.9 2.9a117.84 117.84 0 00-7.8 11.8l-.1.2h.3a38.54 38.54 0 0116.2 3.7 15.27 15.27 0 00.45-4.65 1.44 1.44 0 00-.8-1.55 7.57 7.57 0 00-1.9-.7zm-18.3 6.45c-5.35.8-9.45 3.7-10.3 6.9-.55 2.15.45 4.4 1.8 4.4s2-.7 3.1-2.2 3.47-5.7 5.37-9.1zm80.55.25c-.1.7-.55 1.15-1.8 1.35v17.45c0 .4-1.35 1.1-2.6 1.1h-.6v-4h-31.91v3.35c0 .4-1.35 1.05-2.55 1.05h-.6V105l5 .55c-.1.7-.55 1.15-1.8 1.35V120h14.11v-19.3h-11.7v1.8c0 .4-1.36 1-2.56 1h-.6V84.8l5 .55c-.1.65-.54 1.1-1.79 1.3V99.2h11.7V80.4l5.1.55c-.15.7-.55 1.2-1.75 1.4V99.2h12V84.8l5 .55c-.1.65-.6 1.1-1.8 1.3v15.65c0 .35-1.4 1-2.6 1h-.6v-2.6h-12V120h14.45v-15zm25.98-21.35a7.78 7.78 0 013.4-1c2.05 0 5.15 1.1 5.15 2.35s-.75 2-.85 3.2c-.05.65-.05 1.65-.1 2.85 8.25-.9 11.45-1.35 12.5-1.35 1.75 0 4.35 1 4.35 2.55 0 .9-.45 1.3-1.4 1.3-1.6 0-5.4-1.2-15.45-.35v7.7c1.45 1.5 2.1 3.85 2.1 6.75 0 9.15-6.9 14.75-16.56 17.15l-.64-1.25c6.1-2.25 11.1-5.8 12.9-10.7-4.9 2.25-8.9-1.6-8.9-6.7 0-3.65 2.45-7.05 6.55-7.05a8.85 8.85 0 012 .25c0-1.5-.15-3.65-.25-5.9a112.13 112.13 0 00-13.25 2.45c-2.26.55-3.26 1.35-4.55 1.35-1.66 0-4-2.25-4.56-3.65a9.67 9.67 0 01-.5-3l.95-.35c1.2 1.6 2.15 3.2 3.88 3.2 1.86 0 12.16-1.5 18.06-2.15-.05-1.8-.15-3.5-.25-4.75-.1-1-.35-1.3-1.15-1.55a20 20 0 00-3.3-.35zm6.45 22.35c0-3.25-1.6-4.9-3.75-4.9-2.5 0-4.1 2.2-4.1 4.75 0 2.85 1.75 4.8 4 4.8 2.55 0 3.85-1.2 3.85-4.65zm38.37-23.2a10.69 10.69 0 013.15-.35c1.8.1 5 1.3 5 2.45 0 .85-.7 2.1-1.3 4-.25.9-.55 2.15-1 3.55a46 46 0 006.3-2.65 4.63 4.63 0 011.7-.7c.85 0 2.15.5 2.15 1.4s-.55 1.45-2.4 2.25a70.74 70.74 0 01-8.65 2.8c-.7 2.45-1.55 5.15-2.45 7.55-2.35 6.75-5.55 14.8-7.7 18.3-.7 1.15-1.2 1.6-2.2 1.6-.85 0-1.45-.9-1.45-2s.45-1.55 1.2-2.9a68 68 0 007.8-15.8c.65-1.85 1.3-4 1.9-6a31.6 31.6 0 01-5.75.6c-2.9 0-5.3-1.1-7-4.9l.85-.65c2.15 1.9 3.65 2.85 6.1 2.85a28.54 28.54 0 006.5-.8 49.14 49.14 0 001.25-6.5 1.65 1.65 0 00-1.05-2 22.51 22.51 0 00-3-.95zm8.8 28a14.35 14.35 0 001.7 4.75c1.75 2.7 4.8 3.85 9.1 3.85 5 0 6.6-1 8-1 1.15 0 2.45.55 2.45 1.7 0 1-1.3 1.55-2.75 1.85a31 31 0 01-6.7.65c-5.8 0-10.4-1.75-11.95-6.15a14.24 14.24 0 01-1.1-5.55zm2.85-11.7a25.52 25.52 0 019.05-1.8A16.62 16.62 0 01244.5 99c1.15.6 1.8 1.35 1.8 2.2s-.85 1.15-2.05 1.25a9.37 9.37 0 00-2.95.8 60.79 60.79 0 00-5.6 2.6l-.65-.9a58.3 58.3 0 005.25-3.65c.4-.3.25-.55-.2-.7a13.58 13.58 0 00-4.4-.6 30.66 30.66 0 00-6.7.8zm53.3-7.1c8.8.9 14 7 14 14.6 0 7.8-5 15.35-22.6 16.4l-.25-1.2c15.5-2.55 19.3-9.5 19.3-15.95a12.06 12.06 0 00-11.1-11.9 68.17 68.17 0 01-4.4 10.25c-.95 1.75-1.8 3.3-2.65 4.6.3.15.55.35.85.5.95.5 1.8 1.15 1.8 2.15s-.65 1.3-1.55 1.3a5.7 5.7 0 01-3.05-1.3 24.52 24.52 0 01-4.05 3.85 11.44 11.44 0 01-7.1 2.85c-2.9 0-4.2-3-4.2-6 0-6.85 4.6-12.3 7.3-14.6-.35-1.2-.7-2.35-1-3.3-.65-1.9-2.2-3.45-4.55-5.45l.65-.7a12.79 12.79 0 013.35 1.45 7 7 0 013.45 4.05l.55 2.2a22.25 22.25 0 0112.25-3.9 37.65 37.65 0 001.05-5c.1-1.15-.45-1.45-1.35-1.7a11.12 11.12 0 00-3.05-.35l-.1-1.05a8 8 0 012.9-.7c2.3 0 5.6 1.95 5.6 3.25 0 1-.75 1.7-1.2 3zm-11.85 17.5a22.16 22.16 0 01-3.45-5.35 40.52 40.52 0 01-1.7-4.45c-3.5 3.55-5.4 8.2-5.4 11.1s1 4 2.4 4c2 0 3.25-.75 4.9-2a19.41 19.41 0 003.22-3.3zm8.2-15.6a19.16 19.16 0 00-11.15 3.85 28.28 28.28 0 002.15 5.7 14.14 14.14 0 002.7 3.55 26 26 0 002.5-4 60.23 60.23 0 003.77-9.1zm40 9.4c-1.05 2.6-3.35 8.25-3.9 10.15a13.28 13.28 0 00-.85 3.6c0 1.45 1 3.05 1 4.25a1.33 1.33 0 01-1.45 1.5c-.9 0-1.7-.8-2.35-1.85a22.71 22.71 0 01-2.9-11.2c0-6 1.6-10.2 2.4-13.2a30.63 30.63 0 001.25-5.8c.05-1.8-1.15-3.45-2.8-5.25l.8-.65a11.79 11.79 0 012.55 1.5c1 .85 3.25 3.15 3.25 5.25 0 1.15-.7 2-1.9 5-1.3 2.8-3.2 7.3-3.2 12.25 0 2.65.4 3.65.8 4.3s.65.7 1.1 0c1.1-1.75 3.9-8 5-10.55zm5 4.3a19.32 19.32 0 001.45 4.35c1.7 3 4.35 4.7 10.5 4.7 5.4 0 7.3-.9 8.5-.9s2.65.45 2.65 1.6c0 2-4.65 2.6-10.05 2.6-7.8 0-12-2.6-13.55-7.7a16 16 0 01-.65-4.45zm.55-15.65a25.63 25.63 0 0112-3.1c3.45 0 5.35.35 6.95 1 1.05.45 1.5 1.15 1.5 1.75s-.3 1.1-1.35 1.25a13.54 13.54 0 00-4.1 1 81.46 81.46 0 00-8.2 4.55l-.85-.9c2.25-1.6 5.8-4.2 6.85-5.1.6-.55.55-.9-2.75-.9a31.33 31.33 0 00-9.5 1.65zm54.91 8.5v23.9c0 .25-1.05 1-2.6 1h-.45v-7.6c-2.8.9-6.6 2-11.51 3.3a1.51 1.51 0 01-1.09 1.1l-2.25-3.6c1.14-.1 2.8-.3 4.8-.55V101h-3.41c-.05 7.65-.55 17.8-6.95 24.9l-.75-.55c4.25-7.5 4.61-16.65 4.61-25.1v-12.9L363 89.1h22.55a72.85 72.85 0 003.65-8.8l5 1.35c-.2.6-.85 1-2 1a57 57 0 01-5.3 6.45h6.55l2.4-2.85s2.65 2 4.3 3.5c-.15.55-.6.8-1.3.8H362.3v9h8.36v-4h-5.91l-.39-1.4h11.45l1.85-2.4s2.15 1.75 3.5 3c-.15.5-.6.75-1.3.75h-6.15v4h4.2l1.85-2.35s2.15 1.75 3.45 3c-.1.55-.55.8-1.25.8zM363.3 81c9.31 3.45 6.66 9.6 3.56 7.3a21.69 21.69 0 00-4.06-7zm12.46 20h-7.1v4.5h7.1zm0 6h-7.1v4.55h7.1zm-7.1 11.2l7.1-1V113h-7.1zM375 80.3c8.55 3.9 5.4 10.25 2.4 7.65a17.9 17.9 0 00-3-7.35zm21.1 20a40.14 40.14 0 01-5.15 15 24.42 24.42 0 009.55 7.7l-.15.5a3.18 3.18 0 00-2.75 2.45 24.23 24.23 0 01-8.2-8.35 31 31 0 01-9.4 8.25l-.5-.65a32 32 0 008.6-9.9 49.79 49.79 0 01-3.7-11.85 27 27 0 01-4.1 5.6l-.75-.5c2.6-4.2 4.7-10.45 5.75-17l4.8 1.15c-.15.6-.7 1-1.8 1.1-.5 1.75-1.05 3.45-1.7 5.1h7.25l2.05-2.7s2.4 1.9 3.85 3.3c-.1.55-.55.8-1.25.8zm-10.1 0a15.91 15.91 0 01-.8 1.6 38.87 38.87 0 004.15 10.9 43.39 43.39 0 003.3-12.5zm32.46 16.55c3.56 4.05 7.51 4.65 16.26 4.65 6 0 14.15 0 20.3-.2v.7a2.89 2.89 0 00-2.5 2.7h-17.75c-9.25 0-13.4-1.15-17-6.85a69.85 69.85 0 01-6.4 6.75 1 1 0 01-.5 1.2l-2.35-4c1.7-.8 4.41-2.35 6.91-3.9V103H409l-.25-1.45h5.95l2-2.55 4.25 3.55a4.12 4.12 0 01-2.46.9zm-8.4-35.2c11.9 4.15 9.15 12.3 5.5 9.55-.6-3.1-3.5-7-6.05-9.15zM450.32 106s2.6 2 4.25 3.5c-.15.55-.6.8-1.3.8h-32.06l-.39-1.45h9.25v-5.95h-6.8l-.4-1.45h7.2V96.8l4.4.45c-.1.55-.45.9-1.25 1.1v3.1h7.45V96.8l4.35.45c0 .55-.4.9-1.25 1.1v3.1h2.6l2.1-2.6s2.4 1.85 3.9 3.25a1.2 1.2 0 01-1.3.8h-7.3v5.95h4.3zm-28.8 12.8a31.41 31.41 0 0010.05-7.8l4.4 2.35c-.35.5-1.1.65-2.3.45a35.78 35.78 0 01-11.75 5.8zm1-34.9l-.45-1.45h9.45l1.6-1.65 3.5 2.6a2.86 2.86 0 01-1.75.85v5.35c0 .35-1.5 1.05-2.5 1.05h-.45v-1.6h-6.4v4c0 .5.1.65 1.35.65h6.3a.81.81 0 00.75-.3 13.59 13.59 0 001-2.65h.6l.15 2.65c.95.3 1.25.55 1.25 1.1 0 1.2-1.3 1.6-6.95 1.6h-3.75c-3.05 0-3.51-.65-3.51-2.55V86.1l3.46 1.5h5.75v-3.7zm10.7 24.95h7.45v-5.95h-7.45zm5.2-24.95l-.42-1.45h9.75l1.6-1.7 3.5 2.7a3.16 3.16 0 01-1.7.8v5.35c-.05.35-1.5 1.05-2.55 1.05h-.45v-1.6h-6.45v4c0 .5.1.65 1.35.65h6.8c.45 0 .55-.05.7-.3a13.12 13.12 0 001.1-2.9h.6l.15 2.85c.95.35 1.25.6 1.25 1.15 0 1.2-1.3 1.6-7.25 1.6h-4c-3.1 0-3.6-.65-3.6-2.55V86.1l3.45 1.5h5.9v-3.7zm1.05 27.75c17.75 3.35 12 10.4 8.9 7.45-1.6-2.1-4.75-4.6-9.2-6.7zM474.42 85a9.76 9.76 0 014.2-1.25c1.86 0 3.86.6 4.11 1.5a52.26 52.26 0 002.75 7.4c5.55-2.1 7-3.9 8.5-4.6a2.89 2.89 0 012.95.35c.45.55.15 1.4-.55 2a37.49 37.49 0 01-9.55 4.8 53.24 53.24 0 008.8 10.8c1.2 1.15 1.6 1.6 1.65 2.45.05 1.4-.7 3.3-1.8 3.3s-1.8-.75-3.2-1.55a24.56 24.56 0 00-12.28-3.4c-5.61 0-9.95 3.1-9.95 7.2 0 3.85 4.45 6.5 12.25 6.5 3.8 0 5.45-.55 7.2-.55 1.5 0 2.6.6 2.6 1.65 0 1.3-2.4 2.25-8.65 2.25-8.36 0-16-2.65-16-9.45 0-5.4 5.81-9.45 13.46-9.45a36.32 36.32 0 0110.9 1.8c.5.1.6 0 .25-.35a87.84 87.84 0 01-7.65-10.5 43.71 43.71 0 01-10.76 1.9c-4.75 0-6.6-1.7-9.35-5.55l.9-.8c3.05 2.45 4.5 3.5 8.45 3.5A38.42 38.42 0 00483 93.4a70.39 70.39 0 00-3.45-6.35c-.85-1.3-2.1-1.2-5-1.15zm79.37 29.3c-2.2 3.1-6 6.2-10.25 6.2-3.55 0-6-2.15-6-6.55 0-5.55 2.1-11.35 2.1-16.75 0-3.15-.9-4.8-3.4-4.8-4.25 0-10.1 4.5-15.1 9.95a102.92 102.92 0 00.5 14.75c.1 1.25.25 2.3.25 3.4 0 1.7-.7 4-2.1 4-.9 0-1.4-.55-1.65-1.7a16.23 16.23 0 00-.85-3.15 43.36 43.36 0 00-3.7-6.5l-3.25 4.55c-.6.85-1 1.5-1.8 1.5s-1.3-.75-1.3-1.75a3.2 3.2 0 011.05-2.5 124.39 124.39 0 0010.95-14.2c.15-1.45.25-2.8.45-4.15-1.7.9-3.45 1.9-4.7 2.6-1 .65-1.55 1.8-2.4 1.8-1.45 0-3.6-1.9-4.1-3.55a6.58 6.58 0 01-.2-2.2l.9-.25c.75 1.5 1.5 2.35 2.4 2.35 1.25 0 6.4-2.45 8.45-3.55.4-3.2.75-5.8.8-7.25 0-1.15-.25-1.35-1.15-1.7a21.5 21.5 0 00-2.65-.7v-1a9.22 9.22 0 013-.55c2.05 0 4.6 2.2 4.6 3.65 0 1-.6 1.5-1.15 3.5-.25.75-.6 2-1 3.7.8.55 1.8 1.5 1.8 2s-.55 1-1.15 1.8a19.15 19.15 0 00-1.6 2.1c4.75-4.3 10.65-8.85 15.75-8.85 3.45 0 5.6 2.1 5.6 6.75 0 3.9-2.15 11-2.15 16.15 0 2.7 1.15 3.8 3.55 3.8 3.3 0 5.7-1.2 8.6-3.85zm-34.85-8.9c-1.35 2.1-3 4.4-4.55 6.65 1.4 2 3.2 4.35 3.9 5.2.45.5.7.45.7-.35.01-2.4-.2-7-.05-11.5zm51.25-22.05a10.69 10.69 0 013.15-.35c1.8.1 4.95 1.3 5 2.45 0 .85-.7 2.1-1.3 4-.25.9-.55 2.15-.95 3.55a46 46 0 006.3-2.65 4.63 4.63 0 011.7-.7c.85 0 2.15.5 2.15 1.4s-.55 1.45-2.4 2.25a70.74 70.74 0 01-8.65 2.8c-.7 2.45-1.55 5.15-2.45 7.55-2.35 6.75-5.55 14.8-7.7 18.3-.71 1.15-1.21 1.6-2.21 1.6-.84 0-1.45-.9-1.45-2s.45-1.55 1.2-2.9a67.58 67.58 0 007.81-15.8c.65-1.85 1.3-4 1.9-6a31.6 31.6 0 01-5.75.6c-2.9 0-5.3-1.1-7-4.9l.86-.65c2.14 1.9 3.64 2.85 6.1 2.85a28.54 28.54 0 006.5-.8 49.14 49.14 0 001.25-6.5 1.65 1.65 0 00-1-2 22.51 22.51 0 00-3.15-.85zm8.8 28a14.35 14.35 0 001.7 4.75c1.75 2.7 4.8 3.85 9.1 3.85 5 0 6.6-1 8.05-1 1.15 0 2.45.55 2.45 1.7 0 1-1.3 1.55-2.75 1.85a31 31 0 01-6.7.65c-5.8 0-10.4-1.75-12-6.15a14.24 14.24 0 01-1.1-5.55zm2.85-11.7a25.52 25.52 0 019-1.8 16.62 16.62 0 016.75 1.2c1.15.6 1.8 1.35 1.8 2.2s-.85 1.15-2.05 1.25a9.37 9.37 0 00-2.95.8 60.79 60.79 0 00-5.6 2.6l-.65-.9a58.3 58.3 0 005.25-3.65c.4-.3.25-.55-.2-.7a13.58 13.58 0 00-4.4-.6 30.66 30.66 0 00-6.7.8zM6.87 170c-.5 1.7-1.25 2.1-2.3 2.1a1.88 1.88 0 01-1.8-1c.8-5.25 6.1-7.25 11.25-7.25 6.9 0 10.8 3.95 10.8 9.3 0 4.15-2.75 8.05-8.45 9.25 6.4.75 9.5 4.4 9.5 10 0 6.5-5.2 10.6-12.8 10.6-6.3 0-10.61-2.5-11.65-7.15a2 2 0 012-1.6c1.15 0 1.75.55 2.25 2.3l1.2 3.7a11.89 11.89 0 005.15.9c5.9 0 9.25-3.45 9.25-8.95 0-5.7-3.1-8.75-9.5-8.75h-2.5v-1.85h2.45c4.9 0 8.65-2.8 8.65-8.3 0-4.7-2.75-7.65-7.45-7.65a12.62 12.62 0 00-4.95.9zm32.28 7.6a5.09 5.09 0 003.35 2c1 0 1.8-.15 4.46-1.55 4.7-2.4 12.4-6.8 19.85-6.8 9.15 0 13.85 5.65 13.85 11.85 0 6.5-4 10.7-9.35 13.25-4.45 2.15-11.65 3.25-19.45 2.85l-.1-1.35c6.65-.4 12.05-1.2 17.05-3.65 5.65-2.65 8.3-6.35 8.3-11.7 0-5.6-3.9-9.2-10.35-9.2-6.1 0-12.85 4.45-16.6 6.8s-5 3.7-6.5 3.7-3.61-1.6-4.41-2.9a7.11 7.11 0 01-.79-2.8zm70.22 23.5c12.25-2.15 18.15-8.45 18.15-17.5 0-8.9-6.6-14.6-14.85-14.6-.6 0-1.2.05-1.8.1a9.33 9.33 0 012.15 5.3 25.06 25.06 0 01-1.55 8c-2.1 6-7.9 15.7-13 15.7-3.35 0-6.85-5.3-6.85-11.45a19.17 19.17 0 016.65-14 21.62 21.62 0 0114.6-5.35c10.3 0 18.25 6.75 18.25 17.1 0 8.3-5.2 16.8-21.55 17.85zm-.37-31.7a19 19 0 00-9.45 4.95 16.09 16.09 0 00-5.15 11.55c0 4.8 2.2 8.45 4.25 8.45 3.3 0 7.9-7.9 10-12.65a23.54 23.54 0 001.8-7.7 8.73 8.73 0 00-1.45-4.6zm55 11.6c1.8 8.05 7.15 16.4 21.55 21.9l-.1.55c-1.75.2-3 .8-3.35 2.6-13.6-6.3-17.55-16.35-19.05-25.05h-.7c-1.6 10.65-6.55 18.9-22.45 24.8l-.6-.9c13.8-6.2 18.15-14.1 19.55-23.9h-16.67l-.45-1.45H159c.45-4 .5-8.35.55-13h-19.1l-.45-1.5h37.4l2.6-3.15s2.95 2.2 4.75 3.85c-.15.55-.65.8-1.35.8h-20.2a130 130 0 01-.7 13h13.4l2.5-3.15s2.9 2.25 4.65 3.8c-.15.55-.6.8-1.3.8zm61.77-6.6c1.9 8.1 6.55 13.25 13.65 16.1v.5a3.85 3.85 0 00-3.05 2.8c-6.45-3.8-9.8-9.6-11.4-18.55-1.4 7.6-5.35 13.95-17.4 18.55l-.65-.85c10.45-4.8 13.95-10.95 15.1-18.55h-6.5l-.35-1.3c-3.65 9.25-10 17.5-21.1 22.55l-.55-.65c10.6-6.1 16.95-16.05 19.75-26.85h-8.95c-.6 1-1.2 2.1-1.85 3.1 8.55 1.5 7.15 7.2 4.15 5.65-.65-1.65-2.75-3.6-4.7-4.8a38.74 38.74 0 01-3.7 4.65c8.9 2.5 7 8.5 4 6.6-.5-2-2.65-4.45-4.55-5.95a33.21 33.21 0 01-4.05 3.55l-.6-.6c4.35-4.6 8.65-12.15 11-20.35l4.85 1.65c-.25.6-.85 1-1.95.9-.55 1.45-1.2 2.85-1.85 4.2h8l2.05-2.05 3.55 3.25c-.4.45-.9.6-2 .65-.45 1.45-.9 2.9-1.45 4.3h6.95a108.63 108.63 0 00.4-11.7l4.8.5c-.1.65-.5 1.1-1.6 1.25-.1 3.5-.15 6.8-.5 10h7.25l2.3-3a52.38 52.38 0 014.3 3.65c-.15.55-.6.8-1.3.8zm-23.65 19.65c1.1 6.3-2 9.85-4.35 11.15-1.4.85-3.25 1-3.75-.1s.25-1.9 1.25-2.5a10.35 10.35 0 006-8.55zm7.3.4c7.4 6.65 3.7 13.45.9 10.25a22.2 22.2 0 00-1.6-10zm9.55-.25c9.85 6.05 6.8 13.45 3.65 10.6-.2-3.3-2.4-7.55-4.3-10.25zm8.85-30.8c9.1 2.5 6.45 8.55 3.45 6.4a13.68 13.68 0 00-4-6zm.45 30.55c13.45 5.55 11.35 13.9 7.6 11.4-1.1-3.6-5.1-8.25-8.2-10.95zm26.47-22.35c1.6 1.4 3.1 2.55 5 2.55a108.59 108.59 0 0011.15-1.2c7.8-1.1 7.05-2.35 8.4-2.35 1.85 0 4.65 1.05 4.65 2.2 0 .75-.45 1.3-1.85 1.5-1.9.25-8.25.95-12.7 1.45 1.55.7 2.85 1.55 2.85 2.5s-.6 1.7-.75 3.15c-.25 2.15-.6 6.9-.8 10.45 3.85-.35 7.7-.6 10.95-.75a23.6 23.6 0 003.4-.55c2 0 6 1.65 6 3.45 0 .85-.55 1.3-1.5 1.3-1.3 0-4.6-1.1-9.65-1.3a104.36 104.36 0 00-22.4 2.05c-1.9.5-2.75 1.2-3.9 1.2-1.5 0-3.85-2.2-4.4-3.3a6.16 6.16 0 01-.65-2.75l1-.4c1 1.35 2.2 2.65 3.95 2.65 1.45 0 7.45-.65 14.2-1.3.25-3.7.4-9.35.4-11.6a6.09 6.09 0 00-1.6-4.45c-3.35.45-6.1 1-7.3 1a4.78 4.78 0 01-3.1-1.65 11.42 11.42 0 01-2.15-3.3zm44.99 8.5l.6-.55a16.67 16.67 0 013.5 2.55c2.05 1.75 3.15 3.5 3.15 5.1 0 1.05-.5 1.8-1.55 1.8-1.6 0-1.65-1.95-3.05-4.65a22.91 22.91 0 00-2.65-4.25zm3.95 24.45l-.6-.9c13.25-6.9 20.8-19.8 20.8-23.6 0-.8-.7-1.4-2.65-2.2l.25-.75a9.22 9.22 0 012.35 0c1.85.3 4.25 2.5 4.25 3.75 0 .8-.85 1.2-1.4 2.35a41.06 41.06 0 01-23 21.35zm4.85-27.05l.6-.55a17 17 0 013.7 2.65 6.48 6.48 0 012.65 4.8 1.56 1.56 0 01-1.65 1.7c-1.5 0-1.5-2-2.7-4.5a21.86 21.86 0 00-2.6-4.1zm33.32-.35l.5-1.1a52.49 52.49 0 016.7 2.1c3.05 1.25 4.9 3 4.9 4.95a1.44 1.44 0 01-1.45 1.55c-1.55 0-2.35-1.8-4.95-3.75a35 35 0 00-5.7-3.75zm36.9-2.8l1.15.75c-5.7 10-16.25 18.75-27.3 24.85-1 .6-1.55 1.9-2.85 1.9-1.55 0-4.7-2.1-5.8-3.7a8.25 8.25 0 01-1.1-3.35l.8-.45c1.35 1.6 2.9 3.3 4.6 3.3 3.4 0 21.5-10.8 30.5-23.3zm-30.2-6.8l.55-1.15a49.57 49.57 0 016.3 2.15c3.4 1.7 4.9 3.35 4.9 5.1a1.5 1.5 0 01-1.45 1.65c-1.4 0-2.4-2-5.05-4.15a30.91 30.91 0 00-5.25-3.6zM393.57 180c1.25 1.05 2.45 1.9 3.9 1.9a65.26 65.26 0 008.4-.9c5.6-.85 5.3-1.85 6.25-1.85 1.65 0 4.1.95 4.1 1.95 0 .7-.45 1.3-1.55 1.4-1.5.15-5.8.55-9.5.95 1.25.55 2.2 1.3 2.2 2.15a18.82 18.82 0 01-.5 2.4c-.2 1.6-.55 4.8-.7 7.4 2.75-.2 5.45-.4 7.65-.5a15.7 15.7 0 002.85-.55c1.7 0 4.95 1.55 4.95 3a1.21 1.21 0 01-1.35 1.25c-1.15 0-4.1-1-8.35-1.1a70.59 70.59 0 00-15.7 1.55c-1.55.4-2.4 1-3.35 1-1.25 0-3.25-1.85-3.65-2.8a7.37 7.37 0 01-.45-2.25l.65-.3a4.29 4.29 0 003.2 1.9c1.3 0 5.8-.45 10.7-.95.2-2.7.3-6.55.3-8.35a5.07 5.07 0 00-1.1-3.5c-2.55.35-4.45.75-5.45.75a3.72 3.72 0 01-2.55-1.55 8.75 8.75 0 01-1.55-2.6zm76.96-7.4l1.15.75c-6 10.65-15.3 18.65-26.25 25.65-1 .6-1.55 1.85-2.65 1.85-1.95 0-4.95-2.35-5.95-3.85a10.7 10.7 0 01-1.05-3.25l.8-.5c1.5 1.65 3.09 3.25 4.7 3.25 3.85 0 22.15-13.25 29.25-23.9zm-33.61-4.7c5.7 1.6 12.61 5 12.61 8.85a1.71 1.71 0 01-1.75 1.85c-.8 0-1.45-.55-2.75-2.1a33.84 33.84 0 00-8.7-7.55zm45.88 9.25l.5-1.1a52.49 52.49 0 016.7 2.1c3.05 1.25 4.9 3 4.9 4.95a1.44 1.44 0 01-1.45 1.55c-1.55 0-2.35-1.8-4.95-3.75a35 35 0 00-5.7-3.75zm36.9-2.8l1.15.75c-5.7 10-16.25 18.75-27.3 24.85-1 .6-1.55 1.9-2.85 1.9-1.55 0-4.7-2.1-5.8-3.7a8.25 8.25 0 01-1.1-3.35l.8-.45c1.35 1.6 2.9 3.3 4.6 3.3 3.4 0 21.5-10.8 30.5-23.3zm-30.2-6.8l.55-1.15a49.57 49.57 0 016.3 2.15c3.4 1.7 4.9 3.35 4.9 5.1a1.5 1.5 0 01-1.45 1.65c-1.4 0-2.4-2-5.05-4.15a30.91 30.91 0 00-5.25-3.6zm47.25 7.6a10.73 10.73 0 013-.65c1.65 0 4.2.9 4.2 1.75s-.25 1.4-.15 2.45c.1.8.5 2.8.95 4.65 3.55-.9 9.35-2.45 10.9-2.95.85-.25 1.45-1.05 2-1.05 1.35 0 3.85 2.35 3.85 3.45 0 .75-1.35.85-2 1.5a54.93 54.93 0 01-8.35 7.75l-.6-.55a44.53 44.53 0 005.8-8.55c.25-.55.05-.6-.45-.5-1.75.35-7 1.9-10.65 3 1.3 5 3.05 11.45 3.85 14.1a15.48 15.48 0 011 3.5c0 1.15-.45 1.8-1.55 1.8-1.35 0-2.1-1.2-2.35-2.8-.6-3.7-2.35-11.35-3.55-15.85-2.15.65-4.5 1.45-5.35 1.75-1.45.55-2 1.4-2.85 1.4a5.2 5.2 0 01-3.55-2.55 10.1 10.1 0 01-.35-2.2l.6-.3c.65.7 1.3 1.6 2.4 1.65s5-1 8.55-1.85a47.19 47.19 0 00-2.1-6.7c-.45-1-1.45-1.25-3.1-1.45zm39.77-.15v-1a8.38 8.38 0 012.9-.35c1.75.15 5.3 2 5.3 3.55 0 1.05-1 1.4-1.2 2.65a33.32 33.32 0 01-15.4 21.35l-.85-1c8-6.2 13-16.6 13-22.65 0-1.7-2.55-2.3-3.75-2.55zm9.8-6.4a9.07 9.07 0 013.3-.6c2 0 5.25 1.8 5.25 3s-1 1.1-1.15 2.65c-.25 2.3-.65 15.9-.65 19.65 0 .7.3.8.8.65a58.34 58.34 0 0018.85-13.5l1 .85c-4.3 6.15-11.6 12-18.45 15.85-1.15.7-1.8 2.1-2.8 2.1s-3.1-2.4-3.1-3.35.55-1.2.7-3.2c.25-2.85.55-16.3.25-21.1 0-1.25-1.4-1.7-4-2zm-406.49 75.7a12 12 0 013.65-.75c2.2 0 4.9 1.65 4.9 2.45 0 1.15-.7 1.2-.9 3.1-.15 1.45-.25 3.7-.25 5.5 8.35-.9 8.4-1.65 9.25-1.65 1.8 0 4.45 1.25 4.45 2.55a1.21 1.21 0 01-1.25 1.25 107.77 107.77 0 00-12.45.15c0 4.65 0 12.6.1 16.3.1 3.05.4 4.2.4 5.45 0 2.05-1.5 4.25-2.95 4.25s-1.35-1.7-2.35-2.6a29.5 29.5 0 00-5.4-3l.4-.9c2 .5 4.55 1.1 5.9 1.3.65.1 1-.15 1-.7.2-2.1.1-9.95 0-15.9-4.6 6.9-14.1 14.65-22.75 18.5l-.75-1.05c8.3-5.15 17.55-13.7 21.65-21.15-3.65.4-7.2 1.05-9.75 1.5-2.15.4-3.1 1.1-4.55 1.1s-3.6-2.2-4-3.35a8.62 8.62 0 01-.35-2.8l.95-.4c1.15 2 2.1 3 3.4 2.95 3.1 0 10.85-.95 16.15-1.5 0-2.65-.05-5.65-.1-7.4 0-.9-.35-1.2-1.25-1.55a12.14 12.14 0 00-3.2-.6zm49.31-.5a8.89 8.89 0 013.25.55c2 .65 4.15 2.85 4.15 4.15 0 .95-.9.85-2.25 2.35-1.85 2.05-4.3 4.75-7.6 7.9 1.4.9 2.55 1.75 2.55 2.45a22.06 22.06 0 00-.45 2.6c-.35 7.25-.1 14.9-.1 17.9 0 1.85-.45 2.45-1.5 2.45-1.65 0-2.5-2.4-2.5-4 0-.9.4-1.9.6-3.55a127.14 127.14 0 00.45-14 3.45 3.45 0 00-.75-2.2 70.3 70.3 0 01-18.76 11.85l-.65-1.2c12.66-7.05 21.31-16.2 24.81-21.15a6 6 0 001.35-2.55c0-.8-.85-1.5-3-2.55zM255 255v-1a8.35 8.35 0 012.9-.35c1.75.15 5.3 2 5.3 3.55 0 1-.95 1.4-1.2 2.65a33.3 33.3 0 01-15.41 21.35l-.85-1.05c8-6.2 13-16.6 13-22.65.05-1.65-2.5-2.25-3.74-2.5zm9.8-6.4a9.07 9.07 0 013.3-.6c2 0 5.25 1.8 5.25 3s-1 1.1-1.15 2.65c-.25 2.3-.65 15.9-.65 19.65 0 .7.3.8.8.65a58.34 58.34 0 0018.85-13.5l1.05.85c-4.3 6.15-11.6 12-18.45 15.85-1.15.7-1.8 2.1-2.8 2.1s-3.1-2.4-3.1-3.35.55-1.2.7-3.2c.25-2.85.55-16.3.25-21.1-.05-1.25-1.4-1.7-3.95-2zm66.65 5.9a8.44 8.44 0 013.7 1.35c1.25.85 2.7 2.5 2.7 3.9 0 .9-.5 1.05-2.45 1.65a96.46 96.46 0 00-14.25 5.65c.15 2.85.15 6.5.15 8.1 0 1.2-.55 2-1.55 2s-1.65-.55-1.65-1.9c0-1.2.2-3.9.25-6.6-4.85 2.75-8.35 5.95-8.35 8.9s3.2 4 7.95 4c7.4 0 10.3-1.55 12.7-1.55 1.75 0 2.65.6 2.65 1.55 0 .75-.25 1.4-1.85 1.85a54.54 54.54 0 01-11.2 1.35c-9.3 0-12.36-2.9-12.36-6.85s4.56-8 10.41-11.65c-.2-4.25-1.15-5.8-3.76-5.8-2.79 0-6.09 2.8-8.2 5-1.75 1.9-3.15 4.25-4.35 4.3-1 0-1.7-.75-1.7-2s1.85-2.6 4.1-5a47.87 47.87 0 007-9.15 30.59 30.59 0 01-3.61.25c-4.1 0-5-1.1-7-5.05l1.05-.65c2 2.1 2.85 3.15 6.56 3.15a24.44 24.44 0 004.45-.5 19.48 19.48 0 001.64-4.4c.25-.9.11-1.25-.89-1.65a9.92 9.92 0 00-2.81-.7v-.95a10.77 10.77 0 012.86-.5c1.55 0 4.8.85 4.8 2 0 .7-.4 1.05-1 2.15-.34.8-1 2.05-1.59 3.3a49.27 49.27 0 006.5-2.15c2.1-1 2.45-1.4 3.2-1.4 1.1 0 2.15.4 2.15 1.35 0 .65-.45 1.1-1.4 1.55a58.57 58.57 0 01-12 3.7 58.42 58.42 0 01-4.81 7c-.2.25 0 .5.3.3a12.72 12.72 0 015.51-1.7c3.15 0 5 2.15 5.55 5.9 4.05-2.2 9.15-4.25 12.15-5.85.85-.45.95-.9.25-1.7a7.09 7.09 0 00-2.45-1.7zm36.34-13.8s2.6 2 4.2 3.5c-.15.55-.6.8-1.3.8H363v7h3l1.8-1.95 3.85 3a3.91 3.91 0 01-2.15 1v29.7a3.79 3.79 0 01-2.55 1.1h-.45v-3.6h-15.06v3.3c0 .35-1.1 1.15-2.45 1.15h-.55v-35.25l3.2 1.55h2.9v-7h-7.05l-.35-1.45h18.35zm-5.25 24.8c-2 0-2.3-.7-2.3-2.25v-9.8h-3.05v2.15c0 3.6-.4 9-5.25 12.55l-.5-.6v3.95h15.05v-6.15a15.79 15.79 0 01-2.5.15zm-11.1-12.05v13.9c3.15-3.85 3.35-8.25 3.35-11.8v-2.1zm15.05 26.3V273h-15.05v6.8zM360.24 245h-3.05v7h3.05zm2.5 8.45v9c0 .5.1.65.55.65h2.2a1.76 1.76 0 00.7-.15h.3v-9.5zm29.5 27.35c1.05.4 1.35.8 1.35 1.4 0 1.5-1.65 2.05-9.6 2.05h-5.5c-4 0-4.9-.75-4.9-3.45v-25.15l3.7 1.6h9.45V245h-13.25l-.45-1.5h13.1l1.9-2.1 4.3 3.3a4.49 4.49 0 01-2.5 1.1v16.3a4.09 4.09 0 01-2.6 1h-.5v-4.4h-10.05V280c0 .95.3 1.25 2.3 1.25h5c2.4 0 4.2 0 4.85-.1a.94.94 0 001-.7 71.91 71.91 0 001.6-7.65h.65zm34.37-39.55c-.15.6-.8.8-2 .9 4.4 6.3 12.7 11.7 21.5 15.2l-.1.75a3.76 3.76 0 00-2.95 2.6c-8.25-4.1-15.85-10.65-19.4-17.95-4.65 7.25-14.41 15.5-23.86 19.8l-.4-.75c8.56-4.75 18.66-14.8 21.31-22zM435 265.3l4.15 3.2a4.11 4.11 0 01-2.1 1v14.9c-.05.35-1.8 1.05-2.9 1.05h-.5v-3.25H411.8v2.55c0 .35-1.45 1.1-2.84 1.1h-.56v-20.1l3.65 1.65h21.11zm-4.45-10.1s2.65 2.05 4.35 3.6c-.15.5-.65.75-1.35.75H411.3l-.39-1.45h17.35zm3.1 25.5v-11.85H411.8v11.85z" fill="#fff" data-name="レイヤー 1"/></g></svg>