<svg xmlns="http://www.w3.org/2000/svg" viewBox="0 0 358.06 38.1"><g data-name="レイヤー 2"><path d="M32.55 3.15c-.1 4.75-.1 9.6-.1 14.55v2.75c0 4.8 0 9.7.1 14.5l5.25.55v1.8H22.9v-1.8l5.2-.5c.1-4.7.1-9.6.1-15.45H9.5c0 5.8 0 10.7.15 15.4l5.2.55v1.8H0v-1.8l5.2-.5c.15-4.75.15-9.6.15-14.5v-2.8c0-4.85 0-9.75-.15-14.55L0 2.6V.85h14.85V2.6l-5.2.55C9.5 7.8 9.5 12.6 9.5 17.45h18.7c0-4.8 0-9.6-.1-14.3l-5.2-.55V.85h14.9V2.6zm45.69 15.9c0 11.85-7.85 19.05-16.36 19.05s-16.5-6.85-16.5-19c0-11.8 7.95-19 16.5-19s16.36 6.75 16.36 18.95zM61.88 35.9c7.81 0 11.51-8.2 11.51-16.85s-3.7-16.8-11.51-16.8-11.6 8.2-11.6 16.8S54 35.9 61.88 35.9zm72.5-33.3l-4.8.65-9.2 34.45h-1.95l-9.55-29.55-9.15 29.55h-1.9L88.08 3.1l-4.7-.5V.85h14.2V2.6l-5.15.6 7.2 27.1 8.7-27.1-5.5-.6V.85H117V2.6l-5.55.65L120 30.5l7.2-27.2-5.2-.7V.85h12.4zm41.05.45c-.15 4.75-.15 9.65-.15 14.65v2.75c0 4.8 0 9.7.15 14.5l5.75.55v1.8h-16v-1.8L171 35c.1-4.75.1-9.6.1-14.5v-2.8c0-4.9 0-9.85-.1-14.65h-9.15l-1.4 7.3H158l.4-9.5H188l.5 9.5H186l-1.4-7.3zm53.72 16c0 11.85-7.86 19.05-16.36 19.05s-16.5-6.85-16.5-19c0-11.8 8-19 16.5-19s16.36 6.75 16.36 18.95zM212.79 35.9c7.8 0 11.5-8.2 11.5-16.85s-3.7-16.8-11.5-16.8-11.6 8.2-11.6 16.8 3.7 16.85 11.6 16.85zM291.5 2.6l-4.76.6-.1 19.6c0 10.8-5.1 15.3-12.7 15.3s-13-4.35-13-14.55v-5.8c0-4.9 0-9.8-.1-14.65l-4.65-.5V.85h14.7V2.6l-5.65.6c-.05 4.75-.05 9.6-.05 14.55v4.6c0 9.4 3.65 12.55 9.4 12.55 6.65 0 9.85-3.7 9.85-13.5l-.05-18.1-5.9-.7V.85h13zm20.29 14.3c7.4 3 10 6 10 11 0 6.35-5.35 10.2-12.65 10.2a20.16 20.16 0 01-10.4-2.9l.25-7.5h2.55l1.2 6.6a11.15 11.15 0 006.15 1.55c5.45 0 9.1-2.45 9.1-7.1 0-3.6-2.1-5.4-7.3-7.5l-2.05-.8c-5.6-2.25-9.15-5.4-9.15-10.65 0-6.25 5.2-9.8 11.8-9.8a14.15 14.15 0 018.8 2.85l-.25 7h-2.65L316 3.5a8.73 8.73 0 00-4.8-1.25c-4.55 0-7.9 2.2-7.9 6.5 0 3.65 2.35 5.8 6.35 7.35zm46.27 10.95l-.35 9.45H330v-1.8l5.2-.55c.15-4.75.15-9.6.15-14.5V17.7c0-4.85 0-9.75-.15-14.55L330 2.6V.85h26.75l.35 9.4h-2.45l-1.35-7.2h-13.69c-.15 4.7-.15 9.6-.15 14.7h8.75l.75-5.4H351V25h-2l-.7-5.25h-8.8c0 5.55 0 10.45.15 15.3h14.65l1.3-7.2z" fill="#fff" data-name="レイヤー 1"/></g></svg>