<svg xmlns="http://www.w3.org/2000/svg" viewBox="0 0 532.98 126.1"><g data-name="レイヤー 2"><path d="M5.45 10c-.5 1.7-1.25 2.1-2.3 2.1a1.88 1.88 0 01-1.8-1.1c.8-5.25 6.1-7.25 11.25-7.25 6.9 0 10.8 4 10.8 9.3 0 4.15-2.75 8.05-8.45 9.25 6.4.75 9.5 4.4 9.5 10 0 6.5-5.2 10.6-12.8 10.6-6.3 0-10.6-2.5-11.65-7.15a2 2 0 012-1.6c1.15 0 1.75.55 2.25 2.3l1.2 3.7a11.89 11.89 0 005.15.9c5.9 0 9.25-3.45 9.25-8.95 0-5.7-3.1-8.75-9.5-8.75h-2.5V21.5h2.45c4.9 0 8.65-2.8 8.65-8.3 0-4.7-2.75-7.65-7.45-7.65a12.62 12.62 0 00-4.95.9zm38.29 7.55a5.07 5.07 0 003.35 1.95c1 0 1.8-.15 4.45-1.55 4.7-2.4 12.4-6.8 19.85-6.8 9.15 0 13.85 5.65 13.85 11.85 0 6.5-3.95 10.7-9.35 13.25-4.45 2.15-11.65 3.25-19.45 2.85l-.1-1.35c6.65-.4 12-1.2 17-3.65 5.65-2.65 8.3-6.35 8.3-11.7 0-5.6-3.9-9.2-10.35-9.2-6.1 0-12.85 4.45-16.6 6.8s-5.05 3.7-6.5 3.7-3.6-1.6-4.4-2.9A7.29 7.29 0 0143 18zM120 41.05c12.25-2.15 18.15-8.45 18.15-17.5 0-8.9-6.6-14.6-14.85-14.6-.6 0-1.2.05-1.8.1a9.33 9.33 0 012.15 5.3 25.06 25.06 0 01-1.55 8c-2.1 6-7.9 15.7-13 15.7-3.35 0-6.85-5.3-6.85-11.45a19.21 19.21 0 016.65-14 21.62 21.62 0 0114.6-5.35c10.3 0 18.25 6.75 18.25 17.1 0 8.3-5.2 16.8-21.55 17.85zm-.35-31.7a19 19 0 00-9.45 5 16.09 16.09 0 00-5.2 11.5c0 4.8 2.2 8.45 4.25 8.45 3.3 0 7.9-7.9 10-12.65A23.54 23.54 0 00121 14a8.73 8.73 0 00-1.4-4.65zm63.99 3.1c4.4 4.9 12.6 8.5 20 10.25v.55a3.39 3.39 0 00-2.8 2.75c-7.55-2.6-14.75-7.3-18.55-13.55h-.3v10.8a3.49 3.49 0 01-2.7 1h-.5v-10.9c-5 6-12.45 10.75-20.91 13.9l-.5-.8a51 51 0 0017.66-14h-16.5L158 11h20.7V5.45c-5.5.5-11.3.85-16.86.85l-.14-1c11-.8 24.6-3 31.75-5.25L197 3.6c-.4.35-1.35.35-2.55-.1-3.55.55-7.85 1.15-12.5 1.6V11h14.25l2.3-2.85s2.65 2 4.3 3.55c-.1.55-.6.8-1.3.8zm8.65 11.3l3.9 2.95a3.54 3.54 0 01-1.95.95v16.8c-.05.35-1.65 1.1-2.75 1.1H191v-3h-21.26v2.2c0 .35-1.35 1.1-2.7 1.1h-.55V24.1l3.5 1.55h20.55zm-22.55 3.4v6.05H191v-6.05zM191 41v-6.35h-21.26V41zm32-38.85l.65-.65a7.61 7.61 0 012.4 1.1c1.85 1.25 3.3 3.5 3.3 4.6a11.68 11.68 0 01-.65 3 39.89 39.89 0 00-1.15 5c-.2 1.05.2 1.1.75.1 2.35-4.15 5.85-7.15 9.1-7.15 6 0 8.75 6.45 8.75 15.35 0 10.35-4.6 18.7-18 22.2l-.55-1.15c12.1-4.85 15.05-12.45 15.05-21.4 0-8.15-2.25-13-5.75-13-2.35 0-5.5 2.25-7.25 5.6a20.11 20.11 0 00-2.6 9.55c0 2 .3 3.45.3 5.1A1.43 1.43 0 01226 32a1.77 1.77 0 01-1.75-1.25 14 14 0 01-.75-4.65c0-5.4 2.4-15 2.4-17.75s-.78-3.8-2.9-6.2zm54.38 2.7a8.31 8.31 0 013.25-.65c2.05 0 5.75 1.75 5.75 3s-1 1.65-1.55 2.9-1.25 3.1-2.2 5.3a25.59 25.59 0 014.15-.45c3.75 0 5.9 2.05 5.9 8 0 6.05-1.8 13.05-4.75 16.75a7.48 7.48 0 01-6.05 3.15c-1.65 0-2-.7-2.65-2.15-.35-.75-.7-1.35-3.5-3.75l.6-.8c2.6 1.65 4.85 3 6 3 1.55 0 2.7-.55 4-2.6 1.65-2.55 3.5-8.65 3.5-14.35 0-3.65-.85-5.2-3.65-5.2a19.49 19.49 0 00-4.5.75c-1.45 3.35-3.15 7.15-4.75 10.5a127.26 127.26 0 01-7.4 13.6c-.75 1.2-1.3 1.55-2 1.55a1.71 1.71 0 01-1.53-1.9 3.29 3.29 0 01.81-2.3 78.36 78.36 0 007.8-12.35c1.2-2.4 2.55-5.35 3.75-8.25-1.85.6-3.55 1.2-4.55 1.6-2.16.85-2.85 1.4-4.11 1.4s-3.14-1.9-3.55-3.5a6.39 6.39 0 01.1-2.9l1-.15c.56 1.35.9 2.95 2.36 2.95s6.1-1.2 9.8-2c1.5-3.85 2.6-7.1 2.6-8a1.22 1.22 0 00-.8-1.3 13.11 13.11 0 00-3.8-.75zM296.58 15c4.05.6 6.55 1.9 8.55 4.15a13.6 13.6 0 013.1 9.15c0 2-.65 3.65-2.1 3.7s-1.35-1.4-2.8-1.7a31.08 31.08 0 00-5.9.25l-.3-1.2a55.27 55.27 0 006.4-1.5c1.05-.4 1.2-.85 1.15-2.15a11.33 11.33 0 00-2.05-5.6 9.76 9.76 0 00-6.63-3.9zm2.05-8.65a18.38 18.38 0 015.7 3.35c1.25 1.15 1.75 2 1.75 3a1.2 1.2 0 01-1.2 1.35c-.8 0-1.4-1.15-2.35-2.4a21.81 21.81 0 00-4.6-4.4zm4.5-3.25a19.14 19.14 0 015.7 2.95c1.35 1.1 1.85 2.05 1.85 3.1 0 .85-.4 1.25-1.15 1.25s-1.3-1.15-2.4-2.4a23.69 23.69 0 00-4.65-4zm39.73 11.05s2.45 1.9 4 3.4c-.15.55-.6.8-1.35.8h-21.15l-.35-1.5h9.15v-4.5h-7.05l-.4-1.5h7.45V7h-7.9l-.4-1.45h8.3V.3l4.8.5c0 .7-.5 1.1-1.55 1.3v3.4H340l2.05-2.7s2.45 2 3.95 3.4c-.15.55-.6.75-1.25.75h-8.35v3.9h3.15l2-2.45s2.3 1.8 3.7 3.15c-.15.55-.55.8-1.25.8h-7.6v4.5h4.3zm25.05 5.7a42.23 42.23 0 012.85 3.15 1.15 1.15 0 01-1.25.75h-3.65v10.1a3.65 3.65 0 01-2.45.95h-.6v-2.7h-5.9v8.8c0 2.55-.6 4.4-4.85 4.85a3.49 3.49 0 00-.95-2.3c-.7-.6-1.85-1-3.9-1.25v-.75s4.55.3 5.5.3 1.05-.25 1.05-1V32.1h-7.35l-.41-1.45h7.8v-6.9h-8.9l-.1-.45a4.45 4.45 0 01-1.95.85V41.3c0 2.5-.5 4.05-4.65 4.5a4 4 0 00-.85-2.3 7.38 7.38 0 00-3.5-1.15v-.8s3.95.3 4.85.3 1-.25 1-1V35.1h-9.35v9.6c0 .3-1.25 1.1-2.55 1.1h-.55V20.55l3.35 1.55h8.6l1.55-2 3.95 3-.2-.8h9.25v-6.7h-6.65l-.45-1.45h8.85a56.17 56.17 0 004.05-7.1h-6.9a34.72 34.72 0 01-7.45 7.6l-.6-.5a41.73 41.73 0 007.95-14l4.95 1.35c-.15.5-.5.75-1.75.65a38.1 38.1 0 01-2.1 3.5h6l2-2.1 3.7 3.4c-.35.35-1 .45-2 .5a69.1 69.1 0 01-6.6 6.75h5.95v-.1h.1l1.65-1.8 3.2 2.95a4.2 4.2 0 01-1.9.85v6.2h.45zm-37.55 3.7v4.15h9.35v-4.15zm9.35 10.1V29.2h-9.35v4.45zm17.2-11.35h5.9v-6.7h-5.9zm5.9 1.45h-5.9v6.9h5.9zm44.06-12.9a11.1 11.1 0 013.55 1c1.8 1 3.05 2.95 3.05 4s-1.2 1.4-3.2 2.1a82.4 82.4 0 00-12.2 5.7c-4 2.3-9.5 6.5-9.5 11.15 0 3 2.8 5.3 10.6 5.3 7.1 0 10.85-1.4 12.3-1.4 1.75 0 3.3.45 3.3 2 0 .65-.8 1.25-1.8 1.55a52.41 52.41 0 01-12.75 1.2c-8.75 0-14-2.85-14-8.05 0-5.65 5.8-10.5 9.1-12.85a8.67 8.67 0 01-2.95-4.25 57.77 57.77 0 01-2.2-10.45 1.77 1.77 0 00-1.4-1.65 19.81 19.81 0 00-2.77-.75v-1a11.66 11.66 0 013.2-.5c2.25 0 4.9 1.6 4.95 2.75a25.45 25.45 0 00-.35 2.6 31.71 31.71 0 001.1 7.6 7.11 7.11 0 002.75 4.1c3.7-2.2 8.85-4.8 10.7-5.8.8-.4 1-.75.65-1.4a5.43 5.43 0 00-2.55-2.1zm66.92 28.35s2.8 2.2 4.45 3.85c-.1.55-.55.75-1.25.75h-43.85l-.45-1.45h21V29.9h-16l-.45-1.5h30.65l2.35-2.9s2.75 2.05 4.4 3.6a1.2 1.2 0 01-1.3.8H457v12.45h14.25zM439.64 8.6c.05 3.45-1.25 5.8-2.6 6.9s-3 1.3-3.65.2.05-2.1 1.1-2.8c1.95-1.4 3.75-5.05 3.55-8.85h.9a19.25 19.25 0 01.6 3.05h14.15V0l5.1.55c-.1.65-.6 1.15-1.75 1.3V7.1h15l2.2-2.2 3.95 3.8c-.3.4-.95.45-1.9.5a42.86 42.86 0 01-7.2 6.15l-.65-.35A68.1 68.1 0 00472 8.6h-9.7v10.65c0 .7.2.85 2 .85h4.6c2 0 3.65 0 4.35-.05s.7-.15.9-.6a27.7 27.7 0 001.45-5.4h.65l.15 5.55c1.1.4 1.35.8 1.35 1.45 0 1.45-1.45 2.05-9 2.05h-5.15c-3.8 0-4.5-.8-4.5-3.25V8.6h-6.25c-1.7 9.85-7 14.85-18.8 17.65l-.25-.75C443.74 22 447.74 17 449 8.6zm71.59 32.45c12.25-2.15 18.15-8.45 18.15-17.5 0-8.9-6.6-14.6-14.85-14.6-.6 0-1.2.05-1.8.1a9.33 9.33 0 012.15 5.3 25.06 25.06 0 01-1.55 8c-2.1 6-7.91 15.7-13 15.7-3.36 0-6.86-5.3-6.86-11.45a19.21 19.21 0 016.65-14 21.64 21.64 0 0114.61-5.35C525 7.25 533 14 533 24.35c0 8.3-5.2 16.8-21.55 17.85zm-.35-31.7a19.05 19.05 0 00-9.46 5 16.09 16.09 0 00-5.15 11.55c0 4.8 2.2 8.45 4.25 8.45 3.31 0 7.9-7.9 10-12.65a23.54 23.54 0 001.8-7.7 8.73 8.73 0 00-1.44-4.65zm-451.59 91.1v10.35h2.15l2.15-3s2.55 2.1 4 3.65c-.14.5-.55.75-1.25.75h-43.8l-.4-1.4h7.75v-10.35h-7.7l-.4-1.4h8.1V89.8a33.72 33.72 0 01-7.35 5.8l-.6-.6a44.94 44.94 0 0010.4-15l4.95 2.3a2 2 0 01-2 .65 37 37 0 01-2.75 3.95l.9.4H60l2.4-3s2.65 2.15 4.25 3.65c-.1.55-.6.8-1.3.8h-6.1v10.3h2.3l2.25-3s2.66 2.1 4.2 3.6c-.1.55-.54.8-1.25.8zm-28.75 13.7c1.1 6.15-1.8 9.7-4.2 11-1.4.9-3.25.95-3.8-.2-.4-1 .25-2 1.3-2.6a10 10 0 005.85-8.25zm2.35-15.1h5.5V88.7h-5.5zm0 11.75h5.5v-10.35h-5.5zm4.3 3.85c7.45 6.45 3.75 13.15 1.05 10a22.8 22.8 0 00-1.75-9.8zm4.2-25.95v10.35h5.9V88.7zm0 11.75v10.35h5.9v-10.35zm5 14.1c10.15 5.45 7.35 12.75 4.2 10-.35-3.1-2.8-7.15-4.8-9.6zm4-25.85v10.35h5.8V88.7zm5.8 11.75h-5.8v10.35h5.8zm0 13.5c14.15 5 12 14 8 11.4-1-3.7-5.15-8.35-8.6-10.95zm66.91 5.75s2.85 2.2 4.5 3.8c-.1.5-.55.75-1.3.75H82.1l-.35-1.45h21.1v-5.65h-16.8l-.45-1.5h17.25v-5.05h-11.2v1c0 .35-1.4 1.1-2.75 1.1h-.5V94.35L92 96h10.9v-4.7H83l-.5-1.5h20.35v-4.6c-5.5.5-11.3.8-16.75.85l-.15-1c11.1-.8 25-3 32.4-5l3.35 3.4c-.45.35-1.4.35-2.6-.2-3.7.6-8.15 1.2-12.95 1.7v4.9h14l2.35-3s2.8 2.15 4.5 3.65c-.15.5-.65.75-1.35.75h-19.5V96H117l1.8-2 4.1 3.1a3.91 3.91 0 01-2.15 1v13.3a5.38 5.38 0 01-2.75.9h-.5v-1.7h-11.3v5.05h11.7l2.25-2.7s2.65 2 4.2 3.4a1.14 1.14 0 01-1.25.8h-16.9v5.65h14.5zM91.65 97.45v5h11.2v-5zm11.2 11.65v-5.2h-11.2v5.2zm3.3-11.65v5h11.3v-5zm11.3 11.65v-5.2h-11.3v5.2zM184.27 94a4 4 0 01-2.1.8c-.45 14.6-1.65 25.7-4 28.45a8.19 8.19 0 01-6.2 2.3 2.9 2.9 0 00-1-2.55 21 21 0 00-5.9-1.65l.05-.9c2.7.3 7.1.7 8.4.7a2.34 2.34 0 002.05-.7c1.95-1.7 2.9-12.55 3.3-26.15h-14.95c-1 12.65-4.7 23.7-21.75 31.6l-.6-.9c14.45-8.1 18-18.55 18.8-30.7h-15.85l-.45-1.45h16.4c.2-4 .2-8.3.2-12.7l5.45.6c-.15.7-.6 1.25-1.8 1.4 0 3.65-.1 7.25-.3 10.7h14.3l2-2.2zm47.5.45a8.44 8.44 0 013.7 1.35c1.25.85 2.7 2.5 2.7 3.9 0 .9-.5 1-2.45 1.65a96.46 96.46 0 00-14.25 5.65c.15 2.85.15 6.5.15 8.1 0 1.2-.55 2-1.55 2-.85 0-1.65-.55-1.65-1.9s.2-3.9.25-6.6c-4.85 2.75-8.35 6-8.35 8.9 0 2.8 3.2 4 8 4 7.4 0 10.3-1.55 12.7-1.55 1.75 0 2.65.6 2.65 1.55 0 .75-.25 1.4-1.85 1.85a54.54 54.54 0 01-11.2 1.35c-9.3 0-12.35-2.9-12.35-6.85s4.55-8 10.4-11.65c-.2-4.25-1.15-5.8-3.75-5.8-2.8 0-6.1 2.8-8.2 5-1.75 1.9-3.15 4.25-4.35 4.3-1 0-1.7-.75-1.7-2s1.85-2.6 4.1-5a48.23 48.23 0 007-9.15 30.43 30.43 0 01-3.6.25c-4.1 0-5-1.1-7-5l1.05-.65c2 2.1 2.85 3.15 6.55 3.15a24.25 24.25 0 004.45-.5 19.56 19.56 0 001.65-4.4c.25-.9.1-1.25-.9-1.65a9.84 9.84 0 00-2.8-.7V83a10.7 10.7 0 012.85-.5c1.55 0 4.8.85 4.8 2 0 .7-.4 1-.95 2.15-.35.8-1 2-1.6 3.3a49.27 49.27 0 006.5-2.15c2.1-.95 2.45-1.4 3.2-1.4 1.1 0 2.15.4 2.15 1.35 0 .65-.45 1.1-1.4 1.55a58.57 58.57 0 01-12.05 3.7 59.37 59.37 0 01-4.8 7c-.2.25-.05.5.3.3a12.68 12.68 0 015.5-1.7c3.15 0 5.05 2.15 5.55 5.9 4.05-2.2 9.15-4.25 12.15-5.85.85-.45.95-.9.25-1.7a7.09 7.09 0 00-2.45-1.7zm62.29 24.65s2.95 2.2 4.75 3.9c-.15.55-.6.8-1.3.8h-44.2l-.4-1.5h21v-14.55h-15l-.4-1.4h15.4v-12.7h-11.25a44.34 44.34 0 01-9.4 11.6l-.65-.5c4.35-5.4 8.7-13.9 11.1-22.9L269 83.5c-.2.6-.85 1-1.95 1a60.09 60.09 0 01-3.5 7.7h10.4v-12l5.2.6c-.15.7-.55 1.2-1.75 1.4v10h11.3l2.55-3.1a55.66 55.66 0 014.65 3.75c-.15.55-.65.8-1.35.8h-17.19v12.7h9.45l2.6-3.15s2.85 2.2 4.65 3.8c-.1.5-.6.75-1.3.75h-15.4v14.55h14.1zm48.52-20.3a6.77 6.77 0 012.65-.3c1.55.2 3.55 1.4 3.55 2.35a26 26 0 01-.4 2.75c-.15 1-.45 2.75-.85 4.5a27.15 27.15 0 015.5 4 3.58 3.58 0 011.2 2.9 1.29 1.29 0 01-1.4 1.4c-1.25 0-2.6-2.1-6.35-4.8-2.8 6.9-9 11.45-18.05 13.5l-.75-1.15c7.95-2.45 13.65-7.5 16.15-14.15a29 29 0 00-16.5-4.75h-.1c-2.2 4.2-4.75 9.65-6.2 11.65-1.55 2.25-3 3.5-5.3 3.5-2.8 0-4.35-4.25-3.65-7.8 1.05-4.85 6.95-8.3 13.35-9.2l.25-.45c2.35-4.3 6.85-11.5 8.05-13.8.4-.8.15-1.05-.5-.85-1.8.6-4.9 1.8-6.8 2.6-.85.35-1.55 1.15-2.45 1.15-1.45 0-3.5-1.75-4.05-3.2a8.78 8.78 0 01-.3-2.65l.95-.3c.75 1.35 1.25 2.6 2.7 2.6 2.05 0 7.05-1.45 8.85-2s2-1.35 2.8-1.35c1.35 0 4.2 2 4.2 3.15s-1.8 1.55-2.9 2.9a117.84 117.84 0 00-7.8 11.8l-.1.2h.25a38.54 38.54 0 0116.2 3.7 15.27 15.27 0 00.45-4.65 1.44 1.44 0 00-.8-1.55 7.57 7.57 0 00-1.9-.7zm-18.3 6.45c-5.35.8-9.45 3.7-10.3 6.9-.55 2.15.45 4.4 1.8 4.4s2-.7 3.1-2.2 3.5-5.7 5.4-9.1zm86.57.25c-.1.7-.55 1.15-1.8 1.35v17.45c0 .4-1.35 1.1-2.6 1.1h-.6v-4H374v3.35c0 .4-1.35 1-2.55 1h-.6V105l4.95.55c-.1.7-.55 1.15-1.8 1.35V120h14.1v-19.3h-11.7v1.8c0 .4-1.35 1-2.55 1h-.6V84.75l4.95.55c-.1.65-.55 1.1-1.8 1.3v12.55h11.7v-18.8l5.1.55c-.15.7-.55 1.2-1.75 1.4v16.85h12v-14.4l5 .55c-.1.65-.6 1.1-1.8 1.3v15.65c0 .35-1.4 1-2.6 1h-.6v-2.6h-12V120h14.45v-15zm31.98-21.35a7.78 7.78 0 013.4-1.05c2 0 5.15 1.1 5.15 2.35s-.75 2-.85 3.2c0 .65 0 1.65-.1 2.85 8.25-.9 11.45-1.35 12.5-1.35 1.75 0 4.35.95 4.35 2.55 0 .9-.45 1.3-1.4 1.3-1.6 0-5.4-1.2-15.45-.35 0 2.4.05 5.2.05 7.7 1.45 1.5 2.1 3.85 2.1 6.75 0 9.15-6.9 14.75-16.55 17.15l-.65-1.25c6.1-2.25 11.1-5.8 12.9-10.7-4.9 2.25-8.9-1.6-8.9-6.7 0-3.65 2.45-7 6.55-7a8.85 8.85 0 012.05.25c-.05-1.5-.15-3.65-.25-5.9a112.52 112.52 0 00-13.25 2.45c-2.25.55-3.25 1.35-4.55 1.35-1.65 0-4-2.25-4.55-3.65a9.67 9.67 0 01-.5-3l.95-.35c1.1 1.65 2.05 3.25 3.75 3.25 1.85 0 12.15-1.5 18.05-2.15-.05-1.8-.15-3.5-.25-4.75-.1-1-.35-1.3-1.15-1.55a20 20 0 00-3.3-.35zm6.45 22.35c0-3.25-1.6-4.9-3.75-4.9-2.5 0-4.1 2.2-4.1 4.75 0 2.85 1.75 4.8 4.05 4.8 2.52 0 3.8-1.15 3.8-4.65zm33.25 12.55a7 7 0 117.05 7 7.06 7.06 0 01-7.05-7zm1.7 0a5.33 5.33 0 1010.65 0 5.33 5.33 0 00-10.65 0z" fill="#fff" data-name="レイヤー 1"/></g></svg>