<svg xmlns="http://www.w3.org/2000/svg" viewBox="0 0 598.38 206.3"><g data-name="レイヤー 2"><path d="M162.68 29c-.35.5-.85.6-1.85.25a105.36 105.36 0 01-12.6 5.8c4.45 3.9 10.45 6.3 17.6 7.65l-.1.55a3.84 3.84 0 00-3 3c-11.5-3.25-18.73-9.2-22.1-20.55h-8.85v14.65c3.95-.75 8.5-1.6 13.15-2.55l.15.8c-4.75 1.65-11.35 3.95-20.46 6.65a2 2 0 01-1.14 1.15l-2.2-4.25c1.64-.2 4.1-.65 7.15-1.2V5.6l3.9 1.65h8.45V.4l4.95.5c-.1.65-.55 1.1-1.6 1.3v5.05h9.2l1.85-2 4.1 3.1a4.1 4.1 0 01-2.15 1v16.9c0 .35-1.65 1.15-2.8 1.15h-.5v-1.7h-12.15a24.09 24.09 0 005.75 8.6 92.77 92.77 0 0011.25-8.3zm-30.9-20.3v7h22.05v-7zm0 15.55h22.05v-7.1h-22.05zm44.01-8.7c0-2.7-.35-4-3.91-6.45l.45-.8a13.76 13.76 0 013.16.8c1.8.85 4.4 3.1 4.4 5.15s-1.7 5.35-1.7 10.5c0 6.35 2.9 9.6 5 10.7a1.18 1.18 0 001.75-.35 81.63 81.63 0 004.7-9.15l1.3.6c-1.15 3.3-2.75 7.5-3.05 9.05-.45 2.25.35 2.5.35 3.55 0 1.35-1.35 2.15-3.4 1.3-3.9-1.7-9.1-6.05-9.26-15.6-.09-3.6.21-7.05.21-9.3zm23.3-1.25l.45-1.2a15.55 15.55 0 019.4 5 17.8 17.8 0 014.35 11.25c0 1.95-.65 2.8-2 2.8-.8 0-1.4-.6-1.6-1.75-.35-2.2-.75-6.45-2.85-10a14.47 14.47 0 00-7.75-6.1zm50.2-1.45c4.4 4.9 12.6 8.5 20 10.25l-.05.55a3.39 3.39 0 00-2.8 2.75c-7.55-2.6-14.75-7.3-18.55-13.55h-.3v10.8a3.49 3.49 0 01-2.7 1h-.5v-10.9c-4.95 5.95-12.45 10.75-20.9 13.9l-.5-.8a51 51 0 0017.65-14h-16.5l-.45-1.5h20.7v-5.5c-5.5.5-11.3.85-16.85.85l-.15-1c11-.8 24.6-3.05 31.75-5.25l3.5 3.55c-.4.35-1.35.35-2.55-.1-3.55.55-7.85 1.15-12.5 1.6v5.85h14.25l2.3-2.85s2.65 2 4.3 3.55c-.1.55-.6.8-1.3.8zm8.65 11.3l3.9 3a3.54 3.54 0 01-1.95.95v16.8c-.05.35-1.65 1.1-2.75 1.1h-.5v-3.1h-21.25v2.2c0 .35-1.35 1.1-2.7 1.1h-.55V24.5l3.5 1.55h20.55zm-22.55 3.4v6.05h21.25v-6.05zm21.25 13.85v-6.35h-21.25v6.35zm26.54-38.85l.65-.65a7.61 7.61 0 012.4 1.1c1.85 1.25 3.3 3.5 3.3 4.6a11.68 11.68 0 01-.65 3 39.89 39.89 0 00-1.15 5c-.2 1 .2 1.1.75.1 2.35-4.15 5.85-7.15 9.1-7.15 6 0 8.75 6.45 8.75 15.35 0 10.35-4.6 18.7-18 22.2l-.55-1.1c12.1-4.85 15.05-12.45 15.05-21.4 0-8.15-2.25-13-5.75-13-2.35 0-5.5 2.25-7.25 5.6a20.11 20.11 0 00-2.6 9.55c0 2 .3 3.45.3 5.1a1.43 1.43 0 01-1.4 1.6 1.77 1.77 0 01-1.75-1.25 14 14 0 01-.75-4.65c0-5.4 2.4-15 2.4-17.75s-.75-3.8-2.85-6.25zM344.68 0l.85 1c-5.8 4.7-11 11.9-11 22.4s5.2 17.7 11 22.4l-.85 1c-6.75-4.3-13.45-11.35-13.45-23.4s6.7-19.1 13.45-23.4zm52.8 14.1s2.55 2 4.15 3.45a1.2 1.2 0 01-1.3.8h-26.45l.55.5c-.15.55-.65.75-1.35.75h-6.85v3c9.8 4.45 7.25 10.75 4.1 8.4a20.54 20.54 0 00-4.1-7v21.2c0 .5-1.35 1.25-2.5 1.25h-.65V27.1a44.46 44.46 0 01-7.85 12l-.75-.6c3.5-5.3 6-12.2 7.6-18.9h-6.45l-.35-1.4h7.8V.55l4.75.55c-.1.65-.45 1.1-1.6 1.25V18.2h2l2.2-2.8s1.65 1.35 3.1 2.65l-.3-1.15h11.35v-4.25h-9l-.4-1.4h9.4v-3.9H375l-.4-1.4a1.82 1.82 0 01-1.35.35 51.16 51.16 0 01-5 9.3l-.8-.35c.9-3 2-7.55 2.8-11.5l4.85 1.55a1.27 1.27 0 01-.4.6h9.85V.75l5 .55c-.1.7-.6 1.2-1.8 1.35V5.9H394l2.2-2.85s2.55 2 4.1 3.55c-.15.55-.6.75-1.3.75h-11.22v3.9h5.65l2.1-2.75s2.45 1.95 4 3.35c-.1.55-.6.8-1.25.8h-10.5v4.25h7.5zm-40.8-9.7c6.9 7 3.8 13.1 1.2 10.3A31.77 31.77 0 00356 4.6zm38.15 16l4.17 3.1a4.35 4.35 0 01-2.15.9v17.3c0 2.5-.5 4.15-5.05 4.6a3.32 3.32 0 00-1-2.3 9.82 9.82 0 00-4.2-1.2V42s4.9.35 6.05.35c.85 0 1.1-.3 1.1-1V36h-13.92v9.1c0 .35-1.25 1.1-2.55 1.1h-.55V20.75l3.4 1.6h13.05zm-15 3.45v4.4h13.85V23.8zm13.85 10.65v-4.8h-13.85v4.75zm15.73-22.45c10.65 1.2 8.8 8.45 5.2 6.55-.86-2.25-3.45-4.75-5.65-6.05zm14.7-1.2c-2.1 5.85-6.25 17-6.9 19.25a13.87 13.87 0 00-.75 4.25c0 2.1 1.35 4.45 1.15 8.45 0 2.15-1 3.45-2.7 3.45-.91 0-1.41-1-1.5-2.45.65-5.1.3-9-.7-9.7a4.68 4.68 0 00-2.5-.75v-1.1h2.25c.6 0 .79 0 1.2-.95.95-1.75.95-1.75 9.5-20.7zm-10.3-9.75c11 1.65 9.05 9.1 5.3 7.05-.8-2.3-3.5-5.1-5.75-6.6zM455 11.8a2.94 2.94 0 01-2.1.9v31.5c0 .3-1.25 1.1-2.6 1.1h-.5v-3.5h-21.29v2.9c0 .3-1 1.1-2.6 1.1h-.4V9.4l3.6 1.55h8.3V.5l4.9.6c-.15.65-.55 1.15-1.75 1.35V11h9l1.65-2.1zm-26.45.6v12.7h8.9V12.4zm0 27.9h8.9V26.6h-8.9zm12.05-27.9v12.7h9.2V12.4zm9.2 27.9V26.6h-9.2v13.7zM474 28a4.6 4.6 0 114.6-4.6A4.59 4.59 0 01474 28zM24.7 101.35c1.8 8.05 7.15 16.4 21.55 21.9l-.1.55c-1.75.2-2.95.8-3.35 2.6-13.6-6.3-17.55-16.35-19-25.05h-.7c-1.65 10.65-6.6 18.9-22.5 24.8l-.6-.9c13.8-6.2 18.15-14.1 19.55-23.9H2.9l-.45-1.45h17.3c.45-4 .5-8.35.55-13H1.2l-.45-1.5h37.4l2.6-3.15s3 2.2 4.75 3.85c-.15.55-.65.8-1.35.8H24a130 130 0 01-.7 13h13.4l2.5-3.15s2.9 2.25 4.65 3.8c-.15.55-.6.8-1.3.8zm62.3-6.6c1.9 8.1 6.55 13.25 13.65 16.1v.5a3.85 3.85 0 00-3 2.8c-6.45-3.8-9.8-9.6-11.4-18.55-1.4 7.6-5.35 14-17.4 18.55l-.65-.85c10.45-4.8 14-11 15.1-18.55h-6.5l-.35-1.3c-3.65 9.25-10 17.5-21.1 22.55l-.55-.65c10.6-6.1 17-16 19.75-26.85h-9c-.6 1-1.2 2.1-1.85 3.1 8.55 1.5 7.15 7.2 4.15 5.65-.65-1.65-2.75-3.6-4.7-4.8a38.74 38.74 0 01-3.7 4.65c8.9 2.5 7 8.5 4 6.6-.5-2-2.65-4.45-4.55-6a33.21 33.21 0 01-4.05 3.55l-.6-.6c4.35-4.6 8.65-12.15 11-20.35L70 82c-.25.6-.85 1-2 .9-.55 1.45-1.2 2.85-1.85 4.2h8.05l2-2 3.55 3.25c-.4.45-.9.6-2 .65-.45 1.45-.9 2.9-1.45 4.3h7a108.63 108.63 0 00.4-11.7l4.8.5c-.1.65-.5 1.1-1.6 1.25-.1 3.5-.15 6.8-.5 10h7.25l2.3-3a52.38 52.38 0 014.3 3.65c-.15.55-.6.8-1.3.8zM63.34 114.4c1.1 6.3-2 9.85-4.35 11.15-1.4.85-3.25 1-3.75-.1s.25-1.9 1.25-2.5a10.35 10.35 0 006-8.55zm7.3.4c7.4 6.65 3.7 13.45.9 10.25a22.2 22.2 0 00-1.6-10zm9.55-.25c9.85 6 6.8 13.45 3.65 10.6-.2-3.3-2.4-7.55-4.3-10.25zM89 83.75c9.1 2.5 6.45 8.55 3.45 6.4a13.68 13.68 0 00-4-6zm.45 30.55c13.45 5.55 11.35 13.9 7.6 11.4-1.1-3.6-5.1-8.25-8.2-11zM116.46 92c1.6 1.4 3.1 2.55 5 2.55a108.59 108.59 0 0011.15-1.2c7.8-1.1 7-2.35 8.4-2.35 1.85 0 4.65 1 4.65 2.2 0 .75-.45 1.3-1.85 1.5-1.9.25-8.25.95-12.7 1.45 1.55.7 2.85 1.55 2.85 2.5s-.6 1.7-.75 3.15c-.25 2.15-.6 6.9-.8 10.45 3.85-.35 7.7-.6 11-.75a23.6 23.6 0 003.4-.55c2.05 0 6 1.65 6 3.45 0 .85-.55 1.3-1.5 1.3-1.3 0-4.6-1.1-9.65-1.3a104.36 104.36 0 00-22.4 2.05c-1.9.5-2.75 1.2-3.9 1.2-1.5 0-3.85-2.2-4.4-3.3a6.16 6.16 0 01-.65-2.75l.95-.4c1.05 1.35 2.2 2.65 4 2.65 1.45 0 7.45-.65 14.2-1.3.25-3.7.4-9.35.4-11.6a6.09 6.09 0 00-1.6-4.45c-3.35.45-6.1 1-7.3 1a4.78 4.78 0 01-3.1-1.65 11.42 11.42 0 01-2.15-3.3zm45.54 8.45l.6-.55a16.67 16.67 0 013.5 2.55c2 1.75 3.15 3.5 3.15 5.1 0 1-.5 1.8-1.55 1.8-1.6 0-1.65-1.95-3.05-4.65a22.91 22.91 0 00-2.65-4.25zm4 24.45l-.6-.9c13.25-6.9 20.8-19.8 20.8-23.6 0-.8-.7-1.4-2.65-2.2l.25-.75a9.22 9.22 0 012.35 0c1.85.3 4.25 2.5 4.25 3.75 0 .8-.85 1.2-1.4 2.35a41.06 41.06 0 01-23.1 21.35zm4.85-27.05l.6-.55a17 17 0 013.7 2.65 6.48 6.48 0 012.65 4.8 1.56 1.56 0 01-1.65 1.7c-1.5 0-1.5-2-2.7-4.5a21.86 21.86 0 00-2.7-4.1zm59.73 9.3a51.57 51.57 0 007.5-9.55c.35-.6.15-.95-.55-.85-2.75.45-10.4 2.9-14.9 4.4-.2 4.4-.35 9.1-.3 12 .1 4.1.6 4.5 6.7 4.5 6.95 0 9.25-1.1 10.4-1.1 1.35 0 3.35.6 3.35 1.9 0 .9-.95 1.35-2.3 1.55a61.57 61.57 0 01-9.95.85c-7.85 0-10.85-.45-10.95-7.05-.1-3.45 0-8.4.15-11.7-2.4.8-5.65 1.95-7.75 2.85-1.8.8-1.85 1.5-3.25 1.5-1.15 0-3.9-2-4.55-3.45a5.63 5.63 0 01-.3-2.65l.8-.3c1 1.5 1.8 2.5 3 2.5 1.75 0 8.65-2 12.05-3.1.1-4.1.25-9.1.1-11.1-.1-1.25-1.6-1.55-4-1.9l-.05-1a12 12 0 013.7-.65c1.8 0 5.05 1.9 5.05 3s-1 1.75-1.2 3.25-.4 4.25-.6 7.5c4.3-1.25 10.65-3 13.6-3.85 1.45-.4 1.8-1.3 2.55-1.3 1.45 0 4.85 2.7 4.85 3.9 0 1-1.45 1.2-2.6 2.35a66.37 66.37 0 01-9.7 8.25zM291.67 93l1.15.75c-6 10.65-15.3 18.65-26.25 25.65-1 .6-1.55 1.85-2.65 1.85-1.95 0-4.95-2.35-5.95-3.85a10.7 10.7 0 01-1.05-3.25l.8-.5c1.5 1.65 3.1 3.25 4.7 3.25 3.85-.05 22.15-13.3 29.25-23.9zm-33.6-4.7c5.7 1.6 12.6 5 12.6 8.85a1.71 1.71 0 01-1.75 1.85c-.8 0-1.45-.55-2.75-2.1a33.67 33.67 0 00-8.7-7.55zm46.38 9.2l.5-1.1a52.49 52.49 0 016.7 2.1c3.05 1.25 4.9 3 4.9 5a1.44 1.44 0 01-1.45 1.5c-1.55 0-2.35-1.8-5-3.75a35 35 0 00-5.65-3.75zm36.9-2.8l1.15.75c-5.7 10-16.25 18.75-27.3 24.85-1 .6-1.55 1.9-2.85 1.9-1.55 0-4.7-2.1-5.8-3.7a8.25 8.25 0 01-1.1-3.35l.8-.45c1.35 1.6 2.9 3.3 4.6 3.3 3.4 0 21.5-10.8 30.5-23.3zm-30.2-6.8l.55-1.15a49.57 49.57 0 016.3 2.15c3.4 1.7 4.9 3.35 4.9 5.1a1.5 1.5 0 01-1.45 1.65c-1.4 0-2.4-2-5.05-4.15a30.91 30.91 0 00-5.25-3.6zm47.75 7.6a10.73 10.73 0 013.05-.65c1.65 0 4.2.9 4.2 1.75s-.25 1.4-.15 2.45c.1.8.5 2.8.95 4.65 3.55-.9 9.35-2.45 10.9-3 .85-.25 1.45-1 2-1 1.35 0 3.85 2.35 3.85 3.45 0 .75-1.35.85-2 1.5a54.93 54.93 0 01-8.35 7.75l-.6-.55a44.53 44.53 0 005.8-8.55c.25-.55.05-.6-.45-.5-1.75.35-7 1.9-10.65 3 1.3 5 3.05 11.45 3.85 14.1a15.48 15.48 0 01.95 3.5c0 1.15-.45 1.8-1.55 1.8-1.35 0-2.1-1.2-2.35-2.8-.6-3.7-2.35-11.35-3.55-15.85-2.15.65-4.5 1.45-5.35 1.75-1.45.55-2 1.4-2.85 1.4a5.23 5.23 0 01-3.6-2.6 10.19 10.19 0 01-.34-2.2l.59-.3c.66.7 1.31 1.6 2.41 1.65s4.95-1 8.55-1.85a47.19 47.19 0 00-2.1-6.7c-.45-1-1.45-1.25-3.1-1.45zm40.27-.2v-1a8.38 8.38 0 012.9-.35c1.75.15 5.3 2 5.3 3.55 0 1-.95 1.4-1.2 2.65a33.32 33.32 0 01-15.4 21.35l-.85-1c7.95-6.2 13-16.6 13-22.65 0-1.65-2.55-2.25-3.75-2.55zm9.8-6.4a9.07 9.07 0 013.3-.6c2 0 5.25 1.8 5.25 3s-1 1.1-1.15 2.65c-.25 2.3-.65 15.9-.65 19.65 0 .7.3.8.8.65a58.34 58.34 0 0018.85-13.5l1.05.85c-4.3 6.15-11.6 12-18.45 15.85-1.15.7-1.8 2.1-2.8 2.1s-3.1-2.4-3.1-3.35.55-1.2.7-3.2c.25-2.85.55-16.3.25-21.1 0-1.25-1.4-1.7-3.95-2zm52.81-4.25a12 12 0 013.65-.75c2.2 0 4.9 1.65 4.9 2.45 0 1.15-.7 1.2-.9 3.1-.15 1.45-.25 3.7-.25 5.5 8.35-.9 8.4-1.65 9.25-1.65 1.8 0 4.45 1.25 4.45 2.55a1.21 1.21 0 01-1.25 1.25 107.77 107.77 0 00-12.45.15c-.05 4.65 0 12.6.1 16.3.1 3 .4 4.2.4 5.45 0 2-1.5 4.25-2.95 4.25s-1.35-1.7-2.35-2.6a29.5 29.5 0 00-5.4-3l.4-.9c2 .5 4.55 1.1 5.9 1.3.65.1 1-.15 1.05-.7.2-2.1.1-9.95 0-15.9-4.6 6.9-14.1 14.65-22.75 18.5l-.75-1c8.3-5.15 17.55-13.7 21.65-21.15-3.65.4-7.2 1-9.75 1.5-2.15.4-3.1 1.1-4.55 1.1s-3.6-2.2-4.05-3.35a8.62 8.62 0 01-.35-2.8l1-.4c1.15 2 2.1 3 3.4 3 3.1 0 10.85-1 16.15-1.5 0-2.65 0-5.65-.1-7.4 0-.9-.35-1.2-1.25-1.55a12.14 12.14 0 00-3.2-.6zm49.8-.5a8.89 8.89 0 013.25.55c1.95.65 4.15 2.85 4.15 4.15 0 1-.9.85-2.25 2.35-1.85 2-4.3 4.75-7.6 7.9 1.4.9 2.55 1.75 2.55 2.45a22.06 22.06 0 00-.45 2.6c-.35 7.25-.1 14.9-.1 17.9 0 1.85-.45 2.45-1.5 2.45-1.65 0-2.5-2.4-2.5-4 0-.9.4-1.9.6-3.55a127.14 127.14 0 00.45-14 3.45 3.45 0 00-.75-2.2 70.37 70.37 0 01-18.75 11.85l-.65-1.2c12.65-7 21.3-16.2 24.8-21.15a6 6 0 001.35-2.55c0-.8-.85-1.5-2.95-2.55zM538 95.3v-1a8.38 8.38 0 012.9-.35c1.75.15 5.3 2 5.3 3.55 0 1-.95 1.4-1.2 2.65a33.32 33.32 0 01-15.4 21.35l-.85-1c7.95-6.2 13-16.6 13-22.65-.02-1.65-2.57-2.25-3.75-2.55zm9.8-6.4a9.07 9.07 0 013.3-.6c2 0 5.25 1.8 5.25 3s-1 1.1-1.15 2.65c-.25 2.3-.65 15.9-.65 19.65 0 .7.3.8.8.65a58.34 58.34 0 0018.85-13.5l1.05.85c-4.3 6.15-11.6 12-18.45 15.85-1.15.7-1.8 2.1-2.8 2.1s-3.1-2.4-3.1-3.35.55-1.2.7-3.2c.25-2.85.55-16.3.25-21.1-.05-1.25-1.4-1.7-4-2zm37.13-8.9c6.75 4.3 13.45 11.35 13.45 23.4s-6.7 19.1-13.45 23.4l-.85-1c5.8-4.7 11-11.9 11-22.4s-5.2-17.7-11-22.4zm-350.61 91.25a11.1 11.1 0 013.55.95c1.8 1 3 3 3 4s-1.2 1.4-3.2 2.1a82.4 82.4 0 00-12.2 5.7c-4 2.3-9.5 6.5-9.5 11.15 0 2.95 2.8 5.3 10.6 5.3 7.1 0 10.85-1.4 12.3-1.4 1.75 0 3.3.45 3.3 1.95 0 .65-.8 1.25-1.8 1.55a52.41 52.41 0 01-12.75 1.2c-8.75 0-14-2.85-14-8.05 0-5.65 5.8-10.5 9.1-12.85a8.67 8.67 0 01-3-4.25 57.77 57.77 0 01-2.2-10.45 1.77 1.77 0 00-1.4-1.65 19.81 19.81 0 00-2.75-.65l-.05-1a11.66 11.66 0 013.2-.5c2.25 0 4.9 1.6 4.95 2.75a25.45 25.45 0 00-.35 2.6 31.71 31.71 0 001.1 7.6 7.11 7.11 0 002.75 4.1c3.7-2.2 8.85-4.8 10.7-5.8.8-.4 1-.75.65-1.4a5.43 5.43 0 00-2.55-2.1zm22.92-6.45a7.64 7.64 0 012.55 1.5c1 .8 3.35 3.35 3.35 5.45 0 1.1-.7 2-1.95 5-1.2 2.85-3.25 8-3.25 13.2a10.07 10.07 0 00.95 5.05c.3.6.75.7 1.15 0 1-1.65 3.8-8.35 4.95-10.9l1.2.6c-.95 2.6-3.1 8.45-3.75 10.25a15.71 15.71 0 00-.8 3.45c0 1.55.7 3.1.7 4.3a1.36 1.36 0 01-1.4 1.55c-.9 0-1.65-.8-2.4-1.9-1.35-2-2.9-6.65-2.9-11.7a49.11 49.11 0 012.4-14 27.69 27.69 0 001.3-5.8c.05-1.8-1.15-3.4-2.9-5.45zm21.55.9a10.66 10.66 0 013.65-.95c2.1 0 4.75 1.35 4.75 2.55 0 1-.45 1.3-.8 3.5a37.72 37.72 0 00-.39 4.2 33.85 33.85 0 003.25-1.1c2.1-.85 2.75-1.35 3.2-1.35 1.05.05 2.6.6 2.6 1.6s-.65 1.4-2.3 2a70.12 70.12 0 01-6.8 1.75c0 5.15.45 10.3.75 14.15a19.35 19.35 0 018.25 4.5 4 4 0 011.6 2.8c0 1-.45 1.6-1.3 1.6s-1.35-.6-2.3-1.5a21 21 0 00-6.05-4.35c.05.55.05 1 .05 1.45 0 3.8-2.35 6.5-8.5 6.5-4.45 0-8-2.05-8-5.65 0-4.25 4.4-6.2 9.8-6.2a26.54 26.54 0 013.6.25c-.15-3.55-.45-8.75-.55-13.1a43.71 43.71 0 01-5.65.45c-3.1 0-5.15-.7-7.85-4.55l.75-.7a10.91 10.91 0 007 2.55 34.2 34.2 0 005.75-.5c-.05-2.45 0-5.4 0-6.7 0-1.15-.2-1.45-.9-1.65a16.59 16.59 0 00-3.5-.45zm5.15 28.3a20.51 20.51 0 00-5.15-.6c-3.1 0-6.5 1.3-6.5 3.7 0 2.25 2.25 3.2 5.25 3.2 5.45 0 6.4-2 6.4-6.05zm34.62-31.85a1.84 1.84 0 01-2 .9 75.37 75.37 0 01-5 10.95l1.95.75c-.15.45-.6.7-1.5.85v29.55a3.52 3.52 0 01-2.65 1.1h-.6V178.5a45.19 45.19 0 01-6.26 7.55l-.7-.5c4.41-6 9-15.5 11.56-25.05zm26.05.8a56.78 56.78 0 014.45 3.8 1.15 1.15 0 01-1.25.75h-3.95v33.9c0 2.6-.7 4.45-5.75 4.9a2.92 2.92 0 00-1.3-2.25 13.31 13.31 0 00-5.1-1.25v-.75s6.2.4 7.45.4c1.1 0 1.4-.35 1.4-1.2V167.5h-23.2l-.4-1.45h25.25zm-11 31a5.48 5.48 0 01-2.65.8h-.45v-3.5h-8.6v3.4c0 .3-1.3 1.05-2.55 1.05h-.5v-21.8l3.3 1.5H330l1.75-2.05 4.15 3.15a4.08 4.08 0 01-2.25 1.1zm-3.1-4.15v-12.9h-8.6v12.9zm36.71-24.8a8.31 8.31 0 013.25-.65c2 0 5.75 1.75 5.75 3 0 1.1-1 1.65-1.55 2.9s-1.25 3.1-2.2 5.3a25.59 25.59 0 014.15-.45c3.75 0 5.9 2 5.9 7.95 0 6.05-1.8 13.05-4.75 16.75a7.48 7.48 0 01-6 3.15c-1.65 0-2-.7-2.65-2.15-.35-.75-.7-1.35-3.5-3.75l.6-.8c2.6 1.65 4.85 3 6 3 1.55 0 2.7-.55 4-2.6 1.65-2.55 3.5-8.65 3.5-14.35 0-3.65-.85-5.2-3.65-5.2a19.49 19.49 0 00-4.5.75c-1.45 3.35-3.15 7.15-4.75 10.5a127.26 127.26 0 01-7.4 13.6c-.75 1.2-1.3 1.55-2.05 1.55a1.71 1.71 0 01-1.51-1.85 3.29 3.29 0 01.81-2.3 78.36 78.36 0 007.8-12.35c1.2-2.4 2.55-5.35 3.75-8.25-1.85.6-3.55 1.2-4.55 1.6-2.16.85-2.85 1.4-4.1 1.4s-3.15-1.9-3.56-3.5a6.39 6.39 0 01.1-2.9l1-.15c.55 1.35.89 2.95 2.35 2.95s6.1-1.2 9.8-2c1.5-3.85 2.6-7.1 2.6-8a1.22 1.22 0 00-.8-1.3 13.11 13.11 0 00-3.8-.75zm19.2 10.15c4.05.6 6.55 1.9 8.55 4.15a13.6 13.6 0 013.1 9.15c0 2-.65 3.65-2.1 3.7s-1.35-1.4-2.8-1.7a31.08 31.08 0 00-5.9.25l-.3-1.2a55.27 55.27 0 006.4-1.5c1.05-.4 1.2-.85 1.15-2.15a11.33 11.33 0 00-2-5.6 9.76 9.76 0 00-6.65-3.9z" fill="#fff" data-name="レイヤー 1"/></g></svg>