<svg xmlns="http://www.w3.org/2000/svg" viewBox="0 0 110.76 14.54"><g data-name="レイヤー 2"><path d="M11.92 2.38h-.08A5.74 5.74 0 0010 1.3 6.32 6.32 0 007.66.88a6.53 6.53 0 00-2.26.38 5 5 0 00-1.76 1.12 5.06 5.06 0 00-1.15 1.8 6.78 6.78 0 00-.41 2.42 9.6 9.6 0 00.39 2.79 6.53 6.53 0 001.16 2.24 5.48 5.48 0 001.93 1.49 6.32 6.32 0 002.7.54 5.4 5.4 0 001.12-.12 4.86 4.86 0 001.06-.34 5.45 5.45 0 001-.56 5.36 5.36 0 00.83-.75l.1.07-.78 2a9 9 0 01-1.61.43 10.72 10.72 0 01-1.79.15A9.93 9.93 0 014.86 14a7.61 7.61 0 01-2.58-1.48A6.74 6.74 0 01.6 10.24a7.24 7.24 0 01-.6-3 7.17 7.17 0 01.94-3.52 6.74 6.74 0 011.13-1.49 7.57 7.57 0 011.54-1.18 7.64 7.64 0 011.9-.77A8.56 8.56 0 017.76 0a10.16 10.16 0 013.5.58zM24.12 0a8.39 8.39 0 013 .53A7.08 7.08 0 0129.52 2a6.81 6.81 0 011.57 2.31 7.52 7.52 0 01.57 3 8 8 0 01-.22 1.83 7.07 7.07 0 01-.63 1.7 6.73 6.73 0 01-1 1.48 6.48 6.48 0 01-1.38 1.17 6.62 6.62 0 01-1.71.77 7 7 0 01-2 .28 8.42 8.42 0 01-3-.52 7 7 0 01-2.39-1.48 6.86 6.86 0 01-1.57-2.3 7.57 7.57 0 01-.56-3 8 8 0 01.21-1.83A7.31 7.31 0 0118 3.72a6.9 6.9 0 011-1.49 6.77 6.77 0 011.37-1.18 6.54 6.54 0 011.72-.77A7 7 0 0124.12 0zm.55 13.66a4.94 4.94 0 002-.39 4.31 4.31 0 001.54-1.13 5.4 5.4 0 001-1.81 7.62 7.62 0 00.36-2.43 10.77 10.77 0 00-.35-2.79 6.59 6.59 0 00-1-2.22 4.93 4.93 0 00-1.7-1.48 5.15 5.15 0 00-2.4-.53 5.06 5.06 0 00-2 .38 4.32 4.32 0 00-1.55 1.12 5.08 5.08 0 00-1 1.8 7.55 7.55 0 00-.36 2.42 10.77 10.77 0 00.34 2.79 6.88 6.88 0 001 2.24 5 5 0 001.71 1.49 5.06 5.06 0 002.41.54zM38 .23l10.06 10.71V2.61c0-.45 0-.77-.06-1.07s-.08-.54-.11-.76-.07-.37-.11-.51h1.73c0 .14-.07.31-.1.51a6.12 6.12 0 00-.09.76c0 .3 0 .66-.06 1.07s0 .9 0 1.45v10.37h-.36L38.84 3.74v8.13c0 .45 0 .77.06 1.07a5.94 5.94 0 00.09.75c0 .2.07.37.1.51h-1.71c0-.14.07-.31.11-.51s.07-.45.09-.75.05-.66.06-1.07 0-.9 0-1.45V2.61c0-.45 0-.77-.06-1.07s-.06-.54-.09-.76-.07-.37-.11-.51zm29.16 2.15h-.09a5.81 5.81 0 00-1.83-1.08 6.38 6.38 0 00-2.35-.42 6.58 6.58 0 00-2.26.38 5 5 0 00-1.76 1.12 5.2 5.2 0 00-1.15 1.8 6.78 6.78 0 00-.41 2.42 9.6 9.6 0 00.39 2.79 6.38 6.38 0 001.17 2.24 5.35 5.35 0 001.92 1.49 6.39 6.39 0 002.71.54 5.24 5.24 0 001.11-.12 4.94 4.94 0 001.07-.34 5.73 5.73 0 001-.56 4.94 4.94 0 00.83-.75l.11.07-.78 2a9.1 9.1 0 01-1.62.43 10.6 10.6 0 01-1.78.15 10 10 0 01-3.35-.54 7.61 7.61 0 01-2.58-1.48 6.74 6.74 0 01-1.68-2.3 7.24 7.24 0 01-.6-3 7.17 7.17 0 012.07-5 7.86 7.86 0 011.54-1.18 7.71 7.71 0 011.91-.76A8.46 8.46 0 0163 0a10.14 10.14 0 013.49.58zM75.39.22L77.6.2h1.72a8.41 8.41 0 001-.08l-.48 1.3a9.644 9.644 0 00-1.65-.27 11.25 11.25 0 00-1.23-.06h-1.91v5.38h1.82l1.38-.1c.44 0 .83-.09 1.17-.14l-.3 1.42-1.38-.17-1.32-.12h-1.37v6.12a19.72 19.72 0 002.12-.1c.65-.06 1.21-.14 1.69-.22a14.25 14.25 0 001.54-.33l-.29 1.59H73q.06-.21.12-.51t.09-.75c0-.3 0-.66.06-1.07s0-.9 0-1.45V2.61c0-.45 0-.77-.06-1.07s-.1-.54-.13-.76S73 .41 73 .27zm10.98.01h1.3a8.09 8.09 0 001-.09 12.34 12.34 0 011.68-.02 5.38 5.38 0 011.74.27 3.94 3.94 0 011.38.8 3.64 3.64 0 01.91 1.29 4.22 4.22 0 01.33 1.72 4.59 4.59 0 01-.52 2.25A4.26 4.26 0 0192.8 8a5.15 5.15 0 01-2 .79 7.22 7.22 0 01-2.37 0v3.07c0 .45 0 .77.06 1.07s.06.55.09.75.07.37.11.51h-2.32a4 4 0 00.11-.51 5.94 5.94 0 00.09-.75c0-.3.05-.66.06-1.07s0-.9 0-1.45v-7.8c0-.45 0-.77-.06-1.07a6.12 6.12 0 00-.09-.76 4 4 0 00-.11-.51zM88.43 8a4.93 4.93 0 001.75 0 2.9 2.9 0 001.37-.6 3 3 0 00.89-1.26 5.23 5.23 0 00.32-1.93 5.8 5.8 0 00-.17-1.44 3.23 3.23 0 00-.49-1.11 2.34 2.34 0 00-.83-.7 2.51 2.51 0 00-1.16-.18 5.16 5.16 0 00-.73 0 5 5 0 00-.53.07 2.51 2.51 0 00-.42.11zm15.47-6.91a18.41 18.41 0 00-2.08.11c-.62.06-1.16.14-1.61.22a12.55 12.55 0 00-1.39.32L99.1.16h11.38l.28 1.58a13 13 0 00-1.41-.32c-.44-.08-1-.16-1.6-.22a18.55 18.55 0 00-2.08-.11v11.85c0 .3.06.55.09.75s.08.37.12.51h-2.34a4 4 0 00.11-.51q0-.3.09-.75c0-.3 0-.66.06-1.07s0-.9 0-1.45z" fill="#fff" data-name="レイヤー 1"/></g></svg>