<svg xmlns="http://www.w3.org/2000/svg" viewBox="0 0 259.18 22.86"><g data-name="レイヤー 2"><path d="M19.53 1.89c-.06 2.85-.06 5.76-.06 8.73v1.65c0 2.88 0 5.82.06 8.7l3.15.33v1.08h-8.94V21.3l3.12-.3c.06-2.82.06-5.76.06-9.27H5.7c0 3.48 0 6.42.09 9.24l3.12.33v1.08H0V21.3l3.12-.3c.09-2.85.09-5.76.09-8.7v-1.68c0-2.91 0-5.85-.09-8.73L0 1.56v-1h8.91v1l-3.12.33c-.09 2.79-.09 5.67-.09 8.58h11.22c0-2.88 0-5.76-.06-8.58l-3.12-.33v-1h8.94v1zM52 11.43c0 7.11-4.71 11.43-9.81 11.43s-9.9-4.11-9.9-11.43C32.27 4.35 37 0 42.17 0S52 4.11 52 11.43zm-9.83 10.11c4.68 0 6.9-4.92 6.9-10.11s-2.22-10.08-6.9-10.08-7 4.92-7 10.08 2.26 10.11 7 10.11zM90.72 1.56L87.84 2l-5.52 20.62h-1.17L75.42 4.89l-5.49 17.73h-1.14L62.94 1.86l-2.82-.3v-1h8.52v1l-3.09.36 4.32 16.26 5.22-16.26-3.3-.36v-1h8.49v1L77 2l5.08 16.3L86.4 2l-3.12-.42v-1h7.44zm34.28.27c-.09 2.85-.09 5.79-.09 8.79v1.65c0 2.88 0 5.82.09 8.7l3.45.33v1.08h-9.57V21.3l3.48-.33c.06-2.85.06-5.76.06-8.7v-1.65c0-2.94 0-5.91-.06-8.79h-5.49L116 6.21h-1.5l.24-5.7h17.76l.3 5.7h-1.5l-.84-4.38zm37.19 9.6c0 7.11-4.72 11.43-9.81 11.43s-9.9-4.11-9.9-11.43c0-7.08 4.77-11.43 9.9-11.43s9.81 4.11 9.81 11.43zm-9.81 10.11c4.67 0 6.9-4.92 6.9-10.11s-2.23-10.08-6.9-10.08-7 4.92-7 10.08 2.25 10.11 7 10.11zm56.81-19.98l-2.85.36-.05 11.76c0 6.48-3.07 9.18-7.63 9.18s-7.79-2.61-7.79-8.73v-3.48c0-2.94 0-5.88-.07-8.79l-2.8-.3v-1h8.81v1l-3.38.36v11.49c0 5.64 2.19 7.53 5.63 7.53 4 0 5.91-2.22 5.91-8.1V1.98l-3.54-.42v-1h7.8zm17.21 8.58c4.44 1.77 6 3.57 6 6.6 0 3.81-3.21 6.12-7.59 6.12a12.09 12.09 0 01-6.24-1.74l.15-4.5h1.53l.72 4a6.69 6.69 0 003.69.93c3.27 0 5.46-1.47 5.46-4.26 0-2.16-1.26-3.24-4.38-4.5l-1.23-.48C221.15 10.92 219 9 219 5.88c0-3.75 3.14-5.88 7.1-5.88a8.49 8.49 0 015.28 1.71l-.15 4.2h-1.59l-.72-3.81a5.24 5.24 0 00-2.92-.75c-2.73 0-4.74 1.32-4.74 3.9 0 2.19 1.41 3.48 3.81 4.41zm32.78 6.57l-.18 5.67h-16.68V21.3l3.12-.33c.09-2.85.09-5.76.09-8.7v-1.65c0-2.91 0-5.85-.09-8.73l-3.12-.33v-1h16.05l.21 5.64h-1.47l-.81-4.32h-8.19c-.11 2.77-.11 5.71-.11 8.77h5.25l.45-3.24h1.3V15h-1.23l-.42-3.15H248c0 3.33 0 6.27.09 9.18h8.79l.78-4.32z" fill="#fff" data-name="レイヤー 1"/></g></svg>