<svg xmlns="http://www.w3.org/2000/svg" viewBox="0 0 827.25 28.08"><g data-name="レイヤー 2"><path d="M24.84 17.4c-.21.3-.51.36-1.11.15A63.21 63.21 0 0116.17 21c2.67 2.34 6.27 3.78 10.56 4.59l-.06.33a2.3 2.3 0 00-1.83 1.77C18 25.8 13.62 22.23 11.61 15.42H6.3v8.79c2.37-.45 5.1-1 7.89-1.53l.09.48c-2.85 1-6.81 2.37-12.27 4a1.2 1.2 0 01-.69.69L0 25.29c1-.12 2.46-.39 4.29-.72V3.36l2.34 1h5.07V.24l3 .3c-.06.39-.33.66-1 .78v3h5.52l1.11-1.2L22.8 5a2.46 2.46 0 01-1.29.6v10.15a2.44 2.44 0 01-1.68.69h-.3v-1h-7.29a14.45 14.45 0 003.45 5.16 55.66 55.66 0 006.75-5zM6.3 5.22v4.2h13.23v-4.2zm0 9.33h13.23v-4.26H6.3zm31.49-5.22c0-1.62-.22-2.37-2.34-3.87l.26-.46a8.24 8.24 0 011.9.48c1.07.51 2.63 1.86 2.63 3.09s-1 3.21-1 6.3c0 3.81 1.74 5.76 3 6.42a.71.71 0 001.05-.21 47.36 47.36 0 002.82-5.49l.79.36c-.7 2-1.66 4.5-1.84 5.43-.27 1.35.21 1.5.21 2.13 0 .81-.81 1.29-2 .78-2.33-1-5.46-3.63-5.54-9.36-.12-2.18.06-4.25.06-5.6zm14-.75l.21-.72a9.33 9.33 0 015.64 3 10.68 10.68 0 012.61 6.75c0 1.17-.39 1.68-1.2 1.68-.48 0-.84-.36-1-1.05a16.35 16.35 0 00-1.71-6 8.68 8.68 0 00-4.58-3.66zm35.11-.87c2.64 2.94 7.56 5.1 12 6.15v.33a2 2 0 00-1.68 1.65c-4.53-1.56-8.85-4.38-11.13-8.13h-.18v6.48a2.09 2.09 0 01-1.62.6H84V8.25a29.94 29.94 0 01-12.54 8.34l-.3-.48a30.61 30.61 0 0010.59-8.4h-9.9l-.27-.9H84v-3.3c-3.3.3-6.78.51-10.11.51l-.09-.6a102.6 102.6 0 0019-3.15l2.1 2.13c-.24.21-.81.21-1.53-.06-2.13.33-4.71.69-7.5 1v3.47h8.55l1.39-1.71s1.59 1.2 2.58 2.13c-.06.33-.36.48-.78.48zm5.19 6.78l2.34 1.77a2.13 2.13 0 01-1.17.57v10.08c0 .21-1 .66-1.65.66h-.3v-1.83H78.56v1.32c0 .21-.81.66-1.62.66h-.33v-13l2.1.93H91zm-13.53 2v3.63h12.75v-3.59zm12.75 8.31V21H78.56v3.81zm21.04-23.27l.39-.39a4.57 4.57 0 011.44.66 4.58 4.58 0 012 2.76 7 7 0 01-.39 1.77 23.93 23.93 0 00-.69 3c-.12.63.12.66.45.06 1.39-2.46 3.45-4.26 5.45-4.26 3.6 0 5.25 3.87 5.25 9.21 0 6.21-2.76 11.22-10.8 13.32l-.33-.69c7.26-2.91 9-7.47 9-12.84 0-4.89-1.35-7.8-3.45-7.8-1.41 0-3.3 1.35-4.35 3.36a12.07 12.07 0 00-1.56 5.73c0 1.2.18 2.07.18 3.06a.86.86 0 01-.84 1 1.06 1.06 0 01-1.05-.75 8.37 8.37 0 01-.45-2.79c0-3.24 1.44-9 1.44-10.65s-.43-2.29-1.69-3.76zM154.05 0l.51.6A16.83 16.83 0 00148 14a16.83 16.83 0 006.6 13.44l-.51.6C150 25.5 146 21.27 146 14s4-11.42 8.05-14zm36.48 8.46s1.53 1.17 2.49 2.07a.72.72 0 01-.78.48h-15.87l.33.3c-.09.33-.39.45-.81.45h-4.11v1.8c5.88 2.67 4.35 6.45 2.46 5a12.33 12.33 0 00-2.46-4.23v12.76c0 .3-.81.75-1.5.75h-.39V16.26a26.68 26.68 0 01-4.71 7.2l-.45-.36a35.84 35.84 0 004.56-11.34h-3.87l-.21-.84h4.68V.33l2.85.33c-.06.39-.27.66-1 .75v9.51H173l1.32-1.68s1 .81 1.86 1.59l-.18-.69h6.81V7.59h-5.4l-.24-.84h5.64V4.41h-5.73l-.24-.84a1.09 1.09 0 01-.81.21 30.69 30.69 0 01-3 5.58l-.48-.21c.54-1.8 1.2-4.53 1.68-6.9l2.91.93a.76.76 0 01-.24.36h5.91V.45l3 .33c-.06.42-.36.72-1.08.81v2h3.75l1.32-1.71S191.31 3 192.24 4c-.09.33-.36.45-.78.45h-6.75v2.3h3.39l1.26-1.65s1.47 1.17 2.37 2c-.06.33-.36.48-.75.48h-6.27v2.55h4.5zm-24.48-5.82c4.14 4.2 2.28 7.86.72 6.18a19.06 19.06 0 00-1.14-6.06zm22.89 9.57l2.49 1.89a2.61 2.61 0 01-1.29.54V25c0 1.5-.3 2.49-3 2.76a2 2 0 00-.63-1.38 5.89 5.89 0 00-2.52-.72v-.46s2.94.21 3.63.21c.51 0 .66-.18.66-.6v-3.24h-8.31v5.49c0 .21-.75.66-1.53.66h-.33V12.45l2 1H188zm-9 2.07v2.64h8.31v-2.64zm8.31 6.39v-2.85h-8.31v2.85zM202.7 7.23c6.39.72 5.28 5.07 3.12 3.93a8.56 8.56 0 00-3.39-3.63zm8.82-.72c-1.26 3.51-3.75 10.17-4.14 11.55a8.32 8.32 0 00-.45 2.55c0 1.26.81 2.67.69 5.07 0 1.29-.6 2.07-1.62 2.07-.54 0-.84-.57-.9-1.47.39-3.06.18-5.4-.42-5.82a2.78 2.78 0 00-1.5-.45v-.66h1.35c.36 0 .48 0 .72-.57.57-1.05.57-1.05 5.7-12.42zM205.34.66c6.6 1 5.43 5.46 3.18 4.23a9.64 9.64 0 00-3.45-4zM230 7.08a1.77 1.77 0 01-1.26.54v18.9c0 .18-.75.66-1.56.66h-.3v-2.1h-12.72v1.74c0 .18-.6.66-1.56.66h-.24V5.64l2.16.93h5V.3l2.94.36c-.09.39-.33.69-1.05.81v5.1h5.4l1-1.26zm-15.87.36v7.62h5.34V7.44zm0 16.74h5.34V16h-5.34zm7.23-16.74v7.62h5.52V7.44zm5.52 16.74V16h-5.52v8.22zm19.38-7.38A2.76 2.76 0 11249 14a2.75 2.75 0 01-2.74 2.8zm31.02-3.99c1.08 4.83 4.29 9.84 12.93 13.14l-.06.33c-1 .12-1.77.48-2 1.56-8.16-3.78-10.53-9.81-11.43-15h-.42c-1 6.39-3.93 11.34-13.47 14.88l-.36-.54c8.28-3.72 10.89-8.46 11.73-14.34h-10l-.27-.87h10.38c.27-2.4.3-5 .33-7.8h-11.46l-.27-.9h22.44l1.56-1.89s1.77 1.32 2.85 2.31c-.09.33-.39.48-.81.48h-12.12a78 78 0 01-.42 7.8h8l1.5-1.89s1.74 1.35 2.79 2.28c-.09.33-.36.48-.78.48zm42.37-3.96a12.93 12.93 0 008.19 9.66v.3a2.31 2.31 0 00-1.84 1.68c-3.87-2.28-5.88-5.76-6.84-11.13-.84 4.56-3.21 8.37-10.44 11.13l-.39-.51c6.27-2.88 8.37-6.57 9.06-11.13h-3.9l-.21-.78A23.74 23.74 0 01300.6 21.6l-.33-.39A25.52 25.52 0 00312.12 5.1h-5.37c-.36.63-.72 1.26-1.11 1.86 5.13.9 4.29 4.32 2.49 3.39a7.37 7.37 0 00-2.82-2.88 23.25 23.25 0 01-2.22 2.79c5.34 1.5 4.2 5.1 2.4 4a8.07 8.07 0 00-2.73-3.57 19.93 19.93 0 01-2.43 2.13l-.36-.36a31.07 31.07 0 006.6-12.25l2.91 1c-.15.36-.51.6-1.17.54-.33.87-.72 1.71-1.11 2.52h4.8L313.26 3l2.13 2c-.24.27-.54.36-1.2.39-.27.87-.54 1.74-.87 2.58h4.17a65.18 65.18 0 00.24-7l2.88.3c-.06.39-.3.66-1 .75-.06 2.1-.09 4.08-.3 6h4.35l1.38-1.77a31.43 31.43 0 012.58 2.19c-.09.33-.36.48-.78.48zm-14.19 11.79c.66 3.78-1.2 5.91-2.61 6.69-.84.51-2 .6-2.25-.06s.15-1.14.75-1.5a6.21 6.21 0 003.65-5.13zm4.38.24c4.44 4 2.22 8.07.54 6.15a13.32 13.32 0 00-1-6zm5.73-.15c5.91 3.63 4.08 8.07 2.19 6.36a13.93 13.93 0 00-2.58-6.15zm5.31-18.48c5.46 1.5 3.87 5.13 2.07 3.84a8.21 8.21 0 00-2.4-3.6zm.27 18.33c8.07 3.33 6.81 8.34 4.56 6.84-.66-2.16-3.06-5-4.92-6.57zm21.19-13.41a4.72 4.72 0 003 1.53A65.16 65.16 0 00352 8c4.68-.66 4.23-1.41 5-1.41 1.11 0 2.79.63 2.79 1.32 0 .45-.27.78-1.11.9-1.14.15-4.95.57-7.62.87.93.42 1.71.93 1.71 1.5s-.36 1-.45 1.89c-.15 1.29-.36 4.14-.48 6.27 2.31-.21 4.62-.36 6.57-.45a14.16 14.16 0 002-.33c1.23 0 3.6 1 3.6 2.07 0 .51-.33.78-.9.78a57.53 57.53 0 00-5.79-.78A62.62 62.62 0 00344 21.84a12.65 12.65 0 01-2.34.72c-.9 0-2.31-1.32-2.64-2a3.83 3.83 0 01-.39-1.65l.58-.24a3.13 3.13 0 002.36 1.59c.87 0 4.47-.39 8.52-.78.15-2.22.24-5.61.24-7a3.65 3.65 0 00-1-2.67c-2 .27-3.65.6-4.38.6a2.87 2.87 0 01-1.86-1 7.07 7.07 0 01-1.29-2zm32.47 5.1l.36-.33a10 10 0 012.1 1.53 4.41 4.41 0 011.89 3.06c0 .63-.3 1.08-.93 1.08-1 0-1-1.17-1.83-2.79a13.74 13.74 0 00-1.59-2.55zm2.37 14.67l-.36-.54c7.95-4.14 12.48-11.88 12.48-14.16 0-.48-.42-.84-1.59-1.32l.15-.45a5.53 5.53 0 011.41 0c1.11.18 2.55 1.5 2.55 2.25 0 .48-.51.72-.84 1.41a24.64 24.64 0 01-13.8 12.81zm2.91-16.23l.36-.33a10.22 10.22 0 012.22 1.62 3.89 3.89 0 011.59 2.88.94.94 0 01-1 1c-.9 0-.9-1.23-1.62-2.7a13.12 13.12 0 00-1.55-2.47zm40.99 5.58a30.94 30.94 0 004.5-5.73c.21-.36.09-.57-.33-.51-1.65.27-6.24 1.74-8.94 2.64-.12 2.64-.21 5.46-.18 7.23.06 2.46.36 2.7 4 2.7a29.82 29.82 0 006.24-.66c.81 0 2 .36 2 1.14 0 .54-.57.81-1.38.93a36.94 36.94 0 01-6 .51c-4.71 0-6.51-.27-6.57-4.23-.06-2.07 0-5 .09-7-1.44.48-3.39 1.17-4.65 1.71-1.08.48-1.11.9-1.95.9a4.74 4.74 0 01-2.73-2.07 3.38 3.38 0 01-.18-1.59l.48-.18c.6.9 1.08 1.5 1.83 1.5a50.54 50.54 0 007.23-1.86c.06-2.46.15-5.46.06-6.66-.06-.75-1-.93-2.43-1.14v-.57a7.22 7.22 0 012.22-.39c1.08 0 3 1.14 3 1.8s-.6 1-.72 2-.24 2.55-.36 4.5c2.58-.75 6.39-1.8 8.16-2.31.87-.24 1.08-.78 1.53-.78.87 0 2.91 1.62 2.91 2.34s-.87.72-1.56 1.41a39.82 39.82 0 01-5.82 5zm41.79-8.52l.69.45c-3.6 6.39-9.18 11.19-15.75 15.39-.6.36-.93 1.11-1.59 1.11-1.17 0-3-1.41-3.57-2.31a6.42 6.42 0 01-.63-1.95l.48-.3c.9 1 1.86 1.95 2.82 1.95 2.31 0 13.29-7.95 17.55-14.34zM442.71 5c3.42 1 7.56 3 7.56 5.31a1 1 0 01-1 1.11c-.48 0-.87-.33-1.65-1.26a20.2 20.2 0 00-5.22-4.53zm32.91 5.5l.3-.66a31.49 31.49 0 014 1.26c1.83.75 2.94 1.83 2.94 3a.87.87 0 01-.86.9c-.93 0-1.41-1.08-3-2.25a21 21 0 00-3.38-2.25zm22.14-1.68l.69.45c-3.42 6-9.75 11.25-16.38 14.91-.6.36-.93 1.14-1.71 1.14a6.11 6.11 0 01-3.48-2.22 5 5 0 01-.66-2l.48-.27c.81 1 1.74 2 2.76 2 2.04-.03 12.9-6.51 18.3-14.01zm-18.12-4.08l.33-.69a29.74 29.74 0 013.78 1.29c2 1 2.94 2 2.94 3.06a.9.9 0 01-.87 1c-.84 0-1.44-1.2-3-2.49a18.55 18.55 0 00-3.18-2.17zm33.81 4.56a6.44 6.44 0 011.83-.39c1 0 2.52.54 2.52 1.05s-.15.84-.09 1.47.3 1.68.57 2.79c2.13-.54 5.61-1.47 6.54-1.77.51-.15.87-.63 1.2-.63a3.3 3.3 0 012.31 2.07c0 .45-.81.51-1.2.9a33 33 0 01-5 4.65l-.36-.33a26.72 26.72 0 003.47-5.11c.15-.33 0-.36-.27-.3-1.05.21-4.2 1.14-6.39 1.77.78 3 1.83 6.87 2.31 8.46a9.29 9.29 0 01.57 2.1c0 .69-.27 1.08-.93 1.08s-1.26-.72-1.41-1.68c-.36-2.22-1.41-6.81-2.13-9.51-1.29.39-2.7.87-3.21 1-.87.33-1.2.84-1.71.84a3.12 3.12 0 01-2.13-1.53 6.06 6.06 0 01-.21-1.32l.36-.18c.39.42.78 1 1.44 1a39.25 39.25 0 005.13-1.11 28.31 28.31 0 00-1.26-4c-.27-.6-.87-.75-1.86-.87zm29.35-.12v-.63a5 5 0 011.74-.21c1.05.09 3.18 1.23 3.18 2.13 0 .63-.57.84-.72 1.59a20 20 0 01-9.24 12.81l-.51-.63c4.77-3.72 7.8-10 7.8-13.59 0-.93-1.53-1.29-2.25-1.47zm5.88-3.84a5.44 5.44 0 012-.36c1.2 0 3.15 1.08 3.15 1.8s-.6.66-.69 1.59c-.15 1.38-.39 9.54-.39 11.79 0 .42.18.48.48.39a35 35 0 0011.31-8.1l.63.51a35.11 35.11 0 01-11.07 9.51c-.69.42-1.08 1.26-1.68 1.26s-1.86-1.44-1.86-2 .33-.72.42-1.92c.15-1.71.33-9.78.15-12.66 0-.75-.84-1-2.37-1.17zm36.76-2.55a7.23 7.23 0 012.19-.45c1.32 0 2.94 1 2.94 1.47 0 .69-.42.72-.54 1.86-.09.87-.15 2.22-.15 3.3a26.22 26.22 0 005.55-1c1.08 0 2.67.75 2.67 1.53a.72.72 0 01-.75.75 64.66 64.66 0 00-7.47.09c0 2.79 0 7.56.06 9.78.06 1.83.24 2.52.24 3.27 0 1.23-.9 2.55-1.77 2.55s-.81-1-1.41-1.56a17.7 17.7 0 00-3.24-1.8l.24-.54c1.2.3 2.73.66 3.54.78.39.06.6-.09.63-.42.12-1.26.06-6 0-9.54-2.76 4.14-8.46 8.79-13.65 11.1l-.45-.63c5-3.09 10.53-8.22 13-12.69-2.19.24-4.32.63-5.85.9a19.26 19.26 0 01-2.73.66c-.81 0-2.16-1.32-2.43-2a5.17 5.17 0 01-.21-1.68l.57-.24c.69 1.17 1.26 1.8 2 1.77 1.86 0 6.51-.57 9.69-.9 0-1.59 0-3.39-.06-4.44 0-.54-.21-.72-.75-.93a7.28 7.28 0 00-1.92-.36zm35.07-.3a5.33 5.33 0 012 .33c1.17.39 2.49 1.71 2.49 2.49 0 .57-.54.51-1.35 1.41a84.115 84.115 0 01-4.65 4.74c.84.54 1.53 1 1.53 1.47a13.24 13.24 0 00-.27 1.56c-.21 4.35-.06 8.94-.06 10.74 0 1.11-.27 1.47-.9 1.47-1 0-1.5-1.44-1.5-2.43 0-.54.24-1.14.36-2.13a76.29 76.29 0 00.27-8.4 2.07 2.07 0 00-.45-1.32 42.22 42.22 0 01-11.25 7.11l-.39-.72a47.69 47.69 0 0014.92-12.69 3.62 3.62 0 00.81-1.53c0-.48-.51-.9-1.77-1.53zm21.02 6.69v-.63a5 5 0 011.74-.21c1.05.09 3.18 1.23 3.18 2.13 0 .63-.57.84-.72 1.59a20 20 0 01-9.24 12.81l-.51-.63c4.77-3.72 7.8-10 7.8-13.59 0-.93-1.53-1.29-2.25-1.47zm5.88-3.84a5.44 5.44 0 012-.36c1.2 0 3.15 1.08 3.15 1.8s-.6.66-.69 1.59c-.15 1.38-.39 9.54-.39 11.79 0 .42.18.48.48.39a35 35 0 0011.31-8.1l.63.51a35.11 35.11 0 01-11.07 9.51c-.69.42-1.08 1.26-1.68 1.26s-1.86-1.44-1.86-2 .33-.72.42-1.92c.15-1.71.33-9.78.15-12.66 0-.75-.84-1-2.37-1.17zM674.5 0c4 2.58 8.07 6.81 8.07 14s-4 11.46-8.07 14l-.51-.6a16.83 16.83 0 006.6-13.4A16.83 16.83 0 00674 .6zm39.24 6.75a6.66 6.66 0 012.13.57 3.55 3.55 0 011.83 2.4c0 .6-.72.84-1.92 1.26a49.44 49.44 0 00-7.32 3.42c-2.4 1.38-5.7 3.9-5.7 6.69 0 1.77 1.68 3.18 6.36 3.18a42.51 42.51 0 007.38-.84c1 0 2 .27 2 1.17 0 .39-.48.75-1.08.93a31.45 31.45 0 01-7.65.72c-5.25 0-8.4-1.71-8.4-4.83 0-3.39 3.48-6.3 5.46-7.71a5.2 5.2 0 01-1.83-2.55 34.66 34.66 0 01-1.32-6.27 1.06 1.06 0 00-.84-1 11.89 11.89 0 00-1.65-.39v-.63a7 7 0 011.92-.3c1.35 0 2.94 1 3 1.65a15.27 15.27 0 00-.21 1.56 19 19 0 00.66 4.56 4.27 4.27 0 001.65 2.46c2.22-1.32 5.31-2.88 6.42-3.48.48-.24.6-.45.39-.84a3.26 3.26 0 00-1.53-1.26zm18.88-3.87a4.58 4.58 0 011.53.9c.63.48 2 2 2 3.27 0 .66-.42 1.2-1.17 3A21.34 21.34 0 00733 18a6 6 0 00.57 3c.18.36.45.42.69 0 .63-1 2.28-5 3-6.54l.72.36c-.57 1.56-1.86 5.07-2.25 6.15a9.43 9.43 0 00-.48 2.07c0 .93.42 1.86.42 2.58a.81.81 0 01-.84.93c-.54 0-1-.48-1.44-1.14a14.08 14.08 0 01-1.74-7A29.47 29.47 0 01733.1 10a16.62 16.62 0 00.78-3.48c0-1.08-.69-2-1.74-3.27zm12.93.54a6.4 6.4 0 012.19-.57c1.26 0 2.85.81 2.85 1.53s-.27.78-.48 2.1a22.63 22.63 0 00-.24 2.52 20.31 20.31 0 002-.66 14.32 14.32 0 011.92-.81c.63 0 1.56.36 1.56 1s-.39.84-1.38 1.2a42.07 42.07 0 01-4.08 1.05c0 3.09.27 6.18.45 8.49a11.61 11.61 0 015 2.7 2.41 2.41 0 011 1.68c0 .6-.27 1-.78 1s-.81-.36-1.38-.9a12.59 12.59 0 00-3.77-2.75v.87c0 2.28-1.41 3.9-5.1 3.9-2.67 0-4.8-1.23-4.8-3.39 0-2.55 2.64-3.72 5.88-3.72a15.92 15.92 0 012.16.15c-.09-2.13-.27-5.25-.33-7.86a26.22 26.22 0 01-3.39.27c-1.86 0-3.09-.42-4.71-2.73l.45-.42a6.55 6.55 0 004.2 1.53 20.52 20.52 0 003.45-.3v-4c0-.76-.12-.87-.54-1a10 10 0 00-2.1-.27zm3.09 17a12.31 12.31 0 00-3.09-.36c-1.86 0-3.9.78-3.9 2.22s1.35 1.92 3.15 1.92c3.27 0 3.84-1.2 3.84-3.63zm25.84-19.13a1.1 1.1 0 01-1.2.54 45.22 45.22 0 01-3 6.57l1.17.45c-.09.27-.36.42-.9.51v17.73a2.11 2.11 0 01-1.59.66h-.36V11.1a27.39 27.39 0 01-3.75 4.53l-.42-.3a48.89 48.89 0 006.93-15zm15.63.48a34.07 34.07 0 012.67 2.28.69.69 0 01-.75.45h-2.37v20.34c0 1.56-.42 2.67-3.45 2.94a1.75 1.75 0 00-.78-1.35 8 8 0 00-3.06-.75v-.45s3.72.24 4.47.24.84-.21.84-.72V4.5h-13.92l-.24-.87h15.15zm-6.6 18.57a3.29 3.29 0 01-1.59.48h-.27v-2.1h-5.16v2c0 .18-.78.63-1.53.63h-.3v-13l2 .9h4.68l1-1.23 2.49 1.89a2.45 2.45 0 01-1.35.66zm-1.86-2.49v-7.74h-5.16v7.74zM808.74 3a5 5 0 012-.39c1.23 0 3.45 1 3.45 1.8s-.6 1-.93 1.74-.8 1.85-1.37 3.15a15.35 15.35 0 012.49-.3c2.25 0 3.54 1.23 3.54 4.77s-1.08 7.83-2.85 10.05a4.49 4.49 0 01-3.63 1.89c-1 0-1.2-.42-1.59-1.29-.21-.45-.42-.81-2.1-2.25l.36-.48c1.56 1 2.91 1.8 3.6 1.8a2.62 2.62 0 002.4-1.56 18.51 18.51 0 002.1-8.61c0-2.19-.51-3.12-2.19-3.12a11.7 11.7 0 00-2.7.45c-.87 2-1.89 4.29-2.85 6.3a76.36 76.36 0 01-4.47 8.19c-.45.72-.78.93-1.23.93a1 1 0 01-.9-1.11 2 2 0 01.48-1.38 47 47 0 004.68-7.41c.72-1.44 1.53-3.21 2.25-5-1.11.36-2.13.72-2.73 1a7.09 7.09 0 01-2.46.84c-.78 0-1.89-1.14-2.13-2.1a3.83 3.83 0 01.06-1.74l.6-.09c.33.81.54 1.77 1.41 1.77a53.5 53.5 0 005.88-1.2 24.59 24.59 0 001.56-4.83.73.73 0 00-.48-.78 7.87 7.87 0 00-2.28-.45zm11.52 6.09a7.8 7.8 0 015.13 2.49 8.16 8.16 0 011.86 5.42c0 1.2-.39 2.19-1.26 2.22s-.81-.84-1.68-1a18.65 18.65 0 00-3.54.15l-.18-.72a33.16 33.16 0 003.84-.9c.63-.24.72-.51.69-1.29a6.8 6.8 0 00-1.23-3.36 5.85 5.85 0 00-4-2.34z" fill="#fff" data-name="レイヤー 1"/></g></svg>