<svg xmlns="http://www.w3.org/2000/svg" viewBox="0 0 360.66 27.66"><g data-name="レイヤー 2"><path d="M15.54 8A28.49 28.49 0 0028 20.13l-.06.3a2.45 2.45 0 00-2 1.65A28.44 28.44 0 0114.85 8v12.3h2.73L19 18.45s1.59 1.32 2.61 2.28c-.09.33-.39.48-.81.48h-5.95v5.61c0 .3-.84.75-1.62.75h-.39v-6.36H6.51l-.24-.87h6.57V9.78A30.66 30.66 0 01.3 22.35L0 21.9A33.43 33.43 0 0011.25 8H.6l-.27-.9h12.51V.06L16 .42c-.09.45-.33.75-1.11.87v5.85h8.28l1.56-1.95s1.74 1.35 2.79 2.37c-.06.33-.36.48-.78.48zm32.83-5.09c6.87 2.67 5.43 7 3.33 5.58a9.13 9.13 0 00-1-2c-2.37.48-5.52 1.11-9.63 1.83a1 1 0 01-.75.63l-1-2.43c.87 0 2.13-.06 3.69-.18A63.37 63.37 0 0044.83 0l3.24.75a1 1 0 01-1.07.63 42.71 42.71 0 01-2.92 4.92c1.86-.09 4-.27 6.27-.42A19.77 19.77 0 0048 3.15zm2 6.45l2.52 1.92a2.35 2.35 0 01-1.26.57v12.87c0 1.59-.27 2.55-2.73 2.79a2.23 2.23 0 00-.48-1.44 3.42 3.42 0 00-1.89-.72v-.48s2.1.18 2.61.18.57-.15.57-.57v-4.29h-6.23v6.6c0 .21-.75.69-1.56.69h-.3V9.63l2 1h5.73zm-6.84 2.13v3.42h6.18v-3.42zm6.18 7.83v-3.54h-6.23v3.54zm8.19-6.42c-2.34 0-2.79-.45-2.79-2V.36l2.82.33c0 .36-.33.66-.87.75v4.83A27.44 27.44 0 0063.82 2l2.37 1.68c-.24.3-.72.33-1.44.15a37.94 37.94 0 01-7.74 3v3.66c0 .48.09.63 1.2.63h2.85c1.26 0 2.31 0 2.67-.06s.48-.09.6-.3a19.1 19.1 0 00.84-3.15h.39l.09 3.24c.66.21.84.42.84.78 0 .93-1 1.23-5.52 1.23zm8.07 12c.66.27.84.48.84.87 0 .9-1 1.23-5.64 1.23h-3.26c-2.37 0-2.85-.48-2.85-2V14l2.88.33A1 1 0 0157 15v5a25.76 25.76 0 006.9-4.65L66.45 17c-.21.27-.69.33-1.41.18a34.37 34.37 0 01-8 3.45v3.87c0 .48.12.63 1.26.63H64c.42 0 .48-.12.57-.36a19.4 19.4 0 00.9-3.42h.36zM98.9 8.7a5.06 5.06 0 012.22.81 3.5 3.5 0 011.62 2.34c0 .54-.3.63-1.47 1a57.88 57.88 0 00-8.55 3.39c.09 1.71.09 3.9.09 4.86 0 .72-.33 1.17-.93 1.17s-1-.33-1-1.14.12-2.34.15-4c-2.91 1.65-5 3.57-5 5.34S88 24.9 90.8 24.9c4.44 0 6.18-.93 7.62-.93 1 0 1.59.36 1.59.93s-.15.84-1.11 1.11a32.72 32.72 0 01-6.72.81c-5.58 0-7.41-1.74-7.41-4.11s2.73-4.77 6.24-7c-.12-2.55-.69-3.48-2.25-3.48s-3.66 1.68-4.92 3c-1 1.14-1.89 2.55-2.61 2.58s-1-.45-1-1.2 1.11-1.56 2.46-3a28.94 28.94 0 004.2-5.49 18.26 18.26 0 01-2.16.15c-2.46 0-3-.66-4.17-3l.63-.39c1.2 1.26 1.71 1.89 3.93 1.89a14.55 14.55 0 002.67-.3 11.74 11.74 0 001-2.64c.15-.54.06-.75-.54-1a5.91 5.91 0 00-1.68-.42v-.58a6.42 6.42 0 011.71-.3c.93 0 2.88.51 2.88 1.23 0 .42-.24.63-.57 1.29-.21.48-.6 1.23-1 2a29.56 29.56 0 003.9-1.29c1.26-.57 1.47-.84 1.92-.84.66 0 1.29.24 1.29.81 0 .39-.27.66-.84.93a35.14 35.14 0 01-7.23 2.22 35.62 35.62 0 01-2.88 4.23c-.12.15 0 .3.18.18a7.61 7.61 0 013.3-1c1.89 0 3 1.29 3.33 3.54 2.43-1.32 5.49-2.55 7.29-3.51.51-.27.57-.54.15-1a4.26 4.26 0 00-1.47-1zm30.89-5.97s1.62 1.29 2.6 2.19c-.09.33-.35.48-.77.48h-7.15v3.36h3.79l.93-1.14 2.45 1.77a2.31 2.31 0 01-1.31.6v4.38c0 1.47-.25 2.31-2.46 2.58a2.43 2.43 0 00-.42-1.29 3 3 0 00-1.74-.63v-.48s1.86.15 2.33.15.51-.15.51-.54V9.63h-4.08v7.59c8.05 2.43 7.15 7.17 4.9 5.88-.73-1.77-3-3.9-4.9-5.25v8.91c0 .3-.8.78-1.52.78h-.36v-9.45a28.38 28.38 0 01-7.71 7.62l-.3-.45a26.51 26.51 0 008-11.82V9.63h-4v7.29a1.89 1.89 0 01-1.56.63h-.3V7.77l2.22 1h3.63V5.4h-7.32l-.21-.87h7.53V.21l2.94.33c-.07.42-.31.72-1.06.84v3.15h3.91zm5.63 18.06c0 .27-.78.66-1.5.66h-.36V2.67l2.94.33c-.05.42-.33.72-1.08.81zM142.08 1c-.06.42-.36.69-1.08.78v22.88c0 1.59-.33 2.61-3.05 2.88a2 2 0 00-.64-1.44 5.26 5.26 0 00-2.45-.78v-.45s2.93.24 3.53.24.69-.18.69-.66V.63zm11.84 6.5c6 .75 4.65 4.92 2.58 3.69a7.49 7.49 0 00-2.85-3.42zm7.65-1.17c-1 3.48-3.15 10-3.51 11.31a8.94 8.94 0 00-.39 2.55c0 1.29.84 2.82.72 5.28-.06 1.29-.63 2.07-1.59 2.07-.51 0-.84-.57-.87-1.53.39-3.09.24-5.55-.39-6a3 3 0 00-1.47-.45v-.66h1.29c.33 0 .45 0 .75-.6.45-1 .45-1 4.95-12.15zM156 .45c6.33 1.05 5.07 5.22 3 4a10.14 10.14 0 00-3.31-3.73zm15.42 19a1.85 1.85 0 01-1.11.42c-.21 4.11-.69 6.18-1.68 7a4 4 0 01-2.46.75 1.54 1.54 0 00-.42-1.26 4.65 4.65 0 00-1.86-.6v-.56c.81.06 2.25.18 2.73.18a1.12 1.12 0 00.87-.24c.51-.42.84-2.19 1.05-5.49h-3.34a10.8 10.8 0 01-5.88 8l-.21-.48c3.51-2.76 4.38-6 4.53-10.59H160l-.24-.84h5.16v-3.05l2.82.3c-.06.39-.3.66-1 .78v2h2.19l1.35-1.68s1.5 1.2 2.43 2.07c-.06.3-.36.45-.78.45h-6.27c-.06.78-.15 1.53-.27 2.22h2.91l1-1.11zm-7.74-6.27c0 .18-.75.6-1.53.6h-.27V2.88l1.95.9h1c.15-1 .33-2.61.42-3.66l2.88.45c-.09.42-.42.69-1.08.75-.36.72-.9 1.71-1.35 2.46h2.73l1-1.11 2.28 1.71a2.35 2.35 0 01-1.23.57v7.71a2.34 2.34 0 01-1.5.6h-.24v-1.08h-5zm0-8.55v2.9h5V4.62zm5 6.69V8.4h-5v2.91zm10.68-4.08c-.27 5.13-.87 9.36-2.67 12.87a14.64 14.64 0 005.25 5.73l-.09.3a2.05 2.05 0 00-1.85 1.43 15.06 15.06 0 01-4.32-5.76 18.4 18.4 0 01-6.39 5.7l-.3-.39A18.8 18.8 0 00175 20a39.35 39.35 0 01-1.89-9.72 18.88 18.88 0 01-2.1 3.42l-.48-.27A41.4 41.4 0 00173.9.12l3 .6a1.06 1.06 0 01-1.05.72 42.66 42.66 0 01-1.26 4.95h3.15l1.35-1.8s1.59 1.26 2.52 2.16c-.06.33-.36.48-.75.48zm-5 0c-.24.66-.48 1.32-.75 1.95a36.06 36.06 0 002.16 9 34.29 34.29 0 001.62-10.92zM205 2.52a4.67 4.67 0 012-.63c1.23 0 3.09.66 3.09 1.41s-.45 1.17-.51 1.92c0 .39 0 1-.06 1.71 4.95-.54 6.87-.81 7.5-.81 1 0 2.61.57 2.61 1.53 0 .54-.27.78-.84.78a38.36 38.36 0 00-9.27-.21v4.62a5.71 5.71 0 011.26 4.05c0 5.49-4.14 8.85-9.92 10.29l-.4-.75c3.66-1.35 6.66-3.48 7.74-6.42-2.94 1.35-5.34-1-5.34-4a4 4 0 013.93-4.23 5.31 5.31 0 011.23.15c0-.9-.09-2.19-.15-3.54A67.51 67.51 0 00200 9.84c-1.35.33-2 .81-2.73.81-1 0-2.4-1.35-2.73-2.19a5.8 5.8 0 01-.3-1.8l.57-.21c.66 1 1.23 2 2.25 2s7.29-.9 10.83-1.29c0-1.08-.09-2.1-.15-2.85-.06-.6-.21-.78-.69-.93a12 12 0 00-2-.21zm3.87 13.41c0-1.95-1-2.94-2.25-2.94a2.61 2.61 0 00-2.46 2.85 2.59 2.59 0 002.43 2.88c1.53 0 2.31-.72 2.31-2.79zm26.61-12.84c.39.87.78 1.77 1.56 1.77a39.92 39.92 0 006.33-1.35c.66-.21.75-.51 1.17-.51.9 0 2.55 1.26 2.55 2.07 0 .57-.69.6-1.74 1.53-1.53 1.26-5.52 5.13-6.87 6.63-.21.18-.09.42.15.3a14.82 14.82 0 015.16-1c3.9 0 7.23 2.55 7.14 6.72-.06 3.75-3.42 6.75-9.09 6.75-3.36 0-5.64-1.35-5.64-3.51 0-1.59 1.41-2.82 3.36-2.82a4.88 4.88 0 014.89 4.33c3-.84 4.5-2.94 4.56-5.28.09-2.64-1.92-5.28-5.61-5.28-4.32 0-7.35 2.7-9.87 5.94-.45.57-.69.75-1.14.72s-.81-.45-.78-1.2c0-.54.3-1 1-1.65 4.7-4.89 10.13-10.05 11.39-12.06.27-.45.09-.57-.27-.51a49.19 49.19 0 00-4.86 1.65c-.57.24-1 .69-1.47.69a3.14 3.14 0 01-2.49-2.16 4 4 0 010-1.68zm7.2 21.24c-.39-2.31-1.86-3.51-3.57-3.51a1.68 1.68 0 00-1.86 1.59c0 1.05 1.29 2 4.2 2 .42-.02.84-.05 1.23-.08zM280.5 7.5c2.64 2.94 7.56 5.1 12 6.15v.33a2 2 0 00-1.68 1.65c-4.53-1.56-8.85-4.38-11.13-8.13h-.18V14a2.09 2.09 0 01-1.62.6h-.3V8A29.94 29.94 0 01265 16.38l-.3-.48a30.61 30.61 0 0010.59-8.4h-9.9l-.27-.9h12.42V3.3c-3.3.3-6.78.51-10.11.51l-.09-.6A102.6 102.6 0 00286.41.06l2.1 2.13c-.24.21-.81.21-1.53-.06-2.13.33-4.71.69-7.5 1V6.6H288l1.38-1.71S291 6.09 292 7c-.06.33-.36.48-.78.48zm5.19 6.78l2.31 1.77a2.13 2.13 0 01-1.17.57V26.7c0 .21-1 .66-1.65.66h-.3v-1.83h-12.72v1.32c0 .21-.81.66-1.62.66h-.33v-13l2.1.93h12.33zm-13.53 2V20h12.75v-3.68zm12.75 8.31v-3.77h-12.75v3.81zm22.84-23.27l.39-.39a4.57 4.57 0 011.44.66 4.58 4.58 0 012 2.76 7 7 0 01-.39 1.77 23.93 23.93 0 00-.69 3c-.12.63.12.66.45.06 1.41-2.49 3.51-4.29 5.46-4.29 3.6 0 5.25 3.87 5.25 9.21 0 6.21-2.76 11.22-10.8 13.32l-.33-.69c7.26-2.91 9-7.47 9-12.84 0-4.89-1.35-7.8-3.45-7.8-1.41 0-3.3 1.35-4.35 3.36a12.07 12.07 0 00-1.56 5.73c0 1.2.18 2.07.18 3.06a.86.86 0 01-.84 1 1.06 1.06 0 01-1-.75 8.37 8.37 0 01-.45-2.79c0-3.24 1.44-9 1.44-10.65s-.5-2.29-1.75-3.73zm49.07 7.38a5.06 5.06 0 012.22.81 3.5 3.5 0 011.62 2.34c0 .54-.3.63-1.47 1a57.88 57.88 0 00-8.55 3.39c.09 1.71.09 3.9.09 4.86 0 .72-.33 1.17-.93 1.17s-1-.33-1-1.14.12-2.34.15-4c-2.91 1.65-5 3.57-5 5.34s1.92 2.4 4.77 2.4c4.44 0 6.18-.93 7.62-.93 1.05 0 1.59.36 1.59.93s-.15.84-1.11 1.11a32.72 32.72 0 01-6.72.81c-5.58 0-7.41-1.74-7.41-4.11s2.73-4.77 6.24-7c-.12-2.55-.69-3.48-2.25-3.48s-3.66 1.68-4.92 3c-1.05 1.14-1.89 2.55-2.61 2.58s-1-.45-1-1.2 1.11-1.56 2.46-3a28.94 28.94 0 004.2-5.49 18.26 18.26 0 01-2.16.15c-2.46 0-3-.66-4.17-3l.63-.39c1.2 1.26 1.71 1.89 3.93 1.89a14.55 14.55 0 002.67-.3 11.74 11.74 0 001-2.64c.15-.54.06-.75-.54-1a5.91 5.91 0 00-1.68-.42v-.55a6.42 6.42 0 011.71-.3c.93 0 2.88.51 2.88 1.23 0 .42-.24.63-.57 1.29-.21.48-.6 1.23-1 2a29.56 29.56 0 003.9-1.29c1.26-.57 1.47-.84 1.92-.84.66 0 1.29.24 1.29.81 0 .39-.27.66-.84.93a35.14 35.14 0 01-7.23 2.22 35.62 35.62 0 01-2.88 4.23c-.12.15 0 .3.18.18a7.61 7.61 0 013.3-1c1.89 0 3 1.29 3.33 3.54 2.43-1.32 5.49-2.55 7.29-3.51.51-.27.57-.54.15-1a4.26 4.26 0 00-1.47-1z" fill="#fff" data-name="レイヤー 1"/></g></svg>