<svg xmlns="http://www.w3.org/2000/svg" viewBox="0 0 243.02 30.51"><g data-name="レイヤー 2"><path d="M7.6 9.9q2.13 4 4.43 8.25l.87-1.64 1.32-2.44 1.61-3C16.4 10 17 8.93 17.56 7.83s1.18-2.18 1.76-3.24l1.62-3h.39q.33 2.88.61 5.56c.19 1.79.39 3.56.59 5.28s.4 3.44.6 5.13.42 3.37.66 5a4.34 4.34 0 00-.71-.06h-1.4a4.25 4.25 0 00-.71.06q-.33-4-.66-7.74t-.81-7.59h-.06q-2.07 3.77-4.06 7.51a111.3 111.3 0 00-3.8 7.82h-.27Q9.51 18.78 7.54 15C6.23 12.46 4.92 9.87 3.6 7.23h-.06c-.14 1.24-.3 2.58-.46 4s-.33 2.88-.47 4.29-.26 2.74-.36 4-.15 2.28-.15 3.08a8.5 8.5 0 00-1-.06 8.5 8.5 0 00-1 .06q.39-2.43.81-5.13t.81-5.43q.28-2.71.62-5.37c.22-1.77.41-3.45.57-5h.51Q5.49 5.88 7.6 9.9zm24.2-.09a8.52 8.52 0 012.49-1.38 7.73 7.73 0 012.34-.36 6 6 0 012 .31 4.31 4.31 0 011.53.9 4.18 4.18 0 011 1.41 4.55 4.55 0 01.36 1.82c0 1.14 0 2.28-.06 3.41s-.06 2.32-.06 3.58v.76a2.25 2.25 0 00.13.72 1.4 1.4 0 00.35.53.94.94 0 00.67.21h.32a.71.71 0 00.31-.1v.66a3.5 3.5 0 01-.82.24 6.2 6.2 0 01-1.1.09 1.9 1.9 0 01-2.07-1.77 8.07 8.07 0 01-2.13 1.59 5.87 5.87 0 01-2.58.51 5.22 5.22 0 01-1.48-.23 3.34 3.34 0 01-1.27-.71 3.81 3.81 0 01-.9-1.16 3.3 3.3 0 01-.35-1.54 3.52 3.52 0 011.13-2.79 6.11 6.11 0 013.1-1.32c1.08-.18 1.93-.33 2.54-.47a6.42 6.42 0 001.35-.4.88.88 0 00.52-.5 2.46 2.46 0 00.09-.73 5.68 5.68 0 00-.21-1.42 3.34 3.34 0 00-.57-1.2 2.89 2.89 0 00-1-.83 3.39 3.39 0 00-1.53-.31 4.74 4.74 0 00-2.23.54 3.57 3.57 0 00-1.55 1.5h-.32zm7.41 5.34a7.49 7.49 0 01-1.18.3l-1.37.25a12.92 12.92 0 00-1.36.35 4.44 4.44 0 00-1.2.57 2.78 2.78 0 00-.84.9 2.71 2.71 0 00-.32 1.38 2.7 2.7 0 00.81 2.1 2.65 2.65 0 001.8.72 3.7 3.7 0 002.09-.63 4.71 4.71 0 001.45-1.47zm21.06 4.62a7.3 7.3 0 01-.64 1 5.62 5.62 0 01-1 1 5.14 5.14 0 01-1.45.78 5.79 5.79 0 01-1.95.3 6.54 6.54 0 01-2.23-.32 4.91 4.91 0 01-2-1.28A6.32 6.32 0 0149.64 19a9.48 9.48 0 01-.53-3.34 8.86 8.86 0 01.57-3.33 7.11 7.11 0 011.49-2.36 5.84 5.84 0 012.06-1.41 6.2 6.2 0 012.33-.46 4.64 4.64 0 014.62 3h.06V1.63c0-.64 0-1.17-.05-1.65l.69.1a4.89 4.89 0 00.66 0 4.62 4.62 0 00.65 0l.7-.1c-.06.64-.11 1.56-.15 2.77s-.07 2.55-.11 4-.05 3-.07 4.5 0 3 0 4.23v3.72c0 1.1 0 2.23.06 3.39q-.6-.06-1.17-.06t-1.14.06l.09-2.85zm-8.52-4a9.88 9.88 0 00.38 3 5.74 5.74 0 00.95 1.87 3.1 3.1 0 001.34 1 4.32 4.32 0 001.47.27 3.43 3.43 0 002-.59 4.67 4.67 0 001.39-1.53 6.61 6.61 0 00.81-2.14 11.52 11.52 0 00.26-2.4 7.38 7.38 0 00-1.11-4.4A3.79 3.79 0 0056 9.33a3.49 3.49 0 00-1.88.49 4 4 0 00-1.31 1.38 6.87 6.87 0 00-.81 2.07 12.09 12.09 0 00-.25 2.54zm17.96.23a8.76 8.76 0 011.75-5.79 6.28 6.28 0 015.12-2.1 6.92 6.92 0 012.74.49 5.85 5.85 0 011.94 1.32 5.35 5.35 0 011.15 1.94 7.36 7.36 0 01.38 2.37v1.17l-3.21-.06h-5.21l-2 .06a1.81 1.81 0 000 .45v.39a6.79 6.79 0 00.34 2.19 4.82 4.82 0 001 1.75 4.63 4.63 0 001.62 1.17 5.33 5.33 0 002.22.44 4.86 4.86 0 001.23-.17 6.52 6.52 0 001.22-.49 6.64 6.64 0 001.12-.67 6.21 6.21 0 00.92-.84l.15.09-.19 1.47a8.32 8.32 0 01-2.24 1.23 7.68 7.68 0 01-2.77.51 8.47 8.47 0 01-3-.5A6.54 6.54 0 0171.73 21a6.45 6.45 0 01-1.5-2.23 7.33 7.33 0 01-.52-2.77zm6.93-7a3.32 3.32 0 00-1.88.51 4.36 4.36 0 00-1.26 1.27 6.07 6.07 0 00-.75 1.68 8.91 8.91 0 00-.31 1.73l1.93.06h4l2-.06a11.58 11.58 0 00-.14-1.71 5.34 5.34 0 00-.54-1.68 3.57 3.57 0 00-1.12-1.29A3.2 3.2 0 0076.64 9zm27-5.85a1.53 1.53 0 112.61 1.08 1.49 1.49 0 01-1.08.45 1.52 1.52 0 01-1.53-1.53zm.42 10.85v-2.84c0-.99-.09-1.91-.2-2.77a8.17 8.17 0 001.36.15 8.18 8.18 0 001.35-.15c-.1.86-.17 1.78-.2 2.77s0 1.94 0 2.84v5.93c0 .99.1 1.89.2 2.69q-.7-.06-1.35-.06c-.44 0-.9 0-1.36.06a25.79 25.79 0 00.2-2.69V17.1zm19.79-3.22a2.83 2.83 0 00-2.4-1.15 3.62 3.62 0 00-3.08 1.29 5.91 5.91 0 00-1 3.63v5.38c0 .99.1 1.89.2 2.69q-.69-.06-1.35-.06t-1.35.06c.1-.8.16-1.7.19-2.69s.05-1.93.05-2.83V14c0-.9 0-1.85-.05-2.84s-.09-1.91-.19-2.77a8.07 8.07 0 001.35.15 3.37 3.37 0 00.52 0l.68-.1q-.09 1.2-.09 2.4h.06a6.39 6.39 0 012-2 5.3 5.3 0 012.79-.7 6.21 6.21 0 011.69.24 4.07 4.07 0 011.55.82 4.25 4.25 0 011.12 1.59 6.52 6.52 0 01.44 2.57c0 .86 0 1.75-.06 2.65s-.06 1.88-.06 2.9v3.78q-.6-.06-1.26-.06t-1.23.06c0-1 .08-2.11.13-3.21s.08-2.23.08-3.39v-1.9a5.62 5.62 0 00-.73-3.41zm24.03 14.58a3.59 3.59 0 001.12-1.63 9.08 9.08 0 00.49-2.49c.07-1 .11-2 .11-3.21V9.78c0-1.32 0-2.61-.08-3.89s-.1-2.56-.16-3.88l.75.1a5.81 5.81 0 00.72.05 5.81 5.81 0 00.72-.05l.75-.1c-.06 1.32-.12 2.62-.17 3.88s-.07 2.57-.07 3.89v10.68a6.78 6.78 0 01-.44 2.47 6.17 6.17 0 01-1.24 2 6 6 0 01-4.38 1.86l-.24-.84a3.18 3.18 0 002.12-.59zm13.38-15.55a8.52 8.52 0 012.49-1.38 7.73 7.73 0 012.34-.36 6 6 0 012 .31 4.31 4.31 0 011.53.9 4.18 4.18 0 011 1.41 4.55 4.55 0 01.36 1.82c0 1.14 0 2.28-.06 3.41s-.06 2.32-.06 3.58v.76a2.25 2.25 0 00.14.74 1.38 1.38 0 00.34.53 1 1 0 00.68.21h.31a.75.75 0 00.32-.1v.66a3.6 3.6 0 01-.83.24 6.08 6.08 0 01-1.09.09 1.9 1.9 0 01-2.07-1.77 8.07 8.07 0 01-2.13 1.59 5.87 5.87 0 01-2.58.51 5.22 5.22 0 01-1.47-.21 3.39 3.39 0 01-1.28-.69 3.81 3.81 0 01-.9-1.16 3.3 3.3 0 01-.34-1.54 3.52 3.52 0 011.12-2.79 6.14 6.14 0 013.11-1.32c1.08-.18 1.92-.33 2.53-.47a6.42 6.42 0 001.35-.4.9.9 0 00.53-.5 2.46 2.46 0 00.09-.73 5.68 5.68 0 00-.18-1.44 3.34 3.34 0 00-.57-1.2 2.89 2.89 0 00-1-.83 3.39 3.39 0 00-1.53-.31 4.78 4.78 0 00-2.24.54 3.55 3.55 0 00-1.54 1.5h-.33zm7.41 5.34a7.63 7.63 0 01-1.19.3l-1.36.25a13.1 13.1 0 00-1.37.35 4.44 4.44 0 00-1.2.57 2.78 2.78 0 00-.84.9 2.71 2.71 0 00-.31 1.38 2.7 2.7 0 00.81 2.13 2.65 2.65 0 001.8.72 3.66 3.66 0 002.08-.63 4.75 4.75 0 001.46-1.47zm10.86 1.95v-2.22c0-.8 0-1.59-.05-2.39s0-1.54-.07-2.26-.07-1.34-.11-1.86a6.15 6.15 0 002.7 0q-.12.78-.18 1.5t-.06 1.44h.06a6.08 6.08 0 01.6-1 5.23 5.23 0 011-1 5.37 5.37 0 011.48-.82 5.55 5.55 0 012-.33 6.11 6.11 0 012.25.43 5.44 5.44 0 012 1.34 6.69 6.69 0 011.38 2.29 9.45 9.45 0 01.52 3.32 8.86 8.86 0 01-.57 3.33 7.05 7.05 0 01-1.48 2.25 5.56 5.56 0 01-2.09 1.36 6.68 6.68 0 01-2.34.44 4.86 4.86 0 01-4.71-2.85h-.06v6.43c0 .78.05 1.52.08 2.23s.06 1.32.1 1.82a6.15 6.15 0 00-2.7 0c0-.5.08-1.11.11-1.82s0-1.45.07-2.23 0-1.57.05-2.36 0-1.5 0-2.14zm10.83-1.68a9.92 9.92 0 00-.37-3 5.61 5.61 0 00-1-1.88 3.1 3.1 0 00-1.34-1 4.32 4.32 0 00-1.47-.27 3.92 3.92 0 00-2.05.51 4.14 4.14 0 00-1.4 1.36 6.11 6.11 0 00-.78 2 12 12 0 00-.24 2.45q0 6.24 4.38 6.24a3.49 3.49 0 001.88-.5 4 4 0 001.36-1.33 6.76 6.76 0 00.78-2.07 11.93 11.93 0 00.25-2.51zm10.44-5.61a8.52 8.52 0 012.49-1.38 7.73 7.73 0 012.34-.36 6 6 0 012 .31 4.31 4.31 0 011.53.9 4.18 4.18 0 011 1.41 4.55 4.55 0 01.36 1.82c0 1.14 0 2.28-.06 3.41s-.06 2.32-.06 3.58v.76a2.25 2.25 0 00.14.72 1.38 1.38 0 00.34.53 1 1 0 00.68.21h.31a.75.75 0 00.32-.1v.66a3.6 3.6 0 01-.83.24 6.08 6.08 0 01-1.09.09 1.9 1.9 0 01-2.07-1.77 8.07 8.07 0 01-2.13 1.59 5.87 5.87 0 01-2.58.51 5.22 5.22 0 01-1.47-.21 3.39 3.39 0 01-1.28-.69 3.81 3.81 0 01-.9-1.16 3.3 3.3 0 01-.34-1.54 3.52 3.52 0 011.12-2.79 6.14 6.14 0 013.11-1.32c1.08-.18 1.92-.33 2.53-.47a6.42 6.42 0 001.35-.4.9.9 0 00.53-.5 2.46 2.46 0 00.09-.73 5.68 5.68 0 00-.18-1.44 3.34 3.34 0 00-.57-1.2 2.89 2.89 0 00-1-.83 3.39 3.39 0 00-1.53-.31 4.78 4.78 0 00-2.24.54 3.55 3.55 0 00-1.54 1.5h-.33zm7.41 5.34a7.63 7.63 0 01-1.19.3l-1.36.25a13.1 13.1 0 00-1.37.35 4.44 4.44 0 00-1.2.57 2.78 2.78 0 00-.84.9 2.71 2.71 0 00-.31 1.38 2.7 2.7 0 00.81 2.13 2.65 2.65 0 001.8.72 3.66 3.66 0 002.08-.63 4.75 4.75 0 001.46-1.47zm19.92-4.37a2.83 2.83 0 00-2.4-1.15 3.6 3.6 0 00-3.07 1.29 5.91 5.91 0 00-1 3.63v5.38c0 .99.09 1.89.19 2.69q-.69-.06-1.35-.06t-1.35.06c.1-.8.17-1.7.2-2.69s0-1.93 0-2.83v-5.94c0-.99-.1-1.91-.2-2.77a8.07 8.07 0 001.35.15 3.49 3.49 0 00.53 0l.67-.1q-.09 1.2-.09 2.4h.06a6.39 6.39 0 012-2 5.3 5.3 0 012.79-.7 6.29 6.29 0 011.7.24 4 4 0 011.54.82 4.26 4.26 0 011.13 1.59 6.53 6.53 0 01.43 2.57c0 .86 0 1.75-.06 2.65s-.06 1.88-.06 2.9v3.78q-.6-.06-1.26-.06t-1.23.06c0-1 .09-2.11.14-3.21s.21-2.3.21-3.48v-1.81a5.62 5.62 0 00-.87-3.41zm11.47 10.43a1.71 1.71 0 013.42 0 1.49 1.49 0 01-.51 1.15 1.77 1.77 0 01-2.4 0 1.49 1.49 0 01-.51-1.15z" fill="#fff" data-name="レイヤー 1"/></g></svg>