<svg xmlns="http://www.w3.org/2000/svg" viewBox="0 0 166.72 22.92"><g data-name="レイヤー 2"><path d="M.17 5.85C.11 4.57.06 3.29 0 2l2.68.1c.89 0 1.79.05 2.69.05s1.79 0 2.67-.05l2.67-.1a4.54 4.54 0 000 1.8L9 3.69l-1.73-.12-1.93-.11H2.82c0 .64 0 1.25-.08 1.83s0 1.24 0 2v3.96h2.37L7 11.08 8.63 11l1.39-.1a4.73 4.73 0 00-.09.93 4.58 4.58 0 00.09.9c-.52-.06-1.12-.11-1.82-.15s-1.38-.07-2.07-.08h-3.4v8.88h2.1c.76 0 1.5 0 2.23-.05s1.42-.07 2.08-.12a13.74 13.74 0 001.69-.22 2.19 2.19 0 00-.08.47v.46a2.78 2.78 0 00.09.78c-.9 0-1.8-.06-2.69-.06H2.73q-1.35 0-2.73.06c.06-1.28.11-2.56.17-3.83s.07-2.56.07-3.88V9.75c0-1.32-.03-2.62-.07-3.9zm18.14 5.29c0-1-.09-1.91-.19-2.77a8.07 8.07 0 001.35.15 3.37 3.37 0 00.52 0l.68-.1q-.09 1.2-.09 2.4h.06a5 5 0 014.47-2.7 4.9 4.9 0 011.47.22 5 5 0 011.3.62 4.11 4.11 0 011 .94 3.19 3.19 0 01.58 1.1h.06a5.29 5.29 0 012-2.21 5.38 5.38 0 012.87-.76 6 6 0 011.83.27 3.71 3.71 0 012.41 2.31 6 6 0 01.35 2.16v1.11c0 .4 0 .87-.06 1.39s0 1.13-.06 1.8 0 1.45 0 2.33v1.56c0 .5 0 1 .08 1.62a3.68 3.68 0 00-.66-.06H36.9a3.68 3.68 0 00-.66.06c.06-.5.12-1.51.19-3s.11-3.64.11-6.36a5.79 5.79 0 00-.17-1.41 3.14 3.14 0 00-.52-1.14 2.43 2.43 0 00-1-.76 3.34 3.34 0 00-1.5-.29 3.7 3.7 0 00-1.83.42 3.62 3.62 0 00-1.17 1 3.19 3.19 0 00-.38.66 3.94 3.94 0 00-.21 1c-.05.45-.08 1.08-.1 1.89s0 1.93 0 3.35v2.35c0 .71.07 1.49.11 2.33q-.69-.06-1.32-.06t-1.32.06q.15-1.65.21-3.36t.06-3.36v-2.21c0-.53 0-.94-.07-1.26a3.94 3.94 0 00-.17-.76 5.62 5.62 0 00-.28-.66 2.75 2.75 0 00-1-1 2.86 2.86 0 00-1.45-.4 3.34 3.34 0 00-2.91 1.29 6.13 6.13 0 00-.93 3.63v5.4c0 .99.1 1.89.2 2.69q-.69-.06-1.35-.06t-1.35.06c.1-.8.16-1.7.19-2.69s.05-1.93.05-2.83V14c.03-.92.01-1.87-.02-2.86zm27.81 4.4a8.39 8.39 0 01.65-3.47 6.5 6.5 0 011.69-2.31 6.72 6.72 0 012.36-1.29 8.65 8.65 0 015.2 0 6.72 6.72 0 012.34 1.29 6.53 6.53 0 011.7 2.31 8.4 8.4 0 01.64 3.47 8.35 8.35 0 01-.64 3.46 6.35 6.35 0 01-1.7 2.31A6.18 6.18 0 0156 22.56a9.57 9.57 0 01-5.2 0 6.19 6.19 0 01-2.36-1.25A6.33 6.33 0 0146.77 19a8.35 8.35 0 01-.65-3.46zm2.64 0A12.84 12.84 0 0049 18a6.44 6.44 0 00.76 2.08 4 4 0 001.44 1.46 4.83 4.83 0 004.44 0 4 4 0 001.44-1.46 6.45 6.45 0 00.76-2.08 13.53 13.53 0 000-4.86 6.51 6.51 0 00-.77-2.14 4.16 4.16 0 00-1.44-1.45 4.83 4.83 0 00-4.44 0A4.16 4.16 0 0049.75 11a6.5 6.5 0 00-.75 2.11 12.84 12.84 0 00-.24 2.43zm22-11.19c-.06.76-.1 1.5-.13 2.23s-.07 1.47-.11 2.21h1.23c.6 0 1.25 0 2-.07a1.21 1.21 0 000 .33v.63a1.05 1.05 0 000 .3h-3.23c0 .08 0 .4-.07 1s-.06 1.22-.08 2 0 1.58 0 2.42v3.9a5 5 0 00.28 1.46 2.4 2.4 0 00.72 1 2.14 2.14 0 001.38.39 4.7 4.7 0 00.65-.06 5 5 0 00.7-.15v.72l-1.1.12a5 5 0 01-1.19.14A3.73 3.73 0 0169 22a3.78 3.78 0 01-.9-2.73v-1.76c0-.63 0-1.32.08-2.07s0-1.58.07-2.49 0-1.92 0-3h-1a4.52 4.52 0 00-.51 0h-.57V8.66q1.35.09 2 .09v-1.5c0-.6 0-1.22-.08-1.86l2.49-1.05zm9.96-1.2a1.47 1.47 0 01.45-1.08 1.52 1.52 0 012.16 0 1.47 1.47 0 01.45 1.08 1.47 1.47 0 01-.45 1.08 1.52 1.52 0 01-2.16 0 1.47 1.47 0 01-.45-1.08zM81.14 14v-2.84c0-.99-.14-1.93-.24-2.79a6.15 6.15 0 002.7 0c-.1.86-.17 1.78-.2 2.77s0 1.94 0 2.84v5.95c0 .99.1 1.89.2 2.69q-.69-.06-1.35-.06t-1.35.06c.1-.8.16-1.7.19-2.69s0-1.93 0-2.83zm9.93 1.54a8.4 8.4 0 01.64-3.47 6.53 6.53 0 011.7-2.31 6.68 6.68 0 012.35-1.29 8.68 8.68 0 015.21 0 6.72 6.72 0 012.34 1.29 6.5 6.5 0 011.69 2.31 8.39 8.39 0 01.65 3.47A8.35 8.35 0 01105 19a6.33 6.33 0 01-1.69 2.31 6.18 6.18 0 01-2.31 1.25 9.61 9.61 0 01-5.21 0 6.15 6.15 0 01-2.35-1.25A6.35 6.35 0 0191.71 19a8.35 8.35 0 01-.64-3.46zm2.64 0a12.85 12.85 0 00.22 2.46 6.45 6.45 0 00.77 2.08 4 4 0 001.44 1.46 4.83 4.83 0 004.44 0 4 4 0 001.42-1.49 6.44 6.44 0 00.76-2.08 13 13 0 000-4.86A6.5 6.5 0 00102 11a4.16 4.16 0 00-1.44-1.45 4.83 4.83 0 00-4.44 0A4.16 4.16 0 0094.7 11a6.51 6.51 0 00-.77 2.09 12.85 12.85 0 00-.22 2.45zm28.07-4.76a2.83 2.83 0 00-2.4-1.15 3.62 3.62 0 00-3.08 1.29 5.91 5.91 0 00-1 3.63v5.38c0 .99.1 1.89.2 2.69-.47 0-.91-.06-1.35-.06s-.89 0-1.35.06c.1-.8.16-1.7.19-2.69s0-1.93 0-2.83v-5.94c0-.99-.09-1.91-.19-2.77a8.07 8.07 0 001.35.15 3.37 3.37 0 00.52 0l.68-.1q-.09 1.2-.09 2.4h.06a6.39 6.39 0 012-2 5.3 5.3 0 012.79-.7 6.21 6.21 0 011.69.24 4.07 4.07 0 011.55.82 4.25 4.25 0 011.12 1.59 6.52 6.52 0 01.44 2.57c0 .86 0 1.75-.06 2.65s-.06 1.88-.06 2.9v2.89c0 .31 0 .61.05.89q-.62-.06-1.26-.06t-1.23.06c0-1 .08-2.11.13-3.21s.08-2.23.08-3.39v-1.9a5.62 5.62 0 00-.78-3.41zm11.62-.97a8.52 8.52 0 012.49-1.38 7.73 7.73 0 012.34-.36 6 6 0 012 .31 4.31 4.31 0 011.53.9 4.18 4.18 0 011 1.41 4.55 4.55 0 01.36 1.82c0 1.14 0 2.28-.06 3.41s-.06 2.32-.06 3.58v.76a2.25 2.25 0 00.14.72 1.38 1.38 0 00.34.53 1 1 0 00.68.21h.31a.75.75 0 00.32-.1v.66a3.6 3.6 0 01-.83.24 6.08 6.08 0 01-1.09.09 1.9 1.9 0 01-2.07-1.77 8.07 8.07 0 01-2.13 1.59 5.87 5.87 0 01-2.58.51 5.22 5.22 0 01-1.47-.21 3.39 3.39 0 01-1.28-.69 3.81 3.81 0 01-.9-1.16 3.3 3.3 0 01-.34-1.54 3.52 3.52 0 011.12-2.79 6.14 6.14 0 013.11-1.32c1.08-.18 1.92-.33 2.53-.47a6.42 6.42 0 001.35-.4.9.9 0 00.53-.5 2.46 2.46 0 00.09-.73 5.68 5.68 0 00-.18-1.44 3.34 3.34 0 00-.57-1.2 2.89 2.89 0 00-1-.83 3.39 3.39 0 00-1.53-.31 4.78 4.78 0 00-2.24.54 3.55 3.55 0 00-1.54 1.5h-.33zm7.41 5.34a7.63 7.63 0 01-1.19.3l-1.36.25a13.1 13.1 0 00-1.37.35 4.44 4.44 0 00-1.2.57 2.78 2.78 0 00-.84.9 2.71 2.71 0 00-.31 1.38 2.7 2.7 0 00.81 2.13 2.65 2.65 0 001.8.72 3.66 3.66 0 002.08-.63 4.75 4.75 0 001.46-1.47zm11.5-8.73c0-.8 0-1.59-.05-2.37s0-1.53-.07-2.24-.07-1.31-.11-1.81a8.07 8.07 0 001.35.15 8.07 8.07 0 001.35-.15c0 .5-.07 1.1-.1 1.81s-.06 1.46-.08 2.24 0 1.57 0 2.37v12.24c0 .78.05 1.52.08 2.22s.06 1.28.1 1.74q-.69-.06-1.35-.06t-1.35.06c0-.46.08-1 .11-1.74s.05-1.44.07-2.22 0-1.57.05-2.37 0-1.54 0-2.22V8.64c.01-.64.01-1.42 0-2.22zm10.99 14.79a1.71 1.71 0 013.42 0 1.49 1.49 0 01-.51 1.15 1.77 1.77 0 01-2.4 0 1.49 1.49 0 01-.51-1.15z" fill="#fff" data-name="レイヤー 1"/></g></svg>