<svg xmlns="http://www.w3.org/2000/svg" viewBox="0 0 229.86 23.01"><g data-name="レイヤー 2"><path d="M16.34 21.92a9.1 9.1 0 01-1.41.5c-.55.15-1.17.29-1.85.41A12.24 12.24 0 0111 23a13.68 13.68 0 01-4.38-.68 9.2 9.2 0 01-3.46-2A9.48 9.48 0 01.83 16.9 11.56 11.56 0 010 12.36a11.65 11.65 0 01.83-4.55 9.47 9.47 0 012.31-3.37 9.93 9.93 0 013.55-2.1 13.8 13.8 0 014.56-.72 15.15 15.15 0 013.62.4 16.82 16.82 0 012.89 1 4 4 0 00-.39 1.14q-.15.72-.24 1.2L17 5.4a6.63 6.63 0 00-.84-.81 9.23 9.23 0 00-1.26-.87A8.6 8.6 0 0013.23 3a6.86 6.86 0 00-2-.28A9.23 9.23 0 008 3.3a7 7 0 00-2.67 1.75 8.19 8.19 0 00-1.76 3 13.19 13.19 0 00-.63 4.31 13.19 13.19 0 00.63 4.31 8.19 8.19 0 001.76 3A7 7 0 008 21.42a9.23 9.23 0 003.28.57 7.11 7.11 0 002-.27 10.12 10.12 0 001.68-.65 9.12 9.12 0 001.38-.81c.4-.29.75-.54 1-.76l.12.12-.27 1.77a4.25 4.25 0 01-.85.53zm7.44-6.38a8.4 8.4 0 01.64-3.47 6.53 6.53 0 011.7-2.31 6.68 6.68 0 012.35-1.29 8.68 8.68 0 015.21 0A6.72 6.72 0 0136 9.76a6.5 6.5 0 011.69 2.31 8.39 8.39 0 01.65 3.47 8.35 8.35 0 01-.63 3.46A6.33 6.33 0 0136 21.31a6.18 6.18 0 01-2.34 1.25 9.61 9.61 0 01-5.21 0 6.15 6.15 0 01-2.35-1.25A6.35 6.35 0 0124.42 19a8.35 8.35 0 01-.64-3.46zm2.64 0a12.85 12.85 0 00.22 2.46 6.45 6.45 0 00.77 2.08 4 4 0 001.44 1.46 4.83 4.83 0 004.44 0 4 4 0 001.44-1.46 6.44 6.44 0 00.76-2.08 13 13 0 000-4.86 6.5 6.5 0 00-.76-2.14 4.16 4.16 0 00-1.44-1.45 4.83 4.83 0 00-4.44 0A4.16 4.16 0 0027.41 11a6.51 6.51 0 00-.77 2.09 12.85 12.85 0 00-.22 2.45zm19.64-9.12V4.05c0-.78-.06-1.53-.12-2.24S45.88.5 45.84 0a8.07 8.07 0 001.35.15A8.07 8.07 0 0048.54 0c0 .5-.08 1.1-.11 1.81s0 1.46-.07 2.24 0 1.57 0 2.37v12.24c0 .78 0 1.52.07 2.22s.07 1.28.11 1.74q-.69-.06-1.35-.06t-1.35.06c0-.46.07-1 .1-1.74s.06-1.44.08-2.22 0-1.57 0-2.37V8.64c.06-.64.05-1.42.04-2.22zm11.4 0V4.05c0-.78 0-1.53-.08-2.24S57.28.5 57.24 0a8.07 8.07 0 001.35.15A8.07 8.07 0 0059.94 0c0 .5-.08 1.1-.11 1.81s0 1.46-.07 2.24 0 1.57 0 2.37v12.24c0 .78 0 1.52.07 2.22s.07 1.28.11 1.74q-.69-.06-1.35-.06t-1.35.06c0-.46.07-1 .1-1.74s.06-1.44.08-2.22 0-1.57 0-2.37V8.64c.06-.64.05-1.42.04-2.22zm11.15 3.39a8.52 8.52 0 012.49-1.38 7.73 7.73 0 012.34-.36 6 6 0 012 .31 4.31 4.31 0 011.53.9 4.18 4.18 0 011 1.41 4.55 4.55 0 01.36 1.82c0 1.14 0 2.28-.06 3.41s-.06 2.32-.06 3.58v.76a2.25 2.25 0 00.14.72 1.38 1.38 0 00.34.53 1 1 0 00.68.21h.31a.75.75 0 00.32-.1v.66a3.6 3.6 0 01-.83.24 6.08 6.08 0 01-1.09.09A1.9 1.9 0 0176 20.82a8.07 8.07 0 01-2.13 1.59 5.87 5.87 0 01-2.58.51 5.22 5.22 0 01-1.47-.21 3.39 3.39 0 01-1.29-.71 3.81 3.81 0 01-.9-1.16 3.3 3.3 0 01-.34-1.54 3.52 3.52 0 011.12-2.79 6.14 6.14 0 013.11-1.32c1.08-.18 1.92-.33 2.53-.47a6.42 6.42 0 001.35-.4.9.9 0 00.53-.5 2.46 2.46 0 00.09-.73 5.68 5.68 0 00-.18-1.44 3.34 3.34 0 00-.57-1.2 2.89 2.89 0 00-1-.83 3.39 3.39 0 00-1.53-.31 4.78 4.78 0 00-2.24.54 3.55 3.55 0 00-1.54 1.5h-.33zM76 15.15a7.63 7.63 0 01-1.19.3l-1.36.25a13.1 13.1 0 00-1.37.35 4.44 4.44 0 00-1.2.57 2.78 2.78 0 00-.84.9 2.71 2.71 0 00-.31 1.38 2.7 2.7 0 00.83 2.1 2.65 2.65 0 001.8.72 3.66 3.66 0 002.08-.63 4.75 4.75 0 001.46-1.47zm24.46-.03a9.22 9.22 0 01-.52 3.18 7.62 7.62 0 01-1.44 2.47 6.13 6.13 0 01-2.16 1.59 6.55 6.55 0 01-2.69.56 5.42 5.42 0 01-2.59-.62 4.84 4.84 0 01-1.76-1.48q-1.08.87-2 1.74h-.54c0-.48.08-1.06.11-1.74s0-1.4.07-2.18 0-1.55 0-2.35V4.05c0-.78 0-1.53-.07-2.24S86.79.5 86.75 0a8.07 8.07 0 001.35.15 5.6 5.6 0 00.69 0l.78-.1c-.06.4-.11 1-.15 1.9s-.07 1.85-.09 2.91 0 2.18-.06 3.3 0 2.16-.06 3.08h.06a7.16 7.16 0 012.25-2.37 5.36 5.36 0 012.85-.75 5.84 5.84 0 012.7.58A5.63 5.63 0 0199 10.2a6.61 6.61 0 011.13 2.23 9.55 9.55 0 01.33 2.69zM97.82 15a8 8 0 00-.34-2.45 5.94 5.94 0 00-.9-1.78 4 4 0 00-1.29-1.1 3.44 3.44 0 00-1.52-.37 4.9 4.9 0 00-1.77.37 3.71 3.71 0 00-1.49 1.14 6.15 6.15 0 00-1 2.07 11.33 11.33 0 00-.39 3.12q0 6 4.38 6a3.13 3.13 0 001.71-.5 4.45 4.45 0 001.37-1.42 7.76 7.76 0 00.91-2.22 11.63 11.63 0 00.33-2.86zm9.18.54a8.4 8.4 0 01.64-3.47 6.53 6.53 0 011.7-2.31 6.68 6.68 0 012.35-1.29 8.68 8.68 0 015.21 0 6.72 6.72 0 012.34 1.29 6.5 6.5 0 011.69 2.31 8.39 8.39 0 01.65 3.47 8.35 8.35 0 01-.65 3.46 6.33 6.33 0 01-1.69 2.31 6.18 6.18 0 01-2.34 1.25 9.61 9.61 0 01-5.21 0 6.15 6.15 0 01-2.35-1.25 6.35 6.35 0 01-1.7-2.31 8.35 8.35 0 01-.64-3.46zm2.64 0a12.85 12.85 0 00.22 2.43 6.45 6.45 0 00.77 2.08 4 4 0 001.44 1.46 4.83 4.83 0 004.44 0 4 4 0 001.49-1.46 6.44 6.44 0 00.76-2.08 13 13 0 000-4.86A6.5 6.5 0 00118 11a4.16 4.16 0 00-1.44-1.45 4.83 4.83 0 00-4.44 0 4.16 4.16 0 00-1.48 1.45 6.51 6.51 0 00-.77 2.09 12.85 12.85 0 00-.22 2.45zm25.56-5.04a2.73 2.73 0 00-.89-.15 2.53 2.53 0 00-1.29.33 3 3 0 00-1 .88 4.32 4.32 0 00-.6 1.32 6.19 6.19 0 00-.21 1.64v6.37a15.09 15.09 0 00.1 1.73q-.6-.06-1.2-.06t-1.26.06c.06-.68.09-1.61.11-2.78s0-2.6 0-4.3v-3.7c0-1.02-.05-2.19-.11-3.51l.63.1a4.23 4.23 0 00.63 0 3.88 3.88 0 00.57 0l.63-.1c-.08.72-.12 1.29-.13 1.71s0 .82 0 1.2h.06q1.77-3.24 4-3.24a3.18 3.18 0 01.47 0 2.34 2.34 0 01.49.15 3.34 3.34 0 00-.2 1.19v1.34l-.21.15a1.38 1.38 0 00-.59-.33zm7.8-.69a8.52 8.52 0 012.49-1.38 7.73 7.73 0 012.34-.36 6 6 0 012 .31 4.31 4.31 0 011.53.9 4.18 4.18 0 011 1.41 4.55 4.55 0 01.36 1.82c0 1.14 0 2.28-.06 3.41s-.06 2.32-.06 3.58v.76a2.25 2.25 0 00.14.72 1.38 1.38 0 00.34.53 1 1 0 00.68.21h.31a.75.75 0 00.32-.1v.66a3.6 3.6 0 01-.83.24 6.08 6.08 0 01-1.09.09 1.9 1.9 0 01-2.07-1.77 8.07 8.07 0 01-2.13 1.59 5.87 5.87 0 01-2.58.51 5.22 5.22 0 01-1.47-.21 3.39 3.39 0 01-1.28-.69 3.81 3.81 0 01-.9-1.16 3.3 3.3 0 01-.34-1.54 3.52 3.52 0 011.12-2.79 6.14 6.14 0 013.11-1.32c1.08-.18 1.92-.33 2.53-.47a6.42 6.42 0 001.35-.4.9.9 0 00.53-.5 2.46 2.46 0 00.09-.73 5.68 5.68 0 00-.18-1.44 3.34 3.34 0 00-.57-1.2 2.89 2.89 0 00-1-.83 3.39 3.39 0 00-1.53-.31 4.78 4.78 0 00-2.24.54 3.55 3.55 0 00-1.54 1.5H143zm7.41 5.34a7.63 7.63 0 01-1.19.3l-1.36.25a13.1 13.1 0 00-1.37.35 4.44 4.44 0 00-1.2.57 2.78 2.78 0 00-.84.9 2.71 2.71 0 00-.31 1.38 2.7 2.7 0 00.81 2.13 2.65 2.65 0 001.8.72 3.66 3.66 0 002.08-.63 4.75 4.75 0 001.46-1.47zM164 4.35c-.06.76-.1 1.5-.13 2.23s-.07 1.47-.11 2.21h1.23c.6 0 1.25 0 1.95-.07a1.21 1.21 0 000 .33v.63a1.05 1.05 0 000 .3h-3.18c0 .08 0 .4-.07 1s-.06 1.22-.08 2 0 1.58 0 2.42v2.25c0 .66 0 1.11.05 1.65a5 5 0 00.28 1.46 2.4 2.4 0 00.72 1 2.14 2.14 0 001.38.39 4.7 4.7 0 00.65-.06 5 5 0 00.7-.15v.72l-1.12.22a5 5 0 01-1.19.14 3.73 3.73 0 01-2.79-.93 3.78 3.78 0 01-.9-2.73V17.6c0-.63.05-1.32.08-2.07s.05-1.58.07-2.49 0-1.92 0-3h-1a4.52 4.52 0 00-.51 0h-.57c0-.12 0-.24.05-.35s0-.22 0-.34v-.3c0-.1 0-.2-.05-.3q1.35.09 2 .09v-1.5c0-.6 0-1.22-.08-1.86l2.49-1.05zm9.91-1.2a1.47 1.47 0 01.45-1.08 1.52 1.52 0 012.16 0 1.47 1.47 0 01.48 1.08 1.47 1.47 0 01-.45 1.08 1.52 1.52 0 01-2.16 0 1.47 1.47 0 01-.48-1.08zm.42 10.85v-2.84c0-.99-.1-1.91-.2-2.77a6.15 6.15 0 002.7 0c-.1.86-.16 1.78-.19 2.77s0 1.94 0 2.84v5.93c0 .99.09 1.89.19 2.69q-.69-.06-1.35-.06t-1.35.06c.1-.8.16-1.7.2-2.69s0-1.93 0-2.83zm9.93 1.54a8.4 8.4 0 01.64-3.47 6.53 6.53 0 011.7-2.31 6.68 6.68 0 012.4-1.29 8.68 8.68 0 015.21 0 6.72 6.72 0 012.34 1.29 6.5 6.5 0 011.69 2.31 8.39 8.39 0 01.65 3.47 8.35 8.35 0 01-.65 3.46 6.33 6.33 0 01-1.69 2.31 6.18 6.18 0 01-2.34 1.25 9.61 9.61 0 01-5.21 0 6.15 6.15 0 01-2.35-1.25A6.35 6.35 0 01184.9 19a8.35 8.35 0 01-.64-3.46zm2.64 0a12.85 12.85 0 00.22 2.43 6.45 6.45 0 00.77 2.08 4 4 0 001.44 1.46 4.83 4.83 0 004.44 0 4 4 0 001.44-1.46A6.44 6.44 0 00196 18a13 13 0 000-4.86 6.5 6.5 0 00-.76-2.09 4.16 4.16 0 00-1.44-1.45 4.83 4.83 0 00-4.44 0 4.16 4.16 0 00-1.47 1.4 6.51 6.51 0 00-.77 2.09 12.85 12.85 0 00-.22 2.45zm28.1-4.76a2.83 2.83 0 00-2.4-1.15 3.62 3.62 0 00-3.08 1.29 5.91 5.91 0 00-1 3.63v5.38c0 .99.1 1.89.2 2.69q-.69-.06-1.35-.06t-1.35.06c.1-.8.16-1.7.19-2.69s.05-1.93.05-2.83V14c0-.9 0-1.85-.05-2.84s-.09-1.91-.19-2.77a8.07 8.07 0 001.35.15 3.37 3.37 0 00.52 0l.68-.1q-.09 1.2-.09 2.4h.06a6.39 6.39 0 012-2 5.3 5.3 0 012.79-.7 6.21 6.21 0 011.69.24 4.07 4.07 0 011.55.82 4.25 4.25 0 011.12 1.59 6.52 6.52 0 01.44 2.57c0 .86 0 1.75-.06 2.65s-.06 1.88-.06 2.9v2.89c0 .31 0 .61.05.89q-.6-.06-1.26-.06t-1.23.06c0-1 .08-2.11.13-3.21s.08-2.23.08-3.39v-1.9a5.62 5.62 0 00-.78-3.41zm11.44 10.43a1.71 1.71 0 013.42 0 1.49 1.49 0 01-.51 1.15 1.77 1.77 0 01-2.4 0 1.49 1.49 0 01-.51-1.15z" fill="#fff" data-name="レイヤー 1"/></g></svg>