<?xml version="1.0" encoding="utf-8"?>
<!-- Generator: Adobe Illustrator 25.0.0, SVG Export Plug-In . SVG Version: 6.00 Build 0)  -->
<svg version="1.1" id="レイヤー_1" xmlns="http://www.w3.org/2000/svg" xmlns:xlink="http://www.w3.org/1999/xlink" x="0px"
	 y="0px" viewBox="0 0 113.3 14.2" style="enable-background:new 0 0 113.3 14.2;" xml:space="preserve">
<style type="text/css">
	.st0{fill:#FFFFFF;}
</style>
<g>
	<path class="st0" d="M26.7,3.6c0.3,0,0.6,0,0.9,0.1s0.5,0.2,0.7,0.3v0.9c-0.3-0.1-0.6-0.2-0.8-0.2s-0.5-0.1-0.7-0.1
		c-0.3,0-0.5,0-0.8,0.1s-0.5,0.2-0.7,0.4S25,5.6,24.9,5.9s-0.2,0.7-0.2,1.2c0,0.4,0,0.7,0.1,1c0.1,0.3,0.2,0.6,0.4,0.8
		c0.2,0.2,0.4,0.4,0.7,0.5c0.3,0.1,0.6,0.2,1,0.2c0.3,0,0.5,0,0.8-0.1c0.3-0.1,0.5-0.1,0.8-0.2v0.9c-0.1,0-0.2,0.1-0.3,0.1
		s-0.3,0.1-0.4,0.1c-0.2,0-0.3,0.1-0.5,0.1c-0.2,0-0.3,0-0.5,0c-0.4,0-0.9-0.1-1.2-0.2s-0.7-0.3-1-0.6S24,9,23.8,8.6
		s-0.3-0.9-0.3-1.5c0-0.4,0-0.8,0.1-1.2s0.2-0.6,0.4-0.9s0.3-0.5,0.5-0.7s0.4-0.3,0.7-0.4s0.5-0.2,0.7-0.3S26.5,3.6,26.7,3.6z"/>
	<path class="st0" d="M36.4,7.1c0,0.5-0.1,1-0.2,1.4s-0.4,0.8-0.6,1.1c-0.3,0.3-0.6,0.5-1,0.7s-0.8,0.2-1.3,0.2
		c-0.5,0-0.9-0.1-1.3-0.2s-0.7-0.4-1-0.7c-0.3-0.3-0.5-0.7-0.6-1.1s-0.2-0.9-0.2-1.4c0-0.5,0.1-1,0.2-1.4s0.4-0.8,0.6-1.1
		s0.6-0.5,1-0.7s0.8-0.2,1.3-0.2c0.5,0,0.9,0.1,1.3,0.2s0.7,0.4,1,0.7s0.5,0.7,0.6,1.1S36.4,6.5,36.4,7.1z M35.3,7.1
		c0-0.4,0-0.8-0.1-1.1S35,5.4,34.8,5.2s-0.4-0.4-0.6-0.5s-0.5-0.2-0.8-0.2s-0.6,0.1-0.8,0.2S32.1,5,31.9,5.2S31.6,5.7,31.5,6
		s-0.1,0.7-0.1,1.1c0,0.4,0,0.8,0.1,1.1c0.1,0.3,0.2,0.6,0.4,0.8s0.4,0.4,0.6,0.5c0.2,0.1,0.5,0.2,0.8,0.2s0.6-0.1,0.8-0.2
		c0.2-0.1,0.4-0.3,0.6-0.5s0.3-0.5,0.4-0.8C35.3,7.8,35.3,7.5,35.3,7.1z"/>
	<path class="st0" d="M39.7,4.7L39.7,4.7c0.1-0.2,0.3-0.3,0.4-0.4S40.4,4,40.6,4s0.4-0.2,0.6-0.2s0.4-0.1,0.7-0.1
		c0.3,0,0.6,0,0.8,0.1s0.5,0.2,0.7,0.4s0.3,0.4,0.5,0.7S44,5.5,44,6v4.3H43V6.1c0-0.6-0.1-1-0.3-1.2s-0.5-0.4-0.9-0.4
		c-0.4,0-0.7,0.1-1.1,0.3S40,5.3,39.7,5.7v4.6h-1.1V3.8h0.8L39.7,4.7z"/>
	<path class="st0" d="M47.4,5.5c0,0.2,0,0.3,0.1,0.4c0.1,0.1,0.2,0.2,0.3,0.3s0.3,0.1,0.4,0.2c0.2,0,0.3,0.1,0.5,0.1
		c0.2,0.1,0.5,0.1,0.7,0.2c0.2,0.1,0.4,0.2,0.6,0.3s0.3,0.3,0.4,0.5c0.1,0.2,0.2,0.5,0.2,0.9c0,0.3-0.1,0.6-0.2,0.9
		c-0.1,0.3-0.3,0.5-0.5,0.6c-0.2,0.2-0.5,0.3-0.8,0.4c-0.3,0.1-0.7,0.1-1.1,0.1c-0.2,0-0.5,0-0.6,0c-0.2,0-0.4-0.1-0.5-0.1
		c-0.1,0-0.3-0.1-0.4-0.1s-0.2-0.1-0.3-0.1V9.2c0.3,0.1,0.5,0.2,0.8,0.3c0.3,0.1,0.6,0.1,0.9,0.1c0.3,0,0.5,0,0.7-0.1
		c0.2,0,0.4-0.1,0.5-0.2c0.1-0.1,0.3-0.2,0.3-0.3c0.1-0.1,0.1-0.3,0.1-0.5c0-0.2,0-0.3-0.1-0.5c-0.1-0.1-0.2-0.2-0.3-0.3
		s-0.3-0.1-0.4-0.2s-0.3-0.1-0.5-0.1c-0.2,0-0.5-0.1-0.7-0.2S47.1,7.1,46.9,7s-0.3-0.3-0.5-0.5c-0.1-0.2-0.2-0.5-0.2-0.8
		c0-0.3,0.1-0.6,0.2-0.9s0.3-0.5,0.5-0.6s0.5-0.3,0.7-0.4s0.6-0.1,0.9-0.1c0.4,0,0.7,0,1,0.1s0.6,0.2,0.8,0.3v0.9
		c-0.3-0.1-0.5-0.2-0.8-0.3S49,4.5,48.8,4.5c-0.2,0-0.5,0-0.6,0.1s-0.3,0.1-0.4,0.2c-0.1,0.1-0.2,0.2-0.2,0.3S47.4,5.4,47.4,5.5z"/>
	<path class="st0" d="M55.4,10.5c-0.3,0-0.6,0-0.9-0.1s-0.5-0.2-0.7-0.3s-0.4-0.3-0.5-0.5C53.2,9.4,53,9.2,53,9
		c-0.1-0.2-0.1-0.3-0.1-0.5s0-0.4,0-0.6v-4h1.1v4c0,0.4,0,0.7,0.1,0.9c0.1,0.3,0.3,0.5,0.5,0.6c0.2,0.2,0.6,0.2,0.9,0.2
		c0.4,0,0.7-0.1,1-0.3s0.4-0.4,0.5-0.7c0.1-0.2,0.1-0.5,0.1-0.8v-4h1.1v4c0,0.2,0,0.4,0,0.6C58,8.6,58,8.8,58,8.9
		c-0.1,0.2-0.2,0.4-0.3,0.6c-0.1,0.2-0.3,0.4-0.5,0.5s-0.5,0.2-0.7,0.3C56.1,10.4,55.8,10.5,55.4,10.5z"/>
	<path class="st0" d="M60.7,10.3V0.4h1.1v9.9H60.7z"/>
	<path class="st0" d="M67.9,10.3c-0.1,0-0.2,0.1-0.4,0.1c-0.2,0-0.4,0-0.7,0.1c-0.3,0-0.6,0-0.9-0.1c-0.3-0.1-0.5-0.2-0.6-0.4
		c-0.2-0.2-0.3-0.3-0.4-0.6s-0.1-0.5-0.1-0.7v-4h-1.3V3.8h1.3V2h1.1v1.8h1.9v0.9h-1.9v3.8c0,0.2,0,0.3,0.1,0.4s0.1,0.2,0.2,0.3
		c0.1,0.1,0.2,0.2,0.4,0.2c0.1,0.1,0.3,0.1,0.5,0.1c0.1,0,0.3,0,0.4,0c0.2,0,0.3-0.1,0.4-0.1V10.3z"/>
	<path class="st0" d="M69.9,2.3V1.1H71v1.2H69.9z M69.9,10.3V3.8H71v6.5H69.9z"/>
	<path class="st0" d="M74.7,4.7L74.7,4.7c0.1-0.2,0.3-0.3,0.4-0.4C75.3,4.2,75.4,4,75.6,4s0.4-0.2,0.6-0.2c0.2-0.1,0.4-0.1,0.7-0.1
		c0.3,0,0.6,0,0.8,0.1s0.5,0.2,0.7,0.4s0.3,0.4,0.5,0.7C79,5.2,79,5.5,79,6v4.3H78V6.1c0-0.6-0.1-1-0.3-1.2
		c-0.2-0.2-0.5-0.4-0.9-0.4c-0.4,0-0.7,0.1-1.1,0.3S75,5.3,74.7,5.7v4.6h-1.1V3.8h0.8L74.7,4.7z"/>
	<path class="st0" d="M84.1,3.6c0.3,0,0.5,0,0.7,0.1s0.4,0.2,0.5,0.3s0.3,0.2,0.4,0.3c0.1,0.1,0.1,0.2,0.2,0.2h0l0.2-0.7H87v6.9
		c0,0.5-0.1,0.9-0.2,1.3c-0.2,0.4-0.4,0.7-0.7,0.9s-0.7,0.4-1.1,0.5c-0.4,0.1-0.9,0.2-1.4,0.2c-0.4,0-0.8,0-1.1-0.1
		c-0.3-0.1-0.6-0.2-0.8-0.3v-0.9c0.2,0.1,0.3,0.1,0.5,0.2c0.1,0,0.3,0.1,0.5,0.1c0.2,0,0.3,0.1,0.5,0.1c0.2,0,0.3,0,0.5,0
		c0.8,0,1.3-0.2,1.8-0.5s0.6-0.9,0.6-1.6V9.7h0c-0.2,0.3-0.5,0.4-0.8,0.6c-0.3,0.1-0.7,0.2-1.1,0.2c-0.2,0-0.4,0-0.6-0.1
		s-0.4-0.1-0.6-0.2c-0.2-0.1-0.4-0.2-0.6-0.4c-0.2-0.2-0.4-0.4-0.5-0.6c-0.1-0.2-0.3-0.5-0.4-0.9c-0.1-0.3-0.1-0.7-0.1-1.2
		c0-0.6,0.1-1.1,0.2-1.6s0.4-0.8,0.6-1.1s0.6-0.5,0.9-0.7S83.8,3.6,84.1,3.6z M82.4,7.1c0,0.5,0.1,0.9,0.2,1.3s0.3,0.6,0.5,0.8
		c0.2,0.2,0.4,0.3,0.6,0.4c0.2,0.1,0.4,0.1,0.6,0.1c0.3,0,0.6-0.1,0.9-0.2s0.5-0.3,0.8-0.5V5.4c-0.1-0.1-0.1-0.2-0.2-0.3
		S85.5,5,85.3,4.9c-0.1-0.1-0.3-0.2-0.5-0.2s-0.4-0.1-0.6-0.1c-0.3,0-0.6,0.1-0.8,0.2C83.2,4.9,83,5,82.9,5.3
		c-0.2,0.2-0.3,0.5-0.4,0.8S82.4,6.7,82.4,7.1z"/>
</g>
</svg>
