<?xml version="1.0" encoding="utf-8"?>
<!-- Generator: Adobe Illustrator 25.0.0, SVG Export Plug-In . SVG Version: 6.00 Build 0)  -->
<svg version="1.1" id="レイヤー_1" xmlns="http://www.w3.org/2000/svg" xmlns:xlink="http://www.w3.org/1999/xlink" x="0px"
	 y="0px" viewBox="0 0 166.7 22.9" style="enable-background:new 0 0 166.7 22.9;" xml:space="preserve">
<style type="text/css">
	.st0{fill:#FFFFFF;}
</style>
<g>
	<path class="st0" d="M9.7,12c0.6,0.1,1.1,0.2,1.6,0.5c0.5,0.2,0.9,0.5,1.2,0.9c0.3,0.4,0.6,0.8,0.8,1.3c0.2,0.5,0.3,1.1,0.3,1.7
		c0,0.5-0.1,0.9-0.2,1.4c-0.1,0.5-0.4,1-0.7,1.4c-0.3,0.5-0.7,0.9-1.2,1.3c-0.5,0.4-1.1,0.7-1.9,1C9,21.7,8.4,21.9,7.7,22
		C7,22,6.2,22.1,5.2,22.1h-5V2.7H5c0.4,0,0.8,0,1.2,0c0.4,0,0.7,0,1,0.1c0.3,0,0.6,0.1,0.8,0.1C8.3,2.9,8.6,3,8.8,3
		c0.6,0.2,1.1,0.4,1.6,0.7c0.5,0.3,0.9,0.6,1.3,1c0.3,0.4,0.6,0.8,0.8,1.3c0.2,0.5,0.3,1,0.3,1.6c0,0.5-0.1,0.9-0.2,1.4
		c-0.1,0.4-0.3,0.8-0.5,1.2c-0.2,0.4-0.6,0.7-1,1C10.7,11.5,10.2,11.8,9.7,12L9.7,12z M6.2,11.1c0.5,0,0.9,0,1.2-0.1
		c0.3,0,0.6-0.1,0.9-0.2c0.7-0.2,1.3-0.6,1.6-1.1c0.3-0.5,0.5-1.1,0.5-1.8c0-0.7-0.2-1.3-0.5-1.8C9.5,5.7,9,5.3,8.2,5.1
		C7.9,5,7.5,4.9,7,4.9c-0.5,0-1.1-0.1-1.7-0.1H2.6v6.3H6.2z M2.6,13.2v6.7h2.9c0.7,0,1.3,0,1.9-0.1c0.6-0.1,1.1-0.2,1.5-0.3
		c0.4-0.1,0.8-0.3,1.1-0.6c0.3-0.2,0.6-0.5,0.7-0.8c0.2-0.3,0.3-0.6,0.4-0.9c0.1-0.3,0.1-0.6,0.1-0.9c0-0.4,0-0.7-0.1-1
		c-0.1-0.3-0.2-0.6-0.4-0.9c-0.2-0.3-0.5-0.5-0.8-0.7c-0.3-0.2-0.7-0.3-1.2-0.5c-0.3-0.1-0.6-0.1-1-0.1c-0.4,0-0.8,0-1.4,0H2.6z"/>
	<path class="st0" d="M25.3,20.5c0.7,0,1.4-0.1,2-0.2c0.6-0.1,1.2-0.3,1.8-0.5v1.9c-0.5,0.2-1.1,0.4-1.8,0.6
		c-0.7,0.1-1.5,0.2-2.3,0.2c-1,0-1.9-0.1-2.8-0.4c-0.9-0.3-1.6-0.7-2.2-1.2c-0.6-0.6-1.1-1.3-1.5-2.2c-0.4-0.9-0.5-2-0.5-3.3
		c0-1.3,0.2-2.3,0.5-3.3c0.3-0.9,0.8-1.7,1.4-2.3c0.6-0.6,1.2-1.1,2-1.4c0.8-0.3,1.5-0.5,2.4-0.5c0.8,0,1.5,0.1,2.2,0.4
		c0.7,0.3,1.3,0.7,1.7,1.2s0.9,1.3,1.2,2.1s0.4,1.9,0.4,3.1c0,0.1,0,0.2,0,0.3c0,0.1,0,0.3,0,0.6h-9.5c0,0.9,0.1,1.6,0.4,2.2
		c0.3,0.6,0.6,1.1,1.1,1.5c0.5,0.4,1,0.7,1.6,0.8S24.6,20.5,25.3,20.5z M24.1,9.9c-0.5,0-1,0.1-1.4,0.3c-0.4,0.2-0.8,0.5-1.2,0.8
		c-0.3,0.3-0.6,0.8-0.8,1.2c-0.2,0.5-0.3,1-0.4,1.5h7c0-0.5-0.1-1-0.2-1.5c-0.1-0.5-0.3-0.9-0.6-1.2c-0.3-0.3-0.6-0.6-1-0.8
		C25.1,10,24.6,9.9,24.1,9.9z"/>
	<path class="st0" d="M36.3,12c0,0.4,0.1,0.7,0.2,0.9c0.2,0.2,0.4,0.4,0.6,0.6c0.3,0.2,0.6,0.3,0.9,0.4c0.4,0.1,0.7,0.2,1.1,0.3
		c0.5,0.1,1,0.2,1.5,0.4c0.5,0.1,0.9,0.4,1.3,0.6c0.4,0.3,0.7,0.7,1,1.1c0.2,0.5,0.4,1.1,0.4,1.9c0,0.7-0.1,1.3-0.4,1.8
		c-0.3,0.5-0.7,1-1.1,1.3c-0.5,0.4-1.1,0.6-1.8,0.8c-0.7,0.2-1.4,0.3-2.3,0.3c-0.5,0-1,0-1.4-0.1c-0.4-0.1-0.8-0.1-1.1-0.2
		c-0.3-0.1-0.6-0.2-0.8-0.3s-0.4-0.2-0.6-0.2v-1.9c0.6,0.2,1.1,0.4,1.7,0.5c0.6,0.1,1.2,0.2,1.9,0.2c0.5,0,1,0,1.4-0.1
		c0.4-0.1,0.8-0.2,1.1-0.4c0.3-0.2,0.5-0.4,0.7-0.7c0.2-0.3,0.2-0.6,0.2-1c0-0.4-0.1-0.7-0.2-1c-0.2-0.3-0.4-0.5-0.6-0.6
		c-0.3-0.2-0.6-0.3-0.9-0.4c-0.3-0.1-0.7-0.2-1.1-0.3c-0.5-0.1-1-0.2-1.5-0.4c-0.5-0.1-1-0.3-1.4-0.6c-0.4-0.3-0.7-0.6-1-1.1
		c-0.3-0.4-0.4-1-0.4-1.7c0-0.7,0.1-1.4,0.4-1.9s0.6-1,1.1-1.3c0.4-0.3,1-0.6,1.6-0.8s1.2-0.3,1.9-0.3c0.8,0,1.5,0.1,2.1,0.2
		c0.7,0.1,1.2,0.3,1.8,0.6v1.9c-0.6-0.2-1.1-0.4-1.7-0.5s-1.2-0.2-1.8-0.2c-0.5,0-1,0.1-1.3,0.2c-0.4,0.1-0.7,0.3-0.9,0.4
		c-0.2,0.2-0.4,0.4-0.5,0.7C36.4,11.4,36.3,11.7,36.3,12z"/>
	<path class="st0" d="M55.2,22.1c-0.2,0.1-0.5,0.1-0.9,0.2c-0.4,0.1-0.9,0.1-1.4,0.1c-0.7,0-1.4-0.1-1.9-0.3c-0.5-0.2-1-0.4-1.3-0.8
		c-0.4-0.3-0.6-0.7-0.8-1.2c-0.2-0.5-0.3-1-0.3-1.6v-8.4H46V8.3h2.7V4.5h2.2v3.8H55v1.9h-4.1v8c0,0.3,0,0.6,0.1,0.9
		c0.1,0.3,0.2,0.5,0.4,0.7c0.2,0.2,0.5,0.4,0.8,0.5c0.3,0.1,0.7,0.2,1.1,0.2c0.3,0,0.6,0,0.9-0.1c0.3,0,0.6-0.1,0.9-0.2V22.1z"/>
	<path class="st0" d="M63.6,22.1l7.9-19.4h2l7.9,19.4h-2.6l-2.3-5.8h-8.1l-2.3,5.8H63.6z M72.5,5.7c-0.9,2.4-1.7,4.6-2.5,6.6
		l-0.7,1.8h6.4L75,12.3C74.2,10.3,73.4,8.1,72.5,5.7L72.5,5.7z"/>
	<path class="st0" d="M87.5,10.2L87.5,10.2c0.3-0.3,0.6-0.6,0.9-0.9c0.3-0.3,0.6-0.5,1-0.7c0.4-0.2,0.8-0.4,1.2-0.5
		c0.4-0.1,0.9-0.2,1.5-0.2c0.6,0,1.2,0.1,1.8,0.3c0.6,0.2,1,0.5,1.4,0.8s0.7,0.9,1,1.5c0.2,0.6,0.4,1.4,0.4,2.3v9.2h-2.2v-8.9
		c0-1.2-0.2-2-0.7-2.6c-0.5-0.5-1.1-0.8-2-0.8c-0.8,0-1.5,0.2-2.2,0.6c-0.7,0.4-1.3,1-1.9,1.8v9.8h-2.2V8.3H87L87.5,10.2z"/>
	<path class="st0" d="M103.7,12c0,0.4,0.1,0.7,0.2,0.9c0.2,0.2,0.4,0.4,0.6,0.6c0.3,0.2,0.6,0.3,0.9,0.4c0.4,0.1,0.7,0.2,1.1,0.3
		c0.5,0.1,1,0.2,1.5,0.4c0.5,0.1,0.9,0.4,1.3,0.6c0.4,0.3,0.7,0.7,0.9,1.1c0.2,0.5,0.4,1.1,0.4,1.9c0,0.7-0.1,1.3-0.4,1.8
		c-0.3,0.5-0.7,1-1.1,1.3c-0.5,0.4-1.1,0.6-1.8,0.8c-0.7,0.2-1.4,0.3-2.3,0.3c-0.5,0-1,0-1.4-0.1c-0.4-0.1-0.8-0.1-1.1-0.2
		c-0.3-0.1-0.6-0.2-0.8-0.3c-0.2-0.1-0.4-0.2-0.6-0.2v-1.9c0.6,0.2,1.1,0.4,1.7,0.5c0.6,0.1,1.2,0.2,1.9,0.2c0.5,0,1,0,1.4-0.1
		c0.4-0.1,0.8-0.2,1.1-0.4c0.3-0.2,0.5-0.4,0.7-0.7c0.2-0.3,0.3-0.6,0.3-1c0-0.4-0.1-0.7-0.2-1c-0.2-0.3-0.4-0.5-0.6-0.6
		c-0.3-0.2-0.6-0.3-0.9-0.4c-0.3-0.1-0.7-0.2-1.1-0.3c-0.5-0.1-1-0.2-1.5-0.4c-0.5-0.1-1-0.3-1.4-0.6c-0.4-0.3-0.7-0.6-1-1.1
		c-0.3-0.4-0.4-1-0.4-1.7c0-0.7,0.1-1.4,0.4-1.9c0.3-0.5,0.6-1,1.1-1.3c0.4-0.3,1-0.6,1.6-0.8s1.2-0.3,1.9-0.3
		c0.8,0,1.5,0.1,2.1,0.2c0.7,0.1,1.2,0.3,1.8,0.6v1.9c-0.6-0.2-1.1-0.4-1.7-0.5s-1.2-0.2-1.8-0.2c-0.5,0-1,0.1-1.3,0.2
		c-0.4,0.1-0.7,0.3-0.9,0.4c-0.2,0.2-0.4,0.4-0.5,0.7C103.8,11.4,103.7,11.7,103.7,12z"/>
	<path class="st0" d="M123.5,10.6c-0.3,1.3-0.6,2.4-0.8,3.3l-2.2,8.2h-2.3l-4.5-13.8h2.2l2.6,8.6c0.3,1.1,0.6,2,0.8,2.7h0.1
		c0.2-0.7,0.4-1.7,0.8-3l2.3-8.3h2.2l2.5,8.3c0.3,1.1,0.6,2.1,0.8,3h0.1c0.2-0.9,0.5-1.8,0.8-2.7l2.6-8.6h2.2l-4.6,13.8h-2.4
		l-2.3-8.2C124.2,12.9,123.9,11.8,123.5,10.6L123.5,10.6z"/>
	<path class="st0" d="M144.2,20.5c0.7,0,1.4-0.1,2-0.2c0.6-0.1,1.2-0.3,1.8-0.5v1.9c-0.5,0.2-1.1,0.4-1.8,0.6
		c-0.7,0.1-1.5,0.2-2.3,0.2c-1,0-1.9-0.1-2.8-0.4c-0.9-0.3-1.6-0.7-2.2-1.2c-0.6-0.6-1.1-1.3-1.5-2.2c-0.4-0.9-0.5-2-0.5-3.3
		c0-1.3,0.2-2.3,0.5-3.3c0.3-0.9,0.8-1.7,1.4-2.3s1.2-1.1,2-1.4c0.8-0.3,1.5-0.5,2.4-0.5c0.8,0,1.5,0.1,2.2,0.4
		c0.7,0.3,1.3,0.7,1.7,1.2c0.5,0.6,0.9,1.3,1.2,2.1c0.3,0.9,0.4,1.9,0.4,3.1c0,0.1,0,0.2,0,0.3c0,0.1,0,0.3,0,0.6h-9.5
		c0,0.9,0.1,1.6,0.4,2.2c0.3,0.6,0.6,1.1,1.1,1.5c0.5,0.4,1,0.7,1.6,0.8C142.8,20.4,143.5,20.5,144.2,20.5z M143,9.9
		c-0.5,0-1,0.1-1.4,0.3c-0.4,0.2-0.8,0.5-1.2,0.8c-0.3,0.3-0.6,0.8-0.8,1.2c-0.2,0.5-0.3,1-0.4,1.5h7c0-0.5-0.1-1-0.2-1.5
		c-0.1-0.5-0.3-0.9-0.6-1.2c-0.3-0.3-0.6-0.6-1-0.8S143.5,9.9,143,9.9z"/>
	<path class="st0" d="M161.2,10.1H161c-0.5,0-1.1,0-1.6,0.1s-1,0.2-1.4,0.4c-0.4,0.2-0.9,0.4-1.2,0.7c-0.4,0.3-0.7,0.6-0.9,1v9.6
		h-2.2V8.3h1.7l0.4,2.2h0c0.2-0.4,0.5-0.7,0.8-1c0.3-0.3,0.7-0.6,1.1-0.8c0.4-0.2,0.9-0.4,1.3-0.5c0.5-0.1,1-0.2,1.5-0.2
		c0.1,0,0.2,0,0.3,0c0.1,0,0.2,0,0.3,0V10.1z"/>
	<path class="st0" d="M161.2,22.1v-2.8h2.8v2.8H161.2z"/>
</g>
</svg>
