<?xml version="1.0" encoding="utf-8"?>
<!-- Generator: Adobe Illustrator 25.0.1, SVG Export Plug-In . SVG Version: 6.00 Build 0)  -->
<svg version="1.1" id="レイヤー_1" xmlns="http://www.w3.org/2000/svg" xmlns:xlink="http://www.w3.org/1999/xlink" x="0px"
	 y="0px" viewBox="0 0 243 39" style="enable-background:new 0 0 243 39;" xml:space="preserve">
<style type="text/css">
	.st0{fill:#FFFFFF;}
</style>
<g>
	<path class="st0" d="M3.2,30.8v-26h7.7c1.2,0,2.2,0,3,0.1c0.8,0,1.7,0.2,2.5,0.4C17.2,5.6,18,6,18.6,6.5s1.1,1.1,1.4,1.8
		c0.3,0.7,0.4,1.5,0.4,2.4c0,2.3-1.2,4.1-3.5,5.3v0.1c1.8,0.4,3.1,1.1,4.1,2.3c1,1.2,1.5,2.6,1.5,4.4c0,2.5-0.9,4.4-2.7,5.9
		c-1.8,1.4-4.3,2.1-7.6,2.1H3.2z M6.4,7.5v7.9H11c2.2,0,3.8-0.4,4.7-1.1c0.9-0.7,1.3-1.8,1.3-3.3c0-1-0.4-1.9-1.1-2.5
		c-0.7-0.6-2.5-0.9-5.4-0.9H6.4z M6.4,18.1v10h4.7c3.3,0,5.5-0.5,6.6-1.4s1.6-2.1,1.6-3.7c0-1-0.2-1.9-0.6-2.6
		c-0.4-0.7-1-1.3-1.8-1.7c-0.8-0.4-2.5-0.6-4.9-0.6H6.4z"/>
	<path class="st0" d="M37.4,31.3c-3.2,0-5.8-0.9-7.6-2.6c-1.8-1.8-2.7-4.2-2.7-7.4c0-3.2,0.9-5.7,2.6-7.6c1.7-1.9,4-2.8,6.8-2.8
		c2.6,0,4.6,0.8,6,2.3s2.1,3.7,2.1,6.6v1.7H30.3c0,2.3,0.6,4.2,1.9,5.4c1.3,1.3,3,1.9,5.3,1.9c2.2,0,4.5-0.8,6.7-2.3h0.1v3.3
		C41.6,30.7,39.3,31.3,37.4,31.3z M30.3,19.1h11.4c-0.1-3.9-1.9-5.8-5.3-5.8c-1.7,0-3.2,0.5-4.2,1.6C31.1,15.8,30.5,17.2,30.3,19.1z
		"/>
	<path class="st0" d="M56.5,31.3c-2.4,0-4.7-0.5-6.9-1.6v-3.5h0.1c2.3,1.7,4.6,2.6,6.9,2.6c3.2,0,4.8-1,4.8-3c0-0.8-0.2-1.4-0.6-1.8
		c-0.4-0.4-1.3-0.8-2.7-1.1c-1.1-0.2-2.4-0.5-3.9-0.8c-1.5-0.3-2.6-1-3.4-1.8c-0.8-0.9-1.2-2-1.2-3.3c0-1.7,0.7-3.1,2.1-4.2
		s3.3-1.6,5.6-1.6c2.4,0,4.5,0.5,6.4,1.4v3.3h-0.1c-2-1.5-4.1-2.2-6.4-2.2c-1.4,0-2.5,0.3-3.3,0.8c-0.8,0.5-1.2,1.2-1.2,2.1
		c0,0.8,0.2,1.4,0.6,1.8c0.4,0.4,1.3,0.8,2.6,1.1l3.8,0.8c1.6,0.3,2.8,1,3.6,1.8c0.8,0.9,1.2,2,1.2,3.4c0,1.8-0.7,3.2-2.2,4.3
		C60.9,30.7,59,31.3,56.5,31.3z"/>
	<path class="st0" d="M76.7,31.2c-4,0-6-2.2-6-6.6V13.8h-2.2v-2.5h2.2V5.7h3v5.6h6.8v2.5h-6.8v9c0,2,0.1,3.4,0.4,4
		c0.3,0.6,0.7,1,1.3,1.3c0.6,0.3,1.3,0.4,2.2,0.4c0.9,0,1.8-0.2,2.8-0.6h0.1v2.8C79.2,31,77.9,31.2,76.7,31.2z"/>
	<path class="st0" d="M122.8,37.1c-1.2,0.3-2.6,0.5-4,0.5c-2,0-3.6-0.6-4.8-1.7c-1.2-1.1-1.9-2.7-2-4.7c-0.6,0.1-1.1,0.1-1.6,0.1
		c-3.7,0-6.6-1.2-8.7-3.6c-2.1-2.4-3.2-5.7-3.2-9.9s1.1-7.6,3.2-10c2.1-2.4,5-3.6,8.7-3.6c3.7,0,6.6,1.2,8.7,3.6
		c2.1,2.4,3.2,5.7,3.2,10c0,3.2-0.6,5.9-1.8,8.1c-1.2,2.2-3,3.7-5.3,4.6c0.1,1.6,0.5,2.7,1.2,3.3s1.7,1,3.1,1c1,0,2.1-0.2,3.2-0.6
		h0.3V37.1z M110.4,7c-2.7,0-4.8,0.9-6.3,2.8c-1.5,1.9-2.2,4.5-2.2,8s0.7,6.1,2.2,8c1.5,1.9,3.6,2.8,6.3,2.8c2.7,0,4.8-0.9,6.3-2.8
		c1.5-1.9,2.2-4.5,2.2-8c0-3.5-0.7-6.1-2.2-8C115.2,8,113.1,7,110.4,7z"/>
	<path class="st0" d="M144.7,30.8h-3v-2.3c-2.4,1.9-4.6,2.9-6.8,2.9c-2,0-3.6-0.6-4.7-1.9c-1.1-1.3-1.6-3.1-1.6-5.4V11.3h3v11
		c0,2.5,0.3,4.2,1,5c0.7,0.8,1.8,1.2,3.3,1.2c1.8,0,3.7-0.8,5.7-2.5V11.3h3V30.8z"/>
	<path class="st0" d="M164.3,30.8v-2.2c-1.6,1.2-3,1.9-4,2.2s-2.1,0.5-3.2,0.5c-1.7,0-3.2-0.6-4.3-1.7c-1.2-1.2-1.7-2.6-1.7-4.4
		c0-2.3,0.9-4,2.6-5.1c1.7-1.1,5.3-1.8,10.7-2v-0.6c0-1.4-0.4-2.4-1.2-3c-0.8-0.7-2.2-1-4.2-1c-1.8,0-3.8,0.5-6,1.4h-0.1v-3.2
		c2.2-0.6,4.2-0.9,6.2-0.9c2.9,0,5,0.5,6.3,1.6s2,2.7,2,5v13.3H164.3z M164.3,26.2v-5.7c-4.3,0.2-7.1,0.7-8.3,1.4
		c-1.2,0.8-1.8,1.8-1.8,3.1c0,2.3,1.4,3.5,4.2,3.5C160.3,28.6,162.3,27.8,164.3,26.2z"/>
	<path class="st0" d="M178,30.8h-3V3.7h3V30.8z"/>
	<path class="st0" d="M189.2,7.4h-3.4V4.3h3.4V7.4z M189,30.8h-3V11.3h3V30.8z"/>
	<path class="st0" d="M203,31.2c-4,0-6-2.2-6-6.6V13.8h-2.2v-2.5h2.2V5.7h3v5.6h6.8v2.5H200v9c0,2,0.1,3.4,0.4,4
		c0.3,0.6,0.7,1,1.3,1.3c0.6,0.3,1.3,0.4,2.2,0.4c0.9,0,1.8-0.2,2.8-0.6h0.1v2.8C205.4,31,204.2,31.2,203,31.2z"/>
	<path class="st0" d="M228.5,11.3L217.1,38h-3.2l3.6-8l-7.9-18.7h3.3l6.2,14.8l6.2-14.8H228.5z"/>
	<path class="st0" d="M235.5,30.8h-3.9v-4.7h3.9V30.8z"/>
</g>
</svg>
