<?xml version="1.0" encoding="utf-8"?>
<!-- Generator: Adobe Illustrator 25.0.0, SVG Export Plug-In . SVG Version: 6.00 Build 0)  -->
<svg version="1.1" id="レイヤー_1" xmlns="http://www.w3.org/2000/svg" xmlns:xlink="http://www.w3.org/1999/xlink" x="0px"
	 y="0px" viewBox="0 0 188.2 21.8" style="enable-background:new 0 0 188.2 21.8;" xml:space="preserve">
<style type="text/css">
	.st0{fill:#FFFFFF;}
</style>
<g>
	<path class="st0" d="M14.6,13l-8.1,8.1l-0.8-0.8L13,13L5.7,5.6l3.1-3.1H3.4v18.3H2.3V1.4h9.2L7.2,5.6L14.6,13z"/>
	<path class="st0" d="M28.7,1.4v19.4H18.4V1.4h1.1v18.3h8V1.4H28.7z"/>
	<path class="st0" d="M47,16.7l-4.2,4.2h-9.9v-1.1h9.5l3.1-3.1l-11-11l4.2-4.2h6.3v1.1h-5.8L36,5.6L47,16.7z"/>
	<path class="st0" d="M51.9,1.4v19.4h-1.1V1.4H51.9z"/>
	<path class="st0" d="M68,1.4v19.3h-1.1v-7.6l-9.8-9.9v17.5H56V0.7l10.9,11V1.4H68z"/>
	<path class="st0" d="M86,19.7v1.1H73.9V6.2H72V5.1h1.9V1.4h10.2v1.1H75v2.6h7.3v1.1H75v13.5H86z"/>
	<path class="st0" d="M104.3,16.7l-4.2,4.2h-9.9v-1.1h9.5l3.1-3.1l-11-11l4.2-4.2h6.3v1.1h-5.8l-3.1,3.1L104.3,16.7z"/>
	<path class="st0" d="M122.3,16.7l-4.2,4.2h-9.9v-1.1h9.5l3.1-3.1l-11-11l4.2-4.2h6.3v1.1h-5.8l-3.1,3.1L122.3,16.7z"/>
</g>
</svg>
