<?xml version="1.0" encoding="utf-8"?>
<!-- Generator: Adobe Illustrator 25.0.0, SVG Export Plug-In . SVG Version: 6.00 Build 0)  -->
<svg version="1.1" id="レイヤー_1" xmlns="http://www.w3.org/2000/svg" xmlns:xlink="http://www.w3.org/1999/xlink" x="0px"
	 y="0px" viewBox="0 0 113.3 18.8" style="enable-background:new 0 0 113.3 18.8;" xml:space="preserve">
<style type="text/css">
	.st0{fill:#FFFFFF;}
</style>
<g>
	<path class="st0" d="M6.2,14.4c-0.2,0-0.4,0-0.8,0.1v-0.8c0.3,0,0.5,0.1,0.8,0.1h7.7V6.1H6.2c-0.3,0-0.5,0-0.8,0.1V5.4
		c0.3,0,0.5,0.1,0.8,0.1h8.8v9H6.2z"/>
	<path class="st0" d="M22.5,8.5c0,0-0.1-0.1-0.3-0.4c-1.1-1.2-3.1-2.7-3.9-3l0.4-0.6c0.2,0.1,0.2,0.1,0.8,0.4c1,0.5,2.4,1.4,3.2,2.1
		c0.2,0.2,0.3,0.3,0.5,0.4L22.5,8.5z M18.7,14.1c0.1,0,0.2,0,0.3,0c1.3,0,3.5-0.6,4.9-1.3c1.6-0.8,3-2,3.9-3.6
		c0.5-0.8,0.6-1.1,1-2.2l0-0.1l0-0.1l0.7,0.3C29.2,7.4,29.2,7.6,29,8c-1.4,4.1-4.3,6.3-9.2,7.1c-0.4,0.1-0.6,0.1-0.8,0.2L18.7,14.1z
		"/>
	<path class="st0" d="M41.3,9.7c0,2.9-1.5,4.8-4.8,5.8c-0.2,0.1-0.4,0.1-0.7,0.3l-0.3-0.6c1.1-0.1,2.6-0.9,3.5-1.9
		c0.8-0.9,1.2-2,1.2-3.5V7.8h-4.7v2.7c0,0.3,0,0.6,0.1,0.8h-1.2c0-0.2,0.1-0.4,0.1-0.8V7.8h-2.4c-0.3,0-0.6,0-0.8,0.1V7.1
		c0.2,0,0.5,0.1,0.8,0.1h2.4V4.7c0-0.3,0-0.5-0.1-0.8h1.2c0,0.2-0.1,0.4-0.1,0.8v2.5h4.7V4.7c0-0.3,0-0.5-0.1-0.8h1.2
		c0,0.2-0.1,0.4-0.1,0.8v2.5h2.4c0.2,0,0.5,0,0.8-0.1v0.8c-0.2,0-0.4-0.1-0.8-0.1h-2.4V9.7z"/>
	<path class="st0" d="M45.8,14.6c0.8-0.3,2-1.6,2.5-2.7C48.8,11,49,9.8,49,8V5.6c0-0.2,0-0.5-0.1-0.8h1.2C50.1,5,50,5.3,50,5.6V8
		c0,3.4-0.8,5-3.3,6.8c-0.2,0.2-0.3,0.3-0.5,0.4L45.8,14.6z M52.3,5c0-0.3,0-0.4-0.1-0.8h1.2c0,0.3-0.1,0.5-0.1,0.8v8.8
		c2.4-0.5,5.1-3.3,5.6-5.8l0.6,0.4c-0.2,0.3-0.3,0.4-0.5,1c-1.2,3.2-3.5,5.1-6.8,5.8V5z"/>
	<path class="st0" d="M73.2,9.1C72.9,9,72.7,9,72.4,9h-4.3c-0.1,3.6-1.5,5.4-5.2,6.5c-0.3,0.1-0.5,0.2-0.6,0.3L62,15.1
		c1.2-0.1,2.9-1,3.7-1.9C66.5,12.3,66.9,11,67,9h-5.4c-0.2,0-0.5,0-0.8,0.1V8.3c0.2,0,0.5,0.1,0.8,0.1h10.9c0.2,0,0.5,0,0.8-0.1V9.1
		z M71.8,5.4c-0.3,0-0.5-0.1-0.8-0.1h-8.2c-0.2,0-0.5,0-0.8,0.1V4.6c0.2,0,0.5,0.1,0.8,0.1h8.2c0.2,0,0.5,0,0.8-0.1V5.4z"/>
	<path class="st0" d="M80.7,14.9c0,0.2,0,0.6,0.1,0.8h-1c0-0.2,0.1-0.4,0.1-0.8V10c-1.4,0.8-2.6,1.2-4,1.5c-0.3,0.1-0.4,0.1-0.6,0.2
		L75,11.2c2.9-0.4,6.1-2.5,7.6-4.9L83.4,7c-0.2,0.1-0.4,0.3-0.7,0.6c-0.9,0.9-1.4,1.4-2.1,1.8V14.9z"/>
	<path class="st0" d="M90.6,8.5c0,0-0.1-0.1-0.3-0.4c-1.1-1.2-3.1-2.7-3.9-3l0.4-0.6C87,4.7,87,4.7,87.6,5c1,0.5,2.4,1.4,3.2,2.1
		c0.2,0.2,0.3,0.3,0.5,0.4L90.6,8.5z M86.8,14.1c0.1,0,0.2,0,0.3,0c1.3,0,3.5-0.6,4.9-1.3c1.6-0.8,3-2,3.9-3.6
		c0.5-0.8,0.6-1.1,1-2.2l0-0.1l0-0.1l0.7,0.3c-0.2,0.3-0.2,0.4-0.4,0.9c-1.4,4.1-4.3,6.3-9.2,7.1c-0.4,0.1-0.6,0.1-0.8,0.2
		L86.8,14.1z"/>
	<path class="st0" d="M110.8,6.4c-0.9,4.8-3.7,7.9-8.3,9.1c-0.3,0.1-0.4,0.1-0.7,0.2l-0.3-0.7c1.6-0.1,3.7-1.2,5.2-2.6
		c1.6-1.5,2.7-3.7,3-6.1h-5.3c-0.8,1.6-2,2.7-3.8,3.6c-0.3,0.1-0.5,0.3-0.6,0.4l-0.4-0.6c1.1-0.4,2.2-1.3,3.1-2.6
		c0.7-1,1.4-2.6,1.5-3.7l1.2,0.3c-0.1,0.2-0.2,0.4-0.3,0.8c-0.1,0.3-0.2,0.6-0.4,1.1h6.2L110.8,6.4z M110.3,2.9v1.9h-0.7V2.9H110.3z
		 M111.9,2.9v1.9h-0.7V2.9H111.9z"/>
</g>
</svg>
