<?xml version="1.0" encoding="utf-8"?>
<!-- Generator: Adobe Illustrator 25.0.0, SVG Export Plug-In . SVG Version: 6.00 Build 0)  -->
<svg version="1.1" id="レイヤー_1" xmlns="http://www.w3.org/2000/svg" xmlns:xlink="http://www.w3.org/1999/xlink" x="0px"
	 y="0px" viewBox="0 0 113.3 18.8" style="enable-background:new 0 0 113.3 18.8;" xml:space="preserve">
<style type="text/css">
	.st0{fill:#FFFFFF;}
</style>
<g>
	<path class="st0" d="M16.2,4.7c0.4,0,0.9,0,1.2,0.1c0.4,0.1,0.7,0.2,1,0.4v1.2c-0.4-0.2-0.8-0.3-1.1-0.3c-0.3-0.1-0.7-0.1-1-0.1
		c-0.4,0-0.7,0.1-1.1,0.2s-0.7,0.3-1,0.6s-0.5,0.6-0.7,1.1s-0.3,1-0.3,1.7c0,0.5,0.1,0.9,0.2,1.3c0.1,0.4,0.3,0.8,0.6,1.1
		c0.3,0.3,0.6,0.5,1,0.7c0.4,0.2,0.8,0.3,1.3,0.3c0.4,0,0.7,0,1.1-0.1c0.4-0.1,0.7-0.2,1.1-0.3v1.2c-0.1,0.1-0.2,0.1-0.4,0.2
		c-0.2,0.1-0.4,0.1-0.6,0.2c-0.2,0-0.4,0.1-0.7,0.1c-0.2,0-0.5,0-0.7,0c-0.6,0-1.2-0.1-1.7-0.3s-1-0.5-1.4-0.8
		c-0.4-0.4-0.7-0.9-1-1.4c-0.2-0.6-0.4-1.3-0.4-2.1c0-0.6,0.1-1.1,0.2-1.6c0.1-0.5,0.3-0.9,0.5-1.2c0.2-0.4,0.5-0.7,0.8-0.9
		c0.3-0.3,0.6-0.5,0.9-0.6c0.3-0.2,0.7-0.3,1-0.4C15.5,4.7,15.8,4.7,16.2,4.7z"/>
	<path class="st0" d="M29.6,9.4c0,0.7-0.1,1.3-0.3,1.9c-0.2,0.6-0.5,1.1-0.9,1.5c-0.4,0.4-0.8,0.7-1.3,1c-0.5,0.2-1.1,0.3-1.8,0.3
		c-0.7,0-1.3-0.1-1.8-0.3c-0.5-0.2-1-0.5-1.3-1c-0.4-0.4-0.7-0.9-0.8-1.5c-0.2-0.6-0.3-1.2-0.3-1.9c0-0.7,0.1-1.4,0.3-1.9
		c0.2-0.6,0.5-1.1,0.9-1.5s0.8-0.7,1.3-1s1.1-0.3,1.8-0.3c0.7,0,1.3,0.1,1.8,0.3c0.5,0.2,1,0.5,1.3,1s0.6,0.9,0.8,1.5
		S29.6,8.7,29.6,9.4z M28.1,9.4c0-0.6-0.1-1-0.2-1.5c-0.1-0.4-0.3-0.8-0.6-1.1c-0.2-0.3-0.5-0.5-0.9-0.7c-0.3-0.2-0.7-0.2-1.1-0.2
		c-0.4,0-0.8,0.1-1.1,0.2c-0.3,0.2-0.6,0.4-0.9,0.7c-0.2,0.3-0.4,0.7-0.6,1.1c-0.1,0.4-0.2,0.9-0.2,1.5c0,0.5,0.1,1,0.2,1.5
		c0.1,0.4,0.3,0.8,0.6,1.1s0.5,0.5,0.9,0.7c0.3,0.2,0.7,0.2,1.1,0.2c0.4,0,0.8-0.1,1.1-0.2c0.3-0.2,0.6-0.4,0.9-0.7s0.4-0.7,0.6-1.1
		C28,10.4,28.1,9.9,28.1,9.4z"/>
	<path class="st0" d="M34.1,6.1L34.1,6.1c0.2-0.2,0.4-0.4,0.6-0.6c0.2-0.2,0.4-0.3,0.7-0.5c0.2-0.1,0.5-0.2,0.8-0.3
		c0.3-0.1,0.6-0.1,1-0.1c0.4,0,0.8,0.1,1.2,0.2c0.4,0.1,0.7,0.3,0.9,0.5c0.3,0.3,0.5,0.6,0.6,1c0.2,0.4,0.2,0.9,0.2,1.5v6h-1.5V8.1
		c0-0.8-0.2-1.3-0.4-1.7c-0.3-0.3-0.7-0.5-1.3-0.5c-0.5,0-1,0.1-1.5,0.4c-0.5,0.3-0.9,0.7-1.2,1.2v6.4h-1.5v-9h1.1L34.1,6.1z"/>
	<path class="st0" d="M44.7,7.3c0,0.2,0.1,0.4,0.2,0.6c0.1,0.2,0.2,0.3,0.4,0.4c0.2,0.1,0.4,0.2,0.6,0.2c0.2,0.1,0.5,0.1,0.7,0.2
		c0.3,0.1,0.7,0.2,1,0.3c0.3,0.1,0.6,0.2,0.8,0.4s0.5,0.4,0.6,0.7c0.2,0.3,0.2,0.7,0.2,1.2c0,0.5-0.1,0.9-0.3,1.2
		c-0.2,0.4-0.4,0.6-0.7,0.9c-0.3,0.2-0.7,0.4-1.2,0.5c-0.4,0.1-0.9,0.2-1.5,0.2c-0.3,0-0.6,0-0.9-0.1c-0.3,0-0.5-0.1-0.7-0.1
		c-0.2-0.1-0.4-0.1-0.5-0.2c-0.1-0.1-0.3-0.1-0.4-0.2v-1.2c0.4,0.2,0.7,0.3,1.1,0.4c0.4,0.1,0.8,0.1,1.2,0.1c0.3,0,0.7,0,0.9-0.1
		c0.3-0.1,0.5-0.2,0.7-0.3c0.2-0.1,0.4-0.3,0.5-0.5c0.1-0.2,0.2-0.4,0.2-0.6c0-0.3,0-0.5-0.1-0.6c-0.1-0.2-0.2-0.3-0.4-0.4
		c-0.2-0.1-0.4-0.2-0.6-0.3s-0.5-0.1-0.7-0.2c-0.3-0.1-0.6-0.2-1-0.2s-0.6-0.2-0.9-0.4c-0.3-0.2-0.5-0.4-0.6-0.7
		c-0.2-0.3-0.2-0.7-0.2-1.1c0-0.5,0.1-0.9,0.3-1.2s0.4-0.6,0.7-0.9c0.3-0.2,0.6-0.4,1-0.5c0.4-0.1,0.8-0.2,1.2-0.2
		c0.5,0,1,0,1.4,0.1c0.4,0.1,0.8,0.2,1.2,0.4v1.2c-0.4-0.1-0.7-0.3-1.1-0.4S47,5.9,46.6,5.9c-0.3,0-0.6,0-0.9,0.1s-0.4,0.2-0.6,0.3
		c-0.2,0.1-0.3,0.3-0.3,0.4S44.7,7.1,44.7,7.3z"/>
	<path class="st0" d="M55.9,14.1c-0.5,0-0.9-0.1-1.3-0.2s-0.7-0.2-1-0.4c-0.3-0.2-0.5-0.4-0.7-0.7c-0.2-0.3-0.4-0.5-0.5-0.8
		c-0.1-0.2-0.2-0.5-0.2-0.7s-0.1-0.6-0.1-0.9V4.9h1.5v5.5c0,0.5,0.1,0.9,0.2,1.2c0.2,0.4,0.4,0.7,0.7,0.9c0.3,0.2,0.8,0.3,1.3,0.3
		c0.6,0,1-0.1,1.3-0.4c0.3-0.2,0.6-0.6,0.7-1c0.1-0.3,0.2-0.7,0.2-1.1V4.9h1.5v5.5c0,0.3,0,0.6-0.1,0.8c0,0.3-0.1,0.5-0.2,0.7
		c-0.1,0.3-0.3,0.6-0.5,0.9c-0.2,0.3-0.4,0.5-0.7,0.7c-0.3,0.2-0.6,0.3-1,0.4C56.8,14.1,56.3,14.1,55.9,14.1z"/>
	<path class="st0" d="M63.2,13.9V0.2h1.5v13.7H63.2z"/>
	<path class="st0" d="M73.1,13.9C73,14,72.8,14,72.5,14c-0.3,0-0.6,0.1-0.9,0.1c-0.5,0-0.9-0.1-1.2-0.2c-0.3-0.1-0.6-0.3-0.9-0.5
		c-0.2-0.2-0.4-0.5-0.5-0.8c-0.1-0.3-0.2-0.7-0.2-1V6.2h-1.7V4.9h1.7V2.4h1.5v2.5H73v1.3h-2.7v5.2c0,0.2,0,0.4,0.1,0.6
		c0.1,0.2,0.2,0.3,0.3,0.5c0.1,0.1,0.3,0.2,0.5,0.3c0.2,0.1,0.4,0.1,0.7,0.1c0.2,0,0.4,0,0.6,0c0.2,0,0.4-0.1,0.6-0.1V13.9z"/>
	<path class="st0" d="M75.9,2.8V1.2h1.5v1.6H75.9z M76,13.9v-9h1.5v9H76z"/>
	<path class="st0" d="M82.6,6.1L82.6,6.1c0.2-0.2,0.4-0.4,0.6-0.6c0.2-0.2,0.4-0.3,0.7-0.5C84,5,84.3,4.8,84.6,4.8
		c0.3-0.1,0.6-0.1,1-0.1c0.4,0,0.8,0.1,1.2,0.2c0.4,0.1,0.7,0.3,0.9,0.5c0.3,0.3,0.5,0.6,0.6,1c0.2,0.4,0.2,0.9,0.2,1.5v6H87V8.1
		c0-0.8-0.2-1.3-0.5-1.7c-0.3-0.3-0.7-0.5-1.3-0.5c-0.5,0-1,0.1-1.5,0.4c-0.5,0.3-0.9,0.7-1.2,1.2v6.4h-1.5v-9h1.1L82.6,6.1z"/>
	<path class="st0" d="M95.6,4.7c0.4,0,0.7,0.1,1,0.2c0.3,0.1,0.5,0.2,0.7,0.4c0.2,0.1,0.4,0.3,0.5,0.4c0.1,0.1,0.2,0.2,0.3,0.3h0
		l0.3-1h1.1v9.5c0,0.7-0.1,1.3-0.3,1.8c-0.2,0.5-0.5,0.9-1,1.3c-0.4,0.3-0.9,0.6-1.5,0.8c-0.6,0.2-1.2,0.3-1.9,0.3
		c-0.6,0-1.1-0.1-1.6-0.2c-0.5-0.1-0.8-0.2-1.1-0.4v-1.2c0.2,0.1,0.4,0.2,0.6,0.2c0.2,0.1,0.4,0.1,0.6,0.2c0.2,0,0.4,0.1,0.7,0.1
		c0.2,0,0.5,0,0.7,0c1.1,0,1.9-0.2,2.4-0.7c0.6-0.5,0.8-1.2,0.8-2.3v-1.2h0c-0.3,0.4-0.7,0.6-1.1,0.8c-0.4,0.2-0.9,0.3-1.5,0.3
		c-0.3,0-0.5,0-0.8-0.1c-0.3-0.1-0.6-0.2-0.9-0.3c-0.3-0.1-0.6-0.3-0.8-0.5c-0.3-0.2-0.5-0.5-0.7-0.8c-0.2-0.3-0.4-0.7-0.5-1.2
		c-0.1-0.5-0.2-1-0.2-1.6c0-0.8,0.1-1.6,0.3-2.2s0.5-1.1,0.9-1.5c0.4-0.4,0.8-0.7,1.3-0.9C94.6,4.8,95.1,4.7,95.6,4.7z M93.1,9.4
		c0,0.7,0.1,1.3,0.3,1.7c0.2,0.4,0.4,0.8,0.6,1c0.3,0.2,0.5,0.4,0.9,0.5c0.3,0.1,0.6,0.1,0.9,0.1c0.5,0,0.9-0.1,1.3-0.3
		s0.7-0.4,1.1-0.7V7.1C98,7,97.9,6.9,97.8,6.8c-0.1-0.1-0.3-0.3-0.5-0.4c-0.2-0.1-0.4-0.2-0.7-0.3c-0.2-0.1-0.5-0.1-0.8-0.1
		c-0.4,0-0.8,0.1-1.1,0.3c-0.3,0.2-0.6,0.4-0.8,0.7c-0.2,0.3-0.4,0.7-0.5,1.1C93.2,8.4,93.1,8.9,93.1,9.4z"/>
</g>
</svg>
