<?xml version="1.0" encoding="utf-8"?>
<!-- Generator: Adobe Illustrator 25.0.0, SVG Export Plug-In . SVG Version: 6.00 Build 0)  -->
<svg version="1.1" id="レイヤー_1" xmlns="http://www.w3.org/2000/svg" xmlns:xlink="http://www.w3.org/1999/xlink" x="0px"
	 y="0px" viewBox="0 0 164.9 23" style="enable-background:new 0 0 164.9 23;" xml:space="preserve">
<style type="text/css">
	.st0{fill:#FFFFFF;}
</style>
<g>
	<path class="st0" d="M17.2,19.4L17,21.5c-1.2,0.4-2.5,0.5-3.9,0.5c-3.4,0-5.9-0.9-7.6-2.8S3,15.2,3,12.6C3,9.8,4,7.4,5.8,5.4
		s4.4-3,7.6-3c0.9,0,1.8,0.1,2.8,0.4l-0.4,2.3c-1.1-0.4-2.1-0.5-3-0.5c-2.4,0-4.2,0.7-5.4,2.2S5.6,10,5.6,12.1c0,2.2,0.7,4,2.1,5.6
		s3.3,2.3,5.8,2.3C14.5,20,15.7,19.8,17.2,19.4z"/>
	<path class="st0" d="M35.2,14.3c0,2.5-0.7,4.5-2.2,5.9s-3.1,2.1-5.1,2.1c-1.8,0-3.4-0.6-4.7-1.9s-2-3-2-5.2c0-2.5,0.7-4.5,2.2-5.9
		s3.1-2.1,5.1-2.1c1.8,0,3.4,0.6,4.7,1.9S35.2,12,35.2,14.3z M32.7,14.8c0-1.5-0.4-2.9-1.1-4.1S29.7,9,28.3,9
		c-1.4,0-2.5,0.6-3.2,1.7s-1.1,2.4-1.1,3.9c0,1.5,0.4,2.9,1.1,4.1s1.9,1.8,3.3,1.8c1.4,0,2.5-0.6,3.2-1.7S32.7,16.3,32.7,14.8z"/>
	<path class="st0" d="M52.9,21.7h-2.7c0.2-2.6,0.3-5.4,0.3-8.4c0-1.5-0.3-2.5-0.9-3.1S48.1,9.4,47,9.4c-1.4,0-2.7,0.5-3.8,1.5
		c0,3.3,0,6.9,0.1,10.8h-2.7c0.2-3.3,0.2-5.7,0.2-7.2c0-2.3-0.2-4.5-0.6-6.6l2.6-0.4L43,9.3h0.1c1.4-1.3,3-2,4.6-2
		c1.6,0,2.9,0.4,3.8,1.1s1.3,2,1.3,3.8c0,0.2,0,0.6,0,1.1c0,0.5,0,0.9,0,1.1C52.8,16,52.8,18.5,52.9,21.7z"/>
	<path class="st0" d="M66.6,19.7l-0.2,1.9c-0.8,0.3-1.5,0.4-2.2,0.4c-1.8,0-3-0.4-3.6-1.3s-1-2.5-1-4.8c0-1.5,0-3.4,0-5.8
		c-0.5,0-1.4,0-2.4,0.1L57.4,8c0.9,0.1,1.8,0.1,2.5,0.1c0-0.6,0-2,0.1-4.2l2.3-0.2C62.1,5.7,62,7.2,62,8.1c1,0,2.4,0,4.2-0.1
		l-0.1,2.2C64.4,10.1,63,10,61.9,10c0,1.5,0,3.1,0,5c0,2,0.2,3.3,0.6,4s1.2,1,2.4,1C65.3,20,65.8,19.9,66.6,19.7z"/>
	<path class="st0" d="M80,7.8l-0.7,2.3c-0.8-0.3-1.5-0.5-2.1-0.5c-1.8,0-3,0.9-3.6,2.6c0,4.5,0,7.6,0.1,9.4h-2.6
		c0.2-3.1,0.2-5.5,0.2-7.2c0-2.3-0.2-4.5-0.7-6.6l2.6-0.4c0.2,1.1,0.3,1.8,0.3,2.2h0.1c1.1-1.6,2.3-2.3,3.7-2.3
		C78.1,7.3,79,7.5,80,7.8z"/>
	<path class="st0" d="M86.3,21.7h-2.7c0.1-2,0.2-4.2,0.2-6.7c0-2.8-0.2-5.2-0.5-7.1l2.9-0.4c-0.1,2-0.2,4.5-0.2,7.5
		C86.1,17.3,86.2,19.6,86.3,21.7z M86.9,3.4c0,0.5-0.2,0.9-0.5,1.3s-0.8,0.5-1.4,0.5c-0.5,0-0.9-0.2-1.2-0.5
		c-0.3-0.3-0.4-0.7-0.4-1.1c0-0.5,0.2-0.9,0.5-1.3s0.8-0.5,1.4-0.5c0.5,0,0.9,0.2,1.1,0.5C86.8,2.6,86.9,3,86.9,3.4z"/>
	<path class="st0" d="M105.4,14.2c0,2.1-0.6,4-1.8,5.6s-2.9,2.4-5,2.4c-1.8,0-3-0.3-3.7-1h-0.1l-0.4,0.6h-2.2
		c0.1-3.4,0.2-7,0.2-10.9c0-3.5-0.2-6.8-0.5-9.7l2.9-0.1c-0.1,1.7-0.1,4.3-0.1,8h0.1c1-1.1,2.5-1.7,4.6-1.7c1.8,0,3.3,0.7,4.4,2
		C104.8,10.6,105.4,12.3,105.4,14.2z M102.8,14.5c0-1.5-0.4-2.7-1.2-3.7s-1.8-1.5-3.2-1.5c-1.8,0-3,0.5-3.8,1.6
		c0,3.5,0.1,6.3,0.2,8.5c0.8,0.7,1.8,1,3.1,1c1.6,0,2.8-0.6,3.6-1.7S102.8,16.1,102.8,14.5z"/>
	<path class="st0" d="M123,21.7l-2.3,0.1c-0.1-0.5-0.2-1-0.2-1.3h-0.1c-1.3,1.1-2.9,1.6-4.7,1.6c-1.7,0-2.9-0.4-3.7-1.2
		c-0.8-0.8-1.1-2.5-1.1-4.9c0-0.4,0-0.9,0-1.6s0-1.2,0-1.4c0-1.4-0.1-3.1-0.2-5.1l2.7-0.1c-0.1,1.9-0.2,3.5-0.2,4.8
		c0,3.1,0.2,5.1,0.6,6c0.4,0.9,1.3,1.4,2.7,1.4c1.6,0,2.9-0.4,3.9-1.2c0-5.4,0-9.1-0.1-11l2.6-0.1c-0.1,1.8-0.1,4.4-0.1,7.6
		C122.6,17.4,122.7,19.6,123,21.7z"/>
	<path class="st0" d="M136.6,19.7l-0.2,1.9c-0.8,0.3-1.5,0.4-2.2,0.4c-1.8,0-3-0.4-3.6-1.3s-1-2.5-1-4.8c0-1.5,0-3.4,0-5.8
		c-0.5,0-1.4,0-2.4,0.1l0.1-2.1c0.9,0.1,1.8,0.1,2.5,0.1c0-0.6,0-2,0.1-4.2l2.3-0.2c-0.2,2.1-0.2,3.5-0.2,4.4c1,0,2.4,0,4.2-0.1
		l-0.1,2.2c-1.8-0.1-3.2-0.1-4.2-0.1c0,1.5,0,3.1,0,5c0,2,0.2,3.3,0.6,4c0.4,0.6,1.2,1,2.4,1C135.3,20,135.8,19.9,136.6,19.7z"/>
	<path class="st0" d="M153.2,13.1c0,0.4,0,1-0.1,1.7L143.1,15c0.1,1.4,0.6,2.6,1.7,3.6s2.3,1.4,4,1.4c1.5,0,2.9-0.2,4.2-0.5
		l-0.2,2.1c-1,0.4-2.3,0.6-4.1,0.6c-2.5,0-4.5-0.7-5.8-2.1c-1.3-1.4-2-3.1-2-5.1c0-2.1,0.6-4,1.8-5.5c1.2-1.5,2.8-2.3,4.9-2.3
		c1.9,0,3.3,0.6,4.3,1.7C152.7,9.9,153.2,11.3,153.2,13.1z M150.7,13.1c0-2.7-1.1-4.1-3.4-4.1c-2.3,0-3.7,1.4-4.1,4.3L150.7,13.1z"
		/>
	<path class="st0" d="M162.2,19.5c0,0.6-0.2,1.1-0.6,1.5s-0.9,0.7-1.6,0.7c-0.6,0-1-0.2-1.3-0.6c-0.3-0.4-0.5-0.8-0.5-1.4
		c0-0.6,0.2-1.1,0.6-1.5s0.9-0.6,1.6-0.6c0.6,0,1,0.2,1.3,0.5C162.1,18.6,162.2,19,162.2,19.5z"/>
</g>
</svg>
