<?xml version="1.0" encoding="utf-8"?>
<!-- Generator: Adobe Illustrator 25.0.0, SVG Export Plug-In . SVG Version: 6.00 Build 0)  -->
<svg version="1.1" id="レイヤー_1" xmlns="http://www.w3.org/2000/svg" xmlns:xlink="http://www.w3.org/1999/xlink" x="0px"
	 y="0px" viewBox="0 0 179.8 18.8" style="enable-background:new 0 0 179.8 18.8;" xml:space="preserve">
<style type="text/css">
	.st0{fill:#FFFFFF;}
</style>
<g>
	<path class="st0" d="M5.7,4.6c0.4,0,0.8,0,1.2,0.1c0.4,0.1,0.7,0.2,1,0.4v1.2C7.6,6.2,7.2,6.1,6.9,6c-0.3-0.1-0.7-0.1-1-0.1
		C5.5,5.9,5.2,6,4.8,6.1C4.4,6.2,4.1,6.4,3.9,6.7C3.6,6.9,3.4,7.3,3.2,7.7C3,8.2,2.9,8.7,2.9,9.4c0,0.5,0.1,0.9,0.2,1.3
		c0.1,0.4,0.3,0.8,0.6,1c0.3,0.3,0.6,0.5,0.9,0.7c0.4,0.2,0.8,0.2,1.3,0.2c0.4,0,0.7,0,1.1-0.1c0.4-0.1,0.7-0.2,1.1-0.3v1.2
		c-0.1,0.1-0.2,0.1-0.4,0.2c-0.2,0.1-0.4,0.1-0.6,0.2c-0.2,0-0.4,0.1-0.6,0.1c-0.2,0-0.5,0-0.7,0c-0.6,0-1.2-0.1-1.7-0.3
		c-0.5-0.2-1-0.5-1.4-0.8C2.3,12.5,2,12,1.8,11.4c-0.2-0.6-0.3-1.2-0.3-2c0-0.6,0.1-1.1,0.2-1.6C1.7,7.4,1.9,7,2.1,6.6
		c0.2-0.4,0.5-0.7,0.7-0.9c0.3-0.2,0.6-0.4,0.9-0.6c0.3-0.2,0.6-0.3,1-0.3C5.1,4.7,5.4,4.6,5.7,4.6z"/>
	<path class="st0" d="M15.9,6h-0.1c-0.3,0-0.7,0-1,0.1c-0.3,0.1-0.6,0.2-0.9,0.3c-0.3,0.1-0.5,0.3-0.8,0.5c-0.2,0.2-0.4,0.4-0.6,0.7
		v6.1h-1.4V4.9h1.1l0.3,1.4h0C12.6,6,12.8,5.8,13,5.6c0.2-0.2,0.4-0.4,0.7-0.5s0.5-0.3,0.9-0.3c0.3-0.1,0.6-0.1,1-0.1
		c0.1,0,0.1,0,0.2,0c0.1,0,0.1,0,0.2,0V6z"/>
	<path class="st0" d="M22.4,12.7c0.5,0,0.9,0,1.3-0.1c0.4-0.1,0.8-0.2,1.2-0.3v1.2c-0.3,0.2-0.7,0.3-1.2,0.4s-1,0.1-1.5,0.1
		c-0.6,0-1.2-0.1-1.8-0.2c-0.6-0.2-1-0.4-1.4-0.8c-0.4-0.4-0.7-0.8-1-1.4c-0.2-0.6-0.3-1.3-0.3-2.1c0-0.8,0.1-1.5,0.3-2.1
		c0.2-0.6,0.5-1.1,0.9-1.5c0.4-0.4,0.8-0.7,1.3-0.9c0.5-0.2,1-0.3,1.5-0.3c0.5,0,1,0.1,1.4,0.2c0.4,0.2,0.8,0.4,1.1,0.8
		S24.8,6.5,25,7s0.3,1.2,0.3,2c0,0.1,0,0.1,0,0.2s0,0.2,0,0.4h-6.1c0,0.6,0.1,1,0.3,1.4c0.2,0.4,0.4,0.7,0.7,1
		c0.3,0.2,0.6,0.4,1,0.5C21.6,12.6,22,12.7,22.4,12.7z M21.7,5.9c-0.3,0-0.6,0.1-0.9,0.2c-0.3,0.1-0.5,0.3-0.7,0.5s-0.4,0.5-0.5,0.8
		c-0.1,0.3-0.2,0.6-0.2,1h4.5c0-0.3,0-0.7-0.1-1c-0.1-0.3-0.2-0.6-0.4-0.8c-0.2-0.2-0.4-0.4-0.6-0.5C22.3,5.9,22,5.9,21.7,5.9z"/>
	<path class="st0" d="M33.7,12.7L33.7,12.7c-0.2,0.1-0.3,0.3-0.5,0.4c-0.2,0.1-0.4,0.3-0.6,0.4c-0.2,0.1-0.5,0.2-0.8,0.3
		s-0.6,0.1-0.9,0.1c-0.4,0-0.8-0.1-1.2-0.2c-0.4-0.1-0.7-0.3-0.9-0.6c-0.3-0.2-0.5-0.5-0.6-0.9c-0.1-0.4-0.2-0.8-0.2-1.2
		c0-0.4,0.1-0.8,0.2-1.2c0.2-0.3,0.4-0.6,0.7-0.9c0.3-0.2,0.6-0.4,1-0.6c0.4-0.1,0.8-0.2,1.3-0.2c0.5,0,0.9,0,1.3,0.1s0.7,0.2,1,0.3
		h0V8.1c0-0.2,0-0.5,0-0.6c0-0.2-0.1-0.3-0.2-0.5c-0.2-0.3-0.4-0.5-0.8-0.7c-0.4-0.2-0.8-0.3-1.4-0.3c-0.4,0-0.9,0-1.3,0.1
		c-0.4,0.1-0.8,0.2-1.2,0.3V5.2C28.9,5.1,29.1,5,29.3,5c0.2-0.1,0.4-0.1,0.6-0.2c0.2,0,0.5-0.1,0.7-0.1c0.2,0,0.5,0,0.7,0
		c0.9,0,1.6,0.2,2.2,0.5c0.6,0.3,1,0.7,1.2,1.3C34.9,6.6,35,6.8,35,7c0,0.2,0.1,0.5,0.1,0.8v5.9h-1.2L33.7,12.7z M33.6,9.8
		c-0.3-0.1-0.6-0.1-0.9-0.2c-0.4-0.1-0.8-0.1-1.2-0.1c-0.6,0-1.1,0.1-1.4,0.4s-0.5,0.7-0.5,1.2c0,0.3,0,0.5,0.1,0.7
		c0.1,0.2,0.2,0.4,0.4,0.5s0.3,0.2,0.5,0.3c0.2,0.1,0.4,0.1,0.7,0.1c0.3,0,0.6,0,0.9-0.1s0.5-0.2,0.7-0.3c0.2-0.1,0.4-0.2,0.5-0.4
		c0.1-0.1,0.3-0.2,0.3-0.3V9.8z"/>
	<path class="st0" d="M43.3,13.7c-0.1,0-0.3,0.1-0.6,0.1c-0.3,0-0.6,0.1-0.9,0.1c-0.5,0-0.9-0.1-1.2-0.2s-0.6-0.3-0.8-0.5
		c-0.2-0.2-0.4-0.5-0.5-0.8c-0.1-0.3-0.2-0.6-0.2-1V6.1h-1.7V4.9h1.7V2.5h1.4v2.4h2.6v1.2h-2.6v5.1c0,0.2,0,0.4,0.1,0.6
		c0.1,0.2,0.2,0.3,0.3,0.5c0.1,0.1,0.3,0.2,0.5,0.3s0.4,0.1,0.7,0.1c0.2,0,0.4,0,0.6,0s0.4-0.1,0.6-0.1V13.7z"/>
	<path class="st0" d="M46.1,2.8V1.2h1.4v1.6H46.1z M46.2,13.7V4.9h1.4v8.8H46.2z"/>
	<path class="st0" d="M54.3,12.2c0.2-0.6,0.5-1.5,0.9-2.5l1.8-4.9h1.4L55,13.7h-1.5l-3.3-8.8h1.4l1.8,4.9
		C53.7,10.7,54,11.6,54.3,12.2L54.3,12.2z"/>
	<path class="st0" d="M65.1,12.7c0.5,0,0.9,0,1.3-0.1c0.4-0.1,0.8-0.2,1.2-0.3v1.2c-0.3,0.2-0.7,0.3-1.2,0.4s-1,0.1-1.5,0.1
		c-0.6,0-1.2-0.1-1.8-0.2c-0.6-0.2-1-0.4-1.4-0.8c-0.4-0.4-0.7-0.8-1-1.4c-0.2-0.6-0.3-1.3-0.3-2.1c0-0.8,0.1-1.5,0.3-2.1
		c0.2-0.6,0.5-1.1,0.9-1.5c0.4-0.4,0.8-0.7,1.3-0.9c0.5-0.2,1-0.3,1.5-0.3c0.5,0,1,0.1,1.4,0.2c0.4,0.2,0.8,0.4,1.1,0.8
		C67.2,6,67.4,6.5,67.6,7c0.2,0.6,0.3,1.2,0.3,2c0,0.1,0,0.1,0,0.2s0,0.2,0,0.4h-6.1c0,0.6,0.1,1,0.3,1.4c0.2,0.4,0.4,0.7,0.7,1
		s0.6,0.4,1,0.5C64.2,12.6,64.6,12.7,65.1,12.7z M64.3,5.9c-0.3,0-0.6,0.1-0.9,0.2s-0.5,0.3-0.7,0.5s-0.4,0.5-0.5,0.8
		c-0.1,0.3-0.2,0.6-0.2,1h4.5c0-0.3,0-0.7-0.1-1c-0.1-0.3-0.2-0.6-0.4-0.8c-0.2-0.2-0.4-0.4-0.6-0.5C64.9,5.9,64.7,5.9,64.3,5.9z"/>
	<path class="st0" d="M79,9.2c0,0.6-0.1,1.2-0.2,1.6c-0.1,0.5-0.3,0.9-0.5,1.2c-0.2,0.4-0.4,0.6-0.7,0.9c-0.3,0.2-0.5,0.4-0.8,0.6
		c-0.3,0.1-0.6,0.3-0.9,0.3c-0.3,0.1-0.6,0.1-0.8,0.1c-0.5,0-1-0.1-1.4-0.3c-0.4-0.2-0.8-0.4-1.1-0.8h0V18h-1.4V4.9h1.1l0.3,1h0
		c0.1-0.1,0.2-0.2,0.3-0.4c0.1-0.1,0.3-0.2,0.5-0.4c0.2-0.1,0.5-0.2,0.8-0.3c0.3-0.1,0.6-0.1,1-0.1c0.5,0,1,0.1,1.4,0.3
		c0.5,0.2,0.9,0.4,1.2,0.8c0.4,0.4,0.6,0.8,0.8,1.4C78.9,7.7,79,8.4,79,9.2z M77.5,9.2c0-0.5-0.1-1-0.2-1.4c-0.1-0.4-0.3-0.8-0.5-1
		c-0.2-0.3-0.5-0.5-0.8-0.7c-0.3-0.2-0.7-0.2-1.1-0.2c-0.3,0-0.6,0-0.8,0.1c-0.2,0.1-0.5,0.2-0.7,0.3c-0.2,0.1-0.4,0.3-0.5,0.4
		c-0.1,0.1-0.3,0.3-0.3,0.4v4.6c0.3,0.3,0.7,0.6,1,0.7c0.4,0.2,0.8,0.3,1.3,0.3c0.3,0,0.6-0.1,0.9-0.2c0.3-0.1,0.6-0.3,0.8-0.5
		c0.3-0.3,0.5-0.6,0.6-1.1C77.4,10.5,77.5,9.9,77.5,9.2z"/>
	<path class="st0" d="M86.9,6h-0.1c-0.3,0-0.7,0-1,0.1c-0.3,0.1-0.6,0.2-0.9,0.3c-0.3,0.1-0.5,0.3-0.8,0.5c-0.2,0.2-0.4,0.4-0.6,0.7
		v6.1h-1.4V4.9h1.1l0.3,1.4h0C83.6,6,83.8,5.8,84,5.6c0.2-0.2,0.4-0.4,0.7-0.5s0.5-0.3,0.9-0.3c0.3-0.1,0.6-0.1,1-0.1
		c0.1,0,0.1,0,0.2,0c0.1,0,0.1,0,0.2,0V6z"/>
	<path class="st0" d="M97.1,9.3c0,0.7-0.1,1.3-0.3,1.9c-0.2,0.6-0.5,1.1-0.8,1.5c-0.4,0.4-0.8,0.7-1.3,0.9c-0.5,0.2-1.1,0.3-1.7,0.3
		c-0.7,0-1.2-0.1-1.8-0.3s-1-0.5-1.3-0.9c-0.4-0.4-0.6-0.9-0.8-1.5c-0.2-0.6-0.3-1.2-0.3-1.9c0-0.7,0.1-1.3,0.3-1.9
		c0.2-0.6,0.5-1.1,0.8-1.5c0.4-0.4,0.8-0.7,1.3-0.9s1.1-0.3,1.7-0.3c0.6,0,1.2,0.1,1.8,0.3s1,0.5,1.3,0.9c0.4,0.4,0.6,0.9,0.8,1.5
		C97,8,97.1,8.6,97.1,9.3z M95.6,9.3c0-0.5-0.1-1-0.2-1.5s-0.3-0.8-0.6-1.1c-0.2-0.3-0.5-0.5-0.8-0.7c-0.3-0.2-0.7-0.2-1.1-0.2
		s-0.7,0.1-1.1,0.2c-0.3,0.2-0.6,0.4-0.8,0.7c-0.2,0.3-0.4,0.7-0.6,1.1c-0.1,0.4-0.2,0.9-0.2,1.5c0,0.5,0.1,1,0.2,1.4
		c0.1,0.4,0.3,0.8,0.6,1.1c0.2,0.3,0.5,0.5,0.9,0.7c0.3,0.2,0.7,0.2,1.1,0.2c0.4,0,0.7-0.1,1.1-0.2c0.3-0.2,0.6-0.4,0.8-0.7
		s0.4-0.6,0.6-1.1C95.5,10.3,95.6,9.8,95.6,9.3z"/>
	<path class="st0" d="M99.7,9.4c0-0.6,0.1-1.2,0.2-1.6c0.1-0.5,0.3-0.9,0.5-1.2s0.4-0.6,0.7-0.9c0.3-0.2,0.5-0.4,0.8-0.6
		s0.6-0.3,0.9-0.3c0.3-0.1,0.6-0.1,0.8-0.1c0.5,0,1,0.1,1.4,0.3c0.4,0.2,0.8,0.4,1.1,0.8h0V0.3h1.4v13.4h-1.1l-0.3-1h0
		c-0.1,0.1-0.2,0.3-0.4,0.4s-0.3,0.3-0.5,0.4s-0.4,0.2-0.7,0.3c-0.3,0.1-0.6,0.1-0.9,0.1c-0.5,0-1-0.1-1.4-0.2
		c-0.5-0.2-0.9-0.4-1.2-0.8c-0.4-0.4-0.7-0.8-0.9-1.4S99.7,10.2,99.7,9.4z M101.2,9.4c0,0.5,0.1,1,0.2,1.4c0.1,0.4,0.3,0.8,0.5,1
		c0.2,0.3,0.5,0.5,0.8,0.7c0.3,0.2,0.7,0.2,1.1,0.2c0.3,0,0.6,0,0.8-0.1c0.2-0.1,0.5-0.2,0.7-0.3c0.2-0.1,0.4-0.3,0.5-0.4
		c0.1-0.1,0.2-0.3,0.3-0.4V6.9c-0.3-0.3-0.6-0.5-1-0.7c-0.4-0.2-0.8-0.3-1.3-0.3c-0.3,0-0.6,0.1-0.9,0.2c-0.3,0.1-0.6,0.3-0.8,0.6
		c-0.3,0.3-0.5,0.6-0.6,1.1C101.3,8.1,101.2,8.7,101.2,9.4z"/>
	<path class="st0" d="M114.7,13.9c-0.5,0-0.9,0-1.2-0.1s-0.7-0.2-1-0.4c-0.3-0.2-0.5-0.4-0.7-0.6c-0.2-0.3-0.3-0.5-0.5-0.8
		c-0.1-0.2-0.1-0.5-0.2-0.7s-0.1-0.6-0.1-0.9V4.9h1.4v5.4c0,0.5,0.1,0.9,0.2,1.2c0.1,0.4,0.4,0.7,0.7,0.9c0.3,0.2,0.8,0.3,1.3,0.3
		c0.5,0,1-0.1,1.3-0.4s0.6-0.6,0.7-0.9c0.1-0.3,0.2-0.7,0.2-1.1V4.9h1.4v5.4c0,0.3,0,0.6-0.1,0.8c0,0.3-0.1,0.5-0.2,0.7
		c-0.1,0.3-0.3,0.6-0.5,0.8c-0.2,0.3-0.4,0.5-0.7,0.7s-0.6,0.3-1,0.4C115.6,13.9,115.2,13.9,114.7,13.9z"/>
	<path class="st0" d="M125.6,4.6c0.4,0,0.8,0,1.2,0.1c0.4,0.1,0.7,0.2,1,0.4v1.2c-0.4-0.1-0.7-0.3-1.1-0.3s-0.7-0.1-1-0.1
		c-0.4,0-0.7,0.1-1.1,0.2c-0.4,0.1-0.7,0.3-0.9,0.6c-0.3,0.3-0.5,0.6-0.7,1.1c-0.2,0.4-0.3,1-0.3,1.6c0,0.5,0.1,0.9,0.2,1.3
		s0.3,0.8,0.6,1c0.3,0.3,0.6,0.5,0.9,0.7c0.4,0.2,0.8,0.2,1.3,0.2c0.4,0,0.7,0,1.1-0.1c0.4-0.1,0.7-0.2,1.1-0.3v1.2
		c-0.1,0.1-0.2,0.1-0.4,0.2c-0.2,0.1-0.4,0.1-0.6,0.2c-0.2,0-0.4,0.1-0.6,0.1c-0.2,0-0.5,0-0.7,0c-0.6,0-1.2-0.1-1.7-0.3
		c-0.5-0.2-1-0.5-1.4-0.8c-0.4-0.4-0.7-0.8-0.9-1.4s-0.3-1.2-0.3-2c0-0.6,0.1-1.1,0.2-1.6c0.1-0.5,0.3-0.9,0.5-1.2s0.5-0.7,0.7-0.9
		c0.3-0.2,0.6-0.4,0.9-0.6c0.3-0.2,0.6-0.3,1-0.3C125,4.7,125.3,4.6,125.6,4.6z"/>
	<path class="st0" d="M135.2,12.7c0.5,0,0.9,0,1.3-0.1c0.4-0.1,0.8-0.2,1.2-0.3v1.2c-0.3,0.2-0.7,0.3-1.2,0.4s-1,0.1-1.5,0.1
		c-0.6,0-1.2-0.1-1.8-0.2c-0.6-0.2-1-0.4-1.4-0.8c-0.4-0.4-0.7-0.8-1-1.4c-0.2-0.6-0.3-1.3-0.3-2.1c0-0.8,0.1-1.5,0.3-2.1
		c0.2-0.6,0.5-1.1,0.9-1.5c0.4-0.4,0.8-0.7,1.3-0.9c0.5-0.2,1-0.3,1.5-0.3c0.5,0,1,0.1,1.4,0.2c0.4,0.2,0.8,0.4,1.1,0.8
		c0.3,0.4,0.6,0.8,0.7,1.4c0.2,0.6,0.3,1.2,0.3,2c0,0.1,0,0.1,0,0.2s0,0.2,0,0.4h-6.1c0,0.6,0.1,1,0.3,1.4c0.2,0.4,0.4,0.7,0.7,1
		s0.6,0.4,1,0.5C134.3,12.6,134.7,12.7,135.2,12.7z M134.4,5.9c-0.3,0-0.6,0.1-0.9,0.2s-0.5,0.3-0.7,0.5s-0.4,0.5-0.5,0.8
		c-0.1,0.3-0.2,0.6-0.2,1h4.5c0-0.3,0-0.7-0.1-1c-0.1-0.3-0.2-0.6-0.4-0.8c-0.2-0.2-0.4-0.4-0.6-0.5C135,5.9,134.7,5.9,134.4,5.9z"
		/>
</g>
</svg>
