<?xml version="1.0" encoding="utf-8"?>
<!-- Generator: Adobe Illustrator 25.0.0, SVG Export Plug-In . SVG Version: 6.00 Build 0)  -->
<svg version="1.1" id="レイヤー_1" xmlns="http://www.w3.org/2000/svg" xmlns:xlink="http://www.w3.org/1999/xlink" x="0px"
	 y="0px" viewBox="0 0 179.8 18.8" style="enable-background:new 0 0 179.8 18.8;" xml:space="preserve">
<style type="text/css">
	.st0{fill:#FFFFFF;}
</style>
<g>
	<path class="st0" d="M12.1,6.3c-0.9,4.8-3.7,7.9-8.3,9.1c-0.3,0.1-0.4,0.1-0.7,0.2L2.7,15c1.6-0.1,3.7-1.2,5.2-2.6
		c1.6-1.5,2.7-3.7,3-6.1H5.7C4.9,7.8,3.7,9,1.9,9.9c-0.3,0.2-0.5,0.3-0.6,0.4L0.9,9.7c1-0.4,2.2-1.3,3.1-2.6c0.7-1,1.4-2.6,1.5-3.7
		l1.2,0.3C6.6,4,6.5,4.2,6.4,4.6C6.3,4.9,6.2,5.2,6,5.6h6.2L12.1,6.3z"/>
	<path class="st0" d="M16.5,11.3c0-0.3,0.1-0.5,0.1-0.8V4.7c0-0.2,0-0.5-0.1-0.8h1.2c0,0.2-0.1,0.5-0.1,0.8v5.9c0,0.2,0,0.5,0.1,0.8
		h-1.2V11.3z M18.2,15.3c1.4-0.1,3.2-1.2,4.2-2.4c0.7-0.9,1-2,1-3.5V4.5c0-0.2,0-0.5-0.1-0.8h1.2c0,0.2-0.1,0.5-0.1,0.8v4.9
		c0,3.3-1.5,5.1-5.2,6.3c-0.3,0.1-0.5,0.2-0.7,0.3L18.2,15.3z"/>
	<path class="st0" d="M39.4,13.4c0.2,0,0.5,0,0.8-0.1v0.8C39.9,14,39.7,14,39.4,14H28.9c-0.2,0-0.5,0-0.7,0.1v-0.8
		c0.3,0,0.5,0.1,0.7,0.1h4.7V6.1h-3.9c-0.3,0-0.5,0-0.8,0.1V5.4c0.2,0,0.5,0.1,0.8,0.1h9c0.2,0,0.5,0,0.8-0.1v0.8
		c-0.3-0.1-0.5-0.1-0.8-0.1h-4v7.4h4.7V13.4z"/>
	<path class="st0" d="M49.7,14.9c0,0.2,0,0.5,0.1,0.8h-1.2c0-0.3,0.1-0.5,0.1-0.8V8.6c-1.5,0.8-3.1,1.5-5,2
		c-0.3,0.1-0.5,0.1-0.8,0.2l-0.3-0.6c1.9-0.3,5.1-1.8,6.9-3.3c1.2-1,2.6-2.5,2.8-3.1l0.9,0.9c-0.2,0.1-0.3,0.2-0.5,0.5
		c-0.8,1-2,2.1-3.1,2.8L49.7,14.9L49.7,14.9z"/>
	<path class="st0" d="M68.2,9c-0.3-0.1-0.5-0.1-0.8-0.1h-4.3c-0.1,3.6-1.5,5.4-5.2,6.5c-0.3,0.1-0.5,0.2-0.6,0.3L57,15
		c1.2-0.1,2.9-1,3.7-1.9C61.6,12.2,62,10.9,62,9h-5.4c-0.2,0-0.5,0-0.8,0.1V8.2c0.2,0,0.5,0.1,0.8,0.1h10.9c0.2,0,0.5,0,0.8-0.1V9
		H68.2z M66.9,5.3c-0.3,0-0.5-0.1-0.8-0.1h-8.2c-0.2,0-0.5,0-0.8,0.1V4.5c0.2,0,0.5,0.1,0.8,0.1h8.2c0.2,0,0.5,0,0.8-0.1V5.3z"/>
	<path class="st0" d="M76.2,14.8c0,0.2,0,0.6,0.1,0.8h-1c0-0.2,0.1-0.4,0.1-0.8V9.9c-1.4,0.8-2.6,1.2-4,1.5
		c-0.3,0.1-0.4,0.1-0.6,0.2L70.5,11c2.9-0.4,6.1-2.5,7.6-4.9l0.8,0.8c-0.2,0.1-0.4,0.3-0.7,0.6c-0.9,0.9-1.4,1.4-2.1,1.8L76.2,14.8
		L76.2,14.8z"/>
	<path class="st0" d="M82.8,5.9c-0.3,0-0.5,0-0.8,0.1V5.2c0.2,0,0.4,0.1,0.8,0.1h9.8c-0.4,5.6-2.9,8.6-8,9.9
		c-0.4,0.1-0.5,0.1-0.7,0.2l-0.3-0.7c1.2,0,3.6-1.1,4.7-2.2c1.7-1.4,2.8-3.8,3-6.6C91.3,5.9,82.8,5.9,82.8,5.9z M92.3,2.6v1.9h-0.7
		V2.6H92.3z M93.9,2.6v1.9h-0.7V2.6H93.9z"/>
	<path class="st0" d="M95.9,5.2c0.2,0,0.4,0.1,0.8,0.1h8.8c-0.2-0.3-0.4-0.6-0.4-1c0-0.9,0.7-1.6,1.6-1.6s1.6,0.8,1.6,1.6
		s-0.7,1.6-1.6,1.6c-0.1,0-0.2,0-0.3,0c-0.5,5.1-3,8.1-8,9.3c-0.4,0.1-0.5,0.1-0.7,0.2l-0.3-0.7c1.2,0,3.6-1.1,4.7-2.2
		c1.7-1.4,2.8-3.8,3-6.6h-8.6c-0.3,0-0.5,0-0.8,0.1V5.2H95.9z M105.5,4.3c0,0.6,0.5,1.2,1.2,1.2c0.6,0,1.1-0.5,1.1-1.2
		s-0.5-1.2-1.2-1.2S105.5,3.6,105.5,4.3z"/>
	<path class="st0" d="M110.9,5.1h10v9.2h-10V5.1z M112,5.7v8h7.9v-8H112z"/>
	<path class="st0" d="M136.6,9c-0.3-0.1-0.5-0.1-0.8-0.1h-4.3c-0.1,3.6-1.5,5.4-5.2,6.5c-0.3,0.1-0.5,0.2-0.6,0.3l-0.3-0.7
		c1.2-0.1,2.9-1,3.7-1.9c0.9-0.9,1.3-2.2,1.3-4.1H125c-0.2,0-0.5,0-0.8,0.1V8.2c0.2,0,0.5,0.1,0.8,0.1h10.9c0.2,0,0.5,0,0.8-0.1
		L136.6,9L136.6,9z M135.3,5.3c-0.3,0-0.5-0.1-0.8-0.1h-8.2c-0.2,0-0.5,0-0.8,0.1V4.5c0.2,0,0.5,0.1,0.8,0.1h8.2
		c0.2,0,0.5,0,0.8-0.1V5.3z M135.4,2.2v1.9h-0.7V2.2H135.4z M137,2.2v1.9h-0.7V2.2H137z"/>
	<path class="st0" d="M148.3,14c0.3,0,0.5,0,0.7-0.1v0.7c-0.2,0-0.4-0.1-0.7-0.1H140c-0.3,0-0.5,0-0.7,0.1v-0.7
		c0.1,0,0.4,0.1,0.7,0.1h5.4l0.5-5.6h-4.6c-0.3,0-0.5,0-0.7,0.1V7.7c0.2,0,0.5,0.1,0.7,0.1h5.6l-0.6,6.2H148.3z"/>
	<path class="st0" d="M163.5,9.8c-0.2,0-0.5-0.1-0.9-0.1h-10.1c-0.3,0-0.7,0-0.9,0.1V8.9c0.2,0,0.6,0.1,0.9,0.1h10.1
		c0.3,0,0.7,0,0.9-0.1V9.8z"/>
	<path class="st0" d="M166.7,5c0.2,0,0.5,0.1,0.8,0.1h7.5c-0.4,1.9-1.1,3.6-2.2,5.1c1.8,1.2,3.3,2.4,4.4,3.7
		c0.1,0.1,0.4,0.4,0.5,0.5l-1,0.9c-0.4-1-2.5-3.2-4.3-4.6c-1.4,1.8-3.4,3.1-6.1,4.1c-0.2,0.1-0.5,0.2-0.7,0.3l-0.3-0.7
		c0.9-0.1,2.5-0.8,3.6-1.7c2.4-1.8,4-4.2,4.7-7h-6.2c-0.3,0-0.6,0-0.8,0.1V5H166.7z"/>
</g>
</svg>
