<?xml version="1.0" encoding="utf-8"?>
<!-- Generator: Adobe Illustrator 25.0.0, SVG Export Plug-In . SVG Version: 6.00 Build 0)  -->
<svg version="1.1" id="レイヤー_1" xmlns="http://www.w3.org/2000/svg" xmlns:xlink="http://www.w3.org/1999/xlink" x="0px"
	 y="0px" viewBox="0 0 243 39" style="enable-background:new 0 0 243 39;" xml:space="preserve">
<style type="text/css">
	.st0{fill:#FFFFFF;}
</style>
<g>
	<path class="st0" d="M6.5,25.1h13.4V28H3.3V1.9h15.9v2.9H6.5v8.4h11.3V16H6.5V25.1z"/>
	<path class="st0" d="M34,16.6l5-7.1h3.3l-6.8,9.2l7,9.4h-3.3L34,20.6h-0.1L28.5,28h-3.3l7-9.5l-6.8-9.1h3.3L34,16.6L34,16.6z"/>
	<path class="st0" d="M65.2,18.5c0,1.3-0.1,2.4-0.4,3.4c-0.3,1-0.6,1.9-1,2.6c-0.4,0.7-0.9,1.4-1.5,1.9c-0.6,0.5-1.1,0.9-1.7,1.2
		c-0.6,0.3-1.2,0.5-1.8,0.7c-0.6,0.1-1.2,0.2-1.8,0.2c-1.1,0-2.1-0.2-3-0.6s-1.6-0.9-2.3-1.7h-0.1v10.8h-3V9.4h2.3l0.6,2.1h0.1
		c0.2-0.3,0.4-0.5,0.7-0.8c0.3-0.2,0.6-0.5,1.1-0.8c0.4-0.3,1-0.5,1.6-0.7C55.8,9.1,56.4,9,57.2,9c1,0,2,0.2,3,0.5
		c1,0.4,1.8,0.9,2.6,1.7c0.7,0.8,1.3,1.8,1.8,3C65,15.3,65.2,16.8,65.2,18.5z M62.1,18.5c0-1.1-0.1-2.1-0.3-2.9
		c-0.2-0.9-0.6-1.6-1-2.2c-0.5-0.6-1-1.1-1.7-1.4c-0.7-0.3-1.4-0.5-2.3-0.5c-0.6,0-1.2,0.1-1.7,0.3c-0.5,0.2-1,0.4-1.4,0.6
		c-0.4,0.3-0.8,0.5-1.1,0.8c-0.3,0.3-0.5,0.6-0.7,0.8v9.7c0.6,0.7,1.4,1.2,2.2,1.5c0.8,0.4,1.7,0.6,2.6,0.6c0.6,0,1.2-0.1,1.8-0.3
		c0.6-0.2,1.2-0.6,1.8-1.2c0.5-0.6,1-1.3,1.3-2.3C61.9,21.2,62.1,20,62.1,18.5z"/>
	<path class="st0" d="M81.6,25.9c1,0,1.9-0.1,2.7-0.2c0.8-0.2,1.7-0.4,2.5-0.7v2.5c-0.7,0.3-1.5,0.6-2.5,0.8s-2,0.3-3.1,0.3
		c-1.3,0-2.6-0.2-3.7-0.5c-1.2-0.3-2.2-0.9-3-1.6c-0.9-0.8-1.5-1.7-2-3c-0.5-1.2-0.7-2.7-0.7-4.4c0-1.7,0.2-3.2,0.7-4.4
		c0.5-1.2,1.1-2.3,1.9-3.1C75.1,10.6,76,10,77,9.6C78,9.2,79.1,9,80.2,9c1,0,2,0.2,2.9,0.5c0.9,0.3,1.7,0.9,2.3,1.6
		c0.7,0.7,1.2,1.7,1.6,2.9c0.4,1.2,0.6,2.6,0.6,4.2c0,0.2,0,0.3,0,0.4c0,0.1,0,0.4,0,0.8H74.7c0,1.2,0.2,2.2,0.5,3
		c0.4,0.8,0.8,1.5,1.5,2c0.6,0.5,1.3,0.9,2.2,1.1C79.8,25.7,80.7,25.9,81.6,25.9z M80,11.6c-0.7,0-1.3,0.1-1.9,0.4s-1.1,0.6-1.6,1.1
		c-0.4,0.5-0.8,1-1.1,1.7c-0.3,0.6-0.4,1.3-0.5,2h9.5c0-0.7-0.1-1.4-0.3-2c-0.2-0.6-0.5-1.2-0.8-1.7c-0.4-0.5-0.8-0.8-1.4-1.1
		C81.4,11.7,80.7,11.6,80,11.6z"/>
	<path class="st0" d="M105.7,11.9h-0.2c-0.7,0-1.4,0.1-2.1,0.2c-0.7,0.1-1.3,0.3-1.9,0.6c-0.6,0.3-1.2,0.6-1.6,1s-0.9,0.9-1.2,1.4
		V28h-3V9.4h2.3l0.6,2.9h0.1c0.3-0.5,0.7-0.9,1.1-1.3c0.4-0.4,0.9-0.8,1.5-1.1s1.1-0.6,1.8-0.7c0.7-0.2,1.3-0.3,2.1-0.3
		c0.1,0,0.3,0,0.4,0c0.1,0,0.3,0,0.4,0V11.9z"/>
	<path class="st0" d="M111.8,5.1V1.8h3v3.4H111.8z M111.9,28V9.4h3V28H111.9z"/>
	<path class="st0" d="M132.6,25.9c1,0,1.9-0.1,2.7-0.2c0.8-0.2,1.7-0.4,2.5-0.7v2.5c-0.7,0.3-1.5,0.6-2.5,0.8s-2,0.3-3.1,0.3
		c-1.3,0-2.6-0.2-3.7-0.5s-2.2-0.9-3-1.6c-0.9-0.8-1.5-1.7-2-3c-0.5-1.2-0.7-2.7-0.7-4.4c0-1.7,0.2-3.2,0.7-4.4
		c0.5-1.2,1.1-2.3,1.9-3.1c0.8-0.8,1.7-1.5,2.7-1.9c1-0.4,2.1-0.6,3.2-0.6c1,0,2,0.2,2.9,0.5c0.9,0.3,1.7,0.9,2.3,1.6
		s1.2,1.7,1.6,2.9c0.4,1.2,0.6,2.6,0.6,4.2c0,0.2,0,0.3,0,0.4c0,0.1,0,0.4,0,0.8h-12.8c0,1.2,0.2,2.2,0.5,3c0.4,0.8,0.8,1.5,1.5,2
		c0.6,0.5,1.3,0.9,2.2,1.1S131.6,25.9,132.6,25.9z M131,11.6c-0.7,0-1.3,0.1-1.9,0.4s-1.1,0.6-1.6,1.1s-0.8,1-1.1,1.7
		c-0.3,0.6-0.4,1.3-0.5,2h9.5c0-0.7-0.1-1.4-0.3-2c-0.2-0.6-0.5-1.2-0.8-1.7s-0.8-0.8-1.4-1.1C132.3,11.7,131.7,11.6,131,11.6z"/>
	<path class="st0" d="M149.4,12L149.4,12c0.4-0.4,0.8-0.8,1.2-1.2s0.9-0.7,1.4-1c0.5-0.3,1.1-0.5,1.7-0.7s1.3-0.2,2-0.2
		c0.8,0,1.6,0.1,2.4,0.4s1.4,0.6,1.9,1.1c0.5,0.5,1,1.2,1.3,2s0.5,1.9,0.5,3.1V28h-3V16.1c0-1.6-0.3-2.8-0.9-3.5s-1.5-1.1-2.7-1.1
		c-1,0-2.1,0.3-3,0.9c-1,0.6-1.8,1.4-2.5,2.4V28h-3V9.4h2.3L149.4,12z"/>
	<path class="st0" d="M178.4,9c0.9,0,1.8,0.1,2.6,0.3c0.8,0.2,1.5,0.5,2.1,0.8v2.5c-0.8-0.3-1.6-0.5-2.3-0.7s-1.4-0.2-2.1-0.2
		c-0.8,0-1.5,0.1-2.2,0.4c-0.7,0.2-1.4,0.7-2,1.2s-1.1,1.3-1.4,2.2c-0.4,0.9-0.5,2.1-0.5,3.5c0,1,0.1,1.9,0.4,2.8
		c0.3,0.8,0.7,1.6,1.2,2.2c0.5,0.6,1.2,1.1,2,1.4c0.8,0.3,1.7,0.5,2.8,0.5c0.8,0,1.5-0.1,2.3-0.2c0.8-0.2,1.5-0.4,2.2-0.7v2.5
		c-0.2,0.1-0.5,0.3-0.9,0.4s-0.8,0.2-1.2,0.3s-0.9,0.2-1.4,0.2s-1,0.1-1.4,0.1c-1.3,0-2.4-0.2-3.5-0.6s-2.1-1-2.9-1.7s-1.5-1.8-2-3
		c-0.5-1.2-0.7-2.6-0.7-4.3c0-1.2,0.1-2.3,0.4-3.3c0.3-1,0.6-1.8,1-2.6s1-1.4,1.6-1.9c0.6-0.5,1.2-0.9,1.9-1.3s1.4-0.6,2.1-0.7
		C177,9,177.7,9,178.4,9z"/>
	<path class="st0" d="M199.5,25.9c1,0,1.9-0.1,2.7-0.2c0.8-0.2,1.7-0.4,2.5-0.7v2.5c-0.7,0.3-1.5,0.6-2.5,0.8s-2,0.3-3.1,0.3
		c-1.3,0-2.6-0.2-3.7-0.5s-2.2-0.9-3-1.6c-0.9-0.8-1.5-1.7-2-3c-0.5-1.2-0.7-2.7-0.7-4.4c0-1.7,0.2-3.2,0.7-4.4
		c0.5-1.2,1.1-2.3,1.9-3.1c0.8-0.8,1.7-1.5,2.7-1.9c1-0.4,2.1-0.6,3.2-0.6c1,0,2,0.2,2.9,0.5c0.9,0.3,1.7,0.9,2.3,1.6
		s1.2,1.7,1.6,2.9c0.4,1.2,0.6,2.6,0.6,4.2c0,0.2,0,0.3,0,0.4c0,0.1,0,0.4,0,0.8h-12.8c0,1.2,0.2,2.2,0.5,3c0.4,0.8,0.8,1.5,1.5,2
		c0.6,0.5,1.3,0.9,2.2,1.1S198.6,25.9,199.5,25.9z M197.9,11.6c-0.7,0-1.3,0.1-1.9,0.4s-1.1,0.6-1.6,1.1s-0.8,1-1.1,1.7
		c-0.3,0.6-0.4,1.3-0.5,2h9.5c0-0.7-0.1-1.4-0.3-2c-0.2-0.6-0.5-1.2-0.8-1.7s-0.8-0.8-1.4-1.1C199.3,11.7,198.6,11.6,197.9,11.6z"/>
	<path class="st0" d="M213.9,28v-3.8h3.7V28H213.9z"/>
</g>
</svg>
