<svg xmlns="http://www.w3.org/2000/svg" viewBox="0 0 159.8 14.6"><g data-name="レイヤー 2"><path d="M0 14.26c0-.14.07-.31.11-.51S.17 13.3.2 13s0-.66 0-1.07V1.6C.2 1.3.14 1 .11.84S0 .47 0 .33h2.33c0 .14-.07.31-.11.51s-.06.45-.09.76 0 .66 0 1.07V13c0 .3.06.55.09.75s.07.37.11.51H0zM11.76.29L21.81 11V2.67c0-.45 0-.77-.05-1.07s-.06-.56-.1-.76a4 4 0 00-.11-.51h1.74a4 4 0 00-.11.51c0 .2-.06.45-.09.76s0 .66-.05 1.07 0 .9 0 1.45v10.37h-.35L12.6 3.8v8.13c0 .45 0 .77.05 1.07s.06.55.09.75a4 4 0 00.11.51h-1.72a4 4 0 00.11-.51c0-.2.07-.45.1-.75s0-.66.05-1.07 0-.9 0-1.45V2.67c0-.45 0-.77-.05-1.07s-.06-.56-.1-.76a4 4 0 00-.11-.51zm25.97 2.23h-.22a2.37 2.37 0 00-.25-.52 2 2 0 00-.45-.53 2.25 2.25 0 00-.67-.42 2.38 2.38 0 00-.93-.15 2.48 2.48 0 00-.85.14 1.62 1.62 0 00-.62.42 1.7 1.7 0 00-.38.62 2.58 2.58 0 00.27 2.14 8.59 8.59 0 001 1.27c.4.41.83.83 1.29 1.25A15.81 15.81 0 0137.2 8a7.22 7.22 0 011 1.41 3.24 3.24 0 01.4 1.59 4.09 4.09 0 01-.22 1.27 3.28 3.28 0 01-.68 1.15 3.55 3.55 0 01-1.18.82 4.29 4.29 0 01-1.72.32 6 6 0 01-1.06-.1 7.11 7.11 0 01-1.74-.54 4.66 4.66 0 01-.55-.33l.22-2.15H32a3.24 3.24 0 00.35.87 2.82 2.82 0 00.6.73 3.08 3.08 0 00.81.51 2.59 2.59 0 001 .19 2.48 2.48 0 00.89-.15 2 2 0 00.68-.42 1.79 1.79 0 00.44-.64 2.16 2.16 0 00.15-.81 2.87 2.87 0 00-.23-1.14 4.18 4.18 0 00-.59-1 7.77 7.77 0 00-.83-.91c-.31-.29-.62-.59-1-.88s-.64-.6-.95-.92a6.58 6.58 0 01-.83-1 4.74 4.74 0 01-.59-1.14 3.85 3.85 0 01-.23-1.34A3.12 3.12 0 0132 2a3.24 3.24 0 01.78-1A3.47 3.47 0 0133.9.27 3.81 3.81 0 0135.19 0a4.31 4.31 0 01.9.08 5.57 5.57 0 01.73.18c.22.07.41.15.58.22l.4.17zm12.78-1.37c-.77 0-1.46 0-2.08.1s-1.15.15-1.6.22-1 .21-1.4.33l.28-1.59h11.38l.28 1.59c-.41-.12-.88-.23-1.4-.33s-1-.15-1.6-.22-1.32-.1-2.08-.1v10.78c0 .45 0 .77.06 1.07a5.94 5.94 0 00.09.75 4 4 0 00.11.51h-2.31c0-.14.07-.31.1-.51a5.94 5.94 0 00.09-.75c0-.3 0-.66.06-1.07s0-.9 0-1.45zM72.88 14.3a1.3 1.3 0 000-.15v-.17a2.75 2.75 0 00-.09-.67 5.51 5.51 0 00-.31-.92L71.33 9.7h-6.2L64 12.28c-.1.24-.2.5-.31.79a2.36 2.36 0 00-.17.87 1 1 0 000 .2.4.4 0 000 .12h-2a4.89 4.89 0 00.48-.66c.17-.32.36-.71.57-1.19L68.21 0H69l5.3 11.93c.13.28.25.55.39.82l.37.71.32.52c.09.15.15.24.18.28zm-6.33-5.46h4.38L68.19 2.6l-2.7 6.24zm27.78 3.82a.89.89 0 010 .22.33.33 0 01-.11.2 7.2 7.2 0 01-2.06 1.09 8.11 8.11 0 01-1.29.32 9.69 9.69 0 01-1.48.11 9.57 9.57 0 01-3.24-.52 7.55 7.55 0 01-2.51-1.48A6.74 6.74 0 0182 10.3a7.59 7.59 0 01-.57-3 7 7 0 012.07-5A7.79 7.79 0 0185 1.11a7.87 7.87 0 011.92-.77 8.46 8.46 0 012.25-.28h1c.37 0 .64.07 1 .13s.63.12.93.2l.84.26.66 1.81h-.07a6 6 0 00-.88-.64 7 7 0 00-1.07-.5A6.43 6.43 0 0090.4.98a6.64 6.64 0 00-1.34-.04 6.48 6.48 0 00-2.25.38 4.82 4.82 0 00-2.91 2.92 6.53 6.53 0 00-.41 2.42 9.41 9.41 0 00.39 2.77A6.18 6.18 0 0085 11.65a5.23 5.23 0 002 1.47 6.47 6.47 0 002.7.53 5.7 5.7 0 001.22-.11 5 5 0 00.91-.26 1.93 1.93 0 00.56-.36.54.54 0 00.19-.34v-1.56c0-.33 0-.63-.06-.87s0-.45-.09-.63-.07-.34-.11-.49V9h2.34a4 4 0 00-.11.49c0 .18-.07.4-.1.66s0 .55-.05.89 0 .74 0 1.19zm10.38-2.18v1.45c0 .45 0 .77.06 1.07a5.94 5.94 0 00.09.75 4 4 0 00.11.51h-2.34c0-.14.07-.31.11-.51s.06-.45.09-.75 0-.66.06-1.07 0-.89 0-1.45V2.67c0-.45 0-.77-.06-1.07s0-.55-.09-.76-.07-.37-.11-.51H104a8.09 8.09 0 001-.09 12.34 12.34 0 011.65-.09 5.72 5.72 0 011.74.25 4.16 4.16 0 011.38.74 3.48 3.48 0 01.91 1.2A3.75 3.75 0 01111 4a4.56 4.56 0 01-.18 1.31 3.9 3.9 0 01-1.3 2 4.59 4.59 0 01-1 .63l3.43 4.82a5.86 5.86 0 00.47.62 4.78 4.78 0 00.42.45 2.58 2.58 0 00.38.32 2 2 0 00.39.19h-2.83a1.68 1.68 0 00-.19-.5 5 5 0 00-.37-.61l-3.46-4.87h-1.46a5.35 5.35 0 01-.56-.07zm0-3a3.05 3.05 0 00.54.08h.52a4 4 0 001.34-.22 2.67 2.67 0 001-.67 3.17 3.17 0 00.66-1.12 4.68 4.68 0 00.23-1.5 5 5 0 00-.16-1.33 3.07 3.07 0 00-.49-1 2.29 2.29 0 00-.83-.64 2.79 2.79 0 00-1.16-.23 6.26 6.26 0 00-1.08.07 3.16 3.16 0 00-.6.14zm26.56 6.82a1.3 1.3 0 000-.15v-.17a2.75 2.75 0 00-.09-.67 5.51 5.51 0 00-.31-.92l-1.15-2.69h-6.2l-1.12 2.58c-.1.24-.2.5-.31.79a2.36 2.36 0 00-.17.87 1 1 0 000 .2.4.4 0 000 .12h-2a4.89 4.89 0 00.44-.66c.17-.32.36-.71.57-1.19L126.6 0h.78l5.3 11.93.39.82c.13.26.26.5.37.71l.32.52.18.28zm-6.33-5.46h4.38l-2.74-6.2-2.7 6.24zm16 5.42a2.44 2.44 0 00.25-.47 3.13 3.13 0 00.21-.77c.08-.46.16-1 .24-1.54s.18-1.17.28-1.79.19-1.27.28-1.92.19-1.3.27-1.94.18-1.24.26-1.83.15-1.13.22-1.62.12-.91.16-1.27l.09-.82h1.24l6.14 11.49 6.1-11.49h.92l1.61 11.6c0 .37.09.68.14.94s.11.48.16.67a3.56 3.56 0 00.15.46c.05.12.1.22.14.3h-2.46a1.88 1.88 0 00.09-.35 3.33 3.33 0 000-.59v-.55l-1.23-9.35-5.76 10.84-.68-.08L144 3.32c-.23 1.54-.42 3-.59 4.28-.08.56-.15 1.11-.22 1.67s-.13 1.08-.19 1.56-.1.91-.13 1.27-.05.64-.05.82v1.02c0 .12 0 .25.06.36h-2z" fill="#fff" data-name="レイヤー 1"/></g></svg>