<?xml version="1.0" encoding="utf-8"?>
<!-- Generator: Adobe Illustrator 25.0.1, SVG Export Plug-In . SVG Version: 6.00 Build 0)  -->
<svg version="1.1" id="レイヤー_1" xmlns="http://www.w3.org/2000/svg" xmlns:xlink="http://www.w3.org/1999/xlink" x="0px"
	 y="0px" viewBox="0 0 113.3 18.8" style="enable-background:new 0 0 113.3 18.8;" xml:space="preserve">
<style type="text/css">
	.st0{fill:#FFFFFF;}
</style>
<g>
	<path class="st0" d="M3.4,1.1H5v2.1H3.4V1.1z M3.4,5.9H5v9.2H3.4V5.9z"/>
	<path class="st0" d="M9.3,15.1H7.7V5.9h1.6v1.6c1-1.2,2-1.8,3.1-1.8c1.1,0,2,0.3,2.6,1c0.4,0.4,0.7,1,0.7,1.6v6.8h-1.6V8.7
		c0-0.5-0.2-0.9-0.5-1.2S12.8,7,12.2,7c-0.5,0-1.1,0.3-1.6,0.8c-0.8,0.8-1.2,1.7-1.2,2.6V15.1z"/>
	<path class="st0" d="M18.9,6.7c0.7-0.7,1.6-1,2.8-1C23,5.7,24,6,24.6,6.6c0.5,0.5,0.8,1.1,0.8,1.8h-1.6c-0.1-0.4-0.2-0.7-0.3-0.8
		c-0.3-0.3-0.9-0.5-1.8-0.5c-0.5,0-1,0.2-1.3,0.5c-0.3,0.3-0.4,0.6-0.4,0.9c0,0.2,0.1,0.4,0.2,0.6c0.2,0.2,0.9,0.5,2.1,0.7
		c0.7,0.2,1.3,0.3,1.8,0.5c0.4,0.2,0.8,0.4,1,0.6c0.4,0.4,0.7,1,0.7,1.6c0,0.7-0.3,1.3-0.8,1.8c-0.7,0.7-1.7,1-3,1
		c-1.4,0-2.4-0.3-3-1c-0.5-0.5-0.8-1.2-0.8-2.1h1.6c0.1,0.5,0.2,0.8,0.4,1.1c0.4,0.4,1,0.6,1.7,0.6c0.9,0,1.6-0.2,1.9-0.5
		c0.2-0.2,0.3-0.5,0.3-0.8c0-0.2-0.1-0.5-0.4-0.7c-0.2-0.2-0.6-0.4-1.1-0.5c-1-0.2-1.7-0.4-2.2-0.6c-0.6-0.2-1-0.4-1.3-0.7
		c-0.5-0.5-0.7-1-0.7-1.6C18.2,7.8,18.4,7.2,18.9,6.7z"/>
	<path class="st0" d="M27.8,5.9h1.6V12c0,0.7,0.2,1.1,0.5,1.5c0.3,0.3,0.7,0.4,1.1,0.4c0.7,0,1.3-0.3,1.9-0.8
		c0.8-0.8,1.2-1.7,1.2-2.5V5.9h1.6v9.2h-1.6v-1.6c-0.9,1.2-1.9,1.8-3.2,1.8c-1.1,0-2-0.2-2.5-0.7s-0.7-1.1-0.7-1.9V5.9z"/>
	<path class="st0" d="M44.3,5.7v1.8c-0.2-0.1-0.5-0.1-0.9-0.1c-0.8,0-1.6,0.4-2.3,1.1c-0.6,0.6-1,1.2-1.2,1.9v4.7h-1.6V5.9h1.6v2.3
		c0.3-0.4,0.6-0.8,0.9-1.1C41.7,6.1,42.9,5.7,44.3,5.7z"/>
	<path class="st0" d="M46.6,6.6c0.6-0.6,1.5-0.9,2.6-0.9c1.4,0,2.4,0.3,3,0.9C52.7,7.2,53,7.8,53,8.5v5.2c0,0.6,0.2,1.1,0.7,1.4h-2
		c-0.2-0.2-0.3-0.6-0.3-1.1c-0.8,0.8-1.9,1.2-3.1,1.2c-1,0-1.8-0.3-2.4-0.8c-0.5-0.5-0.7-1.1-0.7-1.7c0-0.8,0.2-1.4,0.7-1.9
		c0.5-0.5,1.3-0.9,2.3-1.1c0.7-0.1,1.2-0.2,1.7-0.4c0.7-0.2,1.2-0.3,1.5-0.5c0-0.4-0.2-0.8-0.5-1.1s-0.8-0.5-1.4-0.5
		c-0.8,0-1.3,0.2-1.6,0.5c-0.2,0.2-0.4,0.5-0.5,0.9h-1.8C45.7,7.8,46.1,7.2,46.6,6.6z M51.4,10.4c-0.3,0.1-0.6,0.2-0.9,0.2
		c-0.9,0.2-1.6,0.4-2.1,0.5c-0.4,0.1-0.8,0.3-1,0.5c-0.3,0.3-0.4,0.6-0.4,0.9c0,0.4,0.1,0.7,0.4,1c0.2,0.2,0.5,0.2,1.1,0.2
		c0.9,0,1.7-0.3,2.3-0.9c0.4-0.4,0.6-0.7,0.7-0.8V10.4z"/>
	<path class="st0" d="M57.3,15.1h-1.6V5.9h1.6v1.6c1-1.2,2-1.8,3.1-1.8c1.1,0,2,0.3,2.6,1c0.4,0.4,0.7,1,0.7,1.6v6.8H62V8.7
		c0-0.5-0.2-0.9-0.5-1.2S60.8,7,60.2,7c-0.5,0-1.1,0.3-1.6,0.8c-0.8,0.8-1.2,1.7-1.2,2.6V15.1z"/>
	<path class="st0" d="M67.2,7c0.8-0.8,1.8-1.2,3-1.2c1.3,0,2.3,0.3,3,1c0.6,0.6,1,1.3,1.1,2.2h-1.8c-0.1-0.4-0.3-0.8-0.7-1.2
		c-0.3-0.3-0.8-0.5-1.5-0.5s-1.2,0.2-1.6,0.7c-0.7,0.7-1,1.6-1,2.7c0,1.1,0.3,1.9,0.9,2.5c0.4,0.4,1,0.7,1.6,0.7
		c0.8,0,1.4-0.2,1.8-0.7c0.4-0.4,0.7-1,0.7-1.7h1.8c-0.1,1.1-0.4,2.1-1.1,2.8c-0.7,0.7-1.8,1.1-3.1,1.1c-1.1,0-2.1-0.4-2.9-1.1
		c-1-1-1.5-2.2-1.5-3.6C65.9,9.1,66.3,7.9,67.2,7z"/>
	<path class="st0" d="M77.8,6.9c0.8-0.8,1.8-1.1,3-1.1c1.1,0,2.1,0.4,3,1.2c0.8,0.8,1.1,1.9,1.1,3.5h-6.6c0,1.1,0.3,2,0.8,2.5
		c0.5,0.5,1.1,0.7,1.9,0.7c0.8,0,1.3-0.2,1.6-0.5c0.4-0.4,0.6-0.8,0.6-1.3h1.8c-0.2,1-0.6,1.7-1.1,2.2c-0.7,0.7-1.7,1.1-3,1.1
		c-1.3,0-2.4-0.4-3.2-1.2c-0.9-0.9-1.3-2.1-1.3-3.5C76.4,9,76.9,7.8,77.8,6.9z M79,7.8c-0.4,0.4-0.6,0.8-0.7,1.4H83
		c0-0.5-0.2-1-0.7-1.5c-0.4-0.4-0.9-0.6-1.6-0.6C80,7.1,79.5,7.3,79,7.8z"/>
</g>
</svg>
