<?xml version="1.0" encoding="utf-8"?>
<!-- Generator: Adobe Illustrator 25.0.1, SVG Export Plug-In . SVG Version: 6.00 Build 0)  -->
<svg version="1.1" id="レイヤー_1" xmlns="http://www.w3.org/2000/svg" xmlns:xlink="http://www.w3.org/1999/xlink" x="0px"
	 y="0px" viewBox="0 0 95 18.8" style="enable-background:new 0 0 95 18.8;" xml:space="preserve">
<style type="text/css">
	.st0{fill:#FFFFFF;}
</style>
<g>
	<path class="st0" d="M4.2,15.2c0,0.4,0,0.6,0.1,0.9H3.1c0.1-0.3,0.1-0.5,0.1-0.9V8c-0.5,0.8-0.8,1.4-1.4,2l-0.3,0.4L1,10l0.3-0.3
		c1.3-2,2.2-4.4,2.7-6.6l0.1-0.6l1.2,0.3L5,3.4C4.8,4.3,4.5,5.1,4.2,5.8V15.2z M12.3,3.5c0.6,0,0.7,0,1.1,0
		c-0.1,0.3-0.1,0.6-0.1,1.1v2.5c0,0.6,0,0.8,0.1,1.1c-0.3,0-0.6,0-0.9,0h-0.2h-2.1v1.8h3.5c0.3,0,0.5,0,0.9-0.1v0.7
		c-0.4,0-0.6-0.1-0.9-0.1h-3.2c1,1.5,2.1,2.5,3.9,3.5l0.6,0.3l-0.7,1.1l-0.5-0.4c-1.7-1.2-2.7-2.3-3.6-3.9v4.2c0,0.3,0,0.4,0.1,0.9
		H9.1l0-0.1c0-0.3,0.1-0.5,0.1-0.8v-3.6c-0.9,1.4-2,2.5-3.7,3.5L5,15.4l-0.4-0.5l0.5-0.2c1.7-1.3,2.9-2.6,3.6-4.2h-3
		c-0.4,0-0.5,0-0.9,0.1V9.9c0.3,0,0.6,0.1,0.9,0.1h3.4V8.2h-2c-0.6,0-0.7,0-1.1,0c0.1-0.4,0.1-0.5,0.1-1.1V4.6c0-0.6,0-0.7-0.1-1.1
		c0.3,0,0.6,0,1.1,0H12.3z M7.1,4.1v3.5h5.1V4.1H7.1z"/>
	<path class="st0" d="M19.1,15.2c0,0.3,0,0.4,0.1,0.9h-1.1l0-0.1c0-0.3,0.1-0.5,0.1-0.8V4.4c0-0.6,0-0.7-0.1-1.1c0.3,0,0.6,0,1.1,0
		H21c0.6,0,0.8,0,1.2,0v0.5c-0.5,1.4-1,2.5-1.8,4.1c1.4,1.4,1.8,2.3,1.8,3.7c0,1.2-0.4,2-0.9,2c-0.3,0-0.7-0.1-1.3-0.3l-0.5-0.1
		l-0.1-0.5c0.5,0.1,0.6,0.1,1.2,0.1h0c0.4,0,0.5-0.4,0.5-1.2c0-1.3-0.4-2.2-1.4-3.6c0.6-1.5,1-2.7,1.3-3.9h-2V15.2z M29,8.5
		c0.6,0,0.7,0,1.1,0c-0.1,0.4-0.1,0.6-0.1,1.1v1.2c0,0.6,0,0.8,0.1,1.1c-0.3,0-0.6,0-0.9,0H29h-1.9c0.6,1.4,1.7,2.4,3.4,3.1l0.7,0.2
		l-0.6,1L30,15.8c-1.7-0.8-2.8-1.9-3.4-3.5c-0.6,1.6-1.9,2.8-4,3.6l-0.5,0.2l-0.3-0.6l0.6-0.1c1.9-1,3-2.1,3.4-3.6h-1.9
		c-0.6,0-0.7,0-1.1,0c0.1-0.4,0.1-0.5,0.1-1.1V9.5V9.3c0-0.4,0-0.6-0.1-0.9c0.3,0,0.6,0,1.1,0h2V6.9h-0.7c-0.4,0-0.5,0-0.9,0.1V6.4
		c-0.5,0.5-1.1,0.9-1.8,1.3L22,8.1l-0.4-0.5l0.5-0.3c1.5-1.2,2.7-2.5,3.5-4.3l0.2-0.6l1.2,0.3l-0.2,0.4l0,0.1l0,0
		c1,1.4,2.2,2.5,3.8,3.4L31.3,7l-0.7,1l-0.5-0.4c-0.7-0.5-1-0.8-1.5-1.2v0.6c-0.4,0-0.6-0.1-0.9-0.1h-0.8v1.6H29z M23.9,9.1v2.1h2.1
		V9.1H23.9z M27.7,6.3c0.3,0,0.5,0,0.8,0c-0.8-0.8-1.4-1.5-1.9-2.5c-0.5,0.9-1.2,1.8-2,2.5c0.3,0,0.4,0,0.7,0H27.7z M26.9,9.1v2.1
		h2.1V9.1H26.9z"/>
	<path class="st0" d="M44,9.4c0,2.9-1.5,4.8-4.8,5.8c-0.2,0.1-0.4,0.1-0.7,0.3l-0.3-0.6c1.1-0.1,2.6-0.9,3.5-1.9
		c0.8-0.9,1.2-2,1.2-3.5V7.6h-4.7v2.7c0,0.3,0,0.6,0.1,0.8h-1.2c0-0.2,0.1-0.4,0.1-0.8V7.6h-2.4c-0.3,0-0.6,0-0.8,0.1V6.9
		c0.2,0,0.5,0.1,0.8,0.1h2.4V4.4c0-0.3,0-0.5-0.1-0.8h1.2c0,0.2-0.1,0.4-0.1,0.8v2.5H43V4.4c0-0.3,0-0.5-0.1-0.8h1.2
		C44,3.9,44,4.1,44,4.4v2.5h2.4c0.2,0,0.5,0,0.8-0.1v0.8c-0.2,0-0.4-0.1-0.8-0.1H44V9.4z"/>
	<path class="st0" d="M50.1,14.1c1.3-0.9,2.7-3.6,2.9-5.6l1.1,0.4C54,9.2,54,9.3,53.9,9.6c-0.5,1.6-1.5,3.2-2.8,4.5
		c-0.3,0.3-0.4,0.4-0.5,0.5L50.1,14.1z M57.1,14.7c0,0.2,0,0.5,0.1,0.8H56c0.1-0.3,0.1-0.5,0.1-0.8V6.8h-4.6c-0.3,0-0.6,0-0.8,0.1
		V6.1c0.2,0,0.5,0.1,0.8,0.1h4.6v-2c0-0.2,0-0.5-0.1-0.8h1.2c0,0.2-0.1,0.5-0.1,0.8v2h4.6c0.2,0,0.5,0,0.8-0.1v0.8
		c-0.2,0-0.5-0.1-0.8-0.1h-4.6V14.7z M61.7,14.4c-0.4-1.8-2-4.9-2.8-5.5l0.6-0.5C59.6,8.6,59.7,8.7,60,9c1,1.2,2,2.8,2.5,4.2
		c0.1,0.3,0.3,0.6,0.3,0.6L61.7,14.4z M63.3,3.9c0,0.9-0.7,1.6-1.7,1.6c-0.9,0-1.6-0.8-1.6-1.6c0-0.9,0.7-1.6,1.6-1.6
		C62.5,2.3,63.3,3,63.3,3.9z M60.5,3.9c0,0.6,0.5,1.2,1.2,1.2c0.6,0,1.2-0.5,1.2-1.2s-0.5-1.2-1.2-1.2C61,2.7,60.5,3.3,60.5,3.9z"/>
	<path class="st0" d="M78,9.7c-0.2,0-0.5-0.1-0.9-0.1H67c-0.3,0-0.7,0-0.9,0.1V8.8c0.2,0,0.6,0.1,0.9,0.1h10.1c0.3,0,0.7,0,0.9-0.1
		V9.7z"/>
	<path class="st0" d="M84.1,14.7c0,0.2,0,0.5,0.1,0.8H83c0-0.2,0.1-0.4,0.1-0.8V4.1c0-0.3,0-0.5-0.1-0.8h1.2c0,0.2-0.1,0.5-0.1,0.8
		v3.3C86.4,8,88.4,8.9,90,10c0.3,0.2,0.6,0.4,0.7,0.5l-0.8,1c-1.1-1.3-3.7-2.8-5.8-3.3V14.7z"/>
</g>
</svg>
