<svg xmlns="http://www.w3.org/2000/svg" viewBox="0 0 127.24 19.46"><g data-name="レイヤー 2"><path d="M2.21 7.82V6.37c0-.45 0-.77-.06-1.07s-.08-.55-.15-.75 0-.37-.08-.55h2.26c0 .14-.07.31-.11.51S4 5 4 5.3V13a8.05 8.05 0 01-.29 2.28A6.12 6.12 0 012.83 17a7.18 7.18 0 01-1.18 1.34c-.46.39-.94.77-1.46 1.14L0 19.23A6.41 6.41 0 001.1 18a5.8 5.8 0 00.68-1.42 8.26 8.26 0 00.33-1.63 16.22 16.22 0 00.1-1.95zM2 1a1.1 1.1 0 01.08-.4A1.12 1.12 0 012.3.31a1.09 1.09 0 01.33-.23A1.16 1.16 0 013.05 0a1.11 1.11 0 01.41.08 1 1 0 01.33.23A1 1 0 014 .64a1.1 1.1 0 01.1.36 1.06 1.06 0 01-.3.76 1 1 0 01-.75.3A1.16 1.16 0 012.63 2a1.09 1.09 0 01-.33-.23 1.12 1.12 0 01-.22-.33A1.16 1.16 0 012 1zm5.39 10.12a2.67 2.67 0 01.32-1.33 3 3 0 01.85-1 4.33 4.33 0 011.2-.65 8.18 8.18 0 011.39-.39 12.28 12.28 0 011.43-.2l1.29-.06V7a3.32 3.32 0 00-.17-1.11 2 2 0 00-.47-.78 1.93 1.93 0 00-.72-.46 2.85 2.85 0 00-.94-.15 4 4 0 00-.69.06 3.47 3.47 0 00-.71.2 4.85 4.85 0 00-.77.37 7.06 7.06 0 00-.87.59l-.1-.06.66-1.37a4.59 4.59 0 01.64-.24q.31-.09.63-.15l.64-.07h.71a5.31 5.31 0 011.75.25 3.05 3.05 0 011.19.68 2.58 2.58 0 01.68 1A3.37 3.37 0 0115.57 7v4.64c0 .45 0 .77.06 1.07a6.44 6.44 0 00.09.75c0 .2.07.37.11.5h-2.14a1.64 1.64 0 00.08-.35v-.47c-.14.12-.3.24-.48.37a4.25 4.25 0 01-.64.33 4.07 4.07 0 01-.79.25 4.72 4.72 0 01-1 .09 3.94 3.94 0 01-2.63-.8 2.81 2.81 0 01-.84-2.26zm6.48-2.84c-.59 0-1.16 0-1.71.1a4.74 4.74 0 00-1.45.39 2.49 2.49 0 00-1 .83 2.52 2.52 0 00-.38 1.4 2.47 2.47 0 00.57 1.8 2.1 2.1 0 001.6.61 2.86 2.86 0 00.85-.13 2.54 2.54 0 00.68-.34 2.45 2.45 0 00.51-.44 2.07 2.07 0 00.31-.46V8.28zm5.97-.65V6.18c0-.45 0-.77-.06-1.07a5.94 5.94 0 00-.09-.75 3.37 3.37 0 00-.11-.51h2.26a1.59 1.59 0 00-.09.33 3.66 3.66 0 00-.07.42 6.68 6.68 0 011.25-.6 4.8 4.8 0 011.55-.23 5.25 5.25 0 012 .36 4.35 4.35 0 011.53 1 4.68 4.68 0 011 1.66A6.12 6.12 0 0129.34 9a5.55 5.55 0 01-.34 2 4.91 4.91 0 01-1 1.64 4.85 4.85 0 01-1.64 1.13 5.47 5.47 0 01-2.25.43 7.24 7.24 0 01-1.38-.12 8.51 8.51 0 01-1.16-.3v2.88c0 .45 0 .77.06 1.07s.06.54.09.75a3.49 3.49 0 00.11.5h-2.27a3.49 3.49 0 00.11-.5 6.44 6.44 0 00.09-.75c0-.3 0-.66.06-1.07s0-.9 0-1.45zm4.3-3.09a3.23 3.23 0 00-.68.08 4.23 4.23 0 00-.68.24 3.56 3.56 0 00-.65.38 3.85 3.85 0 00-.55.52v6.95A3.7 3.7 0 0022 13a5.69 5.69 0 00.55.23 4.25 4.25 0 00.7.16 5.57 5.57 0 00.85.06 3.24 3.24 0 001.38-.28 2.7 2.7 0 001-.79 3.58 3.58 0 00.65-1.26 5.42 5.42 0 00.23-1.68 11 11 0 00-.17-2 5.21 5.21 0 00-.56-1.56 2.73 2.73 0 00-2.51-1.4zm8.05 6.58a2.67 2.67 0 01.32-1.33 2.93 2.93 0 01.85-1 4.33 4.33 0 011.2-.65A8.18 8.18 0 0136 7.78a12.28 12.28 0 011.43-.2l1.29-.06V7a3.32 3.32 0 00-.17-1.11 2 2 0 00-.55-.76 1.93 1.93 0 00-.72-.46 2.85 2.85 0 00-.94-.15 4 4 0 00-.69.06 3.47 3.47 0 00-.71.2 4.85 4.85 0 00-.77.37 7.06 7.06 0 00-.87.59l-.1-.06.66-1.37a4.59 4.59 0 01.64-.24l.63-.15.66-.09h.71a5.31 5.31 0 011.75.25 3.05 3.05 0 011.19.68 2.58 2.58 0 01.68 1A3.37 3.37 0 0140.37 7v4.64c0 .45 0 .77.06 1.07a6.44 6.44 0 00.09.75 3.49 3.49 0 00.11.5h-2.14a1.64 1.64 0 00.08-.35v-.47c-.14.12-.3.24-.48.37a4.25 4.25 0 01-.64.33 4.31 4.31 0 01-.79.25 4.72 4.72 0 01-1 .09 3.94 3.94 0 01-2.63-.8 2.81 2.81 0 01-.84-2.26zm6.48-2.84c-.59 0-1.16 0-1.71.1a4.74 4.74 0 00-1.45.39 2.43 2.43 0 00-1 .83 2.52 2.52 0 00-.38 1.4 2.47 2.47 0 00.57 1.76 2.1 2.1 0 001.6.61 2.86 2.86 0 00.85-.13 2.7 2.7 0 00.68-.34 2.45 2.45 0 00.51-.44 2.07 2.07 0 00.31-.46V8.28zm12.73-.86a2.88 2.88 0 00-.52-1.89 1.73 1.73 0 00-1.39-.61 2.43 2.43 0 00-.7.13 5.07 5.07 0 00-.8.36 5.54 5.54 0 00-.82.51 6.73 6.73 0 00-.77.62v5.1c0 .45 0 .77.06 1.07s0 .54.08.75.07.37.11.5h-2.26c0-.13.08-.3.12-.5s.06-.46.08-.75 0-.66.06-1.07 0-.9 0-1.45V6.37c0-.45 0-.77-.06-1.07s-.05-.55-.08-.75-.08-.37-.12-.51V4h2.26a3.79 3.79 0 00-.12.62c0 .25-.06.58-.09 1 .26-.22.55-.44.86-.66a8 8 0 011-.59 6.44 6.44 0 011-.42 3.27 3.27 0 011-.16 3 3 0 011.3.26 2.61 2.61 0 01.87.7 2.72 2.72 0 01.48 1 4.27 4.27 0 01.16 1.12v4.77c0 .45 0 .77.05 1.07s.06.54.09.75a3.49 3.49 0 00.11.5h-2.25c0-.13.08-.3.12-.5s.06-.46.08-.75 0-.66.06-1.07 0-.9 0-1.45zm10.46 6.76a5.85 5.85 0 01-2-.34 4.59 4.59 0 01-2.76-2.63A5.76 5.76 0 0156.66 9a5.69 5.69 0 01.37-2 5 5 0 011-1.64 4.73 4.73 0 011.53-1.08 4.57 4.57 0 011.89-.39 4.92 4.92 0 011.86.34 4.28 4.28 0 011.49 1 4.83 4.83 0 011 1.63A6.85 6.85 0 0166.22 9h-7.6a7.29 7.29 0 00.31 1.84 4.4 4.4 0 00.72 1.4 3 3 0 001.1.89 3.31 3.31 0 001.47.32 4.13 4.13 0 001.07-.14 3.33 3.33 0 00.91-.31 3.68 3.68 0 00.73-.55 3.27 3.27 0 00.55-.69l.12.06-.72 1.74a6.8 6.8 0 01-1.26.46 7 7 0 01-1.76.16zm-1.3-6h3.78A6.67 6.67 0 0064 6.66a3.88 3.88 0 00-.63-1.14 2.52 2.52 0 00-2-1 2.16 2.16 0 00-1 .25 2.54 2.54 0 00-.82.72 3.54 3.54 0 00-.57 1.15 5.84 5.84 0 00-.25 1.54h.92zM74.3 6h-.14a2 2 0 00-.22-.48 1.91 1.91 0 00-.39-.52 2.31 2.31 0 00-.55-.32 2.13 2.13 0 00-.78-.14 1.79 1.79 0 00-.57.09 1.27 1.27 0 00-.47.26 1.23 1.23 0 00-.32.42 1.57 1.57 0 00-.11.6 1.63 1.63 0 00.29.91 5.3 5.3 0 00.75.86c.3.28.62.57 1 .86a9.23 9.23 0 011 .89 5.33 5.33 0 01.75 1 2.32 2.32 0 01.3 1.15 2.69 2.69 0 01-.18 1 2.2 2.2 0 01-.54.85 2.54 2.54 0 01-.94.6 3.68 3.68 0 01-1.36.23 4 4 0 01-.87-.09 4.62 4.62 0 01-.74-.22 3.85 3.85 0 01-.61-.29 5.49 5.49 0 01-.47-.31l.09-1.86h.16a3.46 3.46 0 00.29.84 2 2 0 00.49.65 2.06 2.06 0 00.66.42 2.09 2.09 0 00.81.16 1.61 1.61 0 001.14-.4 1.37 1.37 0 00.43-1.05 1.71 1.71 0 00-.29-.95 4.31 4.31 0 00-.73-.84c-.29-.26-.6-.53-.94-.8a9.49 9.49 0 01-.94-.85 4.65 4.65 0 01-.73-1 2.6 2.6 0 01-.29-1.23 2.51 2.51 0 01.21-1 2.29 2.29 0 01.51-.88 2.73 2.73 0 01.89-.56A3.49 3.49 0 0172 3.85a4.35 4.35 0 011.38.15 4 4 0 01.82.33zm8.45 8.18a5.89 5.89 0 01-2-.34 4.78 4.78 0 01-1.65-1 4.72 4.72 0 01-1.1-1.63A5.76 5.76 0 0177.56 9a5.48 5.48 0 01.37-2A5 5 0 0179 5.3a4.83 4.83 0 011.53-1.08 4.57 4.57 0 011.89-.39 5 5 0 011.87.34 4.37 4.37 0 011.49 1 4.66 4.66 0 011 1.63 6.59 6.59 0 01.34 2.2h-7.61a7.27 7.27 0 00.32 1.84 4.39 4.39 0 00.71 1.4 3 3 0 001.1.89 3.37 3.37 0 001.47.32 4.07 4.07 0 001.07-.14 3.39 3.39 0 00.92-.31 4 4 0 00.73-.55 4.07 4.07 0 00.55-.69l.11.06-.72 1.74a6.31 6.31 0 01-1.26.46 6.92 6.92 0 01-1.76.16zm-1.3-6h3.78a6.67 6.67 0 00-.33-1.52 3.87 3.87 0 00-.62-1.14 2.84 2.84 0 00-.9-.73 2.72 2.72 0 00-1.14-.25 2.13 2.13 0 00-1 .25 2.47 2.47 0 00-.83.72 4 4 0 00-.57 1.15 6.28 6.28 0 00-.25 1.54h.93zM102 13.43a1.7 1.7 0 00.58-.11 2.71 2.71 0 00.56-.29 5.05 5.05 0 00.51-.43 5.56 5.56 0 00.47-.5l.1.05-.64 1.57-.29.14a2.34 2.34 0 01-.41.16 4.71 4.71 0 01-.56.13 5.47 5.47 0 01-.76 0 2.83 2.83 0 01-2-.71 3 3 0 01-.72-2.21V4.77l-1.65.05V4h1.65V2.78c0-.35 0-.67-.06-.93s-.05-.49-.08-.67-.07-.33-.1-.46h2.26a3.48 3.48 0 00-.11.46c0 .18-.06.4-.08.67s-.05.56-.06.92 0 .77 0 1.23h3.1a4.47 4.47 0 00.45 0l-.18 1h-3.33v6.71a3 3 0 00.14 1 1.53 1.53 0 00.34.59 1.09 1.09 0 00.48.29 2 2 0 00.39-.16zm9.8.75a5.89 5.89 0 01-2-.34 4.6 4.6 0 01-1.65-1 4.72 4.72 0 01-1.15-1.63 5.76 5.76 0 01-.4-2.21 5.69 5.69 0 01.37-2 5 5 0 011-1.64 4.62 4.62 0 011.53-1.08 4.57 4.57 0 011.89-.39 4.92 4.92 0 011.86.34 4.37 4.37 0 011.49 1 4.83 4.83 0 011 1.63 6.85 6.85 0 01.42 2.14h-7.61a7.29 7.29 0 00.31 1.84 4.21 4.21 0 00.72 1.4 3 3 0 001.1.89 3.31 3.31 0 001.47.32 4.13 4.13 0 001.07-.14 3.33 3.33 0 00.91-.36 3.41 3.41 0 00.73-.55 3.27 3.27 0 00.55-.69l.12.06-.72 1.74a6.8 6.8 0 01-1.26.46 7 7 0 01-1.75.21zm-1.3-6h3.78a6.67 6.67 0 00-.33-1.52 3.88 3.88 0 00-.63-1.14 2.52 2.52 0 00-2-1 2.16 2.16 0 00-1 .25 2.44 2.44 0 00-.82.72 3.54 3.54 0 00-.57 1.15 5.84 5.84 0 00-.25 1.54h.92zm8.28 2.94a2.67 2.67 0 01.32-1.33 3 3 0 01.84-1 4.47 4.47 0 011.2-.65 8.29 8.29 0 011.4-.39 12 12 0 011.43-.2l1.29-.06V7a3.32 3.32 0 00-.17-1.11 2.17 2.17 0 00-.47-.78 1.9 1.9 0 00-.73-.46 2.75 2.75 0 00-.93-.15 4 4 0 00-.69.06 3.3 3.3 0 00-.71.2 4.85 4.85 0 00-.77.37 8 8 0 00-.88.59l-.09-.06.66-1.37a4.59 4.59 0 01.64-.24 6.42 6.42 0 01.63-.15 6.57 6.57 0 01.66-.09h.71a5.35 5.35 0 011.75.25 3.21 3.21 0 011.19.68 2.58 2.58 0 01.68 1A3.59 3.59 0 01127 7v4.64c0 .45 0 .77.06 1.07a6.44 6.44 0 00.09.75 3.49 3.49 0 00.11.5h-2.16a1.67 1.67 0 00.07-.35v-.47a5.66 5.66 0 01-.49.37 3.7 3.7 0 01-.63.33 4.31 4.31 0 01-.79.25 4.72 4.72 0 01-1 .09 3.92 3.92 0 01-2.63-.8 2.81 2.81 0 01-.85-2.26zm6.48-2.84c-.6 0-1.17 0-1.71.1a4.74 4.74 0 00-1.45.39 2.43 2.43 0 00-1 .83 2.52 2.52 0 00-.38 1.44 2.47 2.47 0 00.58 1.76 2.07 2.07 0 001.59.61 2.61 2.61 0 001.54-.47 2.16 2.16 0 00.5-.44 2.13 2.13 0 00.32-.46V8.28z" fill="#fff" data-name="レイヤー 1"/></g></svg>