<?xml version="1.0" encoding="utf-8"?>
<!-- Generator: Adobe Illustrator 25.0.0, SVG Export Plug-In . SVG Version: 6.00 Build 0)  -->
<svg version="1.1" id="レイヤー_1" xmlns="http://www.w3.org/2000/svg" xmlns:xlink="http://www.w3.org/1999/xlink" x="0px"
	 y="0px" viewBox="0 0 220 26.5" style="enable-background:new 0 0 220 26.5;" xml:space="preserve">
<style type="text/css">
	.st0{fill:#4F68AB;}
	.st1{fill:#FFFFFF;}
</style>
<g>
	<g>
		<path class="st0" d="M55.5,4.3c0-1-0.3-1.7-1.3-1.7h-2v-1h18.5l2.1,6.1h-0.8c-1.5-3.1-3-5.1-6.1-5.1h-7.2c-1.1,0-1.5,0.7-1.5,1.7
			v8.5h5.6c2.6,0,3-1,3-4h0.8v8.9h-0.8c0-3.4-0.5-4-3-4h-5.6V23c0,1.1,0.8,1.4,1.5,1.4h2v1h-8.4v-1h2.1c0.7,0,1.3-0.5,1.3-1.4V4.3z"
			/>
		<path class="st0" d="M84.3,24.4c-1.4,1.1-3.1,1.7-5.1,1.7c-1.5,0-4-0.7-4-3.9c0-1.3,0.5-2.4,1.7-3.3c1.5-1.1,4.3-2,8.4-2.5v-2.1
			c0-2.2-2.1-3.6-3.9-3.6c-2.3,0-3.4,1.5-3.4,2.2v0.4c0.1,0.4,0.2,1.3-0.9,1.3c-0.8,0-1-0.6-1-1c0-2,2.2-3.9,5.4-3.9
			c3.4,0,5.6,2.3,5.6,4.6v7.6c0,1.2,0,3.3,0.7,3.3c0.3,0,0.7-0.6,1.1-1.8l0.9,0.5c-0.7,2.1-1.5,2.3-2.4,2.3c-1.7,0-1.9-1.6-2-2.7
			L84.3,24.4z M85.2,17.5c-3.3,0.6-5.6,1.3-6.9,2.2c-1,0.6-1.4,1.5-1.4,2.5c0,1.8,1.6,2.9,3,2.9c2.1,0,5-1.5,5.4-3.8V17.5z"/>
		<path class="st0" d="M93.6,13.1c0-0.9-1-0.9-2.5-0.9v-1c1.2,0,2.6-0.4,4.2-1.2v2.4c1.2-1.5,2-2.4,4.1-2.4c1.4,0,2.4,0.5,3.2,1.5
			c0.2,0.3,0.4,0.7,0.6,1.3c0.6-1.1,2.1-2.7,4.7-2.7c2.2,0,3.9,1.6,3.9,4.5v8.7c0,0.8,0.4,1.2,1.2,1.2h1.1v1h-6.3v-1h1.3
			c0.7,0,1-0.5,1-1.2v-8.7c0-2.2-1.1-3.5-2.7-3.5c-1.4,0-3.5,1.2-4,3.1v9.1c0,0.8,0.4,1.2,1.2,1.2h1.1v1h-6.4v-1h1.4
			c0.5,0,1.1-0.5,1.1-1.2v-8.5c0-1.8-0.6-3.6-2.8-3.6c-1.2,0-3.3,1-3.7,3.4v8.8c0,0.8,0.4,1.2,1.1,1.2h1.2v1h-6.4v-1h1
			c0.6,0,1.5-0.2,1.5-1.2V13.1z"/>
		<path class="st0" d="M118.2,17.3V18c0,3.6,2.5,7,5.8,7c2.5,0,3.9-1.7,5.4-3.7l0.8,0.6c-2.6,3.3-3.9,4.2-6.6,4.2
			c-5,0-7.1-4.4-7.1-8c0-5.1,3.4-8.4,6.8-8.4c3.6,0,6.5,3.1,6.5,7.6H118.2z M128.2,16.3c-0.1-1.9-0.6-3.4-1.5-4.3
			c-0.8-0.9-2-1.4-3.4-1.4c-2.5,0-4.6,2.3-5.1,5.6H128.2z"/>
		<path class="st0" d="M147,15.1c0.1,0,0.3,0.1,0.2,0.3c-0.2,0.8-0.3,1.5-0.4,2.4c0,0.5-0.5,0.6-0.5,0.1c-0.1-0.9-0.2-1-0.6-1.4
			c-0.5-0.5-1.3-0.8-2.8-0.8c-2,0-3.7,1.3-3.7,4.3c0,3.4,2.1,4.9,4.5,4.9c1.5,0,2-0.4,2.9-1.6c0.3-0.4,0.6-0.2,0.5,0.3
			c-0.2,0.5-0.5,1.2-1.4,1.6c-0.6,0.3-1.5,0.6-2.7,0.6c-3,0-5.2-2-5.2-5.3c0-1.9,0.9-3.4,2.4-4.4c1.2-0.9,2.6-1,3.5-1
			c1.1,0,2.1,0.3,2.6,0.6C146.5,15.4,146.8,15.1,147,15.1z"/>
		<path class="st0" d="M154.8,21.7c0,1.3-0.4,2.1-0.9,2.6c-0.4,0.5-1.5,1.4-3,1.4c-2,0-3.1-1.7-3.1-3.5c0-1.4,0.5-2.2,1.3-2.9
			c0.7-0.6,1.6-1,2.6-1C153.4,18.3,154.8,19.9,154.8,21.7z M151,19.1c-1.7,0-2,1.6-2,2.7c0,1.6,0.7,3.2,2.5,3.2c1.2,0,2-1.1,2-2.8
			C153.5,20.9,152.9,19.1,151,19.1z"/>
		<path class="st0" d="M157.1,24.6c0,0.5-0.4,1-1,1c-0.4,0-0.8-0.3-0.8-0.9c0-0.5,0.4-0.9,1-0.9C156.7,23.8,157.1,24.2,157.1,24.6z"
			/>
		<path class="st0" d="M157.9,27.4c0.9-0.8,1.2-1.3,1.2-1.7c0-0.3-0.1-0.6-0.7-1c-0.2-0.1-0.2-0.4,0-0.6c0.2-0.3,0.5-0.5,0.8-0.5
			c0.6,0,0.9,0.7,0.9,1.3c0,1.5-1.3,2.4-1.9,2.8C157.9,27.9,157.6,27.6,157.9,27.4z"/>
		<path class="st0" d="M167.3,24.1c0,0.3,0.1,0.5,0.3,0.5c0.5,0.1,2.5,0.1,3.1,0.1c0.6-0.1,0.9-0.4,1.3-1.7c0.2-0.5,0.6-0.5,0.6,0
			c0,0.5-0.2,1.5-0.5,2c-0.1,0.2-0.2,0.3-0.5,0.4c-0.4,0.1-4.4,0-5,0c-0.2,0-1.6,0-1.7,0c-0.6,0-0.6-0.5,0-0.5
			c0.9-0.1,1-0.2,1.1-0.7c0-0.4,0-0.7,0-1.4v-4.9c0-0.9,0-1.3,0-1.5c0-0.4-0.1-0.5-1-0.6c-0.6-0.1-0.6-0.5,0-0.5c0.4,0,0.9,0,1.6,0
			c0.8,0,1.5,0,1.8,0c0.5,0,0.5,0.5,0,0.5c-1,0.1-1.1,0.3-1.1,0.6c0,0.4,0,0.6,0,1.5v4.8C167.3,23.5,167.3,23.7,167.3,24.1z"/>
		<path class="st0" d="M175,23.4c0,0.9,0.3,1.3,0.9,1.3c0.4,0,0.5,0,0.8-0.1c0.3-0.1,0.5,0.2,0.1,0.6c-0.4,0.3-0.9,0.6-1.5,0.6
			c-0.7,0-1.4-0.3-1.4-2.1v-4.1h-0.2c-0.7,0-0.9,0-1,0c-0.1,0-0.1-0.1-0.1-0.2c0-0.2,0.3-0.5,0.4-0.5c0.1,0,0.2-0.1,0.9-0.1
			c0-1.3,0.1-1.6,0.1-1.8c0.1-0.2,0.6-0.6,0.8-0.8c0.3-0.2,0.4,0,0.3,0.3c-0.1,0.2-0.1,0.5-0.1,2.3h0.9c0.3,0,0.7,0,0.8,0
			c0.1,0,0.1,0,0.1,0.1c0,0.1-0.1,0.5-0.2,0.6c-0.1,0.1-0.2,0.1-0.9,0.1H175V23.4z"/>
		<path class="st0" d="M182.5,16.2c0-0.6,0-0.8,0-1c0-0.2-0.3-0.3-0.9-0.5c-0.4-0.1-0.4-0.5,0-0.5c0.5-0.1,1.1-0.2,1.5-0.4
			c0.3-0.1,0.5-0.2,0.6-0.2c0.1,0,0.2,0.1,0.2,0.3c-0.1,0.3-0.1,0.5-0.1,1.3v8c0,1.2,0,1.5,0.6,1.5c0.1,0,0.2,0,0.3,0
			c0.3,0,0.4,0.3,0,0.5c-0.5,0.3-1.2,0.5-1.6,0.5c-0.3,0-0.4-0.5-0.5-1.2c-1,0.8-1.8,1.2-2.6,1.2c-1.3,0-2.6-1.4-2.6-3.3
			c0-1.4,0.6-2.5,1.9-3.3c0.8-0.5,1.6-0.7,2.2-0.7c0.4,0,0.8,0.1,1.1,0.2V16.2z M178.5,21.8c0,1.5,0.8,2.8,2.2,2.8
			c0.8,0,1.3-0.3,1.7-0.7c0.1-0.1,0.1-0.2,0.1-0.5v-3.4c0-0.2,0-0.3-0.2-0.4c-0.3-0.3-0.8-0.5-1.6-0.5
			C179.3,19.1,178.5,20,178.5,21.8z"/>
		<path class="st0" d="M187.2,24.6c0,0.5-0.4,1-1,1c-0.4,0-0.8-0.3-0.8-0.9c0-0.5,0.4-0.9,1-0.9C186.8,23.8,187.2,24.2,187.2,24.6z"
			/>
	</g>
	<g>
		<g>
			<path class="st1" d="M54.5,3.3c0-1-0.3-1.7-1.3-1.7h-2v-1h18.5l2.1,6.1h-0.8c-1.5-3.1-3-5.1-6.1-5.1h-7.2c-1.1,0-1.5,0.7-1.5,1.7
				v8.5h5.6c2.6,0,3-1,3-4h0.8v8.9h-0.8c0-3.4-0.5-4-3-4h-5.6V22c0,1.1,0.8,1.4,1.5,1.4h2v1h-8.4v-1h2.1c0.7,0,1.3-0.5,1.3-1.4V3.3z
				"/>
			<path class="st1" d="M83.3,23.4c-1.4,1.1-3.1,1.7-5.1,1.7c-1.5,0-4-0.7-4-3.9c0-1.3,0.5-2.4,1.7-3.3c1.5-1.1,4.3-2,8.4-2.5v-2.1
				c0-2.2-2.1-3.6-3.9-3.6c-2.3,0-3.4,1.5-3.4,2.2v0.4c0.1,0.4,0.2,1.3-0.9,1.3c-0.8,0-1-0.6-1-1c0-2,2.2-3.9,5.4-3.9
				c3.4,0,5.6,2.3,5.6,4.6v7.6c0,1.2,0,3.3,0.7,3.3c0.3,0,0.7-0.6,1.1-1.8l0.9,0.5c-0.7,2.1-1.5,2.3-2.4,2.3c-1.7,0-1.9-1.6-2-2.7
				L83.3,23.4z M84.2,16.5c-3.3,0.6-5.6,1.3-6.9,2.2c-1,0.6-1.4,1.5-1.4,2.5c0,1.8,1.6,2.9,3,2.9c2.1,0,5-1.5,5.4-3.8V16.5z"/>
			<path class="st1" d="M92.6,12.1c0-0.9-1-0.9-2.5-0.9v-1c1.2,0,2.6-0.4,4.2-1.2v2.4c1.2-1.5,2-2.4,4.1-2.4c1.4,0,2.4,0.5,3.2,1.5
				c0.2,0.3,0.4,0.7,0.6,1.3c0.6-1.1,2.1-2.7,4.7-2.7c2.2,0,3.9,1.6,3.9,4.5v8.7c0,0.8,0.4,1.2,1.2,1.2h1.1v1h-6.3v-1h1.3
				c0.7,0,1-0.5,1-1.2v-8.7c0-2.2-1.1-3.5-2.7-3.5c-1.4,0-3.5,1.2-4,3.1v9.1c0,0.8,0.4,1.2,1.2,1.2h1.1v1h-6.4v-1h1.4
				c0.5,0,1.1-0.5,1.1-1.2v-8.5c0-1.8-0.6-3.6-2.8-3.6c-1.2,0-3.3,1-3.7,3.4v8.8c0,0.8,0.4,1.2,1.1,1.2h1.2v1h-6.4v-1h1
				c0.6,0,1.5-0.2,1.5-1.2V12.1z"/>
			<path class="st1" d="M117.2,16.3V17c0,3.6,2.5,7,5.8,7c2.5,0,3.9-1.7,5.4-3.7l0.8,0.6c-2.6,3.3-3.9,4.2-6.6,4.2
				c-5,0-7.1-4.4-7.1-8c0-5.1,3.4-8.4,6.8-8.4c3.6,0,6.5,3.1,6.5,7.6H117.2z M127.2,15.3c-0.1-1.9-0.6-3.4-1.5-4.3
				c-0.8-0.9-2-1.4-3.4-1.4c-2.5,0-4.6,2.3-5.1,5.6H127.2z"/>
			<path class="st1" d="M146,14.1c0.1,0,0.3,0.1,0.2,0.3c-0.2,0.8-0.3,1.5-0.4,2.4c0,0.5-0.5,0.6-0.5,0.1c-0.1-0.9-0.2-1-0.6-1.4
				c-0.5-0.5-1.3-0.8-2.8-0.8c-2,0-3.7,1.3-3.7,4.3c0,3.4,2.1,4.9,4.5,4.9c1.5,0,2-0.4,2.9-1.6c0.3-0.4,0.6-0.2,0.5,0.3
				c-0.2,0.5-0.5,1.2-1.4,1.6c-0.6,0.3-1.5,0.6-2.7,0.6c-3,0-5.2-2-5.2-5.3c0-1.9,0.9-3.4,2.4-4.4c1.2-0.9,2.6-1,3.5-1
				c1.1,0,2.1,0.3,2.6,0.6C145.5,14.4,145.8,14.1,146,14.1z"/>
			<path class="st1" d="M153.8,20.7c0,1.3-0.4,2.1-0.9,2.6c-0.4,0.5-1.5,1.4-3,1.4c-2,0-3.1-1.7-3.1-3.5c0-1.4,0.5-2.2,1.3-2.9
				c0.7-0.6,1.6-1,2.6-1C152.4,17.3,153.8,18.9,153.8,20.7z M150,18.1c-1.7,0-2,1.6-2,2.7c0,1.6,0.7,3.2,2.5,3.2c1.2,0,2-1.1,2-2.8
				C152.5,19.9,151.9,18.1,150,18.1z"/>
			<path class="st1" d="M156.1,23.6c0,0.5-0.4,1-1,1c-0.4,0-0.8-0.3-0.8-0.9c0-0.5,0.4-0.9,1-0.9C155.7,22.8,156.1,23.2,156.1,23.6z
				"/>
			<path class="st1" d="M156.9,26.4c0.9-0.8,1.2-1.3,1.2-1.7c0-0.3-0.1-0.6-0.7-1c-0.2-0.1-0.2-0.4,0-0.6c0.2-0.3,0.5-0.5,0.8-0.5
				c0.6,0,0.9,0.7,0.9,1.3c0,1.5-1.3,2.4-1.9,2.8C156.9,26.9,156.6,26.6,156.9,26.4z"/>
			<path class="st1" d="M166.3,23.1c0,0.3,0.1,0.5,0.3,0.5c0.5,0.1,2.5,0.1,3.1,0.1c0.6-0.1,0.9-0.4,1.3-1.7c0.2-0.5,0.6-0.5,0.6,0
				c0,0.5-0.2,1.5-0.5,2c-0.1,0.2-0.2,0.3-0.5,0.4c-0.4,0.1-4.4,0-5,0c-0.2,0-1.6,0-1.7,0c-0.6,0-0.6-0.5,0-0.5
				c0.9-0.1,1-0.2,1.1-0.7c0-0.4,0-0.7,0-1.4v-4.9c0-0.9,0-1.3,0-1.5c0-0.4-0.1-0.5-1-0.6c-0.6-0.1-0.6-0.5,0-0.5c0.4,0,0.9,0,1.6,0
				c0.8,0,1.5,0,1.8,0c0.5,0,0.5,0.5,0,0.5c-1,0.1-1.1,0.3-1.1,0.6c0,0.4,0,0.6,0,1.5v4.8C166.3,22.5,166.3,22.7,166.3,23.1z"/>
			<path class="st1" d="M174,22.4c0,0.9,0.3,1.3,0.9,1.3c0.4,0,0.5,0,0.8-0.1c0.3-0.1,0.5,0.2,0.1,0.6c-0.4,0.3-0.9,0.6-1.5,0.6
				c-0.7,0-1.4-0.3-1.4-2.1v-4.1h-0.2c-0.7,0-0.9,0-1,0c-0.1,0-0.1-0.1-0.1-0.2c0-0.2,0.3-0.5,0.4-0.5c0.1,0,0.2-0.1,0.9-0.1
				c0-1.3,0.1-1.6,0.1-1.8c0.1-0.2,0.6-0.6,0.8-0.8c0.3-0.2,0.4,0,0.3,0.3c-0.1,0.2-0.1,0.5-0.1,2.3h0.9c0.3,0,0.7,0,0.8,0
				c0.1,0,0.1,0,0.1,0.1c0,0.1-0.1,0.5-0.2,0.6c-0.1,0.1-0.2,0.1-0.9,0.1H174V22.4z"/>
			<path class="st1" d="M181.5,15.2c0-0.6,0-0.8,0-1c0-0.2-0.3-0.3-0.9-0.5c-0.4-0.1-0.4-0.5,0-0.5c0.5-0.1,1.1-0.2,1.5-0.4
				c0.3-0.1,0.5-0.2,0.6-0.2c0.1,0,0.2,0.1,0.2,0.3c-0.1,0.3-0.1,0.5-0.1,1.3v8c0,1.2,0,1.5,0.6,1.5c0.1,0,0.2,0,0.3,0
				c0.3,0,0.4,0.3,0,0.5c-0.5,0.3-1.2,0.5-1.6,0.5c-0.3,0-0.4-0.5-0.5-1.2c-1,0.8-1.8,1.2-2.6,1.2c-1.3,0-2.6-1.4-2.6-3.3
				c0-1.4,0.6-2.5,1.9-3.3c0.8-0.5,1.6-0.7,2.2-0.7c0.4,0,0.8,0.1,1.1,0.2V15.2z M177.5,20.8c0,1.5,0.8,2.8,2.2,2.8
				c0.8,0,1.3-0.3,1.7-0.7c0.1-0.1,0.1-0.2,0.1-0.5v-3.4c0-0.2,0-0.3-0.2-0.4c-0.3-0.3-0.8-0.5-1.6-0.5
				C178.3,18.1,177.5,19,177.5,20.8z"/>
			<path class="st1" d="M186.2,23.6c0,0.5-0.4,1-1,1c-0.4,0-0.8-0.3-0.8-0.9c0-0.5,0.4-0.9,1-0.9C185.8,22.8,186.2,23.2,186.2,23.6z
				"/>
		</g>
	</g>
</g>
</svg>
