<svg xmlns="http://www.w3.org/2000/svg" viewBox="0 0 88.85 29.19"><g data-name="レイヤー 2"><path d="M10.2 11.13a6.31 6.31 0 00-.2-1.67 3.15 3.15 0 00-.57-1.16 2.32 2.32 0 00-.9-.69 3 3 0 00-1.18-.23 3.15 3.15 0 00-1 .18 7 7 0 00-1.1.44 13.07 13.07 0 00-1.16.69A11.35 11.35 0 003 9.58v7.87c0 .62 0 1.16.09 1.61s.08.82.13 1.13.11.55.16.76V21H0a6.83 6.83 0 00.17-.76c0-.31.1-.68.13-1.13s.06-1 .09-1.61 0-1.34 0-2.17V9.56C.39 8.94.33 8.4.3 8S.22 7.13.17 6.83A6.57 6.57 0 000 6.06V6h3.38a6.07 6.07 0 00-.18.86c0 .35-.09.79-.14 1.31.39-.31.81-.62 1.26-.92a12.9 12.9 0 011.39-.75 10.52 10.52 0 011.42-.57 5.11 5.11 0 011.42-.22 4.75 4.75 0 011.45.22 3.92 3.92 0 011.13.6 3.7 3.7 0 01.82.9 4.22 4.22 0 01.5 1.1 15.64 15.64 0 011.31-1 11.82 11.82 0 011.47-.9A9.24 9.24 0 0116.79 6a5.32 5.32 0 011.54-.25 4.28 4.28 0 011.94.4 3.72 3.72 0 011.3 1 4.06 4.06 0 01.73 1.47 6.36 6.36 0 01.23 1.68v7.17c0 .62.05 1.16.09 1.61s.08.82.14 1.13.11.55.16.76V21h-3.36c.05-.21.11-.46.16-.76s.1-.68.14-1.13.07-1 .09-1.61 0-1.34 0-2.17v-4.2a4.3 4.3 0 00-.78-2.84 2.6 2.6 0 00-2.08-.91 3.26 3.26 0 00-1 .18A7.64 7.64 0 0015 8a11.18 11.18 0 00-1.18.71 13.47 13.47 0 00-1.1.86 2.07 2.07 0 010 .35v7.49c0 .62.05 1.16.09 1.61s.08.82.13 1.13a6.83 6.83 0 00.17.76V21H9.79c.05-.21.11-.46.16-.76s.09-.68.13-1.13.07-1 .09-1.61 0-1.34 0-2.17zm21.11 4.75a4.28 4.28 0 00.77 2.84 2.55 2.55 0 002.07.91 3.38 3.38 0 001.05-.2 7.82 7.82 0 001.21-.53 10.56 10.56 0 001.25-.77 10.6 10.6 0 001.15-.93V9.56c0-.62 0-1.16-.09-1.61s-.08-.82-.13-1.12a6.57 6.57 0 00-.17-.77V6h3.38a6.57 6.57 0 00-.17.77c0 .3-.09.67-.13 1.12s-.07 1-.08 1.61 0 1.34 0 2.17v5.72c0 .62 0 1.16.08 1.61s.09.82.13 1.13a6.83 6.83 0 00.17.76V21h-3.39c.06-.25.12-.56.19-.94a12.31 12.31 0 00.13-1.49c-.4.34-.83.67-1.29 1a12.82 12.82 0 01-1.45.89 9.19 9.19 0 01-1.53.64 5 5 0 01-1.46.2 4.25 4.25 0 01-2-.4 3.76 3.76 0 01-1.31-1 4.18 4.18 0 01-.69-1.5 6.38 6.38 0 01-.23-1.69V9.54c0-.62 0-1.16-.08-1.61s-.09-.82-.13-1.12a6.57 6.57 0 00-.17-.77V6h3.39a6.79 6.79 0 00-.16.77c0 .3-.1.67-.14 1.12s-.06 1-.08 1.61 0 1.34 0 2.17zm16.6-4.15V9.56c0-.62 0-1.16-.09-1.61s-.08-.82-.13-1.12a6.57 6.57 0 00-.17-.77V6h3.39a5.13 5.13 0 00-.16.77c-.05.3-.1.67-.14 1.12s-.07 1-.08 1.61 0 1.34 0 2.17v7.75a12 12 0 01-.53 3.49 9 9 0 01-1.18 2.56 10.28 10.28 0 01-1.78 2 25.83 25.83 0 01-2.18 1.72l-.28-.35a9.69 9.69 0 001.65-1.92 8.67 8.67 0 001-2.13 12.11 12.11 0 00.51-2.44 28.14 28.14 0 00.14-2.87zM47.6 1.57a1.54 1.54 0 01.12-.57 2 2 0 01.33-.5 1.51 1.51 0 01.49-.33 1.57 1.57 0 011.25 0 1.56 1.56 0 01.5.33 1.56 1.56 0 01.33.5 1.39 1.39 0 01.13.61 1.52 1.52 0 01-.46 1.13 1.52 1.52 0 01-1.12.45 1.61 1.61 0 01-.63-.19 1.72 1.72 0 01-.49-.34 2 2 0 01-.33-.5 1.59 1.59 0 01-.12-.59zm11.78 14.31a4.28 4.28 0 00.77 2.84 2.55 2.55 0 002.07.91 3.38 3.38 0 001.05-.2 7.43 7.43 0 001.21-.53 10.56 10.56 0 001.25-.77 10.6 10.6 0 001.15-.93V9.56c0-.62-.06-1.16-.1-1.56a8.92 8.92 0 00-.13-1.12 6.57 6.57 0 00-.17-.77V6h3.39a5.13 5.13 0 00-.16.77c0 .3-.1.67-.14 1.12s-.07 1-.08 1.61 0 1.34 0 2.17v5.72c0 .62 0 1.16.08 1.61s.09.82.14 1.13a5.25 5.25 0 00.16.76V21h-3.39c.06-.25.12-.56.19-.94a12.31 12.31 0 00.13-1.49c-.4.34-.83.67-1.29 1a12.82 12.82 0 01-1.45.89 9.46 9.46 0 01-1.52.64 5.12 5.12 0 01-1.54.2 4.25 4.25 0 01-1.94-.4 3.76 3.76 0 01-1.31-1 4.18 4.18 0 01-.75-1.5 6.38 6.38 0 01-.23-1.69V9.54c0-.62 0-1.16-.09-1.61s-.09-.82-.13-1.12a6.57 6.57 0 00-.17-.77V6h3.39a6.79 6.79 0 00-.16.77c-.05.3-.1.67-.13 1.12s-.07 1-.09 1.61 0 1.34 0 2.17zm18.98 0a4.34 4.34 0 00.77 2.84 2.59 2.59 0 002.08.91 3.38 3.38 0 001.05-.2 8.26 8.26 0 001.21-.53 10.46 10.46 0 001.24-.77 9.72 9.72 0 001.15-.93V9.56c0-.62-.06-1.16-.09-1.56s-.08-.82-.13-1.12-.11-.56-.17-.77V6h3.38a6.79 6.79 0 00-.16.77c0 .3-.09.67-.13 1.12s-.07 1-.09 1.61 0 1.34 0 2.17v5.72c0 .62 0 1.16.09 1.61s.08.82.13 1.13a7.05 7.05 0 00.16.76V21h-3.38c.06-.25.12-.56.18-.94a12 12 0 00.14-1.49c-.4.34-.83.67-1.29 1a12.11 12.11 0 01-1.46.89 9.46 9.46 0 01-1.52.64 5.07 5.07 0 01-1.52.2 4.28 4.28 0 01-1.94-.4 3.72 3.72 0 01-1.3-1 4 4 0 01-.76-1.5 6.38 6.38 0 01-.23-1.69V9.54c0-.62 0-1.16-.09-1.61s-.08-.82-.13-1.12a6.79 6.79 0 00-.16-.77V6h3.38c0 .21-.11.46-.16.77s-.09.67-.13 1.12-.07 1-.09 1.61 0 1.34 0 2.17z" fill="#fff" data-name="レイヤー 1"/></g></svg>