<svg xmlns="http://www.w3.org/2000/svg" viewBox="0 0 104.46 21.84"><g data-name="レイヤー 2"><path d="M.94.38L16 16.44V3.95c0-.62 0-1.16-.09-1.61s-.09-.84-.14-1.14a6.35 6.35 0 00-.17-.76V.38h2.61v.06a6.57 6.57 0 00-.16.76 11.43 11.43 0 00-.13 1.14c0 .45-.07 1-.09 1.61s0 1.34 0 2.17v15.56h-.51L2.2 5.64v12.17c0 .62 0 1.16.08 1.61s.09.82.14 1.13a7.05 7.05 0 00.16.76v.06H0v-.06c.06-.21.11-.46.17-.76s.1-.68.14-1.13.07-1 .09-1.61 0-1.34 0-2.17V3.95c0-.62-.05-1.16-.09-1.61S.22 1.5.17 1.2.06.64 0 .44V.38zm33.9-.01h3.32c1 0 1.87 0 2.58-.07a12.37 12.37 0 001.45-.15l-.72 1.94c-.32-.08-.7-.16-1.13-.23s-.82-.11-1.35-.17-1.15-.08-1.84-.08h-.84l-1 .05-1.07.06v8q1.51 0 2.73-.09c.81-.05 1.5-.09 2.06-.14s1.25-.13 1.76-.21l-.45 2.13c-.68-.09-1.37-.18-2.07-.25s-1.26-.13-2-.19-1.39-.08-2.05-.08v9.21a31 31 0 003.25-.1c1-.1 1.81-.21 2.54-.34a21.05 21.05 0 002.3-.48l-.43 2.37H31.2v-.06a6.83 6.83 0 00.17-.76c.05-.31.1-.68.14-1.13s.07-1 .09-1.61 0-1.34 0-2.17V3.95c0-.62-.05-1.16-.09-1.61s-.09-.84-.14-1.14a6.35 6.35 0 00-.17-.76V.38zM69.1 3.15L75 17.37l5.7-14c.22-.57.39-1.06.5-1.46a4.4 4.4 0 00.16-1 2.65 2.65 0 000-.27.87.87 0 000-.21V.38h2.9v.06a4.43 4.43 0 00-.64 1c-.23.47-.49 1-.8 1.75L74.9 21.84h-1.11L68.09 8l-5.2 13.83h-1.1l-7.18-17.9c-.17-.42-.35-.83-.53-1.22s-.35-.74-.51-1-.31-.58-.44-.8-.23-.4-.29-.47V.38h4.06v.06a1.49 1.49 0 000 .25v.2A5.7 5.7 0 0057 2a7.82 7.82 0 00.43 1.35l5.51 13.91 5.26-14zm34.07.57h-.32a4.34 4.34 0 00-.37-.76 3.8 3.8 0 00-.67-.8 3.43 3.43 0 00-1-.62 3.49 3.49 0 00-1.39-.25 3.4 3.4 0 00-1.28.22 2.64 2.64 0 00-.93.61 2.56 2.56 0 00-.56.94 3.51 3.51 0 00-.19 1.2 3.73 3.73 0 00.59 2 11.41 11.41 0 001.49 1.89c.59.63 1.24 1.25 1.93 1.88a22.17 22.17 0 011.91 1.97 10.82 10.82 0 011.49 2.11 4.91 4.91 0 01.59 2.38 5.87 5.87 0 01-.33 1.92 4.91 4.91 0 01-1 1.72 5.24 5.24 0 01-1.78 1.24 6.48 6.48 0 01-2.57.47 8.1 8.1 0 01-1.59-.15 11.77 11.77 0 01-1.4-.38 10.26 10.26 0 01-1.14-.49c-.33-.18-.61-.34-.83-.49l.34-3.24h.37a5 5 0 00.47 1.32 4.55 4.55 0 001 1.09 4.14 4.14 0 001.22.77 3.9 3.9 0 001.51.28 3.56 3.56 0 001.34-.23 3.28 3.28 0 001-.62 2.77 2.77 0 00.65-1 3.27 3.27 0 00.23-1.22 4.38 4.38 0 00-.34-1.71 6.62 6.62 0 00-.89-1.48A12.09 12.09 0 0099.45 13c-.47-.44-.94-.88-1.43-1.32s-1-.9-1.43-1.37a11 11 0 01-1.24-1.5 7.39 7.39 0 01-.89-1.72 5.65 5.65 0 01-.34-2A4.75 4.75 0 0194.57 3a5 5 0 011.19-1.59 5.37 5.37 0 011.67-1A5.59 5.59 0 0199.37 0a7 7 0 011.34.12 9 9 0 011.11.28 7.51 7.51 0 01.86.32l.6.26z" fill="#fff" data-name="レイヤー 1"/></g></svg>