<?xml version="1.0" encoding="utf-8"?>
<!-- Generator: Adobe Illustrator 25.0.1, SVG Export Plug-In . SVG Version: 6.00 Build 0)  -->
<svg version="1.1" id="レイヤー_1" xmlns="http://www.w3.org/2000/svg" xmlns:xlink="http://www.w3.org/1999/xlink" x="0px"
	 y="0px" viewBox="0 0 63.1 18.8" style="enable-background:new 0 0 63.1 18.8;" xml:space="preserve">
<style type="text/css">
	.st0{fill:#FFFFFF;}
</style>
<g>
	<path class="st0" d="M4.2,7.2c0.4,0,0.6,0,0.9,0C5,7.4,5,7.6,5,8v2.1c0,0.4,0,0.6,0.1,0.9c-0.3,0-0.4,0-0.7,0H4.2H2.1v2.3
		c1.1-0.3,1.5-0.4,2-0.5c-0.2-0.5-0.3-0.8-0.5-1.1l-0.2-0.3l0.5-0.2L4,11.4c0.4,0.6,0.9,1.4,1.2,1.9l0.2,0.3l-0.8,0.5l-0.1-0.4
		c-0.1-0.3-0.2-0.4-0.2-0.7C3.3,13.5,2.1,14,1,14.3l-0.4,0.2l-0.3-0.9l0.5-0.1c0.2,0,0.3-0.1,0.5-0.1V8c0-0.4,0-0.5,0-0.8
		C1.1,7.4,1,7.4,0.7,7.6L0.5,7.9L0.1,7.5l0.3-0.2c0.9-0.8,1.6-1.9,2.1-3l0.1-0.4l0.9,0.3L3.4,4.4c0.5,0.6,1.1,1.1,2,1.7l0.4,0.2
		L5.2,7L4.9,6.7C4.2,6,3.6,5.4,3.2,4.8c-0.5,0.9-1,1.6-1.9,2.4c0.2,0,0.4,0,0.8,0h0.7V6.6c0-0.2,0-0.3-0.1-0.7h0.9
		c0,0.4-0.1,0.5-0.1,0.7v0.5H4.2z M2.1,7.6v1.1h2.1V7.6H2.1z M2.1,10.5h2.1V9.2H2.1V10.5z M8.5,7.6c0,2.6,0.9,4.7,2.5,6l0.3,0.2
		l-0.7,0.9l-0.2-0.3C9.2,13,8.6,11.7,8.3,9.8c-0.3,2-0.9,3.2-2.5,4.8l-0.3,0.3l-0.4-0.4l0.3-0.2c1.5-1.5,2.2-3.6,2.2-6.5V6.4H6.9
		C6.7,7.2,6.3,8,5.9,8.7L5.8,9L5.3,8.8l0.2-0.3C6,7.3,6.4,5.9,6.6,4.4l0-0.5l1,0.2L7.4,4.5C7.3,5,7.2,5.4,7.1,5.9h3c0.6,0,0.8,0,1,0
		v0.4C10.8,7,10.4,7.8,9.8,8.7L9.7,9.1L9.2,8.9l0.2-0.3C9.8,7.7,10,7,10.2,6.4H8.5V7.6z"/>
	<path class="st0" d="M14.4,8c0-0.3,0-0.3,0-0.5c-0.5,0.3-0.9,0.5-1.5,0.7l-0.4,0.2L12.2,8l0.4-0.1c2-0.9,3.6-2.1,4.5-3.6l0.2-0.4
		l1,0.3l-0.3,0.4c1.2,1.2,3,2.2,4.7,2.8l0.5,0.1l-0.6,0.9l-0.4-0.2c-0.4-0.2-0.9-0.4-1.2-0.6c0,0.1,0,0.2,0,0.5v2.5
		c0,0.4,0,0.5,0,0.8c-0.3,0-0.3,0-0.6,0h-0.2h-2.7c0.3,0.5,0.8,1,1.3,1.4l0.1-0.1c0.7-0.4,1.5-0.8,2.1-1.2l0.3-0.3l0.7,0.7l-0.5,0.2
		c-0.8,0.4-1.7,0.8-2.3,1c0.7,0.4,1.7,0.7,3,1l0.6,0.1l-0.5,0.9l-0.5-0.1c-2.6-0.6-4-1.6-4.9-3.4h-1.8v2.4c0.5,0,1.8-0.2,2.4-0.3
		l0.4-0.1l0.1,0.5l-0.4,0.1c-1.2,0.3-2.8,0.6-4.3,0.9l-0.5,0.1l-0.2-0.9l0.5,0c0.6,0,0.8-0.1,1.2-0.1V8z M17.3,6.6
		c0-0.2,0-0.3-0.1-0.7h0.9c0,0.4-0.1,0.5-0.1,0.7v0.6h2.2h0.3c-1-0.6-2.1-1.5-2.9-2.3c-0.6,0.8-1.7,1.7-2.7,2.3c0,0,0,0-0.1,0h0h0
		h0.1h2.2V6.6z M15.3,8.9h5V7.7h-5V8.9z M20.2,10.8V9.4h-5v1.3H20.2z"/>
	<path class="st0" d="M29.6,4.7c0-0.2,0-0.3-0.1-0.7h1c0,0.4-0.1,0.5-0.1,0.7v0.8h3.6c0.3,0,0.4,0,0.7,0V6c-0.3,0-0.4,0-0.7,0h-7.7
		v2.8c0,2.3-0.4,3.9-1.4,5.4l-0.2,0.4l-0.4-0.2l0.3-0.4c0.7-1.5,0.9-3,0.9-5.2V6.4c0-0.5,0-0.6-0.1-1c0.2,0,0.5,0,0.9,0h3.3V4.7z
		 M33.2,10.7c0.4,0,0.6,0,0.9,0c0,0.3-0.1,0.5-0.1,0.9v2.1c0,0.4,0,0.6,0.1,0.9c-0.3,0-0.4,0-0.7,0h-0.2H28c-0.4,0-0.6,0-0.9,0
		c0-0.3,0.1-0.4,0.1-0.9v-2.1c0-0.4,0-0.6-0.1-0.9c0.2,0,0.5,0,0.9,0h1.9V7.1c0-0.2,0-0.3-0.1-0.7h1c0,0.4-0.1,0.5-0.1,0.7v1.1h3.1
		c0.3,0,0.4,0,0.7,0v0.6c-0.3,0-0.4,0-0.7,0h-3.1v2H33.2z M28,11.2V14h5.2v-2.8H28z"/>
	<path class="st0" d="M42.1,9.5H45c0.4,0,0.6,0,0.9,0c0,0.3-0.1,0.5-0.1,0.9v0.5h0.6c0.3,0,0.4,0,0.7,0v0.6c-0.3,0-0.4,0-0.7,0h-0.6
		v0.5c0,0.4,0,0.6,0.1,0.9c-0.3,0-0.4,0-0.7,0H45h-2.9v1.4c0,0.5-0.2,0.6-0.6,0.6c-0.3,0-0.9-0.1-1.6-0.3l-0.5-0.1l-0.1-0.5
		c0.5,0.1,1.2,0.1,1.5,0.1c0.3,0,0.4-0.1,0.4-0.3v-1h-3.2c-0.3,0-0.4,0-0.7,0v-0.6c0.3,0,0.5,0,0.7,0h3.2v-0.9h-4.2
		c-0.3,0-0.4,0-0.7,0v-0.6c0.3,0,0.5,0,0.7,0h4.2V10h-3.2c-0.3,0-0.4,0-0.7,0V9.5c0.3,0,0.5,0,0.7,0h3.2V8.7h-2.6
		c-0.4,0-0.6,0-0.9,0c0-0.3,0.1-0.4,0.1-0.8V7.4c0-0.4,0-0.5-0.1-0.8c0.2,0,0.5,0,0.9,0h2.6V5.8h-4c-0.3,0-0.4,0-0.7,0V5.2
		c0.3,0,0.5,0,0.7,0h4V4.7c0-0.2,0-0.3-0.1-0.7h1c0,0.4-0.1,0.5-0.1,0.7v0.6h4c0.3,0,0.4,0,0.7,0v0.6c-0.3,0-0.4,0-0.7,0h-4v0.9h2.6
		c0.4,0,0.6,0,0.9,0c0,0.3-0.1,0.5-0.1,0.8v0.4c0,0.4,0,0.5,0.1,0.8c-0.3,0-0.4,0-0.7,0h-0.2h-2.6V9.5z M38.7,7.1v1.1h2.6V7.1H38.7z
		 M44.7,8.2V7.1h-2.6v1.1H44.7z M42.1,10.9H45V10h-2.9V10.9z M42.1,12.2H45v-0.9h-2.9V12.2z"/>
	<path class="st0" d="M49.2,6.8c-0.3,0-0.4,0-0.7,0V6.3c0.3,0,0.5,0,0.7,0h3V4.7c0-0.2,0-0.3-0.1-0.7h0.9C53,4.3,53,4.5,53,4.7v1.6
		h1.4V4.7c0-0.2,0-0.3-0.1-0.7h0.9c0,0.4-0.1,0.5-0.1,0.7v1.6h3c0.3,0,0.4,0,0.7,0v0.6c-0.3,0-0.4,0-0.7,0h-1.8l0,0
		c-0.5,0.7-0.6,0.9-0.9,1.3h2.4c0.3,0,0.4,0,0.7,0v0.6c-0.3,0-0.4,0-0.7,0h-3.7v1h3.1c0.3,0,0.4,0,0.7,0v0.6c-0.3,0-0.4,0-0.7,0
		h-3.1v1.1h4.2c0.3,0,0.4,0,0.7,0v0.6c-0.3,0-0.4,0-0.7,0h-3.8c1.2,0.9,2.6,1.5,4,1.8l0.6,0.1l-0.5,0.9l-0.5-0.2
		c-1.5-0.5-3-1.3-4-2.3V14c0,0.2,0,0.4,0.1,0.7h-1l0-0.1c0-0.3,0-0.4,0-0.6v-1.9c-1.2,1-2.7,1.7-4.3,2.2l-0.4,0.2l-0.2-0.4l0.5-0.1
		c1.4-0.5,2.8-1.4,3.9-2.3h-3.5c-0.3,0-0.4,0-0.7,0v-0.6c0.3,0,0.5,0,0.7,0h4.1v-1.1h-3c-0.3,0-0.4,0-0.7,0V9.6c0.3,0,0.5,0,0.7,0h3
		v-1h-3.6c-0.3,0-0.4,0-0.7,0V8.1c0.3,0,0.5,0,0.7,0h2.1c-0.1-0.5-0.4-1-0.5-1.4H49.2z M50.2,4.4l0.2,0.2c0.4,0.4,0.6,0.7,0.9,1
		l0.3,0.3l-0.9,0.4l-0.1-0.3c-0.2-0.5-0.5-0.9-0.7-1.3l-0.2-0.2L50,4.1L50.2,4.4z M51.7,6.8c0.3,0.4,0.5,0.8,0.8,1.3l0,0.1h2.3
		c0.3-0.5,0.4-0.9,0.6-1.4H51.7z M58,4.5l-0.3,0.3l-0.2,0.3c-0.4,0.4-0.6,0.7-0.8,0.9l-0.2,0.3L56,6l0.2-0.3
		c0.3-0.5,0.5-0.9,0.7-1.3L57,4.1L58,4.5z"/>
</g>
</svg>
