<?xml version="1.0" encoding="utf-8"?>
<!-- Generator: Adobe Illustrator 25.0.1, SVG Export Plug-In . SVG Version: 6.00 Build 0)  -->
<svg version="1.1" id="レイヤー_1" xmlns="http://www.w3.org/2000/svg" xmlns:xlink="http://www.w3.org/1999/xlink" x="0px"
	 y="0px" viewBox="0 0 113.3 18.8" style="enable-background:new 0 0 113.3 18.8;" xml:space="preserve">
<style type="text/css">
	.st0{fill:#FFFFFF;}
</style>
<g>
	<path class="st0" d="M9,5.2V7C8.8,7,8.5,6.9,8.1,6.9C7.3,6.9,6.5,7.3,5.8,8c-0.6,0.6-1,1.2-1.2,1.9v4.7H2.9V5.4h1.6v2.3
		c0.3-0.4,0.6-0.8,0.9-1.1C6.4,5.6,7.5,5.2,9,5.2z"/>
	<path class="st0" d="M11.5,6.4c0.8-0.8,1.7-1.1,3-1.1c1.1,0,2.1,0.4,3,1.2c0.8,0.8,1.1,1.9,1.1,3.5h-6.6c0,1.1,0.3,2,0.8,2.5
		c0.5,0.5,1.1,0.7,1.9,0.7c0.8,0,1.3-0.2,1.6-0.5c0.4-0.4,0.6-0.8,0.6-1.3h1.8c-0.2,1-0.6,1.7-1.1,2.2c-0.7,0.7-1.7,1.1-3,1.1
		c-1.3,0-2.4-0.4-3.2-1.2c-0.9-0.9-1.3-2.1-1.3-3.5S10.6,7.3,11.5,6.4z M12.7,7.3c-0.4,0.4-0.6,0.8-0.7,1.4h4.7c0-0.5-0.2-1-0.7-1.5
		c-0.4-0.4-0.9-0.6-1.6-0.6C13.7,6.6,13.1,6.8,12.7,7.3z"/>
	<path class="st0" d="M21.6,6.2c0.7-0.7,1.6-1,2.8-1c1.3,0,2.3,0.3,2.9,0.9c0.5,0.5,0.8,1.1,0.8,1.8h-1.6c-0.1-0.4-0.2-0.7-0.3-0.8
		c-0.3-0.3-0.9-0.5-1.8-0.5c-0.5,0-1,0.2-1.3,0.5c-0.3,0.3-0.4,0.6-0.4,0.9c0,0.2,0.1,0.4,0.2,0.6C23,8.8,23.7,9,24.9,9.3
		c0.7,0.2,1.3,0.3,1.8,0.5c0.4,0.2,0.8,0.4,1,0.6c0.4,0.4,0.7,1,0.7,1.6c0,0.7-0.3,1.3-0.8,1.8c-0.7,0.7-1.7,1-3,1
		c-1.4,0-2.4-0.3-3-1c-0.5-0.5-0.8-1.2-0.8-2.1h1.6c0.1,0.5,0.2,0.8,0.4,1.1c0.4,0.4,1,0.6,1.7,0.6c0.9,0,1.6-0.2,1.9-0.5
		c0.2-0.2,0.3-0.5,0.3-0.8c0-0.2-0.1-0.5-0.4-0.7c-0.2-0.2-0.6-0.4-1.1-0.5c-1-0.2-1.7-0.4-2.2-0.6c-0.6-0.2-1-0.4-1.3-0.7
		c-0.5-0.5-0.7-1-0.7-1.6C20.8,7.3,21.1,6.7,21.6,6.2z"/>
	<path class="st0" d="M31.3,2.2h1.6v3.2h2.8v1.3h-2.8V12c0,0.3,0.1,0.6,0.4,0.9c0.2,0.2,0.6,0.3,1.1,0.3c0.8,0,1.4-0.2,2.1-0.6v1.6
		c-0.6,0.3-1.3,0.5-2,0.5c-1.1,0-1.9-0.2-2.4-0.7c-0.5-0.5-0.8-1.1-0.8-1.8V6.7h-2V5.4h2V2.2z"/>
	<path class="st0" d="M38.9,6.1c0.6-0.6,1.5-0.9,2.6-0.9c1.4,0,2.4,0.3,3,0.9C45,6.7,45.3,7.3,45.3,8v5.2c0,0.6,0.2,1.1,0.7,1.4h-2
		c-0.2-0.2-0.3-0.6-0.3-1.1c-0.8,0.8-1.9,1.2-3.1,1.2c-1,0-1.8-0.3-2.4-0.8c-0.5-0.5-0.7-1.1-0.7-1.7c0-0.8,0.2-1.4,0.7-1.9
		c0.5-0.5,1.3-0.9,2.3-1.1c0.7-0.1,1.2-0.2,1.7-0.4c0.7-0.2,1.2-0.3,1.5-0.5c0-0.4-0.2-0.8-0.5-1.1s-0.8-0.5-1.4-0.5
		c-0.8,0-1.3,0.2-1.6,0.5c-0.2,0.2-0.4,0.5-0.5,0.9h-1.8C38,7.3,38.3,6.7,38.9,6.1z M43.6,9.9c-0.3,0.1-0.6,0.2-0.9,0.2
		c-0.9,0.2-1.6,0.4-2.1,0.5c-0.4,0.1-0.8,0.3-1,0.5c-0.3,0.3-0.4,0.6-0.4,0.9c0,0.4,0.1,0.7,0.4,1c0.2,0.2,0.5,0.2,1.1,0.2
		c0.9,0,1.7-0.3,2.3-0.9c0.4-0.4,0.6-0.7,0.7-0.8V9.9z"/>
	<path class="st0" d="M47.9,5.4h1.6v6.2c0,0.7,0.2,1.1,0.5,1.5c0.3,0.3,0.7,0.4,1.1,0.4c0.7,0,1.3-0.3,1.9-0.8
		c0.8-0.8,1.2-1.7,1.2-2.5V5.4h1.6v9.2h-1.6v-1.6c-0.9,1.2-1.9,1.8-3.2,1.8c-1.1,0-2-0.2-2.5-0.7s-0.7-1.1-0.7-1.9V5.4z"/>
	<path class="st0" d="M64.4,5.2V7c-0.2-0.1-0.5-0.1-0.9-0.1c-0.8,0-1.6,0.4-2.3,1.1c-0.6,0.6-1,1.2-1.2,1.9v4.7h-1.6V5.4H60v2.3
		c0.3-0.4,0.6-0.8,0.9-1.1C61.7,5.6,62.9,5.2,64.4,5.2z"/>
	<path class="st0" d="M66.7,6.1c0.6-0.6,1.5-0.9,2.6-0.9c1.4,0,2.4,0.3,3,0.9c0.5,0.5,0.8,1.2,0.8,1.9v5.2c0,0.6,0.2,1.1,0.7,1.4h-2
		c-0.2-0.2-0.3-0.6-0.3-1.1c-0.8,0.8-1.9,1.2-3.1,1.2c-1,0-1.8-0.3-2.4-0.8c-0.5-0.5-0.7-1.1-0.7-1.7c0-0.8,0.2-1.4,0.7-1.9
		c0.5-0.5,1.3-0.9,2.3-1.1C68.9,9.1,69.5,9,70,8.8c0.7-0.2,1.2-0.3,1.5-0.5c0-0.4-0.2-0.8-0.5-1.1s-0.8-0.5-1.4-0.5
		c-0.8,0-1.3,0.2-1.6,0.5c-0.2,0.2-0.4,0.5-0.5,0.9h-1.8C65.8,7.3,66.1,6.7,66.7,6.1z M71.4,9.9c-0.3,0.1-0.6,0.2-0.9,0.2
		c-0.9,0.2-1.6,0.4-2.1,0.5c-0.4,0.1-0.8,0.3-1,0.5C67.2,11.4,67,11.7,67,12c0,0.4,0.1,0.7,0.4,1c0.2,0.2,0.5,0.2,1.1,0.2
		c0.9,0,1.7-0.3,2.3-0.9c0.4-0.4,0.6-0.7,0.7-0.8V9.9z"/>
	<path class="st0" d="M77.4,14.6h-1.6V5.4h1.6V7c1-1.2,2-1.8,3.1-1.8c1.1,0,2,0.3,2.6,1c0.4,0.4,0.7,1,0.7,1.6v6.8h-1.6V8.2
		c0-0.5-0.2-0.9-0.5-1.2s-0.8-0.5-1.4-0.5c-0.5,0-1.1,0.3-1.6,0.8C77.8,8.2,77.4,9,77.4,10V14.6z"/>
	<path class="st0" d="M86.9,2.2h1.6v3.2h2.8v1.3h-2.8V12c0,0.3,0.1,0.6,0.4,0.9c0.2,0.2,0.6,0.3,1.1,0.3c0.8,0,1.4-0.2,2.1-0.6v1.6
		c-0.6,0.3-1.3,0.5-2,0.5c-1.1,0-1.9-0.2-2.4-0.7c-0.5-0.5-0.8-1.1-0.8-1.8V6.7h-2V5.4h2V2.2z"/>
</g>
</svg>
