<svg xmlns="http://www.w3.org/2000/svg" viewBox="0 0 16.71 97.94"><g data-name="レイヤー 2"><path d="M13.9 97.42a7.49 7.49 0 001-3.75c0-2.13-1.12-3.38-2.76-3.38s-2.37.86-3.21 3C8 96 6.67 97.61 4.39 97.61 1.87 97.61 0 95.52 0 92.38a7.34 7.34 0 01.79-3.58l1.71.58a6.36 6.36 0 00-.77 3.07c0 2.21 1.32 3 2.42 3 1.51 0 2.26-1 3.12-3.22 1.06-2.74 2.38-4.13 4.75-4.13s4.66 1.85 4.66 5.67a8.27 8.27 0 01-1 4.12zm2.01-27.75a10.28 10.28 0 01.77 4.27c0 4.56-2.88 8-8.18 8-5.07 0-8.5-3.44-8.5-8.45a8.62 8.62 0 01.72-3.84l1.7.5a7.67 7.67 0 00-.67 3.27c0 3.79 2.43 6.31 6.67 6.31 4 0 6.51-2.28 6.51-6.22a8.34 8.34 0 00-.67-3.41zM.48 62.74a21.43 21.43 0 01-.34-4c0-2.23.41-3.67 1.32-4.68a4 4 0 013.08-1.27 4.24 4.24 0 014.12 3h.08c.43-1.24 1.58-2 3.26-2.37a25.27 25.27 0 004.44-1.25v2.16a21.57 21.57 0 01-3.86 1.08c-2.24.48-3.08 1.34-3.15 3.24v2h7v2.09zm7.37-2.09v-2.14c0-2.23-1.23-3.65-3.07-3.65-2.09 0-3 1.52-3 3.72a9 9 0 00.19 2.07zm.33-28.97c5.57 0 8.53 3.38 8.53 7.51s-3.32 7.27-8.21 7.27C3.36 46.46 0 43.27 0 39s3.38-7.32 8.18-7.32zm.27 12.55c3.45 0 6.55-1.87 6.55-5.16s-3-5.18-6.72-5.18c-3.22 0-6.58 1.68-6.58 5.16s3.2 5.18 6.75 5.18zM.26 24.65v-2.09h14.43v-6.91h1.75v9zM.26 9V6.91h14.43V0h1.75v9z" fill="#fff" data-name="レイヤー 1"/></g></svg>