<svg xmlns="http://www.w3.org/2000/svg" viewBox="0 0 300 24.96"><g data-name="レイヤー 2"><path d="M12.71 5.84a11.17 11.17 0 00-1-1.8 8.61 8.61 0 00-1.35-1.59 6.86 6.86 0 00-1.7-1.12 5 5 0 00-2-.42A5.37 5.37 0 004 1.5a2.25 2.25 0 00-1 2.13 2.63 2.63 0 00.47 1.58 4.5 4.5 0 001.22 1.17 12.33 12.33 0 001.78.94l2 .86c.69.3 1.36.61 2 1a8.12 8.12 0 011.78 1.22 5.76 5.76 0 011.3 1.6 5 5 0 01.45 2.24 5.25 5.25 0 01-.51 2.4 4.83 4.83 0 01-1.37 1.66 6 6 0 01-2 1 9.19 9.19 0 01-2.45.31 8.55 8.55 0 01-1.48-.13c-.51-.09-1-.19-1.47-.29l-1.29-.3a5.09 5.09 0 00-.92-.13 2 2 0 00-.6.1L1.3 19c-.17-1-.36-2.09-.59-3.12S.25 13.81 0 12.74l.37-.2A21.44 21.44 0 001.6 14.6a13.46 13.46 0 001.63 2 9.16 9.16 0 002 1.48 4.85 4.85 0 002.37.6 6.41 6.41 0 001.59-.19 3.92 3.92 0 001.35-.58 2.86 2.86 0 00.92-1 3.28 3.28 0 00.34-1.57A3.17 3.17 0 0011 13a8 8 0 00-2-1.55 23.43 23.43 0 00-2.66-1.24A19.12 19.12 0 013.63 9a7.87 7.87 0 01-2-1.67 3.62 3.62 0 01-.86-2.46 4.76 4.76 0 01.42-2 4.65 4.65 0 011.15-1.55A5.08 5.08 0 014 .34 5.93 5.93 0 016 0a12 12 0 011.93.14l1.63.31 1.62.33a9.09 9.09 0 001.7.16v2.48c0 .81.12 1.58.23 2.42zM25 17.9a5.73 5.73 0 00.63.11l.79.12.88.1h.85a14.77 14.77 0 003.01-.23 8.66 8.66 0 002.47-.9 10.16 10.16 0 002.11-1.59 19.57 19.57 0 002-2.33l.31.26-2.58 5.7c-.33 0-.66-.07-1-.09s-.67 0-1 0H21.19c-.55 0-1.1 0-1.65.09v-.34a5.85 5.85 0 001.59-.31 1.67 1.67 0 00.85-.71 3 3 0 00.36-1.26c.05-.52.07-1.18.07-2V5.05c0-.8 0-1.45-.07-2A3 3 0 0022 1.82a1.62 1.62 0 00-.88-.71 6.14 6.14 0 00-1.63-.32V.45l1.83.06H31.4l4-.09v3.65c0 .42.08.89.12 1.4l-.37.12a7.33 7.33 0 00-1-2.23A4.77 4.77 0 0032.75 2 5.16 5.16 0 0031 1.36a12.24 12.24 0 00-2.05-.17c-1.32 0-2.64.06-4 .17v7.09h2.19a5.43 5.43 0 003.1-.78 3.79 3.79 0 001.41-2.85H32v8.05h-.34A8.27 8.27 0 0031 11a3 3 0 00-.92-1.15 3.3 3.3 0 00-1.37-.53 11.17 11.17 0 00-2-.15H25zM41.16.45l1.89.09h3.3l1.22-.09c.25.34.65.86 1.22 1.55S50 3.48 50.73 4.37l2.34 2.84c.84 1 1.64 2 2.41 2.93S57 12 57.63 12.81s1.16 1.5 1.54 2h.06V8.17c0-1.21 0-2.26-.13-3.16a7.78 7.78 0 00-.51-2.26 3.19 3.19 0 00-1.08-1.39 3.67 3.67 0 00-1.8-.57V.45c.66 0 1.33.07 2 .09h3.84c.63 0 1.24-.05 1.85-.09v.34a3.71 3.71 0 00-2.45 1 3.83 3.83 0 00-.67 2.48v15h-1.05q-1.56-2.45-3.31-4.74t-3.46-4.37q-1.71-1.99-3.32-3.76l-2.87-3.17c0 .5 0 1-.05 1.45s0 1 0 1.45v5c0 1.68 0 3 .1 4a6.19 6.19 0 00.48 2.24 2 2 0 001.14 1.05 9.6 9.6 0 002.08.41v.34L47.2 19h-4.42l-1.62.09v-.34l1.69-.27a3.32 3.32 0 001.15-.4 1.82 1.82 0 00.71-.85 4.3 4.3 0 00.29-1.54l.34-13a7.55 7.55 0 00-2-1.17 18.36 18.36 0 00-2.18-.73zm39.43 5.39a11.17 11.17 0 00-1-1.8 8.61 8.61 0 00-1.35-1.59 6.86 6.86 0 00-1.7-1.12 4.93 4.93 0 00-2-.42 5.33 5.33 0 00-2.65.59 2.24 2.24 0 00-1 2.13 2.7 2.7 0 00.47 1.58 4.41 4.41 0 001.25 1.17 12.19 12.19 0 001.77.94l2 .86c.69.3 1.36.61 2 1a8.29 8.29 0 011.77 1.22 5.76 5.76 0 011.28 1.6 5 5 0 01.46 2.24 5.25 5.25 0 01-.51 2.4A4.83 4.83 0 0180 18.3a6 6 0 01-2 1 9.19 9.19 0 01-2.45.31 8.64 8.64 0 01-1.48-.13c-.51-.09-1-.19-1.47-.29l-1.29-.3a5.09 5.09 0 00-.92-.13 2 2 0 00-.6.1l-.59.21q-.25-1.61-.6-3.15c-.23-1-.46-2.07-.71-3.14l.37-.2a21.44 21.44 0 001.23 2.06 13.46 13.46 0 001.63 2 9.16 9.16 0 002 1.48 4.85 4.85 0 002.37.6 6.41 6.41 0 001.59-.19 3.92 3.92 0 001.35-.58 2.86 2.86 0 00.92-1 3.28 3.28 0 00.34-1.57 3.17 3.17 0 00-.83-2.38 8 8 0 00-2-1.55 23.43 23.43 0 00-2.66-1.24A19.12 19.12 0 0171.51 9a7.87 7.87 0 01-2-1.67 3.62 3.62 0 01-.82-2.44 4.76 4.76 0 01.42-2 4.79 4.79 0 011.15-1.54 5 5 0 011.68-1 5.83 5.83 0 012-.34 12 12 0 011.89.14l1.63.31 1.62.33a9.09 9.09 0 001.7.16v2.48c0 .81.11 1.57.22 2.41zm22.81-.79c0-.8 0-1.45-.08-2a2.89 2.89 0 00-.32-1.23 1.7 1.7 0 00-.9-.71 6.23 6.23 0 00-1.62-.32V.45l2.32.09h4.18c.62 0 1.24-.05 1.84-.09v.34a5.8 5.8 0 00-1.56.32 1.66 1.66 0 00-.85.71 3 3 0 00-.41 1.26c0 .52-.07 1.17-.07 2v9.47c0 .8 0 1.46.07 2a2.89 2.89 0 00.37 1.26 1.72 1.72 0 00.89.71 6.46 6.46 0 001.65.31v.34q-1.08-.06-2.16-.09h-4.23c-.69 0-1.36 0-2 .09v-.34a5.93 5.93 0 001.59-.31 1.76 1.76 0 00.87-.71 2.89 2.89 0 00.36-1.26c.05-.52.08-1.18.08-2V9.42H92.87v5.1c0 .8 0 1.46.07 2a2.89 2.89 0 00.37 1.26 1.76 1.76 0 00.89.71 6.46 6.46 0 001.65.31v.34q-1.08-.06-2.16-.09h-4.22l-2 .09v-.34a5.85 5.85 0 001.53-.33 1.76 1.76 0 00.87-.71 2.89 2.89 0 00.37-1.26c0-.52.07-1.18.07-2V5.05c0-.8 0-1.45-.07-2a2.89 2.89 0 00-.37-1.26 1.7 1.7 0 00-.9-.71 6.14 6.14 0 00-1.6-.29V.45l2.31.09h4.18c.62 0 1.24-.05 1.85-.09v.34a5.8 5.8 0 00-1.56.32 1.62 1.62 0 00-.85.71 3 3 0 00-.36 1.26c0 .52-.07 1.17-.07 2v3.43h10.53zm13.01-1.73a4.05 4.05 0 00-.15-1.24 1.49 1.49 0 00-.47-.69A2 2 0 00115 1l-1-.23V.45l2.34.09h4.02L122 .45v.34a7.25 7.25 0 00-1.5.29 2.14 2.14 0 00-.94.57 2.08 2.08 0 00-.48 1A5.8 5.8 0 00119 4v9.25a5.1 5.1 0 00.44 2.25 3.88 3.88 0 001.2 1.5 5 5 0 001.78.86 8.65 8.65 0 002.14.26 7.13 7.13 0 003-.53 5.44 5.44 0 001.84-1.32 4.41 4.41 0 00.94-1.68 5.77 5.77 0 00.25-1.57V5.11a14.84 14.84 0 00-.1-1.92 3.39 3.39 0 00-.39-1.28 1.91 1.91 0 00-.84-.75 4.88 4.88 0 00-1.39-.37V.45l1.74.09h3.19l1.4-.09v.34a9.43 9.43 0 00-1.09.23 1.91 1.91 0 00-.84.51 2.55 2.55 0 00-.52 1.07 7.24 7.24 0 00-.19 1.88V13a6.51 6.51 0 01-.56 2.9 5.86 5.86 0 01-1.71 2.1 7.22 7.22 0 01-2.45 1.22 11.13 11.13 0 01-3 .39 9.83 9.83 0 01-2.78-.38A7.28 7.28 0 01118.7 18a5.8 5.8 0 01-1.66-2 5.54 5.54 0 01-.63-2.69zm33.05 6.47a9.69 9.69 0 01.84-4.12 9.29 9.29 0 012.25-3.07 9.63 9.63 0 013.34-1.93 12.7 12.7 0 018.14 0 9.68 9.68 0 013.33 1.93 9.18 9.18 0 012.26 3.07 9.84 9.84 0 01.83 4.12 9.83 9.83 0 01-.83 4.11 9.22 9.22 0 01-2.26 3.1 10 10 0 01-3.36 1.91 12.45 12.45 0 01-4.07.66 12.36 12.36 0 01-4.07-.66 10 10 0 01-3.31-1.91 9.33 9.33 0 01-2.25-3.08 9.68 9.68 0 01-.84-4.13zm22.95 10.8L171 22.44a7.65 7.65 0 01-1.43 1.37 5.7 5.7 0 01-1.75.85 8.14 8.14 0 01-2.37.3 6.63 6.63 0 01-2-.3 10.87 10.87 0 01-1.85-.75c-.61-.3-1.21-.63-1.81-1s-1.19-.69-1.8-1a10.53 10.53 0 00-1.88-.75 6.93 6.93 0 00-2-.3 4 4 0 00-1.33.22 10.94 10.94 0 00-1.25.54l-.4-.45a6.89 6.89 0 014-1.16 11 11 0 013.13.46c1 .32 2.08.66 3.08 1s2 .7 2.91 1a8.32 8.32 0 002.62.46 6.11 6.11 0 001.62-.19 4.71 4.71 0 001.3-.55 6.26 6.26 0 001.12-.89 14.79 14.79 0 001.07-1.21zm-19.94-10.8a10.82 10.82 0 00.51 3.32 8.75 8.75 0 001.47 2.79 7.37 7.37 0 002.36 1.93 7.25 7.25 0 006.3 0 7.33 7.33 0 002.35-1.93 8.77 8.77 0 001.48-2.79 11.06 11.06 0 000-6.64 8.82 8.82 0 00-1.48-2.8 7.47 7.47 0 00-2.35-1.93 7.25 7.25 0 00-6.3 0 7.5 7.5 0 00-2.36 1.93 8.8 8.8 0 00-1.45 2.8 10.77 10.77 0 00-.53 3.32zm25.75-6.47a4.05 4.05 0 00-.15-1.24 1.57 1.57 0 00-.47-.69 2 2 0 00-.77-.37l-1.05-.23V.45l2.34.09h4.03l1.69-.09v.34a7.12 7.12 0 00-1.5.29 2.14 2.14 0 00-.94.57 2 2 0 00-.48 1 5.8 5.8 0 00-.14 1.35v9.25a5.1 5.1 0 00.44 2.25 3.88 3.88 0 001.2 1.5 5 5 0 001.78.86 8.65 8.65 0 002.14.26 7.13 7.13 0 003-.53 5.44 5.44 0 001.84-1.32 4.41 4.41 0 00.94-1.68 5.77 5.77 0 00.25-1.57V5.11a14.84 14.84 0 00-.1-1.92 3.22 3.22 0 00-.4-1.28 1.84 1.84 0 00-.83-.75 5 5 0 00-1.39-.37V.45l1.74.09h3.19L196 .45v.34a9.43 9.43 0 00-1.09.23 1.91 1.91 0 00-.84.51 2.43 2.43 0 00-.52 1.07 7.24 7.24 0 00-.19 1.88V13a6.51 6.51 0 01-.61 2.94A5.86 5.86 0 01191.1 18a7.22 7.22 0 01-2.45 1.22 11.19 11.19 0 01-3 .39 9.83 9.83 0 01-2.78-.38 7.28 7.28 0 01-2.36-1.23 5.8 5.8 0 01-1.66-2 5.54 5.54 0 01-.63-2.69zm27.97 7.49l-1.87 5.13c-.06.15-.11.29-.15.4a.91.91 0 00-.08.37 1.36 1.36 0 00.3.88 2.55 2.55 0 00.73.61 4 4 0 00.88.38 5.81 5.81 0 00.76.2v.34c-.57 0-1.13-.07-1.7-.09s-1.15 0-1.73 0h-1.66l-1.72.09v-.34a3.83 3.83 0 002.44-1.59 6.85 6.85 0 00.7-1.25c.2-.45.39-.92.58-1.42l4.91-12c0-.13.1-.26.15-.37a.76.76 0 00.07-.31 1.33 1.33 0 00-.1-.43 2 2 0 00-.24-.51 6.31 6.31 0 001.28-.37l1.19-.53 5.9 16.23a4.25 4.25 0 001.11 1.77 3.69 3.69 0 002.1.81v.34l-2.23-.15h-5.5l-.9.06v-.34a5.3 5.3 0 002-.61 1.41 1.41 0 00.81-1.26 1.09 1.09 0 00-.1-.46A3.08 3.08 0 01214 16l-1.85-5.22zm3.07-8.06L206.48 10h5.33zm23.8-1.96a13.69 13.69 0 00-2.13.46 2.56 2.56 0 00-1.12.64 1.65 1.65 0 00-.44 1 9.64 9.64 0 00-.09 1.43V17.9c.51.09 1 .18 1.49.25a8.9 8.9 0 001.46.12 11.42 11.42 0 002.92-.34 7.57 7.57 0 002.25-1 8.94 8.94 0 001.83-1.72 22.65 22.65 0 001.68-2.43h.43l-2.19 6.36c-.68 0-1.36-.07-2.05-.09s-1.38 0-2.06 0h-9.76l-1.42.09v-.34a5.84 5.84 0 001.49-.29 2.39 2.39 0 00.87-.49 1.45 1.45 0 00.41-.72 4.28 4.28 0 00.1-1V5.05c0-.8 0-1.45-.07-2a3 3 0 00-.36-1.26 1.58 1.58 0 00-.85-.71 5.71 5.71 0 00-1.59-.32V.45l2.2.09h4.6c.8 0 1.6-.05 2.4-.09zm12.31 17.99a5.93 5.93 0 001.59-.31 1.78 1.78 0 00.86-.71 2.89 2.89 0 00.37-1.26c.05-.52.07-1.18.07-2V5.05c0-.8 0-1.45-.07-2a2.89 2.89 0 00-.37-1.26 1.71 1.71 0 00-.89-.71 6.32 6.32 0 00-1.62-.32V.45l2.31.09h4.19c.63 0 1.19-.05 1.84-.09v.34a5.8 5.8 0 00-1.56.32 1.62 1.62 0 00-.85.71 3 3 0 00-.36 1.26c0 .52-.07 1.17-.07 2v9.47c0 .8 0 1.46.07 2a2.89 2.89 0 00.37 1.26 1.75 1.75 0 00.9.71 6.28 6.28 0 001.64.31v.34l-2.15-.17h-4.23c-.68 0-1.36 0-2 .09zm17.53 0a5.76 5.76 0 001.58-.31 1.76 1.76 0 00.87-.71 2.89 2.89 0 00.37-1.26c0-.52.07-1.18.07-2V1.36a24.71 24.71 0 00-2.51.11 4.08 4.08 0 00-1.75.59 4 4 0 00-1.29 1.43 14 14 0 00-1.09 2.64l-.37-.13.4-5.56 2.35.09h11.27l2.2-.08.43 5.55-.36.12A13.92 13.92 0 00274 3.49a4 4 0 00-1.29-1.43 4 4 0 00-1.77-.59c-.69-.07-1.55-.11-2.57-.11v13.16c0 .8 0 1.46.07 2a2.89 2.89 0 00.37 1.26 1.75 1.75 0 00.9.71 6.28 6.28 0 001.64.31v.34q-1.08-.06-2.16-.09h-4.22c-.68 0-1.36 0-2 .09zM278.55.45l2.33.09h4.55c.74 0 1.49-.05 2.23-.09v.34c-.23 0-.48.1-.75.17a3.29 3.29 0 00-.77.32 1.78 1.78 0 00-.58.51 1.27 1.27 0 00-.23.76 1.79 1.79 0 00.3.83 14.87 14.87 0 00.87 1.27l4 5.45 3.34-5.25a4.23 4.23 0 00.74-2.18 1.56 1.56 0 00-.68-1.32 2.88 2.88 0 00-1.5-.56V.45c.66 0 1.33.07 2 .09h3.8l1.8-.09v.34a5.16 5.16 0 00-1.82.73 8.61 8.61 0 00-1.43 1.19 10.66 10.66 0 00-1.13 1.4c-.33.5-.64.94-.92 1.34l-3.89 5.67v4.17A7 7 0 00291 17a2.11 2.11 0 00.55 1 2.24 2.24 0 001 .54 9.57 9.57 0 001.64.26v.34l-2.5-.14h-4.63l-2.09.09v-.34a9.31 9.31 0 001.57-.26 2.17 2.17 0 001-.54 1.94 1.94 0 00.54-1 7.61 7.61 0 00.16-1.69v-4.42l-5.14-6.59c-.26-.34-.54-.68-.82-1a8 8 0 00-.95-1 6.07 6.07 0 00-1.21-.85 5.72 5.72 0 00-1.59-.59z" fill="#fff" data-name="レイヤー 1"/></g></svg>