<svg xmlns="http://www.w3.org/2000/svg" viewBox="0 0 128.85 22.24"><g data-name="レイヤー 2"><path d="M7.88 9.84h-.2a3.41 3.41 0 00-.33-.71 3 3 0 00-.59-.71 3.2 3.2 0 00-.86-.53 3.05 3.05 0 00-1.17-.21 2.61 2.61 0 00-.85.13 1.83 1.83 0 00-.71.39 1.74 1.74 0 00-.47.63 2.09 2.09 0 00-.18.9 2.41 2.41 0 00.48 1.4 8.06 8.06 0 001.12 1.29c.45.42.93.85 1.45 1.28A17.19 17.19 0 017 15a7 7 0 011.12 1.51 3.42 3.42 0 01.45 1.72 4.27 4.27 0 01-.26 1.45A3.51 3.51 0 017.49 21a4 4 0 01-1.4.9 5.49 5.49 0 01-2 .35 6 6 0 01-1.31-.14 6 6 0 01-1.11-.33 5.13 5.13 0 01-.91-.44C.44 21.17.21 21 0 20.87l.15-2.78h.23a5.35 5.35 0 00.44 1.26 3.63 3.63 0 00.73 1 3.2 3.2 0 001 .62 3.08 3.08 0 001.22.23 2.4 2.4 0 001.72-.6 2 2 0 00.62-1.6 2.63 2.63 0 00-.43-1.43 7 7 0 00-1.1-1.25c-.43-.4-.91-.8-1.41-1.2a15.64 15.64 0 01-1.41-1.28 6.55 6.55 0 01-1.09-1.48 3.9 3.9 0 01-.44-1.86 3.85 3.85 0 01.32-1.56 3.44 3.44 0 01.88-1.21 4 4 0 011.34-.79 5.14 5.14 0 011.7-.27 6.89 6.89 0 012 .25 7.39 7.39 0 011.23.49zM23.84 12a4.33 4.33 0 00-.78-2.85A2.61 2.61 0 0021 8.28a3.41 3.41 0 00-1.07.19 8 8 0 00-1.24.53 12.08 12.08 0 00-1.24.78 12 12 0 00-1.14 1v7.61c0 .62.05 1.15.09 1.6s.08.83.13 1.13a6.57 6.57 0 00.16.76v.06h-3.35v-.06c.05-.2.11-.46.16-.76a11.19 11.19 0 00.14-1.12c0-.45.06-1 .08-1.6s0-1.35 0-2.18V3.55c0-.62-.05-1.15-.08-1.55A11.19 11.19 0 0013.5.82c-.05-.3-.11-.56-.16-.76V0h3.38v.06a6.57 6.57 0 00-.16.76c0 .3-.09.68-.13 1.13s-.07 1-.09 1.6 0 1.35 0 2.18v3.75a14.43 14.43 0 011.3-1 14 14 0 011.47-.93 8.64 8.64 0 011.55-.65 5.07 5.07 0 011.55-.25 4.43 4.43 0 011.92.35 3.84 3.84 0 011.3 1 4.06 4.06 0 01.73 1.47 6.48 6.48 0 01.23 1.68v7.18c0 .62 0 1.15.08 1.6s.09.83.14 1.13a6.57 6.57 0 00.16.76v.06h-3.36v-.06a6.35 6.35 0 00.17-.76 9.11 9.11 0 00.13-1.06c0-.45.07-1 .09-1.6s0-1.35 0-2.18zm11.31 4.77a4.34 4.34 0 00.77 2.84 2.55 2.55 0 002.07.91 3.35 3.35 0 001.06-.19 9.5 9.5 0 001.21-.53 12 12 0 001.24-.8 9.78 9.78 0 001.15-.94v-7.61c0-.62 0-1.15-.08-1.6a11.19 11.19 0 00-.14-1.13c-.05-.3-.11-.56-.16-.76V6.9h3.38V7a6.57 6.57 0 00-.16.76c0 .3-.09.68-.13 1.13s-.07 1-.09 1.6 0 1.35 0 2.18v5.72c0 .62.05 1.15.09 1.6s.08.83.13 1.13a6.57 6.57 0 00.16.76v.06h-3.39v-.06c.05-.24.12-.56.18-.94a14.35 14.35 0 00.14-1.49c-.4.34-.83.68-1.3 1a12 12 0 01-1.45.89 8.63 8.63 0 01-1.52.64 5.12 5.12 0 01-1.52.24 4.39 4.39 0 01-1.94-.39 3.74 3.74 0 01-1.3-1 4.24 4.24 0 01-.74-1.47 6.3 6.3 0 01-.22-1.68V10.5c0-.62-.05-1.15-.09-1.6s-.08-.83-.13-1.13a6.57 6.57 0 00-.19-.77v-.1h3.38V7a6.57 6.57 0 00-.16.76c0 .3-.09.68-.13 1.13s-.07 1-.09 1.6 0 1.35 0 2.18zM73.6 12a4.33 4.33 0 00-.78-2.85 2.61 2.61 0 00-2.08-.9 3.41 3.41 0 00-1.07.19 8 8 0 00-1.22.56 12.08 12.08 0 00-1.24.78 12 12 0 00-1.14 1v7.61c0 .62.05 1.15.09 1.6s.08.83.13 1.13a6.57 6.57 0 00.16.76v.06H63.1v-.06c0-.2.11-.46.16-.76A11.19 11.19 0 0063.4 20c0-.45.06-1 .08-1.6s0-1.35 0-2.18V3.55c0-.62 0-1.15-.08-1.6a11.19 11.19 0 00-.14-1.13c0-.3-.11-.56-.16-.76V0h3.38v.06a6.57 6.57 0 00-.16.76c0 .3-.09.68-.13 1.13s-.07 1-.09 1.6 0 1.35 0 2.18v3.75a14.43 14.43 0 011.3-1 14 14 0 011.47-.93 8.64 8.64 0 011.55-.65 5.07 5.07 0 011.55-.25 4.36 4.36 0 011.91.35 3.78 3.78 0 011.31 1 4.06 4.06 0 01.73 1.47 6.48 6.48 0 01.23 1.68v7.18c0 .62 0 1.15.08 1.6s.09.83.14 1.13a6.57 6.57 0 00.16.76v.06h-3.36v-.06a6.35 6.35 0 00.17-.76 9.11 9.11 0 00.13-1.06c0-.45.07-1 .09-1.6s0-1.35 0-2.18zm7.63 5.58a4.15 4.15 0 01.47-2 4.64 4.64 0 011.3-1.46 7.06 7.06 0 011.8-1 13.3 13.3 0 012.1-.59 17.83 17.83 0 012.1-.26c.71-.06 1.35-.09 1.94-.1v-.74a4.85 4.85 0 00-.25-1.67A3.23 3.23 0 0090 8.59a2.9 2.9 0 00-1.1-.69 4.24 4.24 0 00-1.4-.22 7.07 7.07 0 00-1 .08 5.76 5.76 0 00-1.07.3 7.42 7.42 0 00-1.15.55 11.91 11.91 0 00-1.31.9l-.15-.09 1-2.07a7.87 7.87 0 011-.35 7.73 7.73 0 011-.23c.32-.06.65-.1 1-.13s.69 0 1.06 0a8.14 8.14 0 012.48.36 5 5 0 011.79 1 4.12 4.12 0 011 1.53 5.44 5.44 0 01.32 1.87v6.95c0 .62.06 1.15.09 1.6s.08.83.13 1.13.11.56.17.76v.06h-3.19v-.06a3.47 3.47 0 00.12-.53c0-.19 0-.43.06-.7a6.42 6.42 0 01-.72.54 5.41 5.41 0 01-1 .51A6.29 6.29 0 0188 22a6.42 6.42 0 01-1.43.14A5.85 5.85 0 0182.62 21a4.23 4.23 0 01-1.39-3.42zm9.71-4.26c-.89 0-1.74.06-2.56.15a6.7 6.7 0 00-2.18.58 3.7 3.7 0 00-1.51 1.25 3.76 3.76 0 00-.56 2.16A3.73 3.73 0 0085 20.1a3.16 3.16 0 002.39.91 4 4 0 001.28-.2 4.29 4.29 0 001-.5 3.73 3.73 0 00.75-.66 3.25 3.25 0 00.47-.69v-5.64zm20.77-.69v-2.18c0-.62 0-1.15-.09-1.6s-.08-.83-.13-1.13a6.35 6.35 0 00-.17-.76V6.9h3.38V7a5.58 5.58 0 00-.19.82 10.55 10.55 0 00-.17 1.18c.36-.3.74-.6 1.13-.89a11.17 11.17 0 011.2-.78 8 8 0 011.25-.54 4.13 4.13 0 011.29-.2 6.66 6.66 0 01.68 0 3.52 3.52 0 01.53.11 3.62 3.62 0 01.43.14l.36.16-.72 2.79-.24-.05a2 2 0 00-.66-1 2.07 2.07 0 00-1.32-.39 3 3 0 00-1 .17 5.24 5.24 0 00-1 .44 9.77 9.77 0 00-1 .66c-.34.25-.67.51-1 .79v7.93c0 .62 0 1.15.09 1.6s.08.83.13 1.13.11.56.16.76v.06h-3.38v-.06a6.35 6.35 0 00.17-.76c0-.3.1-.68.13-1.13s.06-1 .09-1.6 0-1.35 0-2.18zm14.18 0v-2.18c0-.62 0-1.15-.08-1.6a11.19 11.19 0 00-.14-1.13 6.35 6.35 0 00-.17-.76V6.9h3.39V7a6.57 6.57 0 00-.16.76c-.05.3-.1.68-.13 1.13s-.07 1-.09 1.6 0 1.35 0 2.18v5.72c0 .62.05 1.15.09 1.6s.08.83.13 1.13a6.57 6.57 0 00.16.76v.06h-3.39v-.06a6.35 6.35 0 00.17-.76 11.19 11.19 0 00.14-1.13c0-.45.06-1 .08-1.6s0-1.35 0-2.18zm-.31-10.17a1.42 1.42 0 01.13-.61 1.67 1.67 0 01.33-.5 1.41 1.41 0 01.49-.33 1.56 1.56 0 01.62-.13 1.6 1.6 0 01.62.13 1.56 1.56 0 01.5.33 1.92 1.92 0 01.34.5 1.58 1.58 0 01.12.61 1.54 1.54 0 01-.45 1.13 1.65 1.65 0 01-1.75.33 1.44 1.44 0 01-.49-.34 1.56 1.56 0 01-.33-.5 1.41 1.41 0 01-.13-.62z" fill="#fff" data-name="レイヤー 1"/></g></svg>