<?xml version="1.0" encoding="utf-8"?>
<!-- Generator: Adobe Illustrator 25.0.0, SVG Export Plug-In . SVG Version: 6.00 Build 0)  -->
<svg version="1.1" id="レイヤー_1" xmlns="http://www.w3.org/2000/svg" xmlns:xlink="http://www.w3.org/1999/xlink" x="0px"
	 y="0px" viewBox="0 0 543.9 136.1" style="enable-background:new 0 0 543.9 136.1;" xml:space="preserve">
<style type="text/css">
	.st0{fill:#FFFFFF;}
</style>
<g>
	<path class="st0" d="M105.2,11.5v39h-2.1V16.6L92.5,27.1h9.1v2.1H90.4L68.7,50.8l-1.6-1.5l20.2-20.1h-5.5v-2.1h7.6L105.2,11.5z"/>
	<path class="st0" d="M133.9,35.4L118.2,51l-1.5-1.5l14.1-14.1l-14.1-14.2l6-6h-10.5v35.4h-2.1V13.1h17.7l-8.2,8.2L133.9,35.4z"/>
	<path class="st0" d="M176.4,28.2l-22.7,22.7l-15.7-15.6l22.7-22.7L176.4,28.2z M173.4,28.2l-12.7-12.7L141,35.2l12.7,12.6
		L173.4,28.2z"/>
	<path class="st0" d="M200.7,12.9v37.5h-19.8V12.9h2.1v35.4h15.5V12.9H200.7z"/>
	<path class="st0" d="M236.2,15.2h-14.1v35.4H220V15.2h-14.2v-2.1h30.4V15.2z"/>
	<path class="st0" d="M282.3,12.9v37.5h-19.8V12.9h2.1v35.4h15.5V12.9H282.3z"/>
	<path class="st0" d="M314.7,42.5l-8.2,8.1h-19.1v-2.1h18.3l6.1-6l-21.2-21.2l8.1-8.2h12.1v2.1h-11.2l-6,6L314.7,42.5z"/>
</g>
<g>
	<path class="st0" d="M351,95.3v7.4c0,1.4-1.5,1.9-2.6,2.1c0-1.9-2.5-2-2.5-2.7c0-0.2,0.2-0.4,0.4-0.4c0.9,0,1.7,0.6,2.5,0.6
		c0.4,0,0.4-0.4,0.4-0.8v-7.1H344v9.7c0,0.3-0.2,0.5-0.4,0.6c0,0-0.9,0.3-0.9,0.3c-0.2,0-0.5,0-0.5-0.3V94.5h-4.7v7.3
		c1-1.5,2-3.4,2.5-5.2c0.4,0.1,1.9,0.6,1.9,1.1c0,0.5-0.7,0.3-0.9,0.6l-1.4,2.2c-0.3,0.4-1.5,1.9-2,1.9c0,0-0.1,0-0.1-0.1v2.9
		c0,0.5-0.9,0.7-1.3,0.7c-0.5,0-0.5-0.4-0.5-0.8v-12c-0.3,0.2-1.8,1.1-2,1.1c-0.1,0-0.3-0.1-0.3-0.3c0-0.1,0-0.1,0.1-0.2
		c0.9-0.7,1.8-1.3,2.6-2.2c1-1.1,1.6-1.8,2.2-3.2c0.4,0.2,1.8,0.9,1.8,1.4c0,0.4-0.7,0.4-0.9,0.4c-0.7,0.9-1.8,2-2.7,2.6l0.9,0.6
		h4.9v-6.9l2,0.3c0.3,0,0.8,0.1,0.8,0.5c0,0.8-1,0.7-1,1.3v4.7h5.2l0.8-1l1.5,1.2c0.2,0.2,0.3,0.4,0.3,0.7
		C351.9,94.8,351,94.8,351,95.3z M366.2,111.1h-9.4v8.7c0,0.5-1,0.8-1.4,0.8c-0.2,0-0.4-0.1-0.4-0.3v-9.2h-9.6l-0.1,1.5
		c-0.3,2.8-2.4,5-4.9,6.2c-0.9,0.4-3.3,1.4-4.3,1.4c-0.2,0-0.4-0.1-0.4-0.3c0-0.2,0.1-0.3,0.2-0.3c0.4-0.2,0.8-0.3,1.1-0.4
		c0.9-0.3,1.8-0.7,2.5-1.2c2-1.2,3.7-3.3,3.9-5.7l0.1-1.2h-9.2l-0.3-1.1h9.6c0.1-1.5,0.1-2.9,0.1-4.4l2.1,0.4c0.3,0,0.7,0.2,0.7,0.5
		c0,0.5-0.6,0.6-1,0.9l-0.1,2.6h9.4v-4.2l2,0.3c0.3,0,0.9,0.2,0.9,0.5c0,0.8-1.1,0.7-1.1,1.3v2h5.3l2.3-1.9l2.3,1.7
		c0.2,0.1,0.3,0.3,0.3,0.5C367,110.9,366.7,111.1,366.2,111.1z M347.4,100.7c-0.5,0-0.6-0.5-0.8-0.9c-0.2-0.5-0.4-1-0.6-1.5
		c-0.2-0.4-1-1.2-1-1.6c0-0.1,0.1-0.3,0.2-0.3c0.3,0,2,1.7,2.3,2c0.3,0.3,0.4,0.7,0.6,1v0.9C347.9,100.5,347.7,100.7,347.4,100.7z
		 M351.7,93.1l-0.5-0.3c-0.7-0.9-1.5-1.8-2.5-2.5c-0.8-0.5-1.5-0.8-2.4-1.1c-0.2-0.1-0.3-0.1-0.3-0.3c0-0.2,0.3-0.2,0.4-0.2
		c1.1,0,5.3,1.9,5.8,2.9c0,0.1,0.3,0.8,0.3,0.8C352.5,92.9,352.2,93,351.7,93.1z M366.4,92.5h-2.6c-0.2,2.8-1.5,6-3.4,8.1
		c0.7,0.4,1.3,0.9,1.9,1.3c1.4,0.9,3,1.4,4.6,1.8l0.1,0.2c-0.9,0.3-1.1,0-1.6,0.9c-0.1,0.1-0.3,0.5-0.4,0.5c-1.1,0-5-2.8-5.6-3.8
		c-0.9,0.7-1.8,1.4-2.8,1.9c-0.6,0.3-3.6,1.6-4.1,1.6c-0.3,0-0.5,0-0.5-0.4c0-0.4,1-0.6,1.4-0.8c1.8-0.7,3.7-1.9,5-3.4
		c-1.6-2-2.7-4.5-3.3-7c-0.4,0.7-2.7,4.1-3.3,4.1c-0.1,0-0.3-0.1-0.3-0.3c0-0.1,0.1-0.2,0.1-0.3c1-1.5,2-3.1,2.7-4.8
		c0.6-1.7,1.3-3.4,1.3-5.3l2.1,0.3c0.3,0,0.6,0.2,0.6,0.6c0,0.7-0.8,0.3-1,0.7l-1.2,3h6.9l2-1.9l1.9,1.7c0.1,0.1,0.3,0.3,0.3,0.5
		C367.2,92.2,366.8,92.5,366.4,92.5z M355.7,92.5L355.7,92.5c0.7,2.7,1.8,5.1,3.7,7c1.5-2.1,2.4-4.4,2.7-7H355.7z"/>
	<path class="st0" d="M377.6,119.9c0,0.2-0.1,0.4-0.4,0.5c-1.2,0.4-1.4,0.4-1.4-0.5v-16.7l-1.4,1.1c-2.4,1.9-4.5,3-4.6,3
		c-0.1,0-0.4-0.2-0.4-0.4c0-0.1,0-0.1,0.1-0.2c2.7-1.6,8-5.5,10.8-12.2h-9.7l-0.3-1.1h4.9v-7l1.9,0.4c0.5,0.1,0.8,0.3,0.8,0.5
		c0,0.3-0.2,0.5-0.5,0.6c-0.3,0.1-0.4,0.3-0.4,0.5v5h3.5l0.9-0.7l1.1,1.1c0.2,0.1,0.3,0.3,0.3,0.5c0,0.4-0.2,0.7-0.6,0.8
		c-0.3,0-0.5,0.2-0.6,0.4c-1.3,2.3-2.5,4-3.5,5.2l-0.8,0.8v0.2c1.7,0.4,4.8,2.3,5.6,3.7l0.2,0.9c0,0.5-0.4,0.8-0.8,0.8
		c-0.3,0-0.6-0.1-0.8-0.4c-1.2-1.8-2.7-3.4-4.3-4.2V119.9z M381.1,118.2l-0.3-1.1h10.4v-16h-7.5l-0.3-1.1h7.8V87l1.9,0.3
		c0.6,0.1,0.8,0.3,0.8,0.6c0,0.3-0.1,0.5-0.4,0.6c-0.3,0.1-0.4,0.3-0.4,0.5v11h3.5l2.3-1.9l2.3,1.7c0.2,0.1,0.3,0.4,0.3,0.6
		c0,0.5-0.4,0.7-0.8,0.7H393v16h5.1l2.3-1.9l2.3,1.7c0.2,0.1,0.3,0.3,0.3,0.5c0,0.7-0.5,0.8-0.8,0.8H381.1z"/>
	<path class="st0" d="M415.8,104.7c-1.9,3.9-3.8,8.3-3.8,9.6c0,0.5,0.4,1.3,0.4,2.2c0,1-0.5,1.2-0.7,1.2c-1.6,0-3.3-3-3.3-9.4
		c0-5.5,1.4-10,2-13.2c0.1-0.6,0.1-1.1,0.1-1.7c0-2.5-1.7-2.9-1.9-2.9l0-0.3c0.3-0.3,0.9-0.4,1.3-0.4c2,0,3.5,2.1,3.5,3.3
		c0,1-0.5,1.5-0.7,2c-2.7,6.9-2.7,11.4-2.7,12.9c0,2.3,0.2,3.5,0.5,4.1l0.4-0.1c0.5-0.8,2.9-5.1,4.2-7.5L415.8,104.7z M422.9,103.7
		c-1.7,1.7-2.9,3.7-2.9,5.6c0,3.1,2.2,4.1,7.3,4.1c3.2,0,5.5-0.4,6.2-0.6c1.9,0.3,2.5,1,2.5,1.5c0,0.8-1.1,1-7.9,1
		c-6.5,0-9.7-1.6-9.7-5.9c0-2.5,1.8-4.7,3.7-6.5L422.9,103.7z M419.2,94.6c0.9,0.3,2.4,0.3,3.6,0.3c1.8,0,5.6-0.6,7.4-1.4
		c0.6-0.3,1.3-0.8,1.6-0.8c1.1,0,2.8,0.4,2.8,1.3c0,0.7-1.3,0.9-2.7,1.2c-2.7,0.6-6.5,1-8.2,1c-1.5,0-3.4-0.1-4.7-1L419.2,94.6z"/>
	<path class="st0" d="M450.6,115c6.4-0.4,12.1-1.8,15.2-3.4c3.5-1.9,5.4-5.2,5.4-8.7c0-5.4-3.1-8.4-8.5-8.4c-4.4,0-9.8,2-13.5,4.1
		c-1.7,0.9-2.1,1.8-3.3,1.8c-1.1,0-3.8-1.5-3.8-3.5c0-0.6,0-1.2,0.8-1.8h0.3c0.2,1.2,0.9,2.3,2.5,2.3c2.7,0,9.9-4.2,17.3-4.2
		c6.4,0,10.8,3.4,10.8,9.9c0,4.3-2.3,8-6.7,10.2c-3.4,1.7-9.4,2.6-16.1,2.8L450.6,115z"/>
	<path class="st0" d="M478.6,92.6c0.3-0.5,0.8-0.7,1.3-0.7c1.7,0,3.7,1.6,3.7,3.3c0,0.5-0.4,0.9-0.5,1.4c-0.2,0.6-0.5,1.7-0.6,2.3
		c-0.2,1.3-0.4,3.4-0.4,6.1c0,5.3,2.9,8.1,3.6,8.1c0.5,0,0.8-0.4,1.7-1.7c0.9-1.2,3.1-4.8,5-8l0.8,0.3c-1.5,2.9-4.2,7.9-4.9,9.7
		c-0.1,0.3-0.1,0.5-0.1,0.7c0,0.2,0.1,0.4,0.2,0.5c0.4,0.4,0.7,1,0.7,1.3c0,0.5-0.6,0.6-1.3,0.6c-0.6,0-2.3-0.7-3.2-1.7
		c-2.9-2.9-3.8-6.9-3.8-10.1c0-2.7,0.2-6.5,0.4-8.7v-0.5c0-2.1-1.1-2.9-2.3-2.9L478.6,92.6z M500.1,94.3c6.2,1.7,9.3,7.3,9.3,11.6
		c0,1.3-0.3,2.6-1.2,2.6c-0.6,0-1-0.5-1-1.6c-0.1-5.1-2.7-10-7.4-11.9L500.1,94.3z"/>
	<path class="st0" d="M516.2,92.4c0.1,1.1,1.1,1.9,2.4,1.9c0.6,0,1.9-0.2,2.8-0.4c2.8-0.6,11.7-2.1,16.8-2.7c1-0.1,2-0.5,2.3-0.8
		c2.9,0.6,3.9,1.2,3.9,2.2c0,0.5-0.5,0.6-1.3,0.6c-0.8,0-1.9-0.1-2.9-0.1c-3.7,0-8.8,3.8-10.7,7c-1.2,1.8-2.2,4.9-2.2,8.1
		c0,5.3,3.3,6.7,7.5,7.3c0.3,0,1.1,0,1.9,0c1.5,0,2.4,1,2.4,1.9c0,0.5-0.5,0.8-1.4,0.8c-0.3,0-0.7,0-1.2-0.1c-9-1-11.1-3.9-11.1-9.9
		c0-8.3,7.2-13.4,10.5-15.3l0-0.1c-4.2,0.4-13.9,2.4-15.6,3.7c-0.5,0.3-0.9,0.6-1.6,0.6c-1.5,0-3.3-1.9-3.3-3.1
		c0-0.7,0.2-1.3,0.6-1.5L516.2,92.4z"/>
</g>
<rect x="-27.8" y="28.1" class="st0" width="95.1" height="0.7"/>
<rect x="276.7" y="70.2" transform="matrix(0.7071 -0.7071 0.7071 0.7071 45.1226 249.9357)" class="st0" width="95.1" height="0.7"/>
</svg>
