<?xml version="1.0" encoding="utf-8"?>
<!-- Generator: Adobe Illustrator 25.0.0, SVG Export Plug-In . SVG Version: 6.00 Build 0)  -->
<svg version="1.1" id="レイヤー_1" xmlns="http://www.w3.org/2000/svg" xmlns:xlink="http://www.w3.org/1999/xlink" x="0px"
	 y="0px" viewBox="0 0 675.2 38.8" style="enable-background:new 0 0 675.2 38.8;" xml:space="preserve">
<style type="text/css">
	.st0{fill:#FFFFFF;}
</style>
<g>
	<path class="st0" d="M87.3,6v27.5h-1.5V9.6L78.4,17h6.4v1.5h-7.9L61.6,33.8l-1.1-1l14.2-14.2h-3.9V17h5.4L87.3,6z"/>
	<path class="st0" d="M107.6,22.9l-11.1,11l-1-1l10-10l-10-10l4.3-4.3h-7.4v25h-1.5V7.1h12.5l-5.8,5.8L107.6,22.9z"/>
	<path class="st0" d="M137.6,17.8l-16,16l-11.1-11l16-16L137.6,17.8z M135.5,17.8l-9-8.9l-13.9,13.9l8.9,8.9L135.5,17.8z"/>
	<path class="st0" d="M154.7,7v26.5h-13.9V7h1.5v25h10.9V7H154.7z"/>
	<path class="st0" d="M179.8,8.6h-10v25h-1.5v-25h-10V7.1h21.4V8.6z"/>
	<path class="st0" d="M212.3,7v26.5h-13.9V7h1.5v25h10.9V7H212.3z"/>
	<path class="st0" d="M235.2,27.9l-5.8,5.7h-13.5v-1.5h12.9l4.3-4.2l-15-15l5.7-5.8h8.5v1.5h-7.9l-4.3,4.3L235.2,27.9z"/>
</g>
<g>
	<path class="st0" d="M299,13.4v6.2c0,1.1-1.3,1.6-2.2,1.7c0-1.6-2.1-1.6-2.1-2.2c0-0.1,0.2-0.3,0.3-0.3c0.7,0,1.4,0.5,2.1,0.5
		c0.3,0,0.4-0.4,0.4-0.6v-6h-4.4v8.1c0,0.2-0.1,0.4-0.3,0.5c0,0-0.7,0.2-0.8,0.2c-0.2,0-0.4,0-0.4-0.3v-8.5h-3.9v6.1
		c0.9-1.2,1.7-2.9,2.1-4.3c0.3,0.1,1.6,0.5,1.6,0.9c0,0.5-0.6,0.2-0.8,0.5l-1.2,1.9c-0.2,0.3-1.3,1.6-1.6,1.6c0,0-0.1,0-0.1-0.1v2.4
		c0,0.4-0.8,0.6-1.1,0.6c-0.4,0-0.4-0.4-0.4-0.7v-10c-0.2,0.1-1.5,0.9-1.7,0.9c-0.1,0-0.2-0.1-0.2-0.2c0-0.1,0-0.1,0.1-0.2
		c0.8-0.6,1.5-1.1,2.2-1.8c0.9-0.9,1.3-1.5,1.8-2.7c0.3,0.2,1.5,0.8,1.5,1.1c0,0.3-0.6,0.3-0.8,0.3c-0.6,0.8-1.5,1.7-2.3,2.2
		l0.7,0.5h4.1V6l1.7,0.2c0.2,0,0.7,0.1,0.7,0.5c0,0.7-0.9,0.6-0.9,1.1v3.9h4.4l0.7-0.9l1.3,1c0.2,0.2,0.3,0.4,0.3,0.6
		C299.7,13,299,12.9,299,13.4z M311.7,26.6h-7.8v7.3c0,0.5-0.8,0.7-1.2,0.7c-0.2,0-0.3-0.1-0.3-0.3v-7.7h-8l-0.1,1.2
		c-0.2,2.4-2,4.1-4.1,5.2c-0.7,0.4-2.8,1.1-3.6,1.1c-0.2,0-0.3-0.1-0.3-0.2c0-0.1,0.1-0.2,0.2-0.3c0.3-0.2,0.7-0.2,1-0.3
		c0.8-0.3,1.5-0.6,2.1-1c1.7-1,3.1-2.7,3.2-4.7l0.1-1h-7.7l-0.2-0.9h8c0.1-1.2,0.1-2.4,0.1-3.7l1.7,0.3c0.2,0,0.6,0.2,0.6,0.5
		c0,0.5-0.5,0.5-0.8,0.7l-0.1,2.2h7.9v-3.5l1.7,0.2c0.2,0,0.7,0.1,0.7,0.5c0,0.7-0.9,0.6-0.9,1.1v1.7h4.5l1.9-1.6l1.9,1.4
		c0.1,0.1,0.2,0.3,0.2,0.5C312.4,26.4,312.2,26.6,311.7,26.6z M296,17.9c-0.4,0-0.5-0.4-0.7-0.7c-0.2-0.4-0.3-0.9-0.5-1.3
		c-0.2-0.3-0.8-1-0.8-1.4c0-0.1,0.1-0.2,0.2-0.2c0.3,0,1.7,1.4,1.9,1.6c0.2,0.3,0.3,0.6,0.5,0.9v0.8C296.4,17.7,296.3,17.9,296,17.9
		z M299.6,11.5l-0.4-0.2c-0.6-0.8-1.3-1.5-2.1-2.1c-0.6-0.4-1.3-0.7-2-0.9c-0.2-0.1-0.2-0.1-0.2-0.3c0-0.2,0.2-0.2,0.4-0.2
		c0.9,0,4.5,1.6,4.8,2.4c0,0.1,0.2,0.6,0.2,0.7C300.3,11.4,300,11.5,299.6,11.5z M311.9,11h-2.2c-0.2,2.4-1.2,5-2.8,6.7
		c0.6,0.3,1.1,0.7,1.6,1c1.2,0.7,2.5,1.2,3.8,1.5l0.1,0.2c-0.7,0.2-0.9,0-1.3,0.8c-0.1,0.1-0.2,0.4-0.4,0.4c-1,0-4.1-2.3-4.7-3.2
		c-0.7,0.6-1.5,1.1-2.3,1.6c-0.5,0.2-3,1.3-3.4,1.3c-0.2,0-0.4,0-0.4-0.3c0-0.4,0.9-0.5,1.1-0.7c1.5-0.6,3.1-1.6,4.2-2.8
		c-1.3-1.7-2.3-3.7-2.8-5.8c-0.3,0.6-2.2,3.4-2.8,3.4c-0.1,0-0.3-0.1-0.3-0.2s0.1-0.2,0.1-0.3c0.8-1.3,1.6-2.6,2.2-4
		c0.5-1.4,1.1-2.9,1-4.4l1.8,0.2c0.3,0,0.5,0.2,0.5,0.5c0,0.6-0.7,0.2-0.8,0.6l-1,2.5h5.7l1.6-1.6l1.6,1.4c0.1,0.1,0.2,0.3,0.2,0.4
		C312.6,10.7,312.3,11,311.9,11z M303,11L303,11c0.6,2.2,1.5,4.2,3.1,5.8c1.3-1.7,2-3.7,2.2-5.8H303z"/>
	<path class="st0" d="M321.3,34c0,0.2-0.1,0.3-0.3,0.4c-1,0.3-1.1,0.4-1.1-0.4V20l-1.1,0.9c-2,1.6-3.8,2.5-3.9,2.5
		c-0.1,0-0.3-0.2-0.3-0.3c0-0.1,0-0.1,0.1-0.2c2.2-1.3,6.7-4.6,9-10.2h-8.1l-0.2-0.9h4.1V6.1l1.6,0.3c0.4,0.1,0.7,0.2,0.7,0.5
		c0,0.2-0.1,0.4-0.4,0.5c-0.2,0.1-0.3,0.3-0.3,0.5v4.1h2.9l0.8-0.6l1,1c0.1,0.1,0.2,0.2,0.2,0.4c0,0.3-0.2,0.6-0.5,0.6
		c-0.2,0-0.5,0.1-0.5,0.3c-1.1,1.9-2.1,3.4-2.9,4.3l-0.7,0.7v0.2c1.4,0.4,4,1.9,4.7,3.1l0.1,0.8c0,0.4-0.3,0.6-0.7,0.6
		c-0.2,0-0.5-0.1-0.6-0.4c-1-1.5-2.2-2.9-3.6-3.5V34z M324.2,32.5l-0.2-0.9h8.7V18.2h-6.3l-0.2-0.9h6.5V6.4l1.6,0.3
		c0.5,0.1,0.7,0.2,0.7,0.5c0,0.2-0.1,0.4-0.4,0.5c-0.2,0.1-0.4,0.2-0.4,0.5v9.2h2.9l1.9-1.6l1.9,1.4c0.2,0.1,0.2,0.3,0.2,0.5
		c0,0.4-0.3,0.6-0.7,0.6h-6.3v13.4h4.2l1.9-1.6l1.9,1.4c0.2,0.1,0.2,0.2,0.2,0.4c0,0.6-0.4,0.7-0.7,0.7H324.2z"/>
	<path class="st0" d="M353.2,21.2c-1.6,3.3-3.2,7-3.2,8c0,0.5,0.3,1,0.3,1.8c0,0.9-0.4,1-0.6,1c-1.3,0-2.7-2.5-2.7-7.9
		c0-4.6,1.2-8.4,1.7-11c0.1-0.5,0.1-1,0.1-1.4c0-2.1-1.4-2.4-1.6-2.5l0-0.3c0.3-0.3,0.8-0.4,1.1-0.4c1.7,0,2.9,1.8,2.9,2.8
		c0,0.8-0.5,1.3-0.6,1.6c-2.2,5.7-2.2,9.5-2.2,10.8c0,1.9,0.2,2.9,0.4,3.4l0.3-0.1c0.4-0.7,2.4-4.3,3.5-6.2L353.2,21.2z M359.1,20.4
		c-1.4,1.4-2.5,3.1-2.5,4.7c0,2.6,1.9,3.4,6.1,3.4c2.6,0,4.6-0.3,5.2-0.5c1.6,0.2,2.1,0.8,2.1,1.3c0,0.7-0.9,0.9-6.6,0.9
		c-5.5,0-8.1-1.3-8.1-4.9c0-2.1,1.5-3.9,3.1-5.4L359.1,20.4z M356,12.8c0.7,0.2,2,0.3,3,0.3c1.5,0,4.6-0.5,6.2-1.1
		c0.5-0.2,1.1-0.6,1.3-0.6c0.9,0,2.3,0.3,2.3,1.1c0,0.6-1,0.8-2.2,1c-2.3,0.5-5.4,0.8-6.8,0.8c-1.2,0-2.8-0.1-3.9-0.9L356,12.8z"/>
	<path class="st0" d="M382.2,29.9c5.3-0.3,10.1-1.5,12.7-2.9c2.9-1.6,4.5-4.3,4.5-7.3c0-4.5-2.6-7-7.1-7c-3.7,0-8.2,1.7-11.3,3.4
		c-1.4,0.8-1.7,1.5-2.8,1.5c-1,0-3.2-1.2-3.2-2.9c0-0.5,0-1,0.6-1.5h0.2c0.1,1,0.7,1.9,2.1,1.9c2.3,0,8.3-3.5,14.5-3.5
		c5.3,0,9,2.8,9,8.2c0,3.6-1.9,6.7-5.6,8.5c-2.9,1.4-7.9,2.2-13.5,2.3L382.2,29.9z"/>
	<path class="st0" d="M405.6,11.1c0.2-0.4,0.7-0.6,1.1-0.6c1.4,0,3.1,1.4,3.1,2.8c0,0.4-0.3,0.8-0.4,1.2c-0.2,0.5-0.4,1.4-0.5,1.9
		c-0.1,1-0.4,2.8-0.4,5.1c0,4.4,2.4,6.8,3,6.8c0.4,0,0.6-0.4,1.4-1.4c0.8-1,2.6-4,4.1-6.7l0.7,0.2c-1.3,2.5-3.5,6.6-4.1,8.1
		c-0.1,0.2-0.1,0.4-0.1,0.6c0,0.2,0.1,0.3,0.1,0.4c0.3,0.3,0.6,0.8,0.6,1.1c0,0.4-0.5,0.5-1.1,0.5c-0.5,0-1.9-0.6-2.7-1.4
		c-2.4-2.5-3.2-5.7-3.2-8.4c0-2.3,0.2-5.5,0.3-7.3v-0.4C407.6,11.9,406.7,11.2,405.6,11.1L405.6,11.1z M423.6,12.5
		c5.2,1.4,7.8,6.1,7.8,9.7c0,1.1-0.2,2.2-1,2.2c-0.5,0-0.8-0.4-0.9-1.3c-0.1-4.3-2.2-8.4-6.2-9.9L423.6,12.5z"/>
	<path class="st0" d="M437.1,10.9c0.1,0.9,0.9,1.6,2,1.6c0.5,0,1.6-0.1,2.4-0.3c2.4-0.5,9.7-1.8,14-2.2c0.9-0.1,1.6-0.4,1.9-0.7
		c2.4,0.5,3.3,1,3.3,1.8c0,0.5-0.5,0.5-1.1,0.5c-0.7,0-1.6-0.1-2.4-0.1c-3.1,0-7.3,3.2-9,5.9c-1,1.5-1.8,4.1-1.8,6.8
		c0,4.5,2.8,5.6,6.2,6.1c0.2,0,1,0,1.6,0c1.2,0,2,0.9,2,1.6c0,0.5-0.4,0.6-1.2,0.6c-0.3,0-0.6,0-1-0.1c-7.5-0.8-9.3-3.3-9.3-8.3
		c0-6.9,6-11.2,8.8-12.8l0-0.1c-3.5,0.3-11.6,2-13,3.1c-0.4,0.3-0.8,0.5-1.3,0.5c-1.3,0-2.8-1.6-2.8-2.6c0-0.6,0.2-1,0.5-1.3
		L437.1,10.9z"/>
</g>
<rect x="1.5" y="17.6" class="st0" width="53.6" height="0.4"/>
<rect x="257" y="5.5" transform="matrix(-1 -1.224647e-16 1.224647e-16 -1 514.4348 41.13)" class="st0" width="0.4" height="30"/>
</svg>
