<svg xmlns="http://www.w3.org/2000/svg" viewBox="0 0 87.25 11.34"><g data-name="レイヤー 2"><path d="M2.05 3.2a1 1 0 000 .12v.14a2.22 2.22 0 00.04.54 4.53 4.53 0 00.25.73L4.2 9.2l1.89-4.38c.08-.19.16-.4.25-.63a1.9 1.9 0 00.14-.7.79.79 0 000-.17.46.46 0 000-.09h1.36a2.6 2.6 0 00-.36.53 9.54 9.54 0 00-.46 1l-2.88 6.6h-.46L1 5.09q-.15-.34-.3-.66C.6 4.22.5 4 .4 3.87s-.18-.31-.25-.42L0 3.23zm8.61 3.06V5.1c0-.33 0-.62-.05-.86s0-.44-.07-.6-.06-.3-.09-.41h1.8a3 3 0 00-.08.41c0 .16-.05.36-.07.6s0 .53-.05.86 0 .72 0 1.16v3.05c0 .33 0 .61.05.85s0 .44.07.61a2.81 2.81 0 00.08.4h-1.8c0-.11.06-.24.09-.4s.05-.37.07-.61 0-.52.05-.85 0-.72 0-1.16zM10.49.84a.72.72 0 01.07-.33.78.78 0 01.17-.26.71.71 0 01.27-.18.81.81 0 01.66 0 .68.68 0 01.26.18.68.68 0 01.18.26.72.72 0 01.07.33.82.82 0 01-.84.84.72.72 0 01-.33-.07.71.71 0 01-.27-.18.78.78 0 01-.17-.26.72.72 0 01-.07-.33zm8.96 10.5a4.85 4.85 0 01-1.63-.27 3.86 3.86 0 01-1.32-.8A3.69 3.69 0 0115.62 9a4.47 4.47 0 01-.33-1.77 4.39 4.39 0 01.3-1.64 4.1 4.1 0 01.82-1.31 3.71 3.71 0 011.22-.86 3.65 3.65 0 011.51-.32 4.08 4.08 0 011.5.28 3.42 3.42 0 011.19.8 4.07 4.07 0 01.8 1.31 5.37 5.37 0 01.31 1.77h-6.1a5.93 5.93 0 00.25 1.47 3.58 3.58 0 00.57 1.12 2.41 2.41 0 00.88.71 2.65 2.65 0 001.18.25 3.3 3.3 0 00.85-.1 3 3 0 00.73-.29 3 3 0 00.59-.45 2.87 2.87 0 00.44-.55h.09l-.58 1.39a4.45 4.45 0 01-1 .37 5.8 5.8 0 01-1.39.16zm-1-4.76h2.97a4.77 4.77 0 00-.26-1.22 3.22 3.22 0 00-.5-.92 2.16 2.16 0 00-.72-.57 2 2 0 00-.94-.24 1.78 1.78 0 00-.83.2 2 2 0 00-.66.58 2.87 2.87 0 00-.45.91 4.66 4.66 0 00-.2 1.24h.74zm12.69-2.66l2.09 5.25L35 4.82c0-.09.08-.2.12-.32a3 3 0 00.13-.36c0-.12.07-.23.09-.35a1.13 1.13 0 000-.3.79.79 0 000-.17.46.46 0 000-.09h1.41a3.26 3.26 0 00-.34.49 9.68 9.68 0 00-.47 1l-2.78 6.6h-.44l-2-4.89-2 4.89h-.52l-2.56-6.23a6.62 6.62 0 00-.3-.66c-.11-.21-.21-.4-.31-.56s-.18-.31-.25-.42l-.15-.22h2.08a.37.37 0 000 .12.71.71 0 000 .14 2.22 2.22 0 00.07.54 5.8 5.8 0 00.25.73l1.74 4.41 2.1-5.25zm19.95 2.02a3.28 3.28 0 00-.09-.89 1.71 1.71 0 00-.3-.62 1.15 1.15 0 00-.48-.37 1.61 1.61 0 00-.63-.12 1.78 1.78 0 00-.52.09 3.76 3.76 0 00-.6.26 5 5 0 00-.61.37 6.55 6.55 0 00-.59.45v5.05c0 .24 0 .44.07.61s.06.29.09.4h-1.78c0-.11.06-.24.09-.4s0-.37.07-.61 0-.52 0-.85V4.24c0-.24 0-.44-.07-.6s-.06-.3-.09-.41h1.81a2.28 2.28 0 00-.1.46c0 .19 0 .42-.07.7A7.25 7.25 0 0148 3.9a5.48 5.48 0 01.74-.43 4.49 4.49 0 01.76-.31 2.78 2.78 0 01.75-.11 2.69 2.69 0 01.79.11 2.35 2.35 0 01.61.32A2.18 2.18 0 0152 4a2.11 2.11 0 01.27.59A6.82 6.82 0 0153 4a6.28 6.28 0 01.78-.48 5.26 5.26 0 01.82-.34 2.65 2.65 0 01.82-.13 2.31 2.31 0 011 .21 2 2 0 01.7.55 2.17 2.17 0 01.39.79 3.35 3.35 0 01.12.89v4.67c0 .24.05.44.07.61s.06.29.09.4h-1.71c0-.11.06-.24.09-.4s0-.37.08-.61 0-.52 0-.85V5.94a2.3 2.3 0 00-.42-1.52 1.37 1.37 0 00-1.1-.48 1.85 1.85 0 00-.54.09 3.49 3.49 0 00-.61.26 6.1 6.1 0 00-.62.38 5.2 5.2 0 00-.59.46 1.1 1.1 0 010 .18v4c0 .33 0 .61.05.85a4.49 4.49 0 00.07.61 1.83 1.83 0 00.09.4h-1.71c0-.11.06-.24.09-.4s0-.37.07-.61 0-.52 0-.85V8.15zm9.75 1.25a4 4 0 01.33-1.64 3.83 3.83 0 01.9-1.31 4 4 0 011.35-.86 4.45 4.45 0 011.68-.32 4.57 4.57 0 011.66.3 4 4 0 011.36.83A3.85 3.85 0 0169 5.5a4.37 4.37 0 01.33 1.73 4.26 4.26 0 01-.28 1.55 3.75 3.75 0 01-.83 1.31 3.88 3.88 0 01-1.34.91 4.54 4.54 0 01-1.82.34 4.48 4.48 0 01-1.65-.29 3.86 3.86 0 01-1.35-.82 4 4 0 01-.92-1.31 4.34 4.34 0 01-.3-1.73zm4.43 3.58a2.31 2.31 0 001-.22 2.2 2.2 0 00.8-.63 2.92 2.92 0 00.52-1 4.25 4.25 0 00.19-1.34A6.56 6.56 0 0067.62 6a3.94 3.94 0 00-.54-1.25 2.5 2.5 0 00-.89-.82 2.55 2.55 0 00-1.26-.3 2.23 2.23 0 00-1 .22 2.31 2.31 0 00-.81.62 2.91 2.91 0 00-.52 1 4.3 4.3 0 00-.2 1.33 6.59 6.59 0 00.18 1.58 4.26 4.26 0 00.55 1.26 2.61 2.61 0 00.89.83 2.51 2.51 0 001.25.3zm7.31-4.51V4.24c0-.24 0-.44-.07-.6s-.06-.3-.09-.41h1.8a2.21 2.21 0 00-.1.44 4.94 4.94 0 00-.07.67c.19-.17.39-.32.6-.48a4.93 4.93 0 01.64-.41 3.57 3.57 0 01.67-.29 2 2 0 01.68-.11 2.06 2.06 0 01.37 0l.28.05.23.08.19.08-.38 1.49h-.13a1 1 0 00-.35-.55 1.11 1.11 0 00-.77-.2 1.51 1.51 0 00-.5.09 3.19 3.19 0 00-.54.24 4.62 4.62 0 00-.55.35c-.18.13-.36.27-.53.42v5.06c0 .24 0 .44.08.61a2.81 2.81 0 00.08.4h-1.8c0-.11.06-.24.09-.4s0-.37.07-.61 0-.52 0-.85V8.15zm11.17 5.08a4.79 4.79 0 01-1.62-.27A3.67 3.67 0 0179.92 9a4.66 4.66 0 01-.32-1.77 4.59 4.59 0 01.29-1.64 4.28 4.28 0 01.82-1.31 3.82 3.82 0 012.74-1.18 4 4 0 011.49.28 3.25 3.25 0 011.19.8 3.91 3.91 0 01.8 1.31 5.37 5.37 0 01.32 1.77h-6.09a6.44 6.44 0 00.25 1.47A3.58 3.58 0 0082 9.81a2.44 2.44 0 00.89.71 2.61 2.61 0 001.17.25 3.44 3.44 0 00.86-.1 3.18 3.18 0 00.73-.29 2.9 2.9 0 00.58-.45 2.53 2.53 0 00.44-.55h.1l-.58 1.39a4.55 4.55 0 01-1 .37 5.75 5.75 0 01-1.44.2zm-1-4.76h3a5.23 5.23 0 00-.27-1.22 3.22 3.22 0 00-.5-.92 2.11 2.11 0 00-1.63-.78 1.78 1.78 0 00-.83.2 1.83 1.83 0 00-.66.58 3.11 3.11 0 00-.46.91 5.11 5.11 0 00-.2 1.24h.74z" fill="#fff" data-name="レイヤー 1"/></g></svg>