<?xml version="1.0" encoding="utf-8"?>
<!-- Generator: Adobe Illustrator 25.0.1, SVG Export Plug-In . SVG Version: 6.00 Build 0)  -->
<svg version="1.1" id="レイヤー_1" xmlns="http://www.w3.org/2000/svg" xmlns:xlink="http://www.w3.org/1999/xlink" x="0px"
	 y="0px" viewBox="0 0 20.8 15.8" style="enable-background:new 0 0 20.8 15.8;" xml:space="preserve">
<style type="text/css">
	.st0{fill:none;stroke:#FFFFFF;stroke-width:0.82;stroke-miterlimit:10;}
	.st1{fill:none;stroke:#FFFFFF;stroke-width:0.2;stroke-miterlimit:10;}
	.st2{fill:#FFFFFF;stroke:#FFFFFF;stroke-width:0.2;stroke-miterlimit:10;}
</style>
<g id="レイヤー_2_1_">
	<g id="レイヤー_1-2">
		<path class="st0" d="M1.4,0.4h18c0.6,0,1,0.4,1,1v13c0,0.6-0.4,1-1,1h-18c-0.6,0-1-0.4-1-1v-13C0.4,0.9,0.9,0.4,1.4,0.4z"/>
		<path class="st0" d="M0.4,4.4l10,5.5l10-5.5"/>
	</g>
</g>
<g>
	<path class="st0" d="M-12.4,31.6h-16.1c-1.1,0-2.1-0.9-2.1-2.1V3c0-1.1,0.9-2.1,2.1-2.1h16.1c1.1,0,2.1,0.9,2.1,2.1v26.5
		C-10.4,30.6-11.3,31.6-12.4,31.6z"/>
	<rect x="-28" y="4.4" class="st0" width="15.1" height="21.4"/>
	<path class="st1" d="M-19.6,3.4h-1.7c-0.3,0-0.5-0.2-0.5-0.5v0c0-0.3,0.2-0.5,0.5-0.5h1.7c0.3,0,0.5,0.2,0.5,0.5v0
		C-19.1,3.2-19.3,3.4-19.6,3.4z"/>
	<circle class="st2" cx="-20.4" cy="28.6" r="1.1"/>
</g>
</svg>
