<?xml version="1.0" encoding="utf-8"?>
<!-- Generator: Adobe Illustrator 25.0.1, SVG Export Plug-In . SVG Version: 6.00 Build 0)  -->
<svg version="1.1" id="レイヤー_1" xmlns="http://www.w3.org/2000/svg" xmlns:xlink="http://www.w3.org/1999/xlink" x="0px"
	 y="0px" viewBox="0 0 290.5 36.5" style="enable-background:new 0 0 290.5 36.5;" xml:space="preserve">
<style type="text/css">
	.st0{fill:#FFFFFF;}
</style>
<g>
	<path class="st0" d="M0.2-58.4c-3.5,0-6-1.2-7.6-3.7c-1.6-2.5-2.4-6.3-2.4-11.6c0-5.2,0.8-9.1,2.5-11.6c1.6-2.5,4.2-3.7,7.6-3.7
		c3.4,0,6,1.2,7.6,3.7c1.6,2.5,2.5,6.3,2.5,11.6c0,5.3-0.8,9.1-2.4,11.6C6.2-59.6,3.7-58.4,0.2-58.4z M0.2-86
		c-2.2,0-3.8,0.9-4.8,2.6c-1,1.8-1.5,5-1.5,9.7c0,4.7,0.5,7.9,1.5,9.6c1,1.8,2.6,2.7,4.8,2.7S4-62.3,5-64c1-1.8,1.5-5,1.5-9.7
		c0-4.6-0.5-7.8-1.5-9.6C4.1-85.1,2.4-86,0.2-86z"/>
	<path class="st0" d="M15.6-60.2v-3.9h0.3c2.6,1.7,5.4,2.6,8.2,2.6c2.1,0,3.8-0.6,5-1.7C30.4-64.4,31-66,31-68
		c0-1.9-0.5-3.3-1.6-4.1s-2.9-1.3-5.3-1.3h-1.7v-3h1.3c2.1,0,3.8-0.4,5-1.3c1.2-0.9,1.8-2.2,1.8-3.8c0-1.4-0.5-2.4-1.6-3.2
		c-1-0.7-2.5-1.1-4.3-1.1c-2.6,0-5.3,0.9-7.9,2.6h-0.2v-3.8c2.6-1.2,5.4-1.9,8.2-1.9c3,0,5.4,0.6,7,1.9s2.5,3,2.5,5.1
		c0,1.6-0.6,3-1.7,4.3c-1.1,1.3-2.5,2-4.2,2.4v0.3c4.3,0.8,6.4,3.2,6.4,7.4c0,2.7-1,4.9-2.9,6.6c-2,1.7-4.5,2.6-7.6,2.6
		C21.2-58.4,18.4-59,15.6-60.2z"/>
	<path class="st0" d="M52.3-70.2H40.1v-3.3h12.2V-70.2z"/>
	<path class="st0" d="M75.2-88.5v3.5h-0.2c-1.1-0.5-2.4-0.8-3.8-0.8c-2.9,0-5.2,0.9-6.9,2.7c-1.7,1.8-2.7,4.4-3,7.6
		c2.5-1.5,4.9-2.2,7.2-2.2c2.9,0,5.2,0.8,6.9,2.4s2.7,3.9,2.7,6.8c0,2.9-1,5.4-2.9,7.3c-1.9,1.9-4.3,2.9-7.2,2.9
		c-3.3,0-5.9-1.2-7.7-3.5c-1.8-2.3-2.8-5.7-2.8-10c0-5.4,1.2-9.6,3.7-12.6c2.5-3,6-4.5,10.6-4.5C73.1-89,74.2-88.8,75.2-88.5z
		 M61.2-73c-0.1,1.1-0.1,1.7-0.1,1.9c0,3.1,0.6,5.5,1.8,7.2c1.2,1.7,2.9,2.5,5,2.5c2,0,3.5-0.6,4.6-1.8c1.1-1.2,1.7-3,1.7-5.2
		c0-1.8-0.5-3.4-1.6-4.6s-2.8-1.8-5.3-1.8C65.3-74.7,63.2-74.1,61.2-73z"/>
	<path class="st0" d="M102.4-59H82.7v-3.8c2.1-1.8,4.4-3.9,7-6.3s4.5-4.5,5.8-6.3c1.3-1.8,1.9-3.6,1.9-5.4c0-1.6-0.5-2.9-1.6-3.8
		c-1.1-0.9-2.5-1.3-4.3-1.3c-2.7,0-5.3,0.8-7.9,2.5h-0.2v-3.8c2.6-1.3,5.4-1.9,8.2-1.9c3,0,5.3,0.7,7,2.2c1.7,1.4,2.6,3.4,2.6,5.9
		c0,1.3-0.2,2.6-0.7,3.8c-0.4,1.2-1.1,2.4-2,3.5c-0.9,1.1-2,2.4-3.3,3.7s-4.3,3.9-8.9,7.9h16.1V-59z"/>
	<path class="st0" d="M124.9-88.5v3.5h-0.2c-1.1-0.5-2.4-0.8-3.8-0.8c-2.9,0-5.2,0.9-6.9,2.7c-1.7,1.8-2.7,4.4-3,7.6
		c2.5-1.5,4.9-2.2,7.2-2.2c2.9,0,5.2,0.8,6.9,2.4s2.7,3.9,2.7,6.8c0,2.9-1,5.4-2.9,7.3c-1.9,1.9-4.3,2.9-7.2,2.9
		c-3.3,0-5.9-1.2-7.7-3.5c-1.8-2.3-2.8-5.7-2.8-10c0-5.4,1.2-9.6,3.7-12.6c2.5-3,6-4.5,10.6-4.5C122.8-89,123.9-88.8,124.9-88.5z
		 M110.9-73c-0.1,1.1-0.1,1.7-0.1,1.9c0,3.1,0.6,5.5,1.8,7.2c1.2,1.7,2.9,2.5,5,2.5c2,0,3.5-0.6,4.6-1.8c1.1-1.2,1.7-3,1.7-5.2
		c0-1.8-0.5-3.4-1.6-4.6s-2.8-1.8-5.3-1.8C115-74.7,112.9-74.1,110.9-73z"/>
	<path class="st0" d="M152.8-67.5h-4.3v8.5h-3.5v-8.5h-14.2v-4.1l14.3-16.9h3.4v18.1h4.3V-67.5z M144.9-70.4v-13.8l-11.7,13.8H144.9
		z"/>
	<path class="st0" d="M169.3-70.2h-12.2v-3.3h12.2V-70.2z"/>
	<path class="st0" d="M175-60.2v-3.9h0.3c2.6,1.7,5.4,2.6,8.2,2.6c2.1,0,3.8-0.6,5-1.7c1.3-1.1,1.9-2.7,1.9-4.7
		c0-1.9-0.5-3.3-1.6-4.1s-2.9-1.3-5.3-1.3h-1.7v-3h1.3c2.1,0,3.8-0.4,5-1.3c1.2-0.9,1.8-2.2,1.8-3.8c0-1.4-0.5-2.4-1.6-3.2
		c-1-0.7-2.5-1.1-4.3-1.1c-2.6,0-5.3,0.9-7.9,2.6h-0.2v-3.8c2.6-1.2,5.4-1.9,8.2-1.9c3,0,5.4,0.6,7,1.9s2.5,3,2.5,5.1
		c0,1.6-0.6,3-1.7,4.3c-1.1,1.3-2.5,2-4.2,2.4v0.3c4.3,0.8,6.4,3.2,6.4,7.4c0,2.7-1,4.9-2.9,6.6c-2,1.7-4.5,2.6-7.6,2.6
		C180.6-58.4,177.7-59,175-60.2z"/>
	<path class="st0" d="M209.3-58.4c-3.5,0-6-1.2-7.6-3.7c-1.6-2.5-2.4-6.3-2.4-11.6c0-5.2,0.8-9.1,2.5-11.6c1.6-2.5,4.2-3.7,7.6-3.7
		c3.4,0,6,1.2,7.6,3.7c1.6,2.5,2.5,6.3,2.5,11.6c0,5.3-0.8,9.1-2.4,11.6C215.3-59.6,212.7-58.4,209.3-58.4z M209.3-86
		c-2.2,0-3.8,0.9-4.8,2.6c-1,1.8-1.5,5-1.5,9.7c0,4.7,0.5,7.9,1.5,9.6c1,1.8,2.6,2.7,4.8,2.7s3.8-0.9,4.8-2.7c1-1.8,1.5-5,1.5-9.7
		c0-4.6-0.5-7.8-1.5-9.6C213.1-85.1,211.5-86,209.3-86z"/>
	<path class="st0" d="M242.5-59h-15.7v-2.7h6.1v-20.2h-6.1v-2.4c2.4,0,4.1-0.4,5.1-1c1-0.7,1.6-1.7,1.7-3.2h2.8v26.8h6V-59z"/>
	<path class="st0" d="M269.1-84.4L255.9-59H252l14-26.3h-16.8v-3.2h19.9V-84.4z"/>
</g>
<g>
	<path class="st0" d="M12.4,34.5c-3.5,0-6-1.2-7.6-3.7c-1.6-2.5-2.4-6.3-2.4-11.6c0-5.2,0.8-9.1,2.5-11.6C6.4,5.1,9,3.9,12.4,3.9
		c3.4,0,6,1.2,7.6,3.7c1.6,2.5,2.5,6.3,2.5,11.6c0,5.3-0.8,9.1-2.4,11.6C18.4,33.2,15.9,34.5,12.4,34.5z M12.4,6.9
		c-2.2,0-3.8,0.9-4.8,2.6c-1,1.8-1.5,5-1.5,9.7c0,4.7,0.5,7.9,1.5,9.6c1,1.8,2.6,2.7,4.8,2.7s3.8-0.9,4.8-2.7c1-1.8,1.5-5,1.5-9.7
		c0-4.6-0.5-7.8-1.5-9.6C16.3,7.8,14.7,6.9,12.4,6.9z"/>
	<path class="st0" d="M27.8,32.7v-3.9h0.3c2.6,1.7,5.4,2.6,8.2,2.6c2.1,0,3.8-0.6,5-1.7c1.3-1.1,1.9-2.7,1.9-4.7
		c0-1.9-0.5-3.3-1.6-4.1c-1.1-0.9-2.9-1.3-5.3-1.3h-1.7v-3h1.3c2.1,0,3.8-0.4,5-1.3c1.2-0.9,1.8-2.2,1.8-3.8c0-1.4-0.5-2.4-1.6-3.2
		C40,7.4,38.6,7,36.7,7c-2.6,0-5.3,0.9-7.9,2.6h-0.2V5.7c2.6-1.2,5.4-1.9,8.2-1.9c3,0,5.4,0.6,7,1.9s2.5,3,2.5,5.1
		c0,1.6-0.6,3-1.7,4.3c-1.1,1.3-2.5,2-4.2,2.4v0.3c4.3,0.8,6.4,3.2,6.4,7.4c0,2.7-1,4.9-2.9,6.6c-2,1.7-4.5,2.6-7.6,2.6
		C33.5,34.5,30.6,33.9,27.8,32.7z"/>
	<path class="st0" d="M64.6,22.7H52.4v-3.3h12.2V22.7z"/>
	<path class="st0" d="M87.4,4.4v3.5h-0.2C86.1,7.3,84.8,7,83.3,7c-2.9,0-5.2,0.9-6.9,2.7c-1.7,1.8-2.7,4.4-3,7.6
		c2.5-1.5,4.9-2.2,7.2-2.2c2.9,0,5.2,0.8,6.9,2.4c1.8,1.6,2.7,3.9,2.7,6.8c0,2.9-1,5.4-2.9,7.3c-1.9,1.9-4.3,2.9-7.2,2.9
		c-3.3,0-5.9-1.2-7.7-3.5c-1.8-2.3-2.8-5.7-2.8-10c0-5.4,1.2-9.6,3.7-12.6c2.5-3,6-4.5,10.6-4.5C85.3,3.9,86.5,4.1,87.4,4.4z
		 M73.4,19.9c-0.1,1.1-0.1,1.7-0.1,1.9c0,3.1,0.6,5.5,1.8,7.2c1.2,1.7,2.9,2.5,5,2.5c2,0,3.5-0.6,4.6-1.8c1.1-1.2,1.7-3,1.7-5.2
		c0-1.8-0.5-3.4-1.6-4.6c-1.1-1.2-2.8-1.8-5.3-1.8C77.5,18.2,75.5,18.8,73.4,19.9z"/>
	<path class="st0" d="M114.6,33.9H95v-3.8c2.1-1.8,4.4-3.9,7-6.3s4.5-4.5,5.8-6.3c1.3-1.8,1.9-3.6,1.9-5.4c0-1.6-0.5-2.9-1.6-3.8
		C107,7.4,105.6,7,103.8,7c-2.7,0-5.3,0.8-7.9,2.5h-0.2V5.7c2.6-1.3,5.4-1.9,8.2-1.9c3,0,5.3,0.7,7,2.2c1.7,1.4,2.6,3.4,2.6,5.9
		c0,1.3-0.2,2.6-0.7,3.8c-0.4,1.2-1.1,2.4-2,3.5c-0.9,1.1-2,2.4-3.3,3.7s-4.3,3.9-8.9,7.9h16.1V33.9z"/>
	<path class="st0" d="M137.1,4.4v3.5h-0.2C135.8,7.3,134.5,7,133,7c-2.9,0-5.2,0.9-6.9,2.7c-1.7,1.8-2.7,4.4-3,7.6
		c2.5-1.5,4.9-2.2,7.2-2.2c2.9,0,5.2,0.8,6.9,2.4c1.8,1.6,2.7,3.9,2.7,6.8c0,2.9-1,5.4-2.9,7.3c-1.9,1.9-4.3,2.9-7.2,2.9
		c-3.3,0-5.9-1.2-7.7-3.5c-1.8-2.3-2.8-5.7-2.8-10c0-5.4,1.2-9.6,3.7-12.6c2.5-3,6-4.5,10.6-4.5C135,3.9,136.2,4.1,137.1,4.4z
		 M123.1,19.9c-0.1,1.1-0.1,1.7-0.1,1.9c0,3.1,0.6,5.5,1.8,7.2c1.2,1.7,2.9,2.5,5,2.5c2,0,3.5-0.6,4.6-1.8c1.1-1.2,1.7-3,1.7-5.2
		c0-1.8-0.5-3.4-1.6-4.6c-1.1-1.2-2.8-1.8-5.3-1.8C127.2,18.2,125.2,18.8,123.1,19.9z"/>
	<path class="st0" d="M165,25.4h-4.3v8.5h-3.5v-8.5H143v-4.1l14.3-16.9h3.4v18.1h4.3V25.4z M157.2,22.5V8.7l-11.7,13.8H157.2z"/>
	<path class="st0" d="M181.5,22.7h-12.2v-3.3h12.2V22.7z"/>
	<path class="st0" d="M187.2,32.7v-3.9h0.3c2.6,1.7,5.4,2.6,8.2,2.6c2.1,0,3.8-0.6,5-1.7s1.9-2.7,1.9-4.7c0-1.9-0.5-3.3-1.6-4.1
		c-1.1-0.9-2.9-1.3-5.3-1.3h-1.7v-3h1.3c2.1,0,3.8-0.4,5-1.3s1.8-2.2,1.8-3.8c0-1.4-0.5-2.4-1.6-3.2c-1-0.7-2.5-1.1-4.3-1.1
		c-2.6,0-5.3,0.9-7.9,2.6H188V5.7c2.6-1.2,5.4-1.9,8.2-1.9c3,0,5.4,0.6,7,1.9s2.5,3,2.5,5.1c0,1.6-0.6,3-1.7,4.3s-2.5,2-4.2,2.4v0.3
		c4.3,0.8,6.4,3.2,6.4,7.4c0,2.7-1,4.9-2.9,6.6c-2,1.7-4.5,2.6-7.6,2.6C192.8,34.5,190,33.9,187.2,32.7z"/>
	<path class="st0" d="M221.5,34.5c-3.5,0-6-1.2-7.6-3.7c-1.6-2.5-2.4-6.3-2.4-11.6c0-5.2,0.8-9.1,2.5-11.6c1.6-2.5,4.2-3.7,7.6-3.7
		c3.4,0,6,1.2,7.6,3.7c1.6,2.5,2.5,6.3,2.5,11.6c0,5.3-0.8,9.1-2.4,11.6S225,34.5,221.5,34.5z M221.5,6.9c-2.2,0-3.8,0.9-4.8,2.6
		c-1,1.8-1.5,5-1.5,9.7c0,4.7,0.5,7.9,1.5,9.6c1,1.8,2.6,2.7,4.8,2.7s3.8-0.9,4.8-2.7c1-1.8,1.5-5,1.5-9.7c0-4.6-0.5-7.8-1.5-9.6
		C225.4,7.8,223.7,6.9,221.5,6.9z"/>
	<path class="st0" d="M254.8,33.9h-15.7v-2.7h6.1V11h-6.1V8.6c2.4,0,4.1-0.4,5.1-1c1-0.7,1.6-1.7,1.7-3.2h2.8v26.8h6V33.9z"/>
	<path class="st0" d="M266.3,18.3V18c-3.1-1.7-4.7-3.9-4.7-6.6c0-2.2,0.9-4.1,2.7-5.5s4.1-2.2,6.9-2.2c2.9,0,5.2,0.7,6.9,2.1
		s2.6,3.2,2.6,5.4c0,1.4-0.4,2.8-1.3,4c-0.9,1.3-2.1,2.2-3.6,2.9v0.3c3.8,1.6,5.7,4.1,5.7,7.3c0,2.5-1,4.6-2.9,6.3
		c-2,1.7-4.4,2.5-7.4,2.5c-3.1,0-5.6-0.8-7.5-2.4c-1.9-1.6-2.8-3.7-2.8-6.3C260.8,22.4,262.7,19.9,266.3,18.3z M268.7,19
		c-2.7,1.5-4.1,3.7-4.1,6.6c0,1.9,0.6,3.4,1.9,4.6c1.3,1.2,2.8,1.7,4.8,1.7c2,0,3.6-0.5,4.7-1.5c1.2-1,1.8-2.4,1.8-4.2
		c0-1.2-0.3-2.2-0.8-2.9c-0.5-0.7-1.3-1.4-2.3-1.9S271.6,20,268.7,19z M277.1,11.2c0-1.4-0.5-2.6-1.6-3.5s-2.5-1.3-4.3-1.3
		c-1.7,0-3.1,0.4-4.2,1.3s-1.6,1.9-1.6,3.3c0,1.5,0.7,2.8,2,3.7s3.4,1.9,6.2,2.7C275.9,15.9,277.1,13.8,277.1,11.2z"/>
</g>
</svg>
