<svg xmlns="http://www.w3.org/2000/svg" viewBox="0 0 18.08 18.08"><defs><style>.cls-1{fill:none;stroke:#fff;stroke-miterlimit:10;stroke-width:.82px}</style></defs><g id="レイヤー_2" data-name="レイヤー 2"><g id="レイヤー_1-2" data-name="レイヤー 1"><circle class="cls-1" cx="9.04" cy="9.04" r="3.94"/><circle cx="13.98" cy="4.1" r=".77" fill="#fff"/><path class="cls-1" d="M9 .41c2.81 0 3.14 0 4.25.06a6.05 6.05 0 012 .36 3.26 3.26 0 011.21.79 3.26 3.26 0 01.79 1.21 6.05 6.05 0 01.36 2c.05 1.11.06 1.44.06 4.25s0 3.14-.06 4.25a6.05 6.05 0 01-.36 2 3.52 3.52 0 01-2 2 6.05 6.05 0 01-2 .36c-1.11.05-1.44.06-4.25.06s-3.14 0-4.25-.06a6.05 6.05 0 01-2-.36 3.26 3.26 0 01-1.21-.79 3.26 3.26 0 01-.79-1.21 6.05 6.05 0 01-.36-2C.42 12.18.41 11.85.41 9s0-3.14.06-4.25a6.05 6.05 0 01.36-2 3.26 3.26 0 01.79-1.21A3.26 3.26 0 012.83.83a6.05 6.05 0 012-.36C5.9.42 6.23.41 9 .41"/></g></g></svg>