<?xml version="1.0" encoding="utf-8"?>
<!-- Generator: Adobe Illustrator 25.0.0, SVG Export Plug-In . SVG Version: 6.00 Build 0)  -->
<svg version="1.1" id="レイヤー_1" xmlns="http://www.w3.org/2000/svg" xmlns:xlink="http://www.w3.org/1999/xlink" x="0px"
	 y="0px" viewBox="0 0 92.7 26" style="enable-background:new 0 0 92.7 26;" xml:space="preserve">
<style type="text/css">
	.st0{stroke:#000000;stroke-width:0.3;stroke-miterlimit:10;}
</style>
<image style="overflow:visible;" width="1242" height="2688" xlink:href="../../../../../../Users/tokit/Downloads/iOS の画像 (9).png"  transform="matrix(0.2754 0 0 0.2754 -448.2826 -242.7826)">
</image>
<g>
	<path d="M22.8,2.9"/>
	<rect x="20.3" y="8.3" transform="matrix(0.7071 0.7071 -0.7071 0.7071 14.3202 -17.2735)" width="15.4" height="0.7"/>
	<rect x="9.9" y="18.7" transform="matrix(0.7071 0.7071 -0.7071 0.7071 18.6284 -6.8726)" width="15.4" height="0.7"/>
	<rect x="9.9" y="8.3" transform="matrix(0.7071 -0.7071 0.7071 0.7071 -0.9581 14.9856)" width="15.4" height="0.7"/>
	<rect x="20.3" y="18.7" transform="matrix(0.7071 -0.7071 0.7071 0.7071 -5.2663 25.3865)" width="15.4" height="0.7"/>
	<rect x="13" y="11.1" transform="matrix(0.7071 -0.7071 0.7071 0.7071 -2.6065 16.7045)" width="11.8" height="0.7"/>
	<rect x="20.8" y="15.8" transform="matrix(0.7071 -0.7071 0.7071 0.7071 -3.6321 23.6315)" width="11.8" height="0.7"/>
	<rect x="15.5" y="14.2" transform="matrix(0.7071 -0.7071 0.7071 0.7071 -4.4563 18.3643)" width="8.8" height="0.7"/>
	<rect x="21.7" y="14.6" transform="matrix(0.7071 0.7071 -0.7071 0.7071 18.2563 -14.0688)" width="8.8" height="0.7"/>
	<rect x="21.7" y="10.6" transform="matrix(0.7071 0.7071 -0.7071 0.7071 15.3717 -15.2636)" width="8.8" height="0.7"/>
	<rect x="15.2" y="16.6" transform="matrix(0.7071 0.7071 -0.7071 0.7071 17.7244 -8.8866)" width="8.8" height="0.7"/>
	<g>
		<path class="st0" d="M42.1,9.8c0-0.4-0.1-0.7-0.6-0.7h-0.9V8.6H49l1,2.7h-0.4c-0.7-1.4-1.4-2.2-2.8-2.2h-3.3
			c-0.5,0-0.7,0.3-0.7,0.7v3.7h2.6c1.2,0,1.4-0.4,1.4-1.7h0.4v3.9h-0.4c0-1.5-0.2-1.7-1.4-1.7h-2.6v4c0,0.5,0.4,0.6,0.7,0.6h0.9V19
			h-3.9v-0.4h1c0.3,0,0.6-0.2,0.6-0.6V9.8z"/>
		<path class="st0" d="M55.9,18.6c-0.7,0.5-1.4,0.7-2.3,0.7c-0.7,0-1.8-0.3-1.8-1.7c0-0.6,0.2-1,0.8-1.4c0.7-0.5,1.9-0.9,3.8-1.1
			v-0.9c0-1-0.9-1.6-1.8-1.6c-1.1,0-1.6,0.7-1.6,1v0.2c0,0.2,0.1,0.6-0.4,0.6c-0.4,0-0.5-0.3-0.5-0.4c0-0.9,1-1.7,2.5-1.7
			c1.6,0,2.6,1,2.6,2v3.3c0,0.5,0,1.4,0.3,1.4c0.1,0,0.3-0.3,0.5-0.8l0.4,0.2c-0.3,0.9-0.7,1-1.1,1c-0.8,0-0.8-0.7-0.9-1.2
			L55.9,18.6z M56.4,15.6c-1.5,0.2-2.5,0.6-3.2,1c-0.4,0.3-0.7,0.6-0.7,1.1c0,0.8,0.7,1.3,1.4,1.3c0.9,0,2.3-0.6,2.5-1.7V15.6z"/>
		<path class="st0" d="M60.9,13.7c0-0.4-0.4-0.4-1.1-0.4v-0.4c0.5,0,1.2-0.2,1.9-0.5v1.1c0.5-0.6,0.9-1.1,1.9-1.1
			c0.6,0,1.1,0.2,1.5,0.6c0.1,0.1,0.2,0.3,0.3,0.6c0.3-0.5,1-1.2,2.1-1.2c1,0,1.8,0.7,1.8,2v3.8c0,0.3,0.2,0.5,0.6,0.5h0.5V19h-2.9
			v-0.4H68c0.3,0,0.5-0.2,0.5-0.5v-3.8c0-1-0.5-1.5-1.2-1.5c-0.6,0-1.6,0.5-1.8,1.4v4c0,0.4,0.2,0.5,0.6,0.5h0.5V19h-2.9v-0.4h0.6
			c0.2,0,0.5-0.2,0.5-0.5v-3.7c0-0.8-0.3-1.6-1.3-1.6c-0.6,0-1.5,0.4-1.7,1.5v3.9c0,0.3,0.2,0.5,0.5,0.5h0.6V19h-2.9v-0.4h0.4
			c0.3,0,0.7-0.1,0.7-0.5V13.7z"/>
		<path class="st0" d="M72.9,15.5v0.3c0,1.6,1.1,3.1,2.6,3.1c1.1,0,1.8-0.7,2.5-1.6l0.4,0.3c-1.2,1.4-1.8,1.8-3,1.8
			c-2.3,0-3.3-1.9-3.3-3.5c0-2.2,1.5-3.7,3.1-3.7c1.6,0,3,1.3,3,3.3H72.9z M77.4,15c-0.1-0.8-0.3-1.5-0.7-1.9
			c-0.4-0.4-0.9-0.6-1.5-0.6c-1.1,0-2.1,1-2.3,2.5H77.4z"/>
	</g>
</g>
</svg>
