<?xml version="1.0" encoding="utf-8"?>
<!-- Generator: Adobe Illustrator 25.0.1, SVG Export Plug-In . SVG Version: 6.00 Build 0)  -->
<svg version="1.1" id="レイヤー_1" xmlns="http://www.w3.org/2000/svg" xmlns:xlink="http://www.w3.org/1999/xlink" x="0px"
	 y="0px" viewBox="0 0 281.7 36.5" style="enable-background:new 0 0 281.7 36.5;" xml:space="preserve">
<style type="text/css">
	.st0{fill:#FFFFFF;}
</style>
<g>
	<path class="st0" d="M10,5.7H6.6V2.6H10V5.7z M9.8,28.9h-3V9.6h3V28.9z"/>
	<path class="st0" d="M31.6,28.9h-3V18.1c0-2.5-0.3-4.2-1-5c-0.7-0.8-1.7-1.2-3.3-1.2c-1.8,0-3.7,0.8-5.7,2.5v14.5h-3V9.6h3v2.3
		C20.9,10,23.2,9,25.4,9c2,0,3.5,0.6,4.6,1.9c1.1,1.2,1.6,3.1,1.6,5.4V28.9z"/>
	<path class="st0" d="M47.6,4.9h-0.1c-1-0.3-2-0.5-2.8-0.5c-1.5,0-2.6,0.4-3.3,1.1s-1,1.9-1,3.5v0.6h5.9v2.5h-5.8v16.9h-3V12.1h-2.2
		V9.6h2.2V8.8c0-2.3,0.6-4,1.7-5.2c1.1-1.2,2.8-1.8,4.9-1.8c1,0,2.2,0.1,3.5,0.3V4.9z"/>
	<path class="st0" d="M56.5,29.4c-2.7,0-4.9-0.9-6.5-2.7c-1.6-1.8-2.4-4.3-2.4-7.4c0-3.1,0.8-5.6,2.4-7.5C51.6,10,53.8,9,56.5,9
		c2.7,0,4.9,0.9,6.5,2.7c1.6,1.8,2.4,4.3,2.4,7.5c0,3.2-0.8,5.7-2.4,7.5C61.4,28.5,59.2,29.4,56.5,29.4z M56.5,11.6
		c-1.9,0-3.3,0.7-4.3,2c-1,1.3-1.5,3.2-1.5,5.7c0,2.5,0.5,4.3,1.5,5.6c1,1.3,2.4,2,4.3,2c1.9,0,3.3-0.7,4.3-2c1-1.3,1.5-3.2,1.5-5.6
		C62.3,14.2,60.4,11.6,56.5,11.6z"/>
	<path class="st0" d="M96.8,26.4h-7.3l-0.5-2.2c-1.9,1.6-3.7,2.4-5.4,2.4c-2,0-3.5-0.7-4.7-2.2c-1.2-1.5-1.7-3.6-1.7-6.2
		c0-2.6,0.7-4.7,2.1-6.3c1.4-1.6,3.1-2.4,5.2-2.4c1.5,0,3,0.4,4.6,1.3v-1h2.5v14.9h4.4c1-1.8,1.6-4.2,1.6-7c0-4-1.1-7.2-3.3-9.5
		c-2.2-2.3-5.2-3.5-9-3.5c-3.7,0-6.8,1.3-9.2,3.8c-2.4,2.5-3.7,5.6-3.7,9.4c0,3.9,1.2,7.1,3.5,9.5C78,29.8,81.1,31,85,31
		c2.2,0,4.2-0.3,6.1-0.8v2.2c-1.8,0.4-3.8,0.6-6.1,0.6c-4.4,0-8-1.4-10.8-4.2s-4.2-6.5-4.2-11c0-4.3,1.4-7.9,4.3-10.8
		c2.9-2.9,6.5-4.4,10.8-4.4c4.5,0,8,1.4,10.6,4.1c2.6,2.7,3.9,6.3,3.9,10.9C99.5,20.8,98.6,23.8,96.8,26.4z M88.9,22.2v-9.4
		c-1.5-0.7-2.8-1-4.1-1c-1.6,0-2.8,0.5-3.7,1.6s-1.3,2.6-1.3,4.6c0,4,1.5,6,4.4,6C85.6,24.1,87.2,23.5,88.9,22.2z"/>
	<path class="st0" d="M115.8,4.9h-0.1c-1-0.3-2-0.5-2.8-0.5c-1.5,0-2.6,0.4-3.3,1.1s-1,1.9-1,3.5v0.6h5.9v2.5h-5.8v16.9h-3V12.1
		h-2.2V9.6h2.2V8.8c0-2.3,0.6-4,1.7-5.2c1.1-1.2,2.8-1.8,4.9-1.8c1,0,2.2,0.1,3.5,0.3V4.9z"/>
	<path class="st0" d="M128.9,28.9v-2.2c-1.6,1.2-2.9,1.9-4,2.2c-1,0.3-2.1,0.5-3.2,0.5c-1.7,0-3.2-0.6-4.3-1.7
		c-1.1-1.1-1.7-2.6-1.7-4.3c0-2.2,0.8-3.9,2.5-5.1c1.7-1.1,5.2-1.8,10.6-2v-0.6c0-1.3-0.4-2.3-1.2-3c-0.8-0.6-2.2-1-4.2-1
		c-1.8,0-3.7,0.5-5.9,1.4h-0.1V10c2.1-0.6,4.2-0.9,6.2-0.9c2.9,0,5,0.5,6.3,1.6c1.3,1.1,2,2.7,2,5v13.2H128.9z M128.9,24.3v-5.6
		c-4.3,0.2-7,0.7-8.2,1.4c-1.2,0.7-1.8,1.8-1.8,3.1c0,2.3,1.4,3.5,4.2,3.5C125,26.7,126.9,25.9,128.9,24.3z"/>
	<path class="st0" d="M162.4,28.9V18.1c0-2.1-0.1-3.5-0.4-4.2c-0.3-0.7-0.7-1.2-1.3-1.5c-0.6-0.3-1.4-0.5-2.3-0.5
		c-1.6,0-3.4,0.9-5.5,2.6c0.1,0.6,0.1,1.4,0.1,2.3v12.2h-3V18.1c0-2.1-0.1-3.6-0.4-4.2c-0.3-0.7-0.7-1.2-1.3-1.5
		c-0.6-0.3-1.3-0.5-2.2-0.5c-1.6,0-3.4,0.8-5.5,2.5v14.5h-3V9.6h3v2.3C142.8,10,145,9,147,9c2.6,0,4.4,1.1,5.3,3.2
		c2.5-2.1,4.8-3.2,7.1-3.2c4,0,6,2.4,6,7.3v12.6H162.4z"/>
	<path class="st0" d="M179.8,29.4c-3.2,0-5.7-0.9-7.5-2.6c-1.8-1.7-2.7-4.2-2.7-7.4c0-3.2,0.8-5.7,2.5-7.5C173.9,10,176.2,9,179,9
		c2.6,0,4.5,0.8,5.9,2.3c1.4,1.5,2.1,3.7,2.1,6.5v1.7h-14.3c0,2.3,0.6,4.1,1.9,5.4c1.3,1.2,3,1.9,5.2,1.9c2.2,0,4.4-0.8,6.6-2.3h0.1
		v3.3C183.9,28.8,181.6,29.4,179.8,29.4z M172.8,17.3h11.3c-0.1-3.8-1.9-5.8-5.3-5.8c-1.7,0-3.1,0.5-4.2,1.5S172.9,15.5,172.8,17.3z
		"/>
	<path class="st0" d="M196.5,28.9h-3.9v-4.7h3.9V28.9z"/>
	<path class="st0" d="M209,29.4c-2.4,0-4.7-0.5-6.8-1.6v-3.5h0.1c2.3,1.7,4.6,2.6,6.9,2.6c3.2,0,4.8-1,4.8-3c0-0.8-0.2-1.4-0.6-1.8
		c-0.4-0.4-1.3-0.8-2.6-1.1c-1.1-0.2-2.4-0.5-3.8-0.8s-2.6-0.9-3.4-1.8c-0.8-0.9-1.2-2-1.2-3.3c0-1.7,0.7-3.1,2.1-4.2
		s3.2-1.6,5.6-1.6c2.4,0,4.5,0.5,6.3,1.4v3.3h-0.1c-2-1.5-4.1-2.2-6.3-2.2c-1.4,0-2.5,0.3-3.3,0.8s-1.2,1.2-1.2,2.1
		c0,0.8,0.2,1.4,0.6,1.8c0.4,0.4,1.3,0.8,2.6,1.1l3.8,0.8c1.6,0.3,2.7,0.9,3.5,1.8c0.8,0.9,1.2,2,1.2,3.3c0,1.8-0.7,3.2-2.2,4.3
		S211.4,29.4,209,29.4z"/>
	<path class="st0" d="M227.1,29.3c-4,0-6-2.2-6-6.6V12.1h-2.2V9.6h2.2V4h3v5.6h6.8v2.5h-6.8V21c0,2,0.1,3.3,0.4,3.9
		c0.3,0.6,0.7,1,1.3,1.3s1.3,0.4,2.2,0.4c0.8,0,1.8-0.2,2.8-0.6h0.1v2.7C229.5,29.1,228.2,29.3,227.1,29.3z"/>
	<path class="st0" d="M250.4,9.6L239.1,36h-3.2l3.6-8l-7.8-18.5h3.3l6.2,14.7l6.2-14.7H250.4z"/>
	<path class="st0" d="M256.9,28.9h-3V2h3V28.9z"/>
	<path class="st0" d="M271.5,29.4c-3.2,0-5.7-0.9-7.5-2.6c-1.8-1.7-2.7-4.2-2.7-7.4c0-3.2,0.8-5.7,2.5-7.5c1.7-1.9,3.9-2.8,6.8-2.8
		c2.6,0,4.5,0.8,5.9,2.3c1.4,1.5,2.1,3.7,2.1,6.5v1.7h-14.3c0,2.3,0.6,4.1,1.9,5.4c1.3,1.2,3,1.9,5.2,1.9c2.2,0,4.4-0.8,6.6-2.3h0.1
		v3.3C275.6,28.8,273.3,29.4,271.5,29.4z M264.4,17.3h11.3c-0.1-3.8-1.9-5.8-5.3-5.8c-1.7,0-3.1,0.5-4.2,1.5
		C265.2,14.1,264.6,15.5,264.4,17.3z"/>
</g>
</svg>
