<svg xmlns="http://www.w3.org/2000/svg" viewBox="0 0 99.25 10.22"><g data-name="レイヤー 2"><path d="M0 10c0-.1.05-.21.08-.35s0-.32.06-.53 0-.46 0-.75V1.13C.14.92.1.73.08.59S0 .33 0 .23h1.63c0 .1 0 .22-.08.36s0 .32-.06.53 0 .46 0 .75v7.21c0 .21 0 .38.06.53s.06.25.08.35H0zM6.55.21l7 7.49V1.13a5 5 0 00-.07-.53c0-.14-.05-.26-.07-.36h1.21a2.56 2.56 0 00-.07.36 3.39 3.39 0 00-.06.53c0 .21 0 .46-.05.75s0 .63 0 1v7.26h-.24l-7-7.48v6.42a3.54 3.54 0 00.06.53 2.39 2.39 0 00.07.35H6.12c0-.1 0-.21.07-.35a5.33 5.33 0 00.07-.53V1.13a5 5 0 00-.07-.54c0-.14-.05-.26-.07-.36zm16.57 1.55H23a2.19 2.19 0 00-.17-.35 1.58 1.58 0 00-.35-.41A1.49 1.49 0 0022 .75a1.83 1.83 0 00-1.25 0 1.21 1.21 0 00-.43.29 1.14 1.14 0 00-.26.44A1.64 1.64 0 0020 2a1.82 1.82 0 00.27.94 6 6 0 00.7.88c.28.29.58.58.9.88a11 11 0 01.9.91 5.35 5.35 0 01.7 1 2.39 2.39 0 01.27 1.11 2.83 2.83 0 01-.15.9 2.19 2.19 0 01-.48.8 2.38 2.38 0 01-.82.58 3 3 0 01-1.21.22 3.57 3.57 0 01-.74-.07 5.56 5.56 0 01-.65-.18 4.43 4.43 0 01-.53-.23c-.16-.08-.29-.16-.39-.22L18.91 8h.17a2.07 2.07 0 00.25.62 2 2 0 00.42.51 1.65 1.65 0 00.57.35 1.78 1.78 0 00.7.14 1.81 1.81 0 00.63-.11 1.49 1.49 0 00.47-.29 1.39 1.39 0 00.31-.45 1.48 1.48 0 00.1-.57 2.06 2.06 0 00-.15-.79 3.33 3.33 0 00-.42-.7 4.86 4.86 0 00-.58-.63c-.21-.21-.44-.41-.67-.62s-.45-.42-.66-.64a4.79 4.79 0 01-.58-.7 4.07 4.07 0 01-.42-.8 2.85 2.85 0 01-.15-.94 2.38 2.38 0 01.2-1 2.54 2.54 0 01.56-.74 2.58 2.58 0 01.78-.47 2.51 2.51 0 01.9-.16 4 4 0 01.66.07 4.93 4.93 0 01.52.13l.4.15.28.13zM30.5.81a13 13 0 00-1.5.07L27.92 1c-.36.07-.69.15-1 .23l.22-1.08h7.97l.2 1.11c-.3-.08-.62-.16-1-.23L33.2.88a12.8 12.8 0 00-1.45-.07v8.27c0 .21 0 .38.06.53s.06.25.08.35h-1.58a2.39 2.39 0 00.07-.35 5.33 5.33 0 00.07-.53V7.33zM45.59 10a.58.58 0 010-.1v-.15a2.68 2.68 0 000-.46 3.93 3.93 0 00-.23-.64l-.82-1.86h-4.37l-.79 1.8-.22.56a1.61 1.61 0 00-.12.6.61.61 0 000 .15v.08h-1.35a2.53 2.53 0 00.31-.46c.12-.22.26-.5.4-.83L42.32 0h.55l3.71 8.35a5 5 0 00.27.57c.09.19.18.35.26.5s.16.27.22.37.11.16.13.19zm-4.43-3.81h3.07L42.3 1.82l-1.88 4.37zm18.29 2.67a1 1 0 010 .16.22.22 0 01-.08.13 4.52 4.52 0 01-.67.43 5 5 0 01-.77.34 5.92 5.92 0 01-.9.22 6.76 6.76 0 01-1 .08 6.59 6.59 0 01-2.27-.37 5.21 5.21 0 01-1.76-1 4.56 4.56 0 01-1.13-1.61 5.23 5.23 0 01-.41-2.09 5.06 5.06 0 01.17-1.28 4.59 4.59 0 01.49-1.19 5 5 0 01.79-1 5.49 5.49 0 011.02-.9 5.62 5.62 0 011.33-.54A6.1 6.1 0 0155.84 0h.67c.22 0 .45 0 .67.09l.65.14.59.19.47 1.26h-.06a4.19 4.19 0 00-.61-.45 5.73 5.73 0 00-.75-.23 5.33 5.33 0 00-.83-.24 4.3 4.3 0 00-.88-.08 4.48 4.48 0 00-1.58.27 3.38 3.38 0 00-2 2 4.47 4.47 0 00-.29 1.69 6.64 6.64 0 00.27 1.94A4.31 4.31 0 0053 8.16a3.77 3.77 0 001.34 1 4.54 4.54 0 001.9.38 4.39 4.39 0 00.76-.06 3 3 0 00.64-.19 1.19 1.19 0 00.39-.24.36.36 0 00.13-.25V7.11c0-.17 0-.32-.06-.44a3 3 0 00-.1-.35h1.64c0 .1 0 .21-.07.34a4.52 4.52 0 00-.07.46v1.46zm5.72-1.53v1.75c0 .21 0 .38.06.53s0 .25.08.35h-1.58c0-.1.05-.21.08-.35s0-.32.06-.53 0-.46 0-.75v-7.2c0-.21 0-.39-.06-.53s-.05-.26-.08-.36h.91a5.73 5.73 0 00.72-.06 7.41 7.41 0 011.16-.06 3.89 3.89 0 011.21.18 2.83 2.83 0 011 .52 2.41 2.41 0 01.64.84 2.67 2.67 0 01.23 1.12 3.05 3.05 0 01-.13.92 2.92 2.92 0 01-.35.76 3.14 3.14 0 01-.55.6 3.31 3.31 0 01-.72.44l2.4 3.37c.12.17.23.32.33.44l.29.32.27.22a1.66 1.66 0 00.27.13h-2a1 1 0 00-.13-.35 3.19 3.19 0 00-.28-.39l-2.41-3.42h-.97a2.71 2.71 0 01-.4 0zm0-2.07a2.5 2.5 0 00.38.06h.37a2.75 2.75 0 00.93-.15 1.92 1.92 0 00.73-.47 2.26 2.26 0 00.42-.77 3.25 3.25 0 00.16-1.09 3.38 3.38 0 00-.12-.93 1.88 1.88 0 00-.34-.71 1.62 1.62 0 00-.58-.45 1.86 1.86 0 00-.81-.16 3.76 3.76 0 00-.75.05 2.12 2.12 0 00-.43.1zM81.3 10a.25.25 0 000-.1.62.62 0 000-.13 2 2 0 00-.06-.46 3.76 3.76 0 00-.22-.64l-.83-1.86h-4.31l-.78 1.8c-.07.17-.15.36-.22.56a1.61 1.61 0 00-.12.6v.15a.22.22 0 000 .08h-1.35a2.6 2.6 0 00.3-.46 9.21 9.21 0 00.41-.83L78 0h.54l3.71 8.35q.13.3.27.57l.27.5a3.62 3.62 0 00.22.37 1.13 1.13 0 00.13.19zm-4.43-3.81h3.07L78 1.82l-1.87 4.37zM86.05 10a1.79 1.79 0 00.17-.32 1.9 1.9 0 00.15-.55c0-.32.11-.68.17-1.07s.13-.82.19-1.26.13-.88.2-1.34.13-.91.19-1.36.12-.87.18-1.28.11-.79.15-1.13.09-.64.12-.89.05-.45.06-.57h.87l4.3 8 4.26-8h.65l1.12 8.12c0 .25.07.47.11.65a3.3 3.3 0 00.11.47 2.49 2.49 0 00.1.32 2.17 2.17 0 00.1.21h-1.72a1.3 1.3 0 00.06-.25 2.27 2.27 0 000-.41v-.38l-.87-6.55L92.7 10l-.48-.05-4.06-7.63c-.16 1.08-.29 2.08-.41 3l-.15 1.17c0 .39-.1.75-.14 1.09s-.07.64-.09.89 0 .45 0 .57v.97h-1.32z" fill="#fff" data-name="レイヤー 1"/></g></svg>