<?xml version="1.0" encoding="utf-8"?>
<!-- Generator: Adobe Illustrator 25.0.1, SVG Export Plug-In . SVG Version: 6.00 Build 0)  -->
<svg version="1.1" id="レイヤー_1" xmlns="http://www.w3.org/2000/svg" xmlns:xlink="http://www.w3.org/1999/xlink" x="0px"
	 y="0px" viewBox="0 0 43.7 10.2" style="enable-background:new 0 0 43.7 10.2;" xml:space="preserve">
<style type="text/css">
	.st0{fill:#FFFFFF;}
</style>
<g>
	<path class="st0" d="M8,9.5V5.4H3v4.1H2.1V1.2H3V5h5V1.2h0.9v8.3H8z"/>
	<path class="st0" d="M18.9,5.3c0,2.7-1.6,4.3-4.2,4.3s-4.2-1.7-4.2-4.3s1.7-4.2,4.3-4.2C17.3,1.1,18.9,2.7,18.9,5.3z M11.5,5.3
		c0,2.3,1.3,3.8,3.2,3.8s3.2-1.5,3.2-3.8c0-2.2-1.3-3.8-3.2-3.8C12.8,1.5,11.5,3.1,11.5,5.3z"/>
	<path class="st0" d="M27.9,9.5V2.2l-3.5,6.5h-0.3L21,2.2v7.3h-0.5V1.2h1l3.1,6.3l3.3-6.3h0.9v8.3H27.9z"/>
	<path class="st0" d="M30.8,9.5V1.2h5.4v0.4h-4.5v3.3h4v0.4h-4V9h4.8v0.4h-5.7V9.5z"/>
</g>
</svg>
