<?xml version="1.0" encoding="utf-8"?>
<!-- Generator: Adobe Illustrator 25.0.1, SVG Export Plug-In . SVG Version: 6.00 Build 0)  -->
<svg version="1.1" id="レイヤー_1" xmlns="http://www.w3.org/2000/svg" xmlns:xlink="http://www.w3.org/1999/xlink" x="0px"
	 y="0px" viewBox="0 0 49.2 10.2" style="enable-background:new 0 0 49.2 10.2;" xml:space="preserve">
<style type="text/css">
	.st0{fill:#FFFFFF;}
</style>
<g>
	<path class="st0" d="M2.5,6.4L1.3,9.1c0,0.1-0.1,0.3-0.1,0.5H0.5l3.9-9h1l3.8,9H8L6.7,6.4H2.5z M6.5,5.9L4.6,1.3l-2,4.6
		C2.6,5.9,6.5,5.9,6.5,5.9z"/>
	<path class="st0" d="M13.8,0.6c0.6,0,1.2,0.1,1.6,0.2c0.9,0.4,1.4,1.1,1.4,2c0,1.1-0.6,1.8-1.7,2C15.7,5,16,5.1,16.2,5.2
		c0.8,0.4,1.2,1.1,1.2,2c0,1.1-0.6,1.9-1.8,2.2c-0.4,0.1-1,0.1-1.8,0.1h-3.3v-9h3.3V0.6z M13.6,4.7c0.6,0,1.1-0.1,1.3-0.2
		c0.6-0.3,0.9-0.9,0.9-1.6c0-1.2-0.7-1.8-1.9-1.8h-2.2v3.6H13.6z M13.8,9.1c0.7,0,1.3-0.1,1.6-0.2c0.6-0.3,1-0.9,1-1.7
		c0-0.9-0.5-1.7-1.3-1.9c-0.3-0.1-0.9-0.2-1.4-0.2h-2.1v4H13.8z"/>
	<path class="st0" d="M27.7,5.1c0,2.9-1.8,4.7-4.6,4.7S18.5,8,18.5,5.1c0-2.8,1.8-4.6,4.6-4.6C26,0.5,27.7,2.3,27.7,5.1z M19.7,5.1
		c0,2.5,1.4,4.1,3.5,4.1s3.5-1.6,3.5-4.2c0-2.4-1.4-4.1-3.5-4.1S19.7,2.7,19.7,5.1z"/>
	<path class="st0" d="M36.6,6.1c0,2.3-1.3,3.7-3.6,3.7c-1.5,0-2.7-0.6-3.3-1.6c-0.3-0.5-0.4-1.1-0.4-2.1V0.6h1V6
		c0,0.6,0,0.9,0.1,1.3c0.3,1.2,1.4,1.9,2.7,1.9C35,9.3,36,8.1,36,6.1V0.6h0.6V6.1z"/>
	<path class="st0" d="M42.5,1.1v8.5h-1V1.1h-3.6V0.6h8.2v0.5H42.5z"/>
</g>
</svg>
