<svg xmlns="http://www.w3.org/2000/svg" viewBox="0 0 114.07 10.19"><g data-name="レイヤー 2"><path d="M4.89 0A5.82 5.82 0 017 .39a4.74 4.74 0 012.77 2.66 5.39 5.39 0 01.4 2.08A5.47 5.47 0 0110 6.41a4.85 4.85 0 01-.43 1.19 4.91 4.91 0 01-.71 1 4.79 4.79 0 01-1 .82 4.68 4.68 0 01-1.2.54 5 5 0 01-1.41.19 6 6 0 01-2.11-.36 4.92 4.92 0 01-1.67-1A4.66 4.66 0 01.4 7.18 5.23 5.23 0 010 5.09a5.53 5.53 0 01.15-1.28 5.68 5.68 0 01.44-1.19 5 5 0 01.71-1 4.3 4.3 0 011-.83A4.68 4.68 0 013.47.21 5 5 0 014.89 0zm.39 9.57a3.35 3.35 0 001.39-.27 3 3 0 001.08-.79 3.81 3.81 0 00.71-1.27 5.53 5.53 0 00.25-1.7 7.55 7.55 0 00-.24-1.95A5.1 5.1 0 007.75 2a3.4 3.4 0 00-1.2-1A3.5 3.5 0 004.89.63 3.48 3.48 0 003.5.9a3 3 0 00-1.08.78 3.51 3.51 0 00-.71 1.26 5.22 5.22 0 00-.25 1.69 7.68 7.68 0 00.24 2 4.6 4.6 0 00.71 1.57 3.43 3.43 0 001.2 1 3.55 3.55 0 001.67.38zM14.61.18l7 7.49V1.11c0-.21 0-.39-.06-.53s-.07-.28-.1-.37h1.22a2 2 0 00-.08.35c0 .14 0 .32-.06.53s0 .46 0 .75v8.26h-.24l-7-7.49v6.45c0 .21 0 .39.06.53a2 2 0 00.08.35h-1.26c0-.09.05-.21.08-.35s0-.32.06-.53 0-.46 0-.75v-7.2c0-.21 0-.39-.06-.53S14.2.3 14.17.21zm13.92 9.2A13.49 13.49 0 0030 9.31c.45-.05.85-.1 1.18-.16s.75-.14 1.08-.22L32.07 10h-4.98c0-.09.05-.21.07-.35a5 5 0 00.07-.53V1.11a5 5 0 00-.07-.53c0-.14-.05-.26-.07-.35h1.64a2 2 0 00-.08.35 3.39 3.39 0 00-.06.53v1.75zm7.58.62c0-.09 0-.21.07-.35a3.39 3.39 0 00.06-.53V1.11a3.39 3.39 0 00-.06-.53c0-.14 0-.26-.07-.35h1.63c0 .09-.05.21-.08.35s0 .32-.06.53 0 .46 0 .75v7.2c0 .21 0 .39.06.53s.05.26.08.35h-1.63zM42.66.18l7 7.49V1.11a5 5 0 00-.07-.53 2 2 0 00-.09-.37h1.22c0 .09 0 .21-.08.35s0 .32-.06.53 0 .46 0 .75v8.26h-.24l-7-7.49v6.45c0 .21 0 .39.06.53s0 .26.08.35h-1.26a2 2 0 00.08-.35 5 5 0 00.07-.53V1.11a5 5 0 00-.07-.55 2 2 0 00-.08-.35zM56.84.17h2.75a5.79 5.79 0 00.68 0l-.34.83a4.66 4.66 0 00-.52-.11c-.18 0-.39-.06-.64-.08a7.24 7.24 0 00-.85 0h-1.34v3.74h1.27l1-.06c.31 0 .58-.06.82-.1l-.21 1-1-.11c-.28 0-.59-.06-.92-.09s-.65 0-1 0v4.19a13.8 13.8 0 001.49-.07c.45-.05.84-.1 1.18-.16S60 9 60.32 8.93l-.2 1.07h-4.98c0-.09 0-.21.08-.35a5.28 5.28 0 00.06-.53V1.11a5.28 5.28 0 00-.06-.53c0-.14 0-.26-.08-.35zm11.77 1.57h-.15a1.91 1.91 0 00-.17-.36A1.8 1.8 0 0068 1a1.39 1.39 0 00-.5-.28 1.6 1.6 0 00-.65-.12 1.84 1.84 0 00-.6.1 1.3 1.3 0 00-.43.29 1 1 0 00-.26.44 1.64 1.64 0 00-.09.56 1.79 1.79 0 00.27.94 5.51 5.51 0 00.7.88c.28.3.58.59.9.88a11 11 0 01.9.91 5.09 5.09 0 01.7 1 2.34 2.34 0 01.27 1.11 2.82 2.82 0 01-.15.89 2.11 2.11 0 01-.48.8 2.38 2.38 0 01-.82.58 3 3 0 01-1.21.22 3.57 3.57 0 01-.74-.07 5.56 5.56 0 01-.65-.18 3.25 3.25 0 01-.53-.23 3.19 3.19 0 01-.39-.22L64.4 8h.17a2 2 0 00.25.61 2 2 0 00.42.51 1.85 1.85 0 00.57.36 1.78 1.78 0 00.7.13 1.57 1.57 0 00.63-.11 1.33 1.33 0 00.47-.29 1.1 1.1 0 00.31-.45 1.47 1.47 0 00.1-.56 2.07 2.07 0 00-.15-.8 3.27 3.27 0 00-.42-.69 4.93 4.93 0 00-.58-.64c-.21-.21-.44-.41-.66-.62s-.46-.42-.67-.64a4.79 4.79 0 01-.58-.7 3.81 3.81 0 01-.42-.8 2.81 2.81 0 01-.15-.94 2.19 2.19 0 01.21-1 2.14 2.14 0 01.55-.74 2.42 2.42 0 01.78-.48 2.51 2.51 0 01.9-.16 4 4 0 01.63.05 4.93 4.93 0 01.54.14l.4.15.28.13zM76 .78a12.69 12.69 0 00-1.45.07L73.41 1c-.36.07-.69.15-1 .23l.2-1.11h7.96l.2 1.11c-.29-.08-.62-.16-1-.23L78.69.85a12.8 12.8 0 00-1.45-.07v8.28a5 5 0 00.07.53c0 .14 0 .26.07.35H75.8c0-.09 0-.21.08-.35s0-.32.06-.53 0-.46 0-.75v-1zM88.77 0a5.72 5.72 0 012.1.38 4.72 4.72 0 012.78 2.66A5.39 5.39 0 0194 5.13a5.47 5.47 0 01-.15 1.28 4.85 4.85 0 01-.44 1.19 4.91 4.91 0 01-.71 1 5.08 5.08 0 01-1 .82 4.68 4.68 0 01-1.2.54 5 5 0 01-1.41.19 6 6 0 01-2.11-.36 4.82 4.82 0 01-2.78-2.65 5.4 5.4 0 01-.39-2.09A5.53 5.53 0 0184 3.81a5.68 5.68 0 01.44-1.19 4.67 4.67 0 01.71-1 4.48 4.48 0 011-.83 4.9 4.9 0 011.2-.58A5 5 0 0188.77 0zm.39 9.57a3.31 3.31 0 001.38-.28 3 3 0 001.09-.79 3.63 3.63 0 00.7-1.27 5.23 5.23 0 00.26-1.7 7.13 7.13 0 00-.25-1.95A4.67 4.67 0 0091.62 2a3.37 3.37 0 00-1.19-1 3.53 3.53 0 00-1.66-.37 3.48 3.48 0 00-1.39.27 3.12 3.12 0 00-1.09.78 3.65 3.65 0 00-.7 1.26 5.21 5.21 0 00-.26 1.69 7.68 7.68 0 00.24 2 4.82 4.82 0 00.72 1.57 3.43 3.43 0 001.2 1 3.55 3.55 0 001.67.38zm10.38-2.26v1.75c0 .21 0 .39.06.53s0 .26.08.35H98.1c0-.09.05-.21.08-.35s0-.32.06-.53 0-.46 0-.74V1.11c0-.21 0-.38-.06-.53S98.13.3 98.1.21h.9a6.09 6.09 0 00.72-.07 9.13 9.13 0 011.17-.04 4.21 4.21 0 011.21.17 3 3 0 011 .52 2.41 2.41 0 01.64.84 2.7 2.7 0 01.23 1.12 3 3 0 01-.13.92 2.78 2.78 0 01-.35.76 3.2 3.2 0 01-.55.61 3.75 3.75 0 01-.72.44l2.4 3.37c.12.16.23.31.33.43a3.19 3.19 0 00.29.32l.27.22a1.11 1.11 0 00.27.13h-2a1 1 0 00-.13-.35 3.19 3.19 0 00-.26-.42L101 5.8h-1.02l-.4-.05zm0-2.07h.38a2.36 2.36 0 00.37 0 2.75 2.75 0 00.93-.15 1.92 1.92 0 00.73-.47 2.3 2.3 0 00.46-.78 3.35 3.35 0 00.16-1.1 3.83 3.83 0 00-.11-.93 2.14 2.14 0 00-.35-.71 1.62 1.62 0 00-.58-.45 1.86 1.86 0 00-.81-.16 4.72 4.72 0 00-.75 0 2.12 2.12 0 00-.43.1zM110.59.17h2.75a5.79 5.79 0 00.68 0l-.34.91a4.66 4.66 0 00-.52-.11c-.18 0-.39-.06-.63-.08a7.42 7.42 0 00-.86 0h-1.34v3.66h1.28l1-.06c.31 0 .58-.06.82-.1l-.21 1-1-.11c-.28 0-.59-.06-.92-.09s-.65 0-1 0v4.19a13.68 13.68 0 001.49-.07 16.844 16.844 0 002.25-.38l-.16 1.07h-4.99a2 2 0 00.11-.4 5 5 0 00.07-.53V1.11a5 5 0 00-.07-.55 2 2 0 00-.08-.35z" fill="#fff" data-name="レイヤー 1"/></g></svg>