<?xml version="1.0" encoding="utf-8"?>
<!-- Generator: Adobe Illustrator 25.0.0, SVG Export Plug-In . SVG Version: 6.00 Build 0)  -->
<svg version="1.1" id="レイヤー_1" xmlns="http://www.w3.org/2000/svg" xmlns:xlink="http://www.w3.org/1999/xlink" x="0px"
	 y="0px" viewBox="0 0 63 10.2" style="enable-background:new 0 0 63 10.2;" xml:space="preserve">
<style type="text/css">
	.st0{fill:#FFFFFF;}
</style>
<g>
	<path class="st0" d="M4,0.4c0.6,0,1.2,0.1,1.6,0.2C6.5,1,7,1.8,7,2.7c0,1.1-0.6,1.8-1.7,2.1C5.9,5,6.2,5,6.5,5.2
		c0.8,0.4,1.2,1.1,1.2,2.1c0,1.2-0.7,2-1.8,2.3C5.5,9.7,4.8,9.7,4,9.7H0.7V0.4H4z M3.7,4.6c0.6,0,1.1-0.1,1.3-0.2
		c0.6-0.3,0.9-0.9,0.9-1.7c0-1.2-0.7-1.8-2-1.8H1.7v3.7H3.7z M4,9.2c0.7,0,1.3-0.1,1.6-0.2c0.7-0.3,1-0.9,1-1.7c0-1-0.5-1.7-1.3-2
		C5,5.2,4.4,5.1,3.9,5.1H1.7v4.1H4z"/>
	<path class="st0" d="M16.6,6.1c0,2.3-1.4,3.8-3.7,3.8c-1.6,0-2.8-0.6-3.4-1.7C9.3,7.6,9.2,7.1,9.2,6.1V0.4h1V6c0,0.6,0,0.9,0.1,1.3
		c0.3,1.2,1.5,2,2.7,2c1.8,0,3-1.2,3-3.3V0.4h0.6V6.1z"/>
	<path class="st0" d="M24.3,1.9c-0.7-0.7-1.6-1.1-2.5-1.1c-1.3,0-2.2,0.7-2.2,1.7c0,1,0.6,1.4,2.2,1.8c2.5,0.5,3.5,1.4,3.5,3
		c0,1.6-1.3,2.6-3.6,2.6c-1.2,0-2.3-0.3-3.4-1l0.5-0.9c0.8,0.9,1.7,1.4,2.8,1.4c1.6,0,2.6-0.8,2.6-1.9c0-1.1-0.7-1.7-2.7-2.2
		c-1.2-0.3-1.8-0.5-2.2-0.9c-0.5-0.4-0.7-1-0.7-1.7c0-1.4,1.2-2.4,3.2-2.4c1.1,0,2.1,0.2,3,0.7L24.3,1.9z"/>
	<path class="st0" d="M27.3,9.7V0.4h1.1v9.3H27.3z"/>
	<path class="st0" d="M37.5,9.7l-6.1-8v8h-0.6V0.4h0.9L37.4,8V0.4H38v9.3H37.5z"/>
	<path class="st0" d="M40.2,9.7V0.4h6v0.5h-5v3.7h4.5v0.5h-4.5v4.1h5.4v0.5H40.2z"/>
	<path class="st0" d="M53.7,1.9c-0.7-0.7-1.6-1.1-2.5-1.1c-1.3,0-2.2,0.7-2.2,1.7c0,1,0.6,1.4,2.2,1.8c2.5,0.5,3.5,1.4,3.5,3
		c0,1.6-1.3,2.6-3.6,2.6c-1.2,0-2.3-0.3-3.4-1l0.5-0.9c0.8,0.9,1.7,1.4,2.8,1.4c1.6,0,2.6-0.8,2.6-1.9c0-1.1-0.7-1.7-2.7-2.2
		c-1.2-0.3-1.8-0.5-2.2-0.9C48.3,4,48,3.4,48,2.7c0-1.4,1.2-2.4,3.2-2.4c1.1,0,2.1,0.2,3,0.7L53.7,1.9z"/>
	<path class="st0" d="M62,1.9c-0.7-0.7-1.6-1.1-2.5-1.1c-1.3,0-2.2,0.7-2.2,1.7c0,1,0.6,1.4,2.2,1.8C62,4.8,63,5.7,63,7.3
		c0,1.6-1.3,2.6-3.6,2.6c-1.2,0-2.3-0.3-3.4-1l0.5-0.9c0.8,0.9,1.7,1.4,2.8,1.4C61,9.3,62,8.6,62,7.4c0-1.1-0.7-1.7-2.7-2.2
		c-1.2-0.3-1.8-0.5-2.2-0.9c-0.5-0.4-0.7-1-0.7-1.7c0-1.4,1.2-2.4,3.2-2.4c1.1,0,2.1,0.2,3,0.7L62,1.9z"/>
</g>
</svg>
