<svg xmlns="http://www.w3.org/2000/svg" viewBox="0 0 78.64 10.18"><g data-name="レイヤー 2"><path d="M0 .16h.91a5.73 5.73 0 00.72-.01A7.41 7.41 0 012.79.08 3.88 3.88 0 014 .27a2.9 2.9 0 011 .56 2.64 2.64 0 01.64.9 3.11 3.11 0 01.23 1.21 3.22 3.22 0 01-.36 1.57 3.06 3.06 0 01-1 1.07 3.56 3.56 0 01-1.4.56 4.85 4.85 0 01-1.66 0v2.9c0 .21 0 .38.06.52s.05.26.08.36H0c0-.1.05-.21.08-.36a5 5 0 00.06-.52V1.09A5.28 5.28 0 00.08.55C.05.41 0 .29 0 .19zm1.44 5.47a3.41 3.41 0 001.23 0 2.2 2.2 0 001-.42 2.22 2.22 0 00.62-.88A3.62 3.62 0 004.47 3a3.92 3.92 0 00-.12-1A2.22 2.22 0 004 1.21a1.62 1.62 0 00-.57-.49 1.86 1.86 0 00-.81-.17 3.86 3.86 0 00-.51 0l-.37.07a1.6 1.6 0 00-.3.08zm9.69 1.66v1.75c0 .21 0 .38.06.52s.05.26.08.36H9.69c0-.1.05-.21.08-.36s0-.31.06-.52 0-.46 0-.75v-7.2c0-.21 0-.39-.06-.53s0-.26-.08-.36h.91a5.73 5.73 0 00.72-.06 7.41 7.41 0 011.16-.06 3.89 3.89 0 011.21.18 2.83 2.83 0 011 .52 2.41 2.41 0 01.64.84 2.67 2.67 0 01.23 1.12 2.94 2.94 0 01-.13.91 2.84 2.84 0 01-.35.77 3.14 3.14 0 01-.55.6 3.31 3.31 0 01-.72.44l2.4 3.37c.12.17.23.32.33.44l.29.32.27.22a1.66 1.66 0 00.27.13h-2a1 1 0 00-.13-.35 4.1 4.1 0 00-.24-.4l-2.45-3.41h-1.42zm0-2.07a2.5 2.5 0 00.38.06h.37a2.52 2.52 0 00.93-.16 1.79 1.79 0 00.73-.46 2.26 2.26 0 00.46-.77 3.29 3.29 0 00.16-1.09 3.71 3.71 0 00-.11-.93 2.05 2.05 0 00-.35-.71 1.43 1.43 0 00-.58-.45 1.86 1.86 0 00-.81-.16 4.94 4.94 0 00-.75 0 2.88 2.88 0 00-.43.11zM25 0a5.78 5.78 0 012.11.37 4.94 4.94 0 011.67 1A4.7 4.7 0 0129.83 3a5.18 5.18 0 01.4 2.08 5.4 5.4 0 01-.59 2.47 4.55 4.55 0 01-.72 1 4.44 4.44 0 01-1 .82 4.68 4.68 0 01-1.2.54 5 5 0 01-1.42.2 5.81 5.81 0 01-2.11-.37 5 5 0 01-1.67-1 4.9 4.9 0 01-1.1-1.61 5.44 5.44 0 01-.39-2.09 5.53 5.53 0 01.15-1.28 5.08 5.08 0 01.44-1.2 5.17 5.17 0 01.71-1 4.73 4.73 0 011-.82 4.36 4.36 0 011.2-.54A4.69 4.69 0 0125 0zm.39 9.56a3.48 3.48 0 001.39-.27 3 3 0 001.08-.79 3.64 3.64 0 00.71-1.27 5.28 5.28 0 00.25-1.7 7.55 7.55 0 00-.24-1.95A4.67 4.67 0 0027.81 2a3.46 3.46 0 00-1.19-1A3.54 3.54 0 0025 .62a3.61 3.61 0 00-1.38.26 3.28 3.28 0 00-1.09.79 3.67 3.67 0 00-.71 1.26 5.46 5.46 0 00-.25 1.69 7.55 7.55 0 00.24 2 4.63 4.63 0 00.72 1.57 3.36 3.36 0 002.86 1.42zm8.9-9.42h1.86L37 .1h.79a6.78 6.78 0 011.88.25 4.14 4.14 0 011.58.8 3.94 3.94 0 011.03 1.45 5.72 5.72 0 01.4 2.24 6.46 6.46 0 01-.21 1.71 5 5 0 01-.59 1.34 3.89 3.89 0 01-.9 1 4.42 4.42 0 01-1.15.68 5.86 5.86 0 01-1.35.39 8 8 0 01-1.48.13h-2.71c0-.1.05-.21.08-.36s0-.31.06-.52 0-.46 0-.75V1.08c0-.22 0-.39-.06-.53s0-.27-.08-.37zm1.5.61v8.6h1.23a8.18 8.18 0 001-.06 4.13 4.13 0 001-.24 3.64 3.64 0 00.88-.49 3.29 3.29 0 00.72-.8 4.17 4.17 0 00.49-1.19 6.58 6.58 0 00.18-1.64A6.54 6.54 0 0041 3.19a3.75 3.75 0 00-.75-1.38A3.09 3.09 0 0039.08 1a4.46 4.46 0 00-1.65-.33h-1.32zm18.03 2.09V1.09c0-.21 0-.39-.06-.53S53.71.3 53.69.2h1.21c0 .1-.05.22-.08.36s0 .32-.06.53 0 .46 0 .75v4.7a4.34 4.34 0 01-.28 1.66 2.79 2.79 0 01-.78 1.13 3.06 3.06 0 01-1.19.65 5.72 5.72 0 01-1.53.2 5.85 5.85 0 01-1.66-.18 3.44 3.44 0 01-1.24-.62 2.9 2.9 0 01-.83-1.11A4.1 4.1 0 0147 6.6V1.09c0-.21 0-.39-.06-.53s0-.26-.08-.36h1.64a2.45 2.45 0 00-.08.36 5.28 5.28 0 00-.06.53v5.59A3.25 3.25 0 0048.43 8a2.13 2.13 0 00.64.84 2.52 2.52 0 00.9.44 4.55 4.55 0 001 .12 4.46 4.46 0 001-.12 2.37 2.37 0 00.9-.44 2.12 2.12 0 00.7-.84 3.08 3.08 0 00.25-1.34zm13.37-1.17h-.06a4.13 4.13 0 00-1.28-.76A4.4 4.4 0 0064.2.62a4.62 4.62 0 00-1.57.26 3.71 3.71 0 00-1.24.79 3.53 3.53 0 00-.8 1.26 4.68 4.68 0 00-.29 1.69 6.76 6.76 0 00.27 2 4.6 4.6 0 00.82 1.57 3.77 3.77 0 001.35 1 4.31 4.31 0 001.89.38 3.44 3.44 0 00.78-.08 3.28 3.28 0 00.75-.24 4 4 0 00.67-.39 3.59 3.59 0 00.58-.52h.08l-.55 1.4a6 6 0 01-1.13.3 7.45 7.45 0 01-1.25.11 6.83 6.83 0 01-2.31-.37 5.35 5.35 0 01-1.81-1 4.8 4.8 0 01-1.17-1.61 5.1 5.1 0 01-.42-2.09A5 5 0 0159 3.8a5.22 5.22 0 01.49-1.2 5.6 5.6 0 01.79-1 5.49 5.49 0 011.09-.86A5.23 5.23 0 0162.7.2a5.7 5.7 0 011.58-.2 7.2 7.2 0 012.45.4zm6.64-.9a12.8 12.8 0 00-1.45.07c-.44 0-.81.1-1.12.15a8.93 8.93 0 00-1 .23l.2-1.11h7.96l.2 1.11a9.51 9.51 0 00-1-.23C77.34.94 77 .88 76.53.84a12.69 12.69 0 00-1.45-.07v8.27a3.25 3.25 0 00.06.52 2.18 2.18 0 00.08.36h-1.58c0-.1 0-.21.08-.36s0-.31.06-.52 0-.46 0-.75v-1z" fill="#fff" data-name="レイヤー 1"/></g></svg>