<svg xmlns="http://www.w3.org/2000/svg" viewBox="0 0 81.35 10.22"><g data-name="レイヤー 2"><path d="M8.35 1.71h-.06A4.18 4.18 0 007 1 4.35 4.35 0 005.36.66a4.48 4.48 0 00-1.58.27 3.43 3.43 0 00-2 2 4.68 4.68 0 00-.28 1.69 6.76 6.76 0 00.27 2 4.41 4.41 0 00.81 1.57 3.66 3.66 0 001.35 1 4.31 4.31 0 001.89.38 3.44 3.44 0 00.78-.08 3.28 3.28 0 00.75-.24A4.14 4.14 0 008 8.89a4.07 4.07 0 00.58-.52l.07.05-.56 1.39a5.81 5.81 0 01-1.13.3 7.45 7.45 0 01-1.25.11 6.83 6.83 0 01-2.31-.37 5.3 5.3 0 01-1.8-1A4.7 4.7 0 01.42 7.21a5.21 5.21 0 01-.25-3.37 4.59 4.59 0 01.49-1.19 4.67 4.67 0 01.79-1A5 5 0 012.53.78 5.45 5.45 0 013.86.24 6 6 0 015.43 0a7.45 7.45 0 012.45.4zM16.88 0A6 6 0 0119 .41a4.94 4.94 0 011.67 1.05 4.7 4.7 0 011.1 1.62 5.21 5.21 0 01.4 2.08 5.4 5.4 0 01-.59 2.47 4.89 4.89 0 01-.72 1 4.44 4.44 0 01-1 .82 5.46 5.46 0 01-1.2.55 5.36 5.36 0 01-1.42.19 5.81 5.81 0 01-2.11-.37 5 5 0 01-1.67-1 4.9 4.9 0 01-1.1-1.61A5.41 5.41 0 0112 5.12a5 5 0 01.16-1.28 4.85 4.85 0 01.44-1.19 5 5 0 01.71-1 4.73 4.73 0 011-.82 4.68 4.68 0 011.2-.54A5 5 0 0116.88 0zm.39 9.56a3.48 3.48 0 001.39-.27 3 3 0 001.08-.79 3.64 3.64 0 00.71-1.27 5.24 5.24 0 00.25-1.7 7.55 7.55 0 00-.24-1.95 4.67 4.67 0 00-.72-1.56 3.46 3.46 0 00-1.19-1 3.84 3.84 0 00-3.06-.1 3.08 3.08 0 00-1.08.78A3.67 3.67 0 0013.7 3a5.46 5.46 0 00-.25 1.69 7.55 7.55 0 00.24 2 4.63 4.63 0 00.72 1.57 3.39 3.39 0 001.19 1 3.46 3.46 0 001.67.34zM26.6.21l7 7.49V1.13a5 5 0 00-.07-.53 2.45 2.45 0 00-.08-.36h1.22c0 .1 0 .22-.08.36s0 .32-.06.53 0 .46 0 .75v8.26h-.24l-7-7.48v6.42c0 .21 0 .38.06.53s.05.25.08.35h-1.27a2.29 2.29 0 00.08-.35 5.33 5.33 0 00.07-.53V1.13a5 5 0 00-.07-.53 2.45 2.45 0 00-.08-.36zm15.06.6a12.87 12.87 0 00-1.46.07L39.08 1c-.36.07-.69.15-1 .23L38.3.15h7.97l.19 1.11c-.29-.08-.62-.16-1-.23l-1.1-.15A13 13 0 0042.9.81v8.27c0 .21 0 .38.06.53s0 .25.08.35h-1.57c0-.1.05-.21.07-.35s0-.32.06-.53 0-.46 0-.75v-1zM56.74 10a.25.25 0 000-.1.62.62 0 000-.13 2 2 0 00-.06-.46 3.76 3.76 0 00-.22-.64l-.83-1.86h-4.31l-.78 1.8c-.07.17-.15.36-.22.56a1.61 1.61 0 00-.12.6.66.66 0 000 .15.22.22 0 000 .08h-1.35a2.6 2.6 0 00.3-.46 9.21 9.21 0 00.41-.83L53.47 0H54l3.71 8.35q.14.3.27.57c.1.19.18.35.27.5a3.62 3.62 0 00.22.37 1.13 1.13 0 00.13.19zm-4.43-3.81h3.07l-1.92-4.37-1.89 4.37zm17.6-4.48h-.07A4 4 0 0068.56 1a4.35 4.35 0 00-1.64-.34 4.44 4.44 0 00-1.58.27 3.43 3.43 0 00-2 2A4.68 4.68 0 0063 4.66a6.76 6.76 0 00.27 2 4.41 4.41 0 00.81 1.57 3.66 3.66 0 001.35 1 4.31 4.31 0 001.89.38 3.44 3.44 0 00.78-.08 3.28 3.28 0 00.75-.24 4.6 4.6 0 00.68-.39 3.52 3.52 0 00.57-.52l.08.05-.55 1.39a6 6 0 01-1.13.3 7.45 7.45 0 01-1.25.11A6.83 6.83 0 0165 9.85a5.3 5.3 0 01-1.8-1A4.7 4.7 0 0162 7.21a5.07 5.07 0 01-.42-2.09 4.64 4.64 0 01.17-1.28 4.59 4.59 0 01.49-1.19 4.67 4.67 0 01.79-1 5.14 5.14 0 011.05-.87 5.69 5.69 0 011.34-.54A6 6 0 0167 0a7.45 7.45 0 012.45.4zm6.64-.9a12.87 12.87 0 00-1.46.07L74 1c-.36.07-.69.15-1 .23l.2-1.11h7.97l.19 1.11c-.29-.08-.62-.16-1-.23L79.25.88a13 13 0 00-1.46-.07v8.27c0 .21 0 .38.06.53s0 .25.08.35h-1.57c0-.1 0-.21.07-.35s0-.32.06-.53 0-.46 0-.75v-1z" fill="#fff" data-name="レイヤー 1"/></g></svg>