<svg xmlns="http://www.w3.org/2000/svg" viewBox="0 0 43.71 10.19"><g data-name="レイヤー 2"><path d="M.44.18l7 7.49V1.11a5.28 5.28 0 00-.08-.55c0-.14-.05-.26-.08-.35H8.5a2 2 0 00-.08.35c0 .14 0 .32-.06.53s0 .46 0 .75v8.26h-.29L1 2.63v6.43c0 .21 0 .39.06.53a2 2 0 00.08.35H0c0-.09.05-.21.08-.35a5.28 5.28 0 00.06-.53V1.11A5.28 5.28 0 00.08.56C.05.42 0 .3 0 .21zM14.62.17h2.75a5.38 5.38 0 00.67 0l-.33.83a4.88 4.88 0 00-.53-.11c-.17 0-.38-.06-.63-.08a7.31 7.31 0 00-.86 0h-1.33v3.74h1.27l1-.06c.31 0 .58-.06.82-.1l-.22 1-1-.11c-.28 0-.59-.06-.92-.09s-.65 0-1 0v4.19a13.49 13.49 0 001.48-.07c.45-.05.85-.1 1.19-.16s.75-.14 1.07-.22L17.9 10h-4.98l.08-.4c0-.14 0-.32.06-.53s0-.46 0-.75V1.11C13.06.9 13 .7 13 .56l-.08-.35zm14.08 1.3l2.73 6.64 2.66-6.52c.11-.27.18-.49.24-.68a1.91 1.91 0 00.07-.48.62.62 0 000-.13.2.2 0 000-.09h1.36a2.13 2.13 0 00-.3.47c-.11.22-.23.49-.37.82l-3.65 8.69h-.52l-2.69-6.45-2.43 6.45h-.51l-3.35-8.36-.25-.57-.24-.49c-.08-.14-.14-.27-.21-.37a1.13 1.13 0 00-.13-.19H23v.21a2.91 2.91 0 000 .49 4.37 4.37 0 00.2.63L25.81 8l2.46-6.5zm14.41.27H43a2 2 0 00-.18-.36 1.74 1.74 0 00-.35-.38A1.49 1.49 0 0042 .72a1.69 1.69 0 00-.66-.12 1.78 1.78 0 00-.59.1 1.35 1.35 0 00-.44.29 1.28 1.28 0 00-.26.44A1.64 1.64 0 0040 2a1.72 1.72 0 00.28.94 5.42 5.42 0 00.69.88c.28.3.58.59.91.88a11 11 0 01.9.91 4.65 4.65 0 01.69 1 2.23 2.23 0 01.28 1.11 2.58 2.58 0 01-.16.89 2.23 2.23 0 01-.47.8 2.33 2.33 0 01-.83.58 2.92 2.92 0 01-1.2.22 3.51 3.51 0 01-.74-.07 5.06 5.06 0 01-.65-.18 2.91 2.91 0 01-.53-.23 3.19 3.19 0 01-.39-.22L38.9 8h.17a2.28 2.28 0 00.24.61 2.59 2.59 0 00.42.51 2.12 2.12 0 00.57.36 1.83 1.83 0 00.71.13 1.52 1.52 0 00.62-.11 1.29 1.29 0 00.48-.29 1.19 1.19 0 00.3-.45 1.47 1.47 0 00.11-.56 1.91 1.91 0 00-.16-.8 2.86 2.86 0 00-.36-.71 5.78 5.78 0 00-.58-.64l-.67-.62-.75-.64a5.53 5.53 0 01-.58-.7 3.36 3.36 0 01-.41-.8 2.58 2.58 0 01-.16-.94 2.19 2.19 0 01.21-1 2.27 2.27 0 01.55-.74 2.46 2.46 0 01.79-.48 2.51 2.51 0 01.9-.16 4 4 0 01.7.08 4.71 4.71 0 01.51.13c.16.05.29.11.4.15l.28.13z" fill="#fff" data-name="レイヤー 1"/></g></svg>