<?xml version="1.0" encoding="utf-8"?>
<!-- Generator: Adobe Illustrator 25.0.0, SVG Export Plug-In . SVG Version: 6.00 Build 0)  -->
<svg version="1.1" id="レイヤー_1" xmlns="http://www.w3.org/2000/svg" xmlns:xlink="http://www.w3.org/1999/xlink" x="0px"
	 y="0px" viewBox="0 0 77.5 10.2" style="enable-background:new 0 0 77.5 10.2;" xml:space="preserve">
<style type="text/css">
	.st0{fill:#FFFFFF;}
</style>
<g>
	<path class="st0" d="M7.6,4.5L3.2,8.9l-3-3l4.4-4.4L7.6,4.5z M7.1,4.5L4.6,2L0.8,5.9l2.5,2.4L7.1,4.5z"/>
	<path class="st0" d="M12.8,1.5v7.3H8.9V1.5h0.4v6.9h3V1.5H12.8z"/>
	<path class="st0" d="M19.5,8.6l-0.3,0.3l-3.7-3.7l2.1-2.1L16.3,2h-1.8v6.9h-0.4V1.6h2.3l1.6,1.6L16,5.2L19.5,8.6z"/>
	<path class="st0" d="M30.6,7.3L29,8.8h-3.7V8.4h3.5L30,7.3l-4.1-4.1l1.6-1.6h2.3V2h-2.2l-1.2,1.2L30.6,7.3z"/>
	<path class="st0" d="M37.8,2h-2.7v6.9h-0.4V2h-2.7V1.6h5.9V2z"/>
	<path class="st0" d="M44.5,8.6l-0.3,0.3l-3.7-3.7l2.1-2.1L41.4,2h-1.8v6.9h-0.4V1.6h2.3l1.6,1.6L41,5.2L44.5,8.6z"/>
	<path class="st0" d="M51,8.4v0.4h-4.5V3.3h-0.7V2.9h0.7V1.6h3.8V2h-3.4v1h2.7v0.4h-2.7v5.1H51z"/>
	<path class="st0" d="M56.9,1.6v7.2h-0.4V6l-3.7-3.7v6.5h-0.4V1.3l4.1,4.1V1.6H56.9z"/>
	<path class="st0" d="M64.2,3.3h-1.4v5.8l-4.6-4.6l3-3l0.3,0.3l-2.7,2.7l3.6,3.6V3.3H61V2.9h3.2V3.3z"/>
	<path class="st0" d="M71.4,2h-2.7v6.9h-0.4V2h-2.7V1.6h5.9V2z"/>
	<path class="st0" d="M77.3,1.6v7.3h-0.4V3.3h-3v5.5h-0.4V3.3h-0.7V2.9h0.7V1.6h0.4v1.4h3V1.6H77.3z"/>
</g>
</svg>
