<svg xmlns="http://www.w3.org/2000/svg" viewBox="0 0 290.55 36.5"><g data-name="レイヤー 2"><path d="M29.81 6.1l-.22.1A14.54 14.54 0 0025 3.39a15.92 15.92 0 00-5.87-1.05 16 16 0 00-5.64 1 12.29 12.29 0 00-4.4 2.76 12.67 12.67 0 00-2.86 4.5 16.58 16.58 0 00-1 6 24.06 24.06 0 001 7 16.1 16.1 0 002.9 5.6A13.61 13.61 0 0013.9 33a15.82 15.82 0 006.75 1.35 13.91 13.91 0 002.79-.35 13.59 13.59 0 005.09-2.26 12.18 12.18 0 002.06-1.87l.27.17-1.95 5a20.36 20.36 0 01-4 1.09 26.68 26.68 0 01-4.46.38 24.93 24.93 0 01-8.26-1.31 19 19 0 01-6.45-3.7 16.61 16.61 0 01-4.2-5.75A18 18 0 010 18.29a17.64 17.64 0 01.6-4.57 18.25 18.25 0 011.74-4.27 17.79 17.79 0 012.84-3.73A18.1 18.1 0 019 2.78 20 20 0 0113.78.84a21.93 21.93 0 015.63-.69 25.81 25.81 0 018.74 1.44zM60.29.15a20.78 20.78 0 017.54 1.33 17.62 17.62 0 016 3.73 17.1 17.1 0 013.9 5.79 19 19 0 011.41 7.44A19.49 19.49 0 0178.6 23a18.13 18.13 0 01-4.12 8A16.54 16.54 0 0171 33.88a16.79 16.79 0 01-4.28 1.92 17.46 17.46 0 01-5 .7 21.21 21.21 0 01-7.54-1.31 17.54 17.54 0 01-6-3.7 17 17 0 01-3.93-5.75 19 19 0 01-1.41-7.45 19.49 19.49 0 01.54-4.57A18.67 18.67 0 0145 9.45a18.2 18.2 0 012.54-3.73 16.47 16.47 0 013.44-2.94A16.81 16.81 0 0155.23.84a17.94 17.94 0 015.06-.69zm1.4 34.15a12.32 12.32 0 005-1 10.86 10.86 0 003.87-2.84A13.08 13.08 0 0073 26a18.92 18.92 0 00.9-6.06 26.56 26.56 0 00-.87-7 16.71 16.71 0 00-2.53-5.58 12.19 12.19 0 00-4.26-3.69 12.76 12.76 0 00-5.95-1.33 12.45 12.45 0 00-4.95 1 10.73 10.73 0 00-3.87 2.76 12.93 12.93 0 00-2.53 4.5 18.82 18.82 0 00-.9 6 27.22 27.22 0 00.85 7 16.68 16.68 0 002.57 5.6 12.26 12.26 0 004.27 3.8 12.6 12.6 0 005.96 1.3zM95 .73l25.15 26.76V10.3c0-1.38 0-2.59-.05-3.62S120 4.75 120 4s-.14-1.39-.23-1.89a12.66 12.66 0 00-.28-1.27V.73h4.35v.1a10.56 10.56 0 00-.27 1.27c-.08.5-.16 1.13-.22 1.89s-.12 1.65-.15 2.69-.05 2.24-.05 3.62v25.93h-.85L97.1 9.5v16.7c0 1.38 0 2.59.05 3.62s.08 1.93.15 2.68.13 1.37.22 1.88a10.36 10.36 0 00.27 1.26v.1h-4.35v-.1a12.4 12.4 0 00.28-1.26c.09-.51.17-1.14.23-1.88s.12-1.64.15-2.68.05-2.24.05-3.62V10.3c0-1.38 0-2.59-.05-3.62S94 4.75 94 4s-.14-1.39-.23-1.89a12.66 12.66 0 00-.33-1.28v-.1zm53.78 2.15a47.77 47.77 0 00-5.2.26c-1.55.17-2.88.35-4 .55-1.3.24-2.46.51-3.49.8l.71-3.95h21.99L160 .7h5.2l.71 4c-1-.29-2.21-.56-3.52-.8-1.12-.2-2.45-.38-4-.55a47.9 47.9 0 00-5.2-.26V26.2c0 1.38 0 2.59.06 3.62s.09 1.93.15 2.68.13 1.37.22 1.88a12.4 12.4 0 00.28 1.26v.1h-5.84v-.1a10.36 10.36 0 00.27-1.26c.08-.51.16-1.14.22-1.88s.12-1.64.15-2.68.05-2.24.05-3.62zm53.87 32.86v-.1a1.26 1.26 0 00.07-.36 3.61 3.61 0 000-.44 7.47 7.47 0 00-.21-1.67 14.3 14.3 0 00-.79-2.29l-3-6.64h-15.5l-2.81 6.45-.78 2a5.88 5.88 0 00-.41 2.17 2.49 2.49 0 000 .52 1.15 1.15 0 00.1.28v.1h-5v-.1a8 8 0 001.1-1.64q.66-1.19 1.44-3L191 0h2l13.26 29.83c.31.7.63 1.38 1 2s.64 1.25.93 1.77.56 1 .79 1.32a5.88 5.88 0 00.46.68v.1zm-15.82-13.65h10.96l-6.86-15.6-6.74 15.6zM249.66 6.1l-.22.1a14.49 14.49 0 00-4.57-2.81 16.94 16.94 0 00-11.52-.08A12.34 12.34 0 00229 6.1a12.55 12.55 0 00-2.87 4.5 16.79 16.79 0 00-1 6 24.06 24.06 0 001 7 16 16 0 002.91 5.6 13.52 13.52 0 004.72 3.8 15.82 15.82 0 006.75 1.35 13.82 13.82 0 002.78-.29 13.45 13.45 0 002.67-.87 13.2 13.2 0 002.42-1.39 11.81 11.81 0 002.06-1.87l.27.17-2 5a20.36 20.36 0 01-4 1.09 26.59 26.59 0 01-4.46.38 25 25 0 01-8.25-1.38 19 19 0 01-6.45-3.7 16.71 16.71 0 01-4.19-5.75 17.87 17.87 0 01-1.51-7.45 17.64 17.64 0 01.6-4.57 17.79 17.79 0 018.43-10.94 19.72 19.72 0 014.75-1.94 21.93 21.93 0 015.63-.69A25.77 25.77 0 01248 1.59zm23.72-3.22a47.9 47.9 0 00-5.2.26c-1.54.17-2.88.35-4 .55-1.3.24-2.47.51-3.49.8l.71-3.95h28.44l.71 4c-1-.29-2.22-.56-3.52-.8-1.12-.2-2.46-.38-4-.55a47.9 47.9 0 00-5.2-.26V26.2c0 1.38 0 2.59.06 3.62s.09 1.93.15 2.68a17.84 17.84 0 00.22 1.88 10.17 10.17 0 00.28 1.26v.1h-5.84v-.1a10.36 10.36 0 00.27-1.26c.08-.51.15-1.14.22-1.88s.11-1.64.15-2.68 0-2.24 0-3.62z" fill="#fff" data-name="レイヤー 1"/></g></svg>