<svg xmlns="http://www.w3.org/2000/svg" viewBox="0 0 156.1 36.4"><g data-name="レイヤー 2"><path d="M1.56.63l25.15 26.76V10.21c0-1.39 0-2.6-.05-3.63s-.08-1.93-.15-2.69-.14-1.38-.23-1.89A12.66 12.66 0 0026 .73v-.1h4.35v.1A10.56 10.56 0 0030.08 2c-.08.51-.16 1.14-.22 1.89s-.12 1.66-.15 2.69-.05 2.24-.05 3.63v25.92h-.85L3.66 9.4v20.32c0 1.03.08 1.93.15 2.68s.14 1.37.22 1.88a10.56 10.56 0 00.27 1.27v.09H0v-.09a12.66 12.66 0 00.28-1.27c.09-.51.17-1.13.23-1.88s.12-1.64.15-2.68 0-2.24 0-3.62V6.58c0-1.03-.08-1.93-.15-2.69S.37 2.51.28 2A12.66 12.66 0 000 .73v-.1zM52.2.61l5.53-.06c1.68 0 3.11-.06 4.3-.11a18 18 0 002.41-.2l-1.19 3.25a16.62 16.62 0 00-1.88-.39c-.62-.1-1.37-.19-2.26-.28s-1.91-.13-3.06-.13h-1.41l-1.57.09-1.78.1v13.36c1.67 0 3.18-.07 4.54-.15s2.49-.16 3.44-.25c1.11-.09 2.08-.21 2.93-.34l-.76 3.5-3.44-.37c-1-.12-2.11-.22-3.3-.31s-2.32-.13-3.41-.13V33.5a50.63 50.63 0 005.29-.25c1.61-.16 3-.35 4.23-.56 1.4-.23 2.67-.5 3.83-.81l-.71 4-.88-.05H46.13v-.09a10.37 10.37 0 00.28-1.27c.09-.51.17-1.13.24-1.88s.11-1.64.14-2.68.05-2.24.05-3.62V10.21c0-1.39 0-2.6-.05-3.63s-.08-1.93-.14-2.69-.15-1.38-.24-1.89a10.37 10.37 0 00-.28-1.27v-.1c2.04 0 4.06 0 6.07-.02zm50.3 4.64L112.26 29l9.5-23.27a25.37 25.37 0 00.83-2.44 6.78 6.78 0 00.27-1.71 3.4 3.4 0 000-.45 1.26 1.26 0 00-.07-.36V.63h4.83v.1a8.19 8.19 0 00-1.06 1.71c-.38.78-.82 1.75-1.33 2.91l-13 31.05h-1.86l-9.5-23-8.66 23h-1.9l-12-29.86c-.29-.7-.59-1.37-.89-2s-.58-1.24-.85-1.76-.52-1-.74-1.32a7.05 7.05 0 00-.43-.73v-.1h6.76v.1a2.87 2.87 0 000 .42v.34a9.3 9.3 0 00.18 1.76A14.09 14.09 0 0083 5.49l9.18 23.2L101 5.35zm51.5.95h-.53a6.74 6.74 0 00-.63-1.27 6 6 0 00-1.12-1.33 6.06 6.06 0 00-1.68-1 6.16 6.16 0 00-2.34-.41 5.85 5.85 0 00-2.12.36 4.34 4.34 0 00-1.55 1A4.4 4.4 0 00143 5.1a6.08 6.08 0 00-.32 2 6.26 6.26 0 001 3.36 19.37 19.37 0 002.48 3.16c1 1.05 2.07 2.09 3.22 3.13a37.93 37.93 0 013.25 3.25 18.17 18.17 0 012.48 3.52 8.26 8.26 0 011 4 9.69 9.69 0 01-.55 3.19 8.15 8.15 0 01-1.69 2.86 8.54 8.54 0 01-3 2.07 10.62 10.62 0 01-4.3.79 12.51 12.51 0 01-2.64-.26 16.91 16.91 0 01-2.32-.63 13.7 13.7 0 01-1.91-.82 14.75 14.75 0 01-1.38-.8l.56-5.4h.61a8.11 8.11 0 00.88 2.19 7.6 7.6 0 001.51 1.83 7.18 7.18 0 002 1.27 6.69 6.69 0 002.52.47 6.25 6.25 0 002.23-.37 5.16 5.16 0 001.7-1.06 4.65 4.65 0 001.09-1.59 5.39 5.39 0 00.37-2 7 7 0 00-.56-2.84 11.18 11.18 0 00-1.47-2.48 21.91 21.91 0 00-2.08-2.27c-.77-.74-1.57-1.47-2.38-2.21s-1.61-1.5-2.38-2.29a18.27 18.27 0 01-2.08-2.5 12.83 12.83 0 01-1.47-2.85 9.55 9.55 0 01-.56-3.36 7.86 7.86 0 01.74-3.48 8.45 8.45 0 012-2.65 8.81 8.81 0 012.83-1.74 9.14 9.14 0 013.23-.59 12 12 0 012.24.2 14.1 14.1 0 011.84.46 14.64 14.64 0 011.43.54l1 .44z" fill="#fff" data-name="レイヤー 1"/></g></svg>