<svg xmlns="http://www.w3.org/2000/svg" viewBox="0 0 195.08 23.36"><g data-name="レイヤー 2"><path d="M19.08 3.91l-.14.09A9.39 9.39 0 0016 2.17a10.18 10.18 0 00-3.76-.67 10.21 10.21 0 00-3.61.62 7.81 7.81 0 00-2.81 1.79A8.1 8.1 0 004 6.78a10.92 10.92 0 00-.65 3.88A15.61 15.61 0 004 15.12a10.41 10.41 0 001.81 3.58 8.63 8.63 0 003.09 2.39 10.18 10.18 0 004.32.86 9 9 0 001.78-.18 8.77 8.77 0 003.26-1.45 8.32 8.32 0 001.32-1.2l.17.11-1.25 3.19a13.38 13.38 0 01-2.59.7 17 17 0 01-2.85.24 15.91 15.91 0 01-5.29-.84 12 12 0 01-4.12-2.36A10.72 10.72 0 011 16.48a11.63 11.63 0 01-1-4.78 11.37 11.37 0 011.5-5.65 11.23 11.23 0 011.81-2.39 11.78 11.78 0 012.46-1.88A12.91 12.91 0 018.82.54a13.76 13.76 0 013.6-.45A16.41 16.41 0 0118 1zM38.59.09a13.27 13.27 0 014.82.91 11.2 11.2 0 013.82 2.39A10.74 10.74 0 0149.74 7a12.11 12.11 0 01.91 4.77 12.46 12.46 0 01-.34 2.92 12.16 12.16 0 01-1 2.72 11.54 11.54 0 01-1.63 2.36 10.74 10.74 0 01-2.21 1.88 10.54 10.54 0 01-2.75 1.23 11.21 11.21 0 01-3.23.45 13.45 13.45 0 01-4.82-.84 11 11 0 01-3.82-2.36 10.82 10.82 0 01-2.52-3.68 12.3 12.3 0 01-.9-4.78 12.46 12.46 0 01.34-2.92 11.76 11.76 0 011-2.73 11.43 11.43 0 011.62-2.39 10.55 10.55 0 015-3.12 11.23 11.23 0 013.2-.42zM39.48 22a7.83 7.83 0 003.17-.62 7 7 0 002.48-1.81 8.48 8.48 0 001.61-2.9 12 12 0 00.58-3.89 17.08 17.08 0 00-.55-4.46 10.81 10.81 0 00-1.65-3.56 7.85 7.85 0 00-2.73-2.36 8.07 8.07 0 00-3.8-.85 7.93 7.93 0 00-3.17.62 6.78 6.78 0 00-2.48 1.79 8.43 8.43 0 00-1.62 2.87 12.22 12.22 0 00-.58 3.88 17.63 17.63 0 00.55 4.46 10.81 10.81 0 001.64 3.58 7.87 7.87 0 002.74 2.39 8.11 8.11 0 003.81.86zm19.34.81a5.2 5.2 0 00.39-.74 5.34 5.34 0 00.34-1.24c.12-.73.24-1.55.38-2.46s.29-1.87.44-2.87.3-2 .45-3.07.3-2.08.44-3.09.28-2 .41-2.94.25-1.81.35-2.59.19-1.46.26-2 .11-1 .15-1.3h2l9.83 18.37L84 .47h1.48L88 19c.07.59.15 1.09.23 1.5s.17.77.25 1.07a6.49 6.49 0 00.24.74 4.15 4.15 0 00.23.47v.07h-3.9v-.07a2.79 2.79 0 00.15-.56 5.08 5.08 0 00.07-.94v-.87l-2-15L74 22.81l-1.07-.12-9.29-17.38q-.54 3.71-1 6.85c-.11.89-.23 1.79-.34 2.68s-.22 1.72-.31 2.49-.16 1.45-.21 2-.08 1-.08 1.3a8.69 8.69 0 000 .94q0 .41.06.69c0 .22.06.41.09.58h-3.03zM98.26.47l.66.06a6.5 6.5 0 00.66 0h.76a12.13 12.13 0 001.66-.1 19.16 19.16 0 012.65-.15 8.51 8.51 0 012.77.44 6.29 6.29 0 012.2 1.28 5.69 5.69 0 011.46 2.05 6.9 6.9 0 01.53 2.76 7.42 7.42 0 01-.83 3.6 6.89 6.89 0 01-2.22 2.45 8.4 8.4 0 01-3.2 1.27 11.24 11.24 0 01-3.8 0v4.92c0 .67.06 1.23.09 1.71s.09.88.14 1.2.12.59.18.81v.07h-3.71v-.07a5.54 5.54 0 00.18-.81q.09-.48.15-1.2c0-.48.08-1.05.1-1.71s0-1.44 0-2.32V4.27c0-.67-.06-1.23-.1-1.72s-.09-.88-.15-1.21a5.54 5.54 0 00-.18-.81zm3.3 12.53a7.88 7.88 0 002.81.06 4.77 4.77 0 002.18-1A4.87 4.87 0 00108 10a8.47 8.47 0 00.5-3.09 9.72 9.72 0 00-.26-2.31 5.18 5.18 0 00-.79-1.76 3.59 3.59 0 00-1.32-1.13 4.18 4.18 0 00-1.86-.4 9.88 9.88 0 00-1.17.06c-.34 0-.62.07-.85.12a3.81 3.81 0 00-.67.17zm34.36 9.88v-.07a1 1 0 000-.23v-.28a4.77 4.77 0 00-.14-1.07 7.91 7.91 0 00-.5-1.46l-1.89-4.25h-9.93l-1.79 4.12c-.16.39-.33.81-.5 1.27a3.77 3.77 0 00-.17 1.39 1.55 1.55 0 000 .33.39.39 0 00.07.18v.07h-3.19v-.07a5.3 5.3 0 00.7-1c.28-.51.59-1.14.92-1.9l9-19.86h1.25l8.48 19.09c.2.45.4.89.62 1.31s.41.8.6 1.13.35.62.5.85a3.31 3.31 0 00.3.43v.07zm-10.13-8.74h7.02l-4.39-9.92-4.32 10zM148.75.47l16.1 17.12V4.27c0-.67-.06-1.23-.1-1.72s-.09-.88-.15-1.21a5.54 5.54 0 00-.18-.81V.47h2.78v.06a7.48 7.48 0 00-.17.81c-.05.33-.1.73-.14 1.21s-.07 1.06-.09 1.72 0 1.44 0 2.32v16.6h-.55L150.1 6.08v13.01c0 .67.05 1.23.09 1.71s.09.88.14 1.2a7.48 7.48 0 00.17.81v.07h-2.78v-.07a5.54 5.54 0 00.18-.81q.09-.48.15-1.2t.09-1.71V4.27c0-.67 0-1.23-.09-1.72s-.09-.88-.15-1.21a5.54 5.54 0 00-.18-.81V.47zm37.65 11.65v6.97c0 .67.06 1.23.1 1.71s.09.88.15 1.2a5.54 5.54 0 00.18.81v.07h-3.75v-.07q.09-.33.18-.81c.05-.32.1-.72.14-1.2s.06-1.05.09-1.71 0-1.44 0-2.32v-4.33l-7-9.5c-.25-.32-.48-.62-.72-.89a9.47 9.47 0 00-.66-.71 7.45 7.45 0 00-.56-.51l-.39-.3V.47H179a3.83 3.83 0 00.31 1.18 8.47 8.47 0 001.1 1.93l5.12 7 5-7.32c.18-.26.35-.53.53-.8s.34-.53.48-.78a5.8 5.8 0 00.36-.68 1.56 1.56 0 00.1-.53h3.05v.06c-.23.2-.54.49-.93.88A12.25 12.25 0 00192.9 3z" fill="#fff" data-name="レイヤー 1"/></g></svg>