<svg xmlns="http://www.w3.org/2000/svg" viewBox="0 0 297.76 30.66"><g data-name="レイヤー 2"><path d="M0 29.94a10.43 10.43 0 00.23-1.06c.06-.43.13-1 .18-1.58s.1-1.38.12-2.25 0-1.88 0-3.05V5.65c0-.83-.07-1.65-.12-2.3S.29 2.19.23 1.76A9.86 9.86 0 000 .7V.62h4.9V.7a9.86 9.86 0 00-.23 1.06 15.85 15.85 0 00-.19 1.59c-.05.64-.09 1.39-.12 2.26s-.05 1.88-.05 3V22c0 1.17 0 2.18.05 3.05s.07 1.62.12 2.25.11 1.15.19 1.58a10.43 10.43 0 00.23 1.06V30H0zM19.66.62l21.12 22.47V5.65c0-.83-.11-1.65-.16-2.3s-.12-1.16-.2-1.59A9.86 9.86 0 0040.19.7V.62h3.65V.7a9.86 9.86 0 00-.23 1.06q-.11.64-.18 1.59c-.06.64-.1 1.39-.13 2.26s0 1.88 0 3v21.82h-.71L21.42 8v17.05c0 .87.07 1.62.13 2.25s.11 1.15.18 1.58a10.43 10.43 0 00.27 1.06V30h-3.65v-.08a10.43 10.43 0 00.23-1.06c.08-.43.14-1 .2-1.58s.09-1.38.12-2.25 0-1.88 0-3.05V5.65c0-.83-.07-1.65-.12-2.3s-.12-1.16-.2-1.59A9.86 9.86 0 0018.35.7V.62zm49.7 4.67h-.45a6 6 0 00-.52-1.07 5.33 5.33 0 00-.94-1.11A5 5 0 0066 2.24a5.55 5.55 0 00-3.74-.05 3.54 3.54 0 00-1.3.87 3.41 3.41 0 00-.79 1.31 4.93 4.93 0 00-.27 1.68 5.34 5.34 0 00.83 2.82 16.34 16.34 0 002.08 2.66c.84.87 1.74 1.75 2.71 2.62a34.86 34.86 0 012.71 2.73 16 16 0 012.08 3 7 7 0 01.83 3.33 8.39 8.39 0 01-.46 2.68 7 7 0 01-1.43 2.41A7.11 7.11 0 0166.8 30a8.85 8.85 0 01-3.61.67 10.58 10.58 0 01-2.19-.23 13.75 13.75 0 01-2-.53 11.47 11.47 0 01-1.6-.69 11.78 11.78 0 01-1.16-.67l.49-4.55h.51a6.52 6.52 0 00.76 1.85 6.44 6.44 0 001.26 1.54A6.16 6.16 0 0061 28.46a5.54 5.54 0 002.11.39 5.24 5.24 0 001.87-.31 4.17 4.17 0 001.43-.89 3.67 3.67 0 00.91-1.34 4.51 4.51 0 00.32-1.7 6.07 6.07 0 00-.47-2.39 9.61 9.61 0 00-1.24-2.08 18.22 18.22 0 00-1.75-1.91c-.65-.61-1.31-1.23-2-1.85s-1.35-1.27-2-1.92a16.51 16.51 0 01-1.75-2.1A11.37 11.37 0 0157.16 10a8.26 8.26 0 01-.47-2.82 6.66 6.66 0 01.63-2.93A6.92 6.92 0 0159 2 7.38 7.38 0 0161.32.57 7.87 7.87 0 0164 .08a10.14 10.14 0 011.89.17 13 13 0 011.55.39q.68.22 1.2.45l.84.37zM91.5 2.42a40.83 40.83 0 00-4.36.21c-1.3.15-2.42.3-3.37.47s-2.07.43-2.93.67l.59-3.32h23.86l.59 3.32c-.87-.24-1.86-.47-3-.67s-2.07-.32-3.37-.47a40.83 40.83 0 00-4.36-.21V22c0 1.17 0 2.18.05 3.05s.07 1.62.12 2.25.11 1.15.19 1.58a10.43 10.43 0 00.23 1.06V30h-4.9v-.08a10.43 10.43 0 00.23-1.06c.06-.43.13-1 .18-1.58s.1-1.38.12-2.25 0-1.88 0-3.05zM136.76 30v-.08a1 1 0 00.06-.31v-.37a6.74 6.74 0 00-.17-1.4 12.1 12.1 0 00-.67-1.92l-2.48-5.58h-13.02l-2.36 5.42c-.21.5-.43 1.06-.66 1.66a5.07 5.07 0 00-.35 1.82 2.68 2.68 0 000 .45 1.39 1.39 0 00.08.23V30h-4.18v-.08a7.29 7.29 0 00.92-1.38c.37-.67.78-1.5 1.21-2.49L127 0h1.64l11.13 25.06q.39.89.81 1.71c.28.56.54 1.05.79 1.49s.47.81.66 1.11a5.85 5.85 0 00.39.57V30zm-13.29-11.44h9.2l-5.77-13-5.66 13.1zm54.87 8.02a2.59 2.59 0 01-.05.47.75.75 0 01-.24.41 15.84 15.84 0 01-4.32 2.3 16.66 16.66 0 01-2.7.66 19 19 0 01-3.11.24 20.18 20.18 0 01-6.81-1.1 15.55 15.55 0 01-5.28-3.1 13.68 13.68 0 01-3.41-4.84 15.6 15.6 0 01-1.21-6.26 15 15 0 01.5-3.83 14.59 14.59 0 011.47-3.59 14.31 14.31 0 012.38-3.13 15.27 15.27 0 013.23-2.47 16.46 16.46 0 014-1.63 18.29 18.29 0 014.73-.59q1 0 2 .09c.69.07 1.36.16 2 .27s1.32.26 1.94.42 1.21.35 1.77.56l1.4 3.79-.17.08A11 11 0 00174.65 4a14.45 14.45 0 00-2.24-1.07 16.29 16.29 0 00-2.49-.71 13.7 13.7 0 00-2.63-.22 13.32 13.32 0 00-4.74.81 10.23 10.23 0 00-3.7 2.35 10.4 10.4 0 00-2.41 3.77 14 14 0 00-.86 5.09 19.73 19.73 0 00.82 5.82 13.37 13.37 0 002.44 4.66 11.2 11.2 0 004 3.08 13.37 13.37 0 005.67 1.12 13.16 13.16 0 002.56-.23 9.31 9.31 0 001.91-.56 3.87 3.87 0 001.18-.74 1.12 1.12 0 00.4-.73v-3.28c0-.7-.07-1.3-.13-1.81s-.11-1-.18-1.32a8.64 8.64 0 00-.25-1v-.08h4.92V19c-.08.29-.16.63-.23 1s-.14.86-.2 1.39-.09 1.16-.12 1.88 0 1.54 0 2.49zM195.52 22v3.05c0 .87.07 1.62.12 2.25s.11 1.15.19 1.58a10.43 10.43 0 00.23 1.06V30h-4.92v-.08c.08-.29.16-.64.24-1.06s.13-1 .18-1.58.09-1.38.13-2.24 0-1.88 0-3.06V5.65c0-.83-.08-1.62-.13-2.25s-.11-1.15-.18-1.59-.11-.81-.19-1.11V.62l.86.08.87.05h1a16.33 16.33 0 002.16-.2 25.52 25.52 0 013.48-.19 12.13 12.13 0 013.64.54 8.7 8.7 0 012.9 1.56A7.11 7.11 0 01208 5a7.94 7.94 0 01.69 3.38 9.53 9.53 0 01-.38 2.73 8.46 8.46 0 01-1.07 2.29 8.64 8.64 0 01-1.65 1.82 9.91 9.91 0 01-2.15 1.32l7.19 10.11c.36.5.69.94 1 1.31a10.57 10.57 0 00.88.95 5.6 5.6 0 00.81.66 3.52 3.52 0 00.8.4V30h-5.93a3.46 3.46 0 00-.4-1 10.3 10.3 0 00-.79-1.28l-7.26-10.24-.94.07h-2.16a9.72 9.72 0 01-1.18-.14zm0-6.21a8.31 8.31 0 001.13.17 10.56 10.56 0 001.1.06 8.08 8.08 0 002.81-.47 5.46 5.46 0 002.17-1.4 6.56 6.56 0 001.38-2.35 9.87 9.87 0 00.49-3.29 10.15 10.15 0 00-.35-2.79 5.91 5.91 0 00-1-2.12 4.7 4.7 0 00-1.73-1.35 5.65 5.65 0 00-2.44-.49 13.42 13.42 0 00-2.26.15 7.74 7.74 0 00-1.27.3zM243.91 30v-.08a1 1 0 00.06-.31v-.37a6.74 6.74 0 00-.17-1.4 12.1 12.1 0 00-.67-1.92l-2.48-5.58h-13.02l-2.36 5.42c-.21.5-.43 1.06-.66 1.66a5.07 5.07 0 00-.35 1.82 2.68 2.68 0 000 .45.77.77 0 00.09.23V30h-4.19v-.08a7.23 7.23 0 00.93-1.38c.36-.67.77-1.5 1.21-2.49L234.11 0h1.64l11.13 25.06q.39.89.81 1.71c.28.56.55 1.05.79 1.49s.47.81.66 1.11a5.85 5.85 0 00.39.57V30zm-13.29-11.44h9.2l-5.76-13-5.66 13.1zm27.54 11.38a6.31 6.31 0 00.51-1 7 7 0 00.45-1.63c.15-1 .32-2 .5-3.23s.38-2.45.58-3.77.39-2.65.59-4 .39-2.72.57-4.06.37-2.61.54-3.85.32-2.37.46-3.4.25-1.91.34-2.67.15-1.33.19-1.71h2.61l12.9 24.11L291.19.62h1.95L296.5 25c.1.76.2 1.42.31 2s.22 1 .33 1.4.22.71.32 1a4 4 0 00.3.62V30h-5.17v-.08a3.32 3.32 0 00.19-.74 7.1 7.1 0 00.1-1.23 4.89 4.89 0 000-.54c0-.19 0-.39-.06-.61l-2.6-19.64-12.1 22.76-1.42-.16L264.49 7c-.48 3.24-.89 6.24-1.25 9l-.45 3.51c-.15 1.17-.28 2.26-.4 3.27s-.21 1.91-.28 2.68-.1 1.34-.1 1.71v1.23c0 .35.06.66.08.9s.09.54.13.76h-4.1z" fill="#fff" data-name="レイヤー 1"/></g></svg>