<svg xmlns="http://www.w3.org/2000/svg" viewBox="0 0 280.86 36.35"><g data-name="レイヤー 2"><path d="M0 .59l1 .09a7.94 7.94 0 001 .06h1.19A20 20 0 005.82.53 29.28 29.28 0 0110 .29a13.11 13.11 0 014.29.71 9.83 9.83 0 013.46 2A9 9 0 0120 6.19a10.69 10.69 0 01.82 4.31 11.54 11.54 0 01-1.29 5.61A10.88 10.88 0 0116.09 20a13.24 13.24 0 01-5 2 17.83 17.83 0 01-5.94 0v4.05q0 2.07.06 3.63t.15 2.67c.06.75.13 1.37.22 1.88a12.66 12.66 0 00.28 1.27v.1H0v-.1a12.66 12.66 0 00.28-1.27c.09-.51.17-1.13.23-1.88s.12-1.64.15-2.67 0-2.25 0-3.63V6.53C.66 5.5.58 4.6.51 3.85S.37 2.46.28 2 .1 1 0 .68zm5.15 19.5a12.27 12.27 0 004.38.09A7.32 7.32 0 0013 18.66a7.54 7.54 0 002.22-3.13 13 13 0 00.8-4.84 14.4 14.4 0 00-.42-3.6 8.33 8.33 0 00-1.23-2.76 5.61 5.61 0 00-2.06-1.75A6.37 6.37 0 009.35 2a16.2 16.2 0 00-1.83 0q-.78.09-1.32.18a7.18 7.18 0 00-1 .27zm34.61 5.96q0 2.07.06 3.63t.18 2.67c.06.75.13 1.37.22 1.88a12.66 12.66 0 00.28 1.27v.1h-5.89v-.1a12.66 12.66 0 00.28-1.27c.09-.51.16-1.13.22-1.88s.11-1.64.15-2.66.06-2.24.06-3.64V10.16q0-2.09-.06-3.63t-.15-2.67c-.06-.75-.13-1.38-.22-1.9a12.92 12.92 0 00-.28-1.28V.59l1 .09a7.94 7.94 0 001 .06h1.19a20 20 0 002.63-.21 29.28 29.28 0 014.14-.24 13.94 13.94 0 014.33.64 10.17 10.17 0 013.46 1.85 8.4 8.4 0 012.28 3 9.41 9.41 0 01.82 4 11.32 11.32 0 01-.46 3.27 10.14 10.14 0 01-1.27 2.72 9.64 9.64 0 01-2 2.16 11.44 11.44 0 01-2.56 1.58l8.57 12c.42.61.82 1.13 1.18 1.57s.72.81 1 1.13A6.9 6.9 0 0061 35a4.24 4.24 0 001 .48v.1h-7.13a4.09 4.09 0 00-.47-1.24 13 13 0 00-.94-1.52l-8.64-12.17-1.13.09h-1.15c-.4 0-.91 0-1.37-.05a13.55 13.55 0 01-1.41-.17zm0-7.4a10.09 10.09 0 001.34.21q.69.06 1.32.06a9.69 9.69 0 003.35-.55 6.48 6.48 0 002.57-1.67A7.67 7.67 0 0050 13.9a11.82 11.82 0 00.58-3.9 12.16 12.16 0 00-.42-3.32 7.2 7.2 0 00-1.23-2.53 5.55 5.55 0 00-2.06-1.61A6.78 6.78 0 0044 2a17.06 17.06 0 00-2.68.17 9.1 9.1 0 00-1.52.37zM89.12 0a20.69 20.69 0 017.53 1.33 17.78 17.78 0 016 3.74 16.94 16.94 0 013.93 5.77 19.13 19.13 0 011.42 7.45 19.47 19.47 0 01-.54 4.56 18.2 18.2 0 01-1.58 4.25 17.93 17.93 0 01-2.55 3.7 16.43 16.43 0 01-3.45 2.93 17.23 17.23 0 01-4.29 1.93 17.77 17.77 0 01-5 .69 21.12 21.12 0 01-7.59-1.3 17.5 17.5 0 01-6-3.7 16.81 16.81 0 01-3.93-5.75 18.93 18.93 0 01-1.42-7.46 19.54 19.54 0 012.12-8.84 18.26 18.26 0 012.54-3.72A16.49 16.49 0 0184.05.7a17.6 17.6 0 015.07-.7zm1.39 34.16a12.33 12.33 0 005-1 11 11 0 003.87-2.83 13.25 13.25 0 002.52-4.53 19 19 0 00.91-6.07 26.61 26.61 0 00-.87-7 17 17 0 00-2.58-5.57 12.16 12.16 0 00-4.26-3.68 12.63 12.63 0 00-5.98-1.28 12.5 12.5 0 00-5 1A10.84 10.84 0 0080.29 6a13 13 0 00-2.52 4.49 18.54 18.54 0 00-.91 6.05 27.16 27.16 0 00.86 7 16.81 16.81 0 002.56 5.61 12.22 12.22 0 004.27 3.72 12.63 12.63 0 005.96 1.29zM122.46.49l1.05.05h3.11c.72 0 1.55-.07 2.48-.1l2.9-.1c1 0 1.94-.05 2.82-.05a25.57 25.57 0 016.74.88 15.08 15.08 0 015.62 2.88A14 14 0 01151 9.3a20.08 20.08 0 011.42 8 22.9 22.9 0 01-.75 6.1 16.92 16.92 0 01-2.09 4.78 14.41 14.41 0 01-3.21 3.56 18 18 0 01-4.12 2.43 22.67 22.67 0 01-4.83 1.39 31.47 31.47 0 01-5.29.44c-.65 0-1.44 0-2.36-.06l-2.77-.15-2.62-.13q-1.25-.06-1.92-.06v-.1a12.66 12.66 0 00.28-1.27c.09-.51.17-1.13.23-1.88s.11-1.64.15-2.67 0-2.25 0-3.63V6.51c0-1.05-.08-2-.15-2.71s-.14-1.4-.23-1.92a12 12 0 00-.28-1.29zm5.35 2.2c0 1.82-.07 3.58-.1 5.29v12.38c0 1.54 0 3.14.07 4.76s.06 3.19.11 4.69.1 2.74.17 3.73c.22 0 .53.07.91.11s.79.08 1.21.1l1.25.06h1a28 28 0 003.5-.23 15.62 15.62 0 003.47-.87 12.51 12.51 0 003.09-1.71 10.45 10.45 0 002.59-2.87 14.62 14.62 0 001.74-4.23 23.41 23.41 0 00.64-5.85 22.53 22.53 0 00-.9-6.65 13.5 13.5 0 00-2.65-4.92 11.27 11.27 0 00-4.33-3 15.74 15.74 0 00-5.91-1h-1.49l-1.65.07-1.53.05zm64.39 7.47V6.53c0-1.03-.08-1.93-.14-2.68s-.14-1.39-.22-1.9-.17-.92-.27-1.27V.59h4.34v.09c-.09.35-.19.77-.28 1.27s-.16 1.14-.22 1.9-.1 1.65-.14 2.68-.06 2.24-.06 3.63v13.18a15.8 15.8 0 01-1 6 10.53 10.53 0 01-2.78 4 10.93 10.93 0 01-4.27 2.29 19.58 19.58 0 01-5.45.72 21.41 21.41 0 01-5.5-.68 11.88 11.88 0 01-4.44-2.21 10.35 10.35 0 01-3-4 14.54 14.54 0 01-1.07-5.92V6.53c0-1.03-.09-1.93-.15-2.68s-.14-1.39-.23-1.9-.27-.95-.32-1.27V.59h5.86v.09a10.81 10.81 0 00-.32 1.32c-.09.51-.17 1.14-.24 1.9s-.11 1.65-.14 2.68 0 2.24 0 3.63v13.64a11.51 11.51 0 00.87 4.8 7.77 7.77 0 002.28 3 8.31 8.31 0 003.22 1.55 15.65 15.65 0 007.37 0 8.14 8.14 0 003.21-1.55 7.85 7.85 0 002.27-3 11.51 11.51 0 00.87-4.8zM240 6l-.22.09a14.4 14.4 0 00-4.58-2.8 17 17 0 00-11.51-.09 12.32 12.32 0 00-4.44 2.8 12.71 12.71 0 00-2.86 4.49 16.58 16.58 0 00-1 6.05 24 24 0 001 7 16.24 16.24 0 002.9 5.61 13.5 13.5 0 004.83 3.72 15.76 15.76 0 006.75 1.36 13.21 13.21 0 002.78-.3 12.81 12.81 0 002.67-.86 13.85 13.85 0 002.42-1.4 12.12 12.12 0 002.06-1.86l.27.17-2 5A21.07 21.07 0 01235 36a25.66 25.66 0 01-4.46.38 25 25 0 01-8.26-1.3 19.12 19.12 0 01-6.45-3.7 16.7 16.7 0 01-4.2-5.75 18.11 18.11 0 01-1.5-7.46 17.64 17.64 0 01.6-4.57 18.42 18.42 0 011.77-4.3 17.48 17.48 0 012.84-3.72 18.1 18.1 0 013.84-2.94A19.56 19.56 0 01223.94.7a21.49 21.49 0 015.63-.7 25.81 25.81 0 018.74 1.44zm23.69-3.27a47.9 47.9 0 00-5.2.26c-1.54.17-2.88.35-4 .55a35.06 35.06 0 00-3.49.81l.71-4h28.44l.71 4c-1.05-.3-2.22-.57-3.52-.81-1.12-.2-2.46-.38-4-.55a47.9 47.9 0 00-5.2-.26v23.32q0 2.07.06 3.63c0 1 .09 1.92.14 2.67s.13 1.37.22 1.88.19.93.28 1.27v.1H263v-.1a10.56 10.56 0 00.27-1.27c.08-.51.15-1.13.22-1.88s.11-1.64.14-2.67.05-2.25.05-3.63z" fill="#fff" data-name="レイヤー 1"/></g></svg>