<svg xmlns="http://www.w3.org/2000/svg" viewBox="0 0 342.22 30.58"><g data-name="レイヤー 2"><path d="M14.66 0A17.37 17.37 0 0121 1.16a14.74 14.74 0 015 3.14 14.27 14.27 0 013.31 4.85 16 16 0 011.19 6.25 16.53 16.53 0 01-.5 3.84 15.67 15.67 0 01-1.32 3.56 14.7 14.7 0 01-2.14 3.11 14 14 0 01-2.9 2.46A14.34 14.34 0 0120.08 30a14.9 14.9 0 01-4.25.59 17.74 17.74 0 01-6.32-1.1 14.72 14.72 0 01-5-3.11 14.12 14.12 0 01-3.3-4.83A16 16 0 010 15.28a16.52 16.52 0 01.45-3.84 16.27 16.27 0 011.32-3.59 15.15 15.15 0 012.14-3.12A13.45 13.45 0 016.8 2.26 14.14 14.14 0 0110.41.62 15.32 15.32 0 0114.66 0zm1.17 28.69a10.31 10.31 0 004.17-.78 9.18 9.18 0 003.25-2.38 11.37 11.37 0 002.12-3.8 16.08 16.08 0 00.76-5.1 22.64 22.64 0 00-.73-5.85 14.41 14.41 0 00-2.16-4.68A10.35 10.35 0 0019.66 3a10.74 10.74 0 00-5-1.11 10.46 10.46 0 00-4.16.81A9.11 9.11 0 007.25 5a10.84 10.84 0 00-2.12 3.82 15.63 15.63 0 00-.76 5.08 22.78 22.78 0 00.72 5.86 14 14 0 002.15 4.71 10.36 10.36 0 003.59 3.12 10.51 10.51 0 005 1.14zM43.82.53L64.94 23V5.57c0-.83-.07-1.62-.12-2.26s-.12-1.16-.2-1.59a9.86 9.86 0 00-.27-1.1V.53H68v.09a7.91 7.91 0 00-.23 1.06c-.07.43-.13 1-.18 1.59s-.1 1.39-.13 2.26 0 1.88 0 3v21.82h-.76L45.58 7.9v17c0 .82.07 1.61.13 2.24s.11 1.16.18 1.58a8.09 8.09 0 00.23 1.07v.08H42.5v-.08a7.94 7.94 0 00.24-1.07c.08-.42.14-.95.2-1.58s.09-1.37.12-2.24 0-1.89 0-3V5.57c0-.83-.06-1.66-.12-2.3s-.12-1.16-.2-1.59A7.75 7.75 0 0042.5.62V.53zm41.76 27.61a43.65 43.65 0 004.42-.21c1.35-.14 2.53-.29 3.54-.47a32.23 32.23 0 003.22-.68l-.59 3.33-.74-.05h-1.1L93.1 30H81.26v-.08a10.11 10.11 0 00.23-1.07c.08-.42.14-.95.2-1.58s.09-1.37.12-2.24 0-1.89 0-3V5.57c0-.83-.07-1.62-.12-2.26s-.12-1.16-.2-1.59a9.86 9.86 0 00-.23-1.1V.53h4.92v.09c-.08.28-.16.64-.24 1.06s-.13 1-.18 1.59-.09 1.39-.12 2.26-.06 1.88-.06 3zm22.74 1.72a10.11 10.11 0 00.23-1.07c.06-.42.13-.95.18-1.58s.1-1.37.12-2.24 0-1.89 0-3V5.57c0-.83-.06-1.62-.12-2.26s-.12-1.16-.18-1.59a9.86 9.86 0 00-.23-1.06V.53h4.9v.09a9.86 9.86 0 00-.22 1.06 15.49 15.49 0 00-.19 1.59c0 .64-.09 1.39-.12 2.26s-.05 1.88-.05 3v13.39c0 1.16 0 2.18.05 3s.07 1.61.12 2.24a15.26 15.26 0 00.19 1.58 10.11 10.11 0 00.23 1.07v.08h-4.9zM128 .53L149.1 23V5.57c0-.83-.07-1.62-.12-2.26s-.12-1.16-.19-1.59-.16-.78-.24-1.06V.53h3.65v.09a9.86 9.86 0 00-.23 1.06c-.06.43-.13 1-.18 1.59s-.1 1.39-.12 2.26 0 1.88 0 3v21.82h-.71L129.74 7.9v17c0 .82.06 1.61.12 2.24s.11 1.16.18 1.58a10.11 10.11 0 00.23 1.07v.08h-3.65v-.08a10.11 10.11 0 00.23-1.07c.08-.42.14-.95.2-1.58s.09-1.37.12-2.24 0-1.89 0-3V5.57c0-.83-.07-1.62-.12-2.26s-.12-1.16-.2-1.59a9.86 9.86 0 00-.23-1.06V.53zm42.52-.02h4.64c1.41 0 2.61-.05 3.61-.09a18.38 18.38 0 002-.16l-1 2.72c-.46-.12-1-.23-1.58-.33s-1.16-.16-1.9-.23a24.61 24.61 0 00-2.57-.11h-1.18l-1.33.07-1.49.08v11.2c1.41 0 2.68-.06 3.81-.13s2.1-.13 2.89-.2 1.75-.18 2.46-.29l-.63 3c-.95-.13-1.91-.24-2.89-.35s-1.77-.18-2.77-.26-2-.11-2.87-.11v12.82a43.59 43.59 0 004.45-.21c1.35-.14 2.53-.29 3.55-.47a32.61 32.61 0 003.21-.68l-.59 3.33-.74-.05h-2.37L176 30h-10.53v-.08c.08-.29.16-.64.24-1.07s.14-.95.19-1.58.1-1.37.12-2.24 0-1.89 0-3V5.57c0-.83-.06-1.62-.12-2.26s-.12-1.16-.19-1.59-.21-.82-.29-1.1V.53c1.71 0 3.41 0 5.1-.02zm35.31 4.7h-.45a5.73 5.73 0 00-.52-1.07 4.83 4.83 0 00-.94-1.14 4.87 4.87 0 00-3.38-1.23 4.92 4.92 0 00-1.78.31 3.6 3.6 0 00-1.3.86 3.53 3.53 0 00-.79 1.32A4.93 4.93 0 00196.4 6a5.34 5.34 0 00.83 2.82 16.29 16.29 0 002.08 2.65c.84.88 1.74 1.75 2.71 2.63a33.21 33.21 0 012.71 2.73 16 16 0 012.08 3 7 7 0 01.83 3.33 8.17 8.17 0 01-.46 2.68 6.89 6.89 0 01-3.91 4.14 9 9 0 01-3.61.67 10.58 10.58 0 01-2.22-.22 13.75 13.75 0 01-1.95-.53 11.47 11.47 0 01-1.6-.69 10 10 0 01-1.16-.68l.47-4.53h.51a6.52 6.52 0 00.74 1.84 6.44 6.44 0 001.26 1.54 5.91 5.91 0 001.72 1.06 5.36 5.36 0 002.11.4 5.3 5.3 0 001.88-.31 4.39 4.39 0 001.42-.89 3.67 3.67 0 00.91-1.34 4.51 4.51 0 00.32-1.7 6.07 6.07 0 00-.47-2.39 9.61 9.61 0 00-1.24-2.08 17.28 17.28 0 00-1.75-1.91c-.65-.62-1.31-1.23-2-1.86s-1.36-1.26-2-1.91a15.93 15.93 0 01-1.75-2.11 11.06 11.06 0 01-1.24-2.39 8.28 8.28 0 01-.47-2.83 6.62 6.62 0 01.63-2.92 6.81 6.81 0 011.66-2.22 7.38 7.38 0 012.35-1.49A7.64 7.64 0 01200.5 0a10.09 10.09 0 011.89.16 13 13 0 011.55.39q.67.22 1.2.45c.34.16.62.28.84.37zM228 2.34a41 41 0 00-4.36.21c-1.3.15-2.42.3-3.37.46s-2.07.44-2.93.68l.6-3.32h23.85l.59 3.32c-.87-.24-1.86-.47-2.95-.68-.94-.16-2.07-.31-3.36-.46a41.16 41.16 0 00-4.37-.21v22.58c0 .82.07 1.61.12 2.24a15.26 15.26 0 00.19 1.58 10.11 10.11 0 00.23 1.07v.08h-4.9v-.08a10.11 10.11 0 00.23-1.07c.06-.42.13-.95.18-1.58s.1-1.37.12-2.24 0-1.89 0-3zM266.3 0a17.31 17.31 0 016.32 1.12 14.79 14.79 0 015 3.14 14.11 14.11 0 013.3 4.85 16 16 0 011.19 6.25 16.52 16.52 0 01-.45 3.84 15.24 15.24 0 01-1.33 3.56 14.7 14.7 0 01-2.14 3.11 13.7 13.7 0 01-2.9 2.46 14.34 14.34 0 01-3.6 1.62 14.83 14.83 0 01-4.24.59 17.76 17.76 0 01-6.33-1.1 14.72 14.72 0 01-5-3.11 14.4 14.4 0 01-3.3-4.83 16 16 0 01-1.19-6.26 16.52 16.52 0 01.45-3.84 16.82 16.82 0 011.33-3.59 15.1 15.1 0 012.13-3.12 13.45 13.45 0 012.89-2.47A14.3 14.3 0 01262 .62a15.34 15.34 0 014.3-.62zm1.17 28.69a10.3 10.3 0 004.16-.82 9.1 9.1 0 003.25-2.38 11 11 0 002.12-3.8 15.8 15.8 0 00.76-5.1 22.21 22.21 0 00-.73-5.85 14 14 0 00-2.16-4.68A10.26 10.26 0 00271.29 3a10.7 10.7 0 00-5-1.11 10.48 10.48 0 00-4.17.81 9.2 9.2 0 00-3.24 2.3 11 11 0 00-2.12 3.78 15.63 15.63 0 00-.76 5.12 22.78 22.78 0 00.72 5.86 14.35 14.35 0 002.15 4.71 10.45 10.45 0 003.59 3.12 10.58 10.58 0 005.01 1.14zm31.16-6.77c0 1.16 0 2.18.05 3s.08 1.61.12 2.24a15.26 15.26 0 00.19 1.58 10.11 10.11 0 00.23 1.07v.08h-4.92v-.08c.08-.29.16-.64.24-1.07s.13-.95.18-1.58.09-1.37.13-2.23 0-1.88 0-3.06V5.57c0-.83-.08-1.62-.13-2.25s-.11-1.16-.18-1.59-.16-.83-.24-1.11V.53l.86.09.88.05h1a16.33 16.33 0 002.16-.2 25.52 25.52 0 013.48-.19 11.77 11.77 0 013.64.53 8.7 8.7 0 012.9 1.56 7.11 7.11 0 011.92 2.51 7.93 7.93 0 01.69 3.37 9.55 9.55 0 01-.38 2.74 8.6 8.6 0 01-1.07 2.29 8.35 8.35 0 01-1.65 1.81 9.57 9.57 0 01-2.15 1.33l7.19 10.11c.36.5.69.94 1 1.31a10.57 10.57 0 00.88.95 5.6 5.6 0 00.81.66 4 4 0 00.8.4v.08h-5.93a3.46 3.46 0 00-.4-1 9.32 9.32 0 00-.79-1.29l-7.25-10.23-.95.07h-2.16c-.39 0-.78-.07-1.18-.14zm0-6.21a8.56 8.56 0 001.13.17 10.54 10.54 0 001.11 0 8.06 8.06 0 002.8-.46 5.46 5.46 0 002.17-1.4 6.56 6.56 0 001.38-2.35 9.91 9.91 0 00.49-3.29 10.45 10.45 0 00-.34-2.79 6.09 6.09 0 00-1-2.12 4.83 4.83 0 00-1.73-1.36 5.81 5.81 0 00-2.44-.48 13.42 13.42 0 00-2.26.15 6.82 6.82 0 00-1.27.3zM331.77.51h4.65c1.41 0 2.61-.05 3.61-.09a18.61 18.61 0 002-.16l-1 2.72c-.45-.12-1-.23-1.58-.33s-1.15-.16-1.89-.23a24.81 24.81 0 00-2.56-.16h-1.18l-1.32.07-1.5.08v11.2c1.41 0 2.68-.06 3.82-.13s2.1-.13 2.89-.2 1.75-.18 2.46-.29l-.63 3c-1-.13-1.91-.24-2.9-.35-.84-.1-1.77-.18-2.76-.26s-2-.11-2.88-.11v12.87a43.3 43.3 0 004.45-.21c1.36-.14 2.54-.29 3.55-.47a32.23 32.23 0 003.22-.68l-.59 3.33-.74-.05h-14.21v-.08a10.11 10.11 0 00.23-1.07c.08-.42.14-.95.2-1.58s.09-1.37.12-2.24 0-1.89 0-3V5.57c0-.83-.07-1.62-.12-2.26s-.12-1.16-.2-1.59a9.86 9.86 0 00-.23-1.06V.53c1.71 0 3.4 0 5.09-.02z" fill="#fff" data-name="レイヤー 1"/></g></svg>