<?xml version="1.0" encoding="utf-8"?>
<!-- Generator: Adobe Illustrator 25.0.1, SVG Export Plug-In . SVG Version: 6.00 Build 0)  -->
<svg version="1.1" id="レイヤー_1" xmlns="http://www.w3.org/2000/svg" xmlns:xlink="http://www.w3.org/1999/xlink" x="0px"
	 y="0px" viewBox="0 0 290.5 36.5" style="enable-background:new 0 0 290.5 36.5;" xml:space="preserve">
<style type="text/css">
	.st0{fill:#FFFFFF;}
</style>
<g>
	<path class="st0" d="M12.4,33.7c-3.5,0-6-1.2-7.6-3.7c-1.6-2.5-2.4-6.3-2.4-11.6c0-5.2,0.8-9.1,2.5-11.6C6.4,4.3,9,3.1,12.4,3.1
		c3.4,0,6,1.2,7.6,3.7c1.6,2.5,2.5,6.3,2.5,11.6c0,5.3-0.8,9.1-2.4,11.6C18.4,32.5,15.9,33.7,12.4,33.7z M12.4,6.1
		c-2.2,0-3.8,0.9-4.8,2.6c-1,1.8-1.5,5-1.5,9.7c0,4.7,0.5,7.9,1.5,9.6c1,1.8,2.6,2.7,4.8,2.7s3.8-0.9,4.8-2.7s1.5-5,1.5-9.7
		c0-4.6-0.5-7.8-1.5-9.6C16.3,7,14.7,6.1,12.4,6.1z"/>
	<path class="st0" d="M27.8,31.9v-3.9h0.3c2.6,1.7,5.4,2.6,8.2,2.6c2.1,0,3.8-0.6,5-1.7c1.3-1.1,1.9-2.7,1.9-4.7
		c0-1.9-0.5-3.3-1.6-4.1s-2.9-1.3-5.3-1.3h-1.7v-3h1.3c2.1,0,3.8-0.4,5-1.3c1.2-0.9,1.8-2.2,1.8-3.8c0-1.4-0.5-2.4-1.6-3.2
		c-1-0.7-2.5-1.1-4.3-1.1c-2.6,0-5.3,0.9-7.9,2.6h-0.2V4.9C31.3,3.7,34,3,36.8,3c3,0,5.4,0.6,7,1.9s2.5,3,2.5,5.1
		c0,1.6-0.6,3-1.7,4.3c-1.1,1.3-2.5,2-4.2,2.4v0.3c4.3,0.8,6.4,3.2,6.4,7.4c0,2.7-1,4.9-2.9,6.6c-2,1.7-4.5,2.6-7.6,2.6
		C33.5,33.7,30.6,33.1,27.8,31.9z"/>
	<path class="st0" d="M64.6,21.9H52.4v-3.3h12.2V21.9z"/>
	<path class="st0" d="M87.4,3.6V7h-0.2c-1.1-0.5-2.4-0.8-3.8-0.8c-2.9,0-5.2,0.9-6.9,2.7c-1.7,1.8-2.7,4.4-3,7.6
		c2.5-1.5,4.9-2.2,7.2-2.2c2.9,0,5.2,0.8,6.9,2.4s2.7,3.9,2.7,6.8c0,2.9-1,5.4-2.9,7.3c-1.9,1.9-4.3,2.9-7.2,2.9
		c-3.3,0-5.9-1.2-7.7-3.5c-1.8-2.3-2.8-5.7-2.8-10c0-5.4,1.2-9.6,3.7-12.6c2.5-3,6-4.5,10.6-4.5C85.3,3.1,86.5,3.3,87.4,3.6z
		 M73.4,19.1c-0.1,1.1-0.1,1.7-0.1,1.9c0,3.1,0.6,5.5,1.8,7.2s2.9,2.5,5,2.5c2,0,3.5-0.6,4.6-1.8c1.1-1.2,1.7-3,1.7-5.2
		c0-1.8-0.5-3.4-1.6-4.6s-2.8-1.8-5.3-1.8C77.5,17.4,75.5,18,73.4,19.1z"/>
	<path class="st0" d="M114.6,33.1H95v-3.8c2.1-1.8,4.4-3.9,7-6.3s4.5-4.5,5.8-6.3c1.3-1.8,1.9-3.6,1.9-5.4c0-1.6-0.5-2.9-1.6-3.8
		c-1.1-0.9-2.5-1.3-4.3-1.3c-2.7,0-5.3,0.8-7.9,2.5h-0.2V4.9C98.3,3.7,101,3,103.8,3c3,0,5.3,0.7,7,2.2c1.7,1.4,2.6,3.4,2.6,5.9
		c0,1.3-0.2,2.6-0.7,3.8c-0.4,1.2-1.1,2.4-2,3.5c-0.9,1.1-2,2.4-3.3,3.7s-4.3,3.9-8.9,7.9h16.1V33.1z"/>
	<path class="st0" d="M137.1,3.6V7h-0.2c-1.1-0.5-2.4-0.8-3.8-0.8c-2.9,0-5.2,0.9-6.9,2.7c-1.7,1.8-2.7,4.4-3,7.6
		c2.5-1.5,4.9-2.2,7.2-2.2c2.9,0,5.2,0.8,6.9,2.4s2.7,3.9,2.7,6.8c0,2.9-1,5.4-2.9,7.3c-1.9,1.9-4.3,2.9-7.2,2.9
		c-3.3,0-5.9-1.2-7.7-3.5c-1.8-2.3-2.8-5.7-2.8-10c0-5.4,1.2-9.6,3.7-12.6c2.5-3,6-4.5,10.6-4.5C135,3.1,136.2,3.3,137.1,3.6z
		 M123.1,19.1c-0.1,1.1-0.1,1.7-0.1,1.9c0,3.1,0.6,5.5,1.8,7.2s2.9,2.5,5,2.5c2,0,3.5-0.6,4.6-1.8c1.1-1.2,1.7-3,1.7-5.2
		c0-1.8-0.5-3.4-1.6-4.6s-2.8-1.8-5.3-1.8C127.2,17.4,125.2,18,123.1,19.1z"/>
	<path class="st0" d="M165,24.6h-4.3v8.5h-3.5v-8.5H143v-4.1l14.3-16.9h3.4v18.1h4.3V24.6z M157.2,21.7V7.9l-11.7,13.8H157.2z"/>
	<path class="st0" d="M181.5,21.9h-12.2v-3.3h12.2V21.9z"/>
	<path class="st0" d="M187.2,31.9v-3.9h0.3c2.6,1.7,5.4,2.6,8.2,2.6c2.1,0,3.8-0.6,5-1.7c1.3-1.1,1.9-2.7,1.9-4.7
		c0-1.9-0.5-3.3-1.6-4.1s-2.9-1.3-5.3-1.3h-1.7v-3h1.3c2.1,0,3.8-0.4,5-1.3c1.2-0.9,1.8-2.2,1.8-3.8c0-1.4-0.5-2.4-1.6-3.2
		c-1-0.7-2.5-1.1-4.3-1.1c-2.6,0-5.3,0.9-7.9,2.6H188V4.9c2.6-1.2,5.4-1.9,8.2-1.9c3,0,5.4,0.6,7,1.9s2.5,3,2.5,5.1
		c0,1.6-0.6,3-1.7,4.3c-1.1,1.3-2.5,2-4.2,2.4v0.3c4.3,0.8,6.4,3.2,6.4,7.4c0,2.7-1,4.9-2.9,6.6c-2,1.7-4.5,2.6-7.6,2.6
		C192.8,33.7,190,33.1,187.2,31.9z"/>
	<path class="st0" d="M221.5,33.7c-3.5,0-6-1.2-7.6-3.7c-1.6-2.5-2.4-6.3-2.4-11.6c0-5.2,0.8-9.1,2.5-11.6c1.6-2.5,4.2-3.7,7.6-3.7
		c3.4,0,6,1.2,7.6,3.7c1.6,2.5,2.5,6.3,2.5,11.6c0,5.3-0.8,9.1-2.4,11.6C227.5,32.5,225,33.7,221.5,33.7z M221.5,6.1
		c-2.2,0-3.8,0.9-4.8,2.6c-1,1.8-1.5,5-1.5,9.7c0,4.7,0.5,7.9,1.5,9.6c1,1.8,2.6,2.7,4.8,2.7s3.8-0.9,4.8-2.7s1.5-5,1.5-9.7
		c0-4.6-0.5-7.8-1.5-9.6C225.4,7,223.7,6.1,221.5,6.1z"/>
	<path class="st0" d="M254.8,33.1h-15.7v-2.7h6.1V10.2h-6.1V7.8c2.4,0,4.1-0.4,5.1-1c1-0.7,1.6-1.7,1.7-3.2h2.8v26.8h6V33.1z"/>
	<path class="st0" d="M281.4,7.7l-13.2,25.4h-3.9l14-26.3h-16.8V3.7h19.9V7.7z"/>
</g>
<text transform="matrix(1 0 0 1 -9.5203 -20.3351)" style="font-family:'Meiryo'; font-size:40px;">03-6264-3018</text>
</svg>
