<?xml version="1.0" encoding="utf-8"?>
<!-- Generator: Adobe Illustrator 25.0.1, SVG Export Plug-In . SVG Version: 6.00 Build 0)  -->
<svg version="1.1" id="レイヤー_1" xmlns="http://www.w3.org/2000/svg" xmlns:xlink="http://www.w3.org/1999/xlink" x="0px"
	 y="0px" viewBox="0 0 20.8 31.1" style="enable-background:new 0 0 20.8 31.1;" xml:space="preserve">
<style type="text/css">
	.st0{fill:none;stroke:#FFFFFF;stroke-width:0.82;stroke-miterlimit:10;}
	.st1{fill:none;stroke:#FFFFFF;stroke-width:0.2;stroke-miterlimit:10;}
	.st2{fill:#FFFFFF;stroke:#FFFFFF;stroke-width:0.2;stroke-miterlimit:10;}
</style>
<g>
	<path class="st0" d="M18.4,30.3H2.7c-1.1,0-2.1-0.9-2.1-2.1V2.4c0-1.1,0.9-2.1,2.1-2.1h15.7c1.1,0,2.1,0.9,2.1,2.1v25.8
		C20.4,29.4,19.5,30.3,18.4,30.3z"/>
	<rect x="3.2" y="3.8" class="st0" width="14.8" height="20.9"/>
	<path class="st1" d="M11.5,2.8H9.7c-0.2,0-0.4-0.2-0.4-0.4V2.2c0-0.2,0.2-0.4,0.4-0.4h1.8c0.2,0,0.4,0.2,0.4,0.4v0.2
		C11.9,2.6,11.7,2.8,11.5,2.8z"/>
	<circle class="st2" cx="10.6" cy="27.4" r="1.1"/>
</g>
</svg>
