<?xml version="1.0" encoding="utf-8"?>
<!-- Generator: Adobe Illustrator 25.0.1, SVG Export Plug-In . SVG Version: 6.00 Build 0)  -->
<svg version="1.1" id="レイヤー_1" xmlns="http://www.w3.org/2000/svg" xmlns:xlink="http://www.w3.org/1999/xlink" x="0px"
	 y="0px" viewBox="0 0 20.8 20.5" style="enable-background:new 0 0 20.8 20.5;" xml:space="preserve">
<style type="text/css">
	.st0{fill:none;stroke:#FFFFFF;stroke-width:0.82;stroke-miterlimit:10;}
	.st1{fill:none;stroke:#FFFFFF;stroke-width:0.2;stroke-miterlimit:10;}
	.st2{fill:#FFFFFF;stroke:#FFFFFF;stroke-width:0.2;stroke-miterlimit:10;}
	.st3{fill:none;stroke:#FFFFFF;stroke-miterlimit:10;}
	.st4{fill:#FFFFFF;}
</style>
<g>
	<path class="st0" d="M93,30.5H77.3c-1.1,0-2.1-0.9-2.1-2.1V2.7c0-1.1,0.9-2.1,2.1-2.1H93c1.1,0,2.1,0.9,2.1,2.1v25.8
		C95,29.6,94.1,30.5,93,30.5z"/>
	<rect x="77.8" y="4.1" class="st0" width="14.8" height="20.9"/>
	<path class="st1" d="M86.1,3.1h-1.8c-0.2,0-0.4-0.2-0.4-0.4V2.5c0-0.2,0.2-0.4,0.4-0.4h1.8c0.2,0,0.4,0.2,0.4,0.4v0.2
		C86.5,2.9,86.3,3.1,86.1,3.1z"/>
	<circle class="st2" cx="85.2" cy="27.6" r="1.1"/>
</g>
<g>
	<g>
		<path class="st3" d="M15.4,13.4c-0.6-0.6-1.5-0.6-2.1,0c-0.5,0.5-1,1-1.5,1.5c-0.1,0.1-0.2,0.2-0.4,0.1c-0.3-0.2-0.7-0.3-1-0.5
			c-1.4-0.9-2.6-2.1-3.7-3.4c-0.5-0.6-1-1.3-1.3-2.1C5.4,8.9,5.4,8.8,5.6,8.6c0.5-0.5,1-1,1.5-1.5C7.7,6.5,7.7,5.7,7,5
			C6.6,4.6,6.2,4.2,5.9,3.9C5.5,3.5,5.1,3.1,4.7,2.7C4,2,3.2,2,2.6,2.7c-0.5,0.5-1,1-1.5,1.5c-0.5,0.4-0.7,1-0.8,1.6
			c-0.1,1,0.2,2,0.5,3c0.7,2,1.8,3.7,3.2,5.3c1.8,2.2,4,3.9,6.5,5.1c1.1,0.6,2.3,1,3.6,1.1c0.9,0,1.7-0.2,2.3-0.9
			c0.4-0.5,0.9-0.9,1.3-1.4c0.7-0.7,0.7-1.5,0-2.1C17,15,16.2,14.2,15.4,13.4L15.4,13.4z"/>
	</g>
	<path class="st4" d="M14.7,10.1l1.5-0.3c-0.2-1.4-0.9-2.7-1.9-3.7c-1.1-1.1-2.4-1.7-3.9-1.9l-0.2,1.5c1.1,0.2,2.2,0.7,3,1.5
		C14,8.1,14.5,9.1,14.7,10.1L14.7,10.1z"/>
	<path class="st4" d="M17,3.5c-1.8-1.8-4-2.9-6.5-3.2l-0.2,1.5c2.1,0.3,4.1,1.3,5.6,2.8c1.4,1.4,2.4,3.3,2.7,5.3l1.5-0.3
		C19.8,7.3,18.7,5.2,17,3.5L17,3.5z"/>
</g>
</svg>
