<?xml version="1.0" encoding="utf-8"?>
<!-- Generator: Adobe Illustrator 25.0.1, SVG Export Plug-In . SVG Version: 6.00 Build 0)  -->
<svg version="1.1" id="レイヤー_1" xmlns="http://www.w3.org/2000/svg" xmlns:xlink="http://www.w3.org/1999/xlink" x="0px"
	 y="0px" viewBox="0 0 540.8 510.8" style="enable-background:new 0 0 540.8 510.8;" xml:space="preserve">
<style type="text/css">
	.st0{fill:none;stroke:#FFFFFF;stroke-miterlimit:10;}
	.st1{fill:#FFFFFF;}
</style>
<g>
	<circle class="st0" cx="270.4" cy="164.4" r="154.3"/>
	<circle class="st0" cx="152.4" cy="358.4" r="152.4"/>
	<circle class="st0" cx="384.7" cy="358.4" r="152.4"/>
</g>
<g>
	<path class="st1" d="M228.1,166l0.7-0.7l1.6,1.1c0.3,0.3-0.1,0.6-1.1,0.7c-0.7,1.8-1.6,3.5-2.9,5.2c1.4,1.2,3.4,2.2,6,2.8
		c-0.8,0.5-1.4,0.9-2,1.5c-1.9-1-3.5-2.1-4.8-3.5c-1.5,1.4-3,2.4-4.4,3c-0.5,0.1-0.5-0.1-0.2-0.4c1.8-1.2,3.1-2.4,4-3.4
		c-1-1.2-1.9-3.1-2.5-5.7h-2v9.7c-0.8,0.8-1.3,0.8-1.3,0.1v-5l-7.6,2.9c0.2,1,0,1.2-0.5,0.6l-1.2-1.5l3.4-1v-8.5h-3v-0.6h19.4
		l1.3-1.3l1.6,1.2c0.4,0.3,0.4,0.6,0,0.7h-12.1v2.1H228.1z M214.7,166h4.6v-2.1h-4.6V166z M214.7,168.7h4.6v-2.1h-4.6V168.7z
		 M214.7,172.1l4.6-1.3v-1.6h-4.6V172.1z M225.6,154.8l0.6-0.8l1.4,1c0.4,0.3,0.3,0.6-0.4,0.7v6.1c-0.8,0.8-1.3,0.8-1.3,0.1v-0.7
		H216v0.9c-0.8,0.8-1.3,0.8-1.3,0.1V154l1.5,0.8H225.6z M216,155.4v2.2h9.9v-2.2H216z M225.9,158.2H216v2.3h9.9V158.2z M228.1,166.5
		h-5.1c0.7,2.1,1.5,3.7,2.5,4.9C226.6,170.1,227.4,168.5,228.1,166.5z"/>
	<path class="st1" d="M246.7,157.3v-3.1l1.7,0.3c0.5,0.3,0.4,0.6-0.4,0.7v2.1h6.5l1.5-1.5l1.9,1.4c0.4,0.3,0.4,0.6,0,0.7H237v-0.6
		H246.7z M239.7,166h15.6l0.6-0.8l1.4,1c0.4,0.3,0.3,0.6-0.4,0.7v7.5c0,0.7-0.2,1.3-0.7,1.7c-0.3,0.3-0.6,0.4-1,0.4
		c-0.3,0-0.4-0.1-0.4-0.4c0-0.3-0.2-0.6-0.6-0.7L253,175c-0.3-0.1-0.3-0.3,0-0.4h2c0.5,0,0.7-0.2,0.7-0.7v-7.4h-16.2v9.4
		c-0.8,0.8-1.3,0.8-1.3,0.1v-11L239.7,166z M243.7,160.1h7.7l0.6-0.8l1.4,1c0.4,0.3,0.3,0.6-0.4,0.7v3.4c-0.8,0.8-1.3,0.8-1.3,0.1
		v-0.8h-8.2v1c-0.8,0.8-1.3,0.8-1.3,0.1v-5.6L243.7,160.1z M250.1,168.4l0.6-0.7l1.3,0.9c0.4,0.3,0.3,0.6-0.4,0.7v4.2
		c-0.8,0.8-1.3,0.8-1.3,0.1v-1.3h-5.9v1.3c-0.8,0.8-1.3,0.8-1.3,0.1v-6l1.5,0.7H250.1z M243.5,160.7v2.4h8.2v-2.4H243.5z M244.4,169
		v2.7h5.9V169H244.4z"/>
	<path class="st1" d="M274.2,159.6c0.5,0.5,0.4,0.7-0.3,0.9c-1.6,4.6-3.2,8-4.8,10.3c-0.4,0.6-0.8,1-1.3,1.4
		c-0.7,0.5-1.2,0.5-1.5-0.2c-0.8-0.3-1.5-0.7-1.9-1.5c-0.5-0.9-0.8-2-0.8-3.2c0-2.6,0.8-4.7,2.4-6.3c2.1-2.1,4.8-3.2,7.8-3.2
		c3.3,0,5.8,0.9,7.6,2.7c1.3,1.3,2,2.9,2,4.9c0,1.8-0.6,3.3-1.9,4.7c-1.8,2-4.4,3.2-7.9,3.8c-0.3-0.1-0.3-0.3,0-0.4
		c2.9-0.7,5.2-2,6.7-3.8c1-1.2,1.6-2.7,1.6-4.4c0-1.8-0.5-3.2-1.4-4.2c-1.8-2.1-4.6-3-8.2-2.6C273.2,158.7,273.7,159.1,274.2,159.6z
		 M272.5,160.2c0.2-0.8,0-1.4-0.5-1.8c-1.7,0.3-3.2,1-4.5,2.3c-1.7,1.7-2.5,3.7-2.5,6c0,2,0.4,3.3,1.1,4c0.3,0.3,0.7,0.5,1,0.5
		c0.3,0,0.6-0.2,1-0.6C269.9,167.8,271.4,164.3,272.5,160.2z"/>
	<path class="st1" d="M299.5,161.6c3.4,3.4,7.2,5.3,11.4,5.9c-0.7,0.3-1.2,0.8-1.6,1.5c-3.6-0.8-7-3.2-10.2-6.9
		c-2.7,3.5-6.3,6.2-10.6,8.2c-0.5,0.1-0.6-0.1-0.3-0.5c4.6-2.5,8-5.7,10.4-9.6l0.9,0.6c1.3-2,2.3-4.1,2.9-6.5l1.7,0.6
		c0.7,0.3,0.5,0.5-0.6,0.8l-1.2,2h5.3l1.3-1.3l1.6,1.2c0.4,0.3,0.4,0.6,0,0.7h-6.6c1.6,1.1,2.4,2.2,2.4,3.3c0,0.7-0.3,1.1-0.8,1.1
		c-0.4,0-0.6-0.3-0.7-0.9c-0.1-1.2-0.6-2.4-1.6-3.5H302c-0.7,1-1.4,2-2.1,2.8C300.3,161.3,300.2,161.5,299.5,161.6z M294.4,158
		c1.2,1.2,1.8,2.2,1.8,3.1c0,0.7-0.3,1.1-0.8,1.1c-0.5,0-0.7-0.3-0.7-1c0-1.2-0.2-2.3-0.7-3.2h-1.3c-1,1.7-2.4,3.4-4.1,5
		c-0.3,0.1-0.4,0-0.3-0.3c2.3-2.8,3.8-5.6,4.5-8.5l1.5,0.6c0.9,0.4,0.8,0.7-0.2,0.9l-1,1.8h3.8l1.3-1.3l1.6,1.2
		c0.4,0.3,0.4,0.6,0,0.7H294.4z M303.7,170l0.6-0.8l1.4,1c0.4,0.3,0.3,0.6-0.4,0.7v4.7c-0.8,0.8-1.3,0.8-1.3,0.1v-0.8h-9v1.2
		c-0.8,0.8-1.3,0.8-1.3,0.1v-6.9l1.5,0.8H303.7z M304,170.6h-9v3.7h9V170.6z M295.2,167.6V167h5.7l1.1-1.1l1.4,1
		c0.4,0.3,0.4,0.6,0,0.7H295.2z"/>
	<path class="st1" d="M318,174.5c-0.2,0.3-0.4,0.4-0.7,0.5c-0.3,0.1-0.5-0.1-0.5-0.5c-0.1-0.8,0.2-1.5,0.8-1.9s1.3-0.9,2.1-1.7
		c3.9-3.6,6.9-6.4,9-8.5c0.5-0.5,0.4-0.7-0.3-0.6c-2,0.3-3.9,0.8-5.7,1.4c-0.6,0.2-1.3,0.6-2.2,1.1c-0.5,0.3-0.9,0.2-1.4-0.3
		c-0.6-0.6-0.8-1.4-0.6-2.4c0.3-0.5,0.4-0.5,0.4,0c0.1,0.5,0.2,0.9,0.4,1.1s0.5,0.3,0.9,0.3c0.5,0,1.1-0.1,1.8-0.3
		c2.2-0.6,4.6-1.1,7-1.5l0.5-0.4c0.2-0.1,0.4-0.1,0.7,0c0.6,0.3,1,0.6,1.2,0.8c0.3,0.4,0.3,0.6-0.2,0.7c-0.5,0.1-0.9,0.2-1.1,0.4
		c-2.2,2-4.4,4-6.6,6.1c0.5-0.1,1-0.2,1.6-0.2c0.8,0,1.4,0.2,1.8,0.6s0.6,1,0.7,1.8c0.1,1.4,0.3,2.2,0.5,2.5c0.3,0.4,1,0.6,2.3,0.6
		c2.1,0,3.5-0.1,4-0.4c0.5-0.3,1-0.1,1.5,0.4c0.5,0.7,0.4,1-0.3,1c-2,0-3.9,0-5.6,0c-1.8,0-2.8-0.5-3.2-1.5
		c-0.1-0.3-0.3-1.3-0.4-2.8c-0.1-1-0.6-1.5-1.7-1.5c-1,0-1.9,0.4-2.6,1.2C319.7,172.6,318.4,173.9,318,174.5z M325.8,157.6
		c-1.6-0.5-2.6-1.5-3.2-3c0-0.2,0.1-0.2,0.3-0.1c0.7,1.1,1.9,1.8,3.7,2.1c0.8,0.1,1.4,0.5,1.7,1.1c0.4,0.8,0.2,1.1-0.7,0.9
		c-1.2-0.3-2.6-0.2-4.4,0.3c-0.3,0.1-0.3,0-0.1-0.3C323.8,158.1,324.8,157.8,325.8,157.6z"/>
</g>
<g>
	<path class="st1" d="M319.8,368.7v-8.1c-0.9,1.6-1.9,2.9-2.9,3.8c-0.3,0.2-0.5,0.1-0.5-0.2c2.7-3.5,4.3-7.6,5-12.2h-3.9v-0.6h6.8
		l1.3-1.3l1.6,1.3h9.3l1.3-1.3l1.6,1.2c0.4,0.3,0.4,0.6,0,0.7h-3.5v7.4h1.5l1.3-1.3l1.6,1.2c0.4,0.3,0.4,0.6,0,0.7h-4.3v10.5
		c-0.8,0.8-1.3,0.8-1.3,0.1V360h-3.3v1.7c0,4.4-2,7.7-6.1,10c-0.5,0.1-0.6,0-0.3-0.4c3.4-2.3,5.1-5.8,5.1-10.3v-1h-3.4v-0.6h3.4V352
		h-7.1c-0.7,2.8-1.3,4.9-1.9,6.3h2.9l0.6-0.8l1.4,1c0.4,0.3,0.3,0.6-0.4,0.7v8.6c-0.8,0.8-1.3,0.8-1.3,0.1v-1.3h-3v2
		C320.2,369.3,319.8,369.4,319.8,368.7z M321.1,366h3v-7.1h-3V366z M331.1,359.4h3.3V352h-3.3V359.4z"/>
	<path class="st1" d="M352.4,354.6c-0.6-1.6-1-2.6-1.3-3c-0.3-0.4-0.8-0.6-1.7-0.6c-0.2,0-0.2-0.1-0.1-0.3c0.9-0.3,1.6-0.4,2.1-0.2
		c0.2,0.1,0.5,0.3,1,0.6c0.4,0.3,0.5,0.6,0.4,1c0.1,0.7,0.3,1.4,0.6,2.3c0.9-0.3,1.6-0.6,2-0.9c0.3-0.3,0.5-0.5,0.7-0.5
		c0.3,0,0.5,0.1,0.7,0.2c0.2,0.1,0.4,0.2,0.6,0.3c0.3,0.2,0.3,0.4-0.1,0.6c-0.5,0.3-1.7,0.6-3.5,1.1c0.5,1.2,0.9,2.2,1.4,3.1
		c1-0.3,2.1-0.6,3-1c0.7-0.3,1.1-0.6,1.4-0.9c0.2-0.3,0.5-0.3,0.9-0.2c0.6,0.3,0.9,0.4,1,0.5c0.3,0.3,0.2,0.5-0.2,0.7
		c-0.8,0.3-1.4,0.6-1.9,0.7c-1.2,0.4-2.5,0.7-3.7,1.1c1.1,2,1.9,3.2,2.2,3.7c0.4,0.5,0.7,0.9,1.1,1.1c0.6,0.3,0.8,0.7,0.8,1.2
		c-0.1,0.7-0.4,0.8-1,0.4c-0.7-0.5-1.5-0.8-2.4-1.1c-1.2-0.3-2.3-0.5-3.5-0.5c-2.5,0-4.1,0.4-4.8,1.3c-0.4,0.5-0.6,0.9-0.6,1.5
		c0,0.7,0.3,1.3,1,2c0.9,0.9,2.3,1.4,4.2,1.5c1.7,0.1,2.7,0,3-0.1c0.5-0.2,0.9-0.3,1.3-0.3c0.4,0,0.7,0.2,1.1,0.6
		c0.3,0.3,0.2,0.5-0.3,0.7c-0.5,0.2-1.6,0.3-3.3,0.3c-1.4,0-2.5-0.1-3.2-0.2c-1.4-0.3-2.4-0.7-3.2-1.5c-1-0.9-1.5-1.9-1.5-2.8
		c0-0.7,0.3-1.4,0.8-2c0.9-1,2.7-1.6,5.3-1.6c1.8,0,3.2,0.1,4.3,0.4c-0.7-1.4-1.4-2.8-2.1-4.2c-1.6,0.4-3.4,0.7-5.4,1
		c-1,0.1-1.8,0.2-2.5,0.2c-0.4,0-0.7-0.1-1.1-0.4c-0.5-0.4-0.8-0.8-1.1-1.4c0-0.3,0.1-0.4,0.4-0.1c0.4,0.5,1,0.8,1.8,0.8
		c1.2,0,2,0,2.5-0.1c1.4-0.2,3.1-0.5,5-0.9c-0.5-0.9-0.9-2-1.5-3.2c-0.7,0.2-1.9,0.4-3.5,0.7c-0.8,0.1-1.4,0.1-1.8-0.2
		c-0.5-0.3-0.8-0.7-1.2-1.2c-0.1-0.5,0.1-0.5,0.4-0.2c0.3,0.5,0.9,0.7,1.9,0.7C349.4,355.2,350.7,355,352.4,354.6z M361.6,352.9
		c0.1,0.5,0,0.8-0.4,1c-0.4,0.1-0.7,0-0.9-0.5c-0.5-1-1.3-2-2.5-2.7c-0.1-0.2-0.1-0.3,0.1-0.2c1.1,0.2,2.1,0.6,2.9,1.3
		C361.2,352.1,361.5,352.5,361.6,352.9z M360.5,349.4c-0.1-0.2-0.1-0.3,0.1-0.2c1.1,0.2,2.1,0.6,2.9,1.3c0.4,0.3,0.7,0.7,0.8,1.2
		c0.1,0.5,0,0.8-0.4,1c-0.4,0.1-0.7,0-0.9-0.5C362.6,351.1,361.8,350.2,360.5,349.4z"/>
	<path class="st1" d="M369.9,359.1c-0.4,0-0.7-0.3-0.8-0.9c-0.5-1-1.1-1.7-2-2.1c-0.3-0.3-0.3-0.4,0.2-0.4c2.1,0.6,3.2,1.5,3.2,2.6
		C370.6,358.8,370.4,359.1,369.9,359.1z M373.9,353.9l-2.9,9.5c-0.2,0.5-0.3,1.3-0.3,2.2c0,0.7,0.1,1.7,0.3,3
		c0.1,0.9,0.2,1.7,0.2,2.2c0,0.7-0.3,1.1-1,1.1c-0.6,0-0.9-0.4-0.9-1.2c0-0.3,0.1-0.9,0.2-1.8c0.1-0.9,0.1-1.8,0-2.6
		c-0.1-0.6-0.4-1-1-1.4l-1.2-0.2v-0.4h2.1l4-10.8C373.8,353.4,374,353.5,373.9,353.9z M371.6,353.5c-0.3,0-0.6-0.2-0.7-0.6
		c-0.5-0.9-1.2-1.6-2.1-2.1c-0.3-0.3-0.3-0.4,0.1-0.4c2.2,0.5,3.3,1.2,3.3,2.2C372.2,353.2,372,353.5,371.6,353.5z M377,356.3
		c-0.3,0.1-0.5-0.2-0.7-0.8c-0.3-0.6-0.8-1.1-1.4-1.7c-0.3-0.3-0.3-0.4,0.2-0.3c1.2,0.5,2,1,2.4,1.6c0.5-1,1-2.1,1.5-3.3h-4.9v-0.6
		h4.9l0.6-0.6l1.2,0.9c0.4,0.3,0.3,0.5-0.4,0.6c-0.7,1.9-1.8,3.8-3.3,5.9h4.5l1.1-1.1l1.4,1c0.4,0.3,0.4,0.6,0,0.7h-7.5
		c-1.3,1.6-2.7,2.8-4.2,3.8c-0.3,0.1-0.4,0-0.3-0.3C374,360.4,375.7,358.5,377,356.3z M383.3,366l1.9,0.7c0.4,0.3,0.1,0.5-0.8,0.6
		l-1.9,2.7h4.8l1.3-1.3l1.6,1.2c0.4,0.3,0.4,0.6,0,0.7h-17.4V370h6.1c-0.3-0.2-0.4-0.6-0.4-1.1c0-0.8-0.2-1.6-0.7-2.1
		c-0.2-0.3-0.1-0.4,0.3-0.2c1.2,0.8,1.8,1.7,1.8,2.6c0,0.5-0.2,0.7-0.5,0.8h2.6L383.3,366z M377.6,360.7h6.3l0.6-0.8l1.4,1
		c0.4,0.3,0.3,0.6-0.4,0.7v3.8c-0.8,0.8-1.3,0.8-1.3,0.1v-0.6h-6.8v1.2c-0.8,0.8-1.3,0.8-1.3,0.1v-6.3L377.6,360.7z M377.4,361.2v3
		h6.8v-3H377.4z M385.3,356.6c1.4,1.6,3,2.8,4.9,3.7c-0.6,0.2-1.1,0.5-1.7,1c-3.3-2.2-5.7-5.7-7.2-10.4l0.5-0.2
		c0.5,1.2,1,2.2,1.6,3.1l2.8-3.2l1.2,0.9c0.5,0.5,0.3,0.7-0.6,0.5l-3.2,2.2c0.5,0.8,1,1.5,1.5,2.1l2.8-2.8l1.1,0.8
		c0.5,0.3,0.3,0.5-0.6,0.5L385.3,356.6z"/>
	<path class="st1" d="M404.5,355.2c1.5-0.1,2.8-0.3,3.8-0.6c0.6-0.1,1-0.3,1.4-0.6c0.3-0.3,0.6-0.3,0.9-0.1c0.4,0.3,0.7,0.5,0.8,0.6
		c0.3,0.3,0.2,0.6-0.3,0.7c-1.9,0.5-4.1,0.8-6.5,1c0,1.4,0,2.9,0,4.3c1.3-0.1,2.3-0.3,3-0.4c0.9-0.1,1.5-0.3,1.8-0.5
		c0.3-0.2,0.6-0.2,0.9,0c0.3,0.2,0.6,0.4,0.8,0.5c0.3,0.2,0.2,0.4-0.2,0.6c-0.2,0.1-0.7,0.2-1.6,0.3c-1.7,0.2-3.3,0.3-4.7,0.4
		c0,1.6,0,3.1,0,4.6c2.5,0.5,4.8,1.2,6.7,2.1c0.6,0.3,0.9,0.7,0.9,1.4c0,0.3-0.1,0.4-0.4,0.5c-0.2,0.1-0.5,0-0.9-0.3
		c-2.1-1.3-4.3-2.2-6.3-2.7c0.1,1.1-0.2,2-0.7,2.5c-0.7,0.8-2,1.2-3.7,1.2c-1.6,0-2.7-0.4-3.5-1.2c-0.4-0.4-0.6-0.8-0.6-1.4
		c0-0.6,0.3-1.1,0.8-1.5c0.8-0.7,2.3-1,4.3-1c0.5,0,1.2,0,2.3,0.1c0-1.4,0-2.9,0-4.3c-1,0.1-2,0.1-3,0.1c-1.1,0-1.9-0.2-2.4-0.5
		c-0.7-0.5-1-1.4-1-2.7c0.1-0.3,0.3-0.3,0.5,0c0,0.9,0.2,1.5,0.5,1.9c0.4,0.4,1.2,0.6,2.4,0.6c1.1,0,2.1-0.1,3-0.2
		c0-1.4,0-2.9,0-4.3c-1.2,0.1-2.7,0.2-4.3,0.2c-1.2,0-2.1-0.1-2.8-0.3c-1-0.3-1.8-0.8-2.4-1.6c-0.2-0.4-0.1-0.5,0.3-0.3
		c0.7,0.6,1.3,1,2.1,1.2c0.5,0.1,1.5,0.2,3.2,0.2c1.3,0,2.6-0.1,4-0.3c0-0.5,0-1.1,0-1.7c0-1.1-0.1-1.8-0.3-2.1
		c-0.3-0.5-0.9-0.7-1.7-0.7c-0.5,0.1-0.5-0.1-0.1-0.4c0.3-0.1,0.7-0.2,1.3-0.2c0.7,0,1.4,0.3,2.3,0.8c0.5,0.3,0.5,0.6,0,1
		c-0.3,0.3-0.5,0.7-0.5,1.5C404.5,354.1,404.5,354.7,404.5,355.2z M400.5,366.3c-1.2,0-2.2,0.2-2.8,0.5c-0.7,0.3-1,0.8-1,1.4
		c0,0.5,0.3,0.9,1,1.3c0.7,0.3,1.4,0.5,2.2,0.5c1.2,0,2.1-0.3,2.7-0.9c0.5-0.5,0.7-1.3,0.7-2.4C401.9,366.4,400.9,366.3,400.5,366.3
		z"/>
	<path class="st1" d="M423.8,356.9c0-1,0-2.1,0.1-3.2c0.1-1.1-0.5-1.7-1.8-1.8c-0.4-0.1-0.4-0.3-0.1-0.4c0.4-0.1,0.7-0.1,1.1-0.1
		c0.8,0,1.6,0.3,2.4,1c0.3,0.2,0.3,0.5,0,0.9c-0.1,0.2-0.3,0.6-0.4,1.2c-0.1,0.6-0.2,1.3-0.2,2.1c0,3,0,6,0,8.9c0,1.2,0.2,2,0.6,2.4
		c0.6,0.7,1.6,1,2.9,1c1.9,0,3.5-0.4,5-1.2c1.6-0.8,3.3-2.1,5.2-3.7c0.3-0.1,0.4-0.1,0.3,0.2c-1.8,2.1-3.5,3.6-5.3,4.6
		c-1.5,0.8-3.3,1.3-5.4,1.3c-1.5,0-2.7-0.5-3.5-1.4c-0.7-0.7-1-1.8-1-3.1C423.8,362.8,423.8,359.9,423.8,356.9z"/>
	<path class="st1" d="M449.9,356.4c-1.4,4.7-2.7,9.3-4.1,13.9c-0.1,0.4-0.4,0.5-0.7,0.3c-0.2-0.1-0.3-0.4-0.4-0.7
		c-0.2-0.7-0.2-1.2,0-1.5c0.4-0.7,0.7-1.4,1.1-2.2c1.1-3.1,2.1-6.3,3.1-9.6c-1.6,0.2-2.7,0.4-3.5,0.5c-0.4,0.2-0.7,0.2-1-0.1
		c-0.2-0.2-0.4-0.5-0.7-0.8c-0.2-0.3-0.3-0.6-0.3-0.9c0.1-0.3,0.2-0.4,0.3-0.2c0.5,0.7,1.1,1,2,1c1.2,0,2.3-0.1,3.4-0.3
		c0.6-1.5,0.9-2.7,1-3.5c0-0.3-0.1-0.6-0.3-0.8c-0.3-0.3-0.7-0.4-1.2-0.5c-0.5,0-0.5-0.1-0.1-0.4c0.3-0.1,0.7-0.1,1.1-0.1
		c0.5,0,1.2,0.3,2.1,1c0.5,0.3,0.5,0.6,0,0.9c-0.3,0.2-0.8,1.3-1.6,3.2c1.3-0.3,2.5-0.7,3.6-1.4c0.2-0.2,0.4-0.3,0.7-0.3
		c0.3,0,0.6,0.2,0.9,0.6c0.3,0.5,0.2,0.7-0.5,0.9C453.4,355.7,451.8,356,449.9,356.4z M456.5,357.3c1.6-0.3,3-0.4,4.2-0.3
		c0.7,0.1,1,0.3,1,0.8c0,0.4-0.3,0.6-0.8,0.6c-2.3,0-4.3,0.7-6.1,2.2c-0.3,0.2-0.4,0.1-0.2-0.2c0.5-0.7,1.4-1.3,2.7-2
		c0.5-0.3,0.5-0.4-0.2-0.4c-1.2,0-2.8,0.4-4.9,1.2c-0.3,0.1-0.4,0-0.2-0.3C453.4,358.2,454.9,357.7,456.5,357.3z M452.6,364.6
		c-0.1,0.5-0.1,0.9-0.1,1.1c0,0.8,0.3,1.5,0.9,2.1c0.7,0.7,1.9,1.1,3.4,1.1c1,0,2,0,2.9,0c1,0,1.7-0.1,2.1-0.3
		c0.5-0.3,0.8-0.3,1.1-0.1c0.5,0.3,0.7,0.6,0.8,0.7c0.3,0.5,0,0.8-0.8,0.8c-1.6,0-3.3,0-4.9,0c-2.5,0-4.1-0.4-5-1.3
		c-0.7-0.7-1-1.5-1-2.5c0-0.6,0.1-1.1,0.2-1.5C452.5,364,452.6,364,452.6,364.6z"/>
	<path class="st1" d="M473.5,354.5h-2.6c-0.3,2.3-1.4,4.2-3.1,5.7c-0.3,0.1-0.5,0-0.4-0.3c1.5-1.8,2.2-3.8,2.2-6.1v-3.5l1.4,0.8
		c1.8-0.3,3.7-0.8,5.6-1.6l1.2,0.9c0.8,0.5,0.4,0.7-1.1,0.5c-1.9,0.3-3.8,0.6-5.8,0.8v2.2h5.3l1.1-1.1l1.4,1c0.4,0.3,0.4,0.6,0,0.7
		h-3.8v3.9c-0.8,0.8-1.3,0.8-1.3,0.1V354.5z M476.3,369.5c-2.2,1.3-4.7,2.2-7.5,2.6c-0.4-0.1-0.5-0.2-0.2-0.4
		c3.2-0.9,5.6-2.1,7.2-3.7l1.4,0.9C477.7,369.4,477.4,369.6,476.3,369.5z M471.6,358.8l1.5,0.8h10.7l0.6-0.8l1.4,1
		c0.4,0.3,0.3,0.6-0.4,0.7v7.6c-0.8,0.8-1.3,0.8-1.3,0.1v-0.6h-11.2v1.2c-0.8,0.8-1.3,0.8-1.3,0.1V358.8z M484.1,360.2h-11.2v2h11.2
		V360.2z M484.1,362.7h-11.2v1.9h11.2V362.7z M484.1,365.1h-11.2v1.9h11.2V365.1z M484,354.5h-3.1c-0.4,2.1-1.5,3.7-3.3,4.7
		c-0.3,0.1-0.4,0-0.3-0.3c1.6-1.2,2.4-3,2.4-5.5v-3l1.5,0.8c2.5-0.6,4.4-1.1,5.8-1.7l1.2,1c0.7,0.5,0.2,0.7-1.5,0.5
		c-2,0.3-3.8,0.6-5.7,0.8v2.1h6.2l1.3-1.3l1.6,1.2c0.4,0.3,0.4,0.6,0,0.7h-4.7v3.4c-0.8,0.8-1.3,0.8-1.3,0.1V354.5z M488.4,371.4
		c0,0.5-0.2,0.7-0.7,0.7c-0.1,0-0.3-0.1-0.6-0.2c-0.4-0.3-0.8-0.6-1.4-0.9c-1.4-0.8-3.2-1.5-5.4-2.1c-0.3-0.2-0.2-0.3,0.1-0.4
		c1.2,0,2.9,0.3,5.1,0.9c0.9,0.3,1.7,0.6,2.2,1C488.2,370.7,488.4,371,488.4,371.4z"/>
</g>
<g>
	<path class="st1" d="M82.1,368.5c-2.7,1.8-5.4,2.9-8,3.4c-0.3,0-0.4-0.1-0.2-0.4c3.5-1.2,6.1-2.7,7.7-4.4l1.5,1.1
		C83.3,368.5,82.9,368.6,82.1,368.5z M85.1,354.4h7.4l1.5-1.5l1.9,1.4c0.4,0.3,0.4,0.6,0,0.7h-22v-0.6h10v-2.9h-7.3v-0.6h13.4
		l1.3-1.3l1.6,1.2c0.4,0.3,0.4,0.6,0,0.7h-7.6V354.4z M89.9,357l0.6-0.8l1.4,1c0.4,0.3,0.3,0.6-0.4,0.7v8.8
		c-0.8,0.8-1.3,0.8-1.3,0.1v-0.2H79.3v0.7c-0.8,0.8-1.3,0.8-1.3,0.1v-11.1l1.5,0.8H89.9z M90.2,360v-2.3H79.3v2.3H90.2z M90.2,362.7
		v-2.1H79.3v2.1H90.2z M90.2,366v-2.7H79.3v2.7H90.2z M92.9,369.5c0.8,0.5,1.2,1,1.2,1.6c0,0.5-0.2,0.7-0.5,0.7
		c-0.3,0-0.8-0.3-1.4-0.9c-1.6-1.4-3.3-2.5-5.2-3.2c-0.3-0.2-0.3-0.3,0.1-0.4C89.4,367.8,91.4,368.6,92.9,369.5z"/>
	<path class="st1" d="M114.4,357.8h-3.9v11.3c0,0.5-0.1,0.9-0.4,1.2c-0.2,0.2-0.5,0.4-1,0.5c-0.4,0.1-0.6,0-0.6-0.4
		c0-0.2-0.1-0.4-0.4-0.5l-1.2-0.3c-0.1-0.1-0.1-0.2,0-0.3h1.6c0.5,0,0.7-0.2,0.7-0.7v-11.4h-8v13.9c-0.8,0.8-1.3,0.8-1.3,0.1v-15.3
		l1.5,0.8h2.8v-3.2h-5.2v-0.6h5.2v-3.3l1.7,0.3c0.5,0.3,0.4,0.6-0.4,0.7v2.3h3.6l1.3-1.3l1.6,1.2c0.4,0.3,0.4,0.6,0,0.7h-6.4v3.2
		h3.4l0.6-0.8l1.4,1c0.3,0.1,0.3,0.3,0.1,0.4h3.4v-7.6l1.7,0.3c0.5,0.3,0.4,0.6-0.4,0.7v6.6h3.1l1.3-1.3l1.6,1.2
		c0.4,0.3,0.4,0.6,0,0.7h-5.9c1,5.6,3.1,9.6,6.3,12.1c-0.7,0.3-1.2,0.7-1.5,1.2c-2.7-2.8-4.5-6.6-5.2-11.4
		c-0.1,5.5-1.9,9.4-5.3,11.7c-0.3,0.1-0.5,0-0.4-0.3C112.8,368.6,114.3,364.2,114.4,357.8z M105.7,365v5.5c-0.8,0.8-1.3,0.8-1.3,0.1
		V365h-2.2v-0.6h2.2v-2.1h-2.5v-0.6h3.6l1.3-3.9l1.2,0.6c0.6,0.3,0.4,0.6-0.5,0.7l-1.6,2.6h0.7l1-1l1.4,1.1c0.2,0.3,0.1,0.4-0.2,0.5
		h-3v2.1h0.8l1-1l1.4,1.1c0.2,0.3,0.1,0.4-0.2,0.5H105.7z M104.2,360.3c0,0.5-0.2,0.7-0.6,0.7c-0.3,0-0.5-0.3-0.6-0.9
		c-0.1-0.8-0.2-1.4-0.5-2c-0.1-0.3-0.1-0.4,0.2-0.3C103.7,358.6,104.2,359.4,104.2,360.3z M116.6,352.7c-0.3-0.3-0.2-0.4,0.2-0.3
		c2,0.5,2.9,1.2,2.9,2.2c0,0.5-0.2,0.7-0.7,0.7c-0.2,0-0.4-0.2-0.6-0.7C118.1,353.9,117.5,353.3,116.6,352.7z"/>
	<path class="st1" d="M142.4,352.4c0.4-0.3,0.8-0.3,1.3,0c0.7,0.5,1.1,0.8,1.2,0.9c0.3,0.3,0.3,0.6-0.2,0.7c-4-0.1-6.9,0.7-8.7,2.4
		c-1.7,1.7-2.5,3.4-2.5,5.1c0,2,0.7,3.6,2,4.9c1.4,1.4,2.9,2.1,4.7,2.1c0.7,0,1.1,0.1,1.3,0.4c0.3,0.3,0.4,0.6,0.4,0.9
		c0,0.3-0.3,0.5-0.8,0.5c-1.8,0-3.6-0.7-5.3-2.1c-2-1.6-3-3.8-3-6.4c0-2.5,1.3-4.7,3.8-6.7c0.3-0.3,0.3-0.4,0-0.4
		c-2,0.4-3.9,0.8-5.8,1.2c-0.8,0.1-1.6,0.4-2.3,0.8c-0.6,0.3-1,0.4-1.2,0.3c-0.3-0.1-0.7-0.2-1-0.5c-0.7-0.5-1.1-1.1-1.2-1.7
		c0.1-0.5,0.3-0.5,0.4-0.1c0.3,0.6,1,0.8,2.1,0.8c0.5,0,1.4-0.1,2.6-0.4c3.4-0.6,6.8-1.2,10.2-1.9
		C141.3,352.9,142,352.7,142.4,352.4z M143.2,360.7c-0.4,0.1-0.7,0-0.9-0.5c-0.5-1-1.3-2-2.5-2.7c-0.1-0.2-0.1-0.3,0.1-0.2
		c1.1,0.2,2.1,0.6,2.9,1.3c0.4,0.3,0.7,0.7,0.8,1.2C143.7,360.2,143.6,360.5,143.2,360.7z M142.3,355.9c-0.1-0.2-0.1-0.3,0.1-0.2
		c1.1,0.2,2.1,0.6,2.9,1.3c0.4,0.3,0.7,0.7,0.8,1.2c0.1,0.5,0,0.8-0.4,1c-0.4,0.1-0.7,0-0.9-0.5
		C144.4,357.6,143.6,356.7,142.3,355.9z"/>
	<path class="st1" d="M159,354.6c-0.6-1.6-1-2.6-1.3-3c-0.3-0.4-0.8-0.6-1.7-0.6c-0.2,0-0.2-0.1-0.1-0.3c0.9-0.3,1.6-0.4,2.1-0.2
		c0.2,0.1,0.5,0.3,1,0.6c0.4,0.3,0.5,0.6,0.4,1c0.1,0.7,0.3,1.4,0.6,2.3c0.9-0.3,1.6-0.6,2-0.9c0.3-0.3,0.5-0.5,0.7-0.5
		c0.3,0,0.5,0.1,0.7,0.2c0.2,0.1,0.4,0.2,0.6,0.3c0.3,0.2,0.3,0.4-0.1,0.6c-0.5,0.3-1.7,0.6-3.5,1.1c0.5,1.2,0.9,2.2,1.4,3.1
		c1-0.3,2.1-0.6,3-1c0.7-0.3,1.1-0.6,1.4-0.9c0.2-0.3,0.5-0.3,0.9-0.2c0.6,0.3,0.9,0.4,1,0.5c0.3,0.3,0.2,0.5-0.2,0.7
		c-0.8,0.3-1.4,0.6-1.9,0.7c-1.2,0.4-2.5,0.7-3.7,1.1c1.1,2,1.9,3.2,2.2,3.7c0.4,0.5,0.7,0.9,1.1,1.1c0.6,0.3,0.8,0.7,0.8,1.2
		c-0.1,0.7-0.4,0.8-1,0.4c-0.7-0.5-1.5-0.8-2.4-1.1c-1.2-0.3-2.3-0.5-3.5-0.5c-2.5,0-4.1,0.4-4.8,1.3c-0.4,0.5-0.6,0.9-0.6,1.5
		c0,0.7,0.3,1.3,1,2c0.9,0.9,2.3,1.4,4.2,1.5c1.7,0.1,2.7,0,3-0.1c0.5-0.2,0.9-0.3,1.3-0.3c0.4,0,0.7,0.2,1.1,0.6
		c0.3,0.3,0.2,0.5-0.3,0.7c-0.5,0.2-1.6,0.3-3.3,0.3c-1.4,0-2.5-0.1-3.2-0.2c-1.4-0.3-2.4-0.7-3.2-1.5c-1-0.9-1.5-1.9-1.5-2.8
		c0-0.7,0.3-1.4,0.8-2c0.9-1,2.7-1.6,5.3-1.6c1.8,0,3.2,0.1,4.3,0.4c-0.7-1.4-1.4-2.8-2.1-4.2c-1.6,0.4-3.4,0.7-5.4,1
		c-1,0.1-1.8,0.2-2.5,0.2c-0.4,0-0.7-0.1-1.1-0.4c-0.5-0.4-0.8-0.8-1.1-1.4c0-0.3,0.1-0.4,0.4-0.1c0.4,0.5,1,0.8,1.8,0.8
		c1.2,0,2,0,2.5-0.1c1.4-0.2,3.1-0.5,5-0.9c-0.5-0.9-0.9-2-1.5-3.2c-0.7,0.2-1.9,0.4-3.5,0.7c-0.8,0.1-1.4,0.1-1.8-0.2
		c-0.5-0.3-0.8-0.7-1.2-1.2c-0.1-0.5,0.1-0.5,0.4-0.2c0.3,0.5,0.9,0.7,1.9,0.7C156,355.2,157.3,355,159,354.6z"/>
	<path class="st1" d="M177.5,363.2c0.5-0.4,3.5-3.7,9.2-10c0.2-0.1,0.1-0.2-0.2-0.3c-1.6,0.3-3.1,0.7-4.7,1.2
		c-0.5,0.3-0.8,0.4-1.1,0.4c-0.1,0-0.5-0.2-1-0.6c-0.7-0.5-1-1.1-1.1-1.8c0-0.3,0.1-0.4,0.4-0.1c0.4,0.6,1,0.9,2,0.9
		c0.8,0,1.4,0,1.6-0.1c1.3-0.2,2.6-0.4,3.8-0.7c0.7-0.1,1.1-0.3,1.5-0.6c0.1-0.2,0.3-0.3,0.5-0.3c0.3,0,0.7,0.2,1.1,0.5
		c0.3,0.3,0.5,0.5,0.5,0.7c0,0.1-0.3,0.3-0.9,0.5c-0.7,0.3-3,2.5-6.7,6.4c-0.2,0.3-0.1,0.4,0.3,0.2c1.4-0.5,2.8-0.8,4.2-0.8
		c2.1,0,3.9,0.7,5.2,2c0.9,0.9,1.4,2.1,1.4,3.6c0,1.8-0.5,3.2-1.6,4.2c-1.6,1.6-3.8,2.3-6.6,2.3c-1.8,0-3.1-0.4-3.8-1.1
		c-0.6-0.6-0.9-1.2-0.9-1.8c0-0.5,0.2-1,0.6-1.4c0.5-0.5,1.1-0.7,2.1-0.7c1.1,0,2.1,0.5,3,1.4c0.6,0.6,1,1.4,1.2,2.4
		c1.2-0.3,2.3-0.8,3.2-1.8c1-1,1.5-2.1,1.5-3.5c0-1.5-0.5-2.7-1.4-3.6c-1-1-2.5-1.6-4.4-1.6c-2.1,0-4.2,1.1-6.3,3.2
		c-0.8,0.8-1.5,1.7-2.1,2.5c-0.1,0.3-0.4,0.4-0.7,0.4c-0.3,0-0.4-0.3-0.4-0.9C176.7,364.1,177,363.7,177.5,363.2z M184.7,367.5
		c-0.5-0.5-1.1-0.8-1.9-0.8c-1.2,0-1.8,0.5-1.8,1.4c0,0.4,0.2,0.8,0.6,1.2c0.6,0.6,1.9,0.9,4,0.9C185.6,369,185.3,368.1,184.7,367.5
		z"/>
	<path class="st1" d="M218.1,356.2h-7.8c-0.7,7.4-4.4,12.4-11.1,15.1c-0.6,0.1-0.7,0-0.2-0.3c5.9-3.3,9.2-8.2,10-14.8h-8v-0.6h8
		c0.1-1,0.2-1.8,0.2-2.3V350l1.8,0.2c1.3,0.4,1.2,0.7-0.3,1.1v1.9c0,0.7-0.1,1.5-0.2,2.4h7.3l0.6-0.8l1.4,1c0.5,0.3,0.3,0.6-0.4,0.7
		c-0.1,6.3-0.7,10.5-1.6,12.5c-0.4,0.8-1.1,1.5-2.1,2c-0.7,0.3-1.3,0.5-1.7,0.5s-0.6-0.2-0.6-0.6s-0.3-0.7-0.8-1l-1.1-0.5
		c-0.3-0.3-0.2-0.4,0.3-0.3l1.8,0.5c0.5,0.1,0.8,0.2,1.1,0.2c0.3,0,0.7-0.2,1.2-0.5c0.7-0.5,1.2-1.9,1.6-4.2
		C217.9,362.3,218.1,359.4,218.1,356.2z"/>
</g>
</svg>
