<?xml version="1.0" encoding="utf-8"?>
<!-- Generator: Adobe Illustrator 25.0.1, SVG Export Plug-In . SVG Version: 6.00 Build 0)  -->
<svg version="1.1" id="レイヤー_1" xmlns="http://www.w3.org/2000/svg" xmlns:xlink="http://www.w3.org/1999/xlink" x="0px"
	 y="0px" viewBox="0 0 740.4 75.6" style="enable-background:new 0 0 740.4 75.6;" xml:space="preserve">
<style type="text/css">
	.st0{fill:#FFFFFF;}
</style>
<g>
	<g>
		<g>
			<path class="st0" d="M14.2,22.4c0,1.8-0.6,3.2-1.9,4.2s-3.2,1.6-5.6,1.6c-1.9,0-3.6-0.4-4.9-1.3c-1.3-0.8-1.9-1.8-1.9-3
				c0-0.6,0.2-1.2,0.5-1.6c0.4-0.3,0.8-0.5,1.3-0.5c0.6,0,1,0.2,1.2,0.5c0.2,0.4,0.4,0.8,0.4,1.1c0,0.2,0,0.4-0.1,0.6
				c-0.2,0.1-0.4,0.3-0.5,0.4c-0.1,0.1-0.2,0.2-0.2,0.4c-0.1,0.2-0.1,0.3-0.1,0.5c0,0.3,0.4,0.7,1.1,1.2c0.7,0.6,1.7,0.8,3,0.8
				c1.7,0,3-0.5,4-1.4c1-0.9,1.4-2.1,1.4-3.7c0-1.6-0.5-2.8-1.6-3.6c-1-0.8-2.2-1.2-3.8-1.2H3.9v-0.7h2.6c1.1,0,2.2-0.3,3.1-1
				c1-0.6,1.4-1.8,1.4-3.5c0-1.3-0.4-2.3-1.2-3.1C9.2,8.3,8.1,7.9,6.6,7.9c-1.1,0-2,0.2-2.8,0.6c-0.9,0.5-1.1,1-0.7,1.6
				c0.2,0.4,0.4,0.7,0.4,0.8c0.1,0.2,0.1,0.5,0.1,0.7c0,0.4-0.2,0.7-0.5,1c-0.2,0.2-0.6,0.4-1,0.4c-0.5,0-0.9-0.1-1.2-0.4
				c-0.3-0.2-0.5-0.7-0.5-1.3c0-1.1,0.5-2.1,1.6-2.9c1-0.8,2.6-1.2,4.8-1.2s3.9,0.5,4.9,1.4c1.1,1,1.7,2.2,1.7,3.6
				c0,1.5-0.4,2.6-1.3,3.4c-1,0.8-2,1.3-3.2,1.4v0.1c1.8,0.2,3.1,0.8,4,1.7C13.7,19.7,14.2,20.9,14.2,22.4z"/>
			<path class="st0" d="M36.4,26.2c5.5-0.8,9.2-2.2,10.9-4.3c1-1.1,1.4-2.5,1.4-4.1c0-1.9-0.8-3.4-2.3-4.6c-1.5-1.1-3.3-1.7-5.4-1.7
				c-3.2,0-6.7,1.5-10.6,4.4c-0.7,0.6-1.4,1.1-2,1.7c-0.4,0.4-0.9,0.5-1.6,0.2c-0.6-0.2-1.2-0.5-1.7-0.8c-0.6-0.4-1-0.9-1.2-1.6
				c0-0.4,0.2-0.4,0.5-0.1c0.4,0.6,1,0.8,1.7,0.8c0.8,0,1.4-0.1,1.8-0.4c0.7-0.4,1.6-1,2.6-1.7c3.5-2.4,7-3.6,10.4-3.6
				c3,0,5.4,0.8,7.2,2.5c1.4,1.3,2.2,3,2.2,5.2c0,1.6-0.6,3.1-1.8,4.6c-1.9,2.3-6,3.6-12.2,3.8C35.9,26.5,35.9,26.4,36.4,26.2z"/>
			<path class="st0" d="M69,10.3c0.6,0.6,0.4,0.9-0.4,1.1c-2,5.7-4,9.9-5.9,12.6c-0.5,0.7-1,1.3-1.6,1.7c-0.9,0.6-1.5,0.6-1.8-0.2
				c-1-0.3-1.8-0.9-2.3-1.8c-0.6-1.1-1-2.4-1-4c0-3.2,1-5.8,3-7.8c2.6-2.6,5.8-4,9.6-4c4,0,7.1,1.1,9.4,3.4c1.6,1.6,2.4,3.6,2.4,6
				c0,2.2-0.8,4.1-2.3,5.8c-2.2,2.4-5.4,4-9.7,4.7c-0.3-0.2-0.3-0.3,0-0.5c3.6-0.9,6.4-2.4,8.3-4.7c1.3-1.5,1.9-3.3,1.9-5.4
				c0-2.2-0.6-3.9-1.7-5.2c-2.1-2.6-5.4-3.7-9.9-3.3C67.7,9.1,68.4,9.6,69,10.3z M66.9,11c0.2-1,0-1.7-0.6-2.2
				c-2.1,0.3-3.9,1.3-5.5,2.9c-2.1,2.1-3.1,4.5-3.1,7.3c0,2.4,0.4,4,1.3,4.9c0.4,0.4,0.8,0.6,1.2,0.6c0.3,0,0.7-0.2,1.2-0.7
				C63.7,20.3,65.5,16,66.9,11z"/>
			<path class="st0" d="M88.7,28.4c1.5,0.2,2.5-0.5,3-1.9c0.5-1.4,0.8-4.2,1-8.4h-5l-0.1,1.7c-1,0.9-1.6,1-1.7,0.4l1-9.1l1.3,0.7
				h4.3V6.4H86V5.7h6.1l0.8-1.1l1.9,1.3c0.6,0.5,0.4,0.8-0.8,1v6.8c-1,1-1.6,1-1.6,0.1v-1.4h-4.3l-0.5,4.9h4.8l0.7-1l1.8,1.3
				c0.6,0.3,0.3,0.6-1,1c-0.2,6.2-0.9,9.7-2.3,10.7c-0.5,0.4-1.1,0.7-1.8,1c-1,0.4-1.6,0.3-1.6-0.2s-0.2-0.8-0.6-1l-1.7-0.8
				c-0.3-0.3-0.3-0.5,0.1-0.5L88.7,28.4z M102.7,11.2l-5.3,0.6c-0.4,1.4-0.8,1.6-1.2,0.7l-0.8-2h3.8l3.1-7l2.4,1.1
				c0.4,0.5,0,0.7-1.2,0.6l-3.6,5.3l8.9-0.6c-0.6-0.8-1.3-1.6-2.3-2.4c-0.2-0.3-0.2-0.4,0.2-0.4c3.3,1.8,4.9,3.4,4.9,4.8
				c0,0.6-0.2,1-0.7,1s-0.9-0.4-1.2-1.1c-0.2-0.4-0.4-0.8-0.6-1.3l-5.9,0.7l2,0.6c0.4,0.4,0,0.7-1.1,0.8V15h4.6l0.7-0.8l1.6,1.1
				c0.5,0.4,0.3,0.7-0.5,0.8V22c-1,1-1.6,1-1.6,0.1v-1h-4.8v5.8l5.3-0.7c-0.6-1.1-1.5-2.1-2.5-2.9c-0.4-0.3-0.3-0.4,0.2-0.4
				c1.4,0.6,2.5,1.3,3.4,2.2c1.4,1.4,2,2.6,2,3.6c0,0.7-0.3,1.1-0.8,1.1c-0.4,0-0.7-0.3-1-1s-0.5-1.3-0.8-1.9l-12.4,2.2
				c-0.2,1.1-0.5,1.4-1,1l-1.2-2.3l7.2-0.7v-5.9h-4.1v1.4c-1,1-1.6,1-1.6,0.1v-8.6l1.8,1h3.8v-3.9H102.7z M102.7,20.5v-4.7h-4.1v4.7
				H102.7z M104.3,15.8v4.7h4.8v-4.7C109.1,15.8,104.3,15.8,104.3,15.8z"/>
			<path class="st0" d="M141.7,23.3c-1.2-0.6-3-1.4-5.4-2.4c-1.9,4.9-4.5,8.1-7.8,9.7c-0.4,0.2-0.5,0.1-0.4-0.2
				c3-2.3,5.3-5.6,6.8-10c-3.3-1.1-6.5-1.7-9.6-1.8c-1.3,2.8-2.4,4.7-3.5,5.8c-0.9,0.9-1.8,1.3-2.9,1.3c-0.8,0-1.4-0.2-1.8-0.6
				c-0.5-0.5-0.7-1.1-0.7-1.9c0-0.7,0.3-1.4,1-2.2c1.5-1.7,3.8-2.7,7-3.1c1.2-2.7,2.5-6.1,4-10.1c0.2-0.4,0-0.6-0.4-0.6
				c-1.4,0.5-2.7,0.9-4,1.3c-0.9,0.2-1.5,0.5-1.8,0.8c-0.5,0.4-0.9,0.4-1.3-0.1c-1-1.1-1.4-2-1.4-2.6c-0.1-0.4,0-0.5,0.4-0.2
				c0.5,1,1.1,1.4,1.8,1.4c0.4,0,0.9-0.1,1.6-0.2c1.8-0.4,3.7-0.8,5.5-1.3l0.5-0.6c0.9,0.2,1.5,0.6,1.9,1s0.2,0.7-0.5,1
				c-0.4,0.2-0.8,0.7-1.2,1.6c-1.2,3-2.4,5.8-3.7,8.6c3.5,0.1,6.7,0.6,9.6,1.4c0.2-0.5,0.5-1.4,0.8-2.6c0.1-0.3,0.2-1,0.2-1.9
				c0.1-1-0.4-1.6-1.3-1.9c-0.5-0.2-0.5-0.3,0-0.5c1.3,0,2.5,0.5,3.7,1.6c0.6,0.5,0.6,0.8,0,1.1c-0.5,0.2-0.8,0.7-1.1,1.6
				c-0.4,1.4-0.8,2.4-1.1,3.1c3.5,1.1,5.5,1.8,6,2.2c0.4,0.2,0.6,0.6,0.6,1.2c0,0.5-0.2,0.7-0.6,0.7
				C142.4,23.7,142.1,23.6,141.7,23.3z M118.6,21.3c-0.6,0.6-1,1.4-1,2.2c0,1,0.5,1.6,1.4,1.6c0.7,0,1.4-0.4,2.2-1.1
				c0.6-0.6,1.6-2.4,2.9-5.2C121.5,19.3,119.7,20.2,118.6,21.3z"/>
			<path class="st0" d="M156.4,12.8c-1.8,4.2-3.7,8.5-5.6,12.7c-0.2,0.4-0.6,1.2-1.1,2.4c-0.2,0.6-0.5,1-0.8,1
				c-0.2,0-0.4-0.2-0.6-0.6c-0.1-0.2-0.1-0.5-0.1-1c0-0.7,0.2-1.3,0.7-1.8s1-1.4,1.7-2.6c1.8-3.4,3.3-6.7,4.7-9.8
				c-2.4,0.5-3.9,0.9-4.6,1.2c-0.5,0.2-0.9,0.2-1.3-0.1c-0.8-0.6-1.2-1.4-1.2-2.5c0.1-0.2,0.2-0.2,0.4,0c0.4,0.9,1,1.3,1.9,1.3
				c0.6,0,2.3-0.2,5.2-0.7c0.4-0.9,0.8-1.8,1.2-2.8c0.4-1.1,0.4-2-0.1-2.5c-0.4-0.5-1-0.8-1.9-0.8c-0.3-0.2-0.3-0.3,0-0.5
				c0.8,0,1.4,0,1.7,0.1c0.9,0.2,1.6,0.7,2.3,1.3c0.7,0.7,0.7,1.2-0.1,1.3c-0.6,1.3-1.2,2.5-1.8,3.7c1.1-0.2,1.9-0.2,2.3-0.2
				c1,0,1.8,0.3,2.3,0.8c0.7,0.9,1.1,2.4,1.1,4.4c0,6.2-1.5,10-4.4,11.5c-0.8,0.4-1.2,0.2-1.2-0.5c0-0.6-0.2-1-0.5-1.2
				c-0.7-0.6-1.5-1.2-2.4-1.8c-0.2-0.3-0.1-0.4,0.2-0.4c0.9,0.5,1.8,1,2.8,1.4c0.8,0.4,1.5,0.2,2.2-0.7c0.7-1,1.2-2.3,1.6-3.8
				c0.4-1.9,0.6-3.7,0.6-5.3c0-1.4-0.1-2.4-0.4-2.9c-0.3-0.6-0.9-1-1.8-1C158.1,12.5,157.2,12.6,156.4,12.8z M166.9,11.5
				c1.4,0.6,2.8,1.4,4.3,2.6c2,1.6,3.1,3.6,3.4,5.9c0.1,0.8,0,1.4-0.4,1.8c-0.5,0.6-1,0.6-1.4-0.1c-0.5-0.8-1.1-1.2-1.8-1.1
				c-1.1,0.1-2.3,0.2-3.5,0.2c-0.5-0.1-0.5-0.2-0.1-0.5c1.3-0.2,2.6-0.4,4.1-0.6c0.6-0.1,0.8-0.3,0.7-0.7c-0.2-1.3-0.8-2.6-1.8-4
				c-1-1.3-2.2-2.4-3.7-3.2C166.3,11.5,166.4,11.4,166.9,11.5z"/>
			<path class="st0" d="M193.9,16.6c2.7,0,4.8,0.7,6.1,2c1,1,1.6,2.3,1.6,3.7c0,1.6-0.6,3-1.7,4.1c-2.3,2.2-6.7,3.3-13.2,3.2
				c-0.5-0.2-0.5-0.5,0-0.7c5.8-0.2,9.8-1.3,11.9-3.4c0.9-0.9,1.3-2,1.3-3.5c0-1.3-0.3-2.2-1-2.9c-1.3-1.3-2.9-1.9-4.8-1.9
				c-2.7,0-5,1-7,2.9c-1.2,1.2-1.9,2.4-2.2,3.5c-0.2,0.7-0.5,0.9-1.1,0.6c-0.9-0.5-1.3-1.5-1.2-3c0.1-2,0.3-3.8,0.6-5.4
				c0.2-0.9,0.2-1.8,0.2-2.6c0-0.6-0.1-1-0.4-1.4c-0.2-0.4-0.2-0.8,0.1-1.3c0.6-1,1.7-1.6,3.2-1.9c0.7-0.2,1.7-0.2,2.9-0.2
				c0.2,0,0.2-0.1,0.1-0.2c-0.1-0.2-0.4-0.4-0.8-0.5c-1.8-0.3-3.1-1.4-4-3.2c0.1-0.2,0.2-0.3,0.4-0.1c1,1.2,2.6,2,5,2.5
				c1.5,0.3,2.4,1.1,2.5,2.4c0.1,0.7-0.2,0.9-1,0.6c-1-0.5-1.9-0.7-2.6-0.7c-2.2,0-3.8,0.4-4.7,1.3c-0.6,0.6-0.6,1.1,0,1.7
				c0.5,0.5,0.6,1.1,0.4,1.9c-0.5,1.6-0.7,4-0.6,7.1c0,0.5,0.2,0.5,0.5,0C187.5,18.1,190.6,16.6,193.9,16.6z"/>
			<path class="st0" d="M251.4,26.2c5.5-0.8,9.2-2.2,10.9-4.3c1-1.1,1.4-2.5,1.4-4.1c0-1.9-0.8-3.4-2.3-4.6
				c-1.5-1.1-3.3-1.7-5.4-1.7c-3.2,0-6.7,1.5-10.6,4.4c-0.7,0.6-1.4,1.1-2,1.7c-0.4,0.4-0.9,0.5-1.6,0.2c-0.6-0.2-1.2-0.5-1.7-0.8
				c-0.6-0.4-1-0.9-1.2-1.6c0-0.4,0.2-0.4,0.5-0.1c0.4,0.6,1,0.8,1.7,0.8c0.8,0,1.4-0.1,1.8-0.4c0.7-0.4,1.6-1,2.6-1.7
				c3.5-2.4,7-3.6,10.4-3.6c3,0,5.4,0.8,7.2,2.5c1.4,1.3,2.2,3,2.2,5.2c0,1.6-0.6,3.1-1.8,4.6c-1.9,2.3-6,3.6-12.2,3.8
				C250.9,26.5,250.9,26.4,251.4,26.2z"/>
			<path class="st0" d="M284,10.3c0.6,0.6,0.4,0.9-0.4,1.1c-2,5.7-4,9.9-5.9,12.6c-0.5,0.7-1,1.3-1.6,1.7c-0.9,0.6-1.5,0.6-1.8-0.2
				c-1-0.3-1.8-0.9-2.3-1.8c-0.6-1.1-1-2.4-1-4c0-3.2,1-5.8,3-7.8c2.6-2.6,5.8-4,9.6-4c4,0,7.1,1.1,9.4,3.4c1.6,1.6,2.4,3.6,2.4,6
				c0,2.2-0.8,4.1-2.3,5.8c-2.2,2.4-5.4,4-9.7,4.7c-0.3-0.2-0.3-0.3,0-0.5c3.6-0.9,6.4-2.4,8.3-4.7c1.3-1.5,1.9-3.3,1.9-5.4
				c0-2.2-0.6-3.9-1.7-5.2c-2.2-2.6-5.6-3.6-10.1-3.2C282.7,9.1,283.4,9.6,284,10.3z M281.9,11c0.2-1,0-1.7-0.6-2.2
				c-2.1,0.3-3.9,1.3-5.5,2.9c-2.1,2.1-3.1,4.5-3.1,7.3c0,2.4,0.4,4,1.3,4.9c0.4,0.4,0.8,0.6,1.2,0.6c0.3,0,0.7-0.2,1.2-0.7
				C278.7,20.3,280.5,16,281.9,11z"/>
			<path class="st0" d="M308.5,16.6c0,2.3,0,4.6,0,7c0,1.3,0.6,1.9,1.9,1.9c1.8,0,3.4,0,5,0c1.4-0.1,2.6-0.3,3.6-0.6
				c0.5-0.3,0.9-0.5,1.2-0.5c0.6,0.2,1,0.5,1.3,0.7s0.5,0.5,0.5,0.8c0,0.2-0.2,0.3-0.7,0.4c-0.6,0.1-1.4,0.2-2.4,0.2
				c-0.9,0.1-2,0.2-3.4,0.2c-1.9,0-3.7,0-5.4,0c-2.1,0-3.1-1-3.1-3c0-1.8,0-6.6,0-14.2c0-0.8-0.6-1.3-1.9-1.6
				c-0.5-0.2-0.5-0.4,0-0.6c0.6-0.1,1.4,0,2.2,0.2c0.9,0.2,1.6,0.6,2,1.1c0.2,0.2,0.4,0.4,0.4,0.6c0,0.2-0.2,0.3-0.5,0.4
				c-0.4,0.1-0.6,0.6-0.7,1.7c0,1,0,2.4,0,4.3c4-0.9,7.2-2,9.7-3.2c0.4-0.4,0.2-0.8-0.7-1.3c-0.2-0.2-0.2-0.3,0.2-0.4
				c1,0.1,1.9,0.5,2.8,1.2c0.8,0.6,1.2,1.1,1.2,1.3s-0.3,0.3-1,0.2c-0.6,0.2-1.2,0.3-1.8,0.5C315.4,15.3,311.9,16.1,308.5,16.6z
				 M324.8,11c0,0.6-0.2,0.8-0.7,0.8c-0.3,0-0.8-0.6-1.6-1.7c-0.3-0.5-1.1-1.2-2.4-2.3c-0.2-0.2-0.1-0.3,0.1-0.4
				c1.1,0.3,2.3,0.9,3.5,1.7C324.4,9.7,324.8,10.3,324.8,11z M327.3,9.1c-0.4,0-0.7-0.2-1-0.7c-0.4-0.8-1.4-1.6-3.1-2.4
				c-0.2-0.2-0.2-0.4,0.1-0.4c1.8,0.2,3.1,0.6,3.8,1.2c0.5,0.4,0.7,0.9,0.7,1.6C327.9,8.8,327.7,9.1,327.3,9.1z"/>
			<path class="st0" d="M339.4,17.5c-0.2,0.2-0.4,0.2-0.6,0.2c-0.3,0-0.8-0.4-1.3-1.1c-1-1.2-2.3-2-4.1-2.5c-0.5-0.2-0.5-0.4,0-0.5
				c2.4,0,4.2,0.6,5.5,1.8c0.5,0.5,0.7,1,0.7,1.4C339.7,17.1,339.6,17.3,339.4,17.5z M340.4,27.8c-0.2,0.3-0.4,0.5-0.6,0.5
				s-0.6-0.2-1.3-0.6c-0.6-0.3-1-0.7-1.4-1.1c-0.6-0.6-0.9-1.5-0.8-2.6c0-0.4,0.2-0.4,0.5-0.1c0.4,1.2,1,1.8,1.8,1.8
				c0.7,0,1.7-0.3,2.9-1c6.6-4,12.2-8.5,16.7-13.4c0.5-0.2,0.7-0.1,0.6,0.4c-3.9,5-9.3,9.8-16.2,14.5
				C341.2,26.9,340.6,27.5,340.4,27.8z M342.3,11.5c-0.3,0-0.7-0.4-1.2-1.1c-0.9-1.3-2.3-2.1-4.2-2.5c-0.3-0.2-0.3-0.4,0.1-0.5
				c2.5,0,4.3,0.6,5.4,1.7c0.6,0.6,0.8,1.1,0.8,1.6C343.3,11.2,343,11.5,342.3,11.5z M354.2,8.8c0,0.6-0.2,0.8-0.7,0.8
				c-0.3,0-0.8-0.6-1.6-1.7c-0.3-0.5-1.1-1.2-2.4-2.3c-0.2-0.2-0.1-0.3,0.1-0.4c1.1,0.3,2.3,0.9,3.5,1.7
				C353.8,7.5,354.2,8.1,354.2,8.8z M357.2,7.1c-0.3,0-0.6-0.1-0.7-0.2c-0.3-0.3-0.6-0.7-1-1.2c-0.6-0.6-1.3-1.2-2.3-1.8
				c-0.2-0.2-0.2-0.4,0.1-0.4c1.8,0.3,3.1,0.8,3.7,1.4c0.5,0.5,0.7,1,0.7,1.6C357.8,6.9,357.6,7.1,357.2,7.1z"/>
			<path class="st0" d="M375.1,16.1c-0.1-0.3-0.4-0.6-1-0.7c-0.5-0.2-0.4-0.4,0.1-0.5c0.9,0,1.5,0.2,1.9,0.5c2-1.4,3.7-2.9,5.2-4.4
				c0.2-0.2,0-0.4-0.4-0.4c-5.7,0.9-8.9,1.4-9.6,1.7c-1,0.2-1.6,0.5-1.9,0.7c-0.2,0.2-0.4,0.4-0.6,0.4c-0.4,0-1-0.4-1.9-1.3
				c-0.4-0.4-0.7-1-0.8-1.7c0-0.4,0.2-0.5,0.5-0.2c0.4,0.8,1.2,1.2,2.5,1.2c0.8,0,2.2-0.2,4.2-0.6c1.8-0.2,4.7-0.6,8.5-1.2
				c0.3-0.2,0.6-0.5,0.8-0.8c0.3,0.2,0.9,0.6,1.7,1.3c0.6,0.5,0.8,0.8,0.8,1c0,0.4-0.2,0.6-0.6,0.5c-0.6,0-1.2,0.2-1.6,0.5
				c-1.9,1.8-3.8,3.2-5.5,4.4c0.6,0.3,0.4,0.6-0.6,0.8c0,3.4,0,6.7,0,9.7c0,1,0.1,2.1,0.2,3.1c0.1,0.5-0.2,0.7-0.7,0.7
				c-0.4,0-0.7-0.2-1-0.6c-0.3-0.5-0.5-0.8-0.5-1c0.2-0.4,0.3-0.9,0.4-1.6c0-3.3,0-6.6,0-10c-4.8,3.1-9.3,5.3-13.4,6.6
				c-0.4-0.1-0.4-0.2-0.1-0.5C366.5,21.8,370.9,19.3,375.1,16.1z M372.4,3.3c1.7,0.4,3.1,1.1,4.3,2.2c0.7,0.6,1.1,1.3,1.1,2
				c0,1.1-0.3,1.7-0.8,1.7s-0.9-0.6-1.2-1.8c-0.1-0.3-0.5-1-1.3-1.9c-0.4-0.5-1.2-1.1-2.4-1.8C371.8,3.4,372,3.3,372.4,3.3z
				 M378.7,17.7c1.7,0.2,3.1,0.6,4.3,1.2c1.4,0.6,2.4,1.3,3.1,2s1.1,1.4,1.1,2c0,0.6-0.3,1-1,1c-0.2,0-0.6-0.4-1.2-1.2
				c-1.1-1.6-3.2-3.2-6.4-4.7C378.4,17.9,378.4,17.8,378.7,17.7z"/>
			<path class="st0" d="M411.7,8.2c0.6,0.4,1.2,0.8,1.8,1.3c0.3,0.2,0.5,0.5,0.5,0.8c0,0.2-0.4,0.4-1.1,0.4
				c-1.5,2.4-3.1,4.6-4.8,6.6c2.7,0.9,4.9,2.2,6.6,3.8c1.4,1.4,2,2.4,2,3.2c0,0.7-0.3,1.1-1,1.1c-0.3,0-0.7-0.4-1.2-1.2
				c-0.7-1.2-1.6-2.3-2.5-3.2c-1.1-1.1-2.6-2.2-4.3-3.4c-4,4-8.4,7-13.3,9c-0.7,0.1-0.8-0.1-0.4-0.5c7.8-4.1,13.3-9.4,16.7-15.8
				c0.1-0.3-0.1-0.5-0.5-0.5c-6,0.8-9.2,1.4-9.5,1.9c-0.2,0.2-0.4,0.4-0.6,0.4s-0.5-0.2-1.1-0.7c-1.2-1-1.7-1.8-1.6-2.4
				c0-0.4,0.2-0.4,0.5-0.1c0.4,0.7,1,1.1,1.8,1.1c1.9,0,5.5-0.3,10.8-1C411,8.7,411.3,8.5,411.7,8.2z"/>
			<path class="st0" d="M448.6,14.2c0.3,0.2,0.5,0.4,0.5,0.6c0,0.2-0.2,0.4-0.5,0.6c-1.8,0.6-5.2,2-10.4,4.3c0,1.7,0,3.4,0,5
				c0,0.7-0.3,1.1-1,1.1c-0.3,0-0.5-0.2-0.5-0.7c0-1.5,0-3.1,0-4.7c-2.2,1-3.9,2.1-5.3,3.5c-0.7,0.7-1.1,1.4-1.1,2
				c0,0.6,0.2,1,0.6,1.4c0.7,0.7,2.4,1.1,5,1.1s4.8-0.2,6.6-0.6c0.6-0.2,1-0.4,1.3-0.4c0.9,0,1.3,0.4,1.3,1.2c0,0.3-0.2,0.5-0.7,0.6
				c-1.4,0.3-4,0.5-7.9,0.5c-3.1,0-5.2-0.5-6.2-1.6c-0.6-0.6-1-1.3-1-2c0-1,0.5-2,1.4-3c1.3-1.3,3.2-2.6,5.9-4
				c0-1.3-0.3-2.2-0.8-2.8c-0.3-0.3-0.8-0.5-1.6-0.5c-2,0-4.4,1.7-7.2,5.2c-0.2,0.2-0.5,0.4-0.7,0.4c-0.4,0-0.6-0.4-0.6-1.1
				s0.2-1.2,0.5-1.3c0.6-0.3,1.3-0.8,1.9-1.6c1.4-1.4,3-3.6,4.7-6.6c-0.6,0.1-1.6,0.2-2.8,0.2c-0.6,0.1-1.2,0.1-1.7,0.1
				c-0.3,0-0.8-0.3-1.3-0.8c-0.5-0.4-0.7-0.9-0.7-1.4c0.2-0.3,0.3-0.3,0.5,0.1c0.5,0.7,1.4,1.1,2.8,1.1s2.6-0.1,3.7-0.2
				c0.6-1.2,1-2.2,1.1-2.9c0.2-1.1-0.4-1.8-1.8-2c-0.6-0.1-0.6-0.2-0.1-0.5c1.4-0.2,2.9,0.3,4.3,1.3c0.4,0.3,0.4,0.7-0.1,1.1
				c-0.4,0.3-1.1,1.3-2,3c1.8-0.3,3.2-0.7,4.3-1.2c0.4-0.2,0.7-0.4,1-0.4c0.2,0,0.5,0.2,0.8,0.5c0.2,0.1,0.2,0.3,0.2,0.6
				c0,0.2-0.2,0.4-0.7,0.5c-1.9,0.3-4,0.6-6.1,1c-1,1.6-2.1,3.2-3.2,4.8c-0.2,0.4-0.2,0.5,0.2,0.4c1.3-0.6,2.4-1,3.2-1
				c1.1,0,2,0.3,2.5,0.8c0.7,0.7,1.1,1.6,1.2,2.6c4-1.9,6.6-3.2,7.7-3.8c0.4-0.2,0.5-0.4,0.2-0.6c-0.5-0.3-1-0.6-1.7-0.7
				c-0.5-0.2-0.5-0.3,0-0.5C445.7,12.9,447.1,13.3,448.6,14.2z"/>
			<path class="st0" d="M468.9,20.7c1.2,1.8,2.4,3.3,3.6,4.3c1.4-1,2.8-2.2,4.2-3.6l1.3,1c1.1,0.8,0.8,1.1-1,1l-4.2,1.9
				c2,1.7,4.8,3,8.3,4.1c-1,0.1-1.9,0.5-2.5,1.3c-5-2.2-8.4-5.5-10.3-10h-3.2v6.7l5.5-1c0.6,0.2,0.7,0.4,0.1,0.6l-9.6,2.4
				c0.2,1.3-0.1,1.4-0.8,0.5l-1.4-2l4.7-0.4v-6.8h-5.4c-0.5,3.1-1.8,6.1-4.1,8.9c-0.4,0.3-0.6,0.2-0.5-0.2c2.3-3.8,3.5-8.6,3.5-14.3
				V4.4l1.8,1.1h16.8l0.7-1l1.7,1.2c0.5,0.4,0.3,0.7-0.5,0.8v4.9c-1,1-1.6,1-1.6,0.1v-0.7h-3.7v4.1h3.6l1.6-1.6l1.9,1.4
				c0.5,0.4,0.5,0.7,0,0.8h-7.1v4.3h4.9l1.6-1.6l1.9,1.4c0.5,0.4,0.5,0.7,0,0.8h-11.8V20.7z M464.1,20v-4.3h-4.2V15h4.2v-4.1h-5.5
				v5.4c0,1.2-0.1,2.4-0.4,3.7H464.1z M476,10.1v-4h-17.4v4H476z M470.7,10.9h-5V15h5V10.9z M470.7,20v-4.3h-5V20H470.7z"/>
			<path class="st0" d="M494.4,13.3h-6.7v17c-1,1-1.6,1-1.6,0.1V4.1l1.8,1.1h6.1l0.7-1l1.7,1.2c0.5,0.4,0.3,0.7-0.5,0.8v8.2
				c-1,1-1.6,1-1.6,0.1v-1.2H494.4z M494.4,8.8V5.9h-6.7v2.9H494.4z M494.4,9.5h-6.7v3h6.7V9.5z M490.2,28.9
				c3.2-2.1,4.8-4.3,4.8-6.7v-0.7h-5.2v-0.7h5.3v-3.5h-3.5v-0.7h11.2l1.3-1.3l1.7,1.2c0.5,0.4,0.5,0.7,0,0.8h-4v3.5h2.3l1.3-1.3
				l1.7,1.2c0.5,0.4,0.5,0.7,0,0.8h-5.3v7.2c-1,1-1.6,1-1.6,0.1v-7.3h-3.7v0.7c0,2.8-2,5.2-6.1,7.3
				C489.9,29.5,489.8,29.3,490.2,28.9z M496.6,17.2v3.5h3.7v-3.5H496.6z M499.6,14.5V4.3l1.8,1h6.5l0.7-1l1.7,1.2
				c0.5,0.4,0.3,0.7-0.5,0.8v21.6c0,0.9-0.3,1.6-0.8,2c-0.3,0.3-0.7,0.5-1.2,0.5c-0.3,0-0.5-0.2-0.5-0.5c0-0.5-0.2-0.8-0.7-1
				l-1.6-0.2c-0.3-0.2-0.3-0.3,0-0.5h2.4c0.6,0,0.8-0.3,0.8-0.8V13.3h-7.1v1C500.1,15.3,499.6,15.3,499.6,14.5z M508.2,5.9h-7.1v2.9
				h7.1V5.9z M508.2,9.5h-7.1v3h7.1V9.5z"/>
			<path class="st0" d="M536.6,19.4c0.3,0.3,0.7,0.6,1.2,1c0.2,0.2,0.4,0.4,0.5,0.7c0.2,0.6,0.2,1,0.1,1.2c-0.3,0.6-0.8,0.8-1.3,0.4
				c-1.3-1-2.7-1.7-4.2-2.2c-2-0.6-3.7-1-5.2-1c-2.6,0-4.5,0.6-5.6,1.7c-0.6,0.6-1,1.3-1,2c0,1.3,0.4,2.3,1.3,3
				c1.4,1.2,3.6,1.8,6.5,1.9c2.4,0.1,3.9,0,4.6-0.2c0.6-0.2,1.2-0.2,1.6,0c0.4,0.2,0.7,0.5,0.8,0.8c0.2,0.4,0,0.6-0.5,0.7
				c-1,0.2-2.3,0.2-4.1,0.2c-2.2,0-4-0.2-5.6-0.6c-1.9-0.5-3.4-1.2-4.3-2.3c-0.9-1-1.3-2-1.3-3.1c0-1.3,0.4-2.3,1.2-3
				c1.4-1.3,3.4-1.9,6.1-1.9c1.1,0,2.2,0.1,3.4,0.2c1.7,0.2,2.9,0.5,3.7,0.7c0.5,0.2,0.6,0,0.2-0.5c-1.7-2.3-3.3-4.6-4.8-7
				c-2.3,0.5-4.3,0.8-6,1c-0.5,0.2-0.8,0.2-1.1,0.2c-0.4,0-0.8-0.2-1.1-0.5c-1-0.9-1.5-1.5-1.7-1.8c-0.2-0.4,0-0.5,0.4-0.2
				c0.8,0.7,1.9,1.1,3.2,1.1c1.4,0,3.3-0.3,5.6-0.8c-0.4-0.7-1.1-1.8-2-3.2c-0.3-0.5-0.7-0.9-1.1-1.2c-0.5-0.4-0.5-0.8,0-1.3
				c0.8-0.9,1.6-1.4,2.5-1.7c0.6,0,0.7,0.1,0.4,0.4c-0.5,0.2-0.8,0.8-1,1.7c-0.1,0.4,0.1,1,0.5,1.7c0.8,1.4,1.5,2.6,2,3.4
				c1.4-0.3,3.2-1,5.3-1.9c0.4-0.2,0.9-0.3,1.6-0.1c0.3,0.1,0.6,0.2,0.8,0.5c0.2,0.2,0.1,0.5-0.4,0.7c-1.1,0.5-3.4,1.1-6.7,1.9
				c0.8,1.4,1.9,3,3.4,4.9C535.4,18.1,536.1,18.9,536.6,19.4z"/>
			<path class="st0" d="M569.5,13.6c-2,0.1-3.6,0.2-4.8,0.2c0,1.5,0,3,0,4.4c0,2.7-0.6,4.4-1.7,5c-0.8,0.5-1.2,0.4-1.1-0.2
				c0.1-0.6-0.2-1-0.7-1.3c-1-0.6-2.2-1.3-3.5-2c-0.4-0.3-0.3-0.4,0.2-0.4c1.3,0.5,2.5,1,3.7,1.4c0.6,0.2,1.1,0,1.3-0.7
				c0.2-0.5,0.2-2.5,0.2-6c-3.1,0.4-5.9,0.9-8.4,1.4c0,2.6,0,4.6,0,6.1c0.1,1.6,0.2,2.8,0.4,3.5c0.2,0.8,0.5,1.4,1,1.7
				c0.6,0.4,2,0.6,4.1,0.6c2.9,0,5.1-0.2,6.7-0.7c0.8-0.2,1.4-0.2,1.7,0s0.6,0.5,0.8,0.8c0.4,0.6,0.2,0.9-0.5,1
				c-0.7,0.1-3.8,0.1-9.4,0.1c-2.3,0-3.9-0.4-4.7-1.2c-1-1-1.6-3.4-1.6-7.1c0-1.6,0-3.1,0-4.6c-0.7,0.2-2,0.6-4,1.2
				c-0.7,0.2-1.2,0.4-1.4,0.6c-0.3,0.2-0.7,0.2-1.1-0.2c-1.2-1.1-1.8-1.9-1.7-2.4c0-0.6,0.2-0.6,0.5-0.2c0.5,0.8,1.2,1.2,2.2,1.2
				c0.4,0,1.2-0.1,2.4-0.4c1.1-0.2,2.2-0.5,3.1-0.7c0-1.8-0.1-3.3-0.2-4.3c-0.2-1.2-0.9-1.9-2.3-2c-0.6,0-0.6-0.2,0-0.5
				c1.4-0.2,2.8,0.2,4.2,1.1c0.7,0.5,0.8,0.9,0.1,1.3c-0.2,0.2-0.4,1.5-0.4,4.1c3.1-0.6,5.9-1,8.4-1.3c0-3,0-4.9-0.1-5.5
				c-0.1-0.7-0.8-1.2-2-1.6c-0.6,0-0.6-0.2-0.1-0.5c1.8-0.1,3.2,0.3,4.2,1.1c0.6,0.5,0.6,0.9,0,1.2c-0.3,0.2-0.5,1.9-0.5,5.2
				c3.5-0.5,5.5-0.9,6-1.2c0.4-0.2,0.8-0.2,1.3,0.1c0.9,0.6,1.4,0.9,1.4,1c0.5,0.7,0.3,1-0.5,1C571.3,13.7,570.1,13.6,569.5,13.6z"
				/>
			<path class="st0" d="M599.3,7c0.5-0.4,1-0.4,1.6,0c0.9,0.6,1.4,1,1.4,1.1c0.4,0.4,0.3,0.7-0.2,0.8c-5-0.2-8.5,0.8-10.7,3
				c-2.1,2.1-3.1,4.2-3.1,6.2c0,2.4,0.8,4.4,2.4,6c1.7,1.7,3.6,2.6,5.8,2.6c0.8,0,1.3,0.2,1.6,0.5c0.3,0.4,0.5,0.8,0.5,1.1
				c0,0.4-0.3,0.6-1,0.6c-2.2,0-4.4-0.8-6.5-2.5c-2.5-2-3.7-4.6-3.7-7.9c0-3,1.6-5.8,4.7-8.3c0.4-0.3,0.4-0.5,0-0.5
				c-2.5,0.5-4.8,1-7.1,1.4c-1,0.2-1.9,0.5-2.9,1c-0.7,0.3-1.2,0.4-1.4,0.4c-0.4-0.1-0.8-0.3-1.2-0.6c-0.9-0.6-1.4-1.3-1.4-2
				c0.2-0.6,0.3-0.6,0.5-0.1c0.4,0.7,1.2,1,2.5,1c0.6,0,1.7-0.2,3.2-0.5c4.2-0.7,8.3-1.5,12.5-2.3C597.9,7.7,598.8,7.4,599.3,7z"/>
			<path class="st0" d="M615.5,20.9c0-2.5,0-5,0-7.6c-1.6,0.2-2.8,0.4-3.7,0.7c-0.4,0.2-0.9,0.1-1.6-0.4c-1-0.7-1.4-1.6-1.4-2.5
				c0.1-0.4,0.2-0.4,0.4,0c0.4,0.9,1,1.4,1.8,1.4c1.2,0.1,2.7,0,4.6-0.4c0.1-0.7,0.2-2,0.2-3.8c0.1-1.4-0.5-2.2-1.8-2.6
				c-0.5-0.2-0.5-0.3,0-0.5c1.7,0,2.9,0.4,3.7,1.3c0.3,0.4,0.4,0.7,0.1,1c-0.3,0.3-0.5,0.9-0.6,1.8c-0.1,0.6-0.2,1.5-0.2,2.5
				c1.5-0.4,2.7-0.9,3.5-1.4c0.5-0.4,0.9-0.5,1.2-0.4c0.4,0.2,0.7,0.3,1,0.5c0.5,0.3,0.3,0.7-0.5,1.1c-0.2,0.1-0.7,0.2-1.7,0.5
				c-1.5,0.4-2.7,0.7-3.6,0.8c-0.1,2-0.1,4.4-0.1,7.2c3.8-2.4,7.1-3.6,10-3.6c2.2,0,3.9,0.5,5,1.4c1.1,1,1.7,2.3,1.7,4.1
				c0,1.5-0.4,2.7-1.3,3.6c-1.1,1.1-2.7,1.7-4.8,1.7c-1.5,0-2.8-0.4-3.7-1.1c-1.3-1-2.1-2.3-2.5-4.1c0.2-0.4,0.3-0.4,0.5,0
				c0.7,1.4,1.4,2.3,2,2.8c1,0.8,2.1,1.2,3.5,1.2c1.5,0,2.6-0.4,3.4-1.1c0.9-0.9,1.3-1.9,1.3-3c0-1.4-0.4-2.6-1.3-3.5
				c-0.9-0.9-2.2-1.3-3.8-1.3c-2.7,0-6,1.4-9.8,4.3c0,0.9,0,1.8,0,2.6c0,0.5,0.1,1.5,0.4,3c0.2,1-0.2,1.8-1.1,2.4
				c-0.6,0.4-1,0.2-1.1-0.5c-0.1-1-0.4-1.8-1-2.2c-0.6-0.5-1.3-1-2-1.6c-0.4,0.4-0.9,0.8-1.6,1.2c-0.6,0.4-1.1,0.6-1.4,0.5
				c-0.6-0.2-1-0.7-1-1.7c0-0.9,0.2-1.7,0.7-2.4c0.2-0.2,0.4-0.2,0.4,0.1c-0.1,1.1,0.2,1.7,0.7,1.7c0.4,0,0.8-0.1,1.1-0.4
				C611.9,23.7,613.4,22.5,615.5,20.9z M615.5,22.4c-1,0.8-2,1.7-3.2,2.8c0.9,0.5,1.7,0.9,2.5,1.3c0.5,0.2,0.7,0.1,0.7-0.4
				C615.5,24.9,615.5,23.7,615.5,22.4z M626.7,8.8c-0.2-0.2-0.1-0.3,0.1-0.4c2.1,0.2,3.7,0.6,4.9,1.3s2,1.6,2.3,2.5
				c0.2,0.5,0.2,0.8,0,1.1s-0.5,0.4-0.8,0.1c-0.5-0.4-1-0.6-1.6-0.6s-1.5,0.1-2.9,0.4c-0.4,0.1-0.4,0-0.1-0.4
				c0.6-0.2,1.4-0.5,2.2-0.7c0.4-0.2,0.5-0.4,0.2-0.8C630.4,10.4,629,9.5,626.7,8.8z"/>
			<path class="st0" d="M647.4,6.7c0.2,0.3,0.2,0.7,0,1.2c-0.5,1-0.9,2.6-1.2,4.8c-0.2,1.8-0.2,3.4,0,4.7c0.1,0.5,0.2,0.5,0.5,0.1
				c1.6-4.5,3.1-7.4,4.6-8.9c0.9-0.9,1.8-1.3,2.8-1.3c0.9,0,1.6,0.3,2.2,0.8c1.3,1.3,1.9,3.6,1.9,7.1c0,4.8-1.1,8.3-3.2,10.4
				c-2,2-4.4,3.4-7.3,4.2c-0.6,0-0.6-0.2-0.2-0.5c2.1-0.6,4.1-1.9,6-3.8c2.1-2.1,3.1-5.6,3.1-10.6c0-3.5-0.4-5.7-1.3-6.6
				c-0.3-0.3-0.7-0.5-1.1-0.5c-0.6,0-1.2,0.3-1.8,1c-1.2,1.2-2.6,4-4.1,8.3c-0.4,1.1-0.6,2.2-0.6,3.2s-0.3,1.4-1,1.4
				c-0.5,0-0.8-0.4-1.1-1.1c-0.5-1.4-0.7-3.3-0.7-5.5c0-2,0.3-4.5,0.8-7.6c0.2-0.9-0.2-1.6-1-2c-0.3-0.2-0.2-0.4,0.2-0.4
				C646.1,5.5,646.9,6,647.4,6.7z"/>
			<path class="st0" d="M683.6,10.5c1.8-0.2,3.4-0.4,4.7-0.7c0.7-0.2,1.3-0.4,1.7-0.7s0.8-0.4,1.1-0.1c0.5,0.3,0.8,0.6,1,0.7
				c0.4,0.4,0.3,0.7-0.4,0.8c-2.3,0.6-5,1-8,1.2c0,1.8,0,3.5,0,5.3c1.6-0.2,2.8-0.3,3.7-0.5c1.1-0.2,1.8-0.4,2.2-0.6s0.8-0.2,1.1,0
				c0.4,0.2,0.7,0.4,1,0.6s0.2,0.5-0.2,0.7c-0.2,0.2-0.9,0.3-1.9,0.4c-2.1,0.2-4,0.4-5.8,0.5c0,1.9,0,3.8,0,5.6
				c3.1,0.6,5.9,1.5,8.3,2.6c0.7,0.3,1.1,0.9,1.1,1.7c0,0.3-0.2,0.5-0.5,0.6c-0.2,0.1-0.6,0-1.1-0.4c-2.6-1.6-5.2-2.7-7.8-3.4
				c0.1,1.4-0.2,2.4-0.8,3.1c-0.9,1-2.4,1.4-4.6,1.4c-1.9,0-3.4-0.5-4.3-1.4c-0.5-0.5-0.7-1-0.7-1.7s0.3-1.3,1-1.8
				c1-0.8,2.8-1.2,5.3-1.2c0.6,0,1.5,0,2.9,0.1c0-1.8,0-3.5,0-5.3c-1.2,0.1-2.4,0.1-3.7,0.1c-1.4,0-2.4-0.2-3-0.6
				c-0.9-0.6-1.3-1.7-1.2-3.4c0.2-0.3,0.4-0.3,0.6,0c0,1.1,0.2,1.9,0.6,2.3c0.5,0.5,1.5,0.7,3,0.7c1.4,0,2.6-0.1,3.7-0.2
				c0-1.8,0-3.5,0-5.3c-1.5,0.2-3.3,0.2-5.3,0.2c-1.4,0-2.6-0.1-3.5-0.4c-1.2-0.3-2.2-1-3-1.9c-0.2-0.5-0.1-0.6,0.4-0.4
				c0.8,0.7,1.6,1.2,2.5,1.4c0.6,0.2,1.9,0.2,4,0.2c1.6,0,3.2-0.1,4.9-0.4c0-0.6,0-1.3,0-2c0-1.4-0.1-2.2-0.4-2.5
				c-0.4-0.6-1.1-0.8-2-0.8c-0.6,0.1-0.6-0.1-0.1-0.5c0.4-0.2,0.9-0.2,1.6-0.2c0.8,0,1.8,0.3,2.9,1c0.6,0.3,0.6,0.7,0,1.2
				c-0.4,0.3-0.6,0.9-0.6,1.8C683.6,9.2,683.6,9.9,683.6,10.5z M678.7,24.2c-1.5,0-2.7,0.2-3.5,0.6c-0.8,0.4-1.2,1-1.2,1.7
				c0,0.6,0.4,1.2,1.2,1.6c0.8,0.4,1.7,0.6,2.8,0.6c1.4,0,2.6-0.4,3.4-1.1c0.6-0.6,0.9-1.6,0.8-3C680.4,24.3,679.3,24.2,678.7,24.2z
				"/>
			<path class="st0" d="M715.1,10.7c3.6-0.2,6-0.4,7.2-0.6c0.5-0.1,1.3-0.2,2.4-0.5c0.4-0.1,0.8,0,1.2,0.4c0.9,0.7,1.4,1.2,1.4,1.4
				c0.2,0.5-0.1,0.6-0.7,0.5c-1.6-0.4-3.6-0.6-6.1-0.6c-1.5,0-3.3,0.1-5.4,0.2c0,1.8,0,3.5,0,5.2c0.2,0.8,0.4,1.9,0.4,3.4
				c0,5-2.2,8.7-6.6,10.9c-0.4,0.1-0.5,0-0.2-0.4c1-0.7,1.8-1.5,2.5-2.3c1.8-2,2.7-4.4,2.8-7.2c-0.6,1-1.5,1.4-2.5,1.4
				c-0.9,0-1.7-0.4-2.4-1.1c-0.6-0.6-0.8-1.4-0.8-2.5c0-1.1,0.4-2.1,1.2-2.9c0.6-0.6,1.4-1,2.4-1c0.7,0,1.4,0.2,1.9,0.5
				c0-1.3,0-2.6,0-4c-4.2,0.6-7.4,1.3-9.5,1.9c-0.8,0.2-1.4,0.4-1.7,0.6c-0.5,0.2-0.9,0.2-1.3-0.1c-0.9-0.6-1.5-1.6-1.9-2.8
				c0-0.4,0.2-0.4,0.5-0.1c0.4,0.7,1.2,1.1,2.3,1.1s2.8-0.2,5.2-0.6c1.8-0.3,4-0.6,6.5-0.8c0-1,0-2.1,0-3.2c0-1.8-0.8-2.8-2.4-3
				c-0.3-0.2-0.3-0.3,0-0.5c1.4-0.2,2.4,0,3.2,0.6c0.4,0.2,0.8,0.6,1.1,1.1c0.3,0.4,0.3,0.7-0.1,0.8C715.2,6.9,715.1,8.3,715.1,10.7
				z M709.8,16.7c-0.4,0.6-0.6,1.2-0.6,2c0,1.3,0.3,2.2,1,2.8c0.2,0.2,0.6,0.4,1.2,0.4c0.6,0,1-0.2,1.3-0.5c0.7-0.7,1.1-1.7,1.1-3
				c0-1.8-0.7-2.6-2-2.6C710.8,15.8,710.2,16.1,709.8,16.7z"/>
			<path class="st0" d="M737.3,27.7c0,1.1-0.4,2-1.1,2.8c-0.7,0.7-1.6,1.1-2.8,1.1c-1.1,0-2-0.4-2.8-1.1c-0.7-0.7-1.1-1.6-1.1-2.8
				c0-1.1,0.4-2,1.1-2.8c0.7-0.7,1.6-1.1,2.8-1.1c1.1,0,2,0.4,2.8,1.1C736.9,25.6,737.3,26.5,737.3,27.7z M736.4,27.7
				c0-0.9-0.3-1.6-0.8-2.2c-0.6-0.6-1.3-0.8-2.2-0.8s-1.6,0.3-2.2,0.8c-0.6,0.6-0.8,1.3-0.8,2.2s0.3,1.6,0.8,2.2
				c0.6,0.6,1.3,0.8,2.2,0.8s1.6-0.3,2.2-0.8C736.1,29.3,736.4,28.5,736.4,27.7z"/>
			<path class="st0" d="M97.9,59.3c4.2-0.9,8.5-1.7,12.8-2.6c0.9-0.2,1.5-0.4,2-0.7c0.4-0.2,0.8-0.2,1.3,0c1,0.5,1.6,0.8,1.8,1.1
				c0.3,0.5,0.2,0.7-0.5,0.7c-0.8,0-1.5,0-2.1-0.1s-1.6,0-3.1,0.2c-3.1,0.5-5.4,1.5-7.1,3.2c-1.2,1.2-1.8,2.5-1.8,4.1s0.6,3,1.8,4
				c1,0.9,2.4,1.3,4.2,1.4c1.3,0.1,2.2,0,2.6-0.1c0.6-0.3,1.1-0.3,1.5,0s0.6,0.6,0.7,0.8c0.2,0.5,0,0.7-0.5,0.7
				c-0.9,0.1-2,0.1-3.3,0.1c-1,0-2-0.2-2.9-0.5c-1.6-0.5-2.9-1.3-3.6-2.1c-0.9-1-1.4-2.4-1.4-4.2c0-1.8,0.6-3.3,1.9-4.5
				c0.9-0.8,1.6-1.4,2.2-1.8c0.2-0.2,0.2-0.3,0-0.4c-6.8,1.8-10.8,3-12,3.5c-0.7,0.3-1.1,0.1-1.1-0.6c0-0.3,0.2-0.7,0.7-1.2
				c0.2-0.2,0.6-0.4,1.1-0.4c1,0,2.5-0.6,4.4-1.9c3.5-2.3,6.4-5.2,8.7-8.7c0.1-0.2,0-0.3-0.2-0.2c-1.6,0.5-3.1,0.9-4.7,1.4
				c-1.2,0.3-1.9,0.6-2.2,0.9c-0.4,0.4-0.8,0.4-1.3-0.1c-0.9-0.9-1.4-1.9-1.3-2.9c0.2-0.5,0.3-0.4,0.5,0.1c0.3,0.8,0.8,1.2,1.5,1.3
				c0.8,0.1,1.6,0,2.6-0.2c1.8-0.5,3.6-0.9,5.3-1.4c0.2-0.2,0.4-0.4,0.6-0.6c0.9,0.5,1.6,0.9,2,1.3c0.5,0.5,0.4,0.8-0.1,0.9
				c-0.3,0.1-0.7,0.3-1.1,0.6c-2.7,3.1-6,5.9-10,8.4C97.6,59.2,97.6,59.3,97.9,59.3z"/>
			<path class="st0" d="M138.2,68.8c1.3,0,2.2-0.1,2.9-0.2c0.7-0.2,1.1-0.2,1.2-0.2c0.5,0,0.9,0.3,1.4,0.9s0.2,0.9-0.8,0.9
				c-3.5,0-7.1,0-10.6,0c-2.8,0-4.9-0.8-6.4-2.5c-0.9-1-1.4-2.3-1.6-3.8c0.2-0.3,0.3-0.3,0.5,0.1c0.4,1,1,1.9,1.8,2.7
				c1.3,1.3,3.3,2,5.9,2C134.4,68.8,136.3,68.8,138.2,68.8z M140.5,52.7c0.4,0.5,0.2,0.8-0.5,0.8c-0.5,0-1.4,0-2.5,0
				c-0.9,0-1.8,0.1-2.6,0.4c-1.6,0.5-3.3,1.2-5.2,2.2c-0.5,0.2-0.6,0.2-0.4-0.2c1.2-0.9,2.5-1.8,4.1-2.5c-1.9-0.2-3.3-0.5-4.4-0.9
				c-1.3-0.6-2.3-1.5-2.9-2.5c0-0.4,0.2-0.4,0.5-0.1c1.2,1.3,3.6,2,7.2,2c2.6,0,4.2-0.1,4.9-0.4c0.3-0.1,0.6,0,0.9,0.4
				C140,52.1,140.2,52.4,140.5,52.7z"/>
			<path class="st0" d="M160.2,55.3c-1.8,4.2-3.6,8.3-5.5,12.5c-0.2,0.4-0.6,1.2-1.1,2.4c-0.2,0.6-0.5,0.9-0.8,0.9
				c-0.2,0-0.4-0.2-0.6-0.6c-0.1-0.2-0.1-0.5-0.1-0.9c0-0.7,0.2-1.3,0.7-1.8s1-1.3,1.6-2.6c1.7-3.4,3.3-6.6,4.6-9.6
				c-2.4,0.5-3.8,0.9-4.5,1.2c-0.5,0.2-0.9,0.2-1.3-0.1c-0.8-0.5-1.2-1.4-1.2-2.5c0.1-0.2,0.2-0.2,0.4,0c0.4,0.9,1,1.3,1.9,1.3
				c0.5,0,2.2-0.2,5.1-0.7c0.4-0.9,0.8-1.8,1.2-2.7c0.4-1.1,0.4-1.9-0.1-2.5c-0.4-0.5-1-0.7-1.9-0.8c-0.3-0.2-0.3-0.3,0-0.5
				c0.8,0,1.3,0,1.6,0.1c0.9,0.2,1.6,0.7,2.2,1.3c0.7,0.7,0.7,1.1-0.1,1.3c-0.5,1.3-1.1,2.5-1.8,3.6c1.1-0.2,1.8-0.2,2.2-0.2
				c1,0,1.8,0.3,2.2,0.8c0.7,0.9,1.1,2.3,1.1,4.4c0,6-1.5,9.8-4.4,11.3c-0.8,0.4-1.2,0.2-1.2-0.5c0-0.5-0.2-0.9-0.5-1.2
				c-0.7-0.5-1.5-1.1-2.4-1.8c-0.2-0.3-0.1-0.4,0.2-0.4c0.9,0.5,1.8,0.9,2.7,1.4c0.8,0.4,1.5,0.2,2.1-0.7c0.7-1,1.2-2.3,1.5-3.8
				c0.4-1.9,0.6-3.6,0.6-5.2c0-1.4-0.1-2.4-0.4-2.8c-0.3-0.6-0.9-0.9-1.8-0.9C161.9,55.1,161.1,55.1,160.2,55.3z M170.6,54
				c1.3,0.5,2.7,1.4,4.2,2.6c2,1.6,3.1,3.5,3.3,5.8c0.1,0.8,0,1.4-0.4,1.8c-0.5,0.6-0.9,0.6-1.4-0.1c-0.5-0.8-1.1-1.1-1.8-1.1
				c-1.1,0.1-2.2,0.2-3.4,0.2c-0.5-0.1-0.5-0.2-0.1-0.5c1.3-0.2,2.6-0.4,4-0.6c0.5-0.1,0.8-0.3,0.7-0.7c-0.2-1.3-0.7-2.5-1.8-3.9
				c-0.9-1.3-2.2-2.3-3.6-3.2C169.9,54,170,53.9,170.6,54z"/>
			<path class="st0" d="M197,59.1c2.7,0,4.7,0.7,6,2c1,1,1.5,2.2,1.5,3.6c0,1.6-0.5,2.9-1.6,4c-2.3,2.2-6.6,3.3-12.9,3.2
				c-0.5-0.2-0.5-0.5,0-0.7c5.7-0.2,9.6-1.3,11.6-3.3c0.9-0.9,1.3-2,1.3-3.4c0-1.3-0.3-2.2-0.9-2.8c-1.3-1.3-2.8-1.9-4.7-1.9
				c-2.7,0-4.9,0.9-6.8,2.8c-1.2,1.2-1.9,2.3-2.1,3.4c-0.2,0.7-0.5,0.9-1.1,0.6c-0.9-0.5-1.3-1.5-1.2-2.9c0.1-2,0.3-3.7,0.6-5.3
				c0.2-0.9,0.2-1.7,0.2-2.6c0-0.5-0.1-1-0.4-1.4c-0.2-0.4-0.2-0.8,0.1-1.3c0.6-0.9,1.7-1.6,3.2-1.9c0.7-0.2,1.6-0.2,2.8-0.2
				c0.2,0,0.2-0.1,0.1-0.2c-0.1-0.2-0.4-0.4-0.8-0.5c-1.7-0.3-3-1.4-3.9-3.2c0.1-0.2,0.2-0.3,0.4-0.1c0.9,1.2,2.6,2,4.9,2.5
				c1.5,0.3,2.3,1.1,2.5,2.4c0.1,0.7-0.2,0.9-0.9,0.6c-1-0.5-1.9-0.7-2.6-0.7c-2.2,0-3.7,0.4-4.6,1.3c-0.5,0.5-0.5,1.1,0,1.6
				s0.6,1.1,0.4,1.9c-0.5,1.6-0.7,3.9-0.6,6.9c0,0.5,0.2,0.5,0.5,0C190.7,60.5,193.7,59.1,197,59.1z"/>
			<path class="st0" d="M212.2,67.1c-0.4-0.3-0.4-0.5,0.1-0.5c1.9,0.5,3.6,1.6,5.3,3.3c0.7,0.7,1.1,1.4,1.1,2.1
				c0,0.5-0.2,0.9-0.5,1.2c-0.2,0.2-0.5,0.4-0.7,0.4c-0.4,0-0.7-0.2-0.9-0.7c-0.4-0.7-0.9-1.6-1.5-2.7
				C214.6,69.3,213.6,68.3,212.2,67.1z"/>
			<path class="st0" d="M247.3,57.5v1.4c3.2,0.8,4.8,1.9,4.8,3.3c0,0.5-0.2,0.8-0.6,0.8c-0.3,0-0.6-0.2-0.9-0.6
				c-0.7-1.1-1.8-2.1-3.3-2.9v13.1c-1,0.9-1.5,1-1.5,0.1V59.2c-2,2-3.7,3.4-5.2,4.2c-0.3,0-0.4-0.1-0.2-0.4c3.5-3,6.4-6.5,8.9-10.7
				h-7.6v-0.7h4.1v-5.4l2,0.4c0.6,0.2,0.5,0.5-0.5,0.8v4.2h1.8l1.3-1.3l1.9,1.9c0.5,0.5,0.1,0.7-1.2,0.6
				C249.9,54.2,248.7,55.8,247.3,57.5z M265,70.1l1.8-1.8l2.1,1.6c0.3,0.4,0.2,0.7-0.4,0.8h-19.1V70h8.4V57.2h-6.6v-0.7h6.6v-9.8
				l2.1,0.4c0.9,0.2,0.7,0.5-0.6,0.9v8.5h4.7l1.5-1.5l1.9,1.4c0.5,0.4,0.5,0.7,0,0.8h-8.1v12.9H265z"/>
			<path class="st0" d="M283.5,46l2.6,1.1c0.4,0.6,0,0.8-1.2,0.6c3,3.8,7.4,6.8,13.2,8.9c-0.9,0.3-1.6,0.9-2.1,1.6
				c-5.2-2.7-9-6.1-11.5-10.4c-4.5,5.6-8.9,9.3-13.3,10.8c-0.4,0-0.4-0.2-0.1-0.5C276.2,55.3,280.4,51.2,283.5,46z M291.2,69.2
				c-1-1-2.2-2-3.4-2.9c-0.4-0.3-0.3-0.4,0.2-0.4c2,0.8,3.8,1.8,5.3,3.1c1.1,0.9,1.6,1.9,1.6,2.9c0,0.8-0.3,1.2-0.8,1.2
				c-0.4,0-0.7-0.4-1.1-1.1c-0.2-0.5-0.7-1.3-1.4-2.2l-16,1.6c-0.5,1.5-0.9,1.8-1.3,0.8l-1.2-2.2l5.4-0.1l2.4-6.7h-9.6v-0.7h21.9
				l1.5-1.5l1.9,1.4c0.5,0.4,0.5,0.7,0,0.8H283l-3.5,6.6L291.2,69.2z M276.9,56.9h10.6l1.3-1.3l1.6,1.2c0.5,0.4,0.5,0.7,0,0.8h-13.5
				V56.9z"/>
			<path class="st0" d="M308.3,60.2c-0.6,1.3-1.2,3.1-1.8,5.5c-0.3,1.3-0.3,2.4,0,3.3c0.4,1.1,0.5,1.8,0.4,2.2
				c-0.2,0.5-0.6,0.5-1.1,0.2c-1.5-1-2.2-3.7-2.2-8c0-2.9,0.4-6.3,1.3-10.2c0.2-0.7,0.2-1.6,0.2-2.6s-0.4-1.6-1.2-1.9
				c-0.4-0.3-0.3-0.5,0.2-0.5c1.2,0.3,2.1,1,2.7,2c0.2,0.2,0.2,0.6,0,1.1c-0.9,2.7-1.5,4.5-1.6,5.3c-0.5,2-0.7,3.8-0.7,5.4
				c0,1.6,0.1,2.8,0.4,3.8c0.2,0.2,0.3,0.2,0.5,0c0.9-2.7,1.7-4.7,2.6-6C308.4,59.8,308.5,59.9,308.3,60.2z M322.1,67.6
				c1.3,0,2.2-0.2,2.9-0.5c0.8-0.3,1.4-0.1,1.9,0.7c0.3,0.5,0.1,0.9-0.6,0.9c-0.6,0.1-1.6,0.1-2.8,0.1c-1.6,0-3.1,0-4.7,0
				c-2.5,0-4.3-0.5-5.3-1.5S312,65,312,63.5c0-0.5,0-1.1,0.1-1.9c0.2-0.3,0.3-0.3,0.5,0c0.1,2.2,0.5,3.6,1.2,4.4
				c1,1,2.6,1.5,4.7,1.5C319.7,67.6,320.9,67.6,322.1,67.6z M315.8,56.9c-0.3,0.2-0.4,0.2-0.4-0.2c0.9-1.3,2-2.3,3.3-3.2
				c0.3-0.2,0.3-0.4-0.1-0.4c-2.5,0.2-4.5-0.2-6-1.2c-0.4-0.3-0.3-0.4,0.2-0.4c1.3,0.3,2.5,0.5,3.4,0.5c2.2,0,4.4-0.2,6.5-0.7
				c0.9-0.2,1.6-0.1,1.9,0.5c0.5,0.8,0.2,1.2-0.7,1.2C321.3,53.1,318.6,54.3,315.8,56.9z"/>
			<path class="st0" d="M341.3,60.9c0.8-0.8,1.5-1.5,2.1-2.2c-0.4,0-0.7-0.3-1.1-0.9c-0.6-1.2-1.8-2.2-3.4-3.2
				c-2.3,2.7-4.8,4.8-7.5,6.4c-0.4,0-0.5-0.2-0.2-0.5c4.7-3.2,8.2-7.9,10.4-14l2.1,0.9c0.8,0.3,0.5,0.6-0.8,0.8
				c-0.4,0.7-0.8,1.4-1.2,2h7.6l0.7-0.9l2,1.3c0.5,0.5,0.2,0.8-0.9,0.8c-2.7,4-5.5,7.4-8.6,10.1h9.9l0.7-0.9l1.6,1.2
				c0.5,0.4,0.3,0.7-0.5,0.8v8.9c-1,0.9-1.5,1-1.5,0.1v-1.3h-10.4v2.2c-1,0.9-1.5,1-1.5,0.1v-9.9c-2.9,2.4-6.3,4-10.2,5.1
				c-0.4,0-0.5-0.2-0.2-0.5c3.8-1.3,7.3-3.3,10.5-6.1v-0.6L341.3,60.9z M341.3,50.9c-0.7,1.3-1.4,2.4-2.1,3.3c2,0.5,3.3,1.1,4,1.8
				c0.5,0.5,0.8,1.1,1.1,1.9c1.7-2,3.4-4.3,5.1-6.9L341.3,50.9L341.3,50.9z M352.7,69.6v-7.4h-10.4v7.4H352.7z"/>
			<path class="st0" d="M375.9,50.9h9.1l1.5-1.5l1.9,1.4c0.5,0.4,0.5,0.7,0,0.8h-12.5v3.1h7.3l1.3-1.3l1.6,1.2
				c0.5,0.4,0.5,0.7,0,0.8h-21.2v-0.7h9.4v-3.1h-12.5v-0.7h12.6v-4.5l2,0.4c0.6,0.4,0.5,0.7-0.5,0.8V50.9z M367.9,63.3v1.2
				c0,3.2-1.8,6.1-5.3,8.7c-0.4,0.2-0.5,0-0.4-0.4c2.7-2.5,4.1-5.3,4.1-8.4v-7.4l1.8,0.9h14.2l0.7-0.9l1.6,1.2
				c0.5,0.4,0.3,0.7-0.5,0.8v5.6c-1,0.9-1.5,1-1.5,0.1v-1.4H367.9z M374.6,58.7h-6.7v3.9h6.7V58.7z M382.7,58.7h-6.6v3.9h6.6V58.7z"
				/>
			<path class="st0" d="M416.7,56.7c0.3,0.2,0.5,0.4,0.5,0.6c0,0.2-0.2,0.4-0.5,0.6c-1.7,0.5-5.1,2-10.2,4.2c0,1.6,0,3.3,0,4.9
				c0,0.7-0.3,1.1-0.9,1.1c-0.3,0-0.5-0.2-0.5-0.7c0-1.5,0-3,0-4.6c-2.1,0.9-3.8,2.1-5.2,3.4c-0.7,0.7-1.1,1.4-1.1,2
				c0,0.5,0.2,1,0.6,1.4c0.7,0.7,2.4,1.1,4.9,1.1s4.7-0.2,6.5-0.6c0.5-0.2,1-0.4,1.3-0.4c0.9,0,1.3,0.4,1.3,1.2
				c0,0.3-0.2,0.5-0.7,0.6c-1.3,0.3-3.9,0.5-7.8,0.5c-3.1,0-5.1-0.5-6.1-1.5c-0.6-0.6-0.9-1.3-0.9-2c0-1,0.5-2,1.4-2.9
				c1.3-1.3,3.2-2.5,5.8-3.9c0-1.3-0.3-2.2-0.8-2.7c-0.3-0.3-0.8-0.5-1.5-0.5c-2,0-4.3,1.7-7.1,5.1c-0.2,0.2-0.5,0.4-0.7,0.4
				c-0.4,0-0.6-0.4-0.6-1.1s0.2-1.1,0.5-1.3c0.6-0.3,1.3-0.8,1.9-1.5c1.4-1.4,2.9-3.6,4.6-6.5c-0.6,0.1-1.5,0.2-2.7,0.2
				c-0.6,0.1-1.2,0.1-1.6,0.1c-0.3,0-0.7-0.3-1.3-0.8c-0.5-0.4-0.7-0.9-0.7-1.4c0.2-0.3,0.3-0.3,0.5,0.1c0.5,0.7,1.4,1.1,2.7,1.1
				c1.3,0,2.5-0.1,3.6-0.2c0.6-1.2,1-2.1,1.1-2.8c0.2-1.1-0.4-1.8-1.8-2c-0.5-0.1-0.6-0.2-0.1-0.5c1.4-0.2,2.8,0.3,4.2,1.3
				c0.4,0.3,0.4,0.7-0.1,1.1c-0.4,0.3-1.1,1.3-2,2.9c1.7-0.3,3.1-0.7,4.2-1.2c0.4-0.2,0.7-0.4,0.9-0.4s0.5,0.2,0.8,0.5
				c0.2,0.1,0.2,0.3,0.2,0.6c0,0.2-0.2,0.4-0.7,0.5c-1.9,0.3-3.9,0.6-6,0.9c-1,1.6-2.1,3.1-3.2,4.7c-0.2,0.4-0.2,0.5,0.2,0.4
				c1.3-0.6,2.3-0.9,3.2-0.9c1.1,0,1.9,0.3,2.5,0.8c0.7,0.7,1.1,1.6,1.2,2.6c3.9-1.9,6.4-3.1,7.5-3.8c0.4-0.2,0.5-0.4,0.2-0.6
				c-0.5-0.3-1-0.5-1.6-0.7c-0.5-0.2-0.5-0.3,0-0.5C413.8,55.4,415.2,55.8,416.7,56.7z"/>
			<path class="st0" d="M421.6,52.1h7.9l1.3-1.3l1.6,1.2c0.5,0.4,0.5,0.7,0,0.8h-10.8V52.1z M422.6,59.8h5.5l1.3-1.3l1.6,1.2
				c0.5,0.4,0.5,0.7,0,0.8h-8.5v-0.7H422.6z M422.7,48.6h5.6l1.3-1.3l1.6,1.2c0.5,0.4,0.5,0.7,0,0.8h-8.6v-0.7H422.7z M422.7,56h5.5
				l1.3-1.3l1.6,1.2c0.5,0.4,0.5,0.7,0,0.8h-8.5V56H422.7z M428,63.5l0.7-0.9l1.6,1.2c0.5,0.4,0.3,0.7-0.5,0.8v6.7
				c-1,0.9-1.5,1-1.5,0.1v-1.2h-3.8v2.1c-1,0.9-1.5,1-1.5,0.1v-9.8l1.8,0.8h3.2V63.5z M424.6,69.5h3.8v-5.3h-3.8V69.5z M441.8,60
				h2.8l1.5-1.5l1.9,1.4c0.5,0.4,0.5,0.7,0,0.8h-6.2v9.6h3.6l1.8-1.8l2.2,1.6c0.5,0.4,0.5,0.7,0,0.8h-18.2v-0.7h3.3V56.1l2.1,0.4
				c0.9,0.3,0.7,0.6-0.6,0.9v12.9h4.2V50.8H433v-0.7h11.5l1.5-1.5l1.9,1.4c0.5,0.4,0.5,0.7,0,0.8h-6.1V60z"/>
			<path class="st0" d="M476.2,50.9l2.4,1.8c0.5,0.4,0.5,0.7,0,0.8h-26.8v-0.7h22.6L476.2,50.9z M456.4,56.8h14.4l1.5-1.5l1.9,1.4
				c0.5,0.4,0.5,0.7,0,0.8h-17.8V56.8z M456.4,61.3v-0.7h14.4l1.5-1.5l1.9,1.4c0.5,0.4,0.5,0.7,0,0.8H456.4z M472.2,70.9h-14.4v1.6
				c-1,0.9-1.5,1-1.5,0.1v-9.2l1.8,0.9h13.8l0.7-0.9l1.6,1.2c0.5,0.4,0.3,0.7-0.5,0.8v6.5c-1,0.9-1.5,1-1.5,0.1V70.9z M457.2,48.8
				h12L471,47l2.2,1.6c0.5,0.4,0.5,0.7,0,0.8h-16V48.8z M457.9,70.2h14.4v-5.1h-14.4V70.2z"/>
			<path class="st0" d="M489.8,55.2c0-1.3,0-2.5,0.1-3.9c0.1-1.3-0.6-2-2.1-2.1c-0.5-0.2-0.5-0.3-0.1-0.5c0.5-0.1,0.9-0.1,1.3-0.1
				c0.9,0,1.9,0.4,2.9,1.2c0.3,0.2,0.3,0.6,0,1.1c-0.2,0.2-0.3,0.7-0.5,1.4s-0.2,1.6-0.2,2.6c0,3.6,0,7.2,0,10.7
				c0,1.4,0.2,2.4,0.7,2.9c0.7,0.8,1.9,1.2,3.5,1.2c2.3,0,4.3-0.5,6-1.4c1.9-1,4-2.5,6.2-4.5c0.3-0.2,0.4-0.1,0.4,0.2
				c-2.1,2.5-4.2,4.4-6.4,5.5c-1.8,1-4,1.5-6.5,1.5c-1.8,0-3.2-0.5-4.2-1.6c-0.8-0.9-1.2-2.1-1.2-3.8
				C489.8,62.2,489.8,58.7,489.8,55.2z"/>
			<path class="st0" d="M534.4,49.6c0.5-0.4,1-0.4,1.5,0c0.9,0.6,1.3,1,1.4,1.1c0.4,0.4,0.3,0.7-0.2,0.8c-4.9-0.2-8.4,0.8-10.5,2.9
				c-2,2-3.1,4.1-3.1,6.1c0,2.4,0.8,4.3,2.4,5.9c1.6,1.6,3.5,2.5,5.6,2.6c0.8,0,1.3,0.2,1.5,0.5c0.3,0.4,0.5,0.7,0.5,1.1
				s-0.3,0.6-0.9,0.6c-2.2,0-4.3-0.8-6.4-2.5c-2.4-2-3.6-4.5-3.6-7.8c0-3,1.5-5.7,4.6-8.1c0.4-0.3,0.4-0.5,0-0.5
				c-2.4,0.5-4.7,0.9-6.9,1.4c-0.9,0.2-1.9,0.5-2.8,0.9c-0.7,0.3-1.2,0.4-1.4,0.4c-0.4-0.1-0.8-0.3-1.2-0.6c-0.9-0.6-1.3-1.3-1.4-2
				c0.2-0.5,0.3-0.6,0.5-0.1c0.4,0.7,1.2,1,2.5,0.9c0.6,0,1.7-0.2,3.2-0.5c4.1-0.7,8.2-1.5,12.2-2.2C533,50.3,533.9,50,534.4,49.6z"
				/>
			<path class="st0" d="M545,54.1c0-1.8-0.5-2.9-1.6-3.4c-0.3-0.2-0.3-0.3,0.1-0.4c0.9,0.1,1.9,0.5,2.8,1.3c0.8,0.6,0.9,1.3,0.4,1.9
				c-0.2,2-0.4,3.7-0.4,5.1c0,3.6,0.4,6.1,1.3,7.5c0.5,0.7,0.9,0.7,1.3,0c1.3-2.3,2.8-4.7,4.4-7.4c0.3-0.4,0.5-0.3,0.5,0.2
				c-1.2,2.5-2.2,4.8-3.2,6.9c-0.5,1.1-0.7,2-0.5,2.7c0.3,1,0,1.4-0.8,1.1c-1.3-0.5-2.4-1.7-3.3-3.8c-0.6-1.5-0.9-3.3-0.9-5.4
				C545,58.3,545,56.2,545,54.1z M565,54.9c2.3,2.5,3.4,5,3.4,7.4c0,0.9-0.4,1.3-1.1,1.3c-0.5,0-0.9-0.3-0.9-0.9
				c-0.2-2-0.8-3.9-1.8-5.6c-0.9-1.6-2.1-3.2-3.8-4.6c-0.2-0.2-0.2-0.4,0.2-0.4C562.7,53,564,53.9,565,54.9z"/>
			<path class="st0" d="M587,53.1c1.8-0.2,3.3-0.4,4.6-0.7c0.7-0.2,1.3-0.4,1.6-0.7c0.4-0.3,0.7-0.4,1.1-0.1
				c0.5,0.3,0.8,0.5,0.9,0.7c0.4,0.4,0.3,0.7-0.4,0.8c-2.3,0.5-4.9,0.9-7.9,1.2c0,1.7,0,3.5,0,5.2c1.6-0.2,2.8-0.3,3.6-0.5
				c1.1-0.2,1.8-0.4,2.1-0.6c0.4-0.2,0.7-0.2,1.1,0c0.4,0.2,0.7,0.4,0.9,0.6c0.3,0.2,0.2,0.5-0.2,0.7c-0.2,0.2-0.9,0.3-1.9,0.4
				c-2,0.2-3.9,0.4-5.6,0.5c0,1.9,0,3.7,0,5.5c3.1,0.6,5.8,1.5,8.1,2.6c0.7,0.3,1.1,0.9,1.1,1.6c0,0.3-0.2,0.5-0.5,0.6
				c-0.2,0.1-0.6,0-1.1-0.4c-2.6-1.6-5.1-2.7-7.6-3.3c0.1,1.3-0.2,2.4-0.8,3.1c-0.9,0.9-2.4,1.4-4.5,1.4c-1.9,0-3.3-0.5-4.2-1.4
				c-0.5-0.5-0.7-1-0.7-1.6c0-0.7,0.3-1.3,0.9-1.8c1-0.8,2.7-1.2,5.2-1.2c0.5,0,1.5,0,2.8,0.1c0-1.7,0-3.5,0-5.2
				c-1.2,0.1-2.4,0.1-3.6,0.1c-1.3,0-2.3-0.2-2.9-0.6c-0.9-0.5-1.3-1.6-1.2-3.3c0.2-0.3,0.4-0.3,0.6,0c0,1.1,0.2,1.8,0.6,2.2
				c0.5,0.5,1.5,0.7,2.9,0.7c1.3,0,2.5-0.1,3.6-0.2c0-1.7,0-3.5,0-5.2c-1.5,0.2-3.2,0.2-5.2,0.2c-1.4,0-2.5-0.1-3.4-0.4
				c-1.2-0.3-2.2-0.9-2.9-1.9c-0.2-0.5-0.1-0.6,0.4-0.4c0.8,0.7,1.6,1.2,2.5,1.4c0.5,0.2,1.8,0.2,3.9,0.2c1.6,0,3.2-0.1,4.8-0.4
				c0-0.6,0-1.3,0-2c0-1.3-0.1-2.2-0.4-2.5c-0.4-0.5-1.1-0.8-2-0.8c-0.5,0.1-0.6-0.1-0.1-0.5c0.4-0.2,0.9-0.2,1.5-0.2
				c0.8,0,1.7,0.3,2.8,0.9c0.5,0.3,0.5,0.7,0,1.2c-0.4,0.3-0.6,0.9-0.6,1.8C587,51.8,587,52.4,587,53.1z M582.1,66.5
				c-1.5,0-2.6,0.2-3.4,0.6c-0.8,0.4-1.2,0.9-1.2,1.6c0,0.6,0.4,1.1,1.2,1.5s1.7,0.6,2.7,0.6c1.4,0,2.5-0.4,3.3-1.1
				c0.6-0.5,0.9-1.5,0.8-2.9C583.8,66.6,582.7,66.5,582.1,66.5z"/>
			<path class="st0" d="M617.8,53.3c3.5-0.2,5.9-0.4,7.1-0.6c0.5-0.1,1.3-0.2,2.4-0.5c0.4-0.1,0.8,0,1.2,0.4
				c0.9,0.7,1.3,1.2,1.4,1.4c0.2,0.5-0.1,0.6-0.7,0.5c-1.6-0.4-3.6-0.6-6-0.6c-1.5,0-3.3,0.1-5.3,0.2c0,1.7,0,3.4,0,5.1
				c0.2,0.8,0.4,1.9,0.4,3.3c0,4.9-2.2,8.5-6.5,10.7c-0.4,0.1-0.5,0-0.2-0.4c0.9-0.7,1.8-1.5,2.5-2.2c1.7-2,2.6-4.3,2.7-7.1
				c-0.6,0.9-1.5,1.4-2.5,1.4c-0.9,0-1.6-0.4-2.4-1.1c-0.5-0.5-0.8-1.4-0.8-2.5s0.4-2,1.2-2.8c0.6-0.6,1.4-0.9,2.4-0.9
				c0.7,0,1.3,0.2,1.9,0.5c0-1.3,0-2.5,0-3.9c-4.2,0.6-7.3,1.3-9.3,1.9c-0.8,0.2-1.3,0.4-1.6,0.6c-0.5,0.2-0.9,0.2-1.3-0.1
				c-0.9-0.6-1.5-1.5-1.9-2.7c0-0.4,0.2-0.4,0.5-0.1c0.4,0.7,1.1,1.1,2.2,1.1c1.1,0,2.8-0.2,5.1-0.6c1.8-0.3,3.9-0.6,6.4-0.8
				c0-1,0-2.1,0-3.2c0-1.8-0.8-2.8-2.4-2.9c-0.3-0.2-0.3-0.3,0-0.5c1.3-0.2,2.4,0,3.2,0.6c0.4,0.2,0.7,0.6,1.1,1.1
				c0.3,0.4,0.3,0.7-0.1,0.8C617.9,49.5,617.8,50.9,617.8,53.3z M612.6,59.2c-0.4,0.5-0.6,1.2-0.6,2c0,1.3,0.3,2.2,0.9,2.7
				c0.2,0.2,0.6,0.4,1.2,0.4c0.5,0,1-0.2,1.3-0.5c0.7-0.7,1.1-1.7,1.1-2.9c0-1.7-0.7-2.6-2-2.6C613.6,58.2,613,58.5,612.6,59.2z"/>
			<path class="st0" d="M639.5,69.9c0,1.1-0.4,2-1.1,2.7s-1.6,1.1-2.7,1.1c-1.1,0-2-0.4-2.7-1.1s-1.1-1.6-1.1-2.7s0.4-2,1.1-2.7
				s1.6-1.1,2.7-1.1c1.1,0,2,0.4,2.7,1.1S639.5,68.8,639.5,69.9z M638.7,69.9c0-0.9-0.3-1.6-0.8-2.1s-1.3-0.8-2.1-0.8
				c-0.9,0-1.6,0.3-2.1,0.8s-0.8,1.3-0.8,2.1s0.3,1.6,0.8,2.1s1.3,0.8,2.1,0.8c0.9,0,1.6-0.3,2.1-0.8
				C638.4,71.4,638.7,70.7,638.7,69.9z"/>
		</g>
		<g>
			<path class="st0" d="M223.3,27.8c0.8,0,1.3-0.2,1.7-0.5c0.3-0.3,0.5-0.9,0.5-1.7v-2.4h-11.6v-1l12.3-15.8h1.7v15.3h3.5v1.5h-3.5
				v2.4c0,0.8,0.2,1.3,0.5,1.7c0.4,0.3,1,0.5,1.7,0.5h1.2v0.8h-9.1v-0.8H223.3z M215.4,21.6h10V8.9h-0.1l-9.9,12.6V21.6z"/>
		</g>
	</g>
</g>
</svg>
