<?xml version="1.0" encoding="utf-8"?>
<!-- Generator: Adobe Illustrator 25.0.1, SVG Export Plug-In . SVG Version: 6.00 Build 0)  -->
<svg version="1.1" id="レイヤー_1" xmlns="http://www.w3.org/2000/svg" xmlns:xlink="http://www.w3.org/1999/xlink" x="0px"
	 y="0px" viewBox="0 0 740.4 75.6" style="enable-background:new 0 0 740.4 75.6;" xml:space="preserve">
<style type="text/css">
	.st0{fill:#FFFFFF;}
</style>
<g>
	<path class="st0" d="M15.4,22.1c0,1.8-0.6,3.2-1.9,4.2c-1.3,1-3.2,1.6-5.6,1.6c-1.9,0-3.6-0.4-4.9-1.3c-1.3-0.8-1.9-1.8-1.9-3
		c0-0.6,0.2-1.2,0.5-1.6c0.4-0.3,0.8-0.5,1.3-0.5c0.6,0,1,0.2,1.2,0.5c0.2,0.4,0.4,0.8,0.4,1.1c0,0.2,0,0.4-0.1,0.6
		C4.2,23.8,4,24,3.9,24.1c-0.1,0.1-0.2,0.2-0.2,0.4c-0.1,0.2-0.1,0.3-0.1,0.5c0,0.3,0.4,0.7,1.1,1.2c0.7,0.6,1.7,0.8,3,0.8
		c1.7,0,3-0.5,4-1.4c1-0.9,1.4-2.1,1.4-3.7c0-1.6-0.5-2.8-1.6-3.6c-1-0.8-2.2-1.2-3.8-1.2H5.1v-0.7h2.6c1.1,0,2.2-0.3,3.1-1
		c1-0.6,1.4-1.8,1.4-3.5c0-1.3-0.4-2.3-1.2-3.1C10.4,8,9.3,7.6,7.8,7.6C6.7,7.6,5.8,7.8,5,8.2c-0.9,0.5-1.1,1-0.7,1.6
		c0.2,0.4,0.4,0.7,0.4,0.8c0.1,0.2,0.1,0.5,0.1,0.7c0,0.4-0.2,0.7-0.5,1c-0.2,0.2-0.6,0.4-1,0.4c-0.5,0-0.9-0.1-1.2-0.4
		c-0.3-0.2-0.5-0.7-0.5-1.3c0-1.1,0.5-2.1,1.6-2.9c1-0.8,2.6-1.2,4.8-1.2c2.2,0,3.9,0.5,4.9,1.4c1.1,1,1.7,2.2,1.7,3.6
		c0,1.5-0.4,2.6-1.3,3.4c-1,0.8-2,1.3-3.2,1.4v0.1c1.8,0.2,3.1,0.8,4,1.7C14.9,19.4,15.4,20.6,15.4,22.1z"/>
	<path class="st0" d="M37.6,25.9c5.5-0.8,9.2-2.2,10.9-4.3c1-1.1,1.4-2.5,1.4-4.1c0-1.9-0.8-3.4-2.3-4.6c-1.5-1.1-3.3-1.7-5.4-1.7
		c-3.2,0-6.7,1.5-10.6,4.4c-0.7,0.6-1.4,1.1-2,1.7c-0.4,0.4-0.9,0.5-1.6,0.2c-0.6-0.2-1.2-0.5-1.7-0.8c-0.6-0.4-1-0.9-1.2-1.6
		c0-0.4,0.2-0.4,0.5-0.1c0.4,0.6,1,0.8,1.7,0.8c0.8,0,1.4-0.1,1.8-0.4c0.7-0.4,1.6-1,2.6-1.7c3.5-2.4,7-3.6,10.4-3.6
		c3,0,5.4,0.8,7.2,2.5c1.4,1.3,2.2,3,2.2,5.2c0,1.6-0.6,3.1-1.8,4.6c-1.9,2.3-6,3.6-12.2,3.8C37.1,26.2,37.1,26.1,37.6,25.9z"/>
	<path class="st0" d="M70.2,10c0.6,0.6,0.4,0.9-0.4,1.1c-2,5.7-4,9.9-5.9,12.6c-0.5,0.7-1,1.3-1.6,1.7c-0.9,0.6-1.5,0.6-1.8-0.2
		c-1-0.3-1.8-0.9-2.3-1.8c-0.6-1.1-1-2.4-1-4c0-3.2,1-5.8,3-7.8c2.6-2.6,5.8-4,9.6-4c4,0,7.1,1.1,9.4,3.4c1.6,1.6,2.4,3.6,2.4,6
		c0,2.2-0.8,4.1-2.3,5.8c-2.2,2.4-5.4,4-9.7,4.7c-0.3-0.2-0.3-0.3,0-0.5c3.6-0.9,6.4-2.4,8.3-4.7c1.3-1.5,1.9-3.3,1.9-5.4
		c0-2.2-0.6-3.9-1.7-5.2C76,9.1,72.7,8,68.2,8.4C68.9,8.8,69.6,9.3,70.2,10z M68.1,10.7c0.2-1,0-1.7-0.6-2.2
		c-2.1,0.3-3.9,1.3-5.5,2.9c-2.1,2.1-3.1,4.5-3.1,7.3c0,2.4,0.4,4,1.3,4.9c0.4,0.4,0.8,0.6,1.2,0.6c0.3,0,0.7-0.2,1.2-0.7
		C64.9,20,66.7,15.7,68.1,10.7z"/>
	<path class="st0" d="M89.9,28.1c1.5,0.2,2.5-0.5,3-1.9c0.5-1.4,0.8-4.2,1-8.4h-5l-0.1,1.7c-1,0.9-1.6,1-1.7,0.4l1-9.1l1.3,0.7h4.3
		V6.1h-6.5V5.4h6.1l0.8-1.1L96,5.6c0.6,0.5,0.4,0.8-0.8,1v6.8c-1,1-1.6,1-1.6,0.1v-1.4h-4.3L88.8,17h4.8l0.7-1l1.8,1.3
		c0.6,0.3,0.3,0.6-1,1c-0.2,6.2-0.9,9.7-2.3,10.7c-0.5,0.4-1.1,0.7-1.8,1c-1,0.4-1.6,0.3-1.6-0.2c0-0.5-0.2-0.8-0.6-1L87.1,28
		c-0.3-0.3-0.3-0.5,0.1-0.5L89.9,28.1z M103.9,10.9l-5.3,0.6c-0.4,1.4-0.8,1.6-1.2,0.7l-0.8-2h3.8l3.1-7l2.4,1.1
		c0.4,0.5,0,0.7-1.2,0.6l-3.6,5.3l8.9-0.6c-0.6-0.8-1.3-1.6-2.3-2.4c-0.2-0.3-0.2-0.4,0.2-0.4c3.3,1.8,4.9,3.4,4.9,4.8
		c0,0.6-0.2,1-0.7,1c-0.5,0-0.9-0.4-1.2-1.1c-0.2-0.4-0.4-0.8-0.6-1.3l-5.9,0.7l2,0.6c0.4,0.4,0,0.7-1.1,0.8v2.4h4.6l0.7-0.8
		l1.6,1.1c0.5,0.4,0.3,0.7-0.5,0.8v5.9c-1,1-1.6,1-1.6,0.1v-1h-4.8v5.8l5.3-0.7c-0.6-1.1-1.5-2.1-2.5-2.9c-0.4-0.3-0.3-0.4,0.2-0.4
		c1.4,0.6,2.5,1.3,3.4,2.2c1.4,1.4,2,2.6,2,3.6c0,0.7-0.3,1.1-0.8,1.1c-0.4,0-0.7-0.3-1-1s-0.5-1.3-0.8-1.9l-12.4,2.2
		c-0.2,1.1-0.5,1.4-1,1l-1.2-2.3l7.2-0.7v-5.9h-4.1v1.4c-1,1-1.6,1-1.6,0.1v-8.6l1.8,1h3.8V10.9z M103.9,20.2v-4.7h-4.1v4.7H103.9z
		 M105.5,15.5v4.7h4.8v-4.7H105.5z"/>
	<path class="st0" d="M142.9,23c-1.2-0.6-3-1.4-5.4-2.4c-1.9,4.9-4.5,8.1-7.8,9.7c-0.4,0.2-0.5,0.1-0.4-0.2c3-2.3,5.3-5.6,6.8-10
		c-3.3-1.1-6.5-1.7-9.6-1.8c-1.3,2.8-2.4,4.7-3.5,5.8c-0.9,0.9-1.8,1.3-2.9,1.3c-0.8,0-1.4-0.2-1.8-0.6c-0.5-0.5-0.7-1.1-0.7-1.9
		c0-0.7,0.3-1.4,1-2.2c1.5-1.7,3.8-2.7,7-3.1c1.2-2.7,2.5-6.1,4-10.1c0.2-0.4,0-0.6-0.4-0.6c-1.4,0.5-2.7,0.9-4,1.3
		c-0.9,0.2-1.5,0.5-1.8,0.8c-0.5,0.4-0.9,0.4-1.3-0.1c-1-1.1-1.4-2-1.4-2.6c-0.1-0.4,0-0.5,0.4-0.2c0.5,1,1.1,1.4,1.8,1.4
		c0.4,0,0.9-0.1,1.6-0.2c1.8-0.4,3.7-0.8,5.5-1.3l0.5-0.6c0.9,0.2,1.5,0.6,1.9,1c0.4,0.4,0.2,0.7-0.5,1c-0.4,0.2-0.8,0.7-1.2,1.6
		c-1.2,3-2.4,5.8-3.7,8.6c3.5,0.1,6.7,0.6,9.6,1.4c0.2-0.5,0.5-1.4,0.8-2.6c0.1-0.3,0.2-1,0.2-1.9c0.1-1-0.4-1.6-1.3-1.9
		c-0.5-0.2-0.5-0.3,0-0.5c1.3,0,2.5,0.5,3.7,1.6c0.6,0.5,0.6,0.8,0,1.1c-0.5,0.2-0.8,0.7-1.1,1.6c-0.4,1.4-0.8,2.4-1.1,3.1
		c3.5,1.1,5.5,1.8,6,2.2c0.4,0.2,0.6,0.6,0.6,1.2c0,0.5-0.2,0.7-0.6,0.7C143.6,23.4,143.3,23.3,142.9,23z M119.8,21
		c-0.6,0.6-1,1.4-1,2.2c0,1,0.5,1.6,1.4,1.6c0.7,0,1.4-0.4,2.2-1.1c0.6-0.6,1.6-2.4,2.9-5.2C122.7,19,120.9,19.9,119.8,21z"/>
	<path class="st0" d="M157.6,12.5c-1.8,4.2-3.7,8.5-5.6,12.7c-0.2,0.4-0.6,1.2-1.1,2.4c-0.2,0.6-0.5,1-0.8,1c-0.2,0-0.4-0.2-0.6-0.6
		c-0.1-0.2-0.1-0.5-0.1-1c0-0.7,0.2-1.3,0.7-1.8s1-1.4,1.7-2.6c1.8-3.4,3.3-6.7,4.7-9.8c-2.4,0.5-3.9,0.9-4.6,1.2
		c-0.5,0.2-0.9,0.2-1.3-0.1c-0.8-0.6-1.2-1.4-1.2-2.5c0.1-0.2,0.2-0.2,0.4,0c0.4,0.9,1,1.3,1.9,1.3c0.6,0,2.3-0.2,5.2-0.7
		c0.4-0.9,0.8-1.8,1.2-2.8c0.4-1.1,0.4-2-0.1-2.5c-0.4-0.5-1-0.8-1.9-0.8c-0.3-0.2-0.3-0.3,0-0.5c0.8,0,1.4,0,1.7,0.1
		c0.9,0.2,1.6,0.7,2.3,1.3c0.7,0.7,0.7,1.2-0.1,1.3c-0.6,1.3-1.2,2.5-1.8,3.7c1.1-0.2,1.9-0.2,2.3-0.2c1,0,1.8,0.3,2.3,0.8
		c0.7,0.9,1.1,2.4,1.1,4.4c0,6.2-1.5,10-4.4,11.5c-0.8,0.4-1.2,0.2-1.2-0.5c0-0.6-0.2-1-0.5-1.2c-0.7-0.6-1.5-1.2-2.4-1.8
		c-0.2-0.3-0.1-0.4,0.2-0.4c0.9,0.5,1.8,1,2.8,1.4c0.8,0.4,1.5,0.2,2.2-0.7c0.7-1,1.2-2.3,1.6-3.8c0.4-1.9,0.6-3.7,0.6-5.3
		c0-1.4-0.1-2.4-0.4-2.9c-0.3-0.6-0.9-1-1.8-1C159.3,12.2,158.4,12.3,157.6,12.5z M168.1,11.2c1.4,0.6,2.8,1.4,4.3,2.6
		c2,1.6,3.1,3.6,3.4,5.9c0.1,0.8,0,1.4-0.4,1.8c-0.5,0.6-1,0.6-1.4-0.1c-0.5-0.8-1.1-1.2-1.8-1.1c-1.1,0.1-2.3,0.2-3.5,0.2
		c-0.5-0.1-0.5-0.2-0.1-0.5c1.3-0.2,2.6-0.4,4.1-0.6c0.6-0.1,0.8-0.3,0.7-0.7c-0.2-1.3-0.8-2.6-1.8-4c-1-1.3-2.2-2.4-3.7-3.2
		C167.5,11.2,167.6,11.1,168.1,11.2z"/>
	<path class="st0" d="M195.1,16.3c2.7,0,4.8,0.7,6.1,2c1,1,1.6,2.3,1.6,3.7c0,1.6-0.6,3-1.7,4.1c-2.3,2.2-6.7,3.3-13.2,3.2
		c-0.5-0.2-0.5-0.5,0-0.7c5.8-0.2,9.8-1.3,11.9-3.4c0.9-0.9,1.3-2,1.3-3.5c0-1.3-0.3-2.2-1-2.9c-1.3-1.3-2.9-1.9-4.8-1.9
		c-2.7,0-5,1-7,2.9c-1.2,1.2-1.9,2.4-2.2,3.5c-0.2,0.7-0.5,0.9-1.1,0.6c-0.9-0.5-1.3-1.5-1.2-3c0.1-2,0.3-3.8,0.6-5.4
		c0.2-0.9,0.2-1.8,0.2-2.6c0-0.6-0.1-1-0.4-1.4c-0.2-0.4-0.2-0.8,0.1-1.3c0.6-1,1.7-1.6,3.2-1.9c0.7-0.2,1.7-0.2,2.9-0.2
		c0.2,0,0.2-0.1,0.1-0.2c-0.1-0.2-0.4-0.4-0.8-0.5c-1.8-0.3-3.1-1.4-4-3.2c0.1-0.2,0.2-0.3,0.4-0.1c1,1.2,2.6,2,5,2.5
		c1.5,0.3,2.4,1.1,2.5,2.4c0.1,0.7-0.2,0.9-1,0.6c-1-0.5-1.9-0.7-2.6-0.7c-2.2,0-3.8,0.4-4.7,1.3c-0.6,0.6-0.6,1.1,0,1.7
		c0.5,0.5,0.6,1.1,0.4,1.9c-0.5,1.6-0.7,4-0.6,7.1c0,0.5,0.2,0.5,0.5,0C188.7,17.8,191.8,16.3,195.1,16.3z"/>
	<path class="st0" d="M227.6,12c0-1.3-0.4-2.3-1.2-3.1c-0.7-0.7-1.8-1.1-3.2-1.1c-1.5,0-2.7,0.3-3.5,1c-0.7,0.6-1.1,1.2-1.1,1.6
		c0,0.2,0,0.4,0,0.6c0.1,0.2,0.2,0.3,0.2,0.4c0.2,0.3,0.4,0.6,0.6,0.8c0.2,0.3,0.2,0.6,0.2,1c0,0.5-0.2,0.8-0.5,1.1
		c-0.3,0.2-0.7,0.4-1.2,0.4c-0.6,0-1-0.2-1.3-0.7c-0.3-0.4-0.5-0.9-0.5-1.6c0-1.2,0.6-2.4,1.9-3.6c1.2-1.1,2.9-1.7,5.2-1.7
		c2.2,0,3.8,0.5,4.9,1.4c1.2,1,1.8,2.2,1.8,3.7c0,2.2-1.2,4.1-3.6,5.9c-2.4,1.8-4,3.1-4.9,3.8c-1.4,1.1-2.2,1.9-2.6,2.4
		c-0.5,0.6-0.9,1.1-1.2,1.6h8c1.2,0,2.2-0.4,2.9-1.1c0.7-0.7,1.2-1.6,1.6-2.5l0.6,0.2l-1.4,5.3H216v-1.3c0.6-1,1.4-2,2.3-3
		c0.7-0.8,1.7-1.7,3-2.8c1.2-1,2.6-2.3,4.1-3.7C226.9,15.6,227.6,13.9,227.6,12z"/>
	<path class="st0" d="M252.6,25.9c5.5-0.8,9.2-2.2,10.9-4.3c1-1.1,1.4-2.5,1.4-4.1c0-1.9-0.8-3.4-2.3-4.6c-1.5-1.1-3.3-1.7-5.4-1.7
		c-3.2,0-6.7,1.5-10.6,4.4c-0.7,0.6-1.4,1.1-2,1.7c-0.4,0.4-0.9,0.5-1.6,0.2c-0.6-0.2-1.2-0.5-1.7-0.8c-0.6-0.4-1-0.9-1.2-1.6
		c0-0.4,0.2-0.4,0.5-0.1c0.4,0.6,1,0.8,1.7,0.8c0.8,0,1.4-0.1,1.8-0.4c0.7-0.4,1.6-1,2.6-1.7c3.5-2.4,7-3.6,10.4-3.6
		c3,0,5.4,0.8,7.2,2.5c1.4,1.3,2.2,3,2.2,5.2c0,1.6-0.6,3.1-1.8,4.6c-1.9,2.3-6,3.6-12.2,3.8C252.1,26.2,252.1,26.1,252.6,25.9z"/>
	<path class="st0" d="M285.2,10c0.6,0.6,0.4,0.9-0.4,1.1c-2,5.7-4,9.9-5.9,12.6c-0.5,0.7-1,1.3-1.6,1.7c-0.9,0.6-1.5,0.6-1.8-0.2
		c-1-0.3-1.8-0.9-2.3-1.8c-0.6-1.1-1-2.4-1-4c0-3.2,1-5.8,3-7.8c2.6-2.6,5.8-4,9.6-4c4,0,7.1,1.1,9.4,3.4c1.6,1.6,2.4,3.6,2.4,6
		c0,2.2-0.8,4.1-2.3,5.8c-2.2,2.4-5.4,4-9.7,4.7c-0.3-0.2-0.3-0.3,0-0.5c3.6-0.9,6.4-2.4,8.3-4.7c1.3-1.5,1.9-3.3,1.9-5.4
		c0-2.2-0.6-3.9-1.7-5.2c-2.2-2.6-5.6-3.6-10.1-3.2C283.9,8.8,284.6,9.3,285.2,10z M283.1,10.7c0.2-1,0-1.7-0.6-2.2
		c-2.1,0.3-3.9,1.3-5.5,2.9c-2.1,2.1-3.1,4.5-3.1,7.3c0,2.4,0.4,4,1.3,4.9c0.4,0.4,0.8,0.6,1.2,0.6c0.3,0,0.7-0.2,1.2-0.7
		C279.9,20,281.7,15.7,283.1,10.7z"/>
	<path class="st0" d="M309.7,16.3c0,2.3,0,4.6,0,7c0,1.3,0.6,1.9,1.9,1.9c1.8,0,3.4,0,5,0c1.4-0.1,2.6-0.3,3.6-0.6
		c0.5-0.3,0.9-0.5,1.2-0.5c0.6,0.2,1,0.5,1.3,0.7c0.3,0.2,0.5,0.5,0.5,0.8c0,0.2-0.2,0.3-0.7,0.4c-0.6,0.1-1.4,0.2-2.4,0.2
		c-0.9,0.1-2,0.2-3.4,0.2c-1.9,0-3.7,0-5.4,0c-2.1,0-3.1-1-3.1-3c0-1.8,0-6.6,0-14.2c0-0.8-0.6-1.3-1.9-1.6c-0.5-0.2-0.5-0.4,0-0.6
		c0.6-0.1,1.4,0,2.2,0.2c0.9,0.2,1.6,0.6,2,1.1c0.2,0.2,0.4,0.4,0.4,0.6c0,0.2-0.2,0.3-0.5,0.4c-0.4,0.1-0.6,0.6-0.7,1.7
		c0,1,0,2.4,0,4.3c4-0.9,7.2-2,9.7-3.2c0.4-0.4,0.2-0.8-0.7-1.3c-0.2-0.2-0.2-0.3,0.2-0.4c1,0.1,1.9,0.5,2.8,1.2
		c0.8,0.6,1.2,1.1,1.2,1.3c0,0.2-0.3,0.3-1,0.2c-0.6,0.2-1.2,0.3-1.8,0.5C316.6,15,313.1,15.8,309.7,16.3z M326,10.7
		c0,0.6-0.2,0.8-0.7,0.8c-0.3,0-0.8-0.6-1.6-1.7c-0.3-0.5-1.1-1.2-2.4-2.3c-0.2-0.2-0.1-0.3,0.1-0.4c1.1,0.3,2.3,0.9,3.5,1.7
		C325.6,9.4,326,10,326,10.7z M328.5,8.8c-0.4,0-0.7-0.2-1-0.7c-0.4-0.8-1.4-1.6-3.1-2.4c-0.2-0.2-0.2-0.4,0.1-0.4
		c1.8,0.2,3.1,0.6,3.8,1.2c0.5,0.4,0.7,0.9,0.7,1.6C329.1,8.5,328.9,8.8,328.5,8.8z"/>
	<path class="st0" d="M340.6,17.2c-0.2,0.2-0.4,0.2-0.6,0.2c-0.3,0-0.8-0.4-1.3-1.1c-1-1.2-2.3-2-4.1-2.5c-0.5-0.2-0.5-0.4,0-0.5
		c2.4,0,4.2,0.6,5.5,1.8c0.5,0.5,0.7,1,0.7,1.4C340.9,16.8,340.8,17,340.6,17.2z M341.6,27.5c-0.2,0.3-0.4,0.5-0.6,0.5
		c-0.2,0-0.6-0.2-1.3-0.6c-0.6-0.3-1-0.7-1.4-1.1c-0.6-0.6-0.9-1.5-0.8-2.6c0-0.4,0.2-0.4,0.5-0.1c0.4,1.2,1,1.8,1.8,1.8
		c0.7,0,1.7-0.3,2.9-1c6.6-4,12.2-8.5,16.7-13.4c0.5-0.2,0.7-0.1,0.6,0.4c-3.9,5-9.3,9.8-16.2,14.5
		C342.4,26.6,341.8,27.2,341.6,27.5z M343.5,11.2c-0.3,0-0.7-0.4-1.2-1.1c-0.9-1.3-2.3-2.1-4.2-2.5c-0.3-0.2-0.3-0.4,0.1-0.5
		c2.5,0,4.3,0.6,5.4,1.7c0.6,0.6,0.8,1.1,0.8,1.6C344.5,10.9,344.2,11.2,343.5,11.2z M355.4,8.5c0,0.6-0.2,0.8-0.7,0.8
		c-0.3,0-0.8-0.6-1.6-1.7c-0.3-0.5-1.1-1.2-2.4-2.3c-0.2-0.2-0.1-0.3,0.1-0.4c1.1,0.3,2.3,0.9,3.5,1.7C355,7.2,355.4,7.8,355.4,8.5z
		 M358.4,6.8c-0.3,0-0.6-0.1-0.7-0.2c-0.3-0.3-0.6-0.7-1-1.2c-0.6-0.6-1.3-1.2-2.3-1.8c-0.2-0.2-0.2-0.4,0.1-0.4
		c1.8,0.3,3.1,0.8,3.7,1.4c0.5,0.5,0.7,1,0.7,1.6C359,6.6,358.8,6.8,358.4,6.8z"/>
	<path class="st0" d="M376.3,15.8c-0.1-0.3-0.4-0.6-1-0.7c-0.5-0.2-0.4-0.4,0.1-0.5c0.9,0,1.5,0.2,1.9,0.5c2-1.4,3.7-2.9,5.2-4.4
		c0.2-0.2,0-0.4-0.4-0.4c-5.7,0.9-8.9,1.4-9.6,1.7c-1,0.2-1.6,0.5-1.9,0.7c-0.2,0.2-0.4,0.4-0.6,0.4c-0.4,0-1-0.4-1.9-1.3
		c-0.4-0.4-0.7-1-0.8-1.7c0-0.4,0.2-0.5,0.5-0.2c0.4,0.8,1.2,1.2,2.5,1.2c0.8,0,2.2-0.2,4.2-0.6c1.8-0.2,4.7-0.6,8.5-1.2
		c0.3-0.2,0.6-0.5,0.8-0.8c0.3,0.2,0.9,0.6,1.7,1.3c0.6,0.5,0.8,0.8,0.8,1c0,0.4-0.2,0.6-0.6,0.5c-0.6,0-1.2,0.2-1.6,0.5
		c-1.9,1.8-3.8,3.2-5.5,4.4c0.6,0.3,0.4,0.6-0.6,0.8c0,3.4,0,6.7,0,9.7c0,1,0.1,2.1,0.2,3.1c0.1,0.5-0.2,0.7-0.7,0.7
		c-0.4,0-0.7-0.2-1-0.6c-0.3-0.5-0.5-0.8-0.5-1c0.2-0.4,0.3-0.9,0.4-1.6c0-3.3,0-6.6,0-10c-4.8,3.1-9.3,5.3-13.4,6.6
		c-0.4-0.1-0.4-0.2-0.1-0.5C367.7,21.5,372.1,19,376.3,15.8z M373.6,3c1.7,0.4,3.1,1.1,4.3,2.2c0.7,0.6,1.1,1.3,1.1,2
		c0,1.1-0.3,1.7-0.8,1.7c-0.5,0-0.9-0.6-1.2-1.8c-0.1-0.3-0.5-1-1.3-1.9c-0.4-0.5-1.2-1.1-2.4-1.8C373,3.1,373.2,3,373.6,3z
		 M379.9,17.4c1.7,0.2,3.1,0.6,4.3,1.2c1.4,0.6,2.4,1.3,3.1,2c0.7,0.7,1.1,1.4,1.1,2c0,0.6-0.3,1-1,1c-0.2,0-0.6-0.4-1.2-1.2
		c-1.1-1.6-3.2-3.2-6.4-4.7C379.6,17.6,379.6,17.5,379.9,17.4z"/>
	<path class="st0" d="M412.9,7.9c0.6,0.4,1.2,0.8,1.8,1.3c0.3,0.2,0.5,0.5,0.5,0.8c0,0.2-0.4,0.4-1.1,0.4c-1.5,2.4-3.1,4.6-4.8,6.6
		c2.7,0.9,4.9,2.2,6.6,3.8c1.4,1.4,2,2.4,2,3.2c0,0.7-0.3,1.1-1,1.1c-0.3,0-0.7-0.4-1.2-1.2c-0.7-1.2-1.6-2.3-2.5-3.2
		c-1.1-1.1-2.6-2.2-4.3-3.4c-4,4-8.4,7-13.3,9c-0.7,0.1-0.8-0.1-0.4-0.5c7.8-4.1,13.3-9.4,16.7-15.8c0.1-0.3-0.1-0.5-0.5-0.5
		c-6,0.8-9.2,1.4-9.5,1.9c-0.2,0.2-0.4,0.4-0.6,0.4c-0.2,0-0.5-0.2-1.1-0.7c-1.2-1-1.7-1.8-1.6-2.4c0-0.4,0.2-0.4,0.5-0.1
		c0.4,0.7,1,1.1,1.8,1.1c1.9,0,5.5-0.3,10.8-1C412.2,8.4,412.5,8.2,412.9,7.9z"/>
	<path class="st0" d="M449.8,13.9c0.3,0.2,0.5,0.4,0.5,0.6c0,0.2-0.2,0.4-0.5,0.6c-1.8,0.6-5.2,2-10.4,4.3c0,1.7,0,3.4,0,5
		c0,0.7-0.3,1.1-1,1.1c-0.3,0-0.5-0.2-0.5-0.7c0-1.5,0-3.1,0-4.7c-2.2,1-3.9,2.1-5.3,3.5c-0.7,0.7-1.1,1.4-1.1,2
		c0,0.6,0.2,1,0.6,1.4c0.7,0.7,2.4,1.1,5,1.1c2.6,0,4.8-0.2,6.6-0.6c0.6-0.2,1-0.4,1.3-0.4c0.9,0,1.3,0.4,1.3,1.2
		c0,0.3-0.2,0.5-0.7,0.6c-1.4,0.3-4,0.5-7.9,0.5c-3.1,0-5.2-0.5-6.2-1.6c-0.6-0.6-1-1.3-1-2c0-1,0.5-2,1.4-3c1.3-1.3,3.2-2.6,5.9-4
		c0-1.3-0.3-2.2-0.8-2.8c-0.3-0.3-0.8-0.5-1.6-0.5c-2,0-4.4,1.7-7.2,5.2c-0.2,0.2-0.5,0.4-0.7,0.4c-0.4,0-0.6-0.4-0.6-1.1
		c0-0.7,0.2-1.2,0.5-1.3c0.6-0.3,1.3-0.8,1.9-1.6c1.4-1.4,3-3.6,4.7-6.6c-0.6,0.1-1.6,0.2-2.8,0.2c-0.6,0.1-1.2,0.1-1.7,0.1
		c-0.3,0-0.8-0.3-1.3-0.8c-0.5-0.4-0.7-0.9-0.7-1.4c0.2-0.3,0.3-0.3,0.5,0.1c0.5,0.7,1.4,1.1,2.8,1.1c1.4,0,2.6-0.1,3.7-0.2
		c0.6-1.2,1-2.2,1.1-2.9c0.2-1.1-0.4-1.8-1.8-2c-0.6-0.1-0.6-0.2-0.1-0.5c1.4-0.2,2.9,0.3,4.3,1.3c0.4,0.3,0.4,0.7-0.1,1.1
		c-0.4,0.3-1.1,1.3-2,3c1.8-0.3,3.2-0.7,4.3-1.2c0.4-0.2,0.7-0.4,1-0.4c0.2,0,0.5,0.2,0.8,0.5c0.2,0.1,0.2,0.3,0.2,0.6
		c0,0.2-0.2,0.4-0.7,0.5c-1.9,0.3-4,0.6-6.1,1c-1,1.6-2.1,3.2-3.2,4.8c-0.2,0.4-0.2,0.5,0.2,0.4c1.3-0.6,2.4-1,3.2-1
		c1.1,0,2,0.3,2.5,0.8c0.7,0.7,1.1,1.6,1.2,2.6c4-1.9,6.6-3.2,7.7-3.8c0.4-0.2,0.5-0.4,0.2-0.6c-0.5-0.3-1-0.6-1.7-0.7
		c-0.5-0.2-0.5-0.3,0-0.5C446.9,12.6,448.3,13,449.8,13.9z"/>
	<path class="st0" d="M470.1,20.4c1.2,1.8,2.4,3.3,3.6,4.3c1.4-1,2.8-2.2,4.2-3.6l1.3,1c1.1,0.8,0.8,1.1-1,1l-4.2,1.9
		c2,1.7,4.8,3,8.3,4.1c-1,0.1-1.9,0.5-2.5,1.3c-5-2.2-8.4-5.5-10.3-10h-3.2v6.7l5.5-1c0.6,0.2,0.7,0.4,0.1,0.6l-9.6,2.4
		c0.2,1.3-0.1,1.4-0.8,0.5l-1.4-2l4.7-0.4v-6.8h-5.4c-0.5,3.1-1.8,6.1-4.1,8.9c-0.4,0.3-0.6,0.2-0.5-0.2c2.3-3.8,3.5-8.6,3.5-14.3
		V4.1l1.8,1.1h16.8l0.7-1l1.7,1.2c0.5,0.4,0.3,0.7-0.5,0.8v4.9c-1,1-1.6,1-1.6,0.1v-0.7h-3.7v4.1h3.6l1.6-1.6l1.9,1.4
		c0.5,0.4,0.5,0.7,0,0.8h-7.1v4.3h4.9l1.6-1.6l1.9,1.4c0.5,0.4,0.5,0.7,0,0.8H470.1z M465.3,19.7v-4.3h-4.2v-0.7h4.2v-4.1h-5.5V16
		c0,1.2-0.1,2.4-0.4,3.7H465.3z M477.2,9.8v-4h-17.4v4H477.2z M471.9,10.6h-5v4.1h5V10.6z M471.9,19.7v-4.3h-5v4.3H471.9z"/>
	<path class="st0" d="M495.6,13h-6.7v17c-1,1-1.6,1-1.6,0.1V3.8l1.8,1.1h6.1l0.7-1l1.7,1.2c0.5,0.4,0.3,0.7-0.5,0.8v8.2
		c-1,1-1.6,1-1.6,0.1V13z M495.6,8.5V5.6h-6.7v2.9H495.6z M495.6,9.2h-6.7v3h6.7V9.2z M491.4,28.6c3.2-2.1,4.8-4.3,4.8-6.7v-0.7H491
		v-0.7h5.3v-3.5h-3.5v-0.7H504l1.3-1.3l1.7,1.2c0.5,0.4,0.5,0.7,0,0.8h-4v3.5h2.3l1.3-1.3l1.7,1.2c0.5,0.4,0.5,0.7,0,0.8h-5.3v7.2
		c-1,1-1.6,1-1.6,0.1v-7.3h-3.7v0.7c0,2.8-2,5.2-6.1,7.3C491.1,29.2,491,29,491.4,28.6z M497.8,16.9v3.5h3.7v-3.5H497.8z
		 M500.8,14.2V4l1.8,1h6.5l0.7-1l1.7,1.2c0.5,0.4,0.3,0.7-0.5,0.8v21.6c0,0.9-0.3,1.6-0.8,2c-0.3,0.3-0.7,0.5-1.2,0.5
		c-0.3,0-0.5-0.2-0.5-0.5c0-0.5-0.2-0.8-0.7-1l-1.6-0.2c-0.3-0.2-0.3-0.3,0-0.5h2.4c0.6,0,0.8-0.3,0.8-0.8V13h-7.1V14
		C501.3,15,500.8,15,500.8,14.2z M509.4,5.6h-7.1v2.9h7.1V5.6z M509.4,9.2h-7.1v3h7.1V9.2z"/>
	<path class="st0" d="M537.8,19.1c0.3,0.3,0.7,0.6,1.2,1c0.2,0.2,0.4,0.4,0.5,0.7c0.2,0.6,0.2,1,0.1,1.2c-0.3,0.6-0.8,0.8-1.3,0.4
		c-1.3-1-2.7-1.7-4.2-2.2c-2-0.6-3.7-1-5.2-1c-2.6,0-4.5,0.6-5.6,1.7c-0.6,0.6-1,1.3-1,2c0,1.3,0.4,2.3,1.3,3
		c1.4,1.2,3.6,1.8,6.5,1.9c2.4,0.1,3.9,0,4.6-0.2c0.6-0.2,1.2-0.2,1.6,0c0.4,0.2,0.7,0.5,0.8,0.8c0.2,0.4,0,0.6-0.5,0.7
		c-1,0.2-2.3,0.2-4.1,0.2c-2.2,0-4-0.2-5.6-0.6c-1.9-0.5-3.4-1.2-4.3-2.3c-0.9-1-1.3-2-1.3-3.1c0-1.3,0.4-2.3,1.2-3
		c1.4-1.3,3.4-1.9,6.1-1.9c1.1,0,2.2,0.1,3.4,0.2c1.7,0.2,2.9,0.5,3.7,0.7c0.5,0.2,0.6,0,0.2-0.5c-1.7-2.3-3.3-4.6-4.8-7
		c-2.3,0.5-4.3,0.8-6,1c-0.5,0.2-0.8,0.2-1.1,0.2c-0.4,0-0.8-0.2-1.1-0.5c-1-0.9-1.5-1.5-1.7-1.8c-0.2-0.4,0-0.5,0.4-0.2
		c0.8,0.7,1.9,1.1,3.2,1.1c1.4,0,3.3-0.3,5.6-0.8c-0.4-0.7-1.1-1.8-2-3.2c-0.3-0.5-0.7-0.9-1.1-1.2c-0.5-0.4-0.5-0.8,0-1.3
		c0.8-0.9,1.6-1.4,2.5-1.7c0.6,0,0.7,0.1,0.4,0.4c-0.5,0.2-0.8,0.8-1,1.7c-0.1,0.4,0.1,1,0.5,1.7c0.8,1.4,1.5,2.6,2,3.4
		c1.4-0.3,3.2-1,5.3-1.9c0.4-0.2,0.9-0.3,1.6-0.1c0.3,0.1,0.6,0.2,0.8,0.5c0.2,0.2,0.1,0.5-0.4,0.7c-1.1,0.5-3.4,1.1-6.7,1.9
		c0.8,1.4,1.9,3,3.4,4.9C536.6,17.8,537.3,18.6,537.8,19.1z"/>
	<path class="st0" d="M570.7,13.3c-2,0.1-3.6,0.2-4.8,0.2c0,1.5,0,3,0,4.4c0,2.7-0.6,4.4-1.7,5c-0.8,0.5-1.2,0.4-1.1-0.2
		c0.1-0.6-0.2-1-0.7-1.3c-1-0.6-2.2-1.3-3.5-2c-0.4-0.3-0.3-0.4,0.2-0.4c1.3,0.5,2.5,1,3.7,1.4c0.6,0.2,1.1,0,1.3-0.7
		c0.2-0.5,0.2-2.5,0.2-6c-3.1,0.4-5.9,0.9-8.4,1.4c0,2.6,0,4.6,0,6.1c0.1,1.6,0.2,2.8,0.4,3.5c0.2,0.8,0.5,1.4,1,1.7
		c0.6,0.4,2,0.6,4.1,0.6c2.9,0,5.1-0.2,6.7-0.7c0.8-0.2,1.4-0.2,1.7,0c0.3,0.2,0.6,0.5,0.8,0.8c0.4,0.6,0.2,0.9-0.5,1
		c-0.7,0.1-3.8,0.1-9.4,0.1c-2.3,0-3.9-0.4-4.7-1.2c-1-1-1.6-3.4-1.6-7.1c0-1.6,0-3.1,0-4.6c-0.7,0.2-2,0.6-4,1.2
		c-0.7,0.2-1.2,0.4-1.4,0.6c-0.3,0.2-0.7,0.2-1.1-0.2c-1.2-1.1-1.8-1.9-1.7-2.4c0-0.6,0.2-0.6,0.5-0.2c0.5,0.8,1.2,1.2,2.2,1.2
		c0.4,0,1.2-0.1,2.4-0.4c1.1-0.2,2.2-0.5,3.1-0.7c0-1.8-0.1-3.3-0.2-4.3c-0.2-1.2-0.9-1.9-2.3-2c-0.6,0-0.6-0.2,0-0.5
		c1.4-0.2,2.8,0.2,4.2,1.1c0.7,0.5,0.8,0.9,0.1,1.3c-0.2,0.2-0.4,1.5-0.4,4.1c3.1-0.6,5.9-1,8.4-1.3c0-3,0-4.9-0.1-5.5
		c-0.1-0.7-0.8-1.2-2-1.6c-0.6,0-0.6-0.2-0.1-0.5c1.8-0.1,3.2,0.3,4.2,1.1c0.6,0.5,0.6,0.9,0,1.2c-0.3,0.2-0.5,1.9-0.5,5.2
		c3.5-0.5,5.5-0.9,6-1.2c0.4-0.2,0.8-0.2,1.3,0.1c0.9,0.6,1.4,0.9,1.4,1c0.5,0.7,0.3,1-0.5,1C572.5,13.4,571.3,13.3,570.7,13.3z"/>
	<path class="st0" d="M600.5,6.7c0.5-0.4,1-0.4,1.6,0c0.9,0.6,1.4,1,1.4,1.1c0.4,0.4,0.3,0.7-0.2,0.8c-5-0.2-8.5,0.8-10.7,3
		c-2.1,2.1-3.1,4.2-3.1,6.2c0,2.4,0.8,4.4,2.4,6c1.7,1.7,3.6,2.6,5.8,2.6c0.8,0,1.3,0.2,1.6,0.5c0.3,0.4,0.5,0.8,0.5,1.1
		c0,0.4-0.3,0.6-1,0.6c-2.2,0-4.4-0.8-6.5-2.5c-2.5-2-3.7-4.6-3.7-7.9c0-3,1.6-5.8,4.7-8.3c0.4-0.3,0.4-0.5,0-0.5
		c-2.5,0.5-4.8,1-7.1,1.4c-1,0.2-1.9,0.5-2.9,1c-0.7,0.3-1.2,0.4-1.4,0.4c-0.4-0.1-0.8-0.3-1.2-0.6c-0.9-0.6-1.4-1.3-1.4-2
		c0.2-0.6,0.3-0.6,0.5-0.1c0.4,0.7,1.2,1,2.5,1c0.6,0,1.7-0.2,3.2-0.5c4.2-0.7,8.3-1.5,12.5-2.3C599.1,7.4,600,7.1,600.5,6.7z"/>
	<path class="st0" d="M616.7,20.6c0-2.5,0-5,0-7.6c-1.6,0.2-2.8,0.4-3.7,0.7c-0.4,0.2-0.9,0.1-1.6-0.4c-1-0.7-1.4-1.6-1.4-2.5
		c0.1-0.4,0.2-0.4,0.4,0c0.4,0.9,1,1.4,1.8,1.4c1.2,0.1,2.7,0,4.6-0.4c0.1-0.7,0.2-2,0.2-3.8c0.1-1.4-0.5-2.2-1.8-2.6
		c-0.5-0.2-0.5-0.3,0-0.5c1.7,0,2.9,0.4,3.7,1.3c0.3,0.4,0.4,0.7,0.1,1c-0.3,0.3-0.5,0.9-0.6,1.8c-0.1,0.6-0.2,1.5-0.2,2.5
		c1.5-0.4,2.7-0.9,3.5-1.4c0.5-0.4,0.9-0.5,1.2-0.4c0.4,0.2,0.7,0.3,1,0.5c0.5,0.3,0.3,0.7-0.5,1.1c-0.2,0.1-0.7,0.2-1.7,0.5
		c-1.5,0.4-2.7,0.7-3.6,0.8c-0.1,2-0.1,4.4-0.1,7.2c3.8-2.4,7.1-3.6,10-3.6c2.2,0,3.9,0.5,5,1.4c1.1,1,1.7,2.3,1.7,4.1
		c0,1.5-0.4,2.7-1.3,3.6c-1.1,1.1-2.7,1.7-4.8,1.7c-1.5,0-2.8-0.4-3.7-1.1c-1.3-1-2.1-2.3-2.5-4.1c0.2-0.4,0.3-0.4,0.5,0
		c0.7,1.4,1.4,2.3,2,2.8c1,0.8,2.1,1.2,3.5,1.2c1.5,0,2.6-0.4,3.4-1.1c0.9-0.9,1.3-1.9,1.3-3c0-1.4-0.4-2.6-1.3-3.5
		c-0.9-0.9-2.2-1.3-3.8-1.3c-2.7,0-6,1.4-9.8,4.3c0,0.9,0,1.8,0,2.6c0,0.5,0.1,1.5,0.4,3c0.2,1-0.2,1.8-1.1,2.4
		c-0.6,0.4-1,0.2-1.1-0.5c-0.1-1-0.4-1.8-1-2.2c-0.6-0.5-1.3-1-2-1.6c-0.4,0.4-0.9,0.8-1.6,1.2c-0.6,0.4-1.1,0.6-1.4,0.5
		c-0.6-0.2-1-0.7-1-1.7c0-0.9,0.2-1.7,0.7-2.4c0.2-0.2,0.4-0.2,0.4,0.1c-0.1,1.1,0.2,1.7,0.7,1.7c0.4,0,0.8-0.1,1.1-0.4
		C613.1,23.4,614.6,22.2,616.7,20.6z M616.7,22.1c-1,0.8-2,1.7-3.2,2.8c0.9,0.5,1.7,0.9,2.5,1.3c0.5,0.2,0.7,0.1,0.7-0.4
		C616.7,24.6,616.7,23.4,616.7,22.1z M627.9,8.5c-0.2-0.2-0.1-0.3,0.1-0.4c2.1,0.2,3.7,0.6,4.9,1.3c1.2,0.7,2,1.6,2.3,2.5
		c0.2,0.5,0.2,0.8,0,1.1c-0.2,0.3-0.5,0.4-0.8,0.1c-0.5-0.4-1-0.6-1.6-0.6c-0.6,0-1.5,0.1-2.9,0.4c-0.4,0.1-0.4,0-0.1-0.4
		c0.6-0.2,1.4-0.5,2.2-0.7c0.4-0.2,0.5-0.4,0.2-0.8C631.6,10.1,630.2,9.2,627.9,8.5z"/>
	<path class="st0" d="M648.6,6.4c0.2,0.3,0.2,0.7,0,1.2c-0.5,1-0.9,2.6-1.2,4.8c-0.2,1.8-0.2,3.4,0,4.7c0.1,0.5,0.2,0.5,0.5,0.1
		c1.6-4.5,3.1-7.4,4.6-8.9c0.9-0.9,1.8-1.3,2.8-1.3c0.9,0,1.6,0.3,2.2,0.8c1.3,1.3,1.9,3.6,1.9,7.1c0,4.8-1.1,8.3-3.2,10.4
		c-2,2-4.4,3.4-7.3,4.2c-0.6,0-0.6-0.2-0.2-0.5c2.1-0.6,4.1-1.9,6-3.8c2.1-2.1,3.1-5.6,3.1-10.6c0-3.5-0.4-5.7-1.3-6.6
		c-0.3-0.3-0.7-0.5-1.1-0.5c-0.6,0-1.2,0.3-1.8,1c-1.2,1.2-2.6,4-4.1,8.3c-0.4,1.1-0.6,2.2-0.6,3.2c0,1-0.3,1.4-1,1.4
		c-0.5,0-0.8-0.4-1.1-1.1c-0.5-1.4-0.7-3.3-0.7-5.5c0-2,0.3-4.5,0.8-7.6c0.2-0.9-0.2-1.6-1-2c-0.3-0.2-0.2-0.4,0.2-0.4
		C647.3,5.2,648.1,5.7,648.6,6.4z"/>
	<path class="st0" d="M684.8,10.2c1.8-0.2,3.4-0.4,4.7-0.7c0.7-0.2,1.3-0.4,1.7-0.7c0.4-0.3,0.8-0.4,1.1-0.1c0.5,0.3,0.8,0.6,1,0.7
		c0.4,0.4,0.3,0.7-0.4,0.8c-2.3,0.6-5,1-8,1.2c0,1.8,0,3.5,0,5.3c1.6-0.2,2.8-0.3,3.7-0.5c1.1-0.2,1.8-0.4,2.2-0.6
		c0.4-0.2,0.8-0.2,1.1,0c0.4,0.2,0.7,0.4,1,0.6c0.3,0.2,0.2,0.5-0.2,0.7c-0.2,0.2-0.9,0.3-1.9,0.4c-2.1,0.2-4,0.4-5.8,0.5
		c0,1.9,0,3.8,0,5.6c3.1,0.6,5.9,1.5,8.3,2.6c0.7,0.3,1.1,0.9,1.1,1.7c0,0.3-0.2,0.5-0.5,0.6c-0.2,0.1-0.6,0-1.1-0.4
		c-2.6-1.6-5.2-2.7-7.8-3.4c0.1,1.4-0.2,2.4-0.8,3.1c-0.9,1-2.4,1.4-4.6,1.4c-1.9,0-3.4-0.5-4.3-1.4c-0.5-0.5-0.7-1-0.7-1.7
		c0-0.7,0.3-1.3,1-1.8c1-0.8,2.8-1.2,5.3-1.2c0.6,0,1.5,0,2.9,0.1c0-1.8,0-3.5,0-5.3c-1.2,0.1-2.4,0.1-3.7,0.1c-1.4,0-2.4-0.2-3-0.6
		c-0.9-0.6-1.3-1.7-1.2-3.4c0.2-0.3,0.4-0.3,0.6,0c0,1.1,0.2,1.9,0.6,2.3c0.5,0.5,1.5,0.7,3,0.7c1.4,0,2.6-0.1,3.7-0.2
		c0-1.8,0-3.5,0-5.3c-1.5,0.2-3.3,0.2-5.3,0.2c-1.4,0-2.6-0.1-3.5-0.4c-1.2-0.3-2.2-1-3-1.9c-0.2-0.5-0.1-0.6,0.4-0.4
		c0.8,0.7,1.6,1.2,2.5,1.4c0.6,0.2,1.9,0.2,4,0.2c1.6,0,3.2-0.1,4.9-0.4c0-0.6,0-1.3,0-2c0-1.4-0.1-2.2-0.4-2.5
		c-0.4-0.6-1.1-0.8-2-0.8c-0.6,0.1-0.6-0.1-0.1-0.5c0.4-0.2,0.9-0.2,1.6-0.2c0.8,0,1.8,0.3,2.9,1c0.6,0.3,0.6,0.7,0,1.2
		c-0.4,0.3-0.6,0.9-0.6,1.8C684.8,8.9,684.8,9.6,684.8,10.2z M679.9,23.9c-1.5,0-2.7,0.2-3.5,0.6c-0.8,0.4-1.2,1-1.2,1.7
		c0,0.6,0.4,1.2,1.2,1.6c0.8,0.4,1.7,0.6,2.8,0.6c1.4,0,2.6-0.4,3.4-1.1c0.6-0.6,0.9-1.6,0.8-3C681.6,24,680.5,23.9,679.9,23.9z"/>
	<path class="st0" d="M716.3,10.4c3.6-0.2,6-0.4,7.2-0.6c0.5-0.1,1.3-0.2,2.4-0.5c0.4-0.1,0.8,0,1.2,0.4c0.9,0.7,1.4,1.2,1.4,1.4
		c0.2,0.5-0.1,0.6-0.7,0.5c-1.6-0.4-3.6-0.6-6.1-0.6c-1.5,0-3.3,0.1-5.4,0.2c0,1.8,0,3.5,0,5.2c0.2,0.8,0.4,1.9,0.4,3.4
		c0,5-2.2,8.7-6.6,10.9c-0.4,0.1-0.5,0-0.2-0.4c1-0.7,1.8-1.5,2.5-2.3c1.8-2,2.7-4.4,2.8-7.2c-0.6,1-1.5,1.4-2.5,1.4
		c-0.9,0-1.7-0.4-2.4-1.1c-0.6-0.6-0.8-1.4-0.8-2.5c0-1.1,0.4-2.1,1.2-2.9c0.6-0.6,1.4-1,2.4-1c0.7,0,1.4,0.2,1.9,0.5
		c0-1.3,0-2.6,0-4c-4.2,0.6-7.4,1.3-9.5,1.9c-0.8,0.2-1.4,0.4-1.7,0.6c-0.5,0.2-0.9,0.2-1.3-0.1c-0.9-0.6-1.5-1.6-1.9-2.8
		c0-0.4,0.2-0.4,0.5-0.1c0.4,0.7,1.2,1.1,2.3,1.1c1.1,0,2.8-0.2,5.2-0.6c1.8-0.3,4-0.6,6.5-0.8c0-1,0-2.1,0-3.2c0-1.8-0.8-2.8-2.4-3
		c-0.3-0.2-0.3-0.3,0-0.5c1.4-0.2,2.4,0,3.2,0.6c0.4,0.2,0.8,0.6,1.1,1.1c0.3,0.4,0.3,0.7-0.1,0.8C716.4,6.6,716.3,8,716.3,10.4z
		 M711,16.4c-0.4,0.6-0.6,1.2-0.6,2c0,1.3,0.3,2.2,1,2.8c0.2,0.2,0.6,0.4,1.2,0.4c0.6,0,1-0.2,1.3-0.5c0.7-0.7,1.1-1.7,1.1-3
		c0-1.8-0.7-2.6-2-2.6C712,15.5,711.4,15.8,711,16.4z"/>
	<path class="st0" d="M738.5,27.4c0,1.1-0.4,2-1.1,2.8c-0.7,0.7-1.6,1.1-2.8,1.1c-1.1,0-2-0.4-2.8-1.1c-0.7-0.7-1.1-1.6-1.1-2.8
		c0-1.1,0.4-2,1.1-2.8c0.7-0.7,1.6-1.1,2.8-1.1c1.1,0,2,0.4,2.8,1.1C738.1,25.3,738.5,26.2,738.5,27.4z M737.6,27.4
		c0-0.9-0.3-1.6-0.8-2.2c-0.6-0.6-1.3-0.8-2.2-0.8c-0.9,0-1.6,0.3-2.2,0.8c-0.6,0.6-0.8,1.3-0.8,2.2s0.3,1.6,0.8,2.2
		c0.6,0.6,1.3,0.8,2.2,0.8c0.9,0,1.6-0.3,2.2-0.8C737.3,29,737.6,28.2,737.6,27.4z"/>
	<path class="st0" d="M99.1,59c4.2-0.9,8.5-1.7,12.8-2.6c0.9-0.2,1.5-0.4,2-0.7c0.4-0.2,0.8-0.2,1.3,0c1,0.5,1.6,0.8,1.8,1.1
		c0.3,0.5,0.2,0.7-0.5,0.7c-0.8,0-1.5,0-2.1-0.1c-0.6-0.1-1.6,0-3.1,0.2c-3.1,0.5-5.4,1.5-7.1,3.2c-1.2,1.2-1.8,2.5-1.8,4.1
		c0,1.6,0.6,3,1.8,4c1,0.9,2.4,1.3,4.2,1.4c1.3,0.1,2.2,0,2.6-0.1c0.6-0.3,1.1-0.3,1.5,0c0.4,0.3,0.6,0.6,0.7,0.8
		c0.2,0.5,0,0.7-0.5,0.7c-0.9,0.1-2,0.1-3.3,0.1c-1,0-2-0.2-2.9-0.5c-1.6-0.5-2.9-1.3-3.6-2.1c-0.9-1-1.4-2.4-1.4-4.2
		c0-1.8,0.6-3.3,1.9-4.5c0.9-0.8,1.6-1.4,2.2-1.8c0.2-0.2,0.2-0.3,0-0.4c-6.8,1.8-10.8,3-12,3.5c-0.7,0.3-1.1,0.1-1.1-0.6
		c0-0.3,0.2-0.7,0.7-1.2c0.2-0.2,0.6-0.4,1.1-0.4c1,0,2.5-0.6,4.4-1.9c3.5-2.3,6.4-5.2,8.7-8.7c0.1-0.2,0-0.3-0.2-0.2
		c-1.6,0.5-3.1,0.9-4.7,1.4c-1.2,0.3-1.9,0.6-2.2,0.9c-0.4,0.4-0.8,0.4-1.3-0.1c-0.9-0.9-1.4-1.9-1.3-2.9c0.2-0.5,0.3-0.4,0.5,0.1
		c0.3,0.8,0.8,1.2,1.5,1.3c0.8,0.1,1.6,0,2.6-0.2c1.8-0.5,3.6-0.9,5.3-1.4c0.2-0.2,0.4-0.4,0.6-0.6c0.9,0.5,1.6,0.9,2,1.3
		c0.5,0.5,0.4,0.8-0.1,0.9c-0.3,0.1-0.7,0.3-1.1,0.6c-2.7,3.1-6,5.9-10,8.4C98.8,58.9,98.8,59,99.1,59z"/>
	<path class="st0" d="M139.4,68.5c1.3,0,2.2-0.1,2.9-0.2c0.7-0.2,1.1-0.2,1.2-0.2c0.5,0,0.9,0.3,1.4,0.9c0.5,0.6,0.2,0.9-0.8,0.9
		c-3.5,0-7.1,0-10.6,0c-2.8,0-4.9-0.8-6.4-2.5c-0.9-1-1.4-2.3-1.6-3.8c0.2-0.3,0.3-0.3,0.5,0.1c0.4,1,1,1.9,1.8,2.7
		c1.3,1.3,3.3,2,5.9,2C135.6,68.5,137.5,68.5,139.4,68.5z M141.7,52.4c0.4,0.5,0.2,0.8-0.5,0.8c-0.5,0-1.4,0-2.5,0
		c-0.9,0-1.8,0.1-2.6,0.4c-1.6,0.5-3.3,1.2-5.2,2.2c-0.5,0.2-0.6,0.2-0.4-0.2c1.2-0.9,2.5-1.8,4.1-2.5c-1.9-0.2-3.3-0.5-4.4-0.9
		c-1.3-0.6-2.3-1.5-2.9-2.5c0-0.4,0.2-0.4,0.5-0.1c1.2,1.3,3.6,2,7.2,2c2.6,0,4.2-0.1,4.9-0.4c0.3-0.1,0.6,0,0.9,0.4
		C141.2,51.8,141.4,52.1,141.7,52.4z"/>
	<path class="st0" d="M161.4,55c-1.8,4.2-3.6,8.3-5.5,12.5c-0.2,0.4-0.6,1.2-1.1,2.4c-0.2,0.6-0.5,0.9-0.8,0.9
		c-0.2,0-0.4-0.2-0.6-0.6c-0.1-0.2-0.1-0.5-0.1-0.9c0-0.7,0.2-1.3,0.7-1.8c0.5-0.5,1-1.3,1.6-2.6c1.7-3.4,3.3-6.6,4.6-9.6
		c-2.4,0.5-3.8,0.9-4.5,1.2c-0.5,0.2-0.9,0.2-1.3-0.1c-0.8-0.5-1.2-1.4-1.2-2.5c0.1-0.2,0.2-0.2,0.4,0c0.4,0.9,1,1.3,1.9,1.3
		c0.5,0,2.2-0.2,5.1-0.7c0.4-0.9,0.8-1.8,1.2-2.7c0.4-1.1,0.4-1.9-0.1-2.5c-0.4-0.5-1-0.7-1.9-0.8c-0.3-0.2-0.3-0.3,0-0.5
		c0.8,0,1.3,0,1.6,0.1c0.9,0.2,1.6,0.7,2.2,1.3c0.7,0.7,0.7,1.1-0.1,1.3c-0.5,1.3-1.1,2.5-1.8,3.6c1.1-0.2,1.8-0.2,2.2-0.2
		c1,0,1.8,0.3,2.2,0.8c0.7,0.9,1.1,2.3,1.1,4.4c0,6-1.5,9.8-4.4,11.3c-0.8,0.4-1.2,0.2-1.2-0.5c0-0.5-0.2-0.9-0.5-1.2
		c-0.7-0.5-1.5-1.1-2.4-1.8c-0.2-0.3-0.1-0.4,0.2-0.4c0.9,0.5,1.8,0.9,2.7,1.4c0.8,0.4,1.5,0.2,2.1-0.7c0.7-1,1.2-2.3,1.5-3.8
		c0.4-1.9,0.6-3.6,0.6-5.2c0-1.4-0.1-2.4-0.4-2.8c-0.3-0.6-0.9-0.9-1.8-0.9C163.1,54.8,162.3,54.8,161.4,55z M171.8,53.7
		c1.3,0.5,2.7,1.4,4.2,2.6c2,1.6,3.1,3.5,3.3,5.8c0.1,0.8,0,1.4-0.4,1.8c-0.5,0.6-0.9,0.6-1.4-0.1c-0.5-0.8-1.1-1.1-1.8-1.1
		c-1.1,0.1-2.2,0.2-3.4,0.2c-0.5-0.1-0.5-0.2-0.1-0.5c1.3-0.2,2.6-0.4,4-0.6c0.5-0.1,0.8-0.3,0.7-0.7c-0.2-1.3-0.7-2.5-1.8-3.9
		c-0.9-1.3-2.2-2.3-3.6-3.2C171.1,53.7,171.2,53.6,171.8,53.7z"/>
	<path class="st0" d="M198.2,58.8c2.7,0,4.7,0.7,6,2c1,1,1.5,2.2,1.5,3.6c0,1.6-0.5,2.9-1.6,4c-2.3,2.2-6.6,3.3-12.9,3.2
		c-0.5-0.2-0.5-0.5,0-0.7c5.7-0.2,9.6-1.3,11.6-3.3c0.9-0.9,1.3-2,1.3-3.4c0-1.3-0.3-2.2-0.9-2.8c-1.3-1.3-2.8-1.9-4.7-1.9
		c-2.7,0-4.9,0.9-6.8,2.8c-1.2,1.2-1.9,2.3-2.1,3.4c-0.2,0.7-0.5,0.9-1.1,0.6c-0.9-0.5-1.3-1.5-1.2-2.9c0.1-2,0.3-3.7,0.6-5.3
		c0.2-0.9,0.2-1.7,0.2-2.6c0-0.5-0.1-1-0.4-1.4c-0.2-0.4-0.2-0.8,0.1-1.3c0.6-0.9,1.7-1.6,3.2-1.9c0.7-0.2,1.6-0.2,2.8-0.2
		c0.2,0,0.2-0.1,0.1-0.2c-0.1-0.2-0.4-0.4-0.8-0.5c-1.7-0.3-3-1.4-3.9-3.2c0.1-0.2,0.2-0.3,0.4-0.1c0.9,1.2,2.6,2,4.9,2.5
		c1.5,0.3,2.3,1.1,2.5,2.4c0.1,0.7-0.2,0.9-0.9,0.6c-1-0.5-1.9-0.7-2.6-0.7c-2.2,0-3.7,0.4-4.6,1.3c-0.5,0.5-0.5,1.1,0,1.6
		c0.5,0.5,0.6,1.1,0.4,1.9c-0.5,1.6-0.7,3.9-0.6,6.9c0,0.5,0.2,0.5,0.5,0C191.9,60.2,194.9,58.8,198.2,58.8z"/>
	<path class="st0" d="M213.4,66.8c-0.4-0.3-0.4-0.5,0.1-0.5c1.9,0.5,3.6,1.6,5.3,3.3c0.7,0.7,1.1,1.4,1.1,2.1c0,0.5-0.2,0.9-0.5,1.2
		c-0.2,0.2-0.5,0.4-0.7,0.4c-0.4,0-0.7-0.2-0.9-0.7c-0.4-0.7-0.9-1.6-1.5-2.7C215.8,69,214.8,68,213.4,66.8z"/>
	<path class="st0" d="M248.5,57.2v1.4c3.2,0.8,4.8,1.9,4.8,3.3c0,0.5-0.2,0.8-0.6,0.8c-0.3,0-0.6-0.2-0.9-0.6
		c-0.7-1.1-1.8-2.1-3.3-2.9v13.1c-1,0.9-1.5,1-1.5,0.1V58.9c-2,2-3.7,3.4-5.2,4.2c-0.3,0-0.4-0.1-0.2-0.4c3.5-3,6.4-6.5,8.9-10.7
		h-7.6v-0.7h4.1v-5.4l2,0.4c0.6,0.2,0.5,0.5-0.5,0.8v4.2h1.8l1.3-1.3l1.9,1.9c0.5,0.5,0.1,0.7-1.2,0.6
		C251.1,53.9,249.9,55.5,248.5,57.2z M266.2,69.8l1.8-1.8l2.1,1.6c0.3,0.4,0.2,0.7-0.4,0.8h-19.1v-0.7h8.4V56.9h-6.6v-0.7h6.6v-9.8
		l2.1,0.4c0.9,0.2,0.7,0.5-0.6,0.9v8.5h4.7l1.5-1.5l1.9,1.4c0.5,0.4,0.5,0.7,0,0.8h-8.1v12.9H266.2z"/>
	<path class="st0" d="M284.7,45.7l2.6,1.1c0.4,0.6,0,0.8-1.2,0.6c3,3.8,7.4,6.8,13.2,8.9c-0.9,0.3-1.6,0.9-2.1,1.6
		c-5.2-2.7-9-6.1-11.5-10.4c-4.5,5.6-8.9,9.3-13.3,10.8c-0.4,0-0.4-0.2-0.1-0.5C277.4,55,281.6,50.9,284.7,45.7z M292.4,68.9
		c-1-1-2.2-2-3.4-2.9c-0.4-0.3-0.3-0.4,0.2-0.4c2,0.8,3.8,1.8,5.3,3.1c1.1,0.9,1.6,1.9,1.6,2.9c0,0.8-0.3,1.2-0.8,1.2
		c-0.4,0-0.7-0.4-1.1-1.1c-0.2-0.5-0.7-1.3-1.4-2.2l-16,1.6c-0.5,1.5-0.9,1.8-1.3,0.8l-1.2-2.2l5.4-0.1l2.4-6.7h-9.6v-0.7h21.9
		l1.5-1.5l1.9,1.4c0.5,0.4,0.5,0.7,0,0.8h-13.6l-3.5,6.6L292.4,68.9z M278.1,56.6h10.6l1.3-1.3l1.6,1.2c0.5,0.4,0.5,0.7,0,0.8h-13.5
		V56.6z"/>
	<path class="st0" d="M309.5,59.9c-0.6,1.3-1.2,3.1-1.8,5.5c-0.3,1.3-0.3,2.4,0,3.3c0.4,1.1,0.5,1.8,0.4,2.2
		c-0.2,0.5-0.6,0.5-1.1,0.2c-1.5-1-2.2-3.7-2.2-8c0-2.9,0.4-6.3,1.3-10.2c0.2-0.7,0.2-1.6,0.2-2.6c0-1-0.4-1.6-1.2-1.9
		c-0.4-0.3-0.3-0.5,0.2-0.5c1.2,0.3,2.1,1,2.7,2c0.2,0.2,0.2,0.6,0,1.1c-0.9,2.7-1.5,4.5-1.6,5.3c-0.5,2-0.7,3.8-0.7,5.4
		c0,1.6,0.1,2.8,0.4,3.8c0.2,0.2,0.3,0.2,0.5,0c0.9-2.7,1.7-4.7,2.6-6C309.6,59.5,309.7,59.6,309.5,59.9z M323.3,67.3
		c1.3,0,2.2-0.2,2.9-0.5c0.8-0.3,1.4-0.1,1.9,0.7c0.3,0.5,0.1,0.9-0.6,0.9c-0.6,0.1-1.6,0.1-2.8,0.1c-1.6,0-3.1,0-4.7,0
		c-2.5,0-4.3-0.5-5.3-1.5c-1-1-1.5-2.3-1.5-3.8c0-0.5,0-1.1,0.1-1.9c0.2-0.3,0.3-0.3,0.5,0c0.1,2.2,0.5,3.6,1.2,4.4
		c1,1,2.6,1.5,4.7,1.5C320.9,67.3,322.1,67.3,323.3,67.3z M317,56.6c-0.3,0.2-0.4,0.2-0.4-0.2c0.9-1.3,2-2.3,3.3-3.2
		c0.3-0.2,0.3-0.4-0.1-0.4c-2.5,0.2-4.5-0.2-6-1.2c-0.4-0.3-0.3-0.4,0.2-0.4c1.3,0.3,2.5,0.5,3.4,0.5c2.2,0,4.4-0.2,6.5-0.7
		c0.9-0.2,1.6-0.1,1.9,0.5c0.5,0.8,0.2,1.2-0.7,1.2C322.5,52.8,319.8,54,317,56.6z"/>
	<path class="st0" d="M342.5,60.6c0.8-0.8,1.5-1.5,2.1-2.2c-0.4,0-0.7-0.3-1.1-0.9c-0.6-1.2-1.8-2.2-3.4-3.2
		c-2.3,2.7-4.8,4.8-7.5,6.4c-0.4,0-0.5-0.2-0.2-0.5c4.7-3.2,8.2-7.9,10.4-14l2.1,0.9c0.8,0.3,0.5,0.6-0.8,0.8
		c-0.4,0.7-0.8,1.4-1.2,2h7.6l0.7-0.9l2,1.3c0.5,0.5,0.2,0.8-0.9,0.8c-2.7,4-5.5,7.4-8.6,10.1h9.9l0.7-0.9l1.6,1.2
		c0.5,0.4,0.3,0.7-0.5,0.8v8.9c-1,0.9-1.5,1-1.5,0.1v-1.3h-10.4v2.2c-1,0.9-1.5,1-1.5,0.1v-9.9c-2.9,2.4-6.3,4-10.2,5.1
		c-0.4,0-0.5-0.2-0.2-0.5c3.8-1.3,7.3-3.3,10.5-6.1v-0.6L342.5,60.6z M342.5,50.6c-0.7,1.3-1.4,2.4-2.1,3.3c2,0.5,3.3,1.1,4,1.8
		c0.5,0.5,0.8,1.1,1.1,1.9c1.7-2,3.4-4.3,5.1-6.9H342.5z M353.9,69.3v-7.4h-10.4v7.4H353.9z"/>
	<path class="st0" d="M377.1,50.6h9.1l1.5-1.5l1.9,1.4c0.5,0.4,0.5,0.7,0,0.8h-12.5v3.1h7.3l1.3-1.3l1.6,1.2c0.5,0.4,0.5,0.7,0,0.8
		h-21.2v-0.7h9.4v-3.1H363v-0.7h12.6v-4.5l2,0.4c0.6,0.4,0.5,0.7-0.5,0.8V50.6z M369.1,63v1.2c0,3.2-1.8,6.1-5.3,8.7
		c-0.4,0.2-0.5,0-0.4-0.4c2.7-2.5,4.1-5.3,4.1-8.4v-7.4l1.8,0.9h14.2l0.7-0.9l1.6,1.2c0.5,0.4,0.3,0.7-0.5,0.8v5.6
		c-1,0.9-1.5,1-1.5,0.1V63H369.1z M375.8,58.4h-6.7v3.9h6.7V58.4z M383.9,58.4h-6.6v3.9h6.6V58.4z"/>
	<path class="st0" d="M417.9,56.4c0.3,0.2,0.5,0.4,0.5,0.6c0,0.2-0.2,0.4-0.5,0.6c-1.7,0.5-5.1,2-10.2,4.2c0,1.6,0,3.3,0,4.9
		c0,0.7-0.3,1.1-0.9,1.1c-0.3,0-0.5-0.2-0.5-0.7c0-1.5,0-3,0-4.6c-2.1,0.9-3.8,2.1-5.2,3.4c-0.7,0.7-1.1,1.4-1.1,2
		c0,0.5,0.2,1,0.6,1.4c0.7,0.7,2.4,1.1,4.9,1.1s4.7-0.2,6.5-0.6c0.5-0.2,1-0.4,1.3-0.4c0.9,0,1.3,0.4,1.3,1.2c0,0.3-0.2,0.5-0.7,0.6
		c-1.3,0.3-3.9,0.5-7.8,0.5c-3.1,0-5.1-0.5-6.1-1.5c-0.6-0.6-0.9-1.3-0.9-2c0-1,0.5-2,1.4-2.9c1.3-1.3,3.2-2.5,5.8-3.9
		c0-1.3-0.3-2.2-0.8-2.7c-0.3-0.3-0.8-0.5-1.5-0.5c-2,0-4.3,1.7-7.1,5.1c-0.2,0.2-0.5,0.4-0.7,0.4c-0.4,0-0.6-0.4-0.6-1.1
		s0.2-1.1,0.5-1.3c0.6-0.3,1.3-0.8,1.9-1.5c1.4-1.4,2.9-3.6,4.6-6.5c-0.6,0.1-1.5,0.2-2.7,0.2c-0.6,0.1-1.2,0.1-1.6,0.1
		c-0.3,0-0.7-0.3-1.3-0.8c-0.5-0.4-0.7-0.9-0.7-1.4c0.2-0.3,0.3-0.3,0.5,0.1c0.5,0.7,1.4,1.1,2.7,1.1c1.3,0,2.5-0.1,3.6-0.2
		c0.6-1.2,1-2.1,1.1-2.8c0.2-1.1-0.4-1.8-1.8-2c-0.5-0.1-0.6-0.2-0.1-0.5c1.4-0.2,2.8,0.3,4.2,1.3c0.4,0.3,0.4,0.7-0.1,1.1
		c-0.4,0.3-1.1,1.3-2,2.9c1.7-0.3,3.1-0.7,4.2-1.2c0.4-0.2,0.7-0.4,0.9-0.4s0.5,0.2,0.8,0.5c0.2,0.1,0.2,0.3,0.2,0.6
		c0,0.2-0.2,0.4-0.7,0.5c-1.9,0.3-3.9,0.6-6,0.9c-1,1.6-2.1,3.1-3.2,4.7c-0.2,0.4-0.2,0.5,0.2,0.4c1.3-0.6,2.3-0.9,3.2-0.9
		c1.1,0,1.9,0.3,2.5,0.8c0.7,0.7,1.1,1.6,1.2,2.6c3.9-1.9,6.4-3.1,7.5-3.8c0.4-0.2,0.5-0.4,0.2-0.6c-0.5-0.3-1-0.5-1.6-0.7
		c-0.5-0.2-0.5-0.3,0-0.5C415,55.1,416.4,55.5,417.9,56.4z"/>
	<path class="st0" d="M422.8,51.8h7.9l1.3-1.3l1.6,1.2c0.5,0.4,0.5,0.7,0,0.8h-10.8V51.8z M423.8,59.5h5.5l1.3-1.3l1.6,1.2
		c0.5,0.4,0.5,0.7,0,0.8h-8.5V59.5z M423.9,48.3h5.6l1.3-1.3l1.6,1.2c0.5,0.4,0.5,0.7,0,0.8h-8.6V48.3z M423.9,55.7h5.5l1.3-1.3
		l1.6,1.2c0.5,0.4,0.5,0.7,0,0.8h-8.5V55.7z M429.2,63.2l0.7-0.9l1.6,1.2c0.5,0.4,0.3,0.7-0.5,0.8V71c-1,0.9-1.5,1-1.5,0.1v-1.2
		h-3.8v2.1c-1,0.9-1.5,1-1.5,0.1v-9.8l1.8,0.8H429.2z M425.8,69.2h3.8v-5.3h-3.8V69.2z M443,59.7h2.8l1.5-1.5l1.9,1.4
		c0.5,0.4,0.5,0.7,0,0.8H443v9.6h3.6l1.8-1.8l2.2,1.6c0.5,0.4,0.5,0.7,0,0.8h-18.2v-0.7h3.3V55.8l2.1,0.4c0.9,0.3,0.7,0.6-0.6,0.9
		v12.9h4.2V50.5h-7.2v-0.7h11.5l1.5-1.5l1.9,1.4c0.5,0.4,0.5,0.7,0,0.8H443V59.7z"/>
	<path class="st0" d="M477.4,50.6l2.4,1.8c0.5,0.4,0.5,0.7,0,0.8H453v-0.7h22.6L477.4,50.6z M457.6,56.5h14.4l1.5-1.5l1.9,1.4
		c0.5,0.4,0.5,0.7,0,0.8h-17.8V56.5z M457.6,61v-0.7h14.4l1.5-1.5l1.9,1.4c0.5,0.4,0.5,0.7,0,0.8H457.6z M473.4,70.6h-14.4v1.6
		c-1,0.9-1.5,1-1.5,0.1v-9.2l1.8,0.9h13.8l0.7-0.9l1.6,1.2c0.5,0.4,0.3,0.7-0.5,0.8v6.5c-1,0.9-1.5,1-1.5,0.1V70.6z M458.4,48.5h12
		l1.8-1.8l2.2,1.6c0.5,0.4,0.5,0.7,0,0.8h-16V48.5z M459.1,69.9h14.4v-5.1h-14.4V69.9z"/>
	<path class="st0" d="M491,54.9c0-1.3,0-2.5,0.1-3.9c0.1-1.3-0.6-2-2.1-2.1c-0.5-0.2-0.5-0.3-0.1-0.5c0.5-0.1,0.9-0.1,1.3-0.1
		c0.9,0,1.9,0.4,2.9,1.2c0.3,0.2,0.3,0.6,0,1.1c-0.2,0.2-0.3,0.7-0.5,1.4c-0.2,0.7-0.2,1.6-0.2,2.6c0,3.6,0,7.2,0,10.7
		c0,1.4,0.2,2.4,0.7,2.9c0.7,0.8,1.9,1.2,3.5,1.2c2.3,0,4.3-0.5,6-1.4c1.9-1,4-2.5,6.2-4.5c0.3-0.2,0.4-0.1,0.4,0.2
		c-2.1,2.5-4.2,4.4-6.4,5.5c-1.8,1-4,1.5-6.5,1.5c-1.8,0-3.2-0.5-4.2-1.6c-0.8-0.9-1.2-2.1-1.2-3.8C491,61.9,491,58.4,491,54.9z"/>
	<path class="st0" d="M535.6,49.3c0.5-0.4,1-0.4,1.5,0c0.9,0.6,1.3,1,1.4,1.1c0.4,0.4,0.3,0.7-0.2,0.8c-4.9-0.2-8.4,0.8-10.5,2.9
		c-2,2-3.1,4.1-3.1,6.1c0,2.4,0.8,4.3,2.4,5.9c1.6,1.6,3.5,2.5,5.6,2.6c0.8,0,1.3,0.2,1.5,0.5c0.3,0.4,0.5,0.7,0.5,1.1
		c0,0.4-0.3,0.6-0.9,0.6c-2.2,0-4.3-0.8-6.4-2.5c-2.4-2-3.6-4.5-3.6-7.8c0-3,1.5-5.7,4.6-8.1c0.4-0.3,0.4-0.5,0-0.5
		c-2.4,0.5-4.7,0.9-6.9,1.4c-0.9,0.2-1.9,0.5-2.8,0.9c-0.7,0.3-1.2,0.4-1.4,0.4c-0.4-0.1-0.8-0.3-1.2-0.6c-0.9-0.6-1.3-1.3-1.4-2
		c0.2-0.5,0.3-0.6,0.5-0.1c0.4,0.7,1.2,1,2.5,0.9c0.6,0,1.7-0.2,3.2-0.5c4.1-0.7,8.2-1.5,12.2-2.2C534.2,50,535.1,49.7,535.6,49.3z"
		/>
	<path class="st0" d="M546.2,53.8c0-1.8-0.5-2.9-1.6-3.4c-0.3-0.2-0.3-0.3,0.1-0.4c0.9,0.1,1.9,0.5,2.8,1.3c0.8,0.6,0.9,1.3,0.4,1.9
		c-0.2,2-0.4,3.7-0.4,5.1c0,3.6,0.4,6.1,1.3,7.5c0.5,0.7,0.9,0.7,1.3,0c1.3-2.3,2.8-4.7,4.4-7.4c0.3-0.4,0.5-0.3,0.5,0.2
		c-1.2,2.5-2.2,4.8-3.2,6.9c-0.5,1.1-0.7,2-0.5,2.7c0.3,1,0,1.4-0.8,1.1c-1.3-0.5-2.4-1.7-3.3-3.8c-0.6-1.5-0.9-3.3-0.9-5.4
		C546.2,58,546.2,55.9,546.2,53.8z M566.2,54.6c2.3,2.5,3.4,5,3.4,7.4c0,0.9-0.4,1.3-1.1,1.3c-0.5,0-0.9-0.3-0.9-0.9
		c-0.2-2-0.8-3.9-1.8-5.6c-0.9-1.6-2.1-3.2-3.8-4.6c-0.2-0.2-0.2-0.4,0.2-0.4C563.9,52.7,565.2,53.6,566.2,54.6z"/>
	<path class="st0" d="M588.2,52.8c1.8-0.2,3.3-0.4,4.6-0.7c0.7-0.2,1.3-0.4,1.6-0.7c0.4-0.3,0.7-0.4,1.1-0.1
		c0.5,0.3,0.8,0.5,0.9,0.7c0.4,0.4,0.3,0.7-0.4,0.8c-2.3,0.5-4.9,0.9-7.9,1.2c0,1.7,0,3.5,0,5.2c1.6-0.2,2.8-0.3,3.6-0.5
		c1.1-0.2,1.8-0.4,2.1-0.6c0.4-0.2,0.7-0.2,1.1,0c0.4,0.2,0.7,0.4,0.9,0.6c0.3,0.2,0.2,0.5-0.2,0.7c-0.2,0.2-0.9,0.3-1.9,0.4
		c-2,0.2-3.9,0.4-5.6,0.5c0,1.9,0,3.7,0,5.5c3.1,0.6,5.8,1.5,8.1,2.6c0.7,0.3,1.1,0.9,1.1,1.6c0,0.3-0.2,0.5-0.5,0.6
		c-0.2,0.1-0.6,0-1.1-0.4c-2.6-1.6-5.1-2.7-7.6-3.3c0.1,1.3-0.2,2.4-0.8,3.1c-0.9,0.9-2.4,1.4-4.5,1.4c-1.9,0-3.3-0.5-4.2-1.4
		c-0.5-0.5-0.7-1-0.7-1.6c0-0.7,0.3-1.3,0.9-1.8c1-0.8,2.7-1.2,5.2-1.2c0.5,0,1.5,0,2.8,0.1c0-1.7,0-3.5,0-5.2
		c-1.2,0.1-2.4,0.1-3.6,0.1c-1.3,0-2.3-0.2-2.9-0.6c-0.9-0.5-1.3-1.6-1.2-3.3c0.2-0.3,0.4-0.3,0.6,0c0,1.1,0.2,1.8,0.6,2.2
		c0.5,0.5,1.5,0.7,2.9,0.7c1.3,0,2.5-0.1,3.6-0.2c0-1.7,0-3.5,0-5.2c-1.5,0.2-3.2,0.2-5.2,0.2c-1.4,0-2.5-0.1-3.4-0.4
		c-1.2-0.3-2.2-0.9-2.9-1.9c-0.2-0.5-0.1-0.6,0.4-0.4c0.8,0.7,1.6,1.2,2.5,1.4c0.5,0.2,1.8,0.2,3.9,0.2c1.6,0,3.2-0.1,4.8-0.4
		c0-0.6,0-1.3,0-2c0-1.3-0.1-2.2-0.4-2.5c-0.4-0.5-1.1-0.8-2-0.8c-0.5,0.1-0.6-0.1-0.1-0.5c0.4-0.2,0.9-0.2,1.5-0.2
		c0.8,0,1.7,0.3,2.8,0.9c0.5,0.3,0.5,0.7,0,1.2c-0.4,0.3-0.6,0.9-0.6,1.8C588.2,51.5,588.2,52.1,588.2,52.8z M583.3,66.2
		c-1.5,0-2.6,0.2-3.4,0.6c-0.8,0.4-1.2,0.9-1.2,1.6c0,0.6,0.4,1.1,1.2,1.5c0.8,0.4,1.7,0.6,2.7,0.6c1.4,0,2.5-0.4,3.3-1.1
		c0.6-0.5,0.9-1.5,0.8-2.9C585,66.3,583.9,66.2,583.3,66.2z"/>
	<path class="st0" d="M619,53c3.5-0.2,5.9-0.4,7.1-0.6c0.5-0.1,1.3-0.2,2.4-0.5c0.4-0.1,0.8,0,1.2,0.4c0.9,0.7,1.3,1.2,1.4,1.4
		c0.2,0.5-0.1,0.6-0.7,0.5c-1.6-0.4-3.6-0.6-6-0.6c-1.5,0-3.3,0.1-5.3,0.2c0,1.7,0,3.4,0,5.1c0.2,0.8,0.4,1.9,0.4,3.3
		c0,4.9-2.2,8.5-6.5,10.7c-0.4,0.1-0.5,0-0.2-0.4c0.9-0.7,1.8-1.5,2.5-2.2c1.7-2,2.6-4.3,2.7-7.1c-0.6,0.9-1.5,1.4-2.5,1.4
		c-0.9,0-1.6-0.4-2.4-1.1c-0.5-0.5-0.8-1.4-0.8-2.5c0-1.1,0.4-2,1.2-2.8c0.6-0.6,1.4-0.9,2.4-0.9c0.7,0,1.3,0.2,1.9,0.5
		c0-1.3,0-2.5,0-3.9c-4.2,0.6-7.3,1.3-9.3,1.9c-0.8,0.2-1.3,0.4-1.6,0.6c-0.5,0.2-0.9,0.2-1.3-0.1c-0.9-0.6-1.5-1.5-1.9-2.7
		c0-0.4,0.2-0.4,0.5-0.1c0.4,0.7,1.1,1.1,2.2,1.1c1.1,0,2.8-0.2,5.1-0.6c1.8-0.3,3.9-0.6,6.4-0.8c0-1,0-2.1,0-3.2
		c0-1.8-0.8-2.8-2.4-2.9c-0.3-0.2-0.3-0.3,0-0.5c1.3-0.2,2.4,0,3.2,0.6c0.4,0.2,0.7,0.6,1.1,1.1c0.3,0.4,0.3,0.7-0.1,0.8
		C619.1,49.2,619,50.6,619,53z M613.8,58.9c-0.4,0.5-0.6,1.2-0.6,2c0,1.3,0.3,2.2,0.9,2.7c0.2,0.2,0.6,0.4,1.2,0.4
		c0.5,0,1-0.2,1.3-0.5c0.7-0.7,1.1-1.7,1.1-2.9c0-1.7-0.7-2.6-2-2.6C614.8,57.9,614.2,58.2,613.8,58.9z"/>
	<path class="st0" d="M640.7,69.6c0,1.1-0.4,2-1.1,2.7s-1.6,1.1-2.7,1.1c-1.1,0-2-0.4-2.7-1.1s-1.1-1.6-1.1-2.7s0.4-2,1.1-2.7
		s1.6-1.1,2.7-1.1c1.1,0,2,0.4,2.7,1.1S640.7,68.5,640.7,69.6z M639.9,69.6c0-0.9-0.3-1.6-0.8-2.1c-0.5-0.5-1.3-0.8-2.1-0.8
		c-0.9,0-1.6,0.3-2.1,0.8c-0.5,0.5-0.8,1.3-0.8,2.1s0.3,1.6,0.8,2.1c0.5,0.5,1.3,0.8,2.1,0.8c0.9,0,1.6-0.3,2.1-0.8
		C639.6,71.1,639.9,70.4,639.9,69.6z"/>
</g>
</svg>
