<?xml version="1.0" encoding="utf-8"?>
<!-- Generator: Adobe Illustrator 25.0.1, SVG Export Plug-In . SVG Version: 6.00 Build 0)  -->
<svg version="1.1" id="レイヤー_1" xmlns="http://www.w3.org/2000/svg" xmlns:xlink="http://www.w3.org/1999/xlink" x="0px"
	 y="0px" viewBox="0 0 445.5 27.6" style="enable-background:new 0 0 445.5 27.6;" xml:space="preserve">
<style type="text/css">
	.st0{fill:#FFFFFF;}
</style>
<g>
	<path class="st0" d="M46.5,22.7c-2.7,1.8-5.4,2.9-8,3.4c-0.3,0-0.4-0.1-0.2-0.4c3.5-1.2,6.1-2.7,7.7-4.4l1.5,1.1
		C47.6,22.8,47.3,22.9,46.5,22.7z M49.5,8.7h7.4l1.5-1.5l1.9,1.4c0.4,0.3,0.4,0.6,0,0.7h-22V8.7h10V5.7h-7.3V5.2h13.4l1.3-1.3
		l1.6,1.2c0.4,0.3,0.4,0.6,0,0.7h-7.6V8.7z M54.3,11.3l0.6-0.8l1.4,1c0.4,0.3,0.3,0.6-0.4,0.7V21c-0.8,0.8-1.3,0.8-1.3,0.1v-0.2
		H43.6v0.7c-0.8,0.8-1.3,0.8-1.3,0.1V10.5l1.5,0.8H54.3z M54.6,14.2v-2.3H43.6v2.3H54.6z M54.6,17v-2.1H43.6V17H54.6z M54.6,20.3
		v-2.7H43.6v2.7H54.6z M57.3,23.8c0.8,0.5,1.2,1,1.2,1.6c0,0.5-0.2,0.7-0.5,0.7c-0.3,0-0.8-0.3-1.4-0.9c-1.6-1.4-3.3-2.5-5.2-3.2
		c-0.3-0.2-0.3-0.3,0.1-0.4C53.8,22.1,55.8,22.8,57.3,23.8z"/>
	<path class="st0" d="M79.7,12.1h-3.9v11.3c0,0.5-0.1,0.9-0.4,1.2c-0.2,0.2-0.5,0.4-1,0.5c-0.4,0.1-0.6,0-0.6-0.4
		c0-0.2-0.1-0.4-0.4-0.5l-1.2-0.3c-0.1-0.1-0.1-0.2,0-0.3h1.6c0.5,0,0.7-0.2,0.7-0.7V11.5h-8v13.9c-0.8,0.8-1.3,0.8-1.3,0.1V10.1
		l1.5,0.8h2.8V7.7h-5.2V7.1h5.2V3.8l1.7,0.3c0.5,0.3,0.4,0.6-0.4,0.7v2.3h3.6l1.3-1.3L77.2,7c0.4,0.3,0.4,0.6,0,0.7h-6.4v3.2h3.4
		l0.6-0.8l1.4,1c0.3,0.1,0.3,0.3,0.1,0.4h3.4V3.9l1.7,0.3c0.5,0.3,0.4,0.6-0.4,0.7v6.6h3.1l1.3-1.3l1.6,1.2c0.4,0.3,0.4,0.6,0,0.7
		H81c1,5.6,3.1,9.6,6.3,12.1c-0.7,0.3-1.2,0.7-1.5,1.2c-2.7-2.8-4.5-6.6-5.2-11.4c-0.1,5.5-1.9,9.4-5.3,11.7c-0.3,0.1-0.5,0-0.4-0.3
		C78.1,22.9,79.6,18.5,79.7,12.1z M71,19.2v5.5c-0.8,0.8-1.3,0.8-1.3,0.1v-5.6h-2.2v-0.6h2.2v-2.1h-2.5v-0.6h3.6l1.3-3.9l1.2,0.6
		c0.6,0.3,0.4,0.6-0.5,0.7l-1.6,2.6h0.7l1-1l1.4,1.1c0.2,0.3,0.1,0.4-0.2,0.5h-3v2.1h0.8l1-1l1.4,1.1c0.2,0.3,0.1,0.4-0.2,0.5H71z
		 M69.4,14.5c0,0.5-0.2,0.7-0.6,0.7c-0.3,0-0.5-0.3-0.6-0.9c-0.1-0.8-0.2-1.4-0.5-2c-0.1-0.3-0.1-0.4,0.2-0.3
		C68.9,12.9,69.4,13.7,69.4,14.5z M81.8,7c-0.3-0.3-0.2-0.4,0.2-0.3c2,0.5,2.9,1.2,2.9,2.2c0,0.5-0.2,0.7-0.7,0.7
		c-0.2,0-0.4-0.2-0.6-0.7C83.3,8.2,82.7,7.5,81.8,7z"/>
	<path class="st0" d="M98,11.3c-1.5,3.5-3,6.9-4.6,10.4c-0.2,0.3-0.5,1-0.9,2c-0.2,0.5-0.4,0.8-0.7,0.8c-0.2,0-0.4-0.2-0.5-0.5
		c-0.1-0.1-0.1-0.4-0.1-0.8c0-0.6,0.2-1.1,0.6-1.5s0.8-1.1,1.4-2.1c1.4-2.8,2.7-5.5,3.8-8c-2,0.4-3.2,0.7-3.7,1
		c-0.4,0.2-0.7,0.2-1.1-0.1c-0.7-0.5-1-1.1-1-2.1c0.1-0.2,0.2-0.2,0.3,0c0.3,0.7,0.8,1.1,1.6,1.1c0.5,0,1.9-0.2,4.2-0.6
		c0.3-0.7,0.6-1.5,1-2.2c0.3-0.9,0.3-1.6-0.1-2.1c-0.3-0.4-0.8-0.6-1.6-0.7c-0.3-0.1-0.3-0.3,0-0.4c0.6,0,1.1,0,1.4,0.1
		c0.7,0.2,1.3,0.6,1.9,1.1c0.6,0.6,0.6,0.9-0.1,1.1c-0.5,1-0.9,2.1-1.5,3c0.9-0.1,1.5-0.2,1.9-0.2c0.8,0,1.5,0.2,1.9,0.7
		c0.6,0.7,0.9,1.9,0.9,3.6c0,5-1.2,8.1-3.6,9.4c-0.7,0.3-1,0.2-1-0.4c0-0.5-0.1-0.8-0.4-1c-0.6-0.5-1.2-0.9-2-1.5
		c-0.1-0.3-0.1-0.4,0.2-0.3c0.7,0.4,1.5,0.8,2.2,1.2c0.6,0.3,1.2,0.1,1.8-0.6c0.6-0.8,1-1.9,1.3-3.1c0.3-1.6,0.5-3,0.5-4.3
		c0-1.2-0.1-2-0.3-2.3c-0.3-0.5-0.7-0.8-1.5-0.8C99.5,11.1,98.7,11.2,98,11.3z M106.6,10.2c1.1,0.5,2.3,1.2,3.5,2.1
		c1.6,1.3,2.5,2.9,2.7,4.8c0.1,0.7,0,1.1-0.3,1.5c-0.4,0.5-0.8,0.5-1.2-0.1c-0.4-0.7-0.9-0.9-1.5-0.9c-0.9,0.1-1.9,0.1-2.8,0.2
		c-0.4-0.1-0.4-0.2-0.1-0.4c1-0.1,2.1-0.3,3.3-0.5c0.5-0.1,0.6-0.3,0.6-0.6c-0.1-1-0.6-2.1-1.5-3.2c-0.8-1-1.8-1.9-3-2.6
		C106.1,10.3,106.2,10.2,106.6,10.2z"/>
	<path class="st0" d="M129.5,14.4c2.2,0,3.9,0.6,5,1.7c0.8,0.8,1.3,1.9,1.3,3c0,1.3-0.5,2.4-1.4,3.3c-1.9,1.8-5.5,2.7-10.7,2.6
		c-0.4-0.2-0.4-0.4,0-0.6c4.8-0.1,8-1,9.7-2.7c0.7-0.7,1.1-1.7,1.1-2.8c0-1-0.3-1.8-0.8-2.3c-1-1-2.3-1.6-3.9-1.6
		c-2.2,0-4.1,0.8-5.7,2.3c-1,1-1.6,1.9-1.8,2.8c-0.1,0.6-0.4,0.7-0.9,0.5c-0.7-0.4-1-1.2-1-2.4c0.1-1.6,0.2-3.1,0.5-4.4
		c0.1-0.7,0.2-1.4,0.2-2.1c0-0.5-0.1-0.8-0.3-1.2c-0.2-0.3-0.2-0.7,0.1-1.1c0.5-0.8,1.4-1.3,2.6-1.6c0.6-0.1,1.4-0.2,2.3-0.2
		c0.1,0,0.2-0.1,0.1-0.2c-0.1-0.2-0.3-0.3-0.7-0.4c-1.4-0.3-2.5-1.1-3.2-2.6c0.1-0.2,0.2-0.2,0.3-0.1c0.8,1,2.1,1.7,4.1,2.1
		c1.2,0.3,1.9,0.9,2.1,2c0.1,0.6-0.2,0.7-0.8,0.5c-0.8-0.4-1.6-0.6-2.1-0.6c-1.8,0-3.1,0.4-3.8,1.1c-0.5,0.5-0.5,0.9,0,1.4
		c0.4,0.4,0.5,0.9,0.3,1.6c-0.4,1.3-0.6,3.2-0.5,5.8c0,0.4,0.1,0.4,0.4,0C124.2,15.6,126.7,14.4,129.5,14.4z"/>
	<path class="st0" d="M147.5,5.3l2.1,0.6c0.7,0.3,0.4,0.6-0.9,0.9c-0.4,1.2-0.8,2.3-1.4,3.4h5.2V4.1l1.7,0.3
		c0.5,0.3,0.4,0.6-0.4,0.7v5.2h5.9L161,9l1.6,1.2c0.4,0.3,0.4,0.6,0,0.7h-8.7v5.8h4.6l1.3-1.3l1.6,1.2c0.4,0.3,0.4,0.6,0,0.7h-7.4
		V24h6.9l1.5-1.5l1.9,1.4c0.4,0.3,0.4,0.6,0,0.7h-21.7V24h10.2v-6.8h-6.1v-0.6h6.1v-5.8h-5.5c-1.4,2.6-2.9,4.8-4.7,6.4
		c-0.3,0.1-0.4,0-0.3-0.3C144.8,13.5,146.6,9.6,147.5,5.3z"/>
	<path class="st0" d="M179.9,9.4c1.5-0.1,2.8-0.3,3.8-0.6c0.6-0.1,1-0.3,1.4-0.6c0.3-0.3,0.6-0.3,0.9-0.1c0.4,0.3,0.6,0.5,0.8,0.6
		c0.3,0.3,0.2,0.6-0.3,0.7c-1.9,0.5-4.1,0.8-6.5,1c0,1.4,0,2.9,0,4.3c1.3-0.1,2.3-0.3,3-0.4c0.9-0.1,1.5-0.3,1.8-0.5
		c0.3-0.2,0.6-0.2,0.9,0c0.3,0.2,0.6,0.4,0.8,0.5c0.3,0.2,0.2,0.4-0.2,0.6c-0.2,0.1-0.7,0.2-1.6,0.3c-1.7,0.2-3.3,0.3-4.7,0.4
		c0,1.6,0,3.1,0,4.6c2.5,0.5,4.8,1.2,6.7,2.1c0.6,0.3,0.9,0.7,0.9,1.4c0,0.3-0.1,0.4-0.4,0.5c-0.2,0.1-0.5,0-0.9-0.3
		c-2.1-1.3-4.3-2.2-6.3-2.7c0.1,1.1-0.2,2-0.7,2.5c-0.7,0.8-2,1.2-3.7,1.2c-1.6,0-2.7-0.4-3.5-1.2c-0.4-0.4-0.6-0.8-0.6-1.4
		c0-0.6,0.3-1.1,0.8-1.5c0.8-0.7,2.3-1,4.3-1c0.5,0,1.2,0,2.3,0.1c0-1.4,0-2.9,0-4.3c-1,0.1-2,0.1-3,0.1c-1.1,0-1.9-0.2-2.4-0.5
		c-0.7-0.5-1-1.4-1-2.7c0.1-0.3,0.3-0.3,0.5,0c0,0.9,0.2,1.5,0.5,1.9c0.4,0.4,1.2,0.6,2.4,0.6c1.1,0,2.1-0.1,3-0.2
		c0-1.4,0-2.9,0-4.3c-1.2,0.1-2.7,0.2-4.3,0.2c-1.2,0-2.1-0.1-2.8-0.3c-1-0.3-1.8-0.8-2.4-1.6c-0.2-0.4-0.1-0.5,0.3-0.3
		c0.6,0.6,1.3,1,2.1,1.2c0.5,0.1,1.5,0.2,3.2,0.2c1.3,0,2.6-0.1,4-0.3c0-0.5,0-1.1,0-1.7c0-1.1-0.1-1.8-0.3-2.1
		c-0.3-0.5-0.9-0.7-1.7-0.7c-0.5,0.1-0.5-0.1-0.1-0.4c0.3-0.1,0.7-0.2,1.3-0.2c0.6,0,1.4,0.3,2.3,0.8c0.5,0.3,0.5,0.6,0,1
		c-0.3,0.3-0.5,0.7-0.5,1.5C179.9,8.4,179.9,8.9,179.9,9.4z M175.8,20.6c-1.2,0-2.2,0.2-2.8,0.5c-0.7,0.3-1,0.8-1,1.4
		c0,0.5,0.3,0.9,1,1.3c0.6,0.3,1.4,0.5,2.2,0.5c1.2,0,2.1-0.3,2.7-0.9c0.5-0.5,0.7-1.3,0.7-2.4C177.2,20.7,176.3,20.6,175.8,20.6z"
		/>
	<path class="st0" d="M196,20.9c-0.7,1.1-1.2,2-1.6,2.6c-0.1,0.2-0.3,0.3-0.5,0.3c-0.3,0-0.4-0.4-0.4-1.1c0-0.4,0.1-0.7,0.4-1.1
		c1.5-1.8,3.2-4.5,5.2-7.9c0-0.5,0-1,0-1.6c-0.9,0.3-1.7,0.7-2.3,1c-0.3,0.2-0.5,0.3-0.7,0.3c-0.1,0-0.4-0.1-0.8-0.4
		c-0.7-0.5-1.1-1-1.1-1.8c0.1-0.3,0.2-0.4,0.3-0.2c0.3,0.7,0.8,1.1,1.4,1.1c0.8,0,1.9-0.2,3.2-0.7c0-1.2,0-2.5,0-3.8
		c0-1.4-0.6-2.2-1.9-2.3c-0.5,0-0.5-0.1,0-0.4c1.6-0.1,2.7,0.2,3.3,1c0.4,0.3,0.4,0.6,0,0.9c-0.4,0.7-0.6,2.1-0.6,4.5
		c0.1-0.1,0.3-0.2,0.4-0.3c0.4,0.2,0.6,0.4,0.8,0.5c0.3,0.1,0.3,0.3,0.1,0.5c-0.3,0.3-0.7,0.8-1.3,1.6c0,0.3,0,0.5,0,0.8
		c3.2-3.5,5.9-5.2,8-5.2c1.6,0,2.4,0.7,2.2,2.1c-0.4,4.3-0.6,6.9-0.6,7.9c0,2.3,0.5,3.5,1.5,3.5c1.9,0,3.5-1.6,4.8-4.8
		c0.3-0.4,0.4-0.4,0.4,0.1c-1,3.8-2.8,5.7-5.2,5.7c-0.8,0-1.4-0.3-2-0.8c-0.5-0.5-0.8-1.7-0.8-3.4c0-2.1,0.1-4.9,0.4-8.3
		c0.1-0.8-0.3-1.3-1.1-1.3c-1.8,0-4.3,1.8-7.7,5.4c0.1,4.8,0.1,7.4,0.2,7.8c0.1,0.9,0,1.6-0.5,2.1c-0.3,0.3-0.5,0.4-0.7,0.4
		c-0.3,0-0.4-0.3-0.4-0.8C198.6,24,197.7,22.7,196,20.9z M199.1,16.1c-1,1.4-2,2.9-2.9,4.4c0.8,0.7,1.5,1.3,2.2,1.9
		c0.3,0.3,0.5,0.2,0.6-0.1C199.1,20.7,199.1,18.6,199.1,16.1z"/>
	<path class="st0" d="M223,17.5c0.5-0.4,3.5-3.7,9.2-10c0.2-0.1,0.1-0.2-0.2-0.3c-1.6,0.3-3.1,0.7-4.7,1.2c-0.5,0.3-0.8,0.4-1.1,0.4
		c-0.1,0-0.5-0.2-1-0.6c-0.7-0.5-1-1.1-1.1-1.8c0-0.3,0.1-0.4,0.4-0.1c0.4,0.6,1,0.9,2,0.9c0.8,0,1.4,0,1.6-0.1
		c1.3-0.2,2.6-0.4,3.8-0.7c0.6-0.1,1.1-0.3,1.5-0.6c0.1-0.2,0.3-0.3,0.5-0.3c0.3,0,0.7,0.2,1.1,0.5c0.3,0.3,0.5,0.5,0.5,0.7
		c0,0.1-0.3,0.3-0.9,0.5c-0.7,0.3-3,2.5-6.7,6.4c-0.2,0.3-0.1,0.4,0.3,0.2c1.4-0.5,2.8-0.8,4.2-0.8c2.1,0,3.9,0.7,5.2,2
		c0.9,0.9,1.4,2.1,1.4,3.6c0,1.8-0.5,3.2-1.6,4.2c-1.6,1.6-3.8,2.3-6.6,2.3c-1.8,0-3.1-0.4-3.8-1.1c-0.6-0.6-0.9-1.2-0.9-1.8
		c0-0.5,0.2-1,0.6-1.4c0.5-0.5,1.1-0.7,2.1-0.7c1.1,0,2.1,0.5,3,1.4c0.6,0.6,1,1.4,1.2,2.4c1.2-0.3,2.3-0.8,3.2-1.8
		c1-1,1.5-2.1,1.5-3.5c0-1.5-0.5-2.7-1.4-3.6c-1-1-2.5-1.6-4.4-1.6c-2.1,0-4.2,1.1-6.3,3.2c-0.8,0.8-1.5,1.7-2.1,2.5
		c-0.1,0.3-0.4,0.4-0.7,0.4c-0.3,0-0.4-0.3-0.4-0.9C222.2,18.4,222.5,17.9,223,17.5z M230.2,21.8c-0.5-0.5-1.1-0.8-1.9-0.8
		c-1.2,0-1.8,0.5-1.8,1.4c0,0.4,0.2,0.8,0.6,1.2c0.6,0.6,1.9,0.9,4,0.9C231.1,23.2,230.8,22.3,230.2,21.8z"/>
	<path class="st0" d="M246.4,21.1c-0.3-0.3-0.3-0.4,0.1-0.4c1.6,0.5,3,1.4,4.4,2.7c0.6,0.6,0.9,1.2,0.9,1.8c0,0.4-0.1,0.7-0.4,1
		c-0.2,0.2-0.4,0.3-0.6,0.3c-0.3,0-0.6-0.2-0.8-0.6c-0.3-0.6-0.7-1.3-1.3-2.2C248.4,23,247.6,22.1,246.4,21.1z"/>
	<path class="st0" d="M279.4,16c0.7-0.7,1.2-1.3,1.8-1.9c-0.3,0-0.6-0.3-0.9-0.8c-0.5-1-1.5-1.9-2.8-2.6c-1.9,2.2-4,4-6.3,5.3
		c-0.3,0-0.4-0.1-0.2-0.4c3.9-2.7,6.8-6.5,8.6-11.6l1.8,0.8c0.7,0.3,0.4,0.5-0.7,0.7c-0.3,0.6-0.7,1.1-1,1.7h6.3l0.6-0.8l1.7,1.1
		c0.5,0.5,0.2,0.7-0.8,0.7c-2.2,3.3-4.6,6.1-7.1,8.4h8.2l0.6-0.8l1.4,1c0.4,0.3,0.3,0.6-0.4,0.7v7.4c-0.8,0.8-1.3,0.8-1.3,0.1v-1.1
		h-8.6v1.9c-0.8,0.8-1.3,0.8-1.3,0.1v-8.2c-2.4,2-5.2,3.4-8.5,4.2c-0.3,0-0.4-0.1-0.2-0.4c3.2-1,6.1-2.7,8.7-5.1v-0.5L279.4,16z
		 M279.4,7.7c-0.6,1-1.2,2-1.8,2.7c1.6,0.4,2.7,0.9,3.3,1.5c0.4,0.4,0.7,0.9,0.9,1.6c1.4-1.6,2.8-3.5,4.2-5.8H279.4z M288.9,23.2
		v-6.2h-8.6v6.2H288.9z"/>
	<path class="st0" d="M309,7.7h7.5l1.3-1.3l1.6,1.2c0.4,0.3,0.4,0.6,0,0.7H309v2.5h6.1l1.1-1.1l1.4,1c0.4,0.3,0.4,0.6,0,0.7h-17.6
		v-0.6h7.8V8.3h-10.4V7.7h10.4V4l1.7,0.3c0.5,0.3,0.4,0.6-0.4,0.7V7.7z M302.4,17.9v1c0,2.7-1.5,5.1-4.4,7.2c-0.3,0.1-0.4,0-0.3-0.3
		c2.3-2.1,3.4-4.4,3.4-6.9v-6.2l1.5,0.8h11.8l0.6-0.8l1.4,1c0.4,0.3,0.3,0.6-0.4,0.7v4.7c-0.8,0.8-1.3,0.8-1.3,0.1v-1.3H302.4z
		 M308,14.1h-5.6v3.2h5.6V14.1z M314.7,14.1h-5.5v3.2h5.5V14.1z"/>
	<path class="st0" d="M333.9,11.9c-0.3-0.5-0.7-0.8-1.5-0.8c-0.3,0-0.8,0.1-1.6,0.2c-1.5,3.5-3,6.9-4.6,10.4c-0.2,0.3-0.5,1-0.9,2
		c-0.2,0.5-0.4,0.8-0.7,0.8c-0.2,0-0.4-0.2-0.5-0.5c-0.1-0.1-0.1-0.4-0.1-0.8c0-0.6,0.2-1.1,0.6-1.5s0.8-1.1,1.4-2.1
		c1.4-2.8,2.7-5.5,3.8-8c-1.8,0.3-3,0.7-3.7,1c-0.4,0.2-0.7,0.2-1.1-0.1c-0.7-0.5-1-1.1-1-2.1c0.1-0.2,0.2-0.2,0.3,0
		c0.4,0.7,0.9,1.1,1.6,1.1c0.5,0,1.9-0.2,4.2-0.6c0.3-0.7,0.7-1.5,1-2.2c0.3-0.9,0.3-1.6-0.1-2.1c-0.3-0.4-0.8-0.6-1.6-0.7
		c-0.3-0.1-0.3-0.3,0-0.4c0.7,0,1.1,0,1.4,0.1c0.7,0.2,1.3,0.6,1.9,1.1c0.6,0.6,0.6,0.9-0.1,1.1c-0.5,1-0.9,2.1-1.5,3
		c0.5-0.1,0.9-0.2,1.3-0.2c0.8,0,1.5,0.2,1.9,0.7c0.6,0.7,0.9,1.9,0.9,3.6c0,5-1.2,8.1-3.6,9.4c-0.7,0.3-1,0.2-1-0.4
		c0-0.5-0.1-0.8-0.4-1c-0.7-0.5-1.3-0.9-2-1.5c-0.1-0.3-0.1-0.4,0.2-0.3c0.8,0.5,1.5,0.8,2.2,1.2c0.7,0.3,1.2,0.1,1.8-0.6
		c0.6-0.8,1-1.9,1.3-3.1c0.3-1.6,0.5-3,0.5-4.3C334.2,13.1,334.1,12.3,333.9,11.9z M337.8,10.6c1.1,0.5,2.3,1.2,3.5,2.1
		c1.6,1.3,2.5,2.9,2.7,4.8c0.1,0.7,0,1.1-0.3,1.5c-0.4,0.5-0.8,0.5-1.2-0.1c-0.4-0.7-0.9-0.9-1.5-0.9c-0.9,0.1-1.9,0.1-2.8,0.2
		c-0.4-0.1-0.4-0.2-0.1-0.4c1-0.1,2.1-0.3,3.3-0.5c0.5-0.1,0.7-0.3,0.6-0.6c-0.1-1-0.6-2.1-1.5-3.2c-0.8-1-1.8-1.9-3-2.6
		C337.3,10.7,337.4,10.6,337.8,10.6z M341.1,9.5c-0.4,0.1-0.7,0-0.9-0.5c-0.5-1-1.3-2-2.5-2.7c-0.1-0.2-0.1-0.3,0.1-0.2
		c1.1,0.2,2.1,0.6,2.9,1.3c0.4,0.3,0.7,0.7,0.8,1.2C341.6,9.1,341.4,9.4,341.1,9.5z M342.7,7.4c-0.5-1-1.3-2-2.5-2.7
		c-0.1-0.2-0.1-0.3,0.1-0.2c1.1,0.2,2.1,0.6,2.9,1.3c0.4,0.3,0.7,0.7,0.8,1.2c0.1,0.5,0,0.8-0.4,1C343.2,8,342.9,7.9,342.7,7.4z"/>
	<path class="st0" d="M357.5,9.3c1.8-0.4,3.1-0.9,3.9-1.6c0.7,0.1,1.2,0.2,1.4,0.3c0.5,0.3,0.3,0.7-0.7,1c-1.2,0.5-2.8,0.8-4.7,1.1
		c-0.3,2-0.5,3.5-0.5,4.3c1.7-0.6,3.3-1,4.9-1.2c0.1-0.6-0.4-1-1.5-1.2c-0.3-0.1-0.2-0.3,0.1-0.4c2,0.1,3,0.7,2.9,1.6
		c2.5,0.1,4.3,0.6,5.4,1.7c1,1,1.5,2.1,1.5,3.5s-0.6,2.6-1.8,3.8c-1.4,1.4-3.5,2.5-6.3,3.1c-0.5,0-0.5-0.1-0.1-0.4
		c2.3-0.9,4-1.9,5-2.8c1.2-1.2,1.8-2.4,1.8-3.7c0-1.2-0.4-2.2-1.2-3c-0.9-0.9-2.4-1.4-4.5-1.5c-0.5,1-1,2.2-1.8,3.4
		c-0.7,1.2-1.5,2.3-2.4,3.3c0.3,0.3,0.6,0.7,0.9,1.1c0.3,0.3,0.2,0.6-0.1,0.9c-0.4,0.3-0.8,0.1-1.2-0.4c-0.2-0.3-0.4-0.5-0.5-0.7
		c-0.8,0.8-1.7,1.5-2.5,2.1c-0.8,0.5-1.7,0.7-2.5,0.7c-1.3-0.1-2-1-2.1-2.6c-0.1-1.7,0.7-3.3,2.3-4.9c0.8-0.7,1.7-1.4,2.8-2
		c0-1,0.1-2.5,0.3-4.5c-0.9,0.1-1.8,0.2-2.6,0.3c-0.6,0.1-1-0.1-1.4-0.4c-0.5-0.5-0.8-1-1-1.6c0.1-0.3,0.2-0.4,0.4-0.1
		c0.4,0.8,1,1.2,2,1.2c1.1,0,2-0.1,2.7-0.2c0.2-1.3,0.3-2.5,0.4-3.6c0.1-0.6-0.4-1-1.3-1.2c-0.3,0-0.3-0.1,0-0.3
		c0.9,0,1.7,0.2,2.3,0.5c0.8,0.4,0.9,0.9,0.4,1.5C358,6.8,357.7,7.8,357.5,9.3z M353.7,17.4c-1.1,1.2-1.7,2.6-1.7,4.1
		c0,1.3,0.4,2,1.2,2.1c0.7,0.1,1.4-0.2,2.2-0.8c0.8-0.5,1.5-1.1,2.1-1.9c-1-1.6-1.5-3.4-1.6-5.4C355.1,16,354.3,16.6,353.7,17.4z
		 M356.9,15.1c0.2,2.1,0.7,3.8,1.6,4.9c0.7-0.9,1.4-1.9,2-3c0.5-1,0.9-2.1,1.3-3.1C359.4,14.2,357.9,14.6,356.9,15.1z"/>
	<path class="st0" d="M378.3,17.5c0.5-0.4,3.5-3.7,9.2-10c0.2-0.1,0.1-0.2-0.2-0.3c-1.6,0.3-3.1,0.7-4.7,1.2
		c-0.5,0.3-0.8,0.4-1.1,0.4c-0.1,0-0.5-0.2-1-0.6c-0.7-0.5-1-1.1-1.1-1.8c0-0.3,0.1-0.4,0.4-0.1c0.4,0.6,1,0.9,2,0.9
		c0.8,0,1.4,0,1.6-0.1c1.3-0.2,2.6-0.4,3.8-0.7c0.7-0.1,1.1-0.3,1.5-0.6c0.1-0.2,0.3-0.3,0.5-0.3c0.3,0,0.7,0.2,1.1,0.5
		c0.3,0.3,0.5,0.5,0.5,0.7c0,0.1-0.3,0.3-0.9,0.5c-0.7,0.3-3,2.5-6.7,6.4c-0.2,0.3-0.1,0.4,0.3,0.2c1.4-0.5,2.8-0.8,4.2-0.8
		c2.1,0,3.9,0.7,5.2,2c0.9,0.9,1.4,2.1,1.4,3.6c0,1.8-0.5,3.2-1.6,4.2c-1.6,1.6-3.8,2.3-6.6,2.3c-1.8,0-3.1-0.4-3.8-1.1
		c-0.6-0.6-0.9-1.2-0.9-1.8c0-0.5,0.2-1,0.6-1.4c0.5-0.5,1.1-0.7,2.1-0.7c1.1,0,2.1,0.5,3,1.4c0.6,0.6,1,1.4,1.2,2.4
		c1.2-0.3,2.3-0.8,3.2-1.8c1-1,1.5-2.1,1.5-3.5c0-1.5-0.5-2.7-1.4-3.6c-1-1-2.5-1.6-4.4-1.6c-2.1,0-4.2,1.1-6.3,3.2
		c-0.8,0.8-1.5,1.7-2.1,2.5c-0.1,0.3-0.4,0.4-0.7,0.4c-0.3,0-0.4-0.3-0.4-0.9C377.5,18.4,377.7,17.9,378.3,17.5z M385.5,21.8
		c-0.5-0.5-1.1-0.8-1.9-0.8c-1.2,0-1.8,0.5-1.8,1.4c0,0.4,0.2,0.8,0.6,1.2c0.6,0.6,1.9,0.9,4,0.9C386.4,23.2,386.1,22.3,385.5,21.8z
		"/>
	<path class="st0" d="M424.2,25.1V26h-24.9v-0.9H424.2z"/>
</g>
</svg>
