<?xml version="1.0" encoding="utf-8"?>
<!-- Generator: Adobe Illustrator 25.0.1, SVG Export Plug-In . SVG Version: 6.00 Build 0)  -->
<svg version="1.1" id="レイヤー_1" xmlns="http://www.w3.org/2000/svg" xmlns:xlink="http://www.w3.org/1999/xlink" x="0px"
	 y="0px" viewBox="0 0 530.4 204.1" style="enable-background:new 0 0 530.4 204.1;" xml:space="preserve">
<style type="text/css">
	.st0{fill:#FFFFFF;}
</style>
<g>
	<g>
		<path class="st0" d="M168.9,21.1c0,1.8-0.6,3.2-1.9,4.2c-1.3,1-3.2,1.6-5.6,1.6c-1.9,0-3.6-0.4-4.9-1.3c-1.3-0.8-1.9-1.8-1.9-3
			c0-0.6,0.2-1.2,0.5-1.6c0.4-0.3,0.8-0.5,1.3-0.5c0.6,0,1,0.2,1.2,0.5c0.2,0.4,0.4,0.8,0.4,1.1c0,0.2,0,0.4-0.1,0.6
			c-0.2,0.1-0.4,0.3-0.5,0.4c-0.1,0.1-0.2,0.2-0.2,0.4c-0.1,0.2-0.1,0.3-0.1,0.5c0,0.3,0.4,0.7,1.1,1.2c0.7,0.6,1.7,0.8,3,0.8
			c1.7,0,3-0.5,4-1.4s1.4-2.1,1.4-3.7s-0.5-2.8-1.6-3.6c-1-0.8-2.2-1.2-3.8-1.2h-2.6v-0.7h2.6c1.1,0,2.2-0.3,3.1-1
			c1-0.6,1.4-1.8,1.4-3.5c0-1.3-0.4-2.3-1.2-3.1c-0.6-0.8-1.7-1.2-3.2-1.2c-1.1,0-2,0.2-2.8,0.6c-0.9,0.5-1.1,1-0.7,1.6
			c0.2,0.4,0.4,0.7,0.4,0.8c0.1,0.2,0.1,0.5,0.1,0.7c0,0.4-0.2,0.7-0.5,1c-0.2,0.2-0.6,0.4-1,0.4c-0.5,0-0.9-0.1-1.2-0.4
			c-0.3-0.2-0.5-0.7-0.5-1.3c0-1.1,0.5-2.1,1.6-2.9c1-0.8,2.6-1.2,4.8-1.2s3.9,0.5,4.9,1.4c1.1,1,1.7,2.2,1.7,3.6
			c0,1.5-0.4,2.6-1.3,3.4c-1,0.8-2,1.3-3.2,1.4v0.1c1.8,0.2,3.1,0.8,4,1.7C168.4,18.4,168.9,19.6,168.9,21.1z"/>
		<path class="st0" d="M191.1,24.9c5.5-0.8,9.2-2.2,10.9-4.3c1-1.1,1.4-2.5,1.4-4.1c0-1.9-0.8-3.4-2.3-4.6c-1.5-1.1-3.3-1.7-5.4-1.7
			c-3.2,0-6.7,1.5-10.6,4.4c-0.7,0.6-1.4,1.1-2,1.7c-0.4,0.4-0.9,0.5-1.6,0.2c-0.6-0.2-1.2-0.5-1.7-0.8c-0.6-0.4-1-0.9-1.2-1.6
			c0-0.4,0.2-0.4,0.5-0.1c0.4,0.6,1,0.8,1.7,0.8c0.8,0,1.4-0.1,1.8-0.4c0.7-0.4,1.6-1,2.6-1.7c3.5-2.4,7-3.6,10.4-3.6
			c3,0,5.4,0.8,7.2,2.5c1.4,1.3,2.2,3,2.2,5.2c0,1.6-0.6,3.1-1.8,4.6c-1.9,2.3-6,3.6-12.2,3.8C190.6,25.2,190.6,25.1,191.1,24.9z"/>
		<path class="st0" d="M223.7,9c0.6,0.6,0.4,0.9-0.4,1.1c-2,5.7-4,9.9-5.9,12.6c-0.5,0.7-1,1.3-1.6,1.7c-0.9,0.6-1.5,0.6-1.8-0.2
			c-1-0.3-1.8-0.9-2.3-1.8c-0.6-1.1-1-2.4-1-4c0-3.2,1-5.8,3-7.8c2.6-2.6,5.8-4,9.6-4c4,0,7.1,1.1,9.4,3.4c1.6,1.6,2.4,3.6,2.4,6
			c0,2.2-0.8,4.1-2.3,5.8c-2.2,2.4-5.4,4-9.7,4.7c-0.3-0.2-0.3-0.3,0-0.5c3.6-0.9,6.4-2.4,8.3-4.7c1.3-1.5,1.9-3.3,1.9-5.4
			c0-2.2-0.6-3.9-1.7-5.2c-2.1-2.6-5.4-3.7-9.9-3.3C222.4,7.8,223.1,8.3,223.7,9z M221.6,9.7c0.2-1,0-1.7-0.6-2.2
			c-2.1,0.3-3.9,1.3-5.5,2.9c-2.1,2.1-3.1,4.5-3.1,7.3c0,2.4,0.4,4,1.3,4.9c0.4,0.4,0.8,0.6,1.2,0.6c0.3,0,0.7-0.2,1.2-0.7
			C218.4,19,220.2,14.7,221.6,9.7z"/>
		<path class="st0" d="M243.4,27.1c1.5,0.2,2.5-0.5,3-1.9s0.8-4.2,1-8.4h-5l-0.1,1.7c-1,0.9-1.6,1-1.7,0.4l1-9.1l1.3,0.7h4.3V5.1
			h-6.5V4.4h6.1l0.8-1.1l1.9,1.3c0.6,0.5,0.4,0.8-0.8,1v6.8c-1,1-1.6,1-1.6,0.1v-1.4h-4.3l-0.5,4.9h4.8l0.7-1l1.8,1.3
			c0.6,0.3,0.3,0.6-1,1c-0.2,6.2-0.9,9.7-2.3,10.7c-0.5,0.4-1.1,0.7-1.8,1c-1,0.4-1.6,0.3-1.6-0.2s-0.2-0.8-0.6-1l-1.7-0.8
			c-0.3-0.3-0.3-0.5,0.1-0.5L243.4,27.1z M257.4,9.9l-5.3,0.6c-0.4,1.4-0.8,1.6-1.2,0.7l-0.8-2h3.8l3.1-7l2.4,1.1
			c0.4,0.5,0,0.7-1.2,0.6l-3.6,5.3l8.9-0.6c-0.6-0.8-1.3-1.6-2.3-2.4c-0.2-0.3-0.2-0.4,0.2-0.4c3.3,1.8,4.9,3.4,4.9,4.8
			c0,0.6-0.2,1-0.7,1s-0.9-0.4-1.2-1.1c-0.2-0.4-0.4-0.8-0.6-1.3l-5.9,0.7l2,0.6c0.4,0.4,0,0.7-1.1,0.8v2.4h4.6l0.7-0.8l1.6,1.1
			c0.5,0.4,0.3,0.7-0.5,0.8v5.9c-1,1-1.6,1-1.6,0.1v-1h-4.8v5.8l5.3-0.7c-0.6-1.1-1.5-2.1-2.5-2.9c-0.4-0.3-0.3-0.4,0.2-0.4
			c1.4,0.6,2.5,1.3,3.4,2.2c1.4,1.4,2,2.6,2,3.6c0,0.7-0.3,1.1-0.8,1.1c-0.4,0-0.7-0.3-1-1c-0.3-0.7-0.5-1.3-0.8-1.9l-12.4,2.2
			c-0.2,1.1-0.5,1.4-1,1l-1.2-2.3l7.2-0.7v-5.9h-4.1v1.4c-1,1-1.6,1-1.6,0.1v-8.6l1.8,1h3.8V9.9H257.4z M257.4,19.2v-4.7h-4.1v4.7
			H257.4z M259,14.5v4.7h4.8v-4.7C263.8,14.5,259,14.5,259,14.5z"/>
		<path class="st0" d="M296.4,22c-1.2-0.6-3-1.4-5.4-2.4c-1.9,4.9-4.5,8.1-7.8,9.7c-0.4,0.2-0.5,0.1-0.4-0.2c3-2.3,5.3-5.6,6.8-10
			c-3.3-1.1-6.5-1.7-9.6-1.8c-1.3,2.8-2.4,4.7-3.5,5.8c-0.9,0.9-1.8,1.3-2.9,1.3c-0.8,0-1.4-0.2-1.8-0.6c-0.5-0.5-0.7-1.1-0.7-1.9
			c0-0.7,0.3-1.4,1-2.2c1.5-1.7,3.8-2.7,7-3.1c1.2-2.7,2.5-6.1,4-10.1c0.2-0.4,0-0.6-0.4-0.6c-1.4,0.5-2.7,0.9-4,1.3
			c-0.9,0.2-1.5,0.5-1.8,0.8c-0.5,0.4-0.9,0.4-1.3-0.1c-1-1.1-1.4-2-1.4-2.6c-0.1-0.4,0-0.5,0.4-0.2c0.5,1,1.1,1.4,1.8,1.4
			c0.4,0,0.9-0.1,1.6-0.2c1.8-0.4,3.7-0.8,5.5-1.3l0.5-0.6c0.9,0.2,1.5,0.6,1.9,1s0.2,0.7-0.5,1c-0.4,0.2-0.8,0.7-1.2,1.6
			c-1.2,3-2.4,5.8-3.7,8.6c3.5,0.1,6.7,0.6,9.6,1.4c0.2-0.5,0.5-1.4,0.8-2.6c0.1-0.3,0.2-1,0.2-1.9c0.1-1-0.4-1.6-1.3-1.9
			c-0.5-0.2-0.5-0.3,0-0.5c1.3,0,2.5,0.5,3.7,1.6c0.6,0.5,0.6,0.8,0,1.1c-0.5,0.2-0.8,0.7-1.1,1.6c-0.4,1.4-0.8,2.4-1.1,3.1
			c3.5,1.1,5.5,1.8,6,2.2c0.4,0.2,0.6,0.6,0.6,1.2c0,0.5-0.2,0.7-0.6,0.7C297.1,22.4,296.8,22.3,296.4,22z M273.3,20
			c-0.6,0.6-1,1.4-1,2.2c0,1,0.5,1.6,1.4,1.6c0.7,0,1.4-0.4,2.2-1.1c0.6-0.6,1.6-2.4,2.9-5.2C276.2,18,274.4,18.9,273.3,20z"/>
		<path class="st0" d="M311.1,11.5c-1.8,4.2-3.7,8.5-5.6,12.7c-0.2,0.4-0.6,1.2-1.1,2.4c-0.2,0.6-0.5,1-0.8,1
			c-0.2,0-0.4-0.2-0.6-0.6c-0.1-0.2-0.1-0.5-0.1-1c0-0.7,0.2-1.3,0.7-1.8s1-1.4,1.7-2.6c1.8-3.4,3.3-6.7,4.7-9.8
			c-2.4,0.5-3.9,0.9-4.6,1.2c-0.5,0.2-0.9,0.2-1.3-0.1c-0.8-0.6-1.2-1.4-1.2-2.5c0.1-0.2,0.2-0.2,0.4,0c0.4,0.9,1,1.3,1.9,1.3
			c0.6,0,2.3-0.2,5.2-0.7c0.4-0.9,0.8-1.8,1.2-2.8c0.4-1.1,0.4-2-0.1-2.5c-0.4-0.5-1-0.8-1.9-0.8c-0.3-0.2-0.3-0.3,0-0.5
			c0.8,0,1.4,0,1.7,0.1c0.9,0.2,1.6,0.7,2.3,1.3c0.7,0.7,0.7,1.2-0.1,1.3c-0.6,1.3-1.2,2.5-1.8,3.7c1.1-0.2,1.9-0.2,2.3-0.2
			c1,0,1.8,0.3,2.3,0.8c0.7,0.9,1.1,2.4,1.1,4.4c0,6.2-1.5,10-4.4,11.5c-0.8,0.4-1.2,0.2-1.2-0.5c0-0.6-0.2-1-0.5-1.2
			c-0.7-0.6-1.5-1.2-2.4-1.8c-0.2-0.3-0.1-0.4,0.2-0.4c0.9,0.5,1.8,1,2.8,1.4c0.8,0.4,1.5,0.2,2.2-0.7c0.7-1,1.2-2.3,1.6-3.8
			c0.4-1.9,0.6-3.7,0.6-5.3c0-1.4-0.1-2.4-0.4-2.9c-0.3-0.6-0.9-1-1.8-1C312.8,11.2,311.9,11.3,311.1,11.5z M321.6,10.2
			c1.4,0.6,2.8,1.4,4.3,2.6c2,1.6,3.1,3.6,3.4,5.9c0.1,0.8,0,1.4-0.4,1.8c-0.5,0.6-1,0.6-1.4-0.1c-0.5-0.8-1.1-1.2-1.8-1.1
			c-1.1,0.1-2.3,0.2-3.5,0.2c-0.5-0.1-0.5-0.2-0.1-0.5c1.3-0.2,2.6-0.4,4.1-0.6c0.6-0.1,0.8-0.3,0.7-0.7c-0.2-1.3-0.8-2.6-1.8-4
			c-1-1.3-2.2-2.4-3.7-3.2C321,10.2,321.1,10.1,321.6,10.2z"/>
		<path class="st0" d="M348.6,15.3c2.7,0,4.8,0.7,6.1,2c1,1,1.6,2.3,1.6,3.7c0,1.6-0.6,3-1.7,4.1c-2.3,2.2-6.7,3.3-13.2,3.2
			c-0.5-0.2-0.5-0.5,0-0.7c5.8-0.2,9.8-1.3,11.9-3.4c0.9-0.9,1.3-2,1.3-3.5c0-1.3-0.3-2.2-1-2.9c-1.3-1.3-2.9-1.9-4.8-1.9
			c-2.7,0-5,1-7,2.9c-1.2,1.2-1.9,2.4-2.2,3.5c-0.2,0.7-0.5,0.9-1.1,0.6c-0.9-0.5-1.3-1.5-1.2-3c0.1-2,0.3-3.8,0.6-5.4
			c0.2-0.9,0.2-1.8,0.2-2.6c0-0.6-0.1-1-0.4-1.4c-0.2-0.4-0.2-0.8,0.1-1.3c0.6-1,1.7-1.6,3.2-1.9c0.7-0.2,1.7-0.2,2.9-0.2
			c0.2,0,0.2-0.1,0.1-0.2c-0.1-0.2-0.4-0.4-0.8-0.5c-1.8-0.3-3.1-1.4-4-3.2c0.1-0.2,0.2-0.3,0.4-0.1c1,1.2,2.6,2,5,2.5
			c1.5,0.3,2.4,1.1,2.5,2.4c0.1,0.7-0.2,0.9-1,0.6c-1-0.5-1.9-0.7-2.6-0.7c-2.2,0-3.8,0.4-4.7,1.3c-0.6,0.6-0.6,1.1,0,1.7
			c0.5,0.5,0.6,1.1,0.4,1.9c-0.5,1.6-0.7,4-0.6,7.1c0,0.5,0.2,0.5,0.5,0C342.2,16.8,345.3,15.3,348.6,15.3z"/>
	</g>
	<g>
		<path class="st0" d="M38.6,75.4c5.5-0.8,9.2-2.2,10.9-4.3c1-1.1,1.4-2.5,1.4-4.1c0-1.9-0.8-3.4-2.3-4.6c-1.5-1.1-3.3-1.7-5.4-1.7
			c-3.2,0-6.7,1.5-10.6,4.4c-0.7,0.6-1.4,1.1-2,1.7c-0.4,0.4-0.9,0.5-1.6,0.2c-0.6-0.2-1.2-0.5-1.7-0.8c-0.6-0.4-1-0.9-1.2-1.6
			c0-0.4,0.2-0.4,0.5-0.1c0.4,0.6,1,0.8,1.7,0.8c0.8,0,1.4-0.1,1.8-0.4c0.7-0.4,1.6-1,2.6-1.7c3.5-2.4,7-3.6,10.4-3.6
			c3,0,5.4,0.8,7.2,2.5c1.4,1.3,2.2,3,2.2,5.2c0,1.6-0.6,3.1-1.8,4.6c-1.9,2.3-6,3.6-12.2,3.8C38.1,75.7,38.1,75.6,38.6,75.4z"/>
		<path class="st0" d="M71.2,59.5c0.6,0.6,0.4,0.9-0.4,1.1c-2,5.7-4,9.9-5.9,12.6c-0.5,0.7-1,1.3-1.6,1.7c-0.9,0.6-1.5,0.6-1.8-0.2
			c-1-0.3-1.8-0.9-2.3-1.8c-0.6-1.1-1-2.4-1-4c0-3.2,1-5.8,3-7.8c2.6-2.6,5.8-4,9.6-4c4,0,7.1,1.1,9.4,3.4c1.6,1.6,2.4,3.6,2.4,6
			c0,2.2-0.8,4.1-2.3,5.8c-2.2,2.4-5.4,4-9.7,4.7c-0.3-0.2-0.3-0.3,0-0.5c3.6-0.9,6.4-2.4,8.3-4.7c1.3-1.5,1.9-3.3,1.9-5.4
			c0-2.2-0.6-3.9-1.7-5.2c-2.2-2.6-5.6-3.6-10.1-3.2C69.9,58.3,70.6,58.8,71.2,59.5z M69.1,60.2c0.2-1,0-1.7-0.6-2.2
			c-2.1,0.3-3.9,1.3-5.5,2.9c-2.1,2.1-3.1,4.5-3.1,7.3c0,2.4,0.4,4,1.3,4.9c0.4,0.4,0.8,0.6,1.2,0.6c0.3,0,0.7-0.2,1.2-0.7
			C65.9,69.5,67.7,65.2,69.1,60.2z"/>
		<path class="st0" d="M95.7,65.8c0,2.3,0,4.6,0,7c0,1.3,0.6,1.9,1.9,1.9c1.8,0,3.4,0,5,0c1.4-0.1,2.6-0.3,3.6-0.6
			c0.5-0.3,0.9-0.5,1.2-0.5c0.6,0.2,1,0.5,1.3,0.7c0.3,0.2,0.5,0.5,0.5,0.8c0,0.2-0.2,0.3-0.7,0.4c-0.6,0.1-1.4,0.2-2.4,0.2
			c-0.9,0.1-2,0.2-3.4,0.2c-1.9,0-3.7,0-5.4,0c-2.1,0-3.1-1-3.1-3c0-1.8,0-6.6,0-14.2c0-0.8-0.6-1.3-1.9-1.6c-0.5-0.2-0.5-0.4,0-0.6
			c0.6-0.1,1.4,0,2.2,0.2c0.9,0.2,1.6,0.6,2,1.1c0.2,0.2,0.4,0.4,0.4,0.6s-0.2,0.3-0.5,0.4c-0.4,0.1-0.6,0.6-0.7,1.7
			c0,1,0,2.4,0,4.3c4-0.9,7.2-2,9.7-3.2c0.4-0.4,0.2-0.8-0.7-1.3c-0.2-0.2-0.2-0.3,0.2-0.4c1,0.1,1.9,0.5,2.8,1.2
			c0.8,0.6,1.2,1.1,1.2,1.3s-0.3,0.3-1,0.2c-0.6,0.2-1.2,0.3-1.8,0.5C102.6,64.5,99.1,65.3,95.7,65.8z M112,60.2
			c0,0.6-0.2,0.8-0.7,0.8c-0.3,0-0.8-0.6-1.6-1.7c-0.3-0.5-1.1-1.2-2.4-2.3c-0.2-0.2-0.1-0.3,0.1-0.4c1.1,0.3,2.3,0.9,3.5,1.7
			C111.6,58.9,112,59.5,112,60.2z M114.5,58.3c-0.4,0-0.7-0.2-1-0.7c-0.4-0.8-1.4-1.6-3.1-2.4c-0.2-0.2-0.2-0.4,0.1-0.4
			c1.8,0.2,3.1,0.6,3.8,1.2c0.5,0.4,0.7,0.9,0.7,1.6C115.1,58,114.9,58.3,114.5,58.3z"/>
		<path class="st0" d="M126.6,66.7c-0.2,0.2-0.4,0.2-0.6,0.2c-0.3,0-0.8-0.4-1.3-1.1c-1-1.2-2.3-2-4.1-2.5c-0.5-0.2-0.5-0.4,0-0.5
			c2.4,0,4.2,0.6,5.5,1.8c0.5,0.5,0.7,1,0.7,1.4C126.9,66.3,126.8,66.5,126.6,66.7z M127.6,77c-0.2,0.3-0.4,0.5-0.6,0.5
			s-0.6-0.2-1.3-0.6c-0.6-0.3-1-0.7-1.4-1.1c-0.6-0.6-0.9-1.5-0.8-2.6c0-0.4,0.2-0.4,0.5-0.1c0.4,1.2,1,1.8,1.8,1.8
			c0.7,0,1.7-0.3,2.9-1c6.6-4,12.2-8.5,16.7-13.4c0.5-0.2,0.7-0.1,0.6,0.4c-3.9,5-9.3,9.8-16.2,14.5C128.4,76.1,127.8,76.7,127.6,77
			z M129.5,60.7c-0.3,0-0.7-0.4-1.2-1.1c-0.9-1.3-2.3-2.1-4.2-2.5c-0.3-0.2-0.3-0.4,0.1-0.5c2.5,0,4.3,0.6,5.4,1.7
			c0.6,0.6,0.8,1.1,0.8,1.6C130.5,60.4,130.2,60.7,129.5,60.7z M141.4,58c0,0.6-0.2,0.8-0.7,0.8c-0.3,0-0.8-0.6-1.6-1.7
			c-0.3-0.5-1.1-1.2-2.4-2.3c-0.2-0.2-0.1-0.3,0.1-0.4c1.1,0.3,2.3,0.9,3.5,1.7C141,56.7,141.4,57.3,141.4,58z M144.4,56.3
			c-0.3,0-0.6-0.1-0.7-0.2c-0.3-0.3-0.6-0.7-1-1.2c-0.6-0.6-1.3-1.2-2.3-1.8c-0.2-0.2-0.2-0.4,0.1-0.4c1.8,0.3,3.1,0.8,3.7,1.4
			c0.5,0.5,0.7,1,0.7,1.6C145,56.1,144.8,56.3,144.4,56.3z"/>
		<path class="st0" d="M162.3,65.3c-0.1-0.3-0.4-0.6-1-0.7c-0.5-0.2-0.4-0.4,0.1-0.5c0.9,0,1.5,0.2,1.9,0.5c2-1.4,3.7-2.9,5.2-4.4
			c0.2-0.2,0-0.4-0.4-0.4c-5.7,0.9-8.9,1.4-9.6,1.7c-1,0.2-1.6,0.5-1.9,0.7c-0.2,0.2-0.4,0.4-0.6,0.4c-0.4,0-1-0.4-1.9-1.3
			c-0.4-0.4-0.7-1-0.8-1.7c0-0.4,0.2-0.5,0.5-0.2c0.4,0.8,1.2,1.2,2.5,1.2c0.8,0,2.2-0.2,4.2-0.6c1.8-0.2,4.7-0.6,8.5-1.2
			c0.3-0.2,0.6-0.5,0.8-0.8c0.3,0.2,0.9,0.6,1.7,1.3c0.6,0.5,0.8,0.8,0.8,1c0,0.4-0.2,0.6-0.6,0.5c-0.6,0-1.2,0.2-1.6,0.5
			c-1.9,1.8-3.8,3.2-5.5,4.4c0.6,0.3,0.4,0.6-0.6,0.8c0,3.4,0,6.7,0,9.7c0,1,0.1,2.1,0.2,3.1c0.1,0.5-0.2,0.7-0.7,0.7
			c-0.4,0-0.7-0.2-1-0.6c-0.3-0.5-0.5-0.8-0.5-1c0.2-0.4,0.3-0.9,0.4-1.6c0-3.3,0-6.6,0-10c-4.8,3.1-9.3,5.3-13.4,6.6
			c-0.4-0.1-0.4-0.2-0.1-0.5C153.7,71,158.1,68.5,162.3,65.3z M159.6,52.5c1.7,0.4,3.1,1.1,4.3,2.2c0.7,0.6,1.1,1.3,1.1,2
			c0,1.1-0.3,1.7-0.8,1.7s-0.9-0.6-1.2-1.8c-0.1-0.3-0.5-1-1.3-1.9c-0.4-0.5-1.2-1.1-2.4-1.8C159,52.6,159.2,52.5,159.6,52.5z
			 M165.9,66.9c1.7,0.2,3.1,0.6,4.3,1.2c1.4,0.6,2.4,1.3,3.1,2c0.7,0.7,1.1,1.4,1.1,2c0,0.6-0.3,1-1,1c-0.2,0-0.6-0.4-1.2-1.2
			c-1.1-1.6-3.2-3.2-6.4-4.7C165.6,67.1,165.6,67,165.9,66.9z"/>
		<path class="st0" d="M198.9,57.4c0.6,0.4,1.2,0.8,1.8,1.3c0.3,0.2,0.5,0.5,0.5,0.8c0,0.2-0.4,0.4-1.1,0.4
			c-1.5,2.4-3.1,4.6-4.8,6.6c2.7,0.9,4.9,2.2,6.6,3.8c1.4,1.4,2,2.4,2,3.2c0,0.7-0.3,1.1-1,1.1c-0.3,0-0.7-0.4-1.2-1.2
			c-0.7-1.2-1.6-2.3-2.5-3.2c-1.1-1.1-2.6-2.2-4.3-3.4c-4,4-8.4,7-13.3,9c-0.7,0.1-0.8-0.1-0.4-0.5c7.8-4.1,13.3-9.4,16.7-15.8
			c0.1-0.3-0.1-0.5-0.5-0.5c-6,0.8-9.2,1.4-9.5,1.9c-0.2,0.2-0.4,0.4-0.6,0.4s-0.5-0.2-1.1-0.7c-1.2-1-1.7-1.8-1.6-2.4
			c0-0.4,0.2-0.4,0.5-0.1c0.4,0.7,1,1.1,1.8,1.1c1.9,0,5.5-0.3,10.8-1C198.2,57.9,198.5,57.7,198.9,57.4z"/>
		<path class="st0" d="M235.8,63.4c0.3,0.2,0.5,0.4,0.5,0.6c0,0.2-0.2,0.4-0.5,0.6c-1.8,0.6-5.2,2-10.4,4.3c0,1.7,0,3.4,0,5
			c0,0.7-0.3,1.1-1,1.1c-0.3,0-0.5-0.2-0.5-0.7c0-1.5,0-3.1,0-4.7c-2.2,1-3.9,2.1-5.3,3.5c-0.7,0.7-1.1,1.4-1.1,2
			c0,0.6,0.2,1,0.6,1.4c0.7,0.7,2.4,1.1,5,1.1s4.8-0.2,6.6-0.6c0.6-0.2,1-0.4,1.3-0.4c0.9,0,1.3,0.4,1.3,1.2c0,0.3-0.2,0.5-0.7,0.6
			c-1.4,0.3-4,0.5-7.9,0.5c-3.1,0-5.2-0.5-6.2-1.6c-0.6-0.6-1-1.3-1-2c0-1,0.5-2,1.4-3c1.3-1.3,3.2-2.6,5.9-4c0-1.3-0.3-2.2-0.8-2.8
			c-0.3-0.3-0.8-0.5-1.6-0.5c-2,0-4.4,1.7-7.2,5.2c-0.2,0.2-0.5,0.4-0.7,0.4c-0.4,0-0.6-0.4-0.6-1.1c0-0.7,0.2-1.2,0.5-1.3
			c0.6-0.3,1.3-0.8,1.9-1.6c1.4-1.4,3-3.6,4.7-6.6c-0.6,0.1-1.6,0.2-2.8,0.2c-0.6,0.1-1.2,0.1-1.7,0.1c-0.3,0-0.8-0.3-1.3-0.8
			c-0.5-0.4-0.7-0.9-0.7-1.4c0.2-0.3,0.3-0.3,0.5,0.1c0.5,0.7,1.4,1.1,2.8,1.1s2.6-0.1,3.7-0.2c0.6-1.2,1-2.2,1.1-2.9
			c0.2-1.1-0.4-1.8-1.8-2c-0.6-0.1-0.6-0.2-0.1-0.5c1.4-0.2,2.9,0.3,4.3,1.3c0.4,0.3,0.4,0.7-0.1,1.1c-0.4,0.3-1.1,1.3-2,3
			c1.8-0.3,3.2-0.7,4.3-1.2c0.4-0.2,0.7-0.4,1-0.4c0.2,0,0.5,0.2,0.8,0.5c0.2,0.1,0.2,0.3,0.2,0.6c0,0.2-0.2,0.4-0.7,0.5
			c-1.9,0.3-4,0.6-6.1,1c-1,1.6-2.1,3.2-3.2,4.8c-0.2,0.4-0.2,0.5,0.2,0.4c1.3-0.6,2.4-1,3.2-1c1.1,0,2,0.3,2.5,0.8
			c0.7,0.7,1.1,1.6,1.2,2.6c4-1.9,6.6-3.2,7.7-3.8c0.4-0.2,0.5-0.4,0.2-0.6c-0.5-0.3-1-0.6-1.7-0.7c-0.5-0.2-0.5-0.3,0-0.5
			C232.9,62.1,234.3,62.5,235.8,63.4z"/>
		<path class="st0" d="M256.1,69.9c1.2,1.8,2.4,3.3,3.6,4.3c1.4-1,2.8-2.2,4.2-3.6l1.3,1c1.1,0.8,0.8,1.1-1,1l-4.2,1.9
			c2,1.7,4.8,3,8.3,4.1c-1,0.1-1.9,0.5-2.5,1.3c-5-2.2-8.4-5.5-10.3-10h-3.2v6.7l5.5-1c0.6,0.2,0.7,0.4,0.1,0.6l-9.6,2.4
			c0.2,1.3-0.1,1.4-0.8,0.5l-1.4-2l4.7-0.4v-6.8h-5.4c-0.5,3.1-1.8,6.1-4.1,8.9c-0.4,0.3-0.6,0.2-0.5-0.2c2.3-3.8,3.5-8.6,3.5-14.3
			V53.6l1.8,1.1h16.8l0.7-1l1.7,1.2c0.5,0.4,0.3,0.7-0.5,0.8v4.9c-1,1-1.6,1-1.6,0.1V60h-3.7v4.1h3.6l1.6-1.6l1.9,1.4
			c0.5,0.4,0.5,0.7,0,0.8h-7.1V69h4.9l1.6-1.6l1.9,1.4c0.5,0.4,0.5,0.7,0,0.8h-11.8V69.9z M251.3,69.2v-4.3h-4.2v-0.7h4.2v-4.1h-5.5
			v5.4c0,1.2-0.1,2.4-0.4,3.7H251.3z M263.2,59.3v-4h-17.4v4H263.2z M257.9,60.1h-5v4.1h5V60.1z M257.9,69.2v-4.3h-5v4.3H257.9z"/>
		<path class="st0" d="M281.6,62.5h-6.7v17c-1,1-1.6,1-1.6,0.1V53.3l1.8,1.1h6.1l0.7-1l1.7,1.2c0.5,0.4,0.3,0.7-0.5,0.8v8.2
			c-1,1-1.6,1-1.6,0.1v-1.2H281.6z M281.6,58v-2.9h-6.7V58H281.6z M281.6,58.7h-6.7v3h6.7V58.7z M277.4,78.1
			c3.2-2.1,4.8-4.3,4.8-6.7v-0.7H277V70h5.3v-3.5h-3.5v-0.7H290l1.3-1.3l1.7,1.2c0.5,0.4,0.5,0.7,0,0.8h-4V70h2.3l1.3-1.3l1.7,1.2
			c0.5,0.4,0.5,0.7,0,0.8H289v7.2c-1,1-1.6,1-1.6,0.1v-7.3h-3.7v0.7c0,2.8-2,5.2-6.1,7.3C277.1,78.7,277,78.5,277.4,78.1z
			 M283.8,66.4v3.5h3.7v-3.5H283.8z M286.8,63.7V53.5l1.8,1h6.5l0.7-1l1.7,1.2c0.5,0.4,0.3,0.7-0.5,0.8v21.6c0,0.9-0.3,1.6-0.8,2
			c-0.3,0.3-0.7,0.5-1.2,0.5c-0.3,0-0.5-0.2-0.5-0.5c0-0.5-0.2-0.8-0.7-1l-1.6-0.2c-0.3-0.2-0.3-0.3,0-0.5h2.4
			c0.6,0,0.8-0.3,0.8-0.8V62.5h-7.1v1C287.3,64.5,286.8,64.5,286.8,63.7z M295.4,55.1h-7.1V58h7.1V55.1z M295.4,58.7h-7.1v3h7.1
			V58.7z"/>
		<path class="st0" d="M323.8,68.6c0.3,0.3,0.7,0.6,1.2,1c0.2,0.2,0.4,0.4,0.5,0.7c0.2,0.6,0.2,1,0.1,1.2c-0.3,0.6-0.8,0.8-1.3,0.4
			c-1.3-1-2.7-1.7-4.2-2.2c-2-0.6-3.7-1-5.2-1c-2.6,0-4.5,0.6-5.6,1.7c-0.6,0.6-1,1.3-1,2c0,1.3,0.4,2.3,1.3,3
			c1.4,1.2,3.6,1.8,6.5,1.9c2.4,0.1,3.9,0,4.6-0.2c0.6-0.2,1.2-0.2,1.6,0c0.4,0.2,0.7,0.5,0.8,0.8c0.2,0.4,0,0.6-0.5,0.7
			c-1,0.2-2.3,0.2-4.1,0.2c-2.2,0-4-0.2-5.6-0.6c-1.9-0.5-3.4-1.2-4.3-2.3c-0.9-1-1.3-2-1.3-3.1c0-1.3,0.4-2.3,1.2-3
			c1.4-1.3,3.4-1.9,6.1-1.9c1.1,0,2.2,0.1,3.4,0.2c1.7,0.2,2.9,0.5,3.7,0.7c0.5,0.2,0.6,0,0.2-0.5c-1.7-2.3-3.3-4.6-4.8-7
			c-2.3,0.5-4.3,0.8-6,1c-0.5,0.2-0.8,0.2-1.1,0.2c-0.4,0-0.8-0.2-1.1-0.5c-1-0.9-1.5-1.5-1.7-1.8c-0.2-0.4,0-0.5,0.4-0.2
			c0.8,0.7,1.9,1.1,3.2,1.1c1.4,0,3.3-0.3,5.6-0.8c-0.4-0.7-1.1-1.8-2-3.2c-0.3-0.5-0.7-0.9-1.1-1.2c-0.5-0.4-0.5-0.8,0-1.3
			c0.8-0.9,1.6-1.4,2.5-1.7c0.6,0,0.7,0.1,0.4,0.4c-0.5,0.2-0.8,0.8-1,1.7c-0.1,0.4,0.1,1,0.5,1.7c0.8,1.4,1.5,2.6,2,3.4
			c1.4-0.3,3.2-1,5.3-1.9c0.4-0.2,0.9-0.3,1.6-0.1c0.3,0.1,0.6,0.2,0.8,0.5c0.2,0.2,0.1,0.5-0.4,0.7c-1.1,0.5-3.4,1.1-6.7,1.9
			c0.8,1.4,1.9,3,3.4,4.9C322.6,67.3,323.3,68.1,323.8,68.6z"/>
		<path class="st0" d="M356.7,62.8c-2,0.1-3.6,0.2-4.8,0.2c0,1.5,0,3,0,4.4c0,2.7-0.6,4.4-1.7,5c-0.8,0.5-1.2,0.4-1.1-0.2
			c0.1-0.6-0.2-1-0.7-1.3c-1-0.6-2.2-1.3-3.5-2c-0.4-0.3-0.3-0.4,0.2-0.4c1.3,0.5,2.5,1,3.7,1.4c0.6,0.2,1.1,0,1.3-0.7
			c0.2-0.5,0.2-2.5,0.2-6c-3.1,0.4-5.9,0.9-8.4,1.4c0,2.6,0,4.6,0,6.1c0.1,1.6,0.2,2.8,0.4,3.5c0.2,0.8,0.5,1.4,1,1.7
			c0.6,0.4,2,0.6,4.1,0.6c2.9,0,5.1-0.2,6.7-0.7c0.8-0.2,1.4-0.2,1.7,0c0.3,0.2,0.6,0.5,0.8,0.8c0.4,0.6,0.2,0.9-0.5,1
			s-3.8,0.1-9.4,0.1c-2.3,0-3.9-0.4-4.7-1.2c-1-1-1.6-3.4-1.6-7.1c0-1.6,0-3.1,0-4.6c-0.7,0.2-2,0.6-4,1.2c-0.7,0.2-1.2,0.4-1.4,0.6
			c-0.3,0.2-0.7,0.2-1.1-0.2c-1.2-1.1-1.8-1.9-1.7-2.4c0-0.6,0.2-0.6,0.5-0.2c0.5,0.8,1.2,1.2,2.2,1.2c0.4,0,1.2-0.1,2.4-0.4
			c1.1-0.2,2.2-0.5,3.1-0.7c0-1.8-0.1-3.3-0.2-4.3c-0.2-1.2-0.9-1.9-2.3-2c-0.6,0-0.6-0.2,0-0.5c1.4-0.2,2.8,0.2,4.2,1.1
			c0.7,0.5,0.8,0.9,0.1,1.3c-0.2,0.2-0.4,1.5-0.4,4.1c3.1-0.6,5.9-1,8.4-1.3c0-3,0-4.9-0.1-5.5c-0.1-0.7-0.8-1.2-2-1.6
			c-0.6,0-0.6-0.2-0.1-0.5c1.8-0.1,3.2,0.3,4.2,1.1c0.6,0.5,0.6,0.9,0,1.2c-0.3,0.2-0.5,1.9-0.5,5.2c3.5-0.5,5.5-0.9,6-1.2
			c0.4-0.2,0.8-0.2,1.3,0.1c0.9,0.6,1.4,0.9,1.4,1c0.5,0.7,0.3,1-0.5,1C358.5,62.9,357.3,62.8,356.7,62.8z"/>
		<path class="st0" d="M386.5,56.2c0.5-0.4,1-0.4,1.6,0c0.9,0.6,1.4,1,1.4,1.1c0.4,0.4,0.3,0.7-0.2,0.8c-5-0.2-8.5,0.8-10.7,3
			c-2.1,2.1-3.1,4.2-3.1,6.2c0,2.4,0.8,4.4,2.4,6c1.7,1.7,3.6,2.6,5.8,2.6c0.8,0,1.3,0.2,1.6,0.5c0.3,0.4,0.5,0.8,0.5,1.1
			c0,0.4-0.3,0.6-1,0.6c-2.2,0-4.4-0.8-6.5-2.5c-2.5-2-3.7-4.6-3.7-7.9c0-3,1.6-5.8,4.7-8.3c0.4-0.3,0.4-0.5,0-0.5
			c-2.5,0.5-4.8,1-7.1,1.4c-1,0.2-1.9,0.5-2.9,1c-0.7,0.3-1.2,0.4-1.4,0.4c-0.4-0.1-0.8-0.3-1.2-0.6c-0.9-0.6-1.4-1.3-1.4-2
			c0.2-0.6,0.3-0.6,0.5-0.1c0.4,0.7,1.2,1,2.5,1c0.6,0,1.7-0.2,3.2-0.5c4.2-0.7,8.3-1.5,12.5-2.3C385.1,56.9,386,56.6,386.5,56.2z"
			/>
		<path class="st0" d="M402.7,70.1c0-2.5,0-5,0-7.6c-1.6,0.2-2.8,0.4-3.7,0.7c-0.4,0.2-0.9,0.1-1.6-0.4c-1-0.7-1.4-1.6-1.4-2.5
			c0.1-0.4,0.2-0.4,0.4,0c0.4,0.9,1,1.4,1.8,1.4c1.2,0.1,2.7,0,4.6-0.4c0.1-0.7,0.2-2,0.2-3.8c0.1-1.4-0.5-2.2-1.8-2.6
			c-0.5-0.2-0.5-0.3,0-0.5c1.7,0,2.9,0.4,3.7,1.3c0.3,0.4,0.4,0.7,0.1,1c-0.3,0.3-0.5,0.9-0.6,1.8c-0.1,0.6-0.2,1.5-0.2,2.5
			c1.5-0.4,2.7-0.9,3.5-1.4c0.5-0.4,0.9-0.5,1.2-0.4c0.4,0.2,0.7,0.3,1,0.5c0.5,0.3,0.3,0.7-0.5,1.1c-0.2,0.1-0.7,0.2-1.7,0.5
			c-1.5,0.4-2.7,0.7-3.6,0.8c-0.1,2-0.1,4.4-0.1,7.2c3.8-2.4,7.1-3.6,10-3.6c2.2,0,3.9,0.5,5,1.4c1.1,1,1.7,2.3,1.7,4.1
			c0,1.5-0.4,2.7-1.3,3.6c-1.1,1.1-2.7,1.7-4.8,1.7c-1.5,0-2.8-0.4-3.7-1.1c-1.3-1-2.1-2.3-2.5-4.1c0.2-0.4,0.3-0.4,0.5,0
			c0.7,1.4,1.4,2.3,2,2.8c1,0.8,2.1,1.2,3.5,1.2c1.5,0,2.6-0.4,3.4-1.1c0.9-0.9,1.3-1.9,1.3-3c0-1.4-0.4-2.6-1.3-3.5
			c-0.9-0.9-2.2-1.3-3.8-1.3c-2.7,0-6,1.4-9.8,4.3c0,0.9,0,1.8,0,2.6c0,0.5,0.1,1.5,0.4,3c0.2,1-0.2,1.8-1.1,2.4
			c-0.6,0.4-1,0.2-1.1-0.5c-0.1-1-0.4-1.8-1-2.2c-0.6-0.5-1.3-1-2-1.6c-0.4,0.4-0.9,0.8-1.6,1.2c-0.6,0.4-1.1,0.6-1.4,0.5
			c-0.6-0.2-1-0.7-1-1.7c0-0.9,0.2-1.7,0.7-2.4c0.2-0.2,0.4-0.2,0.4,0.1c-0.1,1.1,0.2,1.7,0.7,1.7c0.4,0,0.8-0.1,1.1-0.4
			C399.1,72.9,400.6,71.7,402.7,70.1z M402.7,71.6c-1,0.8-2,1.7-3.2,2.8c0.9,0.5,1.7,0.9,2.5,1.3c0.5,0.2,0.7,0.1,0.7-0.4
			C402.7,74.1,402.7,72.9,402.7,71.6z M413.9,58c-0.2-0.2-0.1-0.3,0.1-0.4c2.1,0.2,3.7,0.6,4.9,1.3s2,1.6,2.3,2.5
			c0.2,0.5,0.2,0.8,0,1.1c-0.2,0.3-0.5,0.4-0.8,0.1c-0.5-0.4-1-0.6-1.6-0.6s-1.5,0.1-2.9,0.4c-0.4,0.1-0.4,0-0.1-0.4
			c0.6-0.2,1.4-0.5,2.2-0.7c0.4-0.2,0.5-0.4,0.2-0.8C417.6,59.6,416.2,58.7,413.9,58z"/>
		<path class="st0" d="M434.6,55.9c0.2,0.3,0.2,0.7,0,1.2c-0.5,1-0.9,2.6-1.2,4.8c-0.2,1.8-0.2,3.4,0,4.7c0.1,0.5,0.2,0.5,0.5,0.1
			c1.6-4.5,3.1-7.4,4.6-8.9c0.9-0.9,1.8-1.3,2.8-1.3c0.9,0,1.6,0.3,2.2,0.8c1.3,1.3,1.9,3.6,1.9,7.1c0,4.8-1.1,8.3-3.2,10.4
			c-2,2-4.4,3.4-7.3,4.2c-0.6,0-0.6-0.2-0.2-0.5c2.1-0.6,4.1-1.9,6-3.8c2.1-2.1,3.1-5.6,3.1-10.6c0-3.5-0.4-5.7-1.3-6.6
			c-0.3-0.3-0.7-0.5-1.1-0.5c-0.6,0-1.2,0.3-1.8,1c-1.2,1.2-2.6,4-4.1,8.3c-0.4,1.1-0.6,2.2-0.6,3.2s-0.3,1.4-1,1.4
			c-0.5,0-0.8-0.4-1.1-1.1c-0.5-1.4-0.7-3.3-0.7-5.5c0-2,0.3-4.5,0.8-7.6c0.2-0.9-0.2-1.6-1-2c-0.3-0.2-0.2-0.4,0.2-0.4
			C433.3,54.7,434.1,55.2,434.6,55.9z"/>
		<path class="st0" d="M470.8,59.7c1.8-0.2,3.4-0.4,4.7-0.7c0.7-0.2,1.3-0.4,1.7-0.7c0.4-0.3,0.8-0.4,1.1-0.1c0.5,0.3,0.8,0.6,1,0.7
			c0.4,0.4,0.3,0.7-0.4,0.8c-2.3,0.6-5,1-8,1.2c0,1.8,0,3.5,0,5.3c1.6-0.2,2.8-0.3,3.7-0.5c1.1-0.2,1.8-0.4,2.2-0.6
			c0.4-0.2,0.8-0.2,1.1,0c0.4,0.2,0.7,0.4,1,0.6c0.3,0.2,0.2,0.5-0.2,0.7c-0.2,0.2-0.9,0.3-1.9,0.4c-2.1,0.2-4,0.4-5.8,0.5
			c0,1.9,0,3.8,0,5.6c3.1,0.6,5.9,1.5,8.3,2.6c0.7,0.3,1.1,0.9,1.1,1.7c0,0.3-0.2,0.5-0.5,0.6c-0.2,0.1-0.6,0-1.1-0.4
			c-2.6-1.6-5.2-2.7-7.8-3.4c0.1,1.4-0.2,2.4-0.8,3.1c-0.9,1-2.4,1.4-4.6,1.4c-1.9,0-3.4-0.5-4.3-1.4c-0.5-0.5-0.7-1-0.7-1.7
			c0-0.7,0.3-1.3,1-1.8c1-0.8,2.8-1.2,5.3-1.2c0.6,0,1.5,0,2.9,0.1c0-1.8,0-3.5,0-5.3c-1.2,0.1-2.4,0.1-3.7,0.1
			c-1.4,0-2.4-0.2-3-0.6c-0.9-0.6-1.3-1.7-1.2-3.4c0.2-0.3,0.4-0.3,0.6,0c0,1.1,0.2,1.9,0.6,2.3c0.5,0.5,1.5,0.7,3,0.7
			c1.4,0,2.6-0.1,3.7-0.2c0-1.8,0-3.5,0-5.3c-1.5,0.2-3.3,0.2-5.3,0.2c-1.4,0-2.6-0.1-3.5-0.4c-1.2-0.3-2.2-1-3-1.9
			c-0.2-0.5-0.1-0.6,0.4-0.4c0.8,0.7,1.6,1.2,2.5,1.4c0.6,0.2,1.9,0.2,4,0.2c1.6,0,3.2-0.1,4.9-0.4c0-0.6,0-1.3,0-2
			c0-1.4-0.1-2.2-0.4-2.5c-0.4-0.6-1.1-0.8-2-0.8c-0.6,0.1-0.6-0.1-0.1-0.5c0.4-0.2,0.9-0.2,1.6-0.2c0.8,0,1.8,0.3,2.9,1
			c0.6,0.3,0.6,0.7,0,1.2c-0.4,0.3-0.6,0.9-0.6,1.8C470.8,58.4,470.8,59.1,470.8,59.7z M465.9,73.4c-1.5,0-2.7,0.2-3.5,0.6
			s-1.2,1-1.2,1.7c0,0.6,0.4,1.2,1.2,1.6s1.7,0.6,2.8,0.6c1.4,0,2.6-0.4,3.4-1.1c0.6-0.6,0.9-1.6,0.8-3
			C467.6,73.5,466.5,73.4,465.9,73.4z"/>
		<path class="st0" d="M502.3,59.9c3.6-0.2,6-0.4,7.2-0.6c0.5-0.1,1.3-0.2,2.4-0.5c0.4-0.1,0.8,0,1.2,0.4c0.9,0.7,1.4,1.2,1.4,1.4
			c0.2,0.5-0.1,0.6-0.7,0.5c-1.6-0.4-3.6-0.6-6.1-0.6c-1.5,0-3.3,0.1-5.4,0.2c0,1.8,0,3.5,0,5.2c0.2,0.8,0.4,1.9,0.4,3.4
			c0,5-2.2,8.7-6.6,10.9c-0.4,0.1-0.5,0-0.2-0.4c1-0.7,1.8-1.5,2.5-2.3c1.8-2,2.7-4.4,2.8-7.2c-0.6,1-1.5,1.4-2.5,1.4
			c-0.9,0-1.7-0.4-2.4-1.1c-0.6-0.6-0.8-1.4-0.8-2.5s0.4-2.1,1.2-2.9c0.6-0.6,1.4-1,2.4-1c0.7,0,1.4,0.2,1.9,0.5c0-1.3,0-2.6,0-4
			c-4.2,0.6-7.4,1.3-9.5,1.9c-0.8,0.2-1.4,0.4-1.7,0.6c-0.5,0.2-0.9,0.2-1.3-0.1c-0.9-0.6-1.5-1.6-1.9-2.8c0-0.4,0.2-0.4,0.5-0.1
			c0.4,0.7,1.2,1.1,2.3,1.1s2.8-0.2,5.2-0.6c1.8-0.3,4-0.6,6.5-0.8c0-1,0-2.1,0-3.2c0-1.8-0.8-2.8-2.4-3c-0.3-0.2-0.3-0.3,0-0.5
			c1.4-0.2,2.4,0,3.2,0.6c0.4,0.2,0.8,0.6,1.1,1.1c0.3,0.4,0.3,0.7-0.1,0.8C502.4,56.1,502.3,57.5,502.3,59.9z M497,65.9
			c-0.4,0.6-0.6,1.2-0.6,2c0,1.3,0.3,2.2,1,2.8c0.2,0.2,0.6,0.4,1.2,0.4c0.6,0,1-0.2,1.3-0.5c0.7-0.7,1.1-1.7,1.1-3
			c0-1.8-0.7-2.6-2-2.6C498,65,497.4,65.3,497,65.9z"/>
		<path class="st0" d="M524.5,76.9c0,1.1-0.4,2-1.1,2.8c-0.7,0.7-1.6,1.1-2.8,1.1c-1.1,0-2-0.4-2.8-1.1c-0.7-0.7-1.1-1.6-1.1-2.8
			c0-1.1,0.4-2,1.1-2.8c0.7-0.7,1.6-1.1,2.8-1.1c1.1,0,2,0.4,2.8,1.1C524.1,74.8,524.5,75.7,524.5,76.9z M523.6,76.9
			c0-0.9-0.3-1.6-0.8-2.2c-0.6-0.6-1.3-0.8-2.2-0.8s-1.6,0.3-2.2,0.8c-0.6,0.6-0.8,1.3-0.8,2.2s0.3,1.6,0.8,2.2
			c0.6,0.6,1.3,0.8,2.2,0.8s1.6-0.3,2.2-0.8C523.3,78.5,523.6,77.7,523.6,76.9z"/>
		<g>
			<path class="st0" d="M15.2,75.7c0,1.2,0.8,1.9,2.5,1.9h1.5v0.9H8.2v-0.9h1.8c1.6,0,2.5-0.6,2.5-1.9v-4.4h-11v-0.7l12-16.6h1.6
				v16.5h4.5v0.9h-4.5V75.7z M12.4,57.5L3,70.4h9.6V57.5H12.4z"/>
		</g>
	</g>
	<g>
		<path class="st0" d="M201.5,135.2c4.2-0.9,8.5-1.7,12.8-2.6c0.9-0.2,1.5-0.4,2-0.7c0.4-0.2,0.8-0.2,1.3,0c1,0.5,1.6,0.8,1.8,1.1
			c0.3,0.5,0.2,0.7-0.5,0.7c-0.8,0-1.5,0-2.1-0.1c-0.6-0.1-1.6,0-3.1,0.2c-3.1,0.5-5.4,1.5-7.1,3.2c-1.2,1.2-1.8,2.5-1.8,4.1
			c0,1.6,0.6,3,1.8,4c1,0.9,2.4,1.3,4.2,1.4c1.3,0.1,2.2,0,2.6-0.1c0.6-0.3,1.1-0.3,1.5,0c0.4,0.3,0.6,0.6,0.7,0.8
			c0.2,0.5,0,0.7-0.5,0.7c-0.9,0.1-2,0.1-3.3,0.1c-1,0-2-0.2-2.9-0.5c-1.6-0.5-2.9-1.3-3.6-2.1c-0.9-1-1.4-2.4-1.4-4.2
			c0-1.8,0.6-3.3,1.9-4.5c0.9-0.8,1.6-1.4,2.2-1.8c0.2-0.2,0.2-0.3,0-0.4c-6.8,1.8-10.8,3-12,3.5c-0.7,0.3-1.1,0.1-1.1-0.6
			c0-0.3,0.2-0.7,0.7-1.2c0.2-0.2,0.6-0.4,1.1-0.4c1,0,2.5-0.6,4.4-1.9c3.5-2.3,6.4-5.2,8.7-8.7c0.1-0.2,0-0.3-0.2-0.2
			c-1.6,0.5-3.1,0.9-4.7,1.4c-1.2,0.3-1.9,0.6-2.2,0.9c-0.4,0.4-0.8,0.4-1.3-0.1c-0.9-0.9-1.4-1.9-1.3-2.9c0.2-0.5,0.3-0.4,0.5,0.1
			c0.3,0.8,0.8,1.2,1.5,1.3c0.8,0.1,1.6,0,2.6-0.2c1.8-0.5,3.6-0.9,5.3-1.4c0.2-0.2,0.4-0.4,0.6-0.6c0.9,0.5,1.6,0.9,2,1.3
			c0.5,0.5,0.4,0.8-0.1,0.9c-0.3,0.1-0.7,0.3-1.1,0.6c-2.7,3.1-6,5.9-10,8.4C201.2,135.1,201.2,135.2,201.5,135.2z"/>
		<path class="st0" d="M241.8,144.7c1.3,0,2.2-0.1,2.9-0.2c0.7-0.2,1.1-0.2,1.2-0.2c0.5,0,0.9,0.3,1.4,0.9c0.5,0.6,0.2,0.9-0.8,0.9
			c-3.5,0-7.1,0-10.6,0c-2.8,0-4.9-0.8-6.4-2.5c-0.9-1-1.4-2.3-1.6-3.8c0.2-0.3,0.3-0.3,0.5,0.1c0.4,1,1,1.9,1.8,2.7
			c1.3,1.3,3.3,2,5.9,2C238,144.7,239.9,144.7,241.8,144.7z M244.1,128.6c0.4,0.5,0.2,0.8-0.5,0.8c-0.5,0-1.4,0-2.5,0
			c-0.9,0-1.8,0.1-2.6,0.4c-1.6,0.5-3.3,1.2-5.2,2.2c-0.5,0.2-0.6,0.2-0.4-0.2c1.2-0.9,2.5-1.8,4.1-2.5c-1.9-0.2-3.3-0.5-4.4-0.9
			c-1.3-0.6-2.3-1.5-2.9-2.5c0-0.4,0.2-0.4,0.5-0.1c1.2,1.3,3.6,2,7.2,2c2.6,0,4.2-0.1,4.9-0.4c0.3-0.1,0.6,0,0.9,0.4
			C243.6,128,243.8,128.3,244.1,128.6z"/>
		<path class="st0" d="M263.8,131.2c-1.8,4.2-3.6,8.3-5.5,12.5c-0.2,0.4-0.6,1.2-1.1,2.4c-0.2,0.6-0.5,0.9-0.8,0.9
			c-0.2,0-0.4-0.2-0.6-0.6c-0.1-0.2-0.1-0.5-0.1-0.9c0-0.7,0.2-1.3,0.7-1.8s1-1.3,1.6-2.6c1.7-3.4,3.3-6.6,4.6-9.6
			c-2.4,0.5-3.8,0.9-4.5,1.2c-0.5,0.2-0.9,0.2-1.3-0.1c-0.8-0.5-1.2-1.4-1.2-2.5c0.1-0.2,0.2-0.2,0.4,0c0.4,0.9,1,1.3,1.9,1.3
			c0.5,0,2.2-0.2,5.1-0.7c0.4-0.9,0.8-1.8,1.2-2.7c0.4-1.1,0.4-1.9-0.1-2.5c-0.4-0.5-1-0.7-1.9-0.8c-0.3-0.2-0.3-0.3,0-0.5
			c0.8,0,1.3,0,1.6,0.1c0.9,0.2,1.6,0.7,2.2,1.3c0.7,0.7,0.7,1.1-0.1,1.3c-0.5,1.3-1.1,2.5-1.8,3.6c1.1-0.2,1.8-0.2,2.2-0.2
			c1,0,1.8,0.3,2.2,0.8c0.7,0.9,1.1,2.3,1.1,4.4c0,6-1.5,9.8-4.4,11.3c-0.8,0.4-1.2,0.2-1.2-0.5c0-0.5-0.2-0.9-0.5-1.2
			c-0.7-0.5-1.5-1.1-2.4-1.8c-0.2-0.3-0.1-0.4,0.2-0.4c0.9,0.5,1.8,0.9,2.7,1.4c0.8,0.4,1.5,0.2,2.1-0.7c0.7-1,1.2-2.3,1.5-3.8
			c0.4-1.9,0.6-3.6,0.6-5.2c0-1.4-0.1-2.4-0.4-2.8c-0.3-0.6-0.9-0.9-1.8-0.9C265.5,131,264.7,131,263.8,131.2z M274.2,129.9
			c1.3,0.5,2.7,1.4,4.2,2.6c2,1.6,3.1,3.5,3.3,5.8c0.1,0.8,0,1.4-0.4,1.8c-0.5,0.6-0.9,0.6-1.4-0.1c-0.5-0.8-1.1-1.1-1.8-1.1
			c-1.1,0.1-2.2,0.2-3.4,0.2c-0.5-0.1-0.5-0.2-0.1-0.5c1.3-0.2,2.6-0.4,4-0.6c0.5-0.1,0.8-0.3,0.7-0.7c-0.2-1.3-0.7-2.5-1.8-3.9
			c-0.9-1.3-2.2-2.3-3.6-3.2C273.5,129.9,273.6,129.8,274.2,129.9z"/>
		<path class="st0" d="M300.6,135c2.7,0,4.7,0.7,6,2c1,1,1.5,2.2,1.5,3.6c0,1.6-0.5,2.9-1.6,4c-2.3,2.2-6.6,3.3-12.9,3.2
			c-0.5-0.2-0.5-0.5,0-0.7c5.7-0.2,9.6-1.3,11.6-3.3c0.9-0.9,1.3-2,1.3-3.4c0-1.3-0.3-2.2-0.9-2.8c-1.3-1.3-2.8-1.9-4.7-1.9
			c-2.7,0-4.9,0.9-6.8,2.8c-1.2,1.2-1.9,2.3-2.1,3.4c-0.2,0.7-0.5,0.9-1.1,0.6c-0.9-0.5-1.3-1.5-1.2-2.9c0.1-2,0.3-3.7,0.6-5.3
			c0.2-0.9,0.2-1.7,0.2-2.6c0-0.5-0.1-1-0.4-1.4c-0.2-0.4-0.2-0.8,0.1-1.3c0.6-0.9,1.7-1.6,3.2-1.9c0.7-0.2,1.6-0.2,2.8-0.2
			c0.2,0,0.2-0.1,0.1-0.2c-0.1-0.2-0.4-0.4-0.8-0.5c-1.7-0.3-3-1.4-3.9-3.2c0.1-0.2,0.2-0.3,0.4-0.1c0.9,1.2,2.6,2,4.9,2.5
			c1.5,0.3,2.3,1.1,2.5,2.4c0.1,0.7-0.2,0.9-0.9,0.6c-1-0.5-1.9-0.7-2.6-0.7c-2.2,0-3.7,0.4-4.6,1.3c-0.5,0.5-0.5,1.1,0,1.6
			s0.6,1.1,0.4,1.9c-0.5,1.6-0.7,3.9-0.6,6.9c0,0.5,0.2,0.5,0.5,0C294.3,136.4,297.3,135,300.6,135z"/>
		<path class="st0" d="M315.8,143c-0.4-0.3-0.4-0.5,0.1-0.5c1.9,0.5,3.6,1.6,5.3,3.3c0.7,0.7,1.1,1.4,1.1,2.1c0,0.5-0.2,0.9-0.5,1.2
			c-0.2,0.2-0.5,0.4-0.7,0.4c-0.4,0-0.7-0.2-0.9-0.7c-0.4-0.7-0.9-1.6-1.5-2.7C318.2,145.2,317.2,144.2,315.8,143z"/>
	</g>
	<g>
		<path class="st0" d="M80.7,179.9v1.4c3.2,0.8,4.8,1.9,4.8,3.3c0,0.5-0.2,0.8-0.6,0.8c-0.3,0-0.6-0.2-0.9-0.6
			c-0.7-1.1-1.8-2.1-3.3-2.9V195c-1,0.9-1.5,1-1.5,0.1v-13.5c-2,2-3.7,3.4-5.2,4.2c-0.3,0-0.4-0.1-0.2-0.4c3.5-3,6.4-6.5,8.9-10.7
			h-7.6V174h4.1v-5.4l2,0.4c0.6,0.2,0.5,0.5-0.5,0.8v4.2h1.8l1.3-1.3l1.9,1.9c0.5,0.5,0.1,0.7-1.2,0.6
			C83.3,176.6,82.1,178.2,80.7,179.9z M98.4,192.5l1.8-1.8l2.1,1.6c0.3,0.4,0.2,0.7-0.4,0.8H82.8v-0.7h8.4v-12.8h-6.6v-0.7h6.6v-9.8
			l2.1,0.4c0.9,0.2,0.7,0.5-0.6,0.9v8.5h4.7l1.5-1.5l1.9,1.4c0.5,0.4,0.5,0.7,0,0.8h-8.1v12.9H98.4z"/>
		<path class="st0" d="M116.9,168.4l2.6,1.1c0.4,0.6,0,0.8-1.2,0.6c3,3.8,7.4,6.8,13.2,8.9c-0.9,0.3-1.6,0.9-2.1,1.6
			c-5.2-2.7-9-6.1-11.5-10.4c-4.5,5.6-8.9,9.3-13.3,10.8c-0.4,0-0.4-0.2-0.1-0.5C109.6,177.7,113.8,173.6,116.9,168.4z M124.6,191.6
			c-1-1-2.2-2-3.4-2.9c-0.4-0.3-0.3-0.4,0.2-0.4c2,0.8,3.8,1.8,5.3,3.1c1.1,0.9,1.6,1.9,1.6,2.9c0,0.8-0.3,1.2-0.8,1.2
			c-0.4,0-0.7-0.4-1.1-1.1c-0.2-0.5-0.7-1.3-1.4-2.2l-16,1.6c-0.5,1.5-0.9,1.8-1.3,0.8l-1.2-2.2l5.4-0.1l2.4-6.7h-9.6v-0.7h21.9
			l1.5-1.5l1.9,1.4c0.5,0.4,0.5,0.7,0,0.8h-13.6l-3.5,6.6L124.6,191.6z M110.3,179.3h10.6l1.3-1.3l1.6,1.2c0.5,0.4,0.5,0.7,0,0.8
			h-13.5V179.3z"/>
		<path class="st0" d="M141.7,182.6c-0.6,1.3-1.2,3.1-1.8,5.5c-0.3,1.3-0.3,2.4,0,3.3c0.4,1.1,0.5,1.8,0.4,2.2
			c-0.2,0.5-0.6,0.5-1.1,0.2c-1.5-1-2.2-3.7-2.2-8c0-2.9,0.4-6.3,1.3-10.2c0.2-0.7,0.2-1.6,0.2-2.6s-0.4-1.6-1.2-1.9
			c-0.4-0.3-0.3-0.5,0.2-0.5c1.2,0.3,2.1,1,2.7,2c0.2,0.2,0.2,0.6,0,1.1c-0.9,2.7-1.5,4.5-1.6,5.3c-0.5,2-0.7,3.8-0.7,5.4
			c0,1.6,0.1,2.8,0.4,3.8c0.2,0.2,0.3,0.2,0.5,0c0.9-2.7,1.7-4.7,2.6-6C141.8,182.2,141.9,182.3,141.7,182.6z M155.5,190
			c1.3,0,2.2-0.2,2.9-0.5c0.8-0.3,1.4-0.1,1.9,0.7c0.3,0.5,0.1,0.9-0.6,0.9c-0.6,0.1-1.6,0.1-2.8,0.1c-1.6,0-3.1,0-4.7,0
			c-2.5,0-4.3-0.5-5.3-1.5s-1.5-2.3-1.5-3.8c0-0.5,0-1.1,0.1-1.9c0.2-0.3,0.3-0.3,0.5,0c0.1,2.2,0.5,3.6,1.2,4.4
			c1,1,2.6,1.5,4.7,1.5C153.1,190,154.3,190,155.5,190z M149.2,179.3c-0.3,0.2-0.4,0.2-0.4-0.2c0.9-1.3,2-2.3,3.3-3.2
			c0.3-0.2,0.3-0.4-0.1-0.4c-2.5,0.2-4.5-0.2-6-1.2c-0.4-0.3-0.3-0.4,0.2-0.4c1.3,0.3,2.5,0.5,3.4,0.5c2.2,0,4.4-0.2,6.5-0.7
			c0.9-0.2,1.6-0.1,1.9,0.5c0.5,0.8,0.2,1.2-0.7,1.2C154.7,175.5,152,176.7,149.2,179.3z"/>
		<path class="st0" d="M174.7,183.3c0.8-0.8,1.5-1.5,2.1-2.2c-0.4,0-0.7-0.3-1.1-0.9c-0.6-1.2-1.8-2.2-3.4-3.2
			c-2.3,2.7-4.8,4.8-7.5,6.4c-0.4,0-0.5-0.2-0.2-0.5c4.7-3.2,8.2-7.9,10.4-14l2.1,0.9c0.8,0.3,0.5,0.6-0.8,0.8
			c-0.4,0.7-0.8,1.4-1.2,2h7.6l0.7-0.9l2,1.3c0.5,0.5,0.2,0.8-0.9,0.8c-2.7,4-5.5,7.4-8.6,10.1h9.9l0.7-0.9l1.6,1.2
			c0.5,0.4,0.3,0.7-0.5,0.8v8.9c-1,0.9-1.5,1-1.5,0.1v-1.3h-10.4v2.2c-1,0.9-1.5,1-1.5,0.1v-9.9c-2.9,2.4-6.3,4-10.2,5.1
			c-0.4,0-0.5-0.2-0.2-0.5c3.8-1.3,7.3-3.3,10.5-6.1V183L174.7,183.3z M174.7,173.3c-0.7,1.3-1.4,2.4-2.1,3.3c2,0.5,3.3,1.1,4,1.8
			c0.5,0.5,0.8,1.1,1.1,1.9c1.7-2,3.4-4.3,5.1-6.9h-8.1V173.3z M186.1,192v-7.4h-10.4v7.4H186.1z"/>
		<path class="st0" d="M209.3,173.3h9.1l1.5-1.5l1.9,1.4c0.5,0.4,0.5,0.7,0,0.8h-12.5v3.1h7.3l1.3-1.3l1.6,1.2
			c0.5,0.4,0.5,0.7,0,0.8h-21.2v-0.7h9.4V174h-12.5v-0.7h12.6v-4.5l2,0.4c0.6,0.4,0.5,0.7-0.5,0.8V173.3z M201.3,185.7v1.2
			c0,3.2-1.8,6.1-5.3,8.7c-0.4,0.2-0.5,0-0.4-0.4c2.7-2.5,4.1-5.3,4.1-8.4v-7.4l1.8,0.9h14.2l0.7-0.9l1.6,1.2
			c0.5,0.4,0.3,0.7-0.5,0.8v5.6c-1,0.9-1.5,1-1.5,0.1v-1.4H201.3z M208,181.1h-6.7v3.9h6.7V181.1z M216.1,181.1h-6.6v3.9h6.6V181.1z
			"/>
		<path class="st0" d="M250.1,179.1c0.3,0.2,0.5,0.4,0.5,0.6s-0.2,0.4-0.5,0.6c-1.7,0.5-5.1,2-10.2,4.2c0,1.6,0,3.3,0,4.9
			c0,0.7-0.3,1.1-0.9,1.1c-0.3,0-0.5-0.2-0.5-0.7c0-1.5,0-3,0-4.6c-2.1,0.9-3.8,2.1-5.2,3.4c-0.7,0.7-1.1,1.4-1.1,2
			c0,0.5,0.2,1,0.6,1.4c0.7,0.7,2.4,1.1,4.9,1.1s4.7-0.2,6.5-0.6c0.5-0.2,1-0.4,1.3-0.4c0.9,0,1.3,0.4,1.3,1.2
			c0,0.3-0.2,0.5-0.7,0.6c-1.3,0.3-3.9,0.5-7.8,0.5c-3.1,0-5.1-0.5-6.1-1.5c-0.6-0.6-0.9-1.3-0.9-2c0-1,0.5-2,1.4-2.9
			c1.3-1.3,3.2-2.5,5.8-3.9c0-1.3-0.3-2.2-0.8-2.7c-0.3-0.3-0.8-0.5-1.5-0.5c-2,0-4.3,1.7-7.1,5.1c-0.2,0.2-0.5,0.4-0.7,0.4
			c-0.4,0-0.6-0.4-0.6-1.1s0.2-1.1,0.5-1.3c0.6-0.3,1.3-0.8,1.9-1.5c1.4-1.4,2.9-3.6,4.6-6.5c-0.6,0.1-1.5,0.2-2.7,0.2
			c-0.6,0.1-1.2,0.1-1.6,0.1c-0.3,0-0.7-0.3-1.3-0.8c-0.5-0.4-0.7-0.9-0.7-1.4c0.2-0.3,0.3-0.3,0.5,0.1c0.5,0.7,1.4,1.1,2.7,1.1
			c1.3,0,2.5-0.1,3.6-0.2c0.6-1.2,1-2.1,1.1-2.8c0.2-1.1-0.4-1.8-1.8-2c-0.5-0.1-0.6-0.2-0.1-0.5c1.4-0.2,2.8,0.3,4.2,1.3
			c0.4,0.3,0.4,0.7-0.1,1.1c-0.4,0.3-1.1,1.3-2,2.9c1.7-0.3,3.1-0.7,4.2-1.2c0.4-0.2,0.7-0.4,0.9-0.4s0.5,0.2,0.8,0.5
			c0.2,0.1,0.2,0.3,0.2,0.6c0,0.2-0.2,0.4-0.7,0.5c-1.9,0.3-3.9,0.6-6,0.9c-1,1.6-2.1,3.1-3.2,4.7c-0.2,0.4-0.2,0.5,0.2,0.4
			c1.3-0.6,2.3-0.9,3.2-0.9c1.1,0,1.9,0.3,2.5,0.8c0.7,0.7,1.1,1.6,1.2,2.6c3.9-1.9,6.4-3.1,7.5-3.8c0.4-0.2,0.5-0.4,0.2-0.6
			c-0.5-0.3-1-0.5-1.6-0.7c-0.5-0.2-0.5-0.3,0-0.5C247.2,177.8,248.6,178.2,250.1,179.1z"/>
		<path class="st0" d="M255,174.5h7.9l1.3-1.3l1.6,1.2c0.5,0.4,0.5,0.7,0,0.8H255V174.5z M256,182.2h5.5l1.3-1.3l1.6,1.2
			c0.5,0.4,0.5,0.7,0,0.8h-8.5v-0.7H256z M256.1,171h5.6l1.3-1.3l1.6,1.2c0.5,0.4,0.5,0.7,0,0.8H256V171H256.1z M256.1,178.4h5.5
			l1.3-1.3l1.6,1.2c0.5,0.4,0.5,0.7,0,0.8H256v-0.7H256.1z M261.4,185.9l0.7-0.9l1.6,1.2c0.5,0.4,0.3,0.7-0.5,0.8v6.7
			c-1,0.9-1.5,1-1.5,0.1v-1.2h-3.8v2.1c-1,0.9-1.5,1-1.5,0.1V185l1.8,0.8h3.2V185.9z M258,191.9h3.8v-5.3H258V191.9z M275.2,182.4
			h2.8l1.5-1.5l1.9,1.4c0.5,0.4,0.5,0.7,0,0.8h-6.2v9.6h3.6l1.8-1.8l2.2,1.6c0.5,0.4,0.5,0.7,0,0.8h-18.2v-0.7h3.3v-14.1l2.1,0.4
			c0.9,0.3,0.7,0.6-0.6,0.9v12.9h4.2v-19.5h-7.2v-0.7h11.5l1.5-1.5l1.9,1.4c0.5,0.4,0.5,0.7,0,0.8h-6.1V182.4z"/>
		<path class="st0" d="M309.6,173.3l2.4,1.8c0.5,0.4,0.5,0.7,0,0.8h-26.8v-0.7h22.6L309.6,173.3z M289.8,179.2h14.4l1.5-1.5l1.9,1.4
			c0.5,0.4,0.5,0.7,0,0.8h-17.8V179.2z M289.8,183.7V183h14.4l1.5-1.5l1.9,1.4c0.5,0.4,0.5,0.7,0,0.8H289.8z M305.6,193.3h-14.4v1.6
			c-1,0.9-1.5,1-1.5,0.1v-9.2l1.8,0.9h13.8l0.7-0.9l1.6,1.2c0.5,0.4,0.3,0.7-0.5,0.8v6.5c-1,0.9-1.5,1-1.5,0.1V193.3z M290.6,171.2
			h12l1.8-1.8l2.2,1.6c0.5,0.4,0.5,0.7,0,0.8h-16V171.2z M291.3,192.6h14.4v-5.1h-14.4V192.6z"/>
		<path class="st0" d="M323.2,177.6c0-1.3,0-2.5,0.1-3.9c0.1-1.3-0.6-2-2.1-2.1c-0.5-0.2-0.5-0.3-0.1-0.5c0.5-0.1,0.9-0.1,1.3-0.1
			c0.9,0,1.9,0.4,2.9,1.2c0.3,0.2,0.3,0.6,0,1.1c-0.2,0.2-0.3,0.7-0.5,1.4s-0.2,1.6-0.2,2.6c0,3.6,0,7.2,0,10.7
			c0,1.4,0.2,2.4,0.7,2.9c0.7,0.8,1.9,1.2,3.5,1.2c2.3,0,4.3-0.5,6-1.4c1.9-1,4-2.5,6.2-4.5c0.3-0.2,0.4-0.1,0.4,0.2
			c-2.1,2.5-4.2,4.4-6.4,5.5c-1.8,1-4,1.5-6.5,1.5c-1.8,0-3.2-0.5-4.2-1.6c-0.8-0.9-1.2-2.1-1.2-3.8
			C323.2,184.6,323.2,181.1,323.2,177.6z"/>
		<path class="st0" d="M367.8,172c0.5-0.4,1-0.4,1.5,0c0.9,0.6,1.3,1,1.4,1.1c0.4,0.4,0.3,0.7-0.2,0.8c-4.9-0.2-8.4,0.8-10.5,2.9
			c-2,2-3.1,4.1-3.1,6.1c0,2.4,0.8,4.3,2.4,5.9c1.6,1.6,3.5,2.5,5.6,2.6c0.8,0,1.3,0.2,1.5,0.5c0.3,0.4,0.5,0.7,0.5,1.1
			c0,0.4-0.3,0.6-0.9,0.6c-2.2,0-4.3-0.8-6.4-2.5c-2.4-2-3.6-4.5-3.6-7.8c0-3,1.5-5.7,4.6-8.1c0.4-0.3,0.4-0.5,0-0.5
			c-2.4,0.5-4.7,0.9-6.9,1.4c-0.9,0.2-1.9,0.5-2.8,0.9c-0.7,0.3-1.2,0.4-1.4,0.4c-0.4-0.1-0.8-0.3-1.2-0.6c-0.9-0.6-1.3-1.3-1.4-2
			c0.2-0.5,0.3-0.6,0.5-0.1c0.4,0.7,1.2,1,2.5,0.9c0.6,0,1.7-0.2,3.2-0.5c4.1-0.7,8.2-1.5,12.2-2.2
			C366.4,172.7,367.3,172.4,367.8,172z"/>
		<path class="st0" d="M378.4,176.5c0-1.8-0.5-2.9-1.6-3.4c-0.3-0.2-0.3-0.3,0.1-0.4c0.9,0.1,1.9,0.5,2.8,1.3
			c0.8,0.6,0.9,1.3,0.4,1.9c-0.2,2-0.4,3.7-0.4,5.1c0,3.6,0.4,6.1,1.3,7.5c0.5,0.7,0.9,0.7,1.3,0c1.3-2.3,2.8-4.7,4.4-7.4
			c0.3-0.4,0.5-0.3,0.5,0.2c-1.2,2.5-2.2,4.8-3.2,6.9c-0.5,1.1-0.7,2-0.5,2.7c0.3,1,0,1.4-0.8,1.1c-1.3-0.5-2.4-1.7-3.3-3.8
			c-0.6-1.5-0.9-3.3-0.9-5.4C378.4,180.7,378.4,178.6,378.4,176.5z M398.4,177.3c2.3,2.5,3.4,5,3.4,7.4c0,0.9-0.4,1.3-1.1,1.3
			c-0.5,0-0.9-0.3-0.9-0.9c-0.2-2-0.8-3.9-1.8-5.6c-0.9-1.6-2.1-3.2-3.8-4.6c-0.2-0.2-0.2-0.4,0.2-0.4
			C396.1,175.4,397.4,176.3,398.4,177.3z"/>
		<path class="st0" d="M420.4,175.5c1.8-0.2,3.3-0.4,4.6-0.7c0.7-0.2,1.3-0.4,1.6-0.7c0.4-0.3,0.7-0.4,1.1-0.1
			c0.5,0.3,0.8,0.5,0.9,0.7c0.4,0.4,0.3,0.7-0.4,0.8c-2.3,0.5-4.9,0.9-7.9,1.2c0,1.7,0,3.5,0,5.2c1.6-0.2,2.8-0.3,3.6-0.5
			c1.1-0.2,1.8-0.4,2.1-0.6c0.4-0.2,0.7-0.2,1.1,0c0.4,0.2,0.7,0.4,0.9,0.6c0.3,0.2,0.2,0.5-0.2,0.7c-0.2,0.2-0.9,0.3-1.9,0.4
			c-2,0.2-3.9,0.4-5.6,0.5c0,1.9,0,3.7,0,5.5c3.1,0.6,5.8,1.5,8.1,2.6c0.7,0.3,1.1,0.9,1.1,1.6c0,0.3-0.2,0.5-0.5,0.6
			c-0.2,0.1-0.6,0-1.1-0.4c-2.6-1.6-5.1-2.7-7.6-3.3c0.1,1.3-0.2,2.4-0.8,3.1c-0.9,0.9-2.4,1.4-4.5,1.4c-1.9,0-3.3-0.5-4.2-1.4
			c-0.5-0.5-0.7-1-0.7-1.6c0-0.7,0.3-1.3,0.9-1.8c1-0.8,2.7-1.2,5.2-1.2c0.5,0,1.5,0,2.8,0.1c0-1.7,0-3.5,0-5.2
			c-1.2,0.1-2.4,0.1-3.6,0.1c-1.3,0-2.3-0.2-2.9-0.6c-0.9-0.5-1.3-1.6-1.2-3.3c0.2-0.3,0.4-0.3,0.6,0c0,1.1,0.2,1.8,0.6,2.2
			c0.5,0.5,1.5,0.7,2.9,0.7c1.3,0,2.5-0.1,3.6-0.2c0-1.7,0-3.5,0-5.2c-1.5,0.2-3.2,0.2-5.2,0.2c-1.4,0-2.5-0.1-3.4-0.4
			c-1.2-0.3-2.2-0.9-2.9-1.9c-0.2-0.5-0.1-0.6,0.4-0.4c0.8,0.7,1.6,1.2,2.5,1.4c0.5,0.2,1.8,0.2,3.9,0.2c1.6,0,3.2-0.1,4.8-0.4
			c0-0.6,0-1.3,0-2c0-1.3-0.1-2.2-0.4-2.5c-0.4-0.5-1.1-0.8-2-0.8c-0.5,0.1-0.6-0.1-0.1-0.5c0.4-0.2,0.9-0.2,1.5-0.2
			c0.8,0,1.7,0.3,2.8,0.9c0.5,0.3,0.5,0.7,0,1.2c-0.4,0.3-0.6,0.9-0.6,1.8C420.4,174.2,420.4,174.8,420.4,175.5z M415.5,188.9
			c-1.5,0-2.6,0.2-3.4,0.6c-0.8,0.4-1.2,0.9-1.2,1.6c0,0.6,0.4,1.1,1.2,1.5c0.8,0.4,1.7,0.6,2.7,0.6c1.4,0,2.5-0.4,3.3-1.1
			c0.6-0.5,0.9-1.5,0.8-2.9C417.2,189,416.1,188.9,415.5,188.9z"/>
		<path class="st0" d="M451.2,175.7c3.5-0.2,5.9-0.4,7.1-0.6c0.5-0.1,1.3-0.2,2.4-0.5c0.4-0.1,0.8,0,1.2,0.4
			c0.9,0.7,1.3,1.2,1.4,1.4c0.2,0.5-0.1,0.6-0.7,0.5c-1.6-0.4-3.6-0.6-6-0.6c-1.5,0-3.3,0.1-5.3,0.2c0,1.7,0,3.4,0,5.1
			c0.2,0.8,0.4,1.9,0.4,3.3c0,4.9-2.2,8.5-6.5,10.7c-0.4,0.1-0.5,0-0.2-0.4c0.9-0.7,1.8-1.5,2.5-2.2c1.7-2,2.6-4.3,2.7-7.1
			c-0.6,0.9-1.5,1.4-2.5,1.4c-0.9,0-1.6-0.4-2.4-1.1c-0.5-0.5-0.8-1.4-0.8-2.5c0-1.1,0.4-2,1.2-2.8c0.6-0.6,1.4-0.9,2.4-0.9
			c0.7,0,1.3,0.2,1.9,0.5c0-1.3,0-2.5,0-3.9c-4.2,0.6-7.3,1.3-9.3,1.9c-0.8,0.2-1.3,0.4-1.6,0.6c-0.5,0.2-0.9,0.2-1.3-0.1
			c-0.9-0.6-1.5-1.5-1.9-2.7c0-0.4,0.2-0.4,0.5-0.1c0.4,0.7,1.1,1.1,2.2,1.1c1.1,0,2.8-0.2,5.1-0.6c1.8-0.3,3.9-0.6,6.4-0.8
			c0-1,0-2.1,0-3.2c0-1.8-0.8-2.8-2.4-2.9c-0.3-0.2-0.3-0.3,0-0.5c1.3-0.2,2.4,0,3.2,0.6c0.4,0.2,0.7,0.6,1.1,1.1
			c0.3,0.4,0.3,0.7-0.1,0.8C451.3,171.9,451.2,173.3,451.2,175.7z M446,181.6c-0.4,0.5-0.6,1.2-0.6,2c0,1.3,0.3,2.2,0.9,2.7
			c0.2,0.2,0.6,0.4,1.2,0.4c0.5,0,1-0.2,1.3-0.5c0.7-0.7,1.1-1.7,1.1-2.9c0-1.7-0.7-2.6-2-2.6C447,180.6,446.4,180.9,446,181.6z"/>
		<path class="st0" d="M472.9,192.3c0,1.1-0.4,2-1.1,2.7s-1.6,1.1-2.7,1.1c-1.1,0-2-0.4-2.7-1.1s-1.1-1.6-1.1-2.7
			c0-1.1,0.4-2,1.1-2.7s1.6-1.1,2.7-1.1c1.1,0,2,0.4,2.7,1.1S472.9,191.2,472.9,192.3z M472.1,192.3c0-0.9-0.3-1.6-0.8-2.1
			s-1.3-0.8-2.1-0.8c-0.9,0-1.6,0.3-2.1,0.8s-0.8,1.3-0.8,2.1c0,0.8,0.3,1.6,0.8,2.1s1.3,0.8,2.1,0.8c0.9,0,1.6-0.3,2.1-0.8
			C471.8,193.8,472.1,193.1,472.1,192.3z"/>
	</g>
</g>
</svg>
