<?xml version="1.0" encoding="utf-8"?>
<!-- Generator: Adobe Illustrator 25.0.1, SVG Export Plug-In . SVG Version: 6.00 Build 0)  -->
<svg version="1.1" id="レイヤー_1" xmlns="http://www.w3.org/2000/svg" xmlns:xlink="http://www.w3.org/1999/xlink" x="0px"
	 y="0px" viewBox="0 0 458.8 27.7" style="enable-background:new 0 0 458.8 27.7;" xml:space="preserve">
<style type="text/css">
	.st0{fill:#FFFFFF;}
</style>
<g>
	<path class="st0" d="M43.1,18.6c0,1.6-0.6,2.9-1.8,3.8c-1.2,0.9-2.9,1.4-5.1,1.4c-1.8,0-3.3-0.4-4.5-1.2C30.5,21.9,30,21,30,19.9
		c0-0.6,0.1-1.1,0.4-1.4c0.4-0.3,0.8-0.4,1.2-0.4c0.5,0,0.9,0.1,1.1,0.4c0.2,0.4,0.3,0.7,0.3,1c0,0.2,0,0.4-0.1,0.5
		c-0.1,0.1-0.2,0.3-0.3,0.4c-0.1,0.1-0.1,0.2-0.2,0.3c-0.1,0.1-0.1,0.3-0.1,0.4c0,0.3,0.3,0.7,1,1.1c0.7,0.5,1.6,0.8,2.7,0.8
		c1.5,0,2.7-0.4,3.6-1.3c0.9-0.8,1.3-1.9,1.3-3.4c0-1.5-0.5-2.6-1.4-3.3c-0.9-0.7-2-1.1-3.5-1.1h-2.3v-0.7h2.4c1,0,2-0.3,2.8-0.9
		c0.9-0.6,1.3-1.6,1.3-3.2c0-1.2-0.4-2.1-1.1-2.8c-0.7-0.7-1.6-1.1-3-1.1c-1,0-1.9,0.2-2.6,0.5c-0.8,0.4-1,0.9-0.7,1.4
		c0.2,0.4,0.3,0.6,0.3,0.8c0.1,0.2,0.1,0.4,0.1,0.7c0,0.4-0.1,0.7-0.4,0.9c-0.2,0.2-0.5,0.3-0.9,0.3c-0.4,0-0.8-0.1-1.1-0.3
		c-0.3-0.2-0.4-0.6-0.4-1.2c0-1,0.5-1.9,1.4-2.6c0.9-0.7,2.4-1.1,4.4-1.1c2,0,3.5,0.4,4.5,1.3c1,0.9,1.5,2,1.5,3.3
		c0,1.4-0.4,2.4-1.2,3.1c-0.9,0.7-1.9,1.2-3,1.3v0.1c1.6,0.2,2.8,0.7,3.6,1.5C42.7,16.1,43.1,17.2,43.1,18.6z"/>
	<path class="st0" d="M67,22.1c5-0.7,8.4-2,10-3.9c0.9-1,1.3-2.3,1.3-3.7c0-1.8-0.7-3.1-2.1-4.2c-1.4-1-3-1.5-4.9-1.5
		c-2.9,0-6.1,1.4-9.6,4.1c-0.7,0.5-1.3,1-1.9,1.5c-0.4,0.4-0.8,0.4-1.4,0.2c-0.6-0.2-1.1-0.5-1.5-0.8c-0.6-0.4-0.9-0.8-1.1-1.4
		c0-0.4,0.1-0.4,0.4-0.1c0.4,0.5,0.9,0.8,1.5,0.8c0.7,0,1.3-0.1,1.6-0.3c0.7-0.4,1.5-0.9,2.4-1.5c3.2-2.2,6.4-3.3,9.5-3.3
		c2.7,0,4.9,0.8,6.6,2.3c1.3,1.2,2,2.7,2,4.7c0,1.5-0.5,2.8-1.6,4.2c-1.8,2.1-5.5,3.3-11.2,3.5C66.6,22.4,66.6,22.2,67,22.1z"/>
	<path class="st0" d="M100.5,7.5c0.5,0.5,0.4,0.8-0.3,1c-1.8,5.2-3.6,9-5.4,11.5c-0.4,0.7-0.9,1.2-1.4,1.5c-0.8,0.6-1.4,0.5-1.6-0.2
		c-0.9-0.3-1.6-0.8-2.1-1.6c-0.6-1-0.9-2.2-0.9-3.6c0-2.9,0.9-5.3,2.7-7.1c2.4-2.4,5.3-3.6,8.8-3.6c3.7,0,6.5,1,8.5,3.1
		c1.5,1.5,2.2,3.3,2.2,5.5c0,2-0.7,3.7-2.1,5.3c-2,2.2-4.9,3.6-8.9,4.3c-0.3-0.1-0.3-0.3,0-0.4c3.3-0.8,5.8-2.2,7.6-4.3
		c1.2-1.4,1.8-3,1.8-4.9c0-2-0.5-3.5-1.5-4.7c-2-2.3-5.1-3.3-9.2-3C99.3,6.5,99.9,6.9,100.5,7.5z M98.5,8.2c0.2-0.9,0-1.5-0.5-2
		c-1.9,0.3-3.6,1.2-5,2.6c-1.9,1.9-2.8,4.1-2.8,6.7c0,2.2,0.4,3.7,1.2,4.5c0.4,0.4,0.7,0.5,1.1,0.5c0.3,0,0.7-0.2,1.1-0.7
		C95.6,16.7,97.2,12.8,98.5,8.2z"/>
	<path class="st0" d="M122.1,24.1c1.4,0.1,2.3-0.4,2.7-1.8c0.4-1.2,0.7-3.8,0.9-7.7h-4.6l-0.1,1.5c-0.9,0.8-1.5,0.9-1.5,0.3l0.9-8.3
		l1.2,0.7h3.9V4h-5.9V3.4h5.6l0.8-1l1.8,1.2c0.6,0.4,0.3,0.7-0.8,0.9v6.2c-0.9,0.9-1.4,0.9-1.4,0.1V9.5h-3.9l-0.4,4.5h4.4l0.7-0.9
		l1.6,1.2c0.6,0.3,0.3,0.6-0.9,0.9c-0.1,5.6-0.8,8.9-2.1,9.8c-0.4,0.4-1,0.7-1.6,0.9c-0.9,0.4-1.4,0.3-1.4-0.2
		c0-0.4-0.2-0.7-0.5-0.9l-1.6-0.8c-0.3-0.3-0.3-0.4,0.1-0.4L122.1,24.1z M134.9,8.4l-4.8,0.5c-0.4,1.2-0.7,1.5-1.1,0.7l-0.8-1.9h3.5
		l2.8-6.4l2.2,1c0.4,0.4,0,0.6-1.1,0.5l-3.3,4.8l8.1-0.5c-0.5-0.7-1.2-1.5-2.1-2.2c-0.2-0.3-0.1-0.4,0.2-0.3c3,1.6,4.5,3.1,4.5,4.4
		c0,0.6-0.2,0.9-0.7,0.9c-0.4,0-0.8-0.3-1.1-1c-0.1-0.4-0.3-0.8-0.5-1.2l-5.4,0.7l1.9,0.5c0.4,0.4,0,0.6-1,0.8v2.2h4.2l0.7-0.8
		l1.4,1c0.4,0.4,0.3,0.6-0.4,0.8v5.4c-0.9,0.9-1.4,0.9-1.4,0.1v-0.9h-4.4v5.3l4.8-0.7c-0.6-1-1.4-1.9-2.3-2.6
		c-0.4-0.3-0.3-0.4,0.2-0.3c1.2,0.5,2.3,1.2,3.1,2c1.2,1.2,1.9,2.3,1.9,3.3c0,0.7-0.3,1-0.8,1c-0.4,0-0.7-0.3-0.9-0.9
		c-0.2-0.6-0.5-1.2-0.8-1.8l-11.3,2c-0.1,1-0.4,1.3-0.9,0.9l-1.1-2.1l6.6-0.7v-5.4h-3.7v1.3c-0.9,0.9-1.4,0.9-1.4,0.1V11l1.6,0.9
		h3.5V8.4z M134.9,16.8v-4.3h-3.7v4.3H134.9z M136.3,12.6v4.3h4.4v-4.3H136.3z"/>
	<path class="st0" d="M174.1,19.5c-1.1-0.6-2.7-1.3-4.9-2.2c-1.8,4.5-4.1,7.4-7.1,8.9c-0.4,0.1-0.5,0.1-0.3-0.2
		c2.8-2.1,4.9-5.1,6.2-9.1c-3-1-5.9-1.6-8.8-1.6c-1.2,2.6-2.2,4.3-3.2,5.3c-0.8,0.8-1.7,1.2-2.6,1.2c-0.7,0-1.3-0.2-1.6-0.5
		c-0.4-0.4-0.7-1-0.7-1.8c0-0.7,0.3-1.3,0.9-2c1.4-1.5,3.5-2.5,6.4-2.8c1.1-2.5,2.3-5.5,3.6-9.2c0.1-0.4,0-0.5-0.3-0.5
		c-1.2,0.4-2.4,0.8-3.6,1.2c-0.8,0.2-1.4,0.5-1.6,0.8c-0.4,0.4-0.8,0.3-1.2-0.1c-0.9-1-1.3-1.8-1.3-2.4c-0.1-0.4,0-0.4,0.3-0.2
		c0.4,0.9,1,1.3,1.6,1.3c0.4,0,0.8-0.1,1.4-0.2c1.7-0.4,3.4-0.8,5-1.2l0.4-0.5c0.8,0.2,1.4,0.5,1.8,0.9c0.4,0.4,0.2,0.7-0.4,0.9
		c-0.4,0.1-0.7,0.6-1.1,1.4c-1.1,2.7-2.2,5.3-3.4,7.9c3.2,0.1,6.1,0.5,8.8,1.3c0.2-0.4,0.5-1.2,0.8-2.4c0.1-0.3,0.1-0.9,0.2-1.8
		c0.1-0.9-0.3-1.5-1.2-1.8c-0.4-0.1-0.4-0.3,0-0.4c1.2,0,2.3,0.5,3.4,1.4c0.5,0.4,0.5,0.8,0,1c-0.4,0.1-0.8,0.6-1,1.4
		c-0.4,1.2-0.7,2.2-1,2.8c3.2,1,5,1.7,5.5,2c0.4,0.2,0.5,0.6,0.5,1.1c0,0.4-0.2,0.7-0.5,0.7C174.8,19.8,174.5,19.7,174.1,19.5z
		 M153,17.6c-0.6,0.6-0.9,1.2-0.9,2c0,0.9,0.4,1.4,1.3,1.4c0.7,0,1.3-0.3,2-1c0.6-0.6,1.5-2.2,2.6-4.7C155.7,15.8,154,16.6,153,17.6
		z"/>
	<path class="st0" d="M203,4.6c0.4-0.4,0.9-0.4,1.4,0c0.8,0.6,1.2,0.9,1.3,1c0.4,0.4,0.3,0.6-0.2,0.8c-4.5-0.1-7.8,0.8-9.7,2.7
		c-1.9,1.9-2.8,3.8-2.8,5.7c0,2.2,0.7,4,2.2,5.5c1.5,1.5,3.3,2.3,5.3,2.4c0.7,0,1.2,0.1,1.4,0.4c0.3,0.4,0.4,0.7,0.4,1
		c0,0.4-0.3,0.5-0.9,0.5c-2,0-4-0.8-5.9-2.3c-2.3-1.8-3.4-4.2-3.4-7.2c0-2.8,1.4-5.3,4.3-7.6c0.4-0.3,0.4-0.4,0-0.4
		c-2.3,0.4-4.4,0.9-6.5,1.3c-0.9,0.1-1.8,0.4-2.6,0.9c-0.7,0.3-1.1,0.4-1.3,0.3c-0.4-0.1-0.7-0.3-1.1-0.5c-0.8-0.6-1.2-1.2-1.3-1.9
		c0.1-0.5,0.3-0.5,0.4-0.1c0.4,0.7,1.1,0.9,2.3,0.9c0.6,0,1.6-0.1,3-0.4c3.8-0.7,7.6-1.4,11.4-2.1C201.7,5.2,202.5,4.9,203,4.6z
		 M203.9,13.9c-0.4,0.1-0.8,0-1-0.5c-0.5-1.2-1.5-2.2-2.8-3.1c-0.1-0.2-0.1-0.3,0.1-0.2c1.2,0.2,2.3,0.7,3.3,1.4
		c0.4,0.4,0.7,0.8,0.9,1.3C204.4,13.4,204.3,13.7,203.9,13.9z M202.9,8.5c-0.1-0.2-0.1-0.3,0.1-0.2c1.2,0.2,2.3,0.7,3.3,1.4
		c0.4,0.4,0.7,0.8,0.9,1.3c0.1,0.6,0,0.9-0.4,1.1c-0.4,0.1-0.8,0-1-0.5C205.2,10.4,204.3,9.4,202.9,8.5z"/>
	<path class="st0" d="M223.2,15.1c0.7-0.7,1.4-1.4,2-2.1c-0.4,0-0.7-0.3-1-0.9c-0.6-1.1-1.6-2.1-3.2-3c-2.1,2.5-4.5,4.5-7,5.9
		c-0.4,0-0.4-0.1-0.2-0.4c4.4-3,7.6-7.3,9.6-13l2,0.9c0.7,0.3,0.5,0.5-0.8,0.8c-0.4,0.7-0.7,1.3-1.1,1.9h7.1l0.7-0.9l1.9,1.2
		c0.5,0.5,0.2,0.8-0.9,0.8c-2.5,3.7-5.1,6.9-8,9.4h9.2l0.7-0.9l1.5,1.1c0.4,0.4,0.3,0.6-0.4,0.8v8.3c-1,0.9-1.4,0.9-1.4,0.1v-1.2
		h-9.6v2.1c-1,0.9-1.4,0.9-1.4,0.1v-9.2c-2.7,2.2-5.9,3.8-9.5,4.7c-0.4,0-0.4-0.1-0.2-0.4c3.6-1.2,6.8-3.1,9.7-5.7v-0.5L223.2,15.1z
		 M223.2,5.8c-0.7,1.2-1.3,2.2-2,3.1c1.8,0.4,3.1,1,3.7,1.6c0.4,0.4,0.8,1,1,1.8c1.6-1.8,3.2-4,4.7-6.5H223.2z M233.8,23.2v-6.9
		h-9.6v6.9H233.8z"/>
	<path class="st0" d="M259,5.8h8.4l1.4-1.4l1.8,1.3c0.4,0.4,0.4,0.6,0,0.8H259v2.8h6.8l1.2-1.2l1.5,1.1c0.4,0.4,0.4,0.6,0,0.8h-19.7
		V9.3h8.8V6.4h-11.7V5.8h11.7V1.6l1.9,0.3c0.6,0.4,0.4,0.6-0.4,0.8V5.8z M251.6,17.3v1.1c0,3-1.6,5.7-4.9,8.1
		c-0.4,0.1-0.5,0-0.3-0.3c2.6-2.3,3.8-4.9,3.8-7.8v-6.9l1.6,0.9H265l0.7-0.9l1.5,1.1c0.4,0.4,0.3,0.6-0.4,0.8v5.3
		c-1,0.9-1.4,0.9-1.4,0.1v-1.4H251.6z M257.8,13h-6.2v3.6h6.2V13z M265.4,13h-6.1v3.6h6.1V13z"/>
	<path class="st0" d="M300.7,11.1c0.3,0.2,0.4,0.4,0.4,0.5c0,0.2-0.1,0.4-0.4,0.5c-1.6,0.5-4.8,1.8-9.5,3.9c0,1.5,0,3.1,0,4.6
		c0,0.7-0.3,1-0.9,1c-0.3,0-0.4-0.2-0.4-0.7c0-1.4,0-2.8,0-4.3c-2,0.9-3.6,1.9-4.8,3.2c-0.7,0.7-1,1.3-1,1.9c0,0.5,0.2,0.9,0.5,1.3
		c0.7,0.7,2.2,1,4.6,1c2.4,0,4.4-0.2,6-0.5c0.5-0.2,0.9-0.3,1.2-0.3c0.8,0,1.2,0.4,1.2,1.1c0,0.3-0.2,0.5-0.7,0.5
		c-1.2,0.3-3.7,0.4-7.2,0.4c-2.8,0-4.7-0.5-5.7-1.4c-0.6-0.6-0.9-1.2-0.9-1.9c0-0.9,0.4-1.9,1.3-2.7c1.2-1.2,3-2.4,5.4-3.6
		c0-1.2-0.3-2-0.8-2.5c-0.3-0.3-0.8-0.4-1.4-0.4c-1.8,0-4,1.6-6.6,4.7c-0.2,0.2-0.4,0.3-0.7,0.3c-0.4,0-0.5-0.3-0.5-1
		c0-0.7,0.1-1.1,0.4-1.2c0.6-0.3,1.2-0.8,1.8-1.4c1.3-1.3,2.7-3.3,4.3-6c-0.6,0.1-1.4,0.1-2.5,0.2c-0.6,0.1-1.1,0.1-1.5,0.1
		c-0.3,0-0.7-0.3-1.2-0.8c-0.4-0.4-0.7-0.8-0.7-1.3c0.1-0.3,0.3-0.3,0.4,0.1c0.4,0.7,1.3,1,2.5,1c1.2,0,2.4-0.1,3.4-0.2
		c0.6-1.1,0.9-2,1-2.6c0.1-1-0.4-1.6-1.6-1.9c-0.5-0.1-0.5-0.2-0.1-0.4c1.3-0.1,2.6,0.3,3.9,1.2c0.4,0.3,0.3,0.6-0.1,1
		c-0.4,0.3-1,1.2-1.9,2.7c1.6-0.3,2.9-0.7,3.9-1.1c0.4-0.2,0.7-0.3,0.9-0.3s0.5,0.1,0.8,0.4c0.1,0.1,0.2,0.3,0.2,0.5
		c0,0.2-0.2,0.4-0.7,0.4c-1.8,0.3-3.6,0.6-5.6,0.9c-1,1.5-1.9,2.9-3,4.4c-0.2,0.4-0.1,0.5,0.2,0.3c1.2-0.6,2.2-0.9,3-0.9
		c1,0,1.8,0.3,2.3,0.8c0.7,0.7,1,1.5,1.1,2.4c3.7-1.8,6-2.9,7-3.5c0.4-0.1,0.4-0.3,0.2-0.5c-0.4-0.3-1-0.5-1.5-0.7
		c-0.4-0.1-0.4-0.3,0-0.4C298,10,299.3,10.3,300.7,11.1z"/>
	<path class="st0" d="M315.4,3.1l2.4,0.7c0.8,0.3,0.5,0.6-1,1c-0.4,1.3-1,2.6-1.5,3.8h5.8V1.7l1.9,0.3c0.6,0.4,0.4,0.6-0.4,0.8v5.8
		h6.6l1.4-1.4l1.8,1.3c0.4,0.4,0.4,0.6,0,0.8h-9.7v6.5h5.1l1.4-1.4l1.8,1.3c0.4,0.4,0.4,0.6,0,0.8h-8.3v7.7h7.8l1.6-1.6L334,24
		c0.4,0.4,0.4,0.6,0,0.8h-24.3v-0.7h11.4v-7.7h-6.8v-0.7h6.8V9.3H315c-1.5,2.9-3.3,5.3-5.3,7.2c-0.4,0.1-0.5,0-0.3-0.3
		C312.4,12.3,314.4,8,315.4,3.1z"/>
	<path class="st0" d="M364.3,19.5c-1.1-0.6-2.7-1.3-4.9-2.2c-1.8,4.5-4.1,7.4-7.1,8.9c-0.4,0.1-0.5,0.1-0.3-0.2
		c2.8-2.1,4.9-5.1,6.2-9.1c-3-1-5.9-1.6-8.8-1.6c-1.2,2.6-2.2,4.3-3.2,5.3c-0.8,0.8-1.7,1.2-2.6,1.2c-0.7,0-1.3-0.2-1.6-0.5
		c-0.4-0.4-0.7-1-0.7-1.8c0-0.7,0.3-1.3,0.9-2c1.4-1.5,3.5-2.5,6.4-2.8c1.1-2.5,2.3-5.5,3.6-9.2c0.1-0.4,0-0.5-0.3-0.5
		c-1.2,0.4-2.4,0.8-3.6,1.2c-0.8,0.2-1.4,0.5-1.6,0.8c-0.4,0.4-0.8,0.3-1.2-0.1c-0.9-1-1.3-1.8-1.3-2.4c-0.1-0.4,0-0.4,0.3-0.2
		c0.4,0.9,1,1.3,1.6,1.3c0.4,0,0.8-0.1,1.4-0.2c1.7-0.4,3.4-0.8,5-1.2l0.4-0.5c0.8,0.2,1.4,0.5,1.8,0.9c0.4,0.4,0.2,0.7-0.4,0.9
		c-0.4,0.1-0.7,0.6-1.1,1.4c-1.1,2.7-2.2,5.3-3.4,7.9c3.2,0.1,6.1,0.5,8.8,1.3c0.2-0.4,0.5-1.2,0.8-2.4c0.1-0.3,0.1-0.9,0.2-1.8
		c0.1-0.9-0.3-1.5-1.2-1.8c-0.4-0.1-0.4-0.3,0-0.4c1.2,0,2.3,0.5,3.4,1.4c0.5,0.4,0.5,0.8,0,1c-0.4,0.1-0.8,0.6-1,1.4
		c-0.4,1.2-0.7,2.2-1,2.8c3.2,1,5,1.7,5.5,2c0.4,0.2,0.5,0.6,0.5,1.1c0,0.4-0.2,0.7-0.5,0.7C364.9,19.8,364.6,19.7,364.3,19.5z
		 M343.1,17.6c-0.6,0.6-0.9,1.2-0.9,2c0,0.9,0.4,1.4,1.3,1.4c0.7,0,1.3-0.3,2-1c0.6-0.6,1.5-2.2,2.6-4.7
		C345.8,15.8,344.2,16.6,343.1,17.6z"/>
	<path class="st0" d="M393.2,13.4v-1.3h-7.6v11.1h8.7V15l1.9,0.3c0.6,0.4,0.4,0.6-0.4,0.8v9.8c-1,0.9-1.4,0.9-1.4,0.1v-2.1h-18.5
		v1.9c-1,0.9-1.4,0.9-1.4,0.1v-11l1.9,0.3c0.6,0.4,0.4,0.6-0.4,0.8v7.2h8.4V12.1h-7.1v1.1c-1,0.9-1.4,0.9-1.4,0.1V3.8l1.9,0.3
		c0.6,0.4,0.4,0.6-0.4,0.8v6.6h7.1V2.3l1.9,0.3c0.6,0.4,0.4,0.6-0.4,0.8v8.1h7.6V3.8l1.9,0.3c0.6,0.4,0.4,0.6-0.4,0.8v8.4
		C393.7,14.2,393.2,14.2,393.2,13.4z"/>
	<path class="st0" d="M418.3,8c3.3-0.2,5.5-0.4,6.6-0.5c0.4-0.1,1.2-0.2,2.2-0.4c0.4-0.1,0.7,0,1.1,0.3c0.8,0.7,1.2,1.1,1.3,1.3
		c0.1,0.4-0.1,0.6-0.7,0.4c-1.5-0.4-3.3-0.5-5.6-0.5c-1.4,0-3,0.1-4.9,0.2c0,1.6,0,3.2,0,4.7c0.2,0.7,0.3,1.8,0.3,3.1
		c0,4.6-2,7.9-6,10c-0.4,0.1-0.4,0-0.2-0.3c0.9-0.7,1.6-1.4,2.3-2.1c1.6-1.8,2.4-4,2.5-6.6c-0.6,0.9-1.4,1.3-2.3,1.3
		c-0.8,0-1.5-0.3-2.2-1c-0.5-0.5-0.8-1.3-0.8-2.3c0-1,0.4-1.9,1.1-2.6c0.6-0.6,1.3-0.9,2.2-0.9c0.7,0,1.2,0.1,1.8,0.4
		c0-1.2,0-2.4,0-3.6c-3.9,0.6-6.8,1.2-8.7,1.8c-0.7,0.2-1.2,0.4-1.5,0.5c-0.4,0.2-0.8,0.2-1.2-0.1c-0.8-0.6-1.4-1.4-1.8-2.5
		c0-0.4,0.1-0.4,0.4-0.1c0.4,0.7,1.1,1,2.1,1c1,0,2.6-0.2,4.7-0.5c1.7-0.3,3.7-0.5,5.9-0.8c0-0.9,0-1.9,0-3c0-1.7-0.7-2.6-2.2-2.7
		c-0.3-0.1-0.3-0.3,0-0.4c1.2-0.1,2.2,0,3,0.5c0.4,0.2,0.7,0.5,1,1c0.3,0.4,0.3,0.6-0.1,0.8C418.5,4.5,418.3,5.7,418.3,8z
		 M413.5,13.4c-0.4,0.5-0.5,1.1-0.5,1.9c0,1.2,0.3,2,0.9,2.5c0.2,0.2,0.6,0.3,1.1,0.3c0.5,0,0.9-0.1,1.2-0.4c0.7-0.7,1-1.6,1-2.7
		c0-1.6-0.6-2.4-1.9-2.4C414.5,12.6,413.9,12.9,413.5,13.4z"/>
</g>
</svg>
