<?xml version="1.0" encoding="utf-8"?>
<!-- Generator: Adobe Illustrator 25.0.1, SVG Export Plug-In . SVG Version: 6.00 Build 0)  -->
<svg version="1.1" id="レイヤー_1" xmlns="http://www.w3.org/2000/svg" xmlns:xlink="http://www.w3.org/1999/xlink" x="0px"
	 y="0px" viewBox="0 0 483.2 28.1" style="enable-background:new 0 0 483.2 28.1;" xml:space="preserve">
<style type="text/css">
	.st0{fill:#FFFFFF;}
</style>
<g>
	<path class="st0" d="M12.7,3.4c0.3,0.2,0.5,0.4,0.5,0.7c0,0.4-0.4,0.6-1.2,0.5c-0.4,0.7-0.8,1.4-1.1,1.8h6.2l1.3-1.4l2.2,2.2
		c0.7,0.7,0.3,1.1-1.3,1c-2,2.6-4.7,5.3-8,8h8.1l1.3-1.6l2,2c0.6,0.8,0.4,1.3-0.6,1.3v7.4l-0.5,0.3c-1,0.4-1.6,0.4-1.8,0v-1.7h-9.1
		v1.8l-0.5,0.3c-1,0.4-1.6,0.4-1.8,0v-7.7c-2.1,1.4-4.5,2.5-7.1,3.4c-0.7,0.1-0.7-0.1-0.1-0.4c2.8-1.5,5.2-3.1,7.2-4.8v-1.3l1,0.5
		c0.4-0.3,0.9-0.9,1.6-1.6c-0.4-0.3-0.7-0.7-0.9-1.3c-0.5-1.3-1.2-2.1-1.9-2.4c-2.2,2.6-4.3,4.3-6.2,5.2c-0.6,0.3-0.6,0.1-0.1-0.4
		c3.7-3.6,6.5-7.9,8.3-12.9L12.7,3.4z M10.6,7.1c-0.7,1.1-1.3,2-1.9,2.7c1.4,0.1,2.5,0.4,3.1,1.1c0.5,0.5,0.6,1.1,0.5,1.9
		c2-2,3.6-3.9,4.7-5.8H10.6z M10.7,23.4h9.1v-6.5h-9.1V23.4z"/>
	<path class="st0" d="M52.2,14.2c0.8,0.7,0.7,1.2-0.3,1.4v4.6l-0.5,0.3c-1,0.4-1.6,0.4-1.8,0V19H36.9c-0.4,3.4-2.2,5.9-5.3,7.5
		c-0.7,0.2-0.8,0.1-0.3-0.3c2.2-2.1,3.4-5,3.4-8.6v-5l2.5,1.1h11.9l1.1-1.4L52.2,14.2z M43.9,2.8c1.2,0.3,1.3,0.8,0.1,1.5v2.2h7.1
		L52.8,5l1.9,1.5C55,6.8,54.9,7,54.5,7.2H44v3.3h5l1.6-1.6l1.9,1.5c0.3,0.3,0.2,0.5-0.2,0.7H33.5v-0.6h8.2V7.2H31.7V6.6h10.1v-4
		L43.9,2.8z M37,18.4h4.8v-4.1H37V18.4z M44.1,18.4h5.4v-4.1h-5.4V18.4z"/>
	<path class="st0" d="M66.3,2.8c-1.9,3-2.8,6.9-2.8,11.5c0,4.6,0.9,8.4,2.8,11.5l-0.7,0.7c-2.8-3.5-4.2-7.6-4.2-12.2
		c0-4.6,1.4-8.7,4.2-12.2L66.3,2.8z"/>
	<path class="st0" d="M79.2,22.7v0.7h-7.6v-0.7h0.8c0.9,0,1.4-0.6,1.4-1.8v-14c0-1.2-0.5-1.8-1.4-1.8h-0.8V4.4h13.3l0.4,6.7h-0.6
		c-0.2-2-0.7-3.5-1.5-4.5s-1.9-1.5-3.4-1.5h-2.2c-0.9,0-1.4,0.6-1.4,1.8v6.2h1.9c1.7,0,2.5-1.1,2.5-3.3v-1h0.5v9.4h-0.5v-1
		c0-2.2-0.8-3.3-2.5-3.3h-1.9v6.9c0,1.2,0.5,1.8,1.4,1.8H79.2z"/>
	<path class="st0" d="M98.6,11.9c0.6,0.6,0.9,1.5,0.9,2.6v6.4c0,0.6,0.2,0.9,0.7,0.9c0.5,0,0.8-0.4,0.8-1.2V20h0.6v0.6
		c0,1.9-0.7,2.8-2.1,2.8c-1.1,0-1.8-0.6-2-1.7c-0.9,1.2-2,1.7-3.4,1.7c-0.9,0-1.7-0.3-2.2-1c-0.5-0.6-0.7-1.3-0.7-2
		c0-0.8,0.3-1.6,0.9-2.3c0.7-0.9,2.5-1.7,5.4-2.3v-1.5c0-1.6-0.7-2.4-2.2-2.4c-1.1,0-1.8,0.4-2.1,1.3c0.4,0,0.7,0.1,1,0.4
		c0.3,0.3,0.4,0.6,0.4,1.1c0,0.4-0.1,0.7-0.4,1c-0.3,0.3-0.6,0.4-1,0.4s-0.7-0.1-1-0.4c-0.3-0.3-0.5-0.8-0.5-1.5
		c0-0.7,0.3-1.5,1-2.1c0.7-0.7,1.8-1.1,3-1.1C96.9,10.9,97.9,11.2,98.6,11.9z M97.5,16.5c-1.8,0.4-2.9,1-3.6,1.7
		c-0.4,0.5-0.6,1.1-0.6,1.7c0,0.5,0.2,1,0.5,1.4c0.3,0.4,0.8,0.6,1.4,0.6c0.8,0,1.6-0.4,2.2-1.1V16.5z"/>
	<path class="st0" d="M111.3,13c1.2-1.4,2.2-2.1,3.3-2.1c0.7,0,1.3,0.2,1.7,0.6s0.7,1,0.9,1.7c1.1-1.6,2.2-2.3,3.3-2.3
		c0.8,0,1.5,0.2,1.9,0.7c0.7,0.7,1,1.6,1,2.8v7c0,0.9,0.4,1.3,1.3,1.3h0.4v0.7h-5.4v-0.7h0.3c0.9,0,1.3-0.4,1.3-1.3v-7.3
		c0-1.2-0.5-1.8-1.6-1.8c-0.8,0-1.6,0.7-2.4,2v7.1c0,0.9,0.4,1.3,1.3,1.3h0.2v0.7h-5.2v-0.7h0.3c0.9,0,1.3-0.4,1.3-1.3v-7.1
		c0-1.4-0.5-2-1.6-2c-0.7,0-1.5,0.7-2.3,2v7.1c0,0.9,0.4,1.3,1.3,1.3h0.2v0.7h-5.4v-0.7h0.5c0.9,0,1.3-0.4,1.3-1.3v-8.2
		c0-1.1-0.5-1.6-1.4-1.6h-0.4v-0.7c0.6,0,1.3-0.1,2-0.2c0.7-0.1,1.4-0.3,1.8-0.6V13z"/>
	<path class="st0" d="M135.9,10.9c1.2,0,2.1,0.4,2.8,1.1c1.2,1.2,1.8,2.9,1.8,5.2h-7.1c0.1,1.8,0.5,3.1,1.2,3.9
		c0.5,0.5,1.3,0.8,2.1,0.8c1.4,0,2.5-0.9,3.4-2.6l0.6,0.3c-1.2,2.6-2.7,4-4.6,4c-1.3,0-2.4-0.4-3.3-1.3c-1.3-1.3-1.9-2.9-1.9-4.9
		c0-2.1,0.6-3.8,1.9-5.1C133.8,11.3,134.8,10.9,135.9,10.9z M133.4,16.2h4.7c-0.1-3-0.8-4.5-2.1-4.5
		C134.4,11.8,133.6,13.3,133.4,16.2z"/>
	<path class="st0" d="M145.8,25.8c1.9-3,2.8-6.9,2.8-11.5c0-4.6-0.9-8.4-2.8-11.5l0.7-0.7c2.8,3.5,4.2,7.6,4.2,12.2
		c0,4.6-1.4,8.7-4.2,12.2L145.8,25.8z"/>
	<path class="st0" d="M165.4,3c0.4,0,0.8,0.1,1.1,0.4c0.6,0.4,1.2,0.8,1.7,1.2c0.5,0.4,0.5,0.8,0,1.2c-0.3,0.3-0.6,0.6-0.7,0.9
		l-1.1,2.9c0.6-0.1,1.2-0.2,1.8-0.2c2.2,0,3.4,1.5,3.4,4.4c0,2.8-0.5,5.4-1.5,7.8c-0.3,0.7-0.8,1.4-1.3,1.9c-0.8,0.7-1.6,1-2.2,1
		c-0.5,0-0.8-0.3-0.8-0.8c0-0.7-0.2-1.3-0.6-1.6l-2.2-1.8c-0.2-0.3-0.1-0.4,0.2-0.4c1.8,0.9,3.2,1.4,4.1,1.4c0.5,0,1-0.7,1.5-2
		c0.7-2,1.1-4.1,1.1-6.3c0-1.5-0.6-2.2-1.7-2.2c-0.5,0-1.2,0.1-2.1,0.3c-1.5,3.7-3.1,7.4-4.8,11c-0.4,0.9-0.8,1.7-1.2,2.1
		c-0.4,0.5-0.8,0.5-1.1,0c-0.2-0.3-0.4-0.6-0.5-1c-0.1-0.5,0-0.8,0.2-1.1c0.4-0.5,0.8-1,1.1-1.5c1.5-2.8,2.9-5.8,4.2-8.9l-2.3,0.6
		c-0.5,0.3-1,0.3-1.4,0c-0.9-0.7-1.6-1.4-1.8-1.8c-0.1-0.4,0-0.8,0.2-1.2c0.1-0.3,0.3-0.3,0.4,0c0.3,0.9,0.9,1.3,1.9,1.3
		c0.7,0,1.9-0.2,3.7-0.5c0.9-2.6,1.4-4.1,1.3-4.6c-0.1-0.7-0.5-1.3-1.4-1.6c-0.3-0.1-0.3-0.2,0-0.4C164.7,3.2,165,3,165.4,3z
		 M178,11.2c1.9,2,2.8,3.8,2.8,5.5c0,0.5-0.2,1-0.6,1.4c-0.2,0.2-0.4,0.3-0.7,0.3c-0.5,0-0.8-0.2-1-0.6c-0.3-0.5-0.8-0.8-1.3-0.8
		c-0.6,0-2,0.2-4.2,0.5c-0.3-0.1-0.4-0.2-0.2-0.4c1.5-0.6,3-1.2,4.7-1.8c0.2-0.1,0.3-0.2,0.2-0.5c-0.9-2.4-2.4-4.2-4.7-5.4
		c-0.2-0.2-0.1-0.3,0.2-0.3C175.2,9.4,176.7,10.1,178,11.2z M177.6,6.9c0,0.7-0.3,1-0.9,1c-0.5,0-0.8-0.2-1-0.7
		c-0.5-1-1.3-1.9-2.3-2.6c-0.3-0.2-0.2-0.3,0.1-0.3C176.2,4.9,177.6,5.7,177.6,6.9z M180.3,5.3c0,0.6-0.3,0.9-0.9,0.9
		c-0.5,0-0.8-0.3-1.1-0.8c-0.6-1-1.5-1.7-2.5-2.1c-0.1-0.2-0.1-0.3,0.2-0.3C178.8,3.2,180.3,4,180.3,5.3z"/>
	<path class="st0" d="M200.1,2.6c1.3,0.4,1.3,0.9,0.1,1.5V13h5.6V5.3l2.2,0.2c1.3,0.4,1.3,0.9,0.1,1.5v7.6l-0.5,0.3
		c-1,0.4-1.6,0.4-1.8,0v-1.3h-5.6v9.8h7v-7.6l2.2,0.2c1.3,0.4,1.3,0.9,0.1,1.5v7.6l-0.5,0.3c-1,0.4-1.6,0.4-1.8,0V24h-16.3v1.6
		l-0.5,0.3c-1,0.4-1.6,0.4-1.8,0v-10l2.2,0.2c1.3,0.4,1.3,0.9,0.1,1.5v5.7h6.9v-9.8h-5.7v1.2l-0.5,0.3c-1,0.4-1.6,0.4-1.8,0V5.5
		l2.2,0.2c1.3,0.4,1.3,0.9,0.1,1.5V13h5.7V2.4L200.1,2.6z"/>
	<path class="st0" d="M234.3,5.5c-0.3,0.3-0.4,0.7-0.4,1.2v3.5l2.8-0.4c0.4-0.1,0.8-0.2,1.1-0.4c0.3-0.3,0.7-0.4,1.1-0.2
		c0.6,0.3,1.2,0.6,1.7,1.1c0.2,0.2,0.3,0.4,0.2,0.7c-0.1,0.4-0.3,0.6-0.6,0.6l-6.4,0.3v4.1c0,1.4-0.2,2.4-0.7,3
		c-0.5,0.7-1.1,1-1.6,1c-0.3,0-0.6-0.2-0.7-0.7c-0.1-0.3-0.3-0.5-0.6-0.7c-1.2-0.8-2.4-1.6-3.6-2.4c-0.2-0.3-0.1-0.5,0.2-0.4
		c2,0.9,3.4,1.3,4.2,1.3c0.6,0,0.9-0.4,0.9-1.2v-3.7c-1.8,0.2-4,0.5-6.7,1c-0.1,2.3-0.1,4.5-0.1,6.5c0,1,0.2,1.7,0.6,2.1
		c0.5,0.5,2,0.8,4.5,0.8c1.7,0,3.4-0.2,5.1-0.5c0.5-0.2,0.9-0.2,1.3,0c0.4,0.3,0.7,0.6,0.9,1.1c0.3,0.7,0.1,1-0.6,1.1
		c-0.9,0.2-2.8,0.3-5.7,0.3c-3.6,0-5.9-0.5-6.8-1.4c-0.5-0.5-0.8-1.3-0.9-2.3c-0.1-1.9-0.1-4.3-0.1-7.2c-1.2,0.3-2.1,0.6-2.7,1
		c-0.3,0.3-0.7,0.4-1.1,0.2c-1.2-0.8-1.9-1.5-2-2.1c0-0.5,0-0.8,0.1-1.1c0.1-0.3,0.3-0.3,0.4,0c0.4,0.7,1,1,1.7,1l3.7-0.7v-3
		c0-0.9-0.1-1.5-0.3-1.7c-0.2-0.3-0.6-0.5-1.2-0.6c-0.3-0.1-0.3-0.2-0.1-0.4c0.6-0.4,1.1-0.6,1.4-0.6c0.4-0.1,1.2,0.3,2.3,1
		c0.5,0.4,0.6,0.8,0.1,1.1c-0.1,0.3-0.2,0.7-0.3,1.1l-0.1,2.7c2.1-0.3,4.3-0.7,6.7-1.1c0-1.6-0.1-3.2-0.2-4.9
		c-0.1-0.8-0.6-1.4-1.5-1.6c-0.3-0.1-0.3-0.2,0-0.4c0.7-0.5,1.3-0.6,1.7-0.4c0.7,0.3,1.4,0.6,2.1,1.1C234.6,4.6,234.7,5,234.3,5.5z"
		/>
	<path class="st0" d="M265.1,4.8c0.3,0.4,0.2,0.7-0.4,0.9c-0.4,0.1-0.8,0.4-1.3,0.7c-2.8,2.4-5.2,4.8-7.4,7c1.8-0.7,3.5-1,4.9-1
		c2.6,0,4.5,0.6,5.8,1.9c1.1,1.1,1.6,2.4,1.6,4.1c0,1.8-0.6,3.3-1.8,4.5c-1.6,1.6-3.8,2.4-6.6,2.4c-2.6,0-4.4-0.5-5.5-1.6
		c-0.5-0.5-0.7-1-0.7-1.7c0-0.7,0.2-1.3,0.7-1.7c0.6-0.6,1.4-0.9,2.4-0.9c1.2,0,2.1,0.4,2.8,1.1c0.7,0.7,1.3,1.8,1.7,3.1
		c1.2-0.3,2.1-0.8,2.8-1.5c1-1,1.5-2.2,1.5-3.7c0-1.3-0.4-2.3-1.2-3.1c-1.1-1.1-2.6-1.6-4.5-1.6c-2.4,0-4.6,0.9-6.6,2.7
		c-0.8,0.9-1.6,1.8-2.3,2.7c-0.4,0.5-0.8,0.6-1.2,0.2c-0.3-0.4-0.4-0.9-0.4-1.4c0-0.7,0.2-1.2,0.7-1.4c0.7-0.5,1.2-0.9,1.5-1.2
		c3-2.9,5.9-5.9,8.8-9c0.3-0.3,0.2-0.4-0.2-0.3c-1.7,0.4-3.4,0.9-5,1.4c-0.4,0.4-0.8,0.4-1.3,0.1c-0.7-0.5-1.3-1.1-1.9-1.8
		c-0.1-0.3-0.1-0.8,0.1-1.3c0.1-0.3,0.3-0.4,0.4-0.1c0.6,0.7,1.2,1.1,1.8,1.1c0.5,0,2.9-0.4,7.2-1.2c0.3-0.1,0.5-0.2,0.6-0.3
		c0.3-0.4,0.7-0.4,1.1-0.1C264,4,264.6,4.4,265.1,4.8z M255.5,20.8c-0.3,0.3-0.4,0.6-0.4,0.9c0,0.3,0.1,0.6,0.4,0.9
		c0.7,0.7,2,1,3.9,1c-0.6-2.2-1.6-3.3-2.8-3.3C256.1,20.4,255.7,20.5,255.5,20.8z"/>
	<path class="st0" d="M284.6,3.4c1.6,0.6,1.5,1.1-0.3,1.5c-0.5,1.6-1.1,3.3-1.8,4.9c1.2,0.4,1.3,0.9,0.1,1.5v14.7l-0.5,0.3
		c-1,0.4-1.6,0.4-1.8,0V14.1c-0.9,1.1-1.5,1.8-1.8,2.2c-0.3,0.4-0.8,0.9-1.5,1.5c-0.4,0.2-0.5,0.1-0.3-0.3c1.2-1.7,2.3-3.7,3.1-5.9
		c0.9-2.4,1.7-5.4,2.3-9L284.6,3.4z M292.5,3.3c1.3,0.4,1.3,0.9,0.1,1.5v7h3.8l2-2l2.3,1.9c0.3,0.3,0.2,0.5-0.1,0.7h-8v11.1h3.1l2-2
		l2.3,1.9c0.3,0.3,0.2,0.5-0.1,0.7h-15.7v-0.6h6V12.5h-7v-0.6h7V3.1L292.5,3.3z"/>
	<path class="st0" d="M320.1,2.7c1.3,0.4,1.3,0.9,0.1,1.5V6h6.2l2-2l2.3,1.9c0.3,0.3,0.2,0.5-0.1,0.7h-10.5v1.8h3.8l1.2-1.4l1.9,1.9
		c0.5,0.7,0.3,1.1-0.7,1.3v2.3l-0.5,0.3c-0.8,0.4-1.3,0.4-1.5-0.1v-0.6h-4.2v2.2h4.4l1.2-1.3l1.9,1.9c0.5,0.7,0.3,1.1-0.7,1.3v0.9
		h0.6l1.6-1.6l1.9,1.5c0.3,0.3,0.2,0.5-0.2,0.7h-4V22l-0.5,0.3c-0.8,0.4-1.3,0.4-1.5-0.1v-1.4h-4.8v4.1c0,0.5-0.8,1-2.3,1.4
		c-0.5,0.1-0.7,0-0.7-0.5c0-0.2,0-0.5-0.1-0.8l-2.8-1c-0.7-0.3-0.8-0.4-0.1-0.4h3.3c0.3,0,0.5-0.2,0.5-0.5v-2.2h-8v-0.6h8v-2.3
		h-10.8v-0.6h10.8V15h-8.1v-0.6h8.1v-2.2h-4.5v0.7l-0.5,0.3c-0.8,0.4-1.3,0.4-1.5-0.1V7.5l2.2,0.9h4.3V6.6h-10.3V6h10.3V2.5
		L320.1,2.7z M313.4,11.6h4.5V9h-4.5V11.6z M320.2,11.6h4.2V9h-4.2V11.6z M320.2,17.3h4.8V15h-4.8V17.3z M320.2,20.2h4.8v-2.3h-4.8
		V20.2z"/>
	<path class="st0" d="M348.4,4.2c0.5,0.3,0.5,0.7,0.2,1c-0.3,0.4-0.4,1-0.5,1.7v4.2c0,1.2,0.1,1.9,0.4,2.1c1.6-0.7,3.1-1.3,4.5-1.8
		c0.5-0.4,0.3-0.9-0.6-1.5c-0.3-0.1-0.2-0.3,0.1-0.4c0.6-0.3,1.3-0.3,1.9,0.1c0.7,0.5,1.5,1.3,2.2,2.3c0.3,0.5,0.1,0.9-0.5,1
		c-6.6,1.4-10.7,3-12.5,4.8c-0.7,0.7-1.1,1.5-1.1,2.3c0,0.7,0.2,1.2,0.6,1.6c0.8,0.8,2.6,1.2,5.4,1.2c1.4,0,3.1-0.1,5.2-0.4
		c0.6-0.1,1-0.3,1.2-0.4c0.3-0.2,0.7-0.2,1,0c0.5,0.5,0.8,0.9,1,1.4c0.3,0.7,0.1,1.2-0.6,1.3c-1,0.2-3.4,0.3-7,0.3s-6.1-0.6-7.3-1.8
		c-0.7-0.7-1.1-1.7-1.1-2.8c0-1.4,0.5-2.6,1.6-3.7c1.1-1.1,2.5-2,4.3-2.7c-0.4-0.6-0.6-1.4-0.7-2.2c-0.1-0.8-0.2-2.9-0.1-6.3
		c0-0.9-0.6-1.4-1.7-1.6c-0.3,0-0.4-0.1-0.1-0.4c0.3-0.2,0.6-0.4,1.1-0.5C346.1,2.9,347.2,3.3,348.4,4.2z"/>
	<path class="st0" d="M370.6,5.1c0.7,0.7,1.3,1.6,1.7,2.4c0.3,0.5,0.2,1-0.3,1.4c-1.4,2.9-2.1,5.7-2.1,8.4c0,0.9,0.1,1.7,0.2,2.2
		l3.1-6c0.3-0.1,0.4,0,0.3,0.3l-2,5.8c-0.2,0.8-0.2,1.7,0,2.6c0.2,0.7,0.2,1.3,0.1,1.7c-0.2,0.5-0.5,0.8-0.9,0.8
		c-0.9,0-1.6-0.7-2-2.1c-0.3-1-0.4-2.4-0.4-4.3c0-3,0.5-6.8,1.5-11.4c0-0.7-0.3-1.3-0.9-1.9c-0.3-0.1-0.3-0.3,0-0.4
		C369.4,4.5,370,4.6,370.6,5.1z M384.9,4.8c0.4,0.4,0.3,0.8-0.3,1.2c0,1.2,0,2.3,0,3.4c0.7-0.1,1.5-0.4,2.3-0.8
		c0.3-0.4,0.6-0.5,1-0.3c0.7,0.3,1.3,0.7,1.5,1.1c0.2,0.5,0,0.8-0.6,1c-1.3,0.3-2.7,0.6-4.3,0.8c0.1,3.3,0.2,5.8,0.2,7.7
		c1.6,0.5,3,1.2,4.3,1.8c0.7,0.4,1,0.8,1,1.3c0,0.7-0.1,1.1-0.2,1.3c-0.2,0.3-0.5,0.4-1,0.2c-1.4-0.9-2.7-1.8-4.1-2.5
		c-0.5,2.3-2,3.5-4.6,3.5c-1.6,0-2.8-0.4-3.7-1.3c-0.5-0.5-0.7-1.1-0.7-1.8c0-0.7,0.3-1.3,0.8-1.8c0.8-0.8,2.2-1.2,4.2-1.2
		c0.5,0,1.2,0.1,2,0.2c0.1-1.6,0-4-0.1-7c-2.4,0.2-4.2,0.3-5.6,0.3c-0.3,0.1-0.6,0.1-0.8-0.1c-0.8-0.6-1.5-1.2-2-1.8
		c-0.1-0.2-0.2-0.5-0.2-0.9c0-0.3,0.1-0.4,0.3-0.2c0.7,0.9,1.7,1.3,3.1,1.3c1.2,0,2.8-0.1,5.1-0.4l-0.1-3.1
		c-0.1-0.4-0.2-0.8-0.4-1.1c-0.3-0.3-0.8-0.6-1.5-0.8c-0.3,0-0.4-0.1-0.1-0.4c0.7-0.5,1.4-0.7,1.9-0.4
		C383.3,3.9,384.1,4.3,384.9,4.8z M377.4,21.2c0,1,0.9,1.5,2.6,1.5c1.8,0,2.7-0.9,2.7-2.6c-1-0.3-1.8-0.5-2.4-0.5
		C378.4,19.6,377.4,20.1,377.4,21.2z"/>
	<path class="st0" d="M404.1,3.3c0.9,0.3,0.8,0.7-0.3,1.1c-0.5,1.8-1.2,3.5-1.8,5.1c1.2,0.4,1.2,0.9,0.1,1.4v14.7l-0.5,0.2
		c-1,0.4-1.6,0.4-1.8,0V13.8c-1,1.4-2.1,2.5-3.1,3.5c-0.5,0.2-0.6,0-0.3-0.5c2.6-3,4.4-7.8,5.4-14.2L404.1,3.3z M420.8,5.4
		c0.3,0.3,0.2,0.5-0.1,0.7h-3.1v18.3c-0.1,0.3-0.4,0.7-0.9,1c-0.4,0.3-0.8,0.5-1.1,0.6c-0.6,0.2-0.9,0.1-0.9-0.2l-0.1-0.9
		c-0.1-0.1-0.2-0.2-0.3-0.3l-2.8-1.2c-0.2-0.2-0.2-0.3,0-0.3c1.4,0.1,2.6,0.1,3.6,0c0.2,0,0.3-0.1,0.3-0.3V6.1h-11V5.5h12.2l2-2
		L420.8,5.4z M412.9,11.5c0.5,0.7,0.3,1.1-0.7,1.3v5.6l-0.5,0.3c-0.8,0.4-1.3,0.4-1.5-0.1v-1.4h-3v2.3l-0.5,0.3
		c-0.8,0.4-1.3,0.4-1.5-0.1V9.8l2.1,1.1h2.5l1.2-1.4L412.9,11.5z M407.1,16.5h3v-5h-3V16.5z"/>
	<path class="st0" d="M434.7,3c0.4,0,0.8,0.1,1.1,0.4c0.6,0.4,1.2,0.8,1.7,1.2c0.5,0.4,0.5,0.8,0,1.2c-0.3,0.3-0.6,0.6-0.7,0.9
		l-1.1,2.9c0.6-0.1,1.2-0.2,1.8-0.2c2.2,0,3.4,1.5,3.4,4.4c0,2.8-0.5,5.4-1.5,7.8c-0.3,0.7-0.8,1.4-1.3,1.9c-0.8,0.7-1.6,1-2.2,1
		c-0.5,0-0.8-0.3-0.8-0.8c0-0.7-0.2-1.3-0.6-1.6l-2.2-1.8c-0.2-0.3-0.1-0.4,0.2-0.4c1.8,0.9,3.2,1.4,4.1,1.4c0.5,0,1-0.7,1.5-2
		c0.7-2,1.1-4.1,1.1-6.3c0-1.5-0.6-2.2-1.7-2.2c-0.5,0-1.2,0.1-2.1,0.3c-1.5,3.7-3.1,7.4-4.8,11c-0.4,0.9-0.8,1.7-1.2,2.1
		c-0.4,0.5-0.8,0.5-1.1,0c-0.2-0.3-0.4-0.6-0.5-1c-0.1-0.5,0-0.8,0.2-1.1c0.4-0.5,0.8-1,1.1-1.5c1.5-2.8,2.9-5.8,4.2-8.9l-2.3,0.6
		c-0.5,0.3-1,0.3-1.4,0c-0.9-0.7-1.6-1.4-1.8-1.8c-0.1-0.4,0-0.8,0.2-1.2c0.1-0.3,0.3-0.3,0.4,0c0.3,0.9,0.9,1.3,1.9,1.3
		c0.7,0,1.9-0.2,3.7-0.5c0.9-2.6,1.4-4.1,1.3-4.6c-0.1-0.7-0.5-1.3-1.4-1.6c-0.3-0.1-0.3-0.2,0-0.4C434,3.2,434.4,3,434.7,3z
		 M447.3,11.2c1.9,2,2.8,3.8,2.8,5.5c0,0.5-0.2,1-0.6,1.4c-0.2,0.2-0.4,0.3-0.7,0.3c-0.5,0-0.8-0.2-1-0.6c-0.3-0.5-0.8-0.8-1.3-0.8
		c-0.6,0-2,0.2-4.2,0.5c-0.3-0.1-0.4-0.2-0.2-0.4c1.5-0.6,3-1.2,4.7-1.8c0.2-0.1,0.3-0.2,0.2-0.5c-0.9-2.4-2.4-4.2-4.7-5.4
		c-0.2-0.2-0.1-0.3,0.2-0.3C444.5,9.4,446.1,10.1,447.3,11.2z"/>
	<path class="st0" d="M468.2,2.4c3,0,5.3,0.7,6.8,2.2c0.8,0.8,1.2,1.9,1.2,3.4c0,1.8-0.5,3.1-1.6,4.1c-0.6,0.5-1.4,1.1-2.3,1.5
		c-0.8,0.4-1.5,0.8-2.1,1.2c-0.7,0.5-1.1,1.1-1.1,1.8v3.9h-1V16c0-0.9,0.3-1.7,0.9-2.2c0.6-0.5,1.4-1.3,2.4-2.3
		c1.1-1.1,1.6-2.3,1.6-3.8c0-1.2-0.4-2.1-1.1-2.8C471,4,469.7,3.5,468,3.5c-1.8,0-3.3,0.5-4.4,1.6c-1.1,1.1-1.5,2.1-1.2,3.1
		c0.3-0.4,0.6-0.6,1.1-0.6c0.5,0,0.9,0.2,1.2,0.5c0.3,0.3,0.5,0.7,0.5,1.2c0,0.6-0.2,1.1-0.5,1.4c-0.3,0.3-0.7,0.5-1.2,0.5
		c-0.7,0-1.3-0.2-1.7-0.7c-0.5-0.5-0.7-1.3-0.7-2.1c0-1.6,0.6-3,1.7-4.2C464.1,3.1,465.9,2.4,468.2,2.4z M468.5,25.7
		c-0.5,0-1-0.2-1.3-0.5c-0.4-0.4-0.6-0.9-0.6-1.4s0.2-1,0.6-1.4c0.3-0.3,0.8-0.5,1.3-0.5c0.5,0,1,0.2,1.3,0.5
		c0.4,0.4,0.6,0.9,0.6,1.4s-0.2,1-0.6,1.4C469.5,25.5,469,25.7,468.5,25.7z"/>
</g>
</svg>
