<?xml version="1.0" encoding="utf-8"?>
<!-- Generator: Adobe Illustrator 25.0.1, SVG Export Plug-In . SVG Version: 6.00 Build 0)  -->
<svg version="1.1" id="レイヤー_1" xmlns="http://www.w3.org/2000/svg" xmlns:xlink="http://www.w3.org/1999/xlink" x="0px"
	 y="0px" viewBox="0 0 201.4 21.9" style="enable-background:new 0 0 201.4 21.9;" xml:space="preserve">
<style type="text/css">
	.st0{fill:#FFFFFF;}
</style>
<g>
	<path class="st0" d="M14.4,47.3v20.1h-1.1V50l-5.4,5.4h4.7v1.1H6.8L-4.4,67.6l-0.8-0.7L5.2,56.5H2.4v-1.2h3.9L14.4,47.3z"/>
	<path class="st0" d="M29.2,59.7l-8.1,8L20.4,67l7.3-7.3l-7.3-7.3l3.1-3.1h-5.4v18.3H17V48.1h9.1l-4.2,4.2L29.2,59.7z"/>
	<path class="st0" d="M51.1,56L39.4,67.6l-8.1-8L43,47.9L51.1,56z M49.6,56L43,49.5L32.9,59.6l6.5,6.5L49.6,56z"/>
	<path class="st0" d="M63.6,48.1v19.3H53.5V48.1h1.1v18.2h8V48.1H63.6z"/>
	<path class="st0" d="M81.9,49.2h-7.3v18.2h-1.1V49.2h-7.3v-1.1h15.6L81.9,49.2L81.9,49.2z"/>
</g>
<g>
	<path class="st0" d="M9.7,2.7L2.8,9.6L14,20.9l-0.9,0.8l-12-12l8.1-8h6.4v1.1H9.7z"/>
	<path class="st0" d="M38.3,9.6l-12,12L18,13.3l12-12L38.3,9.6z M36.7,9.6L30,2.9L19.6,13.3l6.7,6.7L36.7,9.6z"/>
	<path class="st0" d="M53,1.6v19.8h-1.1v-7.8l-10-10.1v17.9h-1.1V0.8L51.9,12V1.6H53z"/>
	<path class="st0" d="M71.8,2.7h-7.5v18.7h-1.1V2.7h-7.5V1.6h16.1V2.7z"/>
	<path class="st0" d="M94.4,0.7v20.6h-1.1V3.4L87.7,9h4.8v1.1h-5.9L75.1,21.6l-0.8-0.8l10.7-10.7H82V9H86L94.4,0.7z"/>
	<path class="st0" d="M105.3,2.7l-6.9,6.9l11.3,11.3l-0.9,0.8l-12-12l8.1-8h6.4v1.1H105.3z"/>
	<path class="st0" d="M130,2.7h-7.5v18.7h-1.1V2.7h-7.5V1.6H130V2.7z"/>
</g>
</svg>
