<?xml version="1.0" encoding="utf-8"?>
<!-- Generator: Adobe Illustrator 25.0.1, SVG Export Plug-In . SVG Version: 6.00 Build 0)  -->
<svg version="1.1" id="レイヤー_1" xmlns="http://www.w3.org/2000/svg" xmlns:xlink="http://www.w3.org/1999/xlink" x="0px"
	 y="0px" viewBox="0 0 201.4 21.9" style="enable-background:new 0 0 201.4 21.9;" xml:space="preserve">
<style type="text/css">
	.st0{fill:#FFFFFF;}
</style>
<g>
	<path class="st0" d="M19.9,1.3v20.1h-1.1V3.9l-5.4,5.4h4.7v1.1h-5.8L1.2,21.6l-0.8-0.7l10.4-10.4H7.9V9.3h3.9L19.9,1.3z"/>
	<path class="st0" d="M34.7,13.6l-8.1,8l-0.7-0.7l7.3-7.3l-7.3-7.3L29,3.2h-5.4v18.3h-1.1V2.1h9.1l-4.2,4.2L34.7,13.6z"/>
	<path class="st0" d="M56.6,9.9L45,21.6l-8.1-8L48.5,1.9L56.6,9.9z M55.1,9.9l-6.6-6.5L38.4,13.5l6.5,6.5L55.1,9.9z"/>
	<path class="st0" d="M69.1,2v19.3H59V2h1.1v18.3h8V2H69.1z"/>
	<path class="st0" d="M87.4,3.2h-7.3v18.3H79V3.2h-7.3V2.1h15.6L87.4,3.2L87.4,3.2z"/>
</g>
</svg>
